<?xml version="1.0" encoding="UTF-8"?>
<svg width="725px" height="283px" viewBox="0 0 725 283" version="1.1" xmlns="http://www.w3.org/2000/svg" xmlns:xlink="http://www.w3.org/1999/xlink">
    <!-- Generator: Sketch 60 (88103) - https://sketch.com -->
    <title>Logo_Light_Tagline_right</title>
    <desc>Created with Sketch.</desc>
    <defs>
        <path d="M33.9275288,2.05025253 L2.05025253,33.9275288 C0.737497883,35.2402834 8.65442663e-15,37.0207608 0,38.8772763 L0,263 C4.73447626e-16,266.865993 3.13400675,270 7,270 L231.122724,270 C232.979239,270 234.759717,269.262502 236.072471,267.949747 L267.949747,236.072471 C269.262502,234.759717 270,232.979239 270,231.122724 L270,7 C270,3.13400675 266.865993,3.01930545e-14 263,0 L38.8772763,0 C37.0207608,-1.64069137e-14 35.2402834,0.737497883 33.9275288,2.05025253 Z" id="path-1"></path>
        <filter x="-3.3%" y="-1.1%" width="104.4%" height="104.4%" filterUnits="objectBoundingBox" id="filter-2">
            <feOffset dx="-6" dy="6" in="SourceAlpha" result="shadowOffsetOuter1"></feOffset>
            <feComposite in="shadowOffsetOuter1" in2="SourceAlpha" operator="out" result="shadowOffsetOuter1"></feComposite>
            <feColorMatrix values="0 0 0 0 0   0 0 0 0 0   0 0 0 0 0  0 0 0 0.07 0" type="matrix" in="shadowOffsetOuter1"></feColorMatrix>
        </filter>
        <path d="M94,171.301127 L94,75.6988732 C94,74.5340495 94.9442762,73.5897733 96.1090999,73.5897733 C96.4870211,73.5897733 96.858,73.6913186 97.1832377,73.883789 L151.925862,106.279597 C152.588302,106.671618 153.411698,106.671618 154.074138,106.279597 L208.816762,73.883789 C209.819206,73.2905591 211.112754,73.6222922 211.705984,74.6247355 C211.898455,74.9499731 212,75.3209521 212,75.6988732 L212,171.301127 C212,172.465951 211.055724,173.410227 209.8909,173.410227 C209.512979,173.410227 209.142,173.308681 208.816762,173.116211 L183.534962,158.154847 C182.893466,157.77522 182.5,157.085171 182.5,156.339763 L182.5,126.325992 C182.5,125.161168 181.555724,124.216892 180.3909,124.216892 C180.012979,124.216892 179.642,124.318437 179.316762,124.510908 L154.074138,139.449088 C153.411698,139.841109 152.588302,139.841109 151.925862,139.449088 L126.683238,124.510908 C125.680794,123.917678 124.387246,124.249411 123.794016,125.251854 C123.601545,125.577092 123.5,125.948071 123.5,126.325992 L123.5,156.339763 C123.5,157.085171 123.106534,157.77522 122.465038,158.154847 L97.1832377,173.116211 C96.1807943,173.709441 94.8872456,173.377708 94.2940157,172.375265 C94.1015453,172.050027 94,171.679048 94,171.301127 Z" id="path-3"></path>
        <filter x="-9.0%" y="-2.9%" width="112.9%" height="111.7%" filterUnits="objectBoundingBox" id="filter-4">
            <feMorphology radius="1.61000001" operator="dilate" in="SourceAlpha" result="shadowSpreadOuter1"></feMorphology>
            <feOffset dx="-6" dy="6" in="shadowSpreadOuter1" result="shadowOffsetOuter1"></feOffset>
            <feComposite in="shadowOffsetOuter1" in2="SourceAlpha" operator="out" result="shadowOffsetOuter1"></feComposite>
            <feColorMatrix values="0 0 0 0 0   0 0 0 0 0   0 0 0 0 0  0 0 0 0.07 0" type="matrix" in="shadowOffsetOuter1"></feColorMatrix>
        </filter>
    </defs>
    <g id="Logo_Light_Tagline_right" stroke="none" stroke-width="1" fill="none" fill-rule="evenodd">
        <g id="Group" transform="translate(8.000000, 5.000000)">
            <g id="Group-16" transform="translate(335.000000, 74.000000)" fill-rule="nonzero">
                <path d="M19.7,72 L25.9,28 L26.4,28 L32.1,72 L56.2,72 L74.4,28 L74.8,28 L68.6,72 L89.6,72 L99.3,3.4 L64.7,3.4 L49.8,40 L49.4,40 L44.7,3.4 L10.3,3.4 L0.6,72 L19.7,72 Z M146.7,73 C148.366667,73 150.15,72.8 152.05,72.4 C153.95,72 155.6,71.4333333 157,70.7 L157,70.7 L158.5,59.7 C157.166667,60.5666667 155.933333,61 154.8,61 C153.066667,61 152.2,60.1 152.2,58.3 C152.2,56.7 152.733333,52.1833333 153.8,44.75 C154.866667,37.3166667 156.1,29.3666667 157.5,20.9 L157.5,20.9 L142.6,20.9 L139.2,27 L138.7,27 C137.3,24.7333333 135.366667,22.9833333 132.9,21.75 C130.433333,20.5166667 127.833333,19.9 125.1,19.9 C119.766667,19.9 115.283333,21.55 111.65,24.85 C108.016667,28.15 105.35,32.3166667 103.65,37.35 C101.95,42.3833333 101.1,47.5 101.1,52.7 C101.1,58.7666667 102.483333,63.6666667 105.25,67.4 C108.016667,71.1333333 112.333333,73 118.2,73 C120.933333,73 123.65,72.2666667 126.35,70.8 C129.05,69.3333333 131.3,67.4666667 133.1,65.2 C133.833333,68.2666667 135.383333,70.3333333 137.75,71.4 C140.116667,72.4666667 143.1,73 146.7,73 Z M126,60.9 C124.466667,60.9 123.2,60.35 122.2,59.25 C121.2,58.15 120.7,56.7333333 120.7,55 C120.7,54.4666667 121.4,49.2666667 122.8,39.4 C123.066667,37.4 123.883333,35.7333333 125.25,34.4 C126.616667,33.0666667 128.2,32.4 130,32.4 C131.6,32.4 132.883333,32.9 133.85,33.9 C134.816667,34.9 135.3,36.3333333 135.3,38.2 C135.3,38.8 135.066667,40.5666667 134.6,43.5 L134.6,43.5 L134.2,46.7 L133.2,53.9 C132.866667,55.9666667 132.1,57.65 130.9,58.95 C129.7,60.25 128.066667,60.9 126,60.9 Z M182.8,72 L184.4,60.6 L188.4,57.5 L195.4,72 L218.7,72 L204.4,44 L225.6,20.9 L203,20.9 L187.3,39.9 L192.9,0 L173.1,0 L163.1,72 L182.8,72 Z M250.2,73 C255.266667,73 259.816667,72.1166667 263.85,70.35 C267.883333,68.5833333 271.116667,66.1666667 273.55,63.1 C275.983333,60.0333333 277.466667,56.6 278,52.8 L278,52.8 L259.7,52.8 C259.366667,55.3333333 258.466667,57.3166667 257,58.75 C255.533333,60.1833333 253.633333,60.9 251.3,60.9 C249.3,60.9 247.666667,60.3833333 246.4,59.35 C245.133333,58.3166667 244.5,56.8666667 244.5,55 C244.433333,54.8 244.566667,53.6666667 244.9,51.6 L244.9,51.6 L245.3,49.1 L278.6,49.1 C279.133333,45.1666667 279.433333,42.7 279.5,41.7 L279.5,41.7 L279.7,39 C279.7,33.2 277.833333,28.5666667 274.1,25.1 C270.366667,21.6333333 265,19.9 258,19.9 L258,19.9 L255.5,19.9 C249.366667,19.9 243.916667,21.1833333 239.15,23.75 C234.383333,26.3166667 230.65,30.0166667 227.95,34.85 C225.25,39.6833333 223.9,45.4 223.9,52 C223.9,56.3333333 224.95,60.0833333 227.05,63.25 C229.15,66.4166667 232.083333,68.8333333 235.85,70.5 C239.616667,72.1666667 243.9,73 248.7,73 L248.7,73 L250.2,73 Z M260.3,40.4 L246.5,40.4 L246.7,39 C246.966667,37.0666667 247.85,35.4166667 249.35,34.05 C250.85,32.6833333 252.6,32 254.6,32 C256.333333,32 257.75,32.5833333 258.85,33.75 C259.95,34.9166667 260.5,36.3666667 260.5,38.1 C260.5,38.6333333 260.466667,39.1 260.4,39.5 C260.333333,39.9 260.3,40.2 260.3,40.4 L260.3,40.4 Z M330.1,14.3 L332.1,0 L312.4,0 L310.4,14.3 L330.1,14.3 Z M322,72 L329.2,20.9 L309.5,20.9 L302.4,72 L322,72 Z M353,73.1 C354.866667,73.1 357.216667,72.8833333 360.05,72.45 C362.883333,72.0166667 365.1,71.5 366.7,70.9 L366.7,70.9 L368.3,59.7 C367.5,60.0333333 366.45,60.3166667 365.15,60.55 C363.85,60.7833333 362.8,60.9 362,60.9 C360.333333,60.9 359.083333,60.5666667 358.25,59.9 C357.416667,59.2333333 357,57.9 357,55.9 C357,55.1 357.966667,48.1666667 359.9,35.1 L359.9,35.1 L371.9,35.1 L373.9,20.9 L361.9,20.9 L365.3,4.6 L344.4,4.6 L342.1,20.9 L336.5,20.9 L334.5,35.1 L340.1,35.1 L337.6,52.6 C337.133333,55.4666667 336.833333,57.5166667 336.7,58.75 C336.566667,59.9833333 336.5,61 336.5,61.8 C336.5,65.8666667 337.916667,68.7666667 340.75,70.5 C343.583333,72.2333333 347.666667,73.1 353,73.1 Z" id="Makeit" fill="#FFFFFF"></path>
                <path d="M9.328549,129.184864 C12.0564299,129.184864 14.1738374,128.618389 15.6807716,127.485438 C17.1877058,126.352488 17.9411729,124.554066 17.9411729,122.090174 C17.9411729,120.704234 17.572689,119.593283 16.8357212,118.75732 C16.0987534,117.921356 15.213292,117.294383 14.1793372,116.876402 C13.1453823,116.45842 11.7924414,116.029439 10.1205144,115.589458 C8.82257109,115.259472 7.80511552,114.962485 7.0681477,114.698497 C6.33117988,114.434508 5.71520678,114.071524 5.22022839,113.609544 C4.72525,113.147564 4.47776081,112.55359 4.47776081,111.827622 C4.47776081,110.859664 4.91224184,110.117197 5.7812039,109.600219 C6.65016595,109.083242 7.86561288,108.824753 9.42754468,108.824753 C10.8354832,108.824753 11.9684337,109.110741 12.8263963,109.682716 C13.6843588,110.254691 14.1133401,111.068655 14.1133401,112.124609 L14.1133401,112.124609 L14.1133401,112.619588 L17.3471989,112.619588 L17.3471989,112.223605 C17.3471989,110.199693 16.6377298,108.637761 15.2187918,107.537809 C13.7998538,106.437857 11.847439,105.887881 9.36154756,105.887881 C6.89765514,105.887881 4.92874112,106.415858 3.45480548,107.471812 C1.98086984,108.527766 1.24390202,110.144696 1.24390202,112.3226 C1.24390202,113.664542 1.59588665,114.747995 2.29985591,115.572959 C3.00382517,116.397923 3.85078819,117.008396 4.84074496,117.404379 C5.83070173,117.800361 7.1506441,118.218343 8.80057205,118.658324 C10.1425135,119.010308 11.2039671,119.329295 11.984933,119.615282 C12.7658989,119.90127 13.4148706,120.302752 13.931848,120.819729 C14.4488254,121.336707 14.7073141,122.013177 14.7073141,122.849141 C14.7073141,123.905095 14.228835,124.735558 13.2718768,125.340532 C12.3149186,125.945506 11.0114755,126.247992 9.36154756,126.247992 C7.66762152,126.247992 6.3421794,125.934506 5.38522119,125.307533 C4.42826297,124.680561 3.94978387,123.729102 3.94978387,122.453158 L3.94978387,122.453158 L3.98278242,121.760188 L0.748923632,121.760188 L0.715925073,122.42016 C0.715925073,124.620064 1.46939217,126.29749 2.97632637,127.45244 C4.48326057,128.607389 6.60066811,129.184864 9.328549,129.184864 Z M29.2738206,129.184864 C30.5277659,129.184864 31.5507212,128.986873 32.3426866,128.59089 L32.3426866,128.59089 L32.3426866,126.280991 C31.5507212,126.610977 30.868751,126.775969 30.2967759,126.775969 C29.6588038,126.775969 29.1858245,126.599977 28.8778379,126.247992 C28.5698514,125.896008 28.4158581,125.324033 28.4158581,124.532067 L28.4158581,124.532067 L28.4158581,114.467507 L32.3426866,114.467507 L32.3426866,111.992615 L28.4158581,111.992615 L28.4158581,106.61385 L26.4689431,106.61385 L25.4129892,111.992615 L23.4660742,111.992615 L23.4660742,114.467507 L25.3139935,114.467507 L25.3139935,124.367075 C25.3139935,126.039002 25.6494789,127.259948 26.3204496,128.029915 C26.9914203,128.799881 27.9758773,129.184864 29.2738206,129.184864 Z M51.6939842,129.184864 C52.6399429,129.184864 53.4869059,128.964874 54.2348732,128.524893 L54.2348732,128.524893 L54.2348732,126.247992 C53.7288953,126.555979 53.2229174,126.709972 52.7169395,126.709972 C52.452951,126.709972 52.2329606,126.616476 52.0569683,126.429484 C51.880976,126.242493 51.7929798,125.951005 51.7929798,125.555023 L51.7929798,125.555023 L51.7929798,116.810405 C51.7929798,115.138478 51.2485036,113.862533 50.1595512,112.982572 C49.0705987,112.10261 47.415171,111.662629 45.193268,111.662629 L45.193268,111.662629 L44.896281,111.662629 C43.6203367,111.662629 42.4543876,111.86612 41.3984337,112.273103 C40.3424798,112.680085 39.5065163,113.224561 38.8905432,113.906531 C38.2745701,114.588502 37.9665836,115.31447 37.9665836,116.084436 C37.9665836,116.502418 37.9885826,116.865402 38.0325807,117.173389 L38.0325807,117.173389 L41.0684481,117.173389 L41.0684481,116.777406 C41.0684481,115.941442 41.3984337,115.292471 42.0584049,114.830491 C42.7183761,114.368511 43.6423357,114.137521 44.8302839,114.137521 C46.0842291,114.137521 47.0411873,114.363011 47.7011585,114.813992 C48.3611297,115.264972 48.6911153,116.051438 48.6911153,117.173389 L48.6911153,117.173389 L48.6911153,118.724321 C45.8312402,118.724321 43.5873381,118.900313 41.9594092,119.252298 C40.3314803,119.604283 39.1655312,120.170758 38.461562,120.951724 C37.7575927,121.73269 37.4056081,122.805143 37.4056081,124.169083 C37.4056081,125.907007 37.8620881,127.177452 38.7750483,127.980417 C39.6880084,128.783382 41.0684481,129.184864 42.9163674,129.184864 C45.4902551,129.184864 47.4591691,128.172908 48.8231095,126.148997 C48.8671076,127.094955 49.1200966,127.837423 49.5820764,128.376399 C50.0440562,128.915376 50.7480255,129.184864 51.6939842,129.184864 Z M43.9723213,126.709972 C41.6624222,126.709972 40.5074726,125.951005 40.5074726,124.433072 C40.5074726,123.619107 40.705464,122.981135 41.1014467,122.519155 C41.4974294,122.057175 42.2838951,121.710691 43.4608437,121.479701 C44.6377923,121.248711 46.3812161,121.133216 48.6911153,121.133216 L48.6911153,121.133216 L48.6911153,121.793187 C48.6911153,122.761145 48.4711249,123.619107 48.0311441,124.367075 C47.5911633,125.115042 47.0081888,125.692517 46.2822205,126.099499 C45.5562522,126.506481 44.7862858,126.709972 43.9723213,126.709972 Z M63.3236189,128.854879 L63.3236189,118.790318 C63.3236189,117.36038 63.6206059,116.22743 64.21458,115.391466 C64.808554,114.555503 65.633518,114.137521 66.6894719,114.137521 C67.1954498,114.137521 67.7014277,114.275015 68.2074056,114.550003 C68.7133835,114.824991 69.1313653,115.215474 69.4613509,115.721452 C69.7913365,116.22743 69.9563293,116.810405 69.9563293,117.470376 L69.9563293,117.470376 L69.9563293,118.196344 L72.6952097,118.196344 L72.7942053,116.942399 C72.7942053,115.424465 72.3542246,114.16502 71.474263,113.164064 C70.5943014,112.163107 69.3733547,111.662629 67.8114229,111.662629 C66.9754594,111.662629 66.2109928,111.805623 65.5180231,112.091611 C64.8250533,112.377598 64.2475785,112.740582 63.7855987,113.180563 C63.3236189,113.620544 63.0266319,114.060525 62.8946376,114.500505 L62.8946376,114.500505 L62.4326578,111.992615 L60.2217543,111.992615 L60.2217543,128.854879 L63.3236189,128.854879 Z M83.2358919,129.184864 C84.4898372,129.184864 85.5127925,128.986873 86.3047579,128.59089 L86.3047579,128.59089 L86.3047579,126.280991 C85.5127925,126.610977 84.8308223,126.775969 84.2588473,126.775969 C83.6208751,126.775969 83.1478958,126.599977 82.8399092,126.247992 C82.5319227,125.896008 82.3779294,125.324033 82.3779294,124.532067 L82.3779294,124.532067 L82.3779294,114.467507 L86.3047579,114.467507 L86.3047579,111.992615 L82.3779294,111.992615 L82.3779294,106.61385 L80.4310144,106.61385 L79.3750605,111.992615 L77.4281455,111.992615 L77.4281455,114.467507 L79.2760649,114.467507 L79.2760649,124.367075 C79.2760649,126.039002 79.6115502,127.259948 80.2825209,128.029915 C80.9534916,128.799881 81.9379486,129.184864 83.2358919,129.184864 Z M106.942999,129.184864 C107.646969,129.184864 108.339938,128.964874 109.021909,128.524893 L109.021909,128.524893 L109.021909,126.247992 C108.515931,126.555979 108.020952,126.709972 107.536973,126.709972 C107.272985,126.709972 107.052994,126.616476 106.877002,126.429484 C106.70101,126.242493 106.613014,125.951005 106.613014,125.555023 L106.613014,125.555023 L106.613014,111.992615 L103.511149,111.992615 L103.511149,122.024177 C103.511149,122.882139 103.302158,123.668605 102.884177,124.383574 C102.466195,125.098543 101.910719,125.665018 101.217749,126.083 C100.52478,126.500981 99.7933115,126.709972 99.0233451,126.709972 C96.6474489,126.709972 95.4595007,125.401029 95.4595007,122.783144 L95.4595007,122.783144 L95.4595007,111.992615 L92.3576362,111.992615 L92.3576362,123.344119 C92.3576362,125.236037 92.9021124,126.682473 93.9910648,127.68343 C95.0800173,128.684386 96.4714565,129.184864 98.1653826,129.184864 C99.3753297,129.184864 100.447783,128.942875 101.382742,128.458896 C102.317701,127.974917 103.082168,127.292947 103.676142,126.412985 C103.72014,127.292947 103.978629,127.974917 104.451608,128.458896 C104.924587,128.942875 105.755051,129.184864 106.942999,129.184864 Z M118.374643,134.827618 L118.374643,126.709972 C119.540592,128.3599 121.157521,129.184864 123.225431,129.184864 C125.381337,129.184864 127.058763,128.436897 128.257711,126.940962 C129.456659,125.445027 130.056133,123.399117 130.056133,120.80323 L130.056133,120.80323 L130.056133,120.440246 C130.056133,117.712365 129.451159,115.567459 128.241212,114.005527 C127.031265,112.443595 125.359338,111.662629 123.225431,111.662629 C121.003528,111.662629 119.265604,112.542591 118.011659,114.302514 C117.879664,113.466551 117.736671,112.696584 117.582677,111.992615 L117.582677,111.992615 L115.272778,111.992615 L115.272778,134.827618 L118.374643,134.827618 Z M122.664455,126.709972 C121.212519,126.709972 120.129066,126.198495 119.414097,125.175539 C118.699128,124.152584 118.341644,122.563153 118.341644,120.407247 C118.341644,118.29534 118.688129,116.722408 119.381099,115.688454 C120.074068,114.654499 121.168521,114.137521 122.664455,114.137521 C124.094393,114.137521 125.166846,114.643499 125.881815,115.655455 C126.596784,116.667411 126.954268,118.251342 126.954268,120.407247 C126.954268,122.541154 126.602283,124.125085 125.898314,125.15904 C125.194345,126.192995 124.116392,126.709972 122.664455,126.709972 Z M154.866334,129.184864 C157.594215,129.184864 159.711623,128.618389 161.218557,127.485438 C162.725491,126.352488 163.478958,124.554066 163.478958,122.090174 C163.478958,120.704234 163.110474,119.593283 162.373507,118.75732 C161.636539,117.921356 160.751077,117.294383 159.717122,116.876402 C158.683168,116.45842 157.330227,116.029439 155.6583,115.589458 C154.360356,115.259472 153.342901,114.962485 152.605933,114.698497 C151.868965,114.434508 151.252992,114.071524 150.758014,113.609544 C150.263035,113.147564 150.015546,112.55359 150.015546,111.827622 C150.015546,110.859664 150.450027,110.117197 151.318989,109.600219 C152.187951,109.083242 153.403398,108.824753 154.96533,108.824753 C156.373269,108.824753 157.506219,109.110741 158.364182,109.682716 C159.222144,110.254691 159.651125,111.068655 159.651125,112.124609 L159.651125,112.124609 L159.651125,112.619588 L162.884984,112.619588 L162.884984,112.223605 C162.884984,110.199693 162.175515,108.637761 160.756577,107.537809 C159.337639,106.437857 157.385224,105.887881 154.899333,105.887881 C152.43544,105.887881 150.466526,106.415858 148.992591,107.471812 C147.518655,108.527766 146.781687,110.144696 146.781687,112.3226 C146.781687,113.664542 147.133672,114.747995 147.837641,115.572959 C148.54161,116.397923 149.388573,117.008396 150.37853,117.404379 C151.368487,117.800361 152.688429,118.218343 154.338357,118.658324 C155.680299,119.010308 156.741752,119.329295 157.522718,119.615282 C158.303684,119.90127 158.952656,120.302752 159.469633,120.819729 C159.986611,121.336707 160.245099,122.013177 160.245099,122.849141 C160.245099,123.905095 159.76662,124.735558 158.809662,125.340532 C157.852704,125.945506 156.549261,126.247992 154.899333,126.247992 C153.205407,126.247992 151.879965,125.934506 150.923006,125.307533 C149.966048,124.680561 149.487569,123.729102 149.487569,122.453158 L149.487569,122.453158 L149.520568,121.760188 L146.286709,121.760188 L146.25371,122.42016 C146.25371,124.620064 147.007177,126.29749 148.514112,127.45244 C150.021046,128.607389 152.138453,129.184864 154.866334,129.184864 Z M174.811606,129.184864 C176.065551,129.184864 177.088507,128.986873 177.880472,128.59089 L177.880472,128.59089 L177.880472,126.280991 C177.088507,126.610977 176.406536,126.775969 175.834561,126.775969 C175.196589,126.775969 174.72361,126.599977 174.415623,126.247992 C174.107637,125.896008 173.953643,125.324033 173.953643,124.532067 L173.953643,124.532067 L173.953643,114.467507 L177.880472,114.467507 L177.880472,111.992615 L173.953643,111.992615 L173.953643,106.61385 L172.006728,106.61385 L170.950775,111.992615 L169.00386,111.992615 L169.00386,114.467507 L170.851779,114.467507 L170.851779,124.367075 C170.851779,126.039002 171.187264,127.259948 171.858235,128.029915 C172.529206,128.799881 173.513663,129.184864 174.811606,129.184864 Z M198.518713,129.184864 C199.222683,129.184864 199.915652,128.964874 200.597623,128.524893 L200.597623,128.524893 L200.597623,126.247992 C200.091645,126.555979 199.596666,126.709972 199.112687,126.709972 C198.848699,126.709972 198.628708,126.616476 198.452716,126.429484 C198.276724,126.242493 198.188728,125.951005 198.188728,125.555023 L198.188728,125.555023 L198.188728,111.992615 L195.086863,111.992615 L195.086863,122.024177 C195.086863,122.882139 194.877872,123.668605 194.459891,124.383574 C194.041909,125.098543 193.486433,125.665018 192.793463,126.083 C192.100494,126.500981 191.369025,126.709972 190.599059,126.709972 C188.223163,126.709972 187.035215,125.401029 187.035215,122.783144 L187.035215,122.783144 L187.035215,111.992615 L183.93335,111.992615 L183.93335,123.344119 C183.93335,125.236037 184.477826,126.682473 185.566779,127.68343 C186.655731,128.684386 188.047171,129.184864 189.741097,129.184864 C190.951044,129.184864 192.023497,128.942875 192.958456,128.458896 C193.893415,127.974917 194.657882,127.292947 195.251856,126.412985 C195.295854,127.292947 195.554343,127.974917 196.027322,128.458896 C196.500301,128.942875 197.330765,129.184864 198.518713,129.184864 Z M212.656238,129.184864 C214.878141,129.184864 216.616066,128.304903 217.870011,126.544979 C218.002005,127.380943 218.144999,128.150909 218.298992,128.854879 L218.298992,128.854879 L220.608891,128.854879 L220.608891,105.095916 L217.507027,105.095916 L217.507027,114.137521 C216.363077,112.487593 214.746147,111.662629 212.656238,111.662629 C210.500333,111.662629 208.822906,112.416096 207.623958,113.923031 C206.425011,115.429965 205.825537,117.470376 205.825537,120.044263 L205.825537,120.044263 L205.825537,120.407247 C205.825537,123.135128 206.43601,125.280035 207.656957,126.841966 C208.877903,128.403898 210.544331,129.184864 212.656238,129.184864 Z M213.217214,126.709972 C211.765277,126.709972 210.687324,126.203994 209.983355,125.192039 C209.279386,124.180083 208.927401,122.596152 208.927401,120.440246 C208.927401,118.28434 209.273886,116.69491 209.966856,115.671954 C210.659826,114.648999 211.743278,114.137521 213.217214,114.137521 C214.647152,114.137521 215.725104,114.648999 216.451073,115.671954 C217.177041,116.69491 217.540025,118.28434 217.540025,120.440246 C217.540025,124.620064 216.099088,126.709972 213.217214,126.709972 Z M231.611553,107.966791 L231.611553,105.095916 L228.377695,105.095916 L228.377695,107.966791 L231.611553,107.966791 Z M231.545556,128.854879 L231.545556,111.992615 L228.443692,111.992615 L228.443692,128.854879 L231.545556,128.854879 Z M246.112063,129.184864 C248.509958,129.184864 250.401875,128.458896 251.787815,127.006959 C253.173754,125.555023 253.866724,123.56411 253.866724,121.03422 L253.866724,121.03422 L253.866724,119.813273 C253.866724,117.283384 253.162755,115.292471 251.754816,113.840534 C250.346878,112.388598 248.46596,111.662629 246.112063,111.662629 C243.758165,111.662629 241.877248,112.388598 240.469309,113.840534 C239.061371,115.292471 238.357401,117.283384 238.357401,119.813273 L238.357401,119.813273 L238.357401,121.03422 C238.357401,123.56411 239.050371,125.555023 240.436311,127.006959 C241.82225,128.458896 243.714167,129.184864 246.112063,129.184864 Z M246.112063,126.709972 C244.616128,126.709972 243.466678,126.192995 242.663713,125.15904 C241.860748,124.125085 241.459266,122.651149 241.459266,120.737233 L241.459266,120.737233 L241.459266,120.11026 C241.459266,118.152346 241.866248,116.667411 242.680213,115.655455 C243.494177,114.643499 244.638127,114.137521 246.112063,114.137521 C247.607997,114.137521 248.757447,114.654499 249.560412,115.688454 C250.363377,116.722408 250.76486,118.196344 250.76486,120.11026 L250.76486,120.11026 L250.76486,120.737233 C250.76486,122.673149 250.352378,124.152584 249.527414,125.175539 C248.70245,126.198495 247.563999,126.709972 246.112063,126.709972 Z" id="StartupStudio" fill="#000000" opacity="0.410109747"></path>
            </g>
            <g id="Group-30">
                <g id="Path-17">
                    <use fill="black" fill-opacity="1" filter="url(#filter-2)" xlink:href="#path-1"></use>
                    <path stroke="#1F1B24" stroke-width="3" d="M34.988189,3.1109127 L3.1109127,34.988189 C2.07946262,36.019639 1.5,37.4185856 1.5,38.8772763 L1.5,263 C1.5,266.037566 3.96243388,268.5 7,268.5 L231.122724,268.5 C232.581414,268.5 233.980361,267.920537 235.011811,266.889087 L266.889087,235.011811 C267.920537,233.980361 268.5,232.581414 268.5,231.122724 L268.5,7 C268.5,3.96243388 266.037566,1.5 263,1.5 L38.8772763,1.5 C37.4185856,1.5 36.019639,2.07946262 34.988189,3.1109127 Z" stroke-linejoin="square" fill="#459593" fill-rule="evenodd"></path>
                </g>
                <rect id="Rectangle" stroke="#1F1B24" stroke-width="3" fill="#64C1BE" fill-rule="nonzero" x="37.5" y="1.5" width="231" height="231"></rect>
                <g id="Path-2">
                    <use fill="black" fill-opacity="1" filter="url(#filter-4)" xlink:href="#path-3"></use>
                    <use stroke="#1F1B24" stroke-width="3.22000003" fill="#FFFFFF" fill-rule="evenodd" xlink:href="#path-3"></use>
                </g>
                <path d="M3,267 L39,231 L3,267 Z" id="Path-18" stroke="#1F1B24" stroke-width="3"></path>
            </g>
        </g>
    </g>
</svg>