<?xml version="1.0" encoding="UTF-8"?>
<svg width="174px" height="369px" viewBox="0 0 174 369" version="1.1" xmlns="http://www.w3.org/2000/svg" xmlns:xlink="http://www.w3.org/1999/xlink">
    <!-- Generator: Sketch 60 (88103) - https://sketch.com -->
    <title>Combined Shape</title>
    <desc>Created with Sketch.</desc>
    <g id="v4" stroke="none" stroke-width="1" fill="none" fill-rule="evenodd">
        <g id="StaaS" transform="translate(0.000000, -1695.000000)" fill="#F1A4AB" stroke="#000000" stroke-width="3">
            <path d="M-191.999939,1695 L132.993348,1695.00659 C134.650154,1695.00675 135.993253,1696.34985 135.993409,1698.00665 L135.993409,1698.00665 L136,2022.99994 L136,2022.99994 C136.000088,2024.65692 134.656915,2026.00003 133.000061,2025.99988 L133.000061,2025.99988 L-191.993226,2025.99329 C-193.650033,2025.99313 -194.993131,2024.65003 -194.993287,2022.99322 L-194.993287,2022.99322 L-195,1697.99982 C-194.999966,1696.34296 -193.656793,1694.99984 -191.999939,1695 L-191.999939,1695 Z M-113.999939,1773 C-115.656793,1772.99984 -116.999966,1774.34296 -117,1775.99982 L-116.996451,1944.99639 C-116.996295,1946.6532 -115.653197,1947.99629 -113.99639,1947.99645 L55.0000609,1947.99988 C56.6569151,1948.00003 58.0000881,1946.65692 58.0001217,1945.00006 L58,1944.99994 L57.9965724,1776.00349 C57.9964171,1774.34668 56.6533183,1773.00358 54.9965116,1773.00343 L-113.999939,1773 Z" id="Combined-Shape" transform="translate(-29.500000, 1860.499939) rotate(-345.000000) translate(29.500000, -1860.499939) "></path>
        </g>
    </g>
</svg>