<svg xmlns="http://www.w3.org/2000/svg" width="49" height="31" viewBox="0 0 49 31">
    <g fill="none" fill-rule="evenodd">
        <path fill="#FFF" stroke="#000" stroke-width="1.18" d="M0 25.317V3.895C0 1.745 1.741 0 3.89 0h38.89c2.147 0 3.889 1.744 3.889 3.895v21.422c0 2.151-1.742 3.895-3.89 3.895H3.89C1.741 29.212 0 27.468 0 25.317z" transform="translate(1 1)"/>
        <path fill="#000" d="M4.509 15.497h2.738c.326 0 .59.264.59.59v.78c0 .325-.264.59-.59.59H4.51c-.326 0-.59-.265-.59-.59v-.78c0-.326.264-.59.59-.59zM4.509 21.375h2.738c.326 0 .59.264.59.59v.78c0 .325-.264.59-.59.59H4.51c-.326 0-.59-.265-.59-.59v-.78c0-.326.264-.59.59-.59zM21.965 21.375h2.739c.326 0 .59.264.59.59v.78c0 .325-.264.59-.59.59h-2.739c-.326 0-.59-.265-.59-.59v-.78c0-.326.264-.59.59-.59zM10.387 15.497h2.739c.325 0 .59.264.59.59v.78c0 .325-.265.59-.59.59h-2.74c-.325 0-.59-.265-.59-.59v-.78c0-.326.265-.59.59-.59zM16.087 15.497h2.739c.325 0 .59.264.59.59v.78c0 .325-.265.59-.59.59h-2.74c-.325 0-.59-.265-.59-.59v-.78c0-.326.265-.59.59-.59zM21.965 15.497h2.739c.326 0 .59.264.59.59v.78c0 .325-.264.59-.59.59h-2.739c-.326 0-.59-.265-.59-.59v-.78c0-.326.264-.59.59-.59zM40.49 3.919h.78c.325 0 .59.264.59.59v1.67c0 .326-.265.59-.59.59h-.78c-.326 0-.59-.264-.59-.59v-1.67c0-.326.264-.59.59-.59zM36.571 3.919h.78c.325 0 .59.264.59.59v1.67c0 .326-.265.59-.59.59h-.78c-.326 0-.59-.264-.59-.59v-1.67c0-.326.264-.59.59-.59zM32.653 3.919h.779c.326 0 .59.264.59.59v1.67c0 .326-.264.59-.59.59h-.78c-.325 0-.59-.264-.59-.59v-1.67c0-.326.265-.59.59-.59zM28.734 3.919h.78c.325 0 .59.264.59.59v1.67c0 .326-.265.59-.59.59h-.78c-.326 0-.59-.264-.59-.59v-1.67c0-.326.264-.59.59-.59z" transform="translate(1 1)"/>
        <path fill="#64C1BE" stroke="#000" stroke-width="1.18" d="M3.919 10.189V5.486c0-.866.701-1.567 1.567-1.567h4.703c.866 0 1.567.701 1.567 1.567v4.703c0 .866-.7 1.567-1.567 1.567H5.486c-.866 0-1.567-.701-1.567-1.567z" transform="translate(1 1)"/>
    </g>
</svg>
