<?xml version="1.0" encoding="UTF-8"?>
<svg width="567px" height="531px" viewBox="0 0 567 531" version="1.1" xmlns="http://www.w3.org/2000/svg" xmlns:xlink="http://www.w3.org/1999/xlink">
    <!-- Generator: Sketch 60 (88103) - https://sketch.com -->
    <title>contact_illu</title>
    <desc>Created with Sketch.</desc>
    <defs>
        <circle id="path-1" cx="215.5" cy="215.5" r="215.5"></circle>
    </defs>
    <g id="Page-1" stroke="none" stroke-width="1" fill="none" fill-rule="evenodd">
        <g id="contact_illu" transform="translate(-2.000000, 1.000000)">
            <g id="Group" transform="translate(134.000000, 0.000000)" fill-rule="nonzero">
                <g id="91u6cxkqqb-link" fill="#000000">
                    <circle id="91u6cxkqqb" cx="215.5" cy="216.305" r="215.5"></circle>
                </g>
                <g id="91u6cxkqqb-link" fill="#3970AF" stroke="#000000" stroke-width="3">
                    <circle id="91u6cxkqqb" cx="215.5" cy="216.305" r="215.5"></circle>
                </g>
            </g>
            <path d="M474.082,392.113 C444.357,314.769 357.504,276.13 280.092,305.811 C245.845,318.941 219.182,343.242 202.67,372.957 C216,387.805 272.103,430.632 337,433.305 C422,436.805 474.082,392.113 474.082,392.113 Z" id="Path" stroke="#000000" stroke-width="3" fill="#F1A4AB" fill-rule="nonzero"></path>
            <g id="Group" transform="translate(184.000000, 72.000000)">
                <g transform="translate(0.000000, 91.805000)" stroke="#000000" stroke-width="3">
                    <path d="M0.5,0.5 L138.5,0.5 L138.5,148 C138.5,165.673 124.173,180 106.5,180 C88.827,180 74.5,165.673 74.5,148 L74.5,135.499 L73.057,135.444 C32.614,133.894 0.5,100.602 0.5,60 L0.5,0.5 Z" id="Path" fill="#FAD843" fill-rule="nonzero"></path>
                    <circle id="Oval" fill="#FFFFFF" fill-rule="nonzero" cx="83" cy="24" r="11"></circle>
                    <circle id="Oval" fill="#FFFFFF" fill-rule="nonzero" cx="33" cy="24" r="11"></circle>
                    <path d="M54.839,61 L41,61 C39.895,61 39,60.105 39,59 C39,58.546 39.155,58.105 39.438,57.75 L53.277,40.452 C53.967,39.59 55.226,39.45 56.088,40.14 C56.563,40.52 56.838,41.094 56.838,41.702 L56.838,59 C56.838,60.105 55.943,61 54.838,61 L54.839,61 Z" id="Path"></path>
                    <path d="M55,99 C64.941,99 73,90.941 73,81 L37,81 C37,90.941 45.059,99 55,99 Z" id="Path" fill="#FFFFFF" fill-rule="nonzero"></path>
                </g>
                <g transform="translate(1.000000, 0.000000)" fill-rule="nonzero">
                    <path d="M102.668,92.155 L138.371,92.8 C169.767,54.555 173.917,36.514 150.822,38.678 C127.727,40.842 101.337,58.668 71.652,92.155 L102.668,92.155 Z" id="Path" stroke="#000000" stroke-width="3.011" fill="#4A90E2"></path>
                    <path d="M67.522,13.882 C66.545,13.975 65.519,14.083 64.448,14.209 C58.17,14.949 51.638,16.129 45.19,17.849 C34.404,20.727 30.272,21.89 26.292,23.267 C21.783,24.827 19.575,26.164 19.702,26.637 C19.83,27.111 22.41,27.171 27.09,26.28 C31.223,25.493 35.404,24.44 46.144,21.574 L46.194,21.561 C52.674,19.832 58.952,17.591 64.781,15.092 C65.741,14.681 66.656,14.276 67.522,13.882 Z M65.973,13.828 C66.95,13.736 67.976,13.628 69.047,13.501 C75.325,12.762 81.857,11.581 88.305,9.861 C99.091,6.983 103.223,5.821 107.203,4.443 C111.712,2.883 113.92,1.547 113.793,1.074 C113.665,0.599 111.085,0.539 106.405,1.431 C102.272,2.218 98.091,3.271 87.351,6.137 L87.301,6.15 C80.821,7.879 74.543,10.12 68.714,12.618 C67.754,13.03 66.839,13.434 65.973,13.828 L65.973,13.828 Z" id="Shape" stroke="#000000" stroke-width="2.008" fill="#F1A4AB"></path>
                    <path d="M63.573,15.325 L72.666,15.375 L72.666,14.896 C72.666,12.386 70.63,10.35 68.119,10.35 C65.609,10.35 63.573,12.385 63.573,14.896 L63.573,15.326 L63.573,15.325 Z" id="Path" stroke="#000000" stroke-width="2.008" fill="#F1A4AB"></path>
                    <path d="M68.624,14.373 L68.624,14.373 C106.524,14.373 137.248,45.097 137.248,82.997 L137.248,92.8 L0,92.124 L0,82.997 C0,45.097 30.724,14.373 68.624,14.373 Z" id="Path" stroke="#000000" stroke-width="3.011" fill="#64C1BE"></path>
                    <path d="M8.57,83.085 L41.889,83.243 L41.889,82.812 C41.889,73.611 34.43,66.152 25.229,66.152 C16.029,66.152 8.57,73.611 8.57,82.812 L8.57,83.084 L8.57,83.085 Z" id="Path" stroke="#000000" stroke-width="3.011" fill="#FAD843"></path>
                    <path d="M8.57,83.245 L8.57,92.299 L39.38,92.299 C41.88,92.299 43.907,90.272 43.907,87.772 C43.907,85.272 41.88,83.245 39.38,83.245 L8.57,83.245 Z" id="Path" stroke="#000000" stroke-width="3.011" fill="#FFFFFF"></path>
                    <g transform="translate(14.138000, 86.767000)" fill="#E3E3E3" id="Oval">
                        <ellipse cx="1.963" cy="1.005" rx="1" ry="1.005"></ellipse>
                        <ellipse cx="6.78" cy="1.005" rx="1" ry="1.005"></ellipse>
                        <ellipse cx="11.596" cy="1.005" rx="1" ry="1.005"></ellipse>
                        <ellipse cx="16.413" cy="1.005" rx="1" ry="1.005"></ellipse>
                        <ellipse cx="21.229" cy="1.005" rx="1" ry="1.005"></ellipse>
                    </g>
                    <g opacity="0.9" transform="translate(54.000000, 35.805000)" id="l8awlo60pd-link">
                        <g fill="#000000">
                            <path d="M0.682,38.469 L0.682,1.57 C0.682,1.036 1.115,0.602734577 1.65,0.602734577 C1.823,0.602734577 1.992,0.649 2.141,0.737 L23.308,13.242 C23.612,13.422 23.989,13.422 24.292,13.242 L45.46,0.737 C45.92,0.466 46.514,0.618 46.785,1.078 C46.873,1.228 46.92,1.398 46.92,1.57 L46.92,38.47 C46.92,39.004 46.487,39.437 45.952,39.437 C45.779,39.437 45.609,39.391 45.46,39.303 L35.836,33.617 C35.541,33.443 35.361,33.127 35.361,32.784 L35.361,21.374 C35.361,20.84 34.928,20.407 34.393,20.407 C34.22,20.407 34.05,20.453 33.901,20.541 L24.293,26.217 C23.99,26.397 23.613,26.397 23.309,26.217 L13.702,20.541 C13.242,20.27 12.649,20.422 12.377,20.882 C12.289,21.032 12.242,21.202 12.242,21.374 L12.242,32.784 C12.242,33.126 12.062,33.444 11.767,33.617 L2.142,39.303 C1.682,39.575 1.089,39.422 0.818,38.962 C0.73,38.813 0.683,38.643 0.683,38.47 L0.682,38.469 Z" id="l8awlo60pd"></path>
                        </g>
                        <g fill="#FFFFFF" stroke="#1F1B24" stroke-width="1.477">
                            <path d="M0.682,38.469 L0.682,1.57 C0.682,1.036 1.115,0.602734577 1.65,0.602734577 C1.823,0.602734577 1.992,0.649 2.141,0.737 L23.308,13.242 C23.612,13.422 23.989,13.422 24.292,13.242 L45.46,0.737 C45.92,0.466 46.514,0.618 46.785,1.078 C46.873,1.228 46.92,1.398 46.92,1.57 L46.92,38.47 C46.92,39.004 46.487,39.437 45.952,39.437 C45.779,39.437 45.609,39.391 45.46,39.303 L35.836,33.617 C35.541,33.443 35.361,33.127 35.361,32.784 L35.361,21.374 C35.361,20.84 34.928,20.407 34.393,20.407 C34.22,20.407 34.05,20.453 33.901,20.541 L24.293,26.217 C23.99,26.397 23.613,26.397 23.309,26.217 L13.702,20.541 C13.242,20.27 12.649,20.422 12.377,20.882 C12.289,21.032 12.242,21.202 12.242,21.374 L12.242,32.784 C12.242,33.126 12.062,33.444 11.767,33.617 L2.142,39.303 C1.682,39.575 1.089,39.422 0.818,38.962 C0.73,38.813 0.683,38.643 0.683,38.47 L0.682,38.469 Z" id="l8awlo60pd"></path>
                        </g>
                    </g>
                </g>
            </g>
            <g id="Group" transform="translate(134.000000, 0.000000)">
                <g id="Clipped">
                    <g id="Shape" transform="translate(0.000000, 0.805000)">
                        <mask id="mask-2" fill="white">
                            <use xlink:href="#path-1"></use>
                        </mask>
                        <g id="Mask"></g>
                        <path d="M318.644,7.839 L318.644,7.839 C318.644,7.839 318.644,7.839 318.644,7.839 C318.644,6.182 319.987,4.839 321.644,4.839 L561.639,4.844 C563.296,4.844 564.639,6.187 564.639,7.844 L564.644,247.839 C564.644,247.839 564.644,247.839 564.644,247.839 C564.644,249.496 563.301,250.839 561.644,250.839 L321.649,250.834 C319.992,250.834 318.649,249.491 318.649,247.834 L318.644,7.839 Z M376.644,65.839 L376.646,189.836 C376.646,191.493 377.99,192.836 379.646,192.836 L503.644,192.839 C505.301,192.839 506.644,191.496 506.644,189.839 C506.644,189.839 506.644,189.839 506.644,189.839 L506.641,65.841 C506.641,64.185 505.298,62.841 503.641,62.841 L379.644,62.839 C377.987,62.839 376.644,64.182 376.644,65.839 C376.644,65.839 376.644,65.839 376.644,65.839 L376.644,65.839 Z" stroke="#000000" stroke-width="3" fill="#55A6A3" fill-rule="nonzero" mask="url(#mask-2)" transform="translate(441.644000, 127.839000) rotate(15.000000) translate(-441.644000, -127.839000) "></path>
                    </g>
                </g>
            </g>
            <circle id="Oval" stroke="#000000" stroke-width="3" cx="349.5" cy="216.305" r="215.5"></circle>
            <g id="Group" transform="translate(527.971651, 328.803580) rotate(-178.000000) translate(-527.971651, -328.803580) translate(484.471651, 286.803580)" fill="#FFFFFF" fill-rule="nonzero" stroke="#000000" stroke-width="2.7">
                <rect id="Rectangle" transform="translate(51.491430, 63.783749) rotate(-69.000000) translate(-51.491430, -63.783749) " x="43.8414298" y="29.5837492" width="15.3" height="68.4" rx="7.65"></rect>
                <rect id="Rectangle" transform="translate(35.290999, 19.683976) rotate(-69.000000) translate(-35.290999, -19.683976) " x="27.6409986" y="-14.5160245" width="15.3" height="68.4" rx="7.65"></rect>
            </g>
            <g id="Group" transform="translate(0.000000, 304.000000)" stroke="#000000">
                <g stroke-width="3">
                    <path d="M83.4933245,199.872617 L82.9323245,199.786617 L51.0563245,192.021617 C45.3333245,190.627617 41.8233245,184.856617 43.2183245,179.133617 C43.2813245,178.873617 43.3543245,178.616617 43.4373245,178.362617 C43.8473245,177.099617 44.4553245,175.956617 45.2153245,174.956617 L41.8203245,173.853617 C35.7803245,171.890617 32.4743245,165.403617 34.4373245,159.362617 C35.7773245,155.239617 39.2243245,152.390617 43.2003245,151.621617 C38.8763245,148.874617 36.7803245,143.459617 38.4373245,138.361617 C40.0083245,133.525617 44.4803245,130.442617 49.3013245,130.412617 L16.8333245,119.862617 C10.7933245,117.900617 7.48732449,111.412617 9.45032449,105.372617 C11.4133245,99.3326172 17.9003245,96.0266172 23.9403245,97.9886172 L78.1513245,115.602617 C79.2293245,115.952617 80.2203245,116.447617 81.1093245,117.057617 L81.2113245,117.014617 C86.4393245,103.946617 102.179324,102.602617 109.312324,104.357617 C120.428324,107.093617 140.728324,127.186617 144.982324,146.262617 C164.868324,153.877617 186.456324,158.049617 209.020324,158.049617 C265.284324,158.049617 315.490324,132.106617 348.327324,91.5296172 L416.105324,93.2516172 C415.275324,94.7526172 414.429324,96.2436172 413.568324,97.7236172 C372.599324,168.116617 296.335324,215.435617 209.020324,215.435617 C177.298324,215.435617 147.035324,209.189617 119.393324,197.861617 C113.562324,200.978617 106.898324,202.741617 99.5203245,202.741617 C93.8833245,202.741617 88.4843245,201.727617 83.4933245,199.871617 L83.4933245,199.872617 Z" id="Path" fill="#FAD843" fill-rule="nonzero" transform="translate(212.494778, 153.482617) rotate(-11.000000) translate(-212.494778, -153.482617) "></path>
                    <path d="M346.442602,24.9181512 C357.846602,8.63115121 380.294602,4.67315121 396.580602,16.0781512 C412.867602,27.4811512 416.825602,49.9291512 405.421602,66.2161512 L370.433602,116.184151 L311.454602,74.8861512 L346.442602,24.9181512 Z" id="Path" fill="#F1A4AB" fill-rule="nonzero" transform="translate(361.694921, 62.873948) rotate(-11.000000) translate(-361.694921, -62.873948) "></path>
                    <path d="M47.5511693,157.637588 L69.9351693,164.380588 M42.5511693,177.821588 L64.9351693,184.563588 M45.4911693,202.691588 L61.7781693,207.751588 M64.5331693,138.958588 L93.5331693,149.863588" id="Shape" stroke-linecap="round" transform="translate(68.042169, 173.355088) rotate(-11.000000) translate(-68.042169, -173.355088) "></path>
                </g>
                <path d="M17.212381,153.257017 L20.612381,142.332017 L18.152381,141.580017 C15.131381,140.656017 11.932381,142.357017 11.008381,145.378017 C10.085381,148.400017 11.785381,151.598017 14.807381,152.523017 L17.212381,153.258017 L17.212381,153.257017 Z" id="Path" stroke-width="2.7" fill="#FFFFFF" fill-rule="nonzero" transform="translate(15.684787, 147.293236) rotate(-11.000000) translate(-15.684787, -147.293236) "></path>
            </g>
        </g>
    </g>
</svg>