<svg xmlns="http://www.w3.org/2000/svg" width="74" height="96" viewBox="0 0 74 96">
    <g fill="none" fill-rule="nonzero">
        <path fill="#C8C8C8" stroke="#000" stroke-width="3" d="M45.5 1.5v37h27V17.656L54.817 1.5H45.5z"/>
        <path fill="#F6F6F6" stroke="#000" stroke-width="3" d="M72.5 21.759H58.387a4.5 4.5 0 0 1-4.5-4.5V1.5H3A1.5 1.5 0 0 0 1.5 3v90A1.5 1.5 0 0 0 3 94.5h68a1.5 1.5 0 0 0 1.5-1.5V21.759z"/>
        <rect width="13" height="13" x="48" y="72" fill="#64C1BE" stroke="#000" stroke-width="2" rx="1"/>
        <rect width="40" height="5" x="12" y="33" fill="#D8D8D8" rx="2.5"/>
        <rect width="40" height="5" x="12" y="43" fill="#D8D8D8" rx="2.5"/>
        <rect width="30" height="5" x="12" y="53" fill="#D8D8D8" rx="2.5"/>
    </g>
</svg>
