<svg xmlns="http://www.w3.org/2000/svg" width="183" height="371" viewBox="0 0 183 371">
    <path fill="#F1A4AB" fill-rule="evenodd" stroke="#000" stroke-width="3" d="M-139.107-32.298h0s0 0 0 0c.429-1.6 2.074-2.55 3.674-2.12l313.918 84.12c1.6.429 2.55 2.074 2.12 3.674L96.499 367.297s0 0 0 0c-.429 1.601-2.074 2.55-3.674 2.122l-313.918-84.121c-1.6-.43-2.55-2.074-2.121-3.674l84.108-313.922zm55.154 95.53l-43.736 163.24c-.429 1.6.52 3.245 2.121 3.674L37.67 273.889c1.6.429 3.246-.521 3.675-2.122 0 0 0 0 0 0L85.08 108.528c.428-1.6-.521-3.245-2.122-3.674L-80.279 61.111c-1.6-.429-3.245.521-3.674 2.121 0 0 0 0 0 0h0z"/>
</svg>
