<svg xmlns="http://www.w3.org/2000/svg" width="178" height="68" viewBox="0 0 178 68">
    <g fill="none" fill-rule="evenodd">
        <g fill="#FFF" fill-rule="nonzero">
            <path d="M4.925 18l1.55-11H6.6l1.425 11h6.025L18.6 7h.1l-1.55 11h5.25L24.825.85h-8.65L12.45 10h-.1L11.175.85h-8.6L.15 18h4.775zm31.75.25c.417 0 .863-.05 1.338-.15.474-.1.887-.242 1.237-.425l.375-2.75c-.333.217-.642.325-.925.325-.433 0-.65-.225-.65-.675 0-.4.133-1.53.4-3.387.267-1.859.575-3.846.925-5.963H35.65L34.8 6.75h-.125c-.35-.567-.833-1.004-1.45-1.313-.617-.308-1.267-.462-1.95-.462-1.333 0-2.454.413-3.362 1.238-.909.824-1.576 1.866-2 3.125-.425 1.258-.638 2.537-.638 3.837 0 1.517.346 2.742 1.038 3.675.691.933 1.77 1.4 3.237 1.4.683 0 1.363-.183 2.037-.55.676-.367 1.238-.833 1.688-1.4.183.767.57 1.283 1.163 1.55.591.267 1.337.4 2.237.4zM31.5 15.225c-.383 0-.7-.137-.95-.412-.25-.276-.375-.63-.375-1.063 0-.133.175-1.433.525-3.9.067-.5.27-.917.613-1.25.341-.333.737-.5 1.187-.5.4 0 .72.125.962.375s.363.608.363 1.075c0 .15-.058.592-.175 1.325l-.1.8-.25 1.8c-.083.517-.275.938-.575 1.263-.3.325-.708.487-1.225.487zM45.7 18l.4-2.85 1-.775L48.85 18h5.825L51.1 11l5.3-5.775h-5.65l-3.925 4.75L48.225 0h-4.95l-2.5 18H45.7zm16.85.25c1.267 0 2.404-.22 3.413-.663 1.008-.441 1.816-1.045 2.425-1.812.608-.767.979-1.625 1.112-2.575h-4.575c-.083.633-.308 1.13-.675 1.488-.367.358-.842.537-1.425.537-.5 0-.908-.13-1.225-.387-.317-.259-.475-.621-.475-1.088-.017-.05.017-.333.1-.85l.1-.625h8.325c.133-.983.208-1.6.225-1.85l.05-.675c0-1.45-.467-2.608-1.4-3.475-.933-.867-2.275-1.3-4.025-1.3h-.625c-1.533 0-2.896.32-4.087.963-1.192.641-2.125 1.566-2.8 2.775-.675 1.208-1.013 2.637-1.013 4.287 0 1.083.262 2.02.788 2.813.525.791 1.258 1.395 2.2 1.812.941.417 2.012.625 3.212.625h.375zm2.525-8.15h-3.45l.05-.35c.067-.483.288-.896.663-1.238.374-.341.812-.512 1.312-.512.433 0 .788.146 1.063.438.275.291.412.654.412 1.087 0 .133-.008.25-.025.35-.017.1-.025.175-.025.225zm17.45-6.525l.5-3.575H78.1l-.5 3.575h4.925zM80.5 18l1.8-12.775h-4.925L75.6 18h4.9zm7.75.275c.467 0 1.054-.054 1.763-.162.708-.109 1.262-.238 1.662-.388l.4-2.8c-.2.083-.463.154-.788.212-.325.059-.587.088-.787.088-.417 0-.73-.083-.938-.25-.208-.167-.312-.5-.312-1 0-.2.242-1.933.725-5.2h3l.5-3.55h-3l.85-4.075H86.1l-.575 4.075h-1.4l-.5 3.55h1.4L84.4 13.15c-.117.717-.192 1.23-.225 1.537-.033.309-.05.563-.05.763 0 1.017.354 1.742 1.063 2.175.708.433 1.729.65 3.062.65zM2.332 32.296c.682 0 1.211-.141 1.588-.425.377-.283.565-.732.565-1.348 0-.347-.092-.625-.276-.834-.184-.209-.406-.365-.664-.47-.259-.104-.597-.212-1.015-.322-.324-.082-.579-.156-.763-.222-.184-.066-.338-.157-.462-.273-.124-.115-.186-.264-.186-.445 0-.242.11-.428.326-.557.218-.13.521-.194.912-.194.352 0 .635.072.85.215.214.143.321.346.321.61v.124h.809v-.1c0-.505-.178-.896-.532-1.17-.355-.276-.843-.413-1.465-.413-.616 0-1.108.132-1.476.396-.369.264-.553.668-.553 1.213 0 .335.088.606.264.812.176.206.388.36.635.458.248.1.578.204.99.314.336.088.601.167.796.239.195.071.358.172.487.3.13.13.194.3.194.508 0 .264-.12.472-.359.623-.24.151-.565.227-.978.227-.423 0-.754-.078-.994-.235-.239-.157-.359-.395-.359-.714l.009-.173H.187l-.008.165c0 .55.188.97.565 1.258.377.289.906.433 1.588.433zm4.986 0c.314 0 .57-.05.768-.148v-.578c-.198.083-.369.124-.512.124-.16 0-.278-.044-.355-.132-.077-.088-.115-.231-.115-.429v-2.516h.982v-.619h-.982v-1.345h-.487l-.264 1.345h-.486v.619h.461v2.475c0 .418.084.723.252.915.168.193.414.29.738.29zm5.605 0c.237 0 .449-.055.636-.165v-.569c-.127.077-.253.115-.38.115-.066 0-.12-.023-.165-.07-.044-.046-.066-.12-.066-.218v-2.186c0-.418-.136-.737-.408-.957-.272-.22-.686-.33-1.242-.33h-.074c-.319 0-.61.05-.874.152s-.473.238-.627.409c-.154.17-.231.352-.231.544 0 .105.005.195.016.272h.76v-.099c0-.209.082-.37.247-.486.165-.116.396-.174.693-.174.313 0 .552.057.717.17.165.112.248.309.248.59v.387c-.715 0-1.276.044-1.683.132-.407.088-.699.23-.875.425-.176.195-.264.463-.264.804 0 .435.115.752.343.953.228.2.573.301 1.035.301.644 0 1.136-.253 1.477-.759.01.237.074.422.19.557.115.135.291.202.527.202zm-1.93-.619c-.577 0-.866-.19-.866-.569 0-.203.05-.363.148-.478.1-.116.296-.202.59-.26.294-.058.73-.087 1.308-.087v.165c0 .242-.055.457-.165.644-.11.187-.256.331-.437.433-.182.102-.374.152-.578.152zm4.838.537v-2.516c0-.358.074-.641.223-.85.148-.21.354-.314.618-.314.127 0 .253.035.38.104.126.068.23.166.313.292.083.127.124.273.124.438v.181h.685l.025-.313c0-.38-.11-.695-.33-.945-.22-.25-.526-.375-.916-.375-.21 0-.4.035-.573.107-.174.071-.318.162-.434.272-.115.11-.19.22-.222.33l-.116-.627h-.553v4.216h.776zm4.978.082c.313 0 .57-.05.767-.148v-.578c-.198.083-.368.124-.511.124-.16 0-.278-.044-.355-.132-.077-.088-.116-.231-.116-.429v-2.516h.982v-.619h-.982v-1.345h-.486l-.264 1.345h-.487v.619h.462v2.475c0 .418.084.723.252.915.167.193.413.29.738.29zm5.927 0c.176 0 .349-.055.52-.165v-.569c-.127.077-.25.115-.372.115-.066 0-.12-.023-.165-.07-.044-.046-.066-.12-.066-.218v-3.39h-.775v2.507c0 .215-.052.411-.157.59-.104.179-.243.32-.417.425-.173.104-.356.156-.548.156-.594 0-.891-.327-.891-.981v-2.698h-.776v2.838c0 .473.137.835.409 1.085.272.25.62.375 1.043.375.303 0 .57-.06.805-.181.233-.121.425-.292.573-.512.011.22.076.39.194.512.118.12.326.181.623.181zm2.858 1.41v-2.029c.291.413.695.62 1.212.62.54 0 .959-.188 1.258-.562.3-.374.45-.885.45-1.534v-.09c0-.683-.151-1.22-.454-1.61-.302-.39-.72-.585-1.254-.585-.555 0-.99.22-1.303.66-.033-.21-.069-.402-.107-.578h-.578v5.709h.776zm1.072-2.029c-.363 0-.634-.127-.812-.383-.18-.256-.269-.653-.269-1.192 0-.528.087-.921.26-1.18.174-.258.447-.388.821-.388.358 0 .626.127.804.38.18.253.269.649.269 1.188 0 .533-.088.93-.264 1.188-.176.258-.446.387-.809.387zm8.05.62c.683 0 1.212-.142 1.589-.426.376-.283.565-.732.565-1.348 0-.347-.092-.625-.277-.834-.184-.209-.405-.365-.664-.47-.258-.104-.596-.212-1.014-.322-.325-.082-.58-.156-.764-.222-.184-.066-.338-.157-.461-.273-.124-.115-.186-.264-.186-.445 0-.242.109-.428.326-.557.217-.13.52-.194.911-.194.352 0 .636.072.85.215.215.143.322.346.322.61v.124h.808v-.1c0-.505-.177-.896-.532-1.17-.355-.276-.843-.413-1.464-.413-.616 0-1.108.132-1.477.396-.368.264-.553.668-.553 1.213 0 .335.088.606.264.812.176.206.388.36.636.458.247.1.577.204.99.314.335.088.6.167.796.239.195.071.357.172.486.3.13.13.194.3.194.508 0 .264-.12.472-.359.623-.239.151-.565.227-.977.227-.424 0-.755-.078-.994-.235-.24-.157-.36-.395-.36-.714l.01-.173h-.81l-.008.165c0 .55.189.97.566 1.258.376.289.906.433 1.588.433zm4.987 0c.313 0 .57-.05.767-.15v-.577c-.198.083-.368.124-.511.124-.16 0-.278-.044-.355-.132-.077-.088-.116-.231-.116-.429v-2.516h.982v-.619h-.982v-1.345h-.486l-.264 1.345h-.487v.619h.462v2.475c0 .418.084.723.252.915.167.193.413.29.738.29zm5.927 0c.176 0 .349-.056.52-.166v-.569c-.127.077-.25.115-.372.115-.066 0-.12-.023-.165-.07-.044-.046-.066-.12-.066-.218v-3.39h-.775v2.507c0 .215-.053.411-.157.59-.105.179-.243.32-.417.425-.173.104-.356.156-.548.156-.594 0-.891-.327-.891-.981v-2.698h-.776v2.838c0 .473.136.835.409 1.085.272.25.62.375 1.043.375.303 0 .57-.06.805-.181.233-.121.424-.292.573-.512.011.22.076.39.194.512.118.12.326.181.623.181zm3.534 0c.556 0 .99-.22 1.304-.66.033.208.068.4.107.577h.577v-5.94h-.775v2.26c-.286-.412-.69-.618-1.213-.618-.539 0-.958.188-1.258.565-.3.376-.45.887-.45 1.53v.09c0 .683.153 1.219.458 1.61.305.39.722.585 1.25.585zm.14-.62c-.363 0-.632-.126-.808-.379-.176-.253-.264-.649-.264-1.188 0-.539.086-.936.26-1.192.173-.256.444-.384.812-.384.358 0 .627.128.809.384.181.256.272.653.272 1.192 0 1.045-.36 1.567-1.08 1.567zm4.599-4.685v-.718h-.809v.718h.809zm-.017 5.222v-4.216h-.775v4.216h.775zm3.642.082c.6 0 1.072-.181 1.419-.544.346-.363.52-.861.52-1.493v-.306c0-.632-.176-1.13-.528-1.493-.352-.363-.823-.544-1.411-.544-.588 0-1.059.181-1.41.544-.353.363-.529.86-.529 1.493v.306c0 .632.174 1.13.52 1.493.347.363.82.544 1.419.544zm0-.619c-.374 0-.661-.129-.862-.387-.2-.259-.301-.627-.301-1.106v-.156c0-.49.102-.861.305-1.114.204-.253.49-.38.858-.38.374 0 .661.13.862.388.2.259.301.627.301 1.106v.156c0 .484-.103.854-.31 1.11-.205.256-.49.383-.853.383z" transform="translate(83.75 18.5)"/>
        </g>
        <path fill="#000" fill-rule="nonzero" d="M8.482.513L.512 8.482C.185 8.81 0 9.255 0 9.719V65.75c0 .966.784 1.75 1.75 1.75h56.03c.465 0 .91-.184 1.238-.513l7.97-7.969c.328-.328.512-.773.512-1.237V1.75C67.5.784 66.716 0 65.75 0H9.72c-.465 0-.91.184-1.238.513z"/>
        <path fill="#459593" stroke="#1F1B24" stroke-width=".75" d="M8.747.778L.777 8.747c-.257.258-.402.608-.402.972V65.75c0 .76.616 1.375 1.375 1.375h56.03c.365 0 .715-.145.973-.403l7.97-7.969c.257-.258.402-.608.402-.972V1.75c0-.76-.616-1.375-1.375-1.375H9.72c-.365 0-.715.145-.973.403z"/>
        <path fill="#64C1BE" fill-rule="nonzero" stroke="#1F1B24" stroke-width=".75" d="M9.375 0.375H67.125V58.125H9.375z"/>
        <g>
            <path fill="#000" fill-rule="nonzero" d="M0 24.575V.675C0 .384.236.147.527.147c.095 0 .188.026.269.074L14.48 8.32c.166.098.372.098.538 0L28.704.22c.25-.147.574-.064.722.186.049.081.074.174.074.269v23.9c0 .291-.236.528-.527.528-.095 0-.188-.026-.269-.074l-6.32-3.74c-.16-.095-.259-.268-.259-.454V13.33c0-.29-.236-.527-.527-.527-.095 0-.188.026-.269.074l-6.31 3.734c-.166.098-.372.098-.538 0l-6.31-3.734c-.25-.149-.574-.066-.722.185-.049.081-.074.174-.074.268v7.504c0 .186-.098.359-.259.454l-6.32 3.74c-.25.148-.574.065-.722-.185C.025 24.763 0 24.67 0 24.575z" transform="translate(23.5 18.25)"/>
            <path fill="#FFF" stroke="#1F1B24" stroke-width=".805" d="M0 24.575V.675C0 .384.236.147.527.147c.095 0 .188.026.269.074L14.48 8.32c.166.098.372.098.538 0L28.704.22c.25-.147.574-.064.722.186.049.081.074.174.074.269v23.9c0 .291-.236.528-.527.528-.095 0-.188-.026-.269-.074l-6.32-3.74c-.16-.095-.259-.268-.259-.454V13.33c0-.29-.236-.527-.527-.527-.095 0-.188.026-.269.074l-6.31 3.734c-.166.098-.372.098-.538 0l-6.31-3.734c-.25-.149-.574-.066-.722.185-.049.081-.074.174-.074.268v7.504c0 .186-.098.359-.259.454l-6.32 3.74c-.25.148-.574.065-.722-.185C.025 24.763 0 24.67 0 24.575z" transform="translate(23.5 18.25)"/>
        </g>
        <path stroke="#1F1B24" stroke-width=".75" d="M.75 66.75l9-9-9 9z"/>
    </g>
</svg>
