<?xml version="1.0" encoding="UTF-8"?>
<svg width="62px" height="57px" viewBox="0 0 62 57" version="1.1" xmlns="http://www.w3.org/2000/svg" xmlns:xlink="http://www.w3.org/1999/xlink">
    <!-- Generator: Sketch 60 (88103) - https://sketch.com -->
    <title>Group 19</title>
    <desc>Created with Sketch.</desc>
    <g id="Page-1" stroke="none" stroke-width="1" fill="none" fill-rule="evenodd">
        <g id="software" transform="translate(-284.000000, -3423.000000)" stroke="#000000">
            <g id="Group-7" transform="translate(195.000000, 3377.000000)">
                <g id="Group-19" transform="translate(89.000000, 46.000000)">
                    <path d="M1.5,37.5 L1.5,50 C1.5,53.0375661 3.96243388,55.5 7,55.5 L55,55.5 C58.0375661,55.5 60.5,53.0375661 60.5,50 L60.5,37.5 L1.5,37.5 Z" id="Rectangle" stroke-width="3" fill="#FAD843"></path>
                    <rect id="Rectangle" stroke-width="3" fill="#FFFFFF" x="1.5" y="19.5" width="59" height="18"></rect>
                    <path d="M1.5,19.5 L60.5,19.5 L60.5,7 C60.5,3.96243388 58.0375661,1.5 55,1.5 L7,1.5 C3.96243388,1.5 1.5,3.96243388 1.5,7 L1.5,19.5 Z" id="Rectangle" stroke-width="3" fill="#FAD843"></path>
                    <circle id="Oval" fill="#000000" cx="51.5" cy="10.5" r="2"></circle>
                    <rect id="Rectangle" stroke-width="2" fill="#D8D8D8" x="8" y="10" width="11" height="1"></rect>
                </g>
            </g>
        </g>
    </g>
</svg>