<?xml version="1.0" encoding="UTF-8"?>
<svg width="320px" height="396px" viewBox="0 0 320 396" version="1.1" xmlns="http://www.w3.org/2000/svg" xmlns:xlink="http://www.w3.org/1999/xlink">
    <!-- Generator: Sketch 60 (88103) - https://sketch.com -->
    <title>Group 3 Copy 6@3x</title>
    <desc>Created with Sketch.</desc>
    <g id="Page-1" stroke="none" stroke-width="1" fill="none" fill-rule="evenodd">
        <g id="software" transform="translate(-938.000000, -3444.000000)">
            <g id="Group-3-Copy-6" transform="translate(938.000000, 3444.000000)">
                <path d="M18.9272727,315.970588 L18.9272727,378.450001 C18.9272727,387.314171 26.1131022,394.5 34.9772721,394.5 L284.522728,394.5 C293.386898,394.5 300.572727,387.314171 300.572727,378.450001 L300.572727,315.970588 L18.9272727,315.970588 Z" id="Rectangle-Copy-8" stroke="#000000" stroke-width="3" fill="#D9D9D9" fill-rule="nonzero"></path>
                <rect id="Rectangle-Copy-9" stroke="#000000" stroke-width="3" fill="#D9D9D9" fill-rule="nonzero" x="1.5" y="1.5" width="316.5" height="346.411765" rx="17.5499994"></rect>
                <rect id="Rectangle-Copy-10" stroke="#000000" stroke-width="3" fill="#FFFFFF" fill-rule="nonzero" x="42.1636364" y="42.2647059" width="235.172727" height="177.529412" rx="17.5499994"></rect>
                <g id="Group-2" transform="translate(104.563636, 87.352941)">
                    <path d="M57.8077092,92.1822095 C81.0349455,92.1822095 103.294943,79.7884433 116.040133,59.2107202 L105.955788,52.4117647 C94.2521239,71.3077563 72.8445571,81.8530271 51.4084758,79.2724931 C34.7035351,77.2627143 19.2554795,67.2208669 10.0835951,52.4117647 L7.10542736e-15,59.2107202 C11.0981077,77.1311822 29.8020585,89.2822404 50.0322804,91.7171496 C52.6293427,92.0295383 55.222653,92.1822095 57.8077092,92.1822095 Z" id="Path" fill="#000000"></path>
                    <rect id="Rectangle-Copy-11" stroke="#000000" stroke-width="5.84999979" fill="#D8D8D8" fill-rule="nonzero" x="20.3522726" y="2.92499989" width="5.76818203" height="17.4441179"></rect>
                    <rect id="Rectangle-Copy-12" stroke="#000000" stroke-width="5.84999979" fill="#D8D8D8" fill-rule="nonzero" x="90.0613635" y="2.92499989" width="5.76818203" height="17.4441179"></rect>
                    <rect id="Rectangle-Copy-13" stroke="#000000" stroke-width="5.84999979" fill="#D8D8D8" fill-rule="nonzero" x="55.2068181" y="2.92499989" width="5.76818203" height="52.3852943"></rect>
                </g>
                <path d="M197.509091,270.794118 C197.509091,270.794118 224.618182,270.794118 278.836364,270.794118" id="Path-2-Copy-4" stroke="#000000" stroke-width="3" fill-rule="nonzero"></path>
                <path d="M40.6636364,288.264706 C40.6636364,288.264706 50.3454545,288.264706 69.7090909,288.264706" id="Path-2-Copy-5" stroke="#000000" stroke-width="3" fill-rule="nonzero"></path>
            </g>
        </g>
    </g>
</svg>