<?xml version="1.0" encoding="UTF-8"?>
<svg width="558px" height="567px" viewBox="0 0 558 567" version="1.1" xmlns="http://www.w3.org/2000/svg" xmlns:xlink="http://www.w3.org/1999/xlink">
    <!-- Generator: Sketch 60 (88103) - https://sketch.com -->
    <title>Group 34</title>
    <desc>Created with Sketch.</desc>
    <defs>
        <filter x="-10.7%" y="-10.7%" width="121.5%" height="121.5%" filterUnits="objectBoundingBox" id="filter-1">
            <feOffset dx="-7" dy="7" in="SourceAlpha" result="shadowOffsetOuter1"></feOffset>
            <feColorMatrix values="0 0 0 0 0   0 0 0 0 0   0 0 0 0 0  0 0 0 0.07 0" type="matrix" in="shadowOffsetOuter1" result="shadowMatrixOuter1"></feColorMatrix>
            <feMerge>
                <feMergeNode in="shadowMatrixOuter1"></feMergeNode>
                <feMergeNode in="SourceGraphic"></feMergeNode>
            </feMerge>
        </filter>
    </defs>
    <g id="Page-1" stroke="none" stroke-width="1" fill="none" fill-rule="evenodd">
        <g id="software" transform="translate(-753.000000, -4767.000000)">
            <g id="Group-34" transform="translate(755.000000, 4767.000000)">
                <path id="Path-3" d="M491.5,405.230621 L491.501011,414.617912 C496.034494,415.337509 499.5,419.264048 499.5,424 C499.5,429.246705 495.246705,433.5 490,433.5 C484.753295,433.5 480.5,429.246705 480.5,424 C480.5,419.2637 483.966015,415.336932 488.499988,414.617754 L488.5,405.230621 L491.5,405.230621 Z M491.5,365.230621 L491.5,385.230621 L488.5,385.230621 L488.5,365.230621 L491.5,365.230621 Z M489.876896,324.945753 C490.878317,328.973446 491.422934,333.12325 491.492392,337.339084 L491.499997,338.243467 L491.5,345.23062 L488.5,345.230621 L488.499997,338.243995 C488.498592,334.247357 488.046673,330.311047 487.161777,326.487258 L486.965535,325.669616 L489.876896,324.945753 Z M466.541215,292.17695 C472.085855,295.800097 476.940495,300.399441 480.858753,305.735911 L481.306691,306.354916 L478.864174,308.096786 C475.232483,303.00429 470.708538,298.597794 465.525301,295.103266 L464.900163,294.688315 L466.541215,292.17695 Z M436.486148,283.248838 C439.974048,283.248838 443.420875,283.573614 446.795268,284.213445 L447.637339,284.37996 L447.032318,287.318319 C443.875777,286.668373 440.648528,286.311333 437.378895,286.25634 L436.486148,286.248838 L427.390023,286.248838 L427.390023,283.248838 L436.486148,283.248838 Z M407.390023,283.248838 L407.390023,286.248838 L387.390023,286.248838 L387.390023,283.248838 L407.390023,283.248838 Z M367.390023,283.248838 L367.390023,286.248838 L347.390023,286.248838 L347.390023,283.248838 L367.390023,283.248838 Z M327.390023,283.248838 L327.390023,286.248838 L307.390023,286.248838 L307.390023,283.248838 L327.390023,283.248838 Z M287.390023,283.248838 L287.390023,286.248838 L267.390023,286.248838 L267.390023,283.248838 L287.390023,283.248838 Z M247.390023,283.248838 L247.390023,286.248838 L227.390023,286.248838 L227.390023,283.248838 L247.390023,283.248838 Z M207.390023,283.248838 L207.390023,286.248838 L187.390023,286.248838 L187.390023,283.248838 L207.390023,283.248838 Z M167.390023,283.248838 L167.390023,286.248838 L147.390023,286.248838 L147.390023,283.248838 L167.390023,283.248838 Z M127.390023,283.248838 L127.390023,286.248838 L107.390023,286.248838 L107.390023,283.248838 L127.390023,283.248838 Z M67.5786285,281.790664 C73.3343001,282.51629 79.4662624,282.974687 85.9742425,283.165448 L87.3745649,283.202228 L87.3048497,286.201418 C80.6505233,286.04674 74.3701291,285.620092 68.4633942,284.921064 L67.2033845,284.767103 L67.5786285,281.790664 Z M29.9635182,270.51661 C35.0147231,273.368244 40.7452828,275.743886 47.1566646,277.641292 L48.1234783,277.922316 L47.3000143,280.807087 C40.5964038,278.893528 34.5778177,276.475371 29.2457335,273.550358 L28.4886775,273.129051 L29.9635182,270.51661 Z M5.2081468,241.607127 C7.34282946,247.680163 10.399065,253.078714 14.3796567,257.811192 L14.8617648,258.375893 L12.5945134,260.340472 C8.29384372,255.377222 4.97563756,249.707513 2.6427107,243.339798 L2.37789953,242.601964 L5.2081468,241.607127 Z M-0.0959729015,202.224908 L2.84973135,202.793086 C1.95258528,207.444316 1.5021778,212.431341 1.500008,217.754071 C1.50000172,219.035731 1.52471245,220.277204 1.57448433,221.498231 L1.61651757,222.410476 L-1.37952412,222.564535 C-1.46009959,220.997553 -1.5000001,219.406923 -1.49999187,217.753453 C-1.49774646,212.244942 -1.03023979,207.068589 -0.0959729015,202.224908 Z M20.7351738,167.844325 L22.5511134,170.232287 C17.4256274,174.129993 13.2427759,178.705584 9.99506136,183.964605 L9.60982379,184.598968 L7.03407734,183.06094 C10.5324775,177.202145 15.1023209,172.127861 20.7351738,167.844325 Z M58.2786598,152.923189 L58.7974719,155.877987 C52.1761328,157.040581 46.1318628,158.617244 40.6645102,160.60631 L39.7586266,160.941639 L38.7013106,158.134134 C44.586258,155.917843 51.1121006,154.181514 58.2786598,152.923189 Z M98.4160269,150.434376 L98.4160269,153.434376 L90,153.434376 C86.5280981,153.434376 83.158249,153.508333 79.8904935,153.656201 L78.4962776,153.724098 L78.3399549,150.728174 C81.6248896,150.556771 85.0112315,150.460384 88.4990216,150.438965 L90,150.434376 L98.4160269,150.434376 Z M178.416027,150.434376 L178.416027,153.434376 L158.416027,153.434376 L158.416027,150.434376 L178.416027,150.434376 Z M138.416027,150.434376 L138.416027,153.434376 L118.416027,153.434376 L118.416027,150.434376 L138.416027,150.434376 Z M218.416027,150.434376 L218.416027,153.434376 L198.416027,153.434376 L198.416027,150.434376 L218.416027,150.434376 Z M258.416027,150.434376 L258.416027,153.434376 L238.416027,153.434376 L238.416027,150.434376 L258.416027,150.434376 Z M298.416027,150.434376 L298.416027,153.434376 L278.416027,153.434376 L278.416027,150.434376 L298.416027,150.434376 Z M338.416027,150.434376 L338.416027,153.434376 L318.416027,153.434376 L318.416027,150.434376 L338.416027,150.434376 Z M378.416027,150.434376 L378.416027,153.434376 L358.416027,153.434376 L358.416027,150.434376 L378.416027,150.434376 Z M418.416027,150.434376 L418.416027,153.434376 L398.416027,153.434376 L398.416027,150.434376 L418.416027,150.434376 Z M457.098952,143.971864 L458.288405,146.725988 C452.748541,149.118549 446.525756,150.869127 439.621622,151.980892 L438.675926,152.128537 L438.227246,149.16228 C445.264323,148.097841 451.554293,146.366496 457.098952,143.971864 Z M483.593954,117.021178 L486.380032,118.13373 C483.80975,124.570287 480.270583,130.139169 475.765065,134.829864 L475.260476,135.347438 L473.127997,133.237335 C477.587237,128.73081 481.074947,123.329333 483.593954,117.021178 Z M491.050234,77.9694778 C491.349246,81.1252565 491.499076,84.4191702 491.499996,87.8516829 C491.5,91.0849829 491.37018,94.1802156 491.109561,97.1587725 L491.005695,98.2703039 L488.02042,97.9734337 C488.34039,94.7558761 488.5,91.3920593 488.499996,87.8520867 C488.4992,84.8834394 488.384107,82.0252769 488.154908,79.2776439 L488.06361,78.2524627 L491.050234,77.9694778 Z M475.284675,40.9489308 C479.931216,45.507123 483.580385,51.0030216 486.229525,57.424643 L486.509535,58.1162156 L483.721536,59.2239438 C481.293349,53.1125333 477.941387,47.897855 473.663001,43.567971 L473.183812,43.0905134 L475.284675,40.9489308 Z M70,16.5759664 C74.7359516,16.5759664 78.6624908,20.0414726 79.3820878,24.5749553 L98,24.5759664 L98,27.5759664 L79.3822464,27.5759782 C78.6630678,32.1099509 74.7362995,35.5759664 70,35.5759664 C64.7532949,35.5759664 60.5,31.3226715 60.5,26.0759664 C60.5,20.8292612 64.7532949,16.5759664 70,16.5759664 Z M438.161248,25.2292701 C445.190538,26.0338898 451.533108,27.5051164 457.187573,29.6464906 L457.954371,29.9426503 L456.855043,32.7339722 C451.50659,30.6275495 445.469285,29.1549615 438.741746,28.3197488 L437.820076,28.2098072 L438.161248,25.2292701 Z M70,19.5759664 C66.4101491,19.5759664 63.5,22.4861155 63.5,26.0759664 C63.5,29.6658172 66.4101491,32.5759664 70,32.5759664 C73.5898509,32.5759664 76.5,29.6658172 76.5,26.0759664 C76.5,22.4861155 73.5898509,19.5759664 70,19.5759664 Z M418,24.5759664 L418,27.5759664 L398,27.5759664 L398,24.5759664 L418,24.5759664 Z M378,24.5759664 L378,27.5759664 L358,27.5759664 L358,24.5759664 L378,24.5759664 Z M338,24.5759664 L338,27.5759664 L318,27.5759664 L318,24.5759664 L338,24.5759664 Z M298,24.5759664 L298,27.5759664 L278,27.5759664 L278,24.5759664 L298,24.5759664 Z M258,24.5759664 L258,27.5759664 L238,27.5759664 L238,24.5759664 L258,24.5759664 Z M218,24.5759664 L218,27.5759664 L198,27.5759664 L198,24.5759664 L218,24.5759664 Z M178,24.5759664 L178,27.5759664 L158,27.5759664 L158,24.5759664 L178,24.5759664 Z M138,24.5759664 L138,27.5759664 L118,27.5759664 L118,24.5759664 L138,24.5759664 Z" fill="#000000" fill-rule="nonzero"></path>
                <g id="Group-30" filter="url(#filter-1)" transform="translate(420.000000, 424.000000)">
                    <g id="Path-17">
                        <g id="path-1-link" fill="#000000" fill-rule="nonzero">
                            <path d="M16.9637644,1.02512626 L1.02512626,16.9637644 C0.368748941,17.6201417 0,18.5103804 0,19.4386381 L0,131.5 C0,133.432997 1.56700338,135 3.5,135 L115.561362,135 C116.48962,135 117.379858,134.631251 118.036236,133.974874 L133.974874,118.036236 C134.631251,117.379858 135,116.48962 135,115.561362 L135,3.5 C135,1.56700338 133.432997,0 131.5,0 L19.4386381,0 C18.5103804,0 17.6201417,0.368748941 16.9637644,1.02512626 Z" id="path-1"></path>
                        </g>
                        <path d="M17.4940945,1.55545635 L1.55545635,17.4940945 C1.03973131,18.0098195 0.75,18.7092928 0.75,19.4386381 L0.75,131.5 C0.75,133.018783 1.98121694,134.25 3.5,134.25 L115.561362,134.25 C116.290707,134.25 116.99018,133.960269 117.505905,133.444544 L133.444544,117.505905 C133.960269,116.99018 134.25,116.290707 134.25,115.561362 L134.25,3.5 C134.25,1.98121694 133.018783,0.75 131.5,0.75 L19.4386381,0.75 C18.7092928,0.75 18.0098195,1.03973131 17.4940945,1.55545635 Z" id="Path" stroke="#1F1B24" stroke-width="3" fill="#459593"></path>
                    </g>
                    <path d="M19.75,0.75 L131.25,0.75 C132.906854,0.75 134.25,2.09314575 134.25,3.75 L134.25,115.25 C134.25,115.802285 133.802285,116.25 133.25,116.25 L21.75,116.25 C20.0931458,116.25 18.75,114.906854 18.75,113.25 L18.75,1.75 C18.75,1.19771525 19.1977153,0.75 19.75,0.75 Z" id="Rectangle" stroke="#1F1B24" stroke-width="3" fill="#64C1BE" fill-rule="nonzero"></path>
                    <g id="Group-7" transform="translate(51.000000, 32.000000)" fill="#FFFFFF" stroke="#000000" stroke-width="3">
                        <polygon id="V" points="17.8586426 35.6902641 39.9948164 0 50.9846191 2.42724609 18.9976172 52.4472656 9.43961719 52.4472656 0 17.9472656 10.6706543 15.5324707"></polygon>
                    </g>
                    <path d="M1.5,133.5 L19.5,115.5 L1.5,133.5 Z" id="Path-18" stroke="#1F1B24" stroke-width="3"></path>
                </g>
                <g id="three" transform="translate(54.000000, 258.000000)">
                    <circle id="Oval" stroke="#000000" stroke-width="3" fill="#4A90E2" cx="25" cy="25" r="23.5"></circle>
                    <path d="M23.312,34.24 C24.544,34.24 25.668,34.02 26.684,33.58 C27.7,33.14 28.508,32.504 29.108,31.672 C29.708,30.84 30.008,29.872 30.008,28.768 C30.008,27.952 29.804,27.268 29.396,26.716 C28.988,26.164 28.408,25.76 27.656,25.504 L27.656,25.504 L27.68,25.384 C28.56,25 29.276,24.452 29.828,23.74 C30.38,23.028 30.656,22.176 30.656,21.184 C30.656,20.432 30.448,19.764 30.032,19.18 C29.616,18.596 29.032,18.136 28.28,17.8 C27.528,17.464 26.664,17.296 25.688,17.296 L25.688,17.296 L25.208,17.296 C24.072,17.296 23.028,17.5 22.076,17.908 C21.124,18.316 20.356,18.9 19.772,19.66 C19.188,20.42 18.864,21.296 18.8,22.288 L18.8,22.288 L21.992,22.288 C22.104,21.616 22.416,21.092 22.928,20.716 C23.44,20.34 24.056,20.152 24.776,20.152 C25.464,20.152 26.012,20.296 26.42,20.584 C26.828,20.872 27.032,21.304 27.032,21.88 C27.032,22.648 26.764,23.248 26.228,23.68 C25.692,24.112 25.04,24.328 24.272,24.328 L24.272,24.328 L22.28,24.328 L21.92,26.896 L23.648,26.896 C24.512,26.896 25.2,27.016 25.712,27.256 C26.224,27.496 26.48,27.976 26.48,28.696 C26.48,29.592 26.184,30.264 25.592,30.712 C25,31.16 24.2,31.384 23.192,31.384 C22.36,31.384 21.728,31.232 21.296,30.928 C20.864,30.624 20.648,30.176 20.648,29.584 C20.648,29.424 20.664,29.256 20.696,29.08 L20.696,29.08 L17.432,29.08 C17.352,29.48 17.312,29.84 17.312,30.16 C17.312,31.392 17.776,32.38 18.704,33.124 C19.632,33.868 20.952,34.24 22.664,34.24 L22.664,34.24 L23.312,34.24 Z" id="3" fill="#FFFFFF" fill-rule="nonzero"></path>
                </g>
                <g id="three" transform="translate(395.000000, 260.000000)">
                    <circle id="Oval" stroke="#000000" stroke-width="3" fill="#64C1BE" cx="25" cy="25" r="23.5"></circle>
                    <path d="M27.736,34 L28.264,30.16 L30.472,30.16 L30.88,27.328 L28.672,27.328 L29.8,19.312 L28.264,19.312 C27.96,20.032 27.58,20.804 27.124,21.628 C26.668,22.452 26.208,23.152 25.744,23.728 L25.744,23.728 L25.24,27.328 L20.68,27.328 C21.272,26.736 22.008,25.852 22.888,24.676 C23.768,23.5 24.608,22.248 25.408,20.92 C26.208,19.592 26.808,18.384 27.208,17.296 L27.208,17.296 L23.824,17.296 C23.184,18.816 22.304,20.536 21.184,22.456 C20.064,24.376 19,25.992 17.992,27.304 L17.992,27.304 L17.584,30.16 L24.832,30.16 L24.304,34 L27.736,34 Z" id="4" fill="#FFFFFF" fill-rule="nonzero"></path>
                </g>
                <path d="M393.856757,13.9902468 L404.601562,35.5791267 C405.52436,37.433248 404.769373,39.6843858 402.915252,40.6071837 C402.396153,40.8655394 401.824215,41 401.244378,41 L379.754769,41 C377.683701,41 376.004769,39.3210678 376.004769,37.25 C376.004769,36.6701632 376.139229,36.098225 376.397585,35.5791267 L387.14239,13.9902468 C388.065188,12.1361254 390.316326,11.3811386 392.170447,12.3039364 C392.901071,12.6675686 393.493125,13.2596228 393.856757,13.9902468 Z" id="Triangle" stroke="#000000" stroke-width="3" fill="#FAD843" fill-rule="nonzero" transform="translate(390.500000, 26.500000) scale(-1, 1) rotate(-90.000000) translate(-390.500000, -26.500000) "></path>
                <path d="M262.856757,271.990247 L273.601562,293.579127 C274.52436,295.433248 273.769373,297.684386 271.915252,298.607184 C271.396153,298.865539 270.824215,299 270.244378,299 L248.754769,299 C246.683701,299 245.004769,297.321068 245.004769,295.25 C245.004769,294.670163 245.139229,294.098225 245.397585,293.579127 L256.14239,271.990247 C257.065188,270.136125 259.316326,269.381139 261.170447,270.303936 C261.901071,270.667569 262.493125,271.259623 262.856757,271.990247 Z" id="Triangle" stroke="#000000" stroke-width="3" fill="#FAD843" fill-rule="nonzero" transform="translate(259.500000, 284.500000) scale(-1, 1) rotate(-90.000000) translate(-259.500000, -284.500000) "></path>
                <path d="M149.856757,138.990247 L160.601562,160.579127 C161.52436,162.433248 160.769373,164.684386 158.915252,165.607184 C158.396153,165.865539 157.824215,166 157.244378,166 L135.754769,166 C133.683701,166 132.004769,164.321068 132.004769,162.25 C132.004769,161.670163 132.139229,161.098225 132.397585,160.579127 L143.14239,138.990247 C144.065188,137.136125 146.316326,136.381139 148.170447,137.303936 C148.901071,137.667569 149.493125,138.259623 149.856757,138.990247 Z" id="Triangle" stroke="#000000" stroke-width="3" fill="#FAD843" fill-rule="nonzero" transform="translate(146.500000, 151.500000) scale(-1, 1) rotate(-270.000000) translate(-146.500000, -151.500000) "></path>
                <g id="two" transform="translate(277.000000, 125.000000)">
                    <circle id="Oval" stroke="#000000" stroke-width="3" fill="#F1A4AB" cx="25" cy="25" r="23.5"></circle>
                    <path d="M29.312,34 L29.72,30.904 L22.424,30.904 C22.568,30.68 22.82,30.444 23.18,30.196 C23.54,29.948 24.072,29.608 24.776,29.176 C25.96,28.472 26.964,27.812 27.788,27.196 C28.612,26.58 29.328,25.828 29.936,24.94 C30.544,24.052 30.848,23.056 30.848,21.952 C30.848,21.104 30.66,20.328 30.284,19.624 C29.908,18.92 29.328,18.356 28.544,17.932 C27.76,17.508 26.784,17.296 25.616,17.296 C23.616,17.296 22.112,17.724 21.104,18.58 C20.096,19.436 19.468,20.28 19.22,21.112 C18.972,21.944 18.824,22.68 18.776,23.32 L18.776,23.32 L22.088,23.32 C22.088,22.408 22.36,21.664 22.904,21.088 C23.448,20.512 24.16,20.224 25.04,20.224 C25.728,20.224 26.264,20.408 26.648,20.776 C27.032,21.144 27.224,21.616 27.224,22.192 C27.224,22.784 27.04,23.332 26.672,23.836 C26.304,24.34 25.848,24.796 25.304,25.204 C24.76,25.612 24,26.12 23.024,26.728 C21.792,27.512 20.792,28.204 20.024,28.804 C19.256,29.404 18.6,30.136 18.056,31 C17.512,31.864 17.24,32.864 17.24,34 L17.24,34 L29.312,34 Z" id="2" fill="#FFFFFF" fill-rule="nonzero"></path>
                </g>
                <g id="one" transform="translate(195.000000, 0.000000)">
                    <circle id="Oval" stroke="#000000" stroke-width="3" fill="#FAD843" cx="25" cy="25" r="23.5"></circle>
                    <path d="M29.168,34 L29.576,31.096 L25.664,31.096 L27.584,17.416 L26.312,17.416 C25.24,17.976 24.108,18.452 22.916,18.844 C21.724,19.236 20.672,19.464 19.76,19.528 L19.76,19.528 L19.448,21.664 L23.456,21.664 L22.136,31.096 L18.152,31.096 L17.744,34 L29.168,34 Z" id="1" fill="#FFFFFF" fill-rule="nonzero"></path>
                </g>
            </g>
        </g>
    </g>
</svg>