<?xml version="1.0" encoding="UTF-8"?>
<svg width="31px" height="34px" viewBox="0 0 31 34" version="1.1" xmlns="http://www.w3.org/2000/svg" xmlns:xlink="http://www.w3.org/1999/xlink">
    <!-- Generator: Sketch 60 (88103) - https://sketch.com -->
    <title>Group 3@3x</title>
    <desc>Created with Sketch.</desc>
    <g id="Page-1" stroke="none" stroke-width="1" fill="none" fill-rule="evenodd">
        <g id="software" transform="translate(-462.000000, -4175.000000)" fill-rule="nonzero" stroke="#000000">
            <g id="Group-12" transform="translate(0.000000, 3717.000000)">
                <g id="Group-24" transform="translate(463.000000, 459.000000)">
                    <g id="Group-3">
                        <path d="M15.2687293,1.41424964 C18.810218,3.47413132 23.8026089,-0.690550449 22.7358296,1.14922378 C22.0744764,2.17815479 20.9212016,4.40775689 19.2760052,7.83803009 C26.0783954,13.786162 29.3233421,20.1127185 29.0118226,26.8181807 C28.8400345,29.1958043 26.3116616,31.490624 24.438059,31.8236624 C23.5084534,32.0321125 5.63018047,32.0321125 4.77945758,31.8236624 C1.31461888,31.436969 0.334447493,27.9823398 0.334447493,26.2142054 C0.442026444,19.0824422 3.77044374,12.9712366 10.3196994,7.88058872 C7.81965829,3.98014638 6.56913985,2.02972591 6.56913985,2.02972591 C5.830797,0.807453259 9.89150511,-1.5058811 15.2687293,1.41424964 Z" id="Combined-Shape" stroke-width="1.23" fill="#D4C8BA"></path>
                        <path d="M19.1621164,23.6747199 C20.1445435,22.4401722 20.2349902,20.9981248 18.8684633,19.6762392 C17.3212601,18.1795202 15.8644494,18.671144 14.5882606,19.2502107 L11.7874532,16.5407917 C12.6796507,15.7652015 13.3910634,15.7979204 13.5943785,15.6012393 C13.7976392,15.4046108 13.6508398,15.0222776 13.5040403,14.8802681 C13.1313956,14.5197825 11.9455449,15.1205918 11.0986251,15.8744395 L10.7711494,15.5576491 C10.6581725,15.4483586 10.4210349,15.48113 10.29682,15.6012393 C10.1499663,15.7433013 10.1387283,15.9508536 10.2517052,16.0601442 L10.6017654,16.3987822 C9.68698341,17.4148012 9.06585456,18.8896201 10.4887885,20.2661247 C11.934307,21.6644769 13.3347107,20.9653533 14.6785987,20.3425914 L17.9649192,23.5216816 C16.530693,24.8436722 15.39012,24.2209102 15.1190514,24.4831341 C14.9496674,24.6469911 15.0173667,25.0401956 15.1980972,25.2150291 C15.604673,25.6083386 17.2422143,25.5755672 18.6763862,24.2099339 L19.082962,24.6032434 C19.1958847,24.7124815 19.4104377,24.7016102 19.5572914,24.5595482 C19.6815063,24.4393863 19.7153288,24.2099864 19.6024062,24.1007483 L19.1621164,23.6747199 Z M10.9585447,19.6016963 C10.1228697,18.8294225 10.4729043,17.9424164 11.1279706,17.2328014 L13.7478014,19.6538702 C12.7540463,20.0922311 11.8394398,20.4157593 10.9585447,19.6016963 Z M18.5985704,22.9728014 L15.3878014,19.9984706 C16.3874988,19.6172388 17.3519168,19.4429374 18.3750773,20.3907533 C19.2454168,21.1970018 19.2924561,22.0903485 18.5985704,22.9728014 Z" id="Shape" stroke-width="0.5" fill="#000000" transform="translate(14.772801, 20.102801) rotate(-315.000000) translate(-14.772801, -20.102801) "></path>
                    </g>
                </g>
            </g>
        </g>
    </g>
</svg>