<?xml version="1.0" encoding="UTF-8"?>
<svg width="30px" height="30px" viewBox="0 0 30 30" version="1.1" xmlns="http://www.w3.org/2000/svg" xmlns:xlink="http://www.w3.org/1999/xlink">
    <!-- Generator: Sketch 60 (88103) - https://sketch.com -->
    <title>Group 2</title>
    <desc>Created with Sketch.</desc>
    <g id="Page-1" stroke="none" stroke-width="1" fill="none" fill-rule="evenodd">
        <g id="software" transform="translate(-195.000000, -4177.000000)" fill-rule="nonzero" stroke="#000000" stroke-width="1.02000001">
            <g id="Group-12" transform="translate(0.000000, 3717.000000)">
                <g id="Group-23" transform="translate(195.000000, 460.000000)">
                    <g id="Group-2">
                        <path d="M11.7300001,5.61000006 L17.5100002,5.61000006 L17.5100002,3.40000004 C17.5100002,1.80389709 16.2161031,0.510000005 14.6200002,0.510000005 C13.0238972,0.510000005 11.7300001,1.80389709 11.7300001,3.40000004 L11.7300001,5.61000006 Z" id="Rectangle" fill="#F1A4AB"></path>
                        <rect id="Rectangle" fill="#64C1BE" x="2.89000003" y="5.61000006" width="23.4600002" height="23.4600002" rx="4.42000005"></rect>
                        <circle id="Oval" fill="#FFFFFF" cx="8.50000009" cy="14.6200002" r="2.72000003"></circle>
                        <path d="M15.0941054,15.9082107 L16.7539739,19.2279476 C16.8379502,19.3959003 16.7698739,19.6001291 16.6019212,19.6841055 C16.5547104,19.7077109 16.5026519,19.7200002 16.4498686,19.7200002 L13.1301317,19.7200002 C12.9423549,19.7200002 12.7901317,19.567777 12.7901317,19.3800002 C12.7901317,19.3272169 12.802421,19.2751584 12.8260264,19.2279476 L14.4858949,15.9082107 C14.5698713,15.740258 14.7741001,15.6721817 14.9420528,15.756158 C15.0078521,15.7890577 15.0612057,15.8424113 15.0941054,15.9082107 Z" id="Triangle" fill="#FAD843"></path>
                        <rect id="Rectangle" fill="#FFFFFF" x="9.1800001" y="21.7600002" width="11.2200001" height="3.40000004" rx="1.70000002"></rect>
                        <circle id="Oval-Copy" fill="#FFFFFF" cx="20.7400002" cy="14.6200002" r="2.72000003"></circle>
                        <path d="M26.3500003,13.4300001 L26.3500003,21.2500002 L27.8800003,21.2500002 C28.3494423,21.2500002 28.7300003,20.8694423 28.7300003,20.4000002 L28.7300003,14.2800002 C28.7300003,13.8105581 28.3494423,13.4300001 27.8800003,13.4300001 L26.3500003,13.4300001 Z" id="Rectangle" fill="#F1A4AB"></path>
                        <path d="M2.89000003,21.2500002 L2.89000003,13.4300001 L1.02000001,13.4300001 C0.738334785,13.4300001 0.510000005,13.6583349 0.510000005,13.9400001 L0.510000005,20.7400002 C0.510000005,21.0216654 0.738334785,21.2500002 1.02000001,21.2500002 L2.89000003,21.2500002 Z" id="Rectangle-Copy" fill="#F1A4AB"></path>
                        <g id="Group" transform="translate(11.560000, 21.760000)" stroke-linecap="square">
                            <line x1="3.23000003" y1="0" x2="3.23000003" y2="3.29366703" id="Line"></line>
                            <line x1="0.340000004" y1="0" x2="0.340000004" y2="3.29366703" id="Line-Copy"></line>
                            <line x1="6.12000006" y1="0" x2="6.12000006" y2="3.29366703" id="Line-Copy-2"></line>
                        </g>
                    </g>
                </g>
            </g>
        </g>
    </g>
</svg>