<svg xmlns="http://www.w3.org/2000/svg" xmlns:xlink="http://www.w3.org/1999/xlink" width="443" height="446" viewBox="0 0 443 446">
    <defs>
        <circle id="a" cx="216.5" cy="216.5" r="216.5"/>
        <filter id="b" width="103.5%" height="103.5%" x="-1%" y="-1%" filterUnits="objectBoundingBox">
            <feMorphology in="SourceAlpha" operator="dilate" radius="3" result="shadowSpreadOuter1"/>
            <feOffset dx="3" dy="3" in="shadowSpreadOuter1" result="shadowOffsetOuter1"/>
            <feComposite in="shadowOffsetOuter1" in2="SourceAlpha" operator="out" result="shadowOffsetOuter1"/>
            <feColorMatrix in="shadowOffsetOuter1" values="0 0 0 0 0 0 0 0 0 0 0 0 0 0 0 0 0 0 0.07 0"/>
        </filter>
        <circle id="d" cx="214.5" cy="214.5" r="214.5"/>
    </defs>
    <g fill="none" fill-rule="evenodd" transform="translate(2 2)">
        <mask id="c" fill="#fff">
            <use xlink:href="#a"/>
        </mask>
        <g fill-rule="nonzero">
            <use fill="#000" filter="url(#b)" xlink:href="#a"/>
            <use fill="#F1A4AB" stroke="#000" stroke-width="3" xlink:href="#a"/>
        </g>
        <g mask="url(#c)">
            <g transform="translate(2 1)">
                <mask id="e" fill="#fff">
                    <use xlink:href="#d"/>
                </mask>
                <use fill="#F1A4AB" fill-rule="nonzero" xlink:href="#d"/>
                <path fill="#FAD843" stroke="#000" stroke-width="3" d="M173 119V79.902c23.454-1.544 42-21.057 42-44.902 0-23.845-18.546-43.358-42-44.902V-49c46.392 0 84 37.608 84 84s-37.608 84-84 84z" mask="url(#e)" transform="rotate(90 215 35)"/>
            </g>
        </g>
        <g fill-rule="nonzero" stroke="#000">
            <path fill="#64C1BE" stroke-width="3" d="M96.047 394.56c-28.993 6.597-56.87-9.34-73.05-50.746-7.899-22.046-11.293-50.326 28.1-108.552 2.9-5.442 16.46-49.52-28.1-143.903-7.246-16.839-4.81-42.165 19.183-52.106 15.996-6.628 32.225 1.368 48.688 23.986-10.826 8.6-14.482 15.608-10.97 21.025 5.27 8.125 16.15 0 16.15 0 9.555 18.615 14.415 55.78 14.415 57.377 33.734 9.204 45.415-20.398 63.993-9.695 0 0 24.164 11.527-20.375 85.648-5.915 11.823 2.187 26.896 4.747 37.41 15.628 56.449 11.178 122.27-62.78 139.557z"/>
            <path stroke-width="2.5" d="M38 43c41.139 76.895 62.805 156.538 65 238.927 0 31.66-7.124 70.017-21.37 115.073"/>
            <path stroke-width="2.5" d="M102 260c7.803-33.665 18.187-59.775 31.151-78.327C145.581 163.886 160.196 147.662 177 133"/>
        </g>
        <g stroke="#000" transform="translate(100 134)">
            <g fill="#4A90E2" fill-rule="nonzero" stroke-width="3">
                <path d="M247.17 282.391c15.315.673 23.294 9.291 23.936 25.855H101.462c-10.992-1.272-19.514-2.688-25.568-4.246-9.689-2.494-19.942-6.252-30.987-10.581-14.14-5.796-17.945-8.261-25.913-13.8-6.851-4.762-11.683-12.425-13.914-16.821C.254 253.29.93 236.534.93 233.312c1.07-14.504 6.58-24.013 13.367-31.67a48.236 48.236 0 0 1 19.406-13.289c7.259-2.678 14.852-3.544 23.806-2.872 7.87.591 16.445 1.87 25.5 6.673 6.594 4.253 9.368 6.762 7.226 11.887-.6 1.438-2.385 3.28-4.68 3.692-5.89 1.058-14.72-1.968-17.163-2.737-7.936-2.497-12.257-2.904-19.286-2.116-9.678 1.858-14.97 4.7-20.456 9.86-8.482 8.324-10.554 16.884-10.554 27.637 0 11.013 3.813 19.847 14.904 27.825 6.949 4.998 19.497 11.035 37.784 17.456 12.191 4.281 22.417 6.395 30.678 6.342-.255-52.404.434-85.257 2.065-98.561 2.448-19.956 9.547-32.615 14.05-39.156 6.17-9.843 18.833-20.937 37.99-33.283 54.04-.555 84.574 5.36 91.603 17.743 0 0-22.973 142.639 0 143.648z"/>
                <path d="M154.287 262.83L141 307.775h78.323c-1.05-14.323-8.35-22.883-21.901-25.68 0 0 18.179-32.767 14.626-53.903-1.077-6.818-6.87-28.095-29.327-33.54 0 0-7.167-1.47-14.948 0-7.623 1.389-15.988 4.228-25.096 8.518"/>
            </g>
            <path fill="#4A90E2" fill-rule="nonzero" stroke-width="3" d="M141.155 51.567C151.495 21.559 179.98 0 213.5 0c33.52 0 62.005 21.559 72.345 51.567C298.79 52.511 309 63.313 309 76.5s-10.21 23.989-23.155 24.933C275.505 131.441 247.02 153 213.5 153c-33.52 0-62.005-21.559-72.345-51.567C128.21 100.489 118 89.687 118 76.5s10.21-23.989 23.155-24.933z"/>
            <path fill="#FFF" stroke-width="2" d="M141 81a5 5 0 0 1 0-10v10zM286 81a5 5 0 0 0 0-10v10z"/>
            <path fill="#F1A4AB" fill-rule="nonzero" stroke-width="2.5" d="M234.75 110.5V97.75h2.75c12.288 0 22.25-9.962 22.25-22.25s-9.962-22.25-22.25-22.25h-48c-12.288 0-22.25 9.962-22.25 22.25s9.962 22.25 22.25 22.25h2.75v12.75c0 11.736 9.514 21.25 21.25 21.25s21.25-9.514 21.25-21.25z"/>
            <g fill="#FFF" fill-rule="nonzero" stroke-width="2.5" transform="translate(182 67)">
                <circle cx="9" cy="9" r="9"/>
                <circle cx="55" cy="9" r="9"/>
            </g>
            <circle cx="215" cy="113" r="5" fill="#FFF" fill-rule="nonzero" stroke-width="2.5"/>
            <g fill="#000" fill-rule="nonzero" stroke-width="3" transform="translate(208 89)">
                <circle cx="1" cy="1" r="1"/>
                <circle cx="12" cy="1" r="1"/>
            </g>
        </g>
    </g>
</svg>
