<svg xmlns="http://www.w3.org/2000/svg" width="24" height="24" viewBox="0 0 24 24">
    <g fill="#FFF" fill-rule="evenodd">
        <path fill-rule="nonzero" d="M21.978 0H1.998C.9 0 0 .9 0 1.998v19.98c0 1.099.9 1.999 1.998 1.999h19.98c1.1 0 1.999-.9 1.999-1.998V1.999c0-1.1-.9-1.999-1.999-1.999zm0 21.979H1.998V1.999h19.98v19.98z"/>
        <path d="M5.994 9.989h1.998v7.992H5.994z"/>
        <circle cx="6.992" cy="7.493" r="1.499"/>
        <path d="M13.986 9.99c-.731 0-1.408.211-1.998.554v-.47H9.99v7.908h1.998v-3.996a1.998 1.998 0 0 1 3.996 0v3.996h1.998v-3.996a3.996 3.996 0 0 0-3.996-3.996z"/>
    </g>
</svg>
