<?xml version="1.0" encoding="UTF-8"?>
<svg width="74px" height="81px" viewBox="0 0 74 81" version="1.1" xmlns="http://www.w3.org/2000/svg" xmlns:xlink="http://www.w3.org/1999/xlink">
    <!-- Generator: Sketch 52.6 (67491) - http://www.bohemiancoding.com/sketch -->
    <title>Group 4@2x</title>
    <desc>Created with Sketch.</desc>
    <g id="Page-1" stroke="none" stroke-width="1" fill="none" fill-rule="evenodd">
        <g id="Desktop-HD" transform="translate(-218.000000, -813.000000)" fill-rule="nonzero">
            <g id="Group-4" transform="translate(218.000000, 813.000000)">
                <path d="M45.5,1.5 L45.5,38.5 L72.5,38.5 L72.5,17.6556557 L54.8170857,1.5 L45.5,1.5 Z" id="Path-3" stroke="#000000" stroke-width="3" fill="#C8C8C8"></path>
                <path d="M72.5,18.5931651 L58.3872997,18.5931651 C55.9020183,18.5931651 53.8872997,16.5784465 53.8872997,14.0931651 L53.8872997,1.5 L3,1.5 C2.17157288,1.5 1.5,2.17157288 1.5,3 L1.5,78 C1.5,78.8284271 2.17157288,79.5 3,79.5 L71,79.5 C71.8284271,79.5 72.5,78.8284271 72.5,78 L72.5,18.5931651 Z" id="Rectangle" stroke="#000000" stroke-width="3" fill="#E8E8E8"></path>
                <rect id="Rectangle" fill="#D8D8D8" x="22" y="31" width="35" height="5" rx="2.5"></rect>
                <circle id="Oval" fill="#64C1BE" cx="15.5" cy="33.5" r="2.5"></circle>
                <circle id="Oval-Copy-4" fill="#64C1BE" cx="15.5" cy="43.5" r="2.5"></circle>
                <circle id="Oval-Copy-5" fill="#64C1BE" cx="15.5" cy="53.5" r="2.5"></circle>
                <rect id="Rectangle-Copy-3" fill="#D8D8D8" x="22" y="41" width="35" height="5" rx="2.5"></rect>
                <rect id="Rectangle-Copy-4" fill="#D8D8D8" x="22" y="51" width="26" height="5" rx="2.5"></rect>
            </g>
        </g>
    </g>
</svg>