<?xml version="1.0" encoding="UTF-8"?>
<svg width="536px" height="436px" viewBox="0 0 536 436" version="1.1" xmlns="http://www.w3.org/2000/svg" xmlns:xlink="http://www.w3.org/1999/xlink">
    <!-- Generator: Sketch 52.6 (67491) - http://www.bohemiancoding.com/sketch -->
    <title>Group 6@2x</title>
    <desc>Created with Sketch.</desc>
    <defs>
        <rect id="path-1" x="0" y="0" width="530" height="394"></rect>
    </defs>
    <g id="Page-1" stroke="none" stroke-width="1" fill="none" fill-rule="evenodd">
        <g id="Artboard-Copy-12" transform="translate(-402.000000, -1221.000000)">
            <g id="Group-6" transform="translate(390.000000, 1223.000000)">
                <g id="Window-Text-Copy-17" transform="translate(0.000000, 34.000000)">
                    <g id="Window-Body"></g>
                    <rect id="Window-Background" stroke="#000000" stroke-width="3" fill="#FFFFFF" fill-rule="nonzero" x="13.5" y="1.5" width="533" height="397"></rect>
                    <g id="Group" transform="translate(15.000000, 3.000000)">
                        <mask id="mask-2" fill="white">
                            <use xlink:href="#path-1"></use>
                        </mask>
                        <use id="Mask" fill="#4A90E2" fill-rule="nonzero" xlink:href="#path-1"></use>
                        <g id="Group-2" mask="url(#mask-2)" fill="#FFFFFF" fill-rule="nonzero" stroke="#000000" stroke-width="3">
                            <g transform="translate(-41.000000, 24.000000)">
                                <path d="M29.1565571,122.979006 C97.7660822,122.979006 132.070845,122.979006 132.070845,122.979006 C142.491438,122.230697 145.253366,115.465808 145.253366,103.290463 C145.253366,94.9196618 138.968779,88.3869007 132.070845,85.31341 C125.687599,82.4692477 115.561796,81.0289185 109.078905,81.0289185 C109.078905,81.0289185 106.607436,57 81.3698657,57 C64.5448188,57 55.3286999,66.4378033 53.7215091,85.31341 C39.0730762,81.8803506 27.8436479,82.9129615 20.0332242,88.4112427 C12.2228004,93.9095239 9.43171523,101.675433 11.6599686,111.708971 C2.62038661,111.791211 -1.16313217,115.54789 0.309412237,122.979006 C0.309412237,122.979006 9.92512719,122.979006 29.1565571,122.979006 Z" id="Path-2"></path>
                                <path d="M513.521567,43.9790058 C559.45859,43.9790058 582.427102,43.9790058 582.427102,43.9790058 C589.404137,43.4802127 591.253366,38.9710043 591.253366,30.8553991 C591.253366,25.2757526 587.045565,20.9212714 582.427102,18.8726036 C578.153245,16.9767971 571.373585,16.0167304 567.033011,16.0167304 C567.033011,16.0167304 565.378256,0 548.480619,0 C537.215528,6.53245231e-16 531.044941,6.29086786 529.968857,18.8726036 C520.161102,16.5842615 512.642518,17.2725592 507.413104,20.9374969 C502.18369,24.6024345 500.314938,29.7788837 501.80685,36.4668443 C495.754461,36.5216627 493.221233,39.0257165 494.207165,43.9790058 C494.207165,43.9790058 500.645299,43.9790058 513.521567,43.9790058 Z" id="Path-2-Copy"></path>
                            </g>
                        </g>
                        <g id="Group-5" mask="url(#mask-2)" stroke="#000000">
                            <g transform="translate(86.000000, 261.000000)">
                                <path d="M247.5,1.5 L110.5,1.5 L110.5,173.971819 C110.5,192.473358 125.498461,207.471819 144,207.471819 C162.501539,207.471819 177.5,192.473358 177.5,173.971819 L177.5,158.471819 L179,158.471819 C216.831505,158.471819 247.5,127.803324 247.5,89.9718189 L247.5,1.5 Z" id="Combined-Shape" stroke-width="3" fill="#FAD843" fill-rule="nonzero"></path>
                                <circle id="Oval" stroke-width="3" fill="#FFFFFF" fill-rule="nonzero" cx="164" cy="40" r="10"></circle>
                                <circle id="Oval-Copy" stroke-width="3" fill="#FFFFFF" fill-rule="nonzero" cx="214" cy="40" r="10"></circle>
                                <polygon id="Triangle" stroke-width="2.5" fill="#FAD843" fill-rule="evenodd" points="189 52 209 76.8484588 189 76.8484588"></polygon>
                                <path d="M204.235822,114.090698 C204.231928,104.655546 196.340964,97.0037794 186.610861,97.0000014 C176.880758,96.9962234 168.996108,104.641865 169.000001,114.077016 C169.000001,114.077016 204.235822,114.090698 204.235822,114.090698 Z" id="Oval-Copy-2" stroke-width="3" fill="#FFFFFF" fill-rule="evenodd" transform="translate(186.617911, 105.545349) rotate(-180.000000) translate(-186.617911, -105.545349) "></path>
                                <path d="M118.66326,67.6632599 C118.659698,59.3322355 111.440576,52.5758992 102.538899,52.5725633 C93.6372236,52.5692274 86.4238769,59.320155 86.4274392,67.6511794 C86.4274392,67.6511794 118.66326,67.6632599 118.66326,67.6632599 Z" id="Oval-Copy-3" stroke-width="3" fill="#FAD843" fill-rule="evenodd" transform="translate(102.545349, 60.117911) rotate(-90.000000) translate(-102.545349, -60.117911) "></path>
                            </g>
                        </g>
                    </g>
                </g>
                <path d="M244,122.098414 C267.454092,123.642172 286,143.155273 286,167 C286,190.844728 267.454092,210.357828 244,211.901586 L244,251 C197.608088,251 160,213.391919 160,167 C160,120.608082 197.608088,83 244,83 L244,122.098414 Z" id="Combined-Shape-Copy-3" stroke="#000000" stroke-width="3" fill="#FAD843"></path>
                <path d="M310,253.136468 L310,214.038054 C333.454092,212.494296 352,192.981196 352,169.136468 C352,145.291741 333.454092,125.77864 310,124.234882 L310,85.1364678 C310,85.1364678 336.545199,80.7576452 389.635596,72 L410.650793,246.127955 C359.793277,250.800297 326.243012,253.136468 310,253.136468 Z" id="Combined-Shape-Copy-4" stroke="#000000" stroke-width="3" fill="#64C1BE"></path>
                <path d="M281.333333,68.2265625 C261.705191,47.1753068 251.324419,32.8661224 250.191019,25.2990094 C248.490918,13.94834 258.444246,3.67123531 267.91789,3.67123531 C274.233653,3.67123531 279.769397,8.55492624 284.525123,18.3223081 C291.556227,6.10743604 299.19441,-7.10542736e-15 307.439672,-7.10542736e-15 C316.891843,-7.10542736e-15 326.336195,7.19277139 316.640132,28.7873601 C310.17609,43.1837526 298.407157,56.3301534 281.333333,68.2265625 Z" id="Path-17" stroke="#000000" stroke-width="3" fill="#F1A4AB" fill-rule="nonzero"></path>
            </g>
        </g>
    </g>
</svg>