<?xml version="1.0" encoding="UTF-8"?>
<svg width="82px" height="67px" viewBox="0 0 82 67" version="1.1" xmlns="http://www.w3.org/2000/svg" xmlns:xlink="http://www.w3.org/1999/xlink">
    <!-- Generator: Sketch 52.6 (67491) - http://www.bohemiancoding.com/sketch -->
    <title>Group Copy 6</title>
    <desc>Created with Sketch.</desc>
    <g id="Page-1" stroke="none" stroke-width="1" fill="none" fill-rule="evenodd">
        <g id="z" transform="translate(-296.000000, -258.000000)">
            <g id="Group-Copy-6" transform="translate(296.000000, 258.000000)">
                <g id="Folder">
                    <rect id="Rectangle-Copy-2" stroke="#000000" stroke-width="3" fill="#F1A4AB" fill-rule="nonzero" x="1.5" y="1.5" width="79" height="17" rx="3"></rect>
                    <rect id="Rectangle" stroke="#000000" stroke-width="3" fill="#E8E8E8" fill-rule="nonzero" x="1.5" y="12.5" width="79" height="53" rx="3"></rect>
                    <path d="M28.196,41.338 L31.848,41.338 L33.058,32.692 L29.384,32.692 L29.67,30.734 C30.5060042,30.675333 31.4703279,30.4663351 32.563,30.107 C33.6556721,29.7476649 34.6933284,29.3113359 35.676,28.798 L36.842,28.798 L35.082,41.338 L38.668,41.338 L38.294,44 L27.822,44 L28.196,41.338 Z M42.056,41.338 L45.708,41.338 L46.918,32.692 L43.244,32.692 L43.53,30.734 C44.3660042,30.675333 45.3303279,30.4663351 46.423,30.107 C47.5156721,29.7476649 48.5533284,29.3113359 49.536,28.798 L50.702,28.798 L48.942,41.338 L52.528,41.338 L52.154,44 L41.682,44 L42.056,41.338 Z" id="11" fill="#000000"></path>
                </g>
            </g>
        </g>
    </g>
</svg>