<?xml version="1.0" encoding="UTF-8"?>
<svg width="74px" height="77px" viewBox="0 0 74 77" version="1.1" xmlns="http://www.w3.org/2000/svg" xmlns:xlink="http://www.w3.org/1999/xlink">
    <!-- Generator: Sketch 52.6 (67491) - http://www.bohemiancoding.com/sketch -->
    <title>Group 8</title>
    <desc>Created with Sketch.</desc>
    <g id="Page-1" stroke="none" stroke-width="1" fill="none" fill-rule="evenodd">
        <g id="Desktop-HD" transform="translate(-491.000000, -798.000000)" fill-rule="nonzero">
            <g id="Group-8" transform="translate(467.000000, 774.000000)">
                <g id="Group-9" transform="translate(62.923757, 61.078771) scale(-1, 1) rotate(17.000000) translate(-62.923757, -61.078771) translate(12.923757, 12.578771)" fill="#FFFFFF" stroke="#000000" stroke-width="3">
                    <g id="Oval-2" transform="translate(49.753513, 48.441485) rotate(-26.000000) translate(-49.753513, -48.441485) translate(11.753513, 13.941485)">
                        <path d="M42.0715287,66 C60.2342905,67.4597987 75.0715287,51.2253967 75.0715287,33 C75.0715287,14.7746033 60.2969255,1.3500312e-13 42.0715287,1.3500312e-13 C23.846132,1.3500312e-13 9.07152874,14.7708749 9.07152874,33 C9.07152874,53.3907238 -4.31881964,60.0598524 1.43748828,66 C7.43592393,72.1900082 14.3131765,63.7689733 42.0715287,66 Z" id="Oval"></path>
                    </g>
                </g>
                <rect id="Rectangle" fill="#D8D8D8" x="46" y="47" width="30" height="5" rx="2.5"></rect>
                <rect id="Rectangle-Copy-3" fill="#D8D8D8" x="46" y="57" width="30" height="5" rx="2.5"></rect>
                <rect id="Rectangle-Copy-4" fill="#D8D8D8" x="46" y="67" width="22" height="5" rx="2.5"></rect>
                <circle id="Oval" fill="#D8D8D8" cx="72.5" cy="69.5" r="2.5"></circle>
            </g>
        </g>
    </g>
</svg>