<?xml version="1.0" encoding="UTF-8"?>
<svg width="63px" height="78px" viewBox="0 0 63 78" version="1.1" xmlns="http://www.w3.org/2000/svg" xmlns:xlink="http://www.w3.org/1999/xlink">
    <!-- Generator: Sketch 52.6 (67491) - http://www.bohemiancoding.com/sketch -->
    <title>Group 3</title>
    <desc>Created with Sketch.</desc>
    <g id="Page-1" stroke="none" stroke-width="1" fill="none" fill-rule="evenodd">
        <g id="Group-3">
            <path d="M4.78636364,63.2911765 L4.78636364,74.5500001 C4.78636364,75.709798 5.72656563,76.65 6.88636356,76.65 L56.1136364,76.65 C57.2734344,76.65 58.2136364,75.709798 58.2136364,74.5500001 L58.2136364,63.2911765 L4.78636364,63.2911765 Z" id="Rectangle-Copy-8" stroke="#000000" stroke-width="2.7" fill="#D9D9D9" fill-rule="nonzero"></path>
            <rect id="Rectangle-Copy-9" stroke="#000000" stroke-width="2.8" fill="#D9D9D9" fill-rule="nonzero" x="1.4" y="1.4" width="60.2" height="66.0235294" rx="3.44999993"></rect>
            <rect id="Rectangle-Copy-10" stroke="#000000" stroke-width="2.29999995" fill="#FFFFFF" fill-rule="nonzero" x="9.16818179" y="9.17941174" width="44.6636364" height="33.2588236" rx="3.44999993"></rect>
            <g id="Group-2" transform="translate(20.618182, 17.205882)">
                <path d="M11.3987032,18.1571019 C15.9787217,18.1571019 20.368017,15.7159055 22.881153,11.6627176 L20.8926905,10.3235294 C18.5849258,14.0454671 14.3637155,16.1225659 10.1368826,15.6142789 C6.84295058,15.2184134 3.7968551,13.2404738 1.98831452,10.3235294 L7.10542736e-15,11.6627176 C2.18835926,15.1925056 5.87646223,17.5858958 9.86552008,18.0654992 C10.3776169,18.1270303 10.8889738,18.1571019 11.3987032,18.1571019 Z" id="Path" fill="#000000"></path>
                <rect id="Rectangle-Copy-11" stroke="#000000" stroke-width="1.14999998" fill="#D8D8D8" fill-rule="nonzero" x="4.01136362" y="0.574999988" width="1.14090911" height="3.43823532"></rect>
                <rect id="Rectangle-Copy-12" stroke="#000000" stroke-width="1.14999998" fill="#D8D8D8" fill-rule="nonzero" x="17.7568182" y="0.574999988" width="1.14090911" height="3.43823532"></rect>
                <rect id="Rectangle-Copy-13" stroke="#000000" stroke-width="1.14999998" fill="#D8D8D8" fill-rule="nonzero" x="10.8840909" y="0.574999988" width="1.14090911" height="10.3205883"></rect>
            </g>
            <path d="M38.9454545,53.3382353 C38.9454545,53.3382353 44.2909091,53.3382353 54.9818182,53.3382353" id="Path-2-Copy-4" stroke="#000000" stroke-width="2.29999995" fill-rule="nonzero"></path>
            <path d="M8.01818182,56.7794118 C8.01818182,56.7794118 9.92727273,56.7794118 13.7454545,56.7794118" id="Path-2-Copy-5" stroke="#000000" stroke-width="2.29999995" fill-rule="nonzero"></path>
        </g>
    </g>
</svg>