<?xml version="1.0" encoding="UTF-8"?>
<svg width="113px" height="69px" viewBox="0 0 113 69" version="1.1" xmlns="http://www.w3.org/2000/svg" xmlns:xlink="http://www.w3.org/1999/xlink">
    <!-- Generator: Sketch 52.6 (67491) - http://www.bohemiancoding.com/sketch -->
    <title>Group 10@2x</title>
    <desc>Created with Sketch.</desc>
    <g id="Page-1" stroke="none" stroke-width="1" fill="none" fill-rule="evenodd">
        <g id="Artboard" transform="translate(-484.000000, -798.000000)" fill-rule="nonzero" stroke="#000000" stroke-width="3">
            <g id="Group-10" transform="translate(486.000000, 800.000000)">
                <g id="Group-9">
                    <path d="M1.76331095,37.6614426 C-4.52209099,23.6217019 4.39684054,6.17474441 54.7546224,0.885742822 C83.3314772,-2.26820753 94.2170289,3.87085769 97.6538072,5.74230349 C108.185912,11.477402 108.99718,19.1235125 108.99718,25.7951578 C103.953442,51.7011833 78.1729123,36.4655929 60.4649887,35.9505251 C46.8873821,35.9505251 33.235065,46.710139 18.2802564,46.710139 C12.9671759,46.710139 6.55943403,46.1211165 1.76331095,37.6614426 Z" id="Path-14" fill="#64C1BE"></path>
                    <path d="M13.6353663,34.292983 C8.75915226,26.7022908 15.7273822,12.3772147 54.7949429,9.51767587 C76.9648633,7.8124687 99.7631339,12.7117993 96.8763125,22.9851399 C92.963381,36.991429 72.9628493,28.7541915 59.2250444,28.4757162 C48.6680658,28.4757162 36.6580055,34.292983 36.6580055,34.292983 C23.0018947,40.2432786 17.3324169,38.5544157 13.6353663,34.292983 Z" id="Path-14-Copy" fill="#3970AF"></path>
                    <path d="M34.6490066,34.4665347 C44.9586258,30.7034167 50.2202703,29.0296664 50.43394,29.4452838 C51.0113938,30.5751424 62.8751665,53.3690039 62.8751665,53.3690039 C62.8751665,53.3690039 69.5982282,70.7156192 87.6408424,62.3713823 C96.1413295,58.4401296 98.8466024,52.8416476 95.7566613,45.5759365 C88.8496289,32.8099271 84.5061284,25.3282359 82.7261599,23.1308628 C80.0562072,19.834803 77.3034843,16.8998475 71.9716587,16.9573529 C68.4171082,16.9956898 65.3849442,19.0535264 62.8751665,23.1308628 C58.341301,18.5866635 53.1939391,17.5019833 47.4330808,19.8768222 C41.6722226,22.2516612 37.4108646,27.1148987 34.6490066,34.4665347 Z" id="Path-16" fill="#F1A4AB"></path>
                    <path d="M62.2336397,22.4906703 C64.8768189,25.3178103 67.4258964,28.4736872 69.8808723,31.9583008 C72.3358483,35.4429145 74.4734322,38.8714969 76.2936242,42.244048" id="Path-17"></path>
                </g>
            </g>
        </g>
    </g>
</svg>