<?xml version="1.0" encoding="UTF-8"?>
<svg width="536px" height="456px" viewBox="0 0 536 456" version="1.1" xmlns="http://www.w3.org/2000/svg" xmlns:xlink="http://www.w3.org/1999/xlink">
    <!-- Generator: Sketch 52.6 (67491) - http://www.bohemiancoding.com/sketch -->
    <title>Group 10</title>
    <desc>Created with Sketch.</desc>
    <defs>
        <rect id="path-1" x="0" y="0" width="530" height="394"></rect>
    </defs>
    <g id="Page-1" stroke="none" stroke-width="1" fill="none" fill-rule="evenodd">
        <g id="Desktop-HD" transform="translate(-1519.000000, -606.000000)">
            <g id="Group-10" transform="translate(1507.000000, 608.000000)">
                <g id="Group-6-Copy-2" transform="translate(0.000000, 54.000000)">
                    <g id="Window-Text-Copy-17">
                        <g id="Window-Body"></g>
                        <rect id="Window-Background" stroke="#000000" stroke-width="3" fill="#FFFFFF" fill-rule="nonzero" x="13.5" y="1.5" width="533" height="397"></rect>
                        <g id="Group" transform="translate(15.000000, 3.000000)">
                            <mask id="mask-2" fill="white">
                                <use xlink:href="#path-1"></use>
                            </mask>
                            <use id="Mask" fill="#4A90E2" fill-rule="nonzero" xlink:href="#path-1"></use>
                            <g id="Group-2" mask="url(#mask-2)">
                                <g transform="translate(58.000000, 24.000000)">
                                    <path d="M29.1565571,109.979006 C97.7660822,109.979006 132.070845,109.979006 132.070845,109.979006 C142.491438,109.230697 145.253366,102.465808 145.253366,90.2904633 C145.253366,81.9196618 138.968779,75.3869007 132.070845,72.31341 C125.687599,69.4692477 115.561796,68.0289185 109.078905,68.0289185 C109.078905,68.0289185 106.607436,44 81.3698657,44 C64.5448188,44 55.3286999,53.4378033 53.7215091,72.31341 C39.0730762,68.8803506 27.8436479,69.9129615 20.0332242,75.4112427 C12.2228004,80.9095239 9.43171523,88.6754332 11.6599686,98.7089705 C2.62038661,98.7912112 -1.16313217,102.54789 0.309412237,109.979006 C0.309412237,109.979006 9.92512719,109.979006 29.1565571,109.979006 Z" id="Path-2" stroke="#000000" stroke-width="3" fill="#FFFFFF" fill-rule="nonzero"></path>
                                    <path d="M414.521567,43.9790058 C460.45859,43.9790058 483.427102,43.9790058 483.427102,43.9790058 C490.404137,43.4802127 492.253366,38.9710043 492.253366,30.8553991 C492.253366,25.2757526 488.045565,20.9212714 483.427102,18.8726036 C479.153245,16.9767971 472.373585,16.0167304 468.033011,16.0167304 C468.033011,16.0167304 466.378256,0 449.480619,0 C438.215528,6.53245231e-16 432.044941,6.29086786 430.968857,18.8726036 C421.161102,16.5842615 413.642518,17.2725592 408.413104,20.9374969 C403.18369,24.6024345 401.314938,29.7788837 402.80685,36.4668443 C396.754461,36.5216627 394.221233,39.0257165 395.207165,43.9790058 C395.207165,43.9790058 401.645299,43.9790058 414.521567,43.9790058 Z" id="Path-2-Copy" stroke="#000000" stroke-width="3" fill="#FFFFFF" fill-rule="nonzero"></path>
                                    <path d="M67.521567,316.979006 C113.45859,316.979006 136.427102,316.979006 136.427102,316.979006 C143.404137,316.480213 145.253366,311.971004 145.253366,303.855399 C145.253366,298.275753 141.045565,293.921271 136.427102,291.872604 C132.153245,289.976797 125.373585,289.01673 121.033011,289.01673 C121.033011,289.01673 119.378256,273 102.480619,273 C91.2155279,273 85.0449405,279.290868 83.9688573,291.872604 C74.1611024,289.584261 66.6425179,290.272559 61.4131038,293.937497 C56.1836898,297.602434 54.3149384,302.778884 55.8068497,309.466844 C49.7544614,309.521663 47.2212331,312.025717 48.2071648,316.979006 C48.2071648,316.979006 54.6452989,316.979006 67.521567,316.979006 Z" id="Path-2-Copy-2" stroke="#000000" stroke-width="3" fill="#FFFFFF" fill-rule="nonzero"></path>
                                    <rect id="Rectangle" stroke="#000000" stroke-width="3" fill="#D8D8D8" fill-rule="nonzero" x="235.5" y="91.5" width="286" height="321"></rect>
                                    <g id="Group-11" stroke="none" stroke-width="1" fill="none" fill-rule="evenodd" transform="translate(270.000000, 119.000000)">
                                        <rect id="Rectangle" stroke="#000000" stroke-width="3" fill="#3970AF" fill-rule="nonzero" x="1.5" y="1.5" width="39" height="57"></rect>
                                        <rect id="Rectangle-Copy-6" stroke="#000000" stroke-width="3" fill="#3970AF" fill-rule="nonzero" x="1.5" y="86.5" width="39" height="57"></rect>
                                        <rect id="Rectangle-Copy-9" stroke="#000000" stroke-width="3" fill="#3970AF" fill-rule="nonzero" x="1.5" y="171.5" width="39" height="57"></rect>
                                        <rect id="Rectangle-Copy-2" stroke="#000000" stroke-width="3" fill="#3970AF" fill-rule="nonzero" x="67.5" y="1.5" width="39" height="57"></rect>
                                        <rect id="Rectangle-Copy-7" stroke="#000000" stroke-width="3" fill="#3970AF" fill-rule="nonzero" x="67.5" y="86.5" width="39" height="57"></rect>
                                        <rect id="Rectangle-Copy-10" stroke="#000000" stroke-width="3" fill="#3970AF" fill-rule="nonzero" x="67.5" y="171.5" width="39" height="57"></rect>
                                        <rect id="Rectangle-Copy-5" stroke="#000000" stroke-width="3" fill="#3970AF" fill-rule="nonzero" x="133.5" y="1.5" width="39" height="57"></rect>
                                        <rect id="Rectangle-Copy-8" stroke="#000000" stroke-width="3" fill="#3970AF" fill-rule="nonzero" x="133.5" y="86.5" width="39" height="57"></rect>
                                        <rect id="Rectangle-Copy-11" stroke="#000000" stroke-width="3" fill="#3970AF" fill-rule="nonzero" x="133.5" y="171.5" width="39" height="57"></rect>
                                    </g>
                                </g>
                            </g>
                        </g>
                    </g>
                </g>
                <g id="slug" transform="translate(275.500000, 286.000000) scale(-1, 1) rotate(-270.000000) translate(-275.500000, -286.000000) translate(235.500000, 251.500000)">
                    <g>
                        <path d="M48.8888889,66.6666667 L78.7878788,66.6666667 C78.7878788,60.7815593 75.0836815,55.7532669 69.8551934,53.7373737 L48.8888889,66.6666667 Z" id="Path" fill="#F1A4AB"></path>
                        <path d="M30.1977349,52.9661966 L29.6051423,52.9661966 C24.4119987,52.9661966 20.2020202,48.7568817 20.2020202,43.5631896 L20.2020202,42.3235354 C20.2020202,28.8177319 30.0752984,16.758498 43.5200489,15.4747671 C58.942761,14.0049351 71.9191919,26.0941657 71.9191919,41.2124379 L71.9191919,43.5631896 C71.9191919,56.4806928 61.4637282,67.059688 48.4334252,67.0707071 L48.4113866,67.0707071 C39.6492195,67.0707071 32.2852769,61.0762901 30.1977349,52.9661966 Z" id="Path" fill="#F1A4AB"></path>
                        <path d="M48.4848485,67.0707071 L20.3636364,67.0707071 C10.0104167,67.0707071 1.61616162,58.6501312 1.61616162,48.2644483 L1.61616162,25.2598393 C1.61616162,20.5754156 4.80664983,16.2344267 9.41540404,15.4820538 C15.2880261,14.5245999 20.3636364,19.0455706 20.3636364,24.7566249 L20.3636364,43.5628836 C20.3636364,46.1597634 21.4132997,48.5105458 23.1086279,50.2124144 C24.8051768,51.9130584 27.1486112,52.966013 29.7373737,52.966013 L30.3281145,52.966013 C32.4091329,61.0762121 39.7500632,67.0707071 48.4848485,67.0707071 Z" id="Path" fill="#F1A4AB"></path>
                        <path d="M20.2020202,4.84848485 C20.2020202,6.63383838 18.7550505,8.08080808 16.969697,8.08080808 C15.1843434,8.08080808 13.7373737,6.63383838 13.7373737,4.84848485 C13.7373737,3.06313131 15.1843434,1.61616162 16.969697,1.61616162 C18.7550505,1.61616162 20.2020202,3.06313131 20.2020202,4.84848485 Z" id="Path" fill="#F1A4AB"></path>
                        <path d="M8.08080808,4.84848485 C8.08080808,6.63383838 6.63383838,8.08080808 4.84848485,8.08080808 C3.06313131,8.08080808 1.61616162,6.63383838 1.61616162,4.84848485 C1.61616162,3.06313131 3.06313131,1.61616162 4.84848485,1.61616162 C6.63383838,1.61616162 8.08080808,3.06313131 8.08080808,4.84848485 Z" id="Path" fill="#F1A4AB"></path>
                        <path d="M20.3125,68.6868687 L78.4375,68.6868687 C79.3005372,68.6868687 80,67.9880482 80,67.1258035 C80,61.1602172 76.6314697,55.8763774 71.5460205,53.2542757 C72.8009033,50.2339805 73.4375,47.0313576 73.4375,43.7098255 L73.4375,41.3682277 C73.4375,25.3843836 59.7070313,12.6257245 43.4124756,14.1770331 C33.9196778,15.0819631 26.0266113,21.0713312 21.875,29.3150969 L21.875,24.9770432 C21.875,22.0750473 20.7232666,19.3187916 18.6926269,17.2778209 C18.7292481,17.1454961 18.75,17.0076834 18.75,16.8637727 L18.75,9.0980831 C20.5688477,8.45353396 21.875,6.71806843 21.875,4.68319559 C21.875,2.10073028 19.7723389,0 17.1875,0 C14.6026611,0 12.5,2.10073028 12.5,4.68319559 C12.5,6.71806843 13.8061523,8.45353396 15.625,9.0980831 L15.625,15.1081841 C13.6273194,14.1636178 11.3616944,13.8325011 9.11132813,14.1977661 C8.10302734,14.3617998 7.14294438,14.6782814 6.25,15.1203799 L6.25,9.0980831 C8.06884766,8.45353396 9.375,6.71806843 9.375,4.68319559 C9.375,2.10073028 7.27233891,0 4.6875,0 C2.10266109,0 0,2.10073028 0,4.68319559 C0,6.71806843 1.30615234,8.45353396 3.125,9.0980831 L3.125,16.8893839 C3.125,17.0607351 3.15368656,17.2253788 3.20495609,17.3796559 C1.22192375,19.4706295 0,22.35921 0,25.4782915 L0,48.3930211 C0,59.5832975 9.11193844,68.6868687 20.3125,68.6868687 Z M76.7797852,65.5647383 L60.5426025,65.5647383 C64.6087647,63.3127798 67.9144288,60.0150296 70.1715088,56.0568756 C73.8250733,57.955765 76.2774658,61.4888946 76.7797852,65.5647383 Z M43.7091064,17.2851382 C58.414917,15.8838384 70.3125,27.4777964 70.3125,41.3682277 L70.3125,43.7098255 C70.3125,55.6495351 60.7189941,65.5543719 48.4582519,65.5647383 L48.4375,65.5647383 C38.9727783,65.5647383 31.25,57.924056 31.25,48.3930211 L31.25,44.5062126 C31.25,37.5320319 36.5551758,31.5810808 43.0755616,31.2395978 C50.3314209,30.8603076 56.25,36.6228334 56.25,43.7098255 L56.25,46.0514233 C56.25,49.0644011 53.796997,51.5151515 50.78125,51.5151515 C47.765503,51.5151515 45.3125,49.0644011 45.3125,46.0514233 L45.3125,43.7098255 C45.3125,42.8475808 44.6130372,42.1487603 43.75,42.1487603 C42.8869628,42.1487603 42.1875,42.8475808 42.1875,43.7098255 L42.1875,46.0514233 C42.1875,50.7858414 46.0424805,54.6372819 50.78125,54.6372819 C55.5200195,54.6372819 59.375,50.7858414 59.375,46.0514233 L59.375,43.7098255 C59.375,34.8294378 51.9549561,27.6485379 42.9119873,28.1217358 C34.5416259,28.5595659 28.125,35.9862116 28.125,44.5062126 L28.125,48.3930211 C28.125,49.4028352 28.2012939,50.4077709 28.3489991,51.3992911 C24.6954345,50.772426 21.875,47.5948046 21.875,43.7098255 L21.875,42.4749986 C21.875,29.5175477 31.4660644,18.4522785 43.7091064,17.2851382 Z M17.1875,3.12213039 C18.0493164,3.12213039 18.75,3.82217057 18.75,4.68319559 C18.75,5.54422062 18.0493164,6.24426079 17.1875,6.24426079 C16.3256836,6.24426079 15.625,5.54422062 15.625,4.68319559 C15.625,3.82217057 16.3256836,3.12213039 17.1875,3.12213039 Z M4.6875,3.12213039 C5.54931641,3.12213039 6.25,3.82217057 6.25,4.68319559 C6.25,5.54422062 5.54931641,6.24426079 4.6875,6.24426079 C3.82568359,6.24426079 3.125,5.54422062 3.125,4.68319559 C3.125,3.82217057 3.82568359,3.12213039 4.6875,3.12213039 Z M3.125,25.4782915 C3.125,21.4054968 5.91430656,17.8809043 9.61303719,17.2796502 C14.6081544,16.4680183 18.75,20.3194587 18.75,24.9770432 L18.75,43.7098255 C18.75,49.5650395 23.3410644,54.3183611 29.0997314,54.6208175 C30.5895997,59.2527907 33.6535644,63.07862 37.6037597,65.5647383 L20.3125,65.5647383 C10.8355713,65.5647383 3.125,57.8612475 3.125,48.3930211 L3.125,25.4782915 Z" id="Shape" fill="#000000" fill-rule="nonzero"></path>
                    </g>
                </g>
                <g id="pin" transform="translate(246.000000, 0.000000)" fill="#FAD843" fill-rule="nonzero" stroke="#000000" stroke-width="3">
                    <path d="M26.0650144,72.0821217 C10.9685676,67.436333 0,53.4237984 0,36.8591685 C0,16.5024118 16.5654642,0 37,0 C57.4345358,0 74,16.5024118 74,36.8591685 C74,53.7743595 62.5622592,68.028291 46.9710353,72.3644311 L39.3707563,92.0694784 C39.0632811,92.8666622 38.4302424,93.4961324 37.6294484,93.8009702 C36.0712138,94.3941425 34.3253167,93.6166131 33.7298779,92.0643095 L26.0650334,72.0821275 L26.0650144,72.0821217 Z M37,54.1604108 C46.5917208,54.1604108 54.3673469,46.4143807 54.3673469,36.8591685 C54.3673469,27.3039562 46.5917208,19.5579261 37,19.5579261 C27.4082792,19.5579261 19.6326531,27.3039562 19.6326531,36.8591685 C19.6326531,46.4143807 27.4082792,54.1604108 37,54.1604108 Z" id="Combined-Shape"></path>
                </g>
            </g>
        </g>
    </g>
</svg>