<?xml version="1.0" encoding="UTF-8"?>
<svg width="312px" height="64px" viewBox="0 0 312 64" version="1.1" xmlns="http://www.w3.org/2000/svg" xmlns:xlink="http://www.w3.org/1999/xlink">
    <!-- Generator: Sketch 52.6 (67491) - http://www.bohemiancoding.com/sketch -->
    <title>Group 5</title>
    <desc>Created with Sketch.</desc>
    <g id="Page-1" stroke="none" stroke-width="1" fill="none" fill-rule="evenodd">
        <g id="Hero" transform="translate(-529.000000, -2466.000000)">
            <g id="Group-5" transform="translate(529.000000, 2466.000000)">
                <path d="M1.5,1.5 L1.5,44 C1.5,54.2172679 9.78273213,62.5 20,62.5 L292,62.5 C302.217268,62.5 310.5,54.2172679 310.5,44 L310.5,1.5 L1.5,1.5 Z" id="Rectangle" stroke="#000000" stroke-width="3" fill="#F1A4AB" fill-rule="nonzero"></path>
                <g id="Group-4-Copy" transform="translate(22.000000, 22.000000)" fill="#FFFFFF">
                    <path d="M18.56,12.18 C18.1399979,15.1600149 16.9700096,17.4249922 15.05,18.975 C13.1299904,20.5250077 10.670015,21.3 7.67,21.3 C6.2099927,21.3 4.90500575,20.995003 3.755,20.385 C2.60499425,19.7749969 1.70500325,18.9000057 1.055,17.76 C0.40499675,16.6199943 0.08,15.2900076 0.08,13.77 C0.08,13.4299983 0.0999998,13.0800018 0.14,12.72 C0.1800002,12.3599982 0.2499995,11.8500033 0.35,11.19 L0.62,9.27 C1.0400021,6.3099852 2.2099904,4.0500078 4.13,2.49 C6.0500096,0.9299922 8.4999851,0.15 11.48,0.15 C12.9400073,0.15 14.2449942,0.45499695 15.395,1.065 C16.5450057,1.67500305 17.4449967,2.55499425 18.095,3.705 C18.7450032,4.85500575 19.07,6.1899924 19.07,7.71 C19.07,8.110002 19.0350003,8.61499695 18.965,9.225 C18.8949996,9.83500305 18.760001,10.8199932 18.56,12.18 Z M13.82,11.49 C13.9600007,10.6499958 14.0699996,9.90500325 14.15,9.255 C14.2300004,8.60499675 14.27,8.0300025 14.27,7.53 C14.27,6.3899943 13.9250034,5.48500335 13.235,4.815 C12.5449965,4.14499665 11.6400056,3.81 10.52,3.81 C9.0399926,3.81 7.8800042,4.2799953 7.04,5.22 C6.1999958,6.1600047 5.6700011,7.5199911 5.45,9.3 C5.45,9.3400002 5.3800007,9.7999956 5.24,10.68 C5.1399995,11.3800035 5.0600003,11.9999973 5,12.54 C4.9399997,13.0800027 4.91,13.5399981 4.91,13.92 C4.91,15.0600057 5.2499966,15.9599967 5.93,16.62 C6.6100034,17.2800033 7.5199943,17.61 8.66,17.61 C10.0000067,17.61 11.1049956,17.2000041 11.975,16.38 C12.8450043,15.5599959 13.3899989,14.3800077 13.61,12.84 L13.82,11.49 Z M28.7524414,11.52 C28.4924401,11.0199975 28.2374426,10.5000027 27.9874414,9.96 C27.7374401,9.4199973 27.5624419,9.050001 27.4624414,8.85 L27.3424414,8.94 L25.6324414,21 L21.4024414,21 L24.3124414,0.42 L28.2424414,0.42 L33.3724414,9.96 C33.6524428,10.4600025 33.8824405,10.9299978 34.0624414,11.37 C34.1424418,11.5300008 34.2324409,11.7149989 34.3324414,11.925 C34.4324419,12.135001 34.5424408,12.3599988 34.6624414,12.6 L34.7524414,12.51 L36.4624414,0.42 L40.6924414,0.42 L37.7824414,21 L33.8524414,21 L28.7524414,11.52 Z M42.6048828,21 L45.5148828,0.42 L50.1648828,0.42 L47.7948828,17.16 L56.2248828,17.16 L56.2248828,21 L42.6048828,21 Z M69.8973241,13.11 L68.7873241,21 L64.1673241,21 L65.2773241,13.11 L60.0273241,0.42 L65.2473241,0.42 L68.3673241,8.58 L68.5173241,8.58 L73.9773241,0.42 L78.7173241,0.42 L69.8973241,13.11 Z M100.182207,21 C100.022206,20.3799969 99.8922074,19.6100046 99.7922069,18.69 C98.9922029,19.5300042 98.0922119,20.1749977 97.0922069,20.625 C96.0922019,21.0750022 94.9322135,21.3 93.6122069,21.3 L93.4622069,21.3 C92.0021996,21.3 90.7172124,21.000003 89.6072069,20.4 C88.4972013,19.799997 87.6372099,18.9400056 87.0272069,17.82 C86.4172038,16.6999944 86.1122069,15.3800076 86.1122069,13.86 C86.1122069,13.3399974 86.2922051,11.8000128 86.6522069,9.24 C87.0522089,6.3999858 88.1521979,4.1700081 89.9522069,2.55 C91.7522159,0.9299919 94.0821926,0.12 96.9422069,0.12 L97.3622069,0.12 C98.7022136,0.12 99.9172014,0.37499745 101.007207,0.885 C102.097212,1.39500255 102.952204,2.1299952 103.572207,3.09 C104.19221,4.0500048 104.502207,5.1799935 104.502207,6.48 C104.502207,6.6600009 104.472207,7.0799967 104.412207,7.74 L100.032207,7.74 C100.052207,7.5599991 100.062207,7.3000017 100.062207,6.96 C100.062207,5.8799946 99.7372101,5.08500255 99.0872069,4.575 C98.4372036,4.06499745 97.5822122,3.81 96.5222069,3.81 C95.5622021,3.81 94.7272104,4.0399977 94.0172069,4.5 C93.3072033,4.9600023 92.7722087,5.5999959 92.4122069,6.42 C91.9722047,7.3800048 91.6122083,8.6799918 91.3322069,10.32 C91.0522055,11.9600082 90.9122069,13.1199966 90.9122069,13.8 C90.9122069,15.000006 91.2372036,15.9349966 91.8872069,16.605 C92.5372101,17.2750033 93.4322012,17.61 94.5722069,17.61 C95.8122131,17.61 96.8472027,17.2450036 97.6772069,16.515 C98.507211,15.7849963 99.0422057,14.6700075 99.2822069,13.17 L94.6322069,13.17 L95.1122069,9.81 L104.112207,9.81 L103.122207,16.92 C103.102207,17.0600007 103.032207,17.5649956 102.912207,18.435 C102.792206,19.3050043 102.732207,20.1599958 102.732207,21 L100.182207,21 Z M126.034648,12.18 C125.614646,15.1600149 124.444658,17.4249922 122.524648,18.975 C120.604639,20.5250077 118.144663,21.3 115.144648,21.3 C113.684641,21.3 112.379654,20.995003 111.229648,20.385 C110.079643,19.7749969 109.179652,18.9000057 108.529648,17.76 C107.879645,16.6199943 107.554648,15.2900076 107.554648,13.77 C107.554648,13.4299983 107.574648,13.0800018 107.614648,12.72 C107.654648,12.3599982 107.724648,11.8500033 107.824648,11.19 L108.094648,9.27 C108.51465,6.3099852 109.684639,4.0500078 111.604648,2.49 C113.524658,0.9299922 115.974633,0.15 118.954648,0.15 C120.414656,0.15 121.719643,0.45499695 122.869648,1.065 C124.019654,1.67500305 124.919645,2.55499425 125.569648,3.705 C126.219652,4.85500575 126.544648,6.1899924 126.544648,7.71 C126.544648,8.110002 126.509649,8.61499695 126.439648,9.225 C126.369648,9.83500305 126.234649,10.8199932 126.034648,12.18 Z M121.294648,11.49 C121.434649,10.6499958 121.544648,9.90500325 121.624648,9.255 C121.704649,8.60499675 121.744648,8.0300025 121.744648,7.53 C121.744648,6.3899943 121.399652,5.48500335 120.709648,4.815 C120.019645,4.14499665 119.114654,3.81 117.994648,3.81 C116.514641,3.81 115.354652,4.2799953 114.514648,5.22 C113.674644,6.1600047 113.144649,7.5199911 112.924648,9.3 C112.924648,9.3400002 112.854649,9.7999956 112.714648,10.68 C112.614648,11.3800035 112.534649,11.9999973 112.474648,12.54 C112.414648,13.0800027 112.384648,13.5399981 112.384648,13.92 C112.384648,15.0600057 112.724645,15.9599967 113.404648,16.62 C114.084652,17.2800033 114.994643,17.61 116.134648,17.61 C117.474655,17.61 118.579644,17.2000041 119.449648,16.38 C120.319653,15.5599959 120.864647,14.3800077 121.084648,12.84 L121.294648,11.49 Z M147.74709,12.18 C147.327088,15.1600149 146.157099,17.4249922 144.23709,18.975 C142.31708,20.5250077 139.857105,21.3 136.85709,21.3 C135.397082,21.3 134.092095,20.995003 132.94209,20.385 C131.792084,19.7749969 130.892093,18.9000057 130.24209,17.76 C129.592086,16.6199943 129.26709,15.2900076 129.26709,13.77 C129.26709,13.4299983 129.287089,13.0800018 129.32709,12.72 C129.36709,12.3599982 129.437089,11.8500033 129.53709,11.19 L129.80709,9.27 C130.227092,6.3099852 131.39708,4.0500078 133.31709,2.49 C135.237099,0.9299922 137.687075,0.15 140.66709,0.15 C142.127097,0.15 143.432084,0.45499695 144.58209,1.065 C145.732095,1.67500305 146.632086,2.55499425 147.28209,3.705 C147.932093,4.85500575 148.25709,6.1899924 148.25709,7.71 C148.25709,8.110002 148.22209,8.61499695 148.15209,9.225 C148.082089,9.83500305 147.947091,10.8199932 147.74709,12.18 Z M143.00709,11.49 C143.14709,10.6499958 143.257089,9.90500325 143.33709,9.255 C143.41709,8.60499675 143.45709,8.0300025 143.45709,7.53 C143.45709,6.3899943 143.112093,5.48500335 142.42209,4.815 C141.732086,4.14499665 140.827095,3.81 139.70709,3.81 C138.227082,3.81 137.067094,4.2799953 136.22709,5.22 C135.387085,6.1600047 134.857091,7.5199911 134.63709,9.3 C134.63709,9.3400002 134.56709,9.7999956 134.42709,10.68 C134.327089,11.3800035 134.24709,11.9999973 134.18709,12.54 C134.127089,13.0800027 134.09709,13.5399981 134.09709,13.92 C134.09709,15.0600057 134.437086,15.9599967 135.11709,16.62 C135.797093,17.2800033 136.707084,17.61 137.84709,17.61 C139.187096,17.61 140.292085,17.2000041 141.16209,16.38 C142.032094,15.5599959 142.577089,14.3800077 142.79709,12.84 L143.00709,11.49 Z M161.749531,0.42 C163.209538,0.42 164.514525,0.71499705 165.664531,1.305 C166.814537,1.89500295 167.714528,2.7399945 168.364531,3.84 C169.014534,4.9400055 169.339531,6.2299926 169.339531,7.71 C169.339531,8.110002 169.299531,8.61499695 169.219531,9.225 C169.139531,9.83500305 168.999532,10.8199932 168.799531,12.18 C168.379529,15.1000146 167.25454,17.2999926 165.424531,18.78 C163.594522,20.2600074 161.099547,21 157.939531,21 L150.589531,21 L153.499531,0.42 L161.749531,0.42 Z M158.929531,17.31 C160.249538,17.31 161.349527,16.9250038 162.229531,16.155 C163.109535,15.3849961 163.65953,14.2800072 163.879531,12.84 L164.089531,11.49 C164.229532,10.6499958 164.339531,9.90500325 164.419531,9.255 C164.499531,8.60499675 164.539531,8.0300025 164.539531,7.53 C164.539531,6.4699947 164.194534,5.63500305 163.504531,5.025 C162.814528,4.41499695 161.909537,4.11 160.789531,4.11 L157.609531,4.11 L155.779531,17.31 L158.929531,17.31 Z M187.294414,15.12 L194.074414,0.42 L198.514414,0.42 L188.824414,21 L183.514414,21 L179.674414,0.42 L184.534414,0.42 L187.144414,15.12 L187.294414,15.12 Z M201.386855,0.42 L210.866855,0.42 L210.326855,4.11 L207.926855,4.11 L206.096855,17.31 L208.496855,17.31 L207.956855,21 L198.476855,21 L199.016855,17.31 L201.446855,17.31 L203.276855,4.11 L200.846855,4.11 L201.386855,0.42 Z M225.709297,0.42 C227.109304,0.42 228.274292,0.8299959 229.204297,1.65 C230.134301,2.4700041 230.599297,3.5199936 230.599297,4.8 C230.599297,6.3600078 230.179301,7.5799956 229.339297,8.46 C228.499292,9.3400044 227.509302,9.9299985 226.369297,10.23 L226.339297,10.44 C227.279301,10.640001 228.074293,11.0599968 228.724297,11.7 C229.3743,12.3400032 229.699297,13.2799938 229.699297,14.52 C229.699297,15.720006 229.414299,16.814995 228.844297,17.805 C228.274294,18.7950049 227.494301,19.5749971 226.504297,20.145 C225.514292,20.7150028 224.399303,21 223.159297,21 L212.779297,21 L215.689297,0.42 L225.709297,0.42 Z M223.399297,8.76 C224.1193,8.76 224.739294,8.4700029 225.259297,7.89 C225.779299,7.3099971 226.039297,6.6500037 226.039297,5.91 C226.039297,5.2699968 225.859298,4.78500165 225.499297,4.455 C225.139295,4.12499835 224.6593,3.96 224.059297,3.96 L219.529297,3.96 L218.869297,8.76 L223.399297,8.76 Z M222.529297,17.28 C223.3093,17.28 223.959294,17.0250025 224.479297,16.515 C224.999299,16.0049974 225.259297,15.2900046 225.259297,14.37 C225.259297,13.8099972 225.064298,13.3200021 224.674297,12.9 C224.284295,12.4799979 223.799299,12.27 223.219297,12.27 L218.359297,12.27 C218.199296,13.5300063 217.969298,15.1999896 217.669297,17.28 L222.529297,17.28 Z M232.601738,21 L235.511738,0.42 L250.001738,0.42 L248.951738,4.11 L239.531738,4.11 L238.901738,8.61 L247.691738,8.61 L247.181738,12.3 L238.391738,12.3 L237.701738,17.31 L247.181738,17.31 L247.181738,21 L232.601738,21 Z M267.664179,13.92 C267.664179,16.2000114 266.874187,17.9999934 265.294179,19.32 C263.714171,20.6400066 261.344195,21.3 258.184179,21.3 C255.984168,21.3 254.184186,20.8600044 252.784179,19.98 C251.384172,19.0999956 250.684179,17.760009 250.684179,15.96 C250.684179,15.359997 250.754179,14.8000026 250.894179,14.28 L255.274179,14.28 C255.174179,14.4200007 255.124179,14.7299976 255.124179,15.21 C255.124179,15.9500037 255.414176,16.5249979 255.994179,16.935 C256.574182,17.345002 257.424174,17.55 258.544179,17.55 C259.984186,17.55 261.059176,17.3300022 261.769179,16.89 C262.479183,16.4499978 262.834179,15.8200041 262.834179,15 C262.834179,14.3399967 262.509183,13.8450016 261.859179,13.515 C261.209176,13.1849983 260.214186,12.8600016 258.874179,12.54 C257.514172,12.1999983 256.399184,11.8500018 255.529179,11.49 C254.659175,11.1299982 253.914182,10.5800037 253.294179,9.84 C252.674176,9.0999963 252.364179,8.1100062 252.364179,6.87 C252.364179,4.6899891 253.194171,3.0200058 254.854179,1.86 C256.514188,0.6999942 258.684166,0.12 261.364179,0.12 C263.44419,0.12 265.134173,0.54499575 266.434179,1.395 C267.734186,2.24500425 268.384179,3.5199915 268.384179,5.22 C268.384179,5.6600022 268.34418,6.0899979 268.264179,6.51 L263.914179,6.51 C263.97418,6.2099985 264.004179,5.9800008 264.004179,5.82 C264.004179,5.1799968 263.729182,4.67500185 263.179179,4.305 C262.629177,3.93499815 261.884184,3.75 260.944179,3.75 C259.784173,3.75 258.859183,3.94499805 258.169179,4.335 C257.479176,4.72500195 257.134179,5.2799964 257.134179,6 C257.134179,6.6600033 257.464176,7.15499835 258.124179,7.485 C258.784183,7.81500165 259.794172,8.1399984 261.154179,8.46 C262.534186,8.8000017 263.654175,9.1399983 264.514179,9.48 C265.374184,9.8200017 266.114176,10.3499964 266.734179,11.07 C267.354182,11.7900036 267.664179,12.7399941 267.664179,13.92 Z" id="ONLY-GOOD-VIBES"></path>
                </g>
            </g>
        </g>
    </g>
</svg>