<?xml version="1.0" encoding="UTF-8"?>
<svg width="53px" height="66px" viewBox="0 0 53 66" version="1.1" xmlns="http://www.w3.org/2000/svg" xmlns:xlink="http://www.w3.org/1999/xlink">
    <!-- Generator: Sketch 52.6 (67491) - http://www.bohemiancoding.com/sketch -->
    <title>Group</title>
    <desc>Created with Sketch.</desc>
    <g id="Page-1" stroke="none" stroke-width="1" fill="none" fill-rule="evenodd">
        <g id="Artboard" transform="translate(-270.000000, -796.000000)" fill="#FAD843" fill-rule="nonzero" stroke="#000000" stroke-width="3">
            <g id="Group" transform="translate(272.000000, 798.000000)">
                <path d="M17.2592663,47.9124206 C7.26297044,44.8244013 0,35.5103795 0,24.5 C0,10.9690236 10.9690236,-1.70530257e-13 24.5,-1.70530257e-13 C38.0309764,-1.70530257e-13 49,10.9690236 49,24.5 C49,35.7433947 41.4263608,45.2178711 31.1024423,48.1000694 L26.0698251,61.1978597 C25.8662267,61.7277415 25.4470524,62.1461454 24.9167969,62.3487687 C23.8849929,62.7430457 22.7289259,62.226228 22.3346489,61.194424 L17.2592789,47.9124244 L17.2592663,47.9124206 Z M24.5,36 C30.8512746,36 36,30.8512746 36,24.5 C36,18.1487254 30.8512746,13 24.5,13 C18.1487254,13 13,18.1487254 13,24.5 C13,30.8512746 18.1487254,36 24.5,36 Z" id="Combined-Shape"></path>
            </g>
        </g>
    </g>
</svg>