<?xml version="1.0" encoding="UTF-8"?>
<svg width="65px" height="80px" viewBox="0 0 65 80" version="1.1" xmlns="http://www.w3.org/2000/svg" xmlns:xlink="http://www.w3.org/1999/xlink">
    <!-- Generator: Sketch 52.6 (67491) - http://www.bohemiancoding.com/sketch -->
    <title>pizza-slice</title>
    <desc>Created with Sketch.</desc>
    <g id="Page-1" stroke="none" stroke-width="1" fill="none" fill-rule="evenodd">
        <g id="Desktop-HD" transform="translate(-601.000000, -655.000000)">
            <g id="pizza-slice" transform="translate(601.000000, 655.000000)">
                <path d="M13.4430063,61.3734647 L13.4430063,69.7321015 C13.4430063,71.3826492 14.7924773,72.7209804 16.4567637,72.7209804 C18.12105,72.7209804 19.4705212,71.3826492 19.4705212,69.7321015 L19.4705212,48.9073254 L26.7253861,53.8102799 L26.7253861,63.8754565 C26.7253861,65.5260043 28.0748572,66.8637269 29.7391436,66.8637269 C31.4034299,66.8637269 32.7522873,65.5260043 32.7522873,63.8754565 L32.7522873,57.8837003 L48.1328216,68.2775258 L48.1328216,75.9630409 C48.1328216,77.6141972 49.4822926,78.95192 51.1465789,78.95192 C52.8108653,78.95192 54.1597228,77.6135887 54.1597228,75.9630409 L54.1597228,72.3509461 L64,79 L64,13 C41.145519,13 20.9826162,24.4260263 9,41.8316366 L13.4430063,44.8339051 L13.4430063,48.9079341" id="Path" fill="#FAD843"></path>
                <path d="M64,11.5283319 L64,4.08842345 C64,2.33227084 62.5218584,0.928310419 60.7500301,1.00283572 C49.4018342,1.47943712 38.2872528,4.4484286 28.2205986,9.7090732 C18.1557646,14.9685156 9.41373393,22.3759695 2.62071432,31.377904 C1.55761737,32.7860715 1.89559979,34.7886383 3.36281913,35.7785026 L9.61761554,40 C21.4651999,22.811702 41.4019084,11.5283319 64,11.5283319 Z" id="Path" fill="#F1A4AB"></path>
                <g id="Group" transform="translate(22.000000, 14.000000)" fill="#F1A4AB">
                    <path d="M13.0381477,22.4359131 C11.5622096,18.9190673 7.58509526,17.2949219 4.1545364,18.8079834 C0.723977695,20.321045 -0.860318851,24.3981934 0.615619115,27.9150391 C2.0909619,31.4318847 6.06867155,33.0560303 9.49923041,31.5429688 C12.9297891,30.0305175 14.5140857,25.9527588 13.0381477,22.4359131 Z" id="Path"></path>
                    <path d="M35.6160112,25.6384278 C34.1406686,22.121582 30.162959,20.4974366 26.7324001,22.0104981 C23.3018412,23.5235595 21.7175447,27.600708 23.1934828,31.1175537 C24.6694209,34.6343994 28.6465352,36.2591553 32.0770939,34.7460938 C35.5076528,33.2330322 37.0919493,29.1552734 35.6160112,25.6384278 Z" id="Path"></path>
                    <path d="M27.0658109,45.5480956 C25.5898728,42.0318603 21.6127584,40.4071045 18.1821997,41.9201659 C16.1400586,42.821045 14.7528317,44.6301269 14.2747444,46.6882325 L24.7140742,53.9807128 C27.3027706,52.140503 28.3589684,48.6291503 27.0658109,45.5480956 Z" id="Path"></path>
                    <path d="M19.7087448,2.79541016 C19.071692,4.44152828 19.0454954,6.33667 19.7825715,8.09143063 C21.2585094,11.6082764 25.2356238,13.2330322 28.6661826,11.7199706 C32.0967415,10.2069092 33.681038,6.12915031 32.2050999,2.61230469 C31.768689,1.57287594 31.1131795,0.700683594 30.3183522,0.02380375 C26.6692901,0.643310625 23.1238238,1.57653812 19.7087448,2.79541016 Z" id="Path"></path>
                </g>
                <path d="M60.138654,0.00429824719 C48.6392231,0.496244006 37.1815907,3.61515608 27.0051731,9.02533923 C16.8305726,14.4343016 7.8136085,22.1980121 0.929579158,31.4772331 C0.1608503,32.5130048 -0.146277616,33.7868148 0.0651378939,35.0630664 C0.27715914,36.3399282 0.978041175,37.4446699 2.03935934,38.1734334 L8.28369006,42.4605641 L11.9916402,45.006353 L11.9916402,48.266257 C11.9916402,49.1292983 12.6858586,49.8287648 13.5424248,49.8287648 C14.3989908,49.8287648 15.0932093,49.1292983 15.0932093,48.266257 L15.0932093,44.1805432 C15.0932093,43.6635729 14.8393895,43.180172 14.4159526,42.8890329 L11.3301337,40.7704922 C12.6979741,38.8521477 14.1700079,37.0137596 15.7347253,35.2547176 C17.3430584,33.4462371 19.0561907,31.7238163 20.8644296,30.1167527 C22.6048219,28.5701141 24.4173014,27.1089252 26.3097431,25.7545483 C28.2760894,24.347681 30.3211865,23.0610535 32.4280727,21.8787967 C34.5385936,20.693488 36.7278651,19.6400159 38.9619641,18.7122769 C39.2418323,18.5963096 39.522912,18.481563 39.8045974,18.3686474 C39.7894531,19.5454111 40.0172246,20.7215644 40.4921523,21.8342407 C41.3820361,23.9186017 43.0242927,25.5293275 45.1166402,26.368565 C46.1264675,26.7744509 47.1829395,26.9764783 48.2382,26.9764783 C49.3691822,26.9764783 50.4989529,26.7439331 51.568752,26.2806739 C53.6374744,25.3834528 55.2355093,23.7287814 56.069056,21.621227 C56.9026027,19.5130622 56.8711024,17.2047011 55.9812187,15.1203402 C55.8624867,14.8414081 55.7273988,14.5704107 55.5801956,14.3061272 C57.6767835,14.0448954 59.7860927,13.889255 61.8978252,13.8379852 L61.8978252,53.1204071 C61.8978252,53.1204071 61.8978252,69.1495396 61.8978252,69.1806676 L61.8978252,75.4886824 L54.6091379,70.484385 C54.1336042,70.1584557 53.5187425,70.1230551 53.010497,70.3940525 C52.5028575,70.6650499 52.1848254,71.1966688 52.1848254,71.7758953 L52.1848254,75.3983499 C52.1848254,76.1899798 51.5457325,76.8332936 50.7606478,76.8332936 C49.9755632,76.8332936 49.3364704,76.1893694 49.3364704,75.3983499 L49.3364704,67.690792 C49.3364704,67.4991408 49.3013354,67.3123722 49.2365175,67.1384212 C51.4203371,64.7195858 52.0776032,61.1599978 50.752167,58.0563447 C48.9154566,53.7539552 43.9462825,51.7593162 39.6755674,53.6105219 C37.9097326,54.3759064 36.4698049,55.7357765 35.5756807,57.4166931 L33.4766697,55.975646 C33.0017419,55.6497165 32.38688,55.6149264 31.8786346,55.8853133 C31.3703891,56.1563109 31.0523572,56.6879297 31.0523572,57.2665458 L31.0523572,63.2760973 C31.0523572,64.0671168 30.4138702,64.7104305 29.6287855,64.7104305 C28.8437009,64.7104305 28.204608,64.0665065 28.204608,63.2760973 L28.204608,53.1820529 C28.204608,52.6650826 27.9507881,52.1816818 27.5273512,51.8905425 L20.3652709,46.9741362 C19.890949,46.6482069 19.2754814,46.6128063 18.7672359,46.8838039 C18.2589905,47.1541908 17.9415643,47.6864201 17.9415643,48.2650362 L17.9415643,69.1495396 C17.9415643,69.9411695 17.3024714,70.5844831 16.5173867,70.5844831 C15.732302,70.5844831 15.0938151,69.9405591 15.0938151,69.1495396 L15.0938151,47.9893877 C15.0938151,47.1263462 14.3989908,46.4268799 13.5424248,46.4268799 C12.6858586,46.4268799 11.9916402,47.1263462 11.9916402,47.9893877 L11.9916402,69.1495396 C11.9916402,71.6642005 14.0221987,73.7094987 16.5173867,73.7094987 C19.0125749,73.7094987 21.0431334,71.6642005 21.0431334,69.1495396 L21.0431334,51.2209836 L25.1030389,54.0078627 L25.1030389,63.2760973 C25.1030389,65.7901479 27.1329917,67.835446 29.6287855,67.835446 C32.1239735,67.835446 34.154532,65.7901479 34.154532,63.2760973 L34.154532,60.2224932 L35.4387755,61.1044555 C35.4393814,61.1044555 35.4393814,61.1050658 35.4399871,61.1050658 L46.0616496,68.3975827 L46.2349013,68.5166018 L46.2349013,75.3983499 C46.2349013,77.9124005 48.264854,79.9583091 50.7606478,79.9583091 C53.255836,79.9583091 55.2863945,77.9124005 55.2863945,75.3983499 L55.2863945,74.730622 L62.5756875,79.7355297 C63.5873322,80.4301132 65,79.6720528 65,78.4440192 L65,4.69975616 C64.9993943,3.40641473 64.4893315,2.20157483 63.5624955,1.30679491 C62.6362652,0.412015149 61.4204743,-0.0500232417 60.138654,0.00429824719 Z M38.1556772,59.1879421 C38.6972404,57.9788297 39.660423,57.0187419 40.9010507,56.4810194 C43.6009907,55.3109697 46.7413294,56.571352 47.9032062,59.2910921 C48.7621955,61.3040415 48.3042295,63.6203373 46.8376477,65.1486652 L41.0997449,61.2094365 L38.1556772,59.1879421 Z M3.12490852,34.5491477 C3.05403271,34.1212892 3.15701457,33.6952617 3.41386326,33.3479699 C10.0240824,24.4380135 18.6824274,16.9831424 28.45237,11.7890248 C38.2253414,6.59368651 49.2268251,3.59867646 60.2695014,3.1268724 C60.2925208,3.12565161 60.3155403,3.1250413 60.337954,3.1250413 C60.7414003,3.1250413 61.1224329,3.27885065 61.4162339,3.5626655 C61.7263908,3.86295996 61.8972193,4.26640447 61.8972193,4.69914584 L61.8972193,10.7099179 C59.4177814,10.7666809 56.9407666,10.9644357 54.4831366,11.2964686 C53.7822547,11.391684 53.0801612,11.4911718 52.3829139,11.6071391 C48.6331653,12.2327525 44.9149171,13.1873473 41.3317567,14.4446776 C38.7965875,15.3339643 36.3165439,16.4039159 33.9013181,17.5825107 C31.4503515,18.7775849 29.0714723,20.1441689 26.7919402,21.6444206 C24.5499662,23.1202579 22.3964353,24.723049 20.338011,26.4485215 C18.2614136,28.1898631 16.3023366,30.069145 14.4462414,32.0460835 C12.6240696,33.9876215 10.927899,36.0524511 9.35046032,38.1990682 C9.15297753,38.4676242 8.95731209,38.737401 8.76406992,39.0083985 L3.78580916,35.5904127 C3.43082496,35.3468812 3.19578418,34.9770062 3.12490852,34.5491477 Z M53.1873834,20.4639947 C52.6603589,21.7963988 51.6505317,22.8425465 50.342663,23.4095659 C49.0347943,23.975975 47.5869916,23.9961168 46.2645843,23.4651082 C44.942177,22.9347101 43.9038783,21.9166386 43.341113,20.598883 C42.8728488,19.5014655 42.7813769,18.3051705 43.0685143,17.1662488 C45.3952968,16.380112 47.7699356,15.719098 50.1730459,15.2161658 C50.8297063,15.078836 51.4869723,14.9476098 52.1466615,14.8285907 C52.5585886,15.2741495 52.8887363,15.7850164 53.1316521,16.3550875 C53.6944172,17.6728432 53.713802,19.1315906 53.1873834,20.4639947 Z" id="Shape" fill="#000000" fill-rule="nonzero"></path>
                <path d="M25.3575947,46.3926394 C26.3754253,46.7979534 27.4402702,47 28.5038938,47 C29.6438396,47 30.7825641,46.7680432 31.8608418,46.3041297 C36.1647933,44.4527483 38.1601563,39.4455338 36.3082787,35.1427354 C35.4113424,33.0581765 33.7560703,31.4472977 31.64714,30.6079803 C29.5388205,29.7680526 27.2290107,29.7991837 25.1438931,30.6964903 C23.0587754,31.5931863 21.4480753,33.2480147 20.6079225,35.3563799 C19.7677697,37.4641345 19.7995196,39.7733253 20.696456,41.8578844 C21.5933926,43.9424432 23.2486646,45.5527117 25.3575947,46.3926394 Z M23.5124336,36.5131118 C24.0430242,35.180581 25.0614653,34.134334 26.3796993,33.5672605 C27.0611022,33.2742625 27.7809716,33.1271531 28.5014515,33.1271531 C29.173696,33.1271531 29.8465509,33.2553398 30.4900981,33.511713 C31.822986,34.0421616 32.8695136,35.0603298 33.4367389,36.3776001 C34.6072134,39.0975986 33.3457631,42.2625878 30.6250356,43.4327488 C29.3074121,43.9998221 27.8475244,44.0193553 26.5146366,43.4889068 C25.1817488,42.9578478 24.1352211,41.9396796 23.5686064,40.6224093 C23.0013812,39.3045285 22.9812322,37.8450319 23.5124336,36.5131118 Z" id="Shape" fill="#000000" fill-rule="nonzero"></path>
                <path d="M49.3558714,49.3920431 C50.3734194,49.7979582 51.4379688,50 52.5012974,50 C53.6409267,50 54.7793354,49.7674382 55.8573136,49.3035352 C57.9418527,48.4068597 59.5521058,46.7520691 60.3920255,44.6443628 C61.2319452,42.5360461 61.2008144,40.2275185 60.3035164,38.1423969 C59.4068289,36.058496 57.7520162,34.4476542 55.6442817,33.6077457 C53.5359369,32.7678372 51.2267681,32.7995779 49.1428394,33.6962534 C47.0583003,34.592929 45.447437,36.2477196 44.6075173,38.3560364 C43.768208,40.4643531 43.7993388,42.7728806 44.6960262,44.8573918 C45.5927137,46.9419031 47.2475264,48.552745 49.3558714,49.3920431 Z M47.5112222,39.5127417 C48.0416656,38.1802416 49.0598241,37.1346287 50.3776923,36.5675685 C51.0589062,36.2745771 51.7785758,36.1274711 52.4988558,36.1274711 C53.1709136,36.1274711 53.8435819,36.2550444 54.4869505,36.5114118 C55.8194685,37.0424587 56.8657056,38.0606034 57.4327736,39.3778436 C57.999231,40.6956942 58.0193744,42.1551573 57.4883205,43.4876574 C56.9572667,44.8195472 55.9397186,45.8657703 54.6218504,46.4328307 C53.3045927,46.9992806 51.8451101,47.0194237 50.5125921,46.4883769 C49.1800743,45.9579405 48.1338371,44.9397957 47.5667692,43.6225554 C47.0003118,42.304705 46.9807787,40.8452419 47.5112222,39.5127417 Z" id="Shape" fill="#000000" fill-rule="nonzero"></path>
            </g>
        </g>
    </g>
</svg>