<?xml version="1.0" encoding="UTF-8"?>
<svg width="76px" height="76px" viewBox="0 0 76 76" version="1.1" xmlns="http://www.w3.org/2000/svg" xmlns:xlink="http://www.w3.org/1999/xlink">
    <!-- Generator: Sketch 52.6 (67491) - http://www.bohemiancoding.com/sketch -->
    <title>no-stopping</title>
    <desc>Created with Sketch.</desc>
    <g id="Page-1" stroke="none" stroke-width="1" fill="none" fill-rule="evenodd">
        <g id="Desktop-HD" transform="translate(-526.000000, -896.000000)" fill-rule="nonzero">
            <g id="no-stopping" transform="translate(528.000000, 898.000000)">
                <path d="M36,4.12109085e-15 C16.1178319,4.12109085e-15 0,16.1179996 0,36.0002832 C0,55.8825667 16.1178319,72 36,72 C55.8821681,72 72,55.8825667 72,36.0002832 C72,16.1179996 55.8821681,0 36,4.12109085e-15 Z M7.875,36.0002832 C7.875,29.6713472 9.96541743,23.8317797 13.4932093,19.1318055 L52.8676434,58.5066906 C48.1684482,62.0342199 42.328408,64.1253628 36,64.1253628 C20.466738,64.1253628 7.875,51.5331933 7.875,36.0002832 Z M58.445674,52.9474901 L19.0525654,13.5544805 C23.7659079,9.9901353 29.6353747,7.87520355 36,7.87520355 C51.533262,7.87520355 64.125,20.4668067 64.125,36.0002832 C64.125,42.3649021 62.009683,48.2344889 58.445674,52.9474901 Z" id="Shape" stroke="#000000" stroke-width="3" fill="#F1A4AB"></path>
                <path d="M13.6044276,18.0025607 C13.2920255,18.0251358 13.0038714,18.1814684 12.8155278,18.4326165 C9.01087672,23.5007299 7,29.5378802 7,35.8916464 C7,51.941989 20.0582932,65 36.1086539,65 C42.4621449,65 48.4987226,62.9891216 53.5670794,59.1852146 C53.8180161,58.996148 53.9747811,58.707751 53.9973372,58.3945213 C54.0193293,58.0812915 53.9042933,57.7737056 53.6821156,57.5513406 L14.4463342,18.3169191 C14.2247205,18.0951186 13.9179575,17.9811142 13.6044276,18.0025607 Z M36.1086539,62.8327889 C21.2520752,62.8327889 9.16538611,50.7472009 9.16538611,35.8916464 C9.16538611,30.4312903 10.7702529,25.2232112 13.8181468,20.7522097 L51.2477479,58.180622 C46.776564,61.2282626 41.569487,62.8327889 36.1086539,62.8327889 Z" id="Shape" fill="#000000"></path>
            </g>
        </g>
    </g>
</svg>