<?xml version="1.0" encoding="UTF-8"?>
<svg width="440px" height="448px" viewBox="0 0 440 448" version="1.1" xmlns="http://www.w3.org/2000/svg" xmlns:xlink="http://www.w3.org/1999/xlink">
    <!-- Generator: Sketch 60 (88103) - https://sketch.com -->
    <title>Group 9</title>
    <desc>Created with Sketch.</desc>
    <defs>
        <circle id="path-1" cx="194.85" cy="194.85" r="194.85"></circle>
        <filter x="-1.1%" y="-1.1%" width="103.8%" height="103.8%" filterUnits="objectBoundingBox" id="filter-3">
            <feMorphology radius="2.85" operator="dilate" in="SourceAlpha" result="shadowSpreadOuter1"></feMorphology>
            <feOffset dx="3" dy="3" in="shadowSpreadOuter1" result="shadowOffsetOuter1"></feOffset>
            <feComposite in="shadowOffsetOuter1" in2="SourceAlpha" operator="out" result="shadowOffsetOuter1"></feComposite>
            <feColorMatrix values="0 0 0 0 0   0 0 0 0 0   0 0 0 0 0  0 0 0 0.07 0" type="matrix" in="shadowOffsetOuter1"></feColorMatrix>
        </filter>
        <circle id="path-4" cx="193.05" cy="193.05" r="193.05"></circle>
    </defs>
    <g id="v3" stroke="none" stroke-width="1" fill="none" fill-rule="evenodd">
        <g id="StaaS---TY" transform="translate(-813.000000, -295.000000)">
            <g id="Group-9" transform="translate(809.000000, 295.000000)">
                <g id="Group-7" transform="translate(45.982358, 31.500000)">
                    <mask id="mask-2" fill="white">
                        <use xlink:href="#path-1"></use>
                    </mask>
                    <g id="Mask" fill-rule="nonzero">
                        <use fill="black" fill-opacity="1" filter="url(#filter-3)" xlink:href="#path-1"></use>
                        <use stroke="#000000" stroke-width="2.7" fill="#64C1BE" xlink:href="#path-1"></use>
                    </g>
                    <g id="Combined-Shape" mask="url(#mask-2)">
                        <g transform="translate(1.800000, 0.900000)">
                            <mask id="mask-5" fill="white">
                                <use xlink:href="#path-4"></use>
                            </mask>
                            <use id="Mask" stroke="none" fill="#64C1BE" fill-rule="nonzero" xlink:href="#path-4"></use>
                        </g>
                    </g>
                </g>
                <g id="Group-31" transform="translate(198.982358, 0.000000)">
                    <path d="M68.04,1.35 L16.2,1.35 C7.99857147,1.35 1.35,7.99857147 1.35,16.2 L1.35,42.12 C1.35,50.3214285 7.99857147,56.97 16.2,56.97 L29.623,56.97 L30.3600442,56.97 L36.4420453,66.4311285 C36.9649407,67.2445214 37.6564934,67.936074 38.4698863,68.4589694 C41.6057341,70.4748716 45.7820526,69.5669763 47.7979464,66.4311414 L53.8799558,56.97 L68.04,56.97 C76.2414285,56.97 82.89,50.3214285 82.89,42.12 L82.89,16.2 C82.89,7.99857147 76.2414285,1.35 68.04,1.35 Z" id="Combined-Shape" stroke="#000000" stroke-width="2.7" fill="#F1A4AB"></path>
                    <g id="Group-4" transform="translate(29.160000, 16.200000)" fill="#FFFFFF" fill-rule="nonzero">
                        <path d="M12.2026991,27.54 C4.55856133,19.0425532 0.515792216,13.266578 0.0743917924,10.2120742 C-0.587708844,5.63031858 3.28859333,1.48191286 6.97808358,1.48191286 C9.43774375,1.48191286 11.5936274,3.45323962 13.4457347,7.39589314 C16.183983,2.46529771 19.1586569,0 22.3697565,0 C26.0508839,0 29.7289668,2.90339886 25.952856,11.6201648 C23.4354488,17.431342 18.8520631,22.7379538 12.2026991,27.54 Z" id="Path-17"></path>
                    </g>
                </g>
                <path d="M395.55,111.164439 L384.982832,116.236704 C383.63851,116.881982 382.025621,116.315294 381.380343,114.970973 C381.152509,114.496319 381.068421,113.965409 381.138428,113.443582 L382.697005,101.826191 L382.697005,101.826191 L374.607559,93.3436333 C373.578446,92.264509 373.618987,90.5554444 374.698111,89.5263306 C375.079129,89.1629708 375.55807,88.9189382 376.075991,88.824266 L387.606412,86.716589 L387.606412,86.716589 L393.174028,76.4018148 C393.882323,75.0896017 395.520268,74.600029 396.832481,75.3083236 C397.295797,75.5584085 397.675887,75.9384982 397.925972,76.4018148 L403.493588,86.716589 L403.493588,86.716589 L415.024009,88.824266 C416.490873,89.0923981 417.462637,90.4988901 417.194505,91.965754 C417.099833,92.4836748 416.855801,92.9626158 416.492441,93.3436333 L408.402995,101.826191 L408.402995,101.826191 L409.961572,113.443582 C410.159849,114.921509 409.122487,116.280342 407.644559,116.478619 C407.122732,116.548627 406.591822,116.464539 406.117168,116.236704 L395.55,111.164439 L395.55,111.164439 Z" id="Star" stroke="#000000" stroke-width="2.7" fill="#FAD843" fill-rule="nonzero" transform="translate(395.550000, 97.650000) rotate(13.000000) translate(-395.550000, -97.650000) "></path>
                <g id="bar" transform="translate(54.559534, 235.653482) rotate(-105.000000) translate(-54.559534, -235.653482) translate(28.059534, 203.153482)" fill="#FFFFFF" stroke="#000000" stroke-width="2.7">
                    <rect id="Rectangle" transform="translate(26.376918, 32.250622) rotate(36.000000) translate(-26.376918, -32.250622) " x="18.7269183" y="-1.9493784" width="15.3" height="68.4" rx="7.65"></rect>
                </g>
                <g id="bar-copy" transform="translate(38.359534, 191.553482) rotate(-105.000000) translate(-38.359534, -191.553482) translate(11.859534, 159.053482)" fill="#FFFFFF" stroke="#000000" stroke-width="2.7">
                    <rect id="Rectangle" transform="translate(26.376918, 32.250622) rotate(36.000000) translate(-26.376918, -32.250622) " x="18.7269183" y="-1.9493784" width="15.3" height="68.4" rx="7.65"></rect>
                </g>
                <g id="Group-8" transform="translate(145.882358, 147.600000)" stroke="#000000" stroke-width="3.375">
                    <rect id="Rectangle" fill="#4A90E2" x="19.4246605" y="210.064071" width="147.375" height="87.75" rx="22.5"></rect>
                    <path d="M90.5477352,226.101953 L52.6633779,226.101953 C16.305248,223.774658 -1.22698715,202.381228 0.0666723225,161.921665 C0.0666723225,149.339575 0.0666723225,141.280852 0.0666723225,137.745495 C0.0666723225,132.44246 3.58426324,126.525301 3.58426324,113.542677 C3.58426324,104.887594 3.58426324,74.4131677 3.58426324,22.1193966 C5.4157362,7.37313221 14.0534569,-4.54747351e-13 29.4974253,-4.54747351e-13 C44.9413937,-4.54747351e-13 54.3862384,7.37313221 57.8319593,22.1193966 L57.8319593,97.8189003 L57.8319593,132.175976 L109.384532,132.175976 L109.384532,97.8189003 L109.384532,22.1193966 C112.725274,7.37313221 122.254101,-4.54747351e-13 137.971014,-4.54747351e-13 C153.687927,-4.54747351e-13 162.754445,7.37313221 165.170568,22.1193966 L165.170568,139.844664 C164.773264,149.17807 168.180224,152.28261 175.391447,149.158285 C183.129812,142.949204 188.05129,136.113078 190.155881,128.649906 C192.420962,119.069939 211.954285,112.033408 221.688225,132.175976 C228.177518,145.604355 223.975547,161.148054 209.082312,178.807071 C179.389517,210.336992 151.538692,226.101953 125.529838,226.101953 L90.5477352,226.101953 Z" id="Path-26" fill="#FAD843"></path>
                    <rect id="Rectangle" fill="#FAD843" x="35.1746605" y="91.9390708" width="50.625" height="73.125" rx="25.3125"></rect>
                    <rect id="Rectangle" fill="#FAD843" x="75.6746605" y="91.9390708" width="50.625" height="73.125" rx="25.3125"></rect>
                    <line x1="80.7628595" y1="156.111354" x2="80.7628595" y2="189.124333" id="Path-27" stroke-linecap="round"></line>
                    <line x1="33.57293" y1="130.751571" x2="18.8621605" y2="135.095079" id="Path-28" stroke-linecap="round"></line>
                    <line x1="142.69793" y1="130.751571" x2="127.98716" y2="135.095079" id="Path-28" stroke-linecap="round" transform="translate(135.342545, 132.923325) rotate(-327.550216) translate(-135.342545, -132.923325) "></line>
                </g>
            </g>
        </g>
    </g>
</svg>