<svg xmlns="http://www.w3.org/2000/svg" width="34" height="70" viewBox="0 0 34 70">
    <path fill="#FFF" fill-rule="evenodd" stroke="#000" stroke-width="2.2" d="M31.88 51.937c-.208-.487-.586-.731-1.133-.731H22V3.23c0-.359-.118-.654-.352-.884-.233-.23-.533-.346-.898-.346H13.25c-.365 0-.664.115-.898.346-.234.23-.352.525-.352.884v47.976H3.251c-.52 0-.898.244-1.132.731-.208.487-.143.935.196 1.346l13.864 14.762c.26.256.573.384.938.384.34 0 .638-.128.898-.384l13.67-14.762c.339-.41.405-.86.196-1.346z"/>
</svg>
