<?xml version="1.0" encoding="UTF-8"?>
<svg width="60px" height="60px" viewBox="0 0 60 60" version="1.1" xmlns="http://www.w3.org/2000/svg" xmlns:xlink="http://www.w3.org/1999/xlink">
    <!-- Generator: Sketch 52.6 (67491) - http://www.bohemiancoding.com/sketch -->
    <title>step-2@2x</title>
    <desc>Created with Sketch.</desc>
    <g id="Page-1" stroke="none" stroke-width="1" fill="none" fill-rule="evenodd">
        <g id="step-2" fill-rule="nonzero">
            <circle id="Oval" fill="#FAD843" cx="30" cy="30" r="28.021978"></circle>
            <g id="drawing" transform="translate(17.000000, 16.000000)" fill="#FFFFFF">
                <path d="M16.225914,15.1601029 C16.7507858,14.7283402 17.2554703,14.2716522 17.7364655,13.790451 C17.8913727,13.6355438 25.1433792,6.38374331 26.0732345,5.45368196 C26.6708221,4.85609439 27,4.06157683 27,3.21659089 C27,2.37139893 26.6708221,1.57688142 26.0734406,0.97949983 C26.0734406,0.97949983 26.0734406,0.97949983 26.0732345,0.979293797 C25.475853,0.381912258 24.6811295,0.052734375 23.8361435,0.052734375 C22.9911575,0.052734375 22.19664,0.381912258 21.5990524,0.97949983 L13.2622834,9.31626889 C12.7810822,9.79726409 12.3243942,10.3019486 11.8926315,10.8268204 L1.3502884,0.284477221 C1.12410735,0.0580901836 0.783805834,-0.00947573438 0.488410963,0.112884521 C0.192604078,0.235450758 -2.84217094e-14,0.523841871 -2.84217094e-14,0.84375 L-2.84217094e-14,26.2617188 C-2.84217094e-14,26.6986313 0.354103102,27.0527344 0.791015625,27.0527344 L26.2089844,27.0527344 C26.5288925,27.0527344 26.8172836,26.8599243 26.9398499,26.5643234 C27.0622101,26.2689285 26.9944382,25.928627 26.7682572,25.702446 L16.225914,15.1601029 Z M22.717598,2.09804534 C23.3357849,1.4798584 24.3362961,1.47965242 24.954689,2.09804534 C25.572876,2.71623227 25.572876,3.71674348 24.954689,4.33493042 L23.0879745,6.20164487 L20.8510895,3.96475984 L22.717598,2.09804534 Z M19.732338,5.08351138 L21.969223,7.32039641 L19.1328964,10.156929 L16.8958053,7.91983796 L19.732338,5.08351138 Z M14.3808289,10.4348145 L15.7772598,9.0385895 L18.0141449,11.2754745 L16.6179199,12.6719055 C14.7483215,14.5415039 12.5013428,16.0197144 10.0502243,17.0025101 C11.03302,14.5513916 12.5112305,12.3044128 14.3808289,10.4348145 Z M8.19463347,18.8581009 C8.40103914,19.0647126 8.70549773,19.1411362 8.98606111,19.0550308 C9.53256226,18.887352 10.0714417,18.6968079 10.6016693,18.4852524 L12.7884979,20.671875 L6.38085937,20.671875 L6.38085937,14.2642365 L8.56748201,16.4510651 C8.35592651,16.9812927 8.1653824,17.5203781 7.99770354,18.0666733 C7.9118042,18.3466187 7.98760986,18.6510773 8.19463347,18.8581009 Z M19.0371094,25.4707031 L19.0371094,24.6796875 C19.0371094,24.242775 18.6830063,23.8886719 18.2460937,23.8886719 C17.8091812,23.8886719 17.4550781,24.242775 17.4550781,24.6796875 L17.4550781,25.4707031 L15.8730469,25.4707031 L15.8730469,24.6796875 C15.8730469,24.242775 15.5189438,23.8886719 15.0820312,23.8886719 C14.6451187,23.8886719 14.2910156,24.242775 14.2910156,24.6796875 L14.2910156,25.4707031 L12.7089844,25.4707031 L12.7089844,24.6796875 C12.7089844,24.242775 12.3548813,23.8886719 11.9179687,23.8886719 C11.4810562,23.8886719 11.1269531,24.242775 11.1269531,24.6796875 L11.1269531,25.4707031 L9.54492187,25.4707031 L9.54492187,24.6796875 C9.54492187,24.242775 9.19081877,23.8886719 8.75390625,23.8886719 C8.31699373,23.8886719 7.96289062,24.242775 7.96289062,24.6796875 L7.96289062,25.4707031 L6.38085937,25.4707031 L6.38085937,24.6796875 C6.38085937,24.242775 6.02675627,23.8886719 5.58984375,23.8886719 C5.15293123,23.8886719 4.79882812,24.242775 4.79882812,24.6796875 L4.79882812,25.4707031 L1.58203125,25.4707031 L1.58203125,22.2539062 L2.37304687,22.2539062 C2.8099594,22.2539062 3.1640625,21.8998031 3.1640625,21.4628906 C3.1640625,21.0259781 2.8099594,20.671875 2.37304687,20.671875 L1.58203125,20.671875 L1.58203125,19.0898438 L2.37304687,19.0898438 C2.8099594,19.0898438 3.1640625,18.7357406 3.1640625,18.2988281 C3.1640625,17.8619156 2.8099594,17.5078125 2.37304687,17.5078125 L1.58203125,17.5078125 L1.58203125,15.9257812 L2.37304687,15.9257812 C2.8099594,15.9257812 3.1640625,15.5716781 3.1640625,15.1347656 C3.1640625,14.6978531 2.8099594,14.34375 2.37304687,14.34375 L1.58203125,14.34375 L1.58203125,12.7617187 L2.37304687,12.7617187 C2.8099594,12.7617187 3.1640625,12.4076156 3.1640625,11.9707031 C3.1640625,11.5337906 2.8099594,11.1796875 2.37304687,11.1796875 L1.58203125,11.1796875 L1.58203125,9.59765625 L2.37304687,9.59765625 C2.8099594,9.59765625 3.1640625,9.24355315 3.1640625,8.80664062 C3.1640625,8.3697281 2.8099594,8.015625 2.37304687,8.015625 L1.58203125,8.015625 L1.58203125,2.75351716 L10.9256973,12.0971833 C10.2988586,12.9883118 9.74082185,13.9272308 9.25776675,14.9038468 L6.14911653,11.7951965 C5.92293547,11.5690155 5.58263396,11.5014496 5.28703305,11.6238098 C4.9914322,11.7461701 4.79882812,12.0347672 4.79882812,12.3546753 L4.79882812,21.4628906 C4.79882812,21.8998031 5.15293123,22.2539062 5.58984375,22.2539062 L14.6980591,22.2539062 C15.0179672,22.2539062 15.3063583,22.0610962 15.4289246,21.7654953 C15.5512848,21.4701004 15.4835129,21.1297989 15.2573319,20.9036178 L12.1488876,17.7949676 C13.1252975,17.3117065 14.0644226,16.7536698 14.9555511,16.127037 L24.2992172,25.4707031 L19.0371094,25.4707031 Z" id="Shape"></path>
            </g>
            <path d="M51.2131641,8.78671875 C45.5469141,3.12046875 38.0133984,0 30,0 C21.9866016,0 14.4530859,3.12046875 8.78695313,8.78671875 C3.12046875,14.4530859 0,21.9867188 0,30 C0,38.0132812 3.12046875,45.5469141 8.78695313,51.2132812 C14.4530859,56.8795312 21.9866016,60 30,60 C38.0133984,60 45.5469141,56.8795312 51.2131641,51.2132812 C56.8795312,45.5469141 60,38.0132812 60,30 C60,21.9867188 56.8795312,14.4530859 51.2131641,8.78671875 Z M30,57.6096094 C14.7760547,57.6096094 2.39039063,45.2240625 2.39039063,30 C2.39039063,14.7759375 14.7760547,2.39039063 30,2.39039063 C45.2239453,2.39039063 57.6096094,14.7760547 57.6096094,30 C57.6096094,45.2239453 45.2239453,57.6096094 30,57.6096094 Z" id="Shape" fill="#000000"></path>
        </g>
    </g>
</svg>