<?xml version="1.0" encoding="UTF-8"?>
<svg width="60px" height="60px" viewBox="0 0 60 60" version="1.1" xmlns="http://www.w3.org/2000/svg" xmlns:xlink="http://www.w3.org/1999/xlink">
    <!-- Generator: Sketch 52.6 (67491) - http://www.bohemiancoding.com/sketch -->
    <title>step-1@2x</title>
    <desc>Created with Sketch.</desc>
    <g id="Page-1" stroke="none" stroke-width="1" fill="none" fill-rule="evenodd">
        <g id="step-1" fill-rule="nonzero">
            <circle id="Oval" fill="#64C1BE" cx="30" cy="30" r="28.021978"></circle>
            <path d="M51.2131641,8.78671875 C45.5469141,3.12046875 38.0133984,0 30,0 C21.9866016,0 14.4530859,3.12046875 8.78695313,8.78671875 C3.12046875,14.4530859 0,21.9867188 0,30 C0,38.0132812 3.12046875,45.5469141 8.78695313,51.2132812 C14.4530859,56.8795312 21.9866016,60 30,60 C38.0133984,60 45.5469141,56.8795312 51.2131641,51.2132812 C56.8795312,45.5469141 60,38.0132812 60,30 C60,21.9867188 56.8795312,14.4530859 51.2131641,8.78671875 Z M30,57.6096094 C14.7760547,57.6096094 2.39039063,45.2240625 2.39039063,30 C2.39039063,14.7759375 14.7760547,2.39039063 30,2.39039063 C45.2239453,2.39039063 57.6096094,14.7760547 57.6096094,30 C57.6096094,45.2239453 45.2239453,57.6096094 30,57.6096094 Z" id="Shape" fill="#000000"></path>
            <path d="M44.1522288,19.1563906 C43.0341528,18.0174669 41.217596,18.0174669 40.0995188,19.1563918 L25.5631119,33.9637468 L20.5598915,28.8674431 C19.4418155,27.7285194 17.6252586,27.7285194 16.5071826,28.8674431 C15.3840506,30.0115172 15.3840506,31.8780273 16.5071803,33.0221812 L23.5367727,40.1827516 C24.0795984,40.7356169 24.7974571,41.0384615 25.5631059,41.0384615 C26.3286868,41.0384615 27.0465806,40.7355682 27.5895075,40.1826819 L44.1522037,23.3111566 C45.2752686,22.1669866 45.2752686,20.3003706 44.1522288,19.1563906 Z" id="Shape" stroke="#64C1BE" fill="#FFFFFF"></path>
        </g>
    </g>
</svg>