<?xml version="1.0" encoding="UTF-8"?>
<svg width="554px" height="412px" viewBox="0 0 554 412" version="1.1" xmlns="http://www.w3.org/2000/svg" xmlns:xlink="http://www.w3.org/1999/xlink">
    <!-- Generator: Sketch 52.6 (67491) - http://www.bohemiancoding.com/sketch -->
    <title>Group 2</title>
    <desc>Created with Sketch.</desc>
    <defs>
        <rect id="path-1" x="0" y="0" width="554" height="412"></rect>
    </defs>
    <g id="Page-1" stroke="none" stroke-width="1" fill="none" fill-rule="evenodd">
        <g id="Window-Text-Copy-9" transform="translate(-3.000000, -53.000000)">
            <g id="Group-2" transform="translate(3.000000, 53.000000)">
                <mask id="mask-2" fill="white">
                    <use xlink:href="#path-1"></use>
                </mask>
                <use id="Mask" fill="#E8E8E8" fill-rule="nonzero" xlink:href="#path-1"></use>
                <g id="Group-3" mask="url(#mask-2)">
                    <g transform="translate(-9.000000, -36.000000)">
                        <rect id="Rectangle-Copy-9" fill="#D4C8BA" fill-rule="nonzero" x="0" y="0" width="95" height="95" rx="8"></rect>
                        <g id="Group-4" stroke-width="1" fill="none" fill-rule="evenodd" transform="translate(20.420561, 19.532710)">
                            <g id="makeit" transform="translate(16.869159, 0.000000)" fill="#CFBCA5">
                                <path d="M10.2102804,5.71835894 L10.465449,5.8688942 L15.3154206,3.0096626 L20.4205607,0 L20.4205607,6.0193252 L20.4205607,11.7376841 L20.4187918,11.736642 L15.3154206,14.7473467 L15.3154206,9.0289878 L15.0618446,8.87949572 L10.2102804,11.7376841 L5.35871613,8.87949572 L5.10514019,9.0289878 L5.10514019,14.7473467 L0.00176893284,11.736642 L0,11.7376841 L0,6.0193252 L0,0 L5.10514019,3.0096626 L9.95511178,5.8688942 L10.2102804,5.71835894 Z M5.10514019,14.7473467 L0,17.7570093 L0,11.7376841 L5.10514019,14.7473467 Z M20.4205607,17.7570093 L15.3154206,14.7473467 L20.4205607,11.7376841 L20.4205607,17.7570093 Z" id="Combined-Shape"></path>
                            </g>
                            <rect id="Rectangle" fill="#CFBCA5" fill-rule="nonzero" x="0" y="29.2990654" width="54.1588785" height="5.3271028" rx="2.6635514"></rect>
                            <rect id="Rectangle-Copy-7" fill="#CFBCA5" fill-rule="nonzero" x="0" y="39.953271" width="54.1588785" height="5.3271028" rx="2.6635514"></rect>
                            <rect id="Rectangle-Copy-8" fill="#CFBCA5" fill-rule="nonzero" x="0" y="50.6074766" width="35.5140187" height="5.3271028" rx="2.6635514"></rect>
                        </g>
                    </g>
                </g>
                <g id="Group-3-Copy-3" mask="url(#mask-2)">
                    <g transform="translate(-9.000000, 75.000000)">
                        <rect id="Rectangle-Copy-9" fill="#D4C8BA" fill-rule="nonzero" x="0" y="0" width="95" height="95" rx="8"></rect>
                        <g id="Group-4" stroke-width="1" fill="none" fill-rule="evenodd" transform="translate(20.420561, 19.532710)">
                            <g id="makeit" transform="translate(16.869159, 0.000000)" fill="#CFBCA5">
                                <path d="M10.2102804,5.71835894 L10.465449,5.8688942 L15.3154206,3.0096626 L20.4205607,0 L20.4205607,6.0193252 L20.4205607,11.7376841 L20.4187918,11.736642 L15.3154206,14.7473467 L15.3154206,9.0289878 L15.0618446,8.87949572 L10.2102804,11.7376841 L5.35871613,8.87949572 L5.10514019,9.0289878 L5.10514019,14.7473467 L0.00176893284,11.736642 L0,11.7376841 L0,6.0193252 L0,0 L5.10514019,3.0096626 L9.95511178,5.8688942 L10.2102804,5.71835894 Z M5.10514019,14.7473467 L0,17.7570093 L0,11.7376841 L5.10514019,14.7473467 Z M20.4205607,17.7570093 L15.3154206,14.7473467 L20.4205607,11.7376841 L20.4205607,17.7570093 Z" id="Combined-Shape"></path>
                            </g>
                            <rect id="Rectangle" fill="#CFBCA5" fill-rule="nonzero" x="0" y="29.2990654" width="54.1588785" height="5.3271028" rx="2.6635514"></rect>
                            <rect id="Rectangle-Copy-7" fill="#CFBCA5" fill-rule="nonzero" x="0" y="39.953271" width="54.1588785" height="5.3271028" rx="2.6635514"></rect>
                            <rect id="Rectangle-Copy-8" fill="#CFBCA5" fill-rule="nonzero" x="0" y="50.6074766" width="35.5140187" height="5.3271028" rx="2.6635514"></rect>
                        </g>
                    </g>
                </g>
                <g id="Group-3-Copy" mask="url(#mask-2)">
                    <g transform="translate(102.000000, -36.000000)">
                        <rect id="Rectangle-Copy-9" fill="#D4C8BA" fill-rule="nonzero" x="0" y="0" width="95" height="95" rx="8"></rect>
                        <g id="Group-4" stroke-width="1" fill="none" fill-rule="evenodd" transform="translate(20.420561, 19.532710)">
                            <g id="makeit" transform="translate(16.869159, 0.000000)" fill="#CFBCA5">
                                <path d="M10.2102804,5.71835894 L10.465449,5.8688942 L15.3154206,3.0096626 L20.4205607,0 L20.4205607,6.0193252 L20.4205607,11.7376841 L20.4187918,11.736642 L15.3154206,14.7473467 L15.3154206,9.0289878 L15.0618446,8.87949572 L10.2102804,11.7376841 L5.35871613,8.87949572 L5.10514019,9.0289878 L5.10514019,14.7473467 L0.00176893284,11.736642 L0,11.7376841 L0,6.0193252 L0,0 L5.10514019,3.0096626 L9.95511178,5.8688942 L10.2102804,5.71835894 Z M5.10514019,14.7473467 L0,17.7570093 L0,11.7376841 L5.10514019,14.7473467 Z M20.4205607,17.7570093 L15.3154206,14.7473467 L20.4205607,11.7376841 L20.4205607,17.7570093 Z" id="Combined-Shape"></path>
                            </g>
                            <rect id="Rectangle" fill="#CFBCA5" fill-rule="nonzero" x="0" y="29.2990654" width="54.1588785" height="5.3271028" rx="2.6635514"></rect>
                            <rect id="Rectangle-Copy-7" fill="#CFBCA5" fill-rule="nonzero" x="0" y="39.953271" width="54.1588785" height="5.3271028" rx="2.6635514"></rect>
                            <rect id="Rectangle-Copy-8" fill="#CFBCA5" fill-rule="nonzero" x="0" y="50.6074766" width="35.5140187" height="5.3271028" rx="2.6635514"></rect>
                        </g>
                    </g>
                </g>
                <g id="Group-3-Copy-4" mask="url(#mask-2)">
                    <g transform="translate(102.000000, 75.000000)">
                        <rect id="Rectangle-Copy-9" fill="#D4C8BA" fill-rule="nonzero" x="0" y="0" width="95" height="95" rx="8"></rect>
                        <g id="Group-4" stroke-width="1" fill="none" fill-rule="evenodd" transform="translate(20.420561, 19.532710)">
                            <g id="makeit" transform="translate(16.869159, 0.000000)" fill="#CFBCA5">
                                <path d="M10.2102804,5.71835894 L10.465449,5.8688942 L15.3154206,3.0096626 L20.4205607,0 L20.4205607,6.0193252 L20.4205607,11.7376841 L20.4187918,11.736642 L15.3154206,14.7473467 L15.3154206,9.0289878 L15.0618446,8.87949572 L10.2102804,11.7376841 L5.35871613,8.87949572 L5.10514019,9.0289878 L5.10514019,14.7473467 L0.00176893284,11.736642 L0,11.7376841 L0,6.0193252 L0,0 L5.10514019,3.0096626 L9.95511178,5.8688942 L10.2102804,5.71835894 Z M5.10514019,14.7473467 L0,17.7570093 L0,11.7376841 L5.10514019,14.7473467 Z M20.4205607,17.7570093 L15.3154206,14.7473467 L20.4205607,11.7376841 L20.4205607,17.7570093 Z" id="Combined-Shape"></path>
                            </g>
                            <rect id="Rectangle" fill="#CFBCA5" fill-rule="nonzero" x="0" y="29.2990654" width="54.1588785" height="5.3271028" rx="2.6635514"></rect>
                            <rect id="Rectangle-Copy-7" fill="#CFBCA5" fill-rule="nonzero" x="0" y="39.953271" width="54.1588785" height="5.3271028" rx="2.6635514"></rect>
                            <rect id="Rectangle-Copy-8" fill="#CFBCA5" fill-rule="nonzero" x="0" y="50.6074766" width="35.5140187" height="5.3271028" rx="2.6635514"></rect>
                        </g>
                    </g>
                </g>
                <g id="Group-3-Copy-2" mask="url(#mask-2)">
                    <g transform="translate(213.000000, -36.000000)">
                        <rect id="Rectangle-Copy-9" fill="#D4C8BA" fill-rule="nonzero" x="0" y="0" width="95" height="95" rx="8"></rect>
                        <g id="Group-4" stroke-width="1" fill="none" fill-rule="evenodd" transform="translate(20.420561, 19.532710)">
                            <g id="makeit" transform="translate(16.869159, 0.000000)" fill="#CFBCA5">
                                <path d="M10.2102804,5.71835894 L10.465449,5.8688942 L15.3154206,3.0096626 L20.4205607,0 L20.4205607,6.0193252 L20.4205607,11.7376841 L20.4187918,11.736642 L15.3154206,14.7473467 L15.3154206,9.0289878 L15.0618446,8.87949572 L10.2102804,11.7376841 L5.35871613,8.87949572 L5.10514019,9.0289878 L5.10514019,14.7473467 L0.00176893284,11.736642 L0,11.7376841 L0,6.0193252 L0,0 L5.10514019,3.0096626 L9.95511178,5.8688942 L10.2102804,5.71835894 Z M5.10514019,14.7473467 L0,17.7570093 L0,11.7376841 L5.10514019,14.7473467 Z M20.4205607,17.7570093 L15.3154206,14.7473467 L20.4205607,11.7376841 L20.4205607,17.7570093 Z" id="Combined-Shape"></path>
                            </g>
                            <rect id="Rectangle" fill="#CFBCA5" fill-rule="nonzero" x="0" y="29.2990654" width="54.1588785" height="5.3271028" rx="2.6635514"></rect>
                            <rect id="Rectangle-Copy-7" fill="#CFBCA5" fill-rule="nonzero" x="0" y="39.953271" width="54.1588785" height="5.3271028" rx="2.6635514"></rect>
                            <rect id="Rectangle-Copy-8" fill="#CFBCA5" fill-rule="nonzero" x="0" y="50.6074766" width="35.5140187" height="5.3271028" rx="2.6635514"></rect>
                        </g>
                    </g>
                </g>
                <g id="Group-3-Copy-5" mask="url(#mask-2)">
                    <g transform="translate(213.000000, 75.000000)">
                        <rect id="Rectangle-Copy-9" fill="#D4C8BA" fill-rule="nonzero" x="0" y="0" width="95" height="95" rx="8"></rect>
                        <g id="Group-4" stroke-width="1" fill="none" fill-rule="evenodd" transform="translate(20.420561, 19.532710)">
                            <g id="makeit" transform="translate(16.869159, 0.000000)" fill="#CFBCA5">
                                <path d="M10.2102804,5.71835894 L10.465449,5.8688942 L15.3154206,3.0096626 L20.4205607,0 L20.4205607,6.0193252 L20.4205607,11.7376841 L20.4187918,11.736642 L15.3154206,14.7473467 L15.3154206,9.0289878 L15.0618446,8.87949572 L10.2102804,11.7376841 L5.35871613,8.87949572 L5.10514019,9.0289878 L5.10514019,14.7473467 L0.00176893284,11.736642 L0,11.7376841 L0,6.0193252 L0,0 L5.10514019,3.0096626 L9.95511178,5.8688942 L10.2102804,5.71835894 Z M5.10514019,14.7473467 L0,17.7570093 L0,11.7376841 L5.10514019,14.7473467 Z M20.4205607,17.7570093 L15.3154206,14.7473467 L20.4205607,11.7376841 L20.4205607,17.7570093 Z" id="Combined-Shape"></path>
                            </g>
                            <rect id="Rectangle" fill="#CFBCA5" fill-rule="nonzero" x="0" y="29.2990654" width="54.1588785" height="5.3271028" rx="2.6635514"></rect>
                            <rect id="Rectangle-Copy-7" fill="#CFBCA5" fill-rule="nonzero" x="0" y="39.953271" width="54.1588785" height="5.3271028" rx="2.6635514"></rect>
                            <rect id="Rectangle-Copy-8" fill="#CFBCA5" fill-rule="nonzero" x="0" y="50.6074766" width="35.5140187" height="5.3271028" rx="2.6635514"></rect>
                        </g>
                    </g>
                </g>
                <g mask="url(#mask-2)">
                    <g transform="translate(123.000000, 29.000000)">
                        <rect id="Rectangle" stroke="#000000" stroke-width="3" fill="#305967" fill-rule="nonzero" x="3.5" y="241.5" width="745" height="111" rx="55.5"></rect>
                        <rect id="Rectangle" stroke="#000000" stroke-width="3" fill="#1C414B" fill-rule="nonzero" x="76.5" y="352.5" width="16" height="32"></rect>
                        <rect id="Rectangle-Copy" stroke="#000000" stroke-width="3" fill="#1C414B" fill-rule="nonzero" x="22.5" y="255.5" width="707" height="83" rx="41.5"></rect>
                        <circle id="Oval" stroke="#000000" stroke-width="3" fill="#D8D8D8" fill-rule="nonzero" cx="64.5" cy="297.5" r="36.5"></circle>
                        <circle id="Oval-Copy-2" stroke="#000000" stroke-width="3" fill="#D8D8D8" fill-rule="nonzero" cx="353.5" cy="297.5" r="36.5"></circle>
                        <circle id="Oval-Copy" stroke="#000000" stroke-width="3" fill="#BFBFBF" fill-rule="nonzero" cx="64.5" cy="297.5" r="24.5"></circle>
                        <circle id="Oval-Copy-3" stroke="#000000" stroke-width="3" fill="#BFBFBF" fill-rule="nonzero" cx="353.5" cy="297.5" r="24.5"></circle>
                        <g id="Group" stroke="none" stroke-width="1" fill="none" fill-rule="evenodd" transform="translate(123.000000, 254.000000)">
                            <path d="M1.5,1.5 C1.5,7.42867519 1.5,7.74587386 1.5,12.1153846 C1.5,15.0082298 1.5,15.4144192 1.5,15.898953 C2.59128977,18.7761373 5.9737649,18.7772148 7.09375,15.8930736 C7.09375,15.6069288 7.09375,15.6025456 7.09375,15.1442308 C7.09375,13.9663462 7.09375,13.9663462 7.09375,12.1153846 C7.09375,7.74587386 7.09375,7.42867519 7.09375,1.5 L1.5,1.5 Z" id="Rectangle" stroke="#000000" stroke-width="3" fill="#FFFFFF" fill-rule="nonzero"></path>
                            <path d="M56.96875,1.5 C56.96875,7.42867519 56.96875,7.74587386 56.96875,12.1153846 C56.96875,15.0082298 56.96875,15.4144192 56.96875,15.898953 C58.0600398,18.7761373 61.4425149,18.7772148 62.5625,15.8930736 C62.5625,15.6069288 62.5625,15.6025456 62.5625,15.1442308 C62.5625,13.9663462 62.5625,13.9663462 62.5625,12.1153846 C62.5625,7.74587386 62.5625,7.42867519 62.5625,1.5 L56.96875,1.5 Z" id="Rectangle-Copy-2" stroke="#000000" stroke-width="3" fill="#FFFFFF" fill-rule="nonzero"></path>
                            <path d="M112.4375,1.5 C112.4375,7.42867519 112.4375,7.74587386 112.4375,12.1153846 C112.4375,15.0082298 112.4375,15.4144192 112.4375,15.898953 C113.52879,18.7761373 116.911265,18.7772148 118.03125,15.8930736 C118.03125,15.6069288 118.03125,15.6025456 118.03125,15.1442308 C118.03125,13.9663462 118.03125,13.9663462 118.03125,12.1153846 C118.03125,7.74587386 118.03125,7.42867519 118.03125,1.5 L112.4375,1.5 Z" id="Rectangle-Copy-3" stroke="#000000" stroke-width="3" fill="#FFFFFF" fill-rule="nonzero"></path>
                            <path d="M167.90625,1.5 C167.90625,7.42867519 167.90625,7.74587386 167.90625,12.1153846 C167.90625,15.0082298 167.90625,15.4144192 167.90625,15.898953 C168.99754,18.7761373 172.380015,18.7772148 173.5,15.8930736 C173.5,15.6069288 173.5,15.6025456 173.5,15.1442308 C173.5,13.9663462 173.5,13.9663462 173.5,12.1153846 C173.5,7.74587386 173.5,7.42867519 173.5,1.5 L167.90625,1.5 Z" id="Rectangle-Copy-4" stroke="#000000" stroke-width="3" fill="#FFFFFF" fill-rule="nonzero"></path>
                        </g>
                        <g id="Group-Copy" stroke="none" stroke-width="1" fill="none" fill-rule="evenodd" transform="translate(210.500000, 330.000000) scale(1, -1) translate(-210.500000, -330.000000) translate(123.000000, 320.000000)">
                            <path d="M1.5,1.5 C1.5,7.42867519 1.5,7.74587386 1.5,12.1153846 C1.5,15.0082298 1.5,15.4144192 1.5,15.898953 C2.59128977,18.7761373 5.9737649,18.7772148 7.09375,15.8930736 C7.09375,15.6069288 7.09375,15.6025456 7.09375,15.1442308 C7.09375,13.9663462 7.09375,13.9663462 7.09375,12.1153846 C7.09375,7.74587386 7.09375,7.42867519 7.09375,1.5 L1.5,1.5 Z" id="Rectangle" stroke="#000000" stroke-width="3" fill="#FFFFFF" fill-rule="nonzero"></path>
                            <path d="M56.96875,1.5 C56.96875,7.42867519 56.96875,7.74587386 56.96875,12.1153846 C56.96875,15.0082298 56.96875,15.4144192 56.96875,15.898953 C58.0600398,18.7761373 61.4425149,18.7772148 62.5625,15.8930736 C62.5625,15.6069288 62.5625,15.6025456 62.5625,15.1442308 C62.5625,13.9663462 62.5625,13.9663462 62.5625,12.1153846 C62.5625,7.74587386 62.5625,7.42867519 62.5625,1.5 L56.96875,1.5 Z" id="Rectangle-Copy-2" stroke="#000000" stroke-width="3" fill="#FFFFFF" fill-rule="nonzero"></path>
                            <path d="M112.4375,1.5 C112.4375,7.42867519 112.4375,7.74587386 112.4375,12.1153846 C112.4375,15.0082298 112.4375,15.4144192 112.4375,15.898953 C113.52879,18.7761373 116.911265,18.7772148 118.03125,15.8930736 C118.03125,15.6069288 118.03125,15.6025456 118.03125,15.1442308 C118.03125,13.9663462 118.03125,13.9663462 118.03125,12.1153846 C118.03125,7.74587386 118.03125,7.42867519 118.03125,1.5 L112.4375,1.5 Z" id="Rectangle-Copy-3" stroke="#000000" stroke-width="3" fill="#FFFFFF" fill-rule="nonzero"></path>
                            <path d="M167.90625,1.5 C167.90625,7.42867519 167.90625,7.74587386 167.90625,12.1153846 C167.90625,15.0082298 167.90625,15.4144192 167.90625,15.898953 C168.99754,18.7761373 172.380015,18.7772148 173.5,15.8930736 C173.5,15.6069288 173.5,15.6025456 173.5,15.1442308 C173.5,13.9663462 173.5,13.9663462 173.5,12.1153846 C173.5,7.74587386 173.5,7.42867519 173.5,1.5 L167.90625,1.5 Z" id="Rectangle-Copy-4" stroke="#000000" stroke-width="3" fill="#FFFFFF" fill-rule="nonzero"></path>
                        </g>
                        <path d="M341,241 C341,217.804041 322.195959,199 299,199 C275.804041,199 257,217.804041 257,241 C257,241 341,241 341,241 Z" id="Oval" stroke="#000000" stroke-width="3" fill="#F1A4AB" fill-rule="nonzero" transform="translate(299.000000, 220.000000) rotate(-180.000000) translate(-299.000000, -220.000000) "></path>
                        <path d="M330.5,241.5 L377.5,241.5 L377.5,85.5 L351,85.5 C339.678163,85.5 330.5,94.6781626 330.5,106 L330.5,241.5 Z" id="Rectangle" stroke="#000000" stroke-width="3" fill="#BFBFBF" fill-rule="nonzero"></path>
                        <path d="M355.5,352.5 L475.5,352.5 L475.5,38 C475.5,17.8416066 459.158393,1.5 439,1.5 L392,1.5 C371.841607,1.5 355.5,17.8416066 355.5,38 L355.5,352.5 Z" id="Rectangle" stroke="#000000" stroke-width="3" fill="#4A90E2" fill-rule="nonzero"></path>
                        <circle id="Oval" stroke="#000000" stroke-width="3" fill="#64C1BE" fill-rule="nonzero" cx="388" cy="141" r="8.5"></circle>
                        <circle id="Oval-Copy-4" stroke="#000000" stroke-width="3" fill="#F1A4AB" fill-rule="nonzero" cx="388" cy="108" r="8.5"></circle>
                        <rect id="Rectangle" stroke="#000000" stroke-width="3" fill="#FFFFFF" fill-rule="nonzero" x="380.5" y="171.5" width="70" height="7" rx="3.5"></rect>
                        <rect id="Rectangle-Copy-5" stroke="#000000" stroke-width="3" fill="#FFFFFF" fill-rule="nonzero" x="380.5" y="189.5" width="70" height="7" rx="3.5"></rect>
                        <rect id="Rectangle-Copy-6" stroke="#000000" stroke-width="3" fill="#FFFFFF" fill-rule="nonzero" x="380.5" y="207.5" width="70" height="7" rx="3.5"></rect>
                        <polygon id="Triangle" stroke="#000000" stroke-width="3" fill="#FAD843" fill-rule="nonzero" transform="translate(167.740550, 223.864191) rotate(-120.000000) translate(-167.740550, -223.864191) " points="167.74622 190.254997 206.514726 257.466844 128.966375 257.473385"></polygon>
                        <path d="M7.40420694,179.69905 L7.40549143,243.123032 L70.8421316,243.124317 L70.8408472,179.700334 L7.40420694,179.69905 Z" id="Rectangle" stroke="#000000" stroke-width="3" fill="#64C1BE" fill-rule="nonzero" transform="translate(39.123169, 211.411683) rotate(-10.000000) translate(-39.123169, -211.411683) "></path>
                    </g>
                </g>
                <circle id="Oval" stroke="#000000" stroke-width="3" fill="#4A90E2" fill-rule="nonzero" mask="url(#mask-2)" cx="75" cy="394" r="36"></circle>
            </g>
        </g>
    </g>
</svg>