<?xml version="1.0" encoding="UTF-8"?>
<svg width="60px" height="60px" viewBox="0 0 60 60" version="1.1" xmlns="http://www.w3.org/2000/svg" xmlns:xlink="http://www.w3.org/1999/xlink">
    <!-- Generator: Sketch 52.6 (67491) - http://www.bohemiancoding.com/sketch -->
    <title>step-3@2x</title>
    <desc>Created with Sketch.</desc>
    <g id="Page-1" stroke="none" stroke-width="1" fill="none" fill-rule="evenodd">
        <g id="step-3" fill-rule="nonzero">
            <g id="checked">
                <circle id="Oval" fill="#F1A4AB" cx="30" cy="30" r="28.021978"></circle>
                <path d="M51.2131641,8.78671875 C45.5469141,3.12046875 38.0133984,0 30,0 C21.9866016,0 14.4530859,3.12046875 8.78695313,8.78671875 C3.12046875,14.4530859 0,21.9867188 0,30 C0,38.0132812 3.12046875,45.5469141 8.78695313,51.2132812 C14.4530859,56.8795312 21.9866016,60 30,60 C38.0133984,60 45.5469141,56.8795312 51.2131641,51.2132812 C56.8795312,45.5469141 60,38.0132812 60,30 C60,21.9867188 56.8795312,14.4530859 51.2131641,8.78671875 Z M30,57.6096094 C14.7760547,57.6096094 2.39039063,45.2240625 2.39039063,30 C2.39039063,14.7759375 14.7760547,2.39039063 30,2.39039063 C45.2239453,2.39039063 57.6096094,14.7760547 57.6096094,30 C57.6096094,45.2239453 45.2239453,57.6096094 30,57.6096094 Z" id="Shape" fill="#000000"></path>
            </g>
            <path d="M41.2056465,38.7119963 C43.6018099,35.7009044 43.8224116,32.1837155 40.4894192,28.9596043 C36.715753,25.3090702 33.1625561,26.5081526 30.0499005,27.9205106 L23.218663,21.3121714 C25.3947545,19.4204879 27.1299073,19.5002901 27.6257977,19.0205803 C28.1215557,18.5409986 27.7635083,17.6084785 27.4054608,17.2621139 C26.4965712,16.3828808 23.6042525,17.8482694 21.5385944,19.6869222 L20.7398732,18.9142628 C20.4643197,18.6477004 19.8859354,18.7276307 19.5829722,19.0205803 C19.2247924,19.367073 19.1973827,19.8732981 19.4729362,20.1398605 L20.3267416,20.9658069 C18.0955659,23.443902 16.5806175,27.0410212 20.0511881,30.3983496 C23.5768428,33.8089647 26.9924616,32.1037852 30.2702374,30.5848536 L38.2856532,38.3387321 C34.7875406,41.5630995 32.0056551,40.0441678 31.3445121,40.6837382 C30.9313805,41.0833896 31.0965007,42.042425 31.5373069,42.468848 C32.5289552,43.4281395 36.5229583,43.3482092 40.0209385,40.0173962 L41.0125869,40.9766878 C41.288008,41.2431221 41.811308,41.2166068 42.1694879,40.8701141 C42.4724511,40.5770364 42.554945,40.0175243 42.2795239,39.75109 L41.2056465,38.7119963 Z M21.196935,28.7777924 C19.1587032,26.8941978 20.0124461,24.7307682 21.6101688,23 L28,28.9050458 C25.576207,29.9742188 23.3454594,30.763312 21.196935,28.7777924 Z M39.8311439,37 L32,29.7455346 C34.4382864,28.8157009 36.7905254,28.3905757 39.2860389,30.7023218 C41.4088181,32.6687814 41.523548,34.8476759 39.8311439,37 Z" id="Shape" stroke="#FFFFFF" fill="#FFFFFF" transform="translate(30.500000, 30.000000) rotate(-315.000000) translate(-30.500000, -30.000000) "></path>
        </g>
    </g>
</svg>