<?xml version="1.0" encoding="UTF-8"?>
<svg width="60px" height="60px" viewBox="0 0 60 60" version="1.1" xmlns="http://www.w3.org/2000/svg" xmlns:xlink="http://www.w3.org/1999/xlink">
    <!-- Generator: Sketch 52.6 (67491) - http://www.bohemiancoding.com/sketch -->
    <title>step-5@2x</title>
    <desc>Created with Sketch.</desc>
    <g id="Page-1" stroke="none" stroke-width="1" fill="none" fill-rule="evenodd">
        <g id="step-5">
            <circle id="Oval" fill="#64C1BE" fill-rule="nonzero" cx="30" cy="30" r="28.021978"></circle>
            <g id="rising" transform="translate(15.000000, 13.000000)" fill="#FFFFFF" stroke="#FFFFFF" stroke-width="0.8">
                <path d="M4.19178768,16 C3.53466797,16 3,16.534668 3,17.1920166 L3,31.3094482 C3,31.5522919 3.19660951,31.7489014 3.43945312,31.7489014 L8.7019043,31.7489014 C8.94474791,31.7489014 9.14135742,31.5522919 9.14135742,31.3094482 L9.14135742,17.1920166 C9.14135742,16.534668 8.60668945,16 7.94956969,16 L4.19178768,16 Z M8.26245117,17.1920166 L8.26245117,30.8699951 L3.87867732,30.8699951 L3.87867732,17.1920166 C3.87867732,17.0194397 4.0192108,16.8789062 4.19178768,16.8789062 L7.94934082,16.8789062 C8.12214662,16.8789062 8.26245117,17.0194397 8.26245117,17.1920166 Z" id="Shape" fill-rule="nonzero"></path>
                <path d="M17.1415863,31.2563019 L17.1415863,14.1920166 C17.1415863,13.534668 16.6069184,13 15.9495697,13 L12.1920166,13 C11.534668,13 11,13.534668 11,14.1920166 L11,31.2563019 C11,31.4991455 11.1968384,31.695755 11.4394531,31.695755 L16.7021332,31.695755 C16.9447479,31.695755 17.1415863,31.4991455 17.1415863,31.2563019 Z M16.2626801,30.8168488 L11.8789062,30.8168488 L11.8789062,14.1920166 C11.8789062,14.0194397 12.0192108,13.8789062 12.1920166,13.8789062 L15.9495697,13.8789062 C16.1221466,13.8789062 16.2624512,14.0194397 16.2624512,14.1920166 L16.2624512,30.8168488 L16.2626801,30.8168488 Z" id="Shape" fill-rule="nonzero"></path>
                <path d="M19.4394531,31.6426087 L24.7019043,31.6426087 C24.944519,31.6426087 25.1413574,31.4459992 25.1413574,31.2031555 L25.1413574,11.1917877 C25.1413574,10.534668 24.6066895,10 23.9493408,10 L20.1917877,10 C19.534668,10 19,10.534668 19,11.1917877 L19,31.2031555 C19,31.4459992 19.1966095,31.6426087 19.4394531,31.6426087 Z M19.8789062,11.1917877 C19.8789062,11.0192108 20.0192108,10.8789062 20.1917877,10.8789062 L23.9493408,10.8789062 C24.1219177,10.8789062 24.2624512,11.0192108 24.2624512,11.1917877 L24.2624512,30.7637024 L19.8789062,30.7637024 L19.8789062,11.1917877 Z" id="Shape" fill-rule="nonzero"></path>
                <path d="M19.3226378,7.92707394 C19.3169331,7.92950783 19.3111519,7.9318333 19.3052959,7.93404703 C15.4934978,9.37737591 7.71583553,11.7866719 0.439453125,11.7866719 C0.196609453,11.7866719 0,11.5898336 0,11.3472188 L0,8.18979394 C0,7.94695027 0.196609453,7.75034082 0.439453125,7.75034082 C1.37947078,7.75034082 4.08740042,7.56752141 5.04115105,7.50480781 C5.04454597,7.50458619 5.04793454,7.50440374 5.0513163,7.50426007 C13.293102,6.62572817 19.3418758,3.63628496 21.9090271,2.15509543 L21.4125824,1.44029744 C21.2132263,1.15327964 21.1933136,0.784550992 21.3606262,0.477849332 C21.5281677,0.171147671 21.8476867,-0.0121866645 22.1983337,0.00063071832 L26.9524383,0.16908775 C27.2440338,0.179387418 27.5067901,0.322667418 27.6731872,0.562306714 C27.8398132,0.801946011 27.8823852,1.09811914 27.7903747,1.37506613 L26.2884521,5.88907367 C26.1781311,6.22049457 25.8947754,6.45738728 25.5489349,6.50728355 C25.2030945,6.55695089 24.8643493,6.40977986 24.6649932,6.12276207 L24.2195892,5.48166406 C23.1479644,6.11589558 21.5176391,6.99571736 19.3734741,7.90895591 C19.3566957,7.91610733 19.3397224,7.92213542 19.3226378,7.92707394 Z M19.0272899,7.10105247 C19.0278614,7.10080605 19.0284338,7.10056069 19.0290069,7.1003164 C21.3771057,6.10033162 23.0916595,5.14406334 24.1168213,4.51784263 C24.3152618,4.3967641 24.5738983,4.45100914 24.7066498,4.64235435 L25.3866577,5.62128195 C25.4042816,5.64668785 25.4445648,5.64142355 25.4544067,5.61144002 C25.4569244,5.6041158 26.9563293,1.09766134 26.9563293,1.09766134 C26.9641113,1.07362877 26.9467163,1.04822287 26.9213104,1.04730734 C26.9016265,1.04662068 22.1669769,0.878850308 22.1669769,0.878850308 C22.1353912,0.878392574 22.1157074,0.912267027 22.1344757,0.939275113 C22.1482086,0.95895898 22.9012298,2.04294336 22.9012298,2.04294336 C23.044281,2.24893695 22.9811096,2.5419057 22.7661895,2.67053732 C20.4258728,4.07266742 14.0222168,7.43562828 5.12649533,8.38022363 C5.11316073,8.38157638 5.0999893,8.38227647 5.08684326,8.38246164 C4.24902599,8.43790566 1.69270576,8.61853098 0.87890625,8.62695822 L0.87890625,10.9054769 C7.827301,10.8384145 15.3277874,8.50030072 18.9942455,7.11213234 C19.0052046,7.1079743 19.0162267,7.10428432 19.0272899,7.10105247 Z" id="Combined-Shape"></path>
            </g>
            <path d="M51.2131641,8.78671875 C45.5469141,3.12046875 38.0133984,0 30,0 C21.9866016,0 14.4530859,3.12046875 8.78695313,8.78671875 C3.12046875,14.4530859 0,21.9867188 0,30 C0,38.0132812 3.12046875,45.5469141 8.78695313,51.2132812 C14.4530859,56.8795312 21.9866016,60 30,60 C38.0133984,60 45.5469141,56.8795312 51.2131641,51.2132812 C56.8795312,45.5469141 60,38.0132812 60,30 C60,21.9867188 56.8795312,14.4530859 51.2131641,8.78671875 Z M30,57.6096094 C14.7760547,57.6096094 2.39039063,45.2240625 2.39039063,30 C2.39039063,14.7759375 14.7760547,2.39039063 30,2.39039063 C45.2239453,2.39039063 57.6096094,14.7760547 57.6096094,30 C57.6096094,45.2239453 45.2239453,57.6096094 30,57.6096094 Z" id="Shape" fill="#000000" fill-rule="nonzero"></path>
        </g>
    </g>
</svg>