<?xml version="1.0" encoding="UTF-8"?>
<svg width="60px" height="60px" viewBox="0 0 60 60" version="1.1" xmlns="http://www.w3.org/2000/svg" xmlns:xlink="http://www.w3.org/1999/xlink">
    <!-- Generator: Sketch 52.6 (67491) - http://www.bohemiancoding.com/sketch -->
    <title>step-4@2x</title>
    <desc>Created with Sketch.</desc>
    <g id="Page-1" stroke="none" stroke-width="1" fill="none" fill-rule="evenodd">
        <g id="step-4" fill-rule="nonzero">
            <g id="checked">
                <circle id="Oval" fill="#4A90E2" cx="30" cy="30" r="28.021978"></circle>
                <path d="M51.2131641,8.78671875 C45.5469141,3.12046875 38.0133984,0 30,0 C21.9866016,0 14.4530859,3.12046875 8.78695313,8.78671875 C3.12046875,14.4530859 0,21.9867188 0,30 C0,38.0132812 3.12046875,45.5469141 8.78695313,51.2132812 C14.4530859,56.8795312 21.9866016,60 30,60 C38.0133984,60 45.5469141,56.8795312 51.2131641,51.2132812 C56.8795312,45.5469141 60,38.0132812 60,30 C60,21.9867188 56.8795312,14.4530859 51.2131641,8.78671875 Z M30,57.6096094 C14.7760547,57.6096094 2.39039063,45.2240625 2.39039063,30 C2.39039063,14.7759375 14.7760547,2.39039063 30,2.39039063 C45.2239453,2.39039063 57.6096094,14.7760547 57.6096094,30 C57.6096094,45.2239453 45.2239453,57.6096094 30,57.6096094 Z" id="Shape" fill="#000000"></path>
            </g>
            <g id="wall" transform="translate(13.000000, 20.000000)" fill="#FFFFFF" stroke="#FFFFFF" stroke-width="1.1">
                <path d="M26.0970874,8.02774263 C26.0970874,7.95013824 26.0970874,7.95013824 26.0970874,7.87253386 L30.2912621,7.87253386 C31.223301,7.87253386 32,7.09648999 32,6.16523736 L32,1.74178734 C32,0.810534702 31.223301,0.0344908384 30.2912621,0.0344908384 L26.0970874,0.0344908384 C26.0970874,-0.043113548 8.23777451,0.0344908384 7.39250502,0.0344908384 C6.54723552,0.0344908384 5.90291262,0.902354457 5.90291262,1.74178734 C5.90291262,2.30140926 5.90291262,3.7758926 5.90291262,6.16523736 C5.90291262,6.24284175 5.90291262,6.24284175 5.90291262,6.32044613 L1.70873786,6.32044613 C0.776699029,6.32044613 0,7.09648999 0,8.02774263 L0,12.4511927 C0,13.3824453 0.776699029,14.1584892 1.70873786,14.1584892 L5.90291262,14.1584892 C5.90291262,14.2360935 5.90291262,14.2360935 5.90291262,14.3136979 L5.90291262,18.7371479 C5.90291262,19.6684006 6.67961165,20.4444444 7.61165049,20.4444444 L18.0194175,20.4444444 C18.407767,20.4444444 19.5728155,20.4444444 19.8834951,20.4444444 L30.2912621,20.4444444 C31.223301,20.4444444 32,19.6684006 32,18.7371479 L32,14.3136979 C32,13.3824453 31.223301,12.6064014 30.2912621,12.6064014 L26.0970874,12.6064014 C26.0970874,12.528797 26.0970874,12.528797 26.0970874,12.4511927 L26.0970874,8.02774263 Z M13.9805825,1.66418295 L17.9417476,1.66418295 C18.0194175,1.66418295 18.0970874,1.74178734 18.0970874,1.81939172 L18.0970874,6.24284175 C18.0970874,6.32044613 18.0194175,6.39805052 17.9417476,6.39805052 L13.9805825,6.39805052 L12.1165049,6.39805052 L7.61165049,6.39805052 C7.53398058,6.39805052 7.45631068,6.32044613 7.45631068,6.24284175 L7.45631068,1.81939172 C7.45631068,1.74178734 7.53398058,1.66418295 7.61165049,1.66418295 L12.1165049,1.66418295 L13.9805825,1.66418295 Z M1.70873786,12.7616102 C1.63106796,12.7616102 1.55339806,12.6840058 1.55339806,12.6064014 L1.55339806,8.1829514 C1.55339806,8.10534702 1.63106796,8.02774263 1.70873786,8.02774263 L7.61165049,8.02774263 L12.1165049,8.02774263 C12.1941748,8.02774263 12.2718447,8.10534702 12.2718447,8.1829514 L12.2718447,12.6064014 C12.2718447,12.6840058 12.1941748,12.7616102 12.1165049,12.7616102 L7.61165049,12.7616102 L1.70873786,12.7616102 Z M18.0194175,19.1251699 L7.61165049,19.1251699 C7.53398058,19.1251699 7.45631068,19.0475655 7.45631068,18.9699611 L7.45631068,14.5465111 C7.45631068,14.4689067 7.53398058,14.3913023 7.61165049,14.3913023 L12.1165049,14.3913023 L13.9805825,14.3913023 L17.9417476,14.3913023 C18.0194175,14.3913023 18.0970874,14.4689067 18.0970874,14.5465111 L18.0970874,18.9699611 C18.1747573,19.0475655 18.0970874,19.1251699 18.0194175,19.1251699 Z M18.0194175,12.6840058 L14.0582524,12.6840058 C13.9805825,12.6840058 13.9029126,12.6064014 13.9029126,12.528797 L13.9029126,8.10534702 C13.9029126,8.02774263 13.9805825,7.95013824 14.0582524,7.95013824 L18.0194175,7.95013824 L19.8834951,7.95013824 L24.3883495,7.95013824 C24.4660194,7.95013824 24.5436893,8.02774263 24.5436893,8.10534702 L24.5436893,12.528797 C24.5436893,12.6064014 24.4660194,12.6840058 24.3883495,12.6840058 L19.8834951,12.6840058 L18.0194175,12.6840058 Z M30.2912621,14.3136979 C30.368932,14.3136979 30.4466019,14.3913023 30.4466019,14.4689067 L30.4466019,18.8923567 C30.4466019,18.9699611 30.368932,19.0475655 30.2912621,19.0475655 L19.8834951,19.0475655 C19.8058252,19.0475655 19.7281553,18.9699611 19.7281553,18.8923567 L19.7281553,14.4689067 C19.7281553,14.3913023 19.8058252,14.3136979 19.8834951,14.3136979 L24.3883495,14.3136979 L30.2912621,14.3136979 Z M24.3883495,6.39805052 L19.8834951,6.39805052 C19.8058252,6.39805052 19.7281553,6.32044613 19.7281553,6.24284175 L19.7281553,1.81939172 C19.7281553,1.74178734 19.8058252,1.66418295 19.8834951,1.66418295 L24.3883495,1.66418295 L30.2912621,1.66418295 C30.368932,1.66418295 30.4466019,1.74178734 30.4466019,1.81939172 L30.4466019,6.24284175 C30.4466019,6.32044613 30.368932,6.39805052 30.2912621,6.39805052 L24.3883495,6.39805052 Z" id="Shape"></path>
            </g>
        </g>
    </g>
</svg>