<svg xmlns="http://www.w3.org/2000/svg" width="80" height="80" viewBox="0 0 80 80">
    <g fill="none" fill-rule="evenodd">
        <path fill="#4A90E2" d="M77.01 39.626c0 20.646-16.738 37.383-37.384 37.383S2.243 60.272 2.243 39.626c0-20.646 16.737-37.383 37.383-37.383 20.646 0 37.383 16.737 37.383 37.383"/>
        <path fill="#64C1BE" d="M57.954 6.729l7.679 4.73 6.466 8.108 4.985 11.623.673 8.252-3.368 3.1-3.772.81-4.31-5.338-1.348 3.717-2.155 10.135-.674 6.487-2.829 3.954-3.787 1.992-3.891-1.992-1.752-5.981v-4.054l-3.502-1.217-3.099-2.999-4.176-3.455-3.809-3.276-2.388-4.46v-2.271L34.858 27l3.293-4.614 2.56 2.046 1.616 2.703L45.021 27l2.021-3.513 1.482-3.38 5.523-2.161 2.56-2.433.539-4.054zM20.435 7.477l1.247 3.234.774 6.218-3.321 4.696-4.826 4.986v3.368l-.67 2.83L2.242 38.13 3.275 27.15l3.66-7.95 4.948-6.064zM3.738 50.178l8.639-3.823 2.164.82 1.615 4.232v3.823l1.345 2.32 6.054 2.731 5.247 2.493 2.977 4.334 1.866 4.505-.807 6.144-8.436-2.126-8.246-5.793-6.592-6.417-5.528-9.147z"/>
        <path fill="#000" d="M40 76.522C19.863 76.522 3.478 60.139 3.478 40 3.478 19.86 19.863 3.478 40 3.478c20.14 0 36.522 16.383 36.522 36.522 0 20.14-16.383 36.522-36.522 36.522M40 0C17.944 0 0 17.944 0 40s17.944 40 40 40 40-17.944 40-40S62.056 0 40 0"/>
        <path fill="#000" d="M73.42 41.803c-.417.312-.93.43-1.44.33a1.79 1.79 0 0 1-1.207-.85l-1.802-3.014a2.788 2.788 0 0 0-2.86-1.332 2.804 2.804 0 0 0-2.295 2.172l-2.891 13.053a1.722 1.722 0 0 0-.042.378c0 4.527-.994 7.761-2.874 9.356-1.72 1.457-3.685 1.142-3.747 1.133-.225-.042-.395.14-.76-.251-1.082-1.16-1.63-5.204-1.33-9.84.034-.551-.162-1.1-.54-1.503a2.023 2.023 0 0 0-1.473-.638c-1.948 0-3.848-.946-5.212-2.597-1.69-2.051-4.119-3.794-5.856-4.894a5.27 5.27 0 0 1-1.9-2.097l-2.004-4.019a2.888 2.888 0 0 1-.29-1.631c.426-3.566 2.348-8.16 3.544-10.752l1.576 2.633c1.043 1.743 3.008 2.599 5.014 2.193 1.944-.4 3.376-1.917 3.644-3.871l.036-.276c.238-2.03 1.547-3.755 3.415-4.505l4.19-1.68c.087-.035.174-.079.256-.127 3.301-2.012 2.874-6.826 2.007-10.35 10.762 6.391 17.634 18.01 17.934 30.653l-3.093 2.326zM56.803 3.956a1.754 1.754 0 0 0-.502-.146l-.402-.054a1.716 1.716 0 0 0-1.61.667 1.748 1.748 0 0 0-.223 1.732c1.193 2.862 2.615 8.647.797 9.975l-4.028 1.616c-3.05 1.223-5.187 4.033-5.578 7.343l-.027.2c-.095.694-.66.882-.898.93-.431.088-1.006-.017-1.336-.571l-1.726-2.885c-.635-1.061-1.806-1.692-3.022-1.617a3.303 3.303 0 0 0-2.83 1.908c-1.551 3.324-3.5 8.12-3.972 12.093a6.376 6.376 0 0 0 .632 3.6l2.004 4.02a8.771 8.771 0 0 0 3.154 3.486c1.248.79 3.561 2.382 5.035 4.167 1.677 2.034 3.936 3.348 6.362 3.74-.097 3.265.117 8.631 2.333 11.002.775.827 1.746 1.282 2.822 1.319.195.026.537.061.98.061 1.29 0 3.443-.293 5.412-1.924 2.742-2.273 4.148-6.271 4.18-11.885l2.488-11.235.945 1.58a5.305 5.305 0 0 0 3.52 2.476 5.29 5.29 0 0 0 4.193-.962l3.799-2.859c.438-.33.695-.845.695-1.394 0-15.559-9.107-29.84-23.197-36.383zM31.376 74.805l-.186.654C19.022 72.442 9.104 63.062 5.322 50.991l6.774-2.563a1.354 1.354 0 0 1 1.284.16c.38.266.6.687.6 1.154v2.618c0 3.747 2.203 7.12 5.612 8.596l5.313 2.299a10.55 10.55 0 0 1 3.313 2.264l1.044 1.053a8.447 8.447 0 0 1 2.114 8.233m.322-10.693l-1.044-1.052a13.94 13.94 0 0 0-4.392-3.002l-5.313-2.3a5.868 5.868 0 0 1-3.524-5.398v-2.618a4.9 4.9 0 0 0-2.083-4.014 4.81 4.81 0 0 0-4.455-.558L2.614 48.3a1.743 1.743 0 0 0-1.06 2.08c3.879 14.581 15.854 25.902 30.51 28.84a1.727 1.727 0 0 0 1.995-1.228l.63-2.23a11.95 11.95 0 0 0-2.991-11.65M21.903 15.388c0 1.497-.572 2.9-1.612 3.957l-4.937 5.027a5.315 5.315 0 0 0-1.25 5.399c.295.898-.152 1.876-1.014 2.227l-8.02 3.237c1.33-10.55 7.11-19.99 15.892-25.883.614 1.16.94 2.458.94 3.767v2.27zm.885-9.51a1.691 1.691 0 0 0-2.208-.397C9.268 12.357 2.1 24.436 1.406 37.79c-.031.591.235 1.158.706 1.505a1.68 1.68 0 0 0 1.624.214l10.625-4.27c2.545-1.037 3.86-3.921 2.992-6.569a1.808 1.808 0 0 1 .425-1.83l4.937-5.027a9.102 9.102 0 0 0 2.614-6.423v-2.269c0-2.616-.903-5.188-2.54-7.243z"/>
    </g>
</svg>
