<svg xmlns="http://www.w3.org/2000/svg" width="29" height="29" viewBox="0 0 29 29">
    <path fill="#FAD843" stroke="#000" stroke-width="1.98" d="M7.676 20.22l-4.02-2.386C1.96 16.826 1.4 14.632 2.408 12.935c.305-.514.734-.943 1.248-1.249L7.676 9.3c.759-.451 1.393-1.085 1.844-1.844l2.386-4.02c1.008-1.697 3.202-2.256 4.899-1.248.514.305.943.734 1.249 1.248l2.386 4.02c.451.759 1.085 1.393 1.844 1.844l4.02 2.386c1.697 1.008 2.256 3.202 1.248 4.899-.305.514-.734.943-1.248 1.249l-4.02 2.386c-.759.451-1.393 1.085-1.844 1.844l-2.386 4.02c-1.008 1.697-3.202 2.256-4.899 1.248-.514-.305-.943-.734-1.249-1.248l-2.386-4.02c-.451-.759-1.085-1.393-1.844-1.844z"/>
</svg>
