<?xml version="1.0" encoding="UTF-8"?>
<svg width="156px" height="201px" viewBox="0 0 156 201" version="1.1" xmlns="http://www.w3.org/2000/svg" xmlns:xlink="http://www.w3.org/1999/xlink">
    <!-- Generator: Sketch 60 (88103) - https://sketch.com -->
    <title>multiply_points_cta</title>
    <desc>Created with Sketch.</desc>
    <g id="Page-1" stroke="none" stroke-width="1" fill="none" fill-rule="evenodd">
        <g id="multiply_points_cta" transform="translate(0.000000, -15.000000)" fill="#4A90E2" fill-rule="nonzero" stroke="#000000" stroke-width="2">
            <g id="Group-3" transform="translate(108.057714, 107.942286) rotate(30.000000) translate(-108.057714, -107.942286) translate(29.057714, 28.942286)">
                <g id="Group" transform="translate(30.000000, 0.000000)">
                    <circle id="Oval" cx="4" cy="4" r="4"></circle>
                    <circle id="Oval" cx="34" cy="4" r="4"></circle>
                </g>
                <g id="Group" transform="translate(0.000000, 30.000000)">
                    <circle id="Oval" cx="4" cy="4" r="4"></circle>
                    <circle id="Oval" cx="34" cy="4" r="4"></circle>
                    <circle id="Oval" cx="64" cy="4" r="4"></circle>
                    <circle id="Oval" cx="94" cy="4" r="4"></circle>
                </g>
                <g id="Group" transform="translate(0.000000, 60.000000)">
                    <circle id="Oval" cx="4" cy="4" r="4"></circle>
                    <circle id="Oval" cx="34" cy="4" r="4"></circle>
                    <circle id="Oval" cx="64" cy="4" r="4"></circle>
                    <circle id="Oval" cx="94" cy="4" r="4"></circle>
                </g>
                <g id="Group" transform="translate(0.000000, 90.000000)">
                    <circle id="Oval" cx="4" cy="4" r="4"></circle>
                    <circle id="Oval" cx="34" cy="4" r="4"></circle>
                    <circle id="Oval" cx="64" cy="4" r="4"></circle>
                    <circle id="Oval" cx="94" cy="4" r="4"></circle>
                    <circle id="Oval" cx="124" cy="4" r="4"></circle>
                </g>
                <g id="Group" transform="translate(0.000000, 120.000000)">
                    <circle id="Oval" cx="4" cy="4" r="4"></circle>
                    <circle id="Oval" cx="34" cy="4" r="4"></circle>
                    <circle id="Oval" cx="64" cy="4" r="4"></circle>
                    <circle id="Oval" cx="94" cy="4" r="4"></circle>
                    <circle id="Oval" cx="124" cy="4" r="4"></circle>
                    <circle id="Oval" cx="154" cy="4" r="4"></circle>
                </g>
                <g id="Group" transform="translate(0.000000, 150.000000)">
                    <circle id="Oval" cx="4" cy="4" r="4"></circle>
                    <circle id="Oval" cx="34" cy="4" r="4"></circle>
                    <circle id="Oval" cx="64" cy="4" r="4"></circle>
                    <circle id="Oval" cx="94" cy="4" r="4"></circle>
                    <circle id="Oval" cx="124" cy="4" r="4"></circle>
                    <circle id="Oval" cx="154" cy="4" r="4"></circle>
                </g>
            </g>
        </g>
    </g>
</svg>