<svg xmlns="http://www.w3.org/2000/svg" xmlns:xlink="http://www.w3.org/1999/xlink" width="120" height="122" viewBox="0 0 120 122">
    <defs>
        <linearGradient id="dgi9jlxlbc" x1="-.001%" x2="100.007%" y1="50.004%" y2="50.004%">
            <stop offset="0%" stop-color="#7692FF"/>
            <stop offset="100%" stop-color="#003F91"/>
        </linearGradient>
        <filter id="98e008bd2a" width="105.5%" height="105.5%" x="-4.2%" y="-1.4%" filterUnits="objectBoundingBox">
            <feOffset dx="-3" dy="3" in="SourceAlpha" result="shadowOffsetOuter1"/>
            <feComposite in="shadowOffsetOuter1" in2="SourceAlpha" operator="out" result="shadowOffsetOuter1"/>
            <feColorMatrix in="shadowOffsetOuter1" values="0 0 0 0 0 0 0 0 0 0 0 0 0 0 0 0 0 0 0.07 0"/>
        </filter>
        <path id="qzj2nep9zb" d="M13.615.823L.82 13.643c-.525.527-.82 1.24-.82 1.982v90.124c0 1.549 1.256 2.805 2.805 2.805H92.74c.744 0 1.459-.297 1.985-.824l12.795-12.82c.525-.526.82-1.239.82-1.981V2.805c0-1.55-1.256-2.805-2.805-2.805H15.6c-.745 0-1.46.296-1.985.823z"/>
    </defs>
    <g fill="none" fill-rule="evenodd" transform="rotate(-6 108.416 -9.426)">
        <use fill="#000" filter="url(#98e008bd2a)" xlink:href="#qzj2nep9zb"/>
        <path fill="#D8D8D8" stroke="#1F1B24" stroke-linejoin="square" stroke-width="1.566" d="M14.169 1.377L1.374 14.197c-.379.379-.591.892-.591 1.428v90.124c0 1.116.905 2.022 2.022 2.022H92.74c.537 0 1.051-.214 1.43-.594l12.796-12.82c.378-.38.59-.893.59-1.428V2.805c0-1.117-.905-2.022-2.021-2.022H15.6c-.537 0-1.052.214-1.431.594z"/>
        <path fill="#FFF" fill-rule="nonzero" stroke="#1F1B24" stroke-width="1.566" d="M15.228 0.783H107.55699999999999V93.297H15.228z"/>
        <g fill-rule="nonzero">
            <path fill="#FFF" d="M11.069 35.447l5.489 5.5c2.937 2.94 7.696 2.94 10.633 0l5.764-5.786 3.411-3.418 4.493-4.502c2.923-2.948 2.923-7.707 0-10.655L27.183 2.882c-2.94-2.931-7.692-2.931-10.633 0l-13.674 13.7c-2.925 2.947-2.925 7.708 0 10.655l4.509 4.518 3.684 3.692z" transform="translate(39.209 24.859)"/>
            <path fill="url(#dgi9jlxlbc)" d="M21.849 43.804c-1.709.005-3.376-.528-4.766-1.523-.359-.258-.696-.545-1.007-.858L2.394 27.72c-3.191-3.214-3.191-8.407 0-11.62L16.076 2.397c3.207-3.197 8.39-3.197 11.597 0l13.669 13.71c3.184 3.216 3.184 8.403 0 11.62L27.666 41.43c-1.55 1.53-3.641 2.383-5.817 2.373zm.018-42.429c-1.812-.01-3.553.707-4.835 1.99l-13.674 13.7c-2.656 2.682-2.656 7.008 0 9.689l13.674 13.71c.263.262.546.502.847.72 2.727 1.93 6.442 1.627 8.822-.72l13.684-13.71c2.656-2.681 2.656-7.007 0-9.688L26.7 3.365c-1.281-1.284-3.022-2-4.834-1.99z" transform="translate(39.209 24.859)"/>
            <path fill="#181D1C" d="M9.624 24.063L9.624 18.494 13.135 18.494 13.135 19.672 10.863 19.672 10.863 20.731 12.939 20.731 12.939 21.823 10.863 21.823 10.863 22.892 13.151 22.892 13.151 24.07zM14.1 25.555V20.16h1.152v.393c.282-.335.706-.518 1.143-.493 1.13 0 1.812.863 1.812 2.033 0 1.171-.76 2.057-1.859 2.057-.392.027-.777-.116-1.057-.393v1.8H14.1zm2.054-4.415c-.463 0-.878.314-.878.966 0 .652.415.982.878.982s.884-.322.884-.982c0-.66-.416-.966-.884-.966zM19.563 18.268c.283-.003.54.165.65.426.111.261.053.563-.146.765-.199.201-.5.263-.761.155-.262-.108-.433-.363-.433-.647.002-.382.309-.693.69-.7zm-.588 5.796V20.16h1.192v3.904l-1.192.001zM25.066 22.106c.002.84-.502 1.597-1.275 1.92-.774.322-1.665.145-2.258-.448-.592-.593-.77-1.485-.45-2.26.32-.776 1.075-1.282 1.913-1.282.553-.016 1.088.198 1.48.589.39.392.604.927.59 1.481zm-1.192 0c0-.66-.423-.966-.878-.966s-.878.306-.878.966c0 .66.43.982.878.982.447 0 .878-.322.878-.982zM27.025 24.063h-1.192v-3.904h1.152v.446c.248-.355.658-.561 1.09-.548.98 0 1.42.698 1.42 1.554v2.451h-1.192v-2.247c0-.393-.196-.675-.635-.675-.179-.004-.35.069-.473.199-.122.13-.184.306-.17.484v2.24zM34.04 22.939c-.195.676-.807 1.241-1.795 1.241-.55.014-1.083-.202-1.468-.597-.385-.395-.59-.933-.563-1.485 0-1.257.933-2.056 1.945-2.056 1.208 0 1.96.744 1.96 2.001.002.124-.006.247-.023.37h-2.73c.048.447.438.78.887.754.348.033.673-.179.784-.51l1.004.282zm-1.081-1.297c-.016-.298-.22-.66-.784-.66-.396-.024-.74.266-.785.66h1.569z" transform="translate(39.209 24.859)"/>
        </g>
        <path stroke="#1F1B24" stroke-width="1.566" d="M1.204 107.347l14.445-14.473-14.445 14.473z"/>
    </g>
</svg>
