<svg xmlns="http://www.w3.org/2000/svg" width="89" height="89" viewBox="0 0 89 89">
    <g fill="none" fill-rule="nonzero" transform="translate(2 2)">
        <circle cx="42.5" cy="42.5" r="42.5" fill="#4A90E2" stroke="#000" stroke-width="3"/>
        <path fill="#FFF" d="M57.968 25h-29.97A3.007 3.007 0 0 0 25 27.997v29.971a3.007 3.007 0 0 0 2.997 2.997h29.97a3.007 3.007 0 0 0 2.998-2.997v-29.97A3.007 3.007 0 0 0 57.968 25zm0 32.968H45.98V45.98h7.492v-2.997H45.98v-2.997a4.496 4.496 0 0 1 4.495-4.495h2.997v-2.998h-2.997a7.493 7.493 0 0 0-7.493 7.493v2.997h-2.997v2.997h2.997v11.99H27.997V27.996h29.97v29.971z"/>
    </g>
</svg>
