<svg xmlns="http://www.w3.org/2000/svg" xmlns:xlink="http://www.w3.org/1999/xlink" width="145" height="156" viewBox="0 0 145 156">
    <defs>
        <path id="gmkfk4l0ib" d="M15.113.914L.912 15.13C.328 15.715 0 16.507 0 17.333v99.946c0 1.722 1.395 3.117 3.116 3.117h99.834c.827 0 1.62-.33 2.205-.914l14.201-14.217c.584-.584.912-1.376.912-2.202V3.116c0-1.72-1.395-3.116-3.116-3.116H17.318c-.827 0-1.62.329-2.205.914z"/>
        <path id="p42zktm01c" d="M0 0H65.288V19.607H0z"/>
        <filter id="i6jgicco7a" width="105%" height="105%" x="-3.7%" y="-1.2%" filterUnits="objectBoundingBox">
            <feOffset dx="-3" dy="3" in="SourceAlpha" result="shadowOffsetOuter1"/>
            <feComposite in="shadowOffsetOuter1" in2="SourceAlpha" operator="out" result="shadowOffsetOuter1"/>
            <feColorMatrix in="shadowOffsetOuter1" values="0 0 0 0 0 0 0 0 0 0 0 0 0 0 0 0 0 0 0.07 0"/>
        </filter>
    </defs>
    <g fill="none" fill-rule="evenodd" transform="rotate(-19 114.158 28.003)">
        <use fill="#000" filter="url(#i6jgicco7a)" xlink:href="#gmkfk4l0ib"/>
        <path fill="#D8D8D8" stroke="#1F1B24" stroke-linejoin="square" stroke-width="1.74" d="M15.728 1.529l-14.2 14.216c-.422.421-.658.992-.658 1.588v99.946c0 1.241 1.006 2.247 2.246 2.247h99.834c.596 0 1.168-.237 1.59-.66l14.2-14.215c.422-.422.658-.993.658-1.588V3.116c0-1.24-1.006-2.246-2.246-2.246H17.318c-.597 0-1.168.237-1.59.659z"/>
        <path fill="#FFF" fill-rule="nonzero" stroke="#1F1B24" stroke-width="1.74" d="M16.906 0.87H119.398V103.473H16.906z"/>
        <g transform="translate(35.69 42.385)">
            <mask id="rbnl8pxwcd" fill="#fff">
                <use xlink:href="#p42zktm01c"/>
            </mask>
            <g mask="url(#rbnl8pxwcd)">
                <g fill-rule="nonzero" transform="translate(0 1.716)">
                    <path fill="#253C53" d="M18.585 3.464v2.798h4.061V8.28h-4.06v4.345h-2.297V1.447h7.095v2.017h-4.799zm14.781.876v8.371h-2.31v-.718c-.68.57-1.535.885-2.42.894-1.095 0-1.929-.27-2.462-.828-.547-.555-.82-1.45-.82-2.668V4.34h2.31v5.039c-.034.4.088.799.342 1.11.31.276.723.409 1.135.366.712-.034 1.39-.317 1.916-.8V4.34h2.31zm2.234 6.14V0h2.288v9.69c-.028.254.033.51.174.723.169.154.396.228.623.201.289.003.577-.037.853-.12v1.956c-.471.107-.953.165-1.436.174-1.676 0-2.502-.71-2.502-2.144zm5.517 0V0h2.288v9.69c-.028.254.033.51.175.723.168.154.396.228.622.201.29.003.577-.037.854-.12v1.956c-.472.107-.953.165-1.437.174-1.676 0-2.502-.71-2.502-2.144z"/>
                    <path fill="#A4C71C" d="M54.779 4.34v8.371h-2.311v-.718c-.68.57-1.535.885-2.42.894-1.094 0-1.929-.27-2.462-.828-.547-.555-.82-1.45-.82-2.668V4.34h2.31v5.039c-.034.4.089.799.342 1.11.31.276.723.409 1.136.366.712-.034 1.39-.317 1.915-.8V4.34h2.31zm8.705.252c.582.35 1.044.87 1.323 1.49.342.766.507 1.6.482 2.44.025.839-.14 1.673-.482 2.44-.28.62-.741 1.14-1.323 1.49-.593.344-1.268.517-1.952.5-.828-.02-1.625-.32-2.26-.853v4.078h-2.26V4.321h2.26v.623c.632-.54 1.43-.846 2.26-.867.684-.003 1.358.174 1.952.515zm-1.017 5.703c.356-.525.525-1.154.482-1.786.042-.63-.128-1.254-.482-1.775-.343-.417-.865-.644-1.403-.61-.653.022-1.282.255-1.792.664v3.414c.507.416 1.137.654 1.792.677.536.056 1.064-.163 1.403-.582v-.002z"/>
                    <circle cx="9.13" cy="2.565" r="1" fill="#253C53"/>
                    <path fill="#253C53" d="M9.45 2.062C7.815 1.092 5.83.917 4.051 1.59 1.722 2.493.141 4.683.014 7.18c-.128 2.498 1.224 4.838 3.45 5.973 1.904.944 4.154.863 5.985-.215.257-.166.337-.504.184-.768-.154-.263-.488-.359-.758-.216-.74.447-1.582.693-2.445.714-.699.032-1.397-.087-2.046-.349-1.228-.487-2.223-1.428-2.779-2.628-.277-.607-.436-1.26-.467-1.927-.038-.696.067-1.393.307-2.048.225-.594.55-1.146.962-1.63.435-.515.972-.934 1.578-1.229 1.558-.783 3.409-.712 4.903.189.614.363 1.175-.62.56-.984h.001z"/>
                    <path fill="#A4C71C" d="M3.395 6.474c-.546 1.384-.137 2.964 1.014 3.907 1.14.92 2.723 1.054 4 .338.713-.422 1.26-1.075 1.549-1.852.077-.303-.098-.613-.398-.703-.303-.076-.614.095-.712.393-.387 1.03-1.436 1.654-2.524 1.501-1.09-.153-1.926-1.041-2.015-2.138-.027-.393.039-.786.192-1.149.078-.303-.098-.614-.397-.703-.307-.073-.619.104-.713.405h.004z"/>
                    <circle cx="4.006" cy="6.904" r="1" fill="#A4C71C"/>
                    <path fill="#253C53" d="M8.248 6.06c.017-.056.026-.113.028-.17-.009-.284-.245-.507-.529-.498-.151 0-.297.061-.403.17L5.912 7.043c-.168.16-.264.383-.264.616.028.446.364.813.807.88.442.066.87-.186 1.028-.606l.751-1.846c0-.013 0-.013.014-.026v-.002z"/>
                </g>
            </g>
        </g>
        <path stroke="#1F1B24" stroke-width="1.74" d="M1.336 119.058l16.036-16.053-16.036 16.053z"/>
    </g>
</svg>
