<svg xmlns="http://www.w3.org/2000/svg" xmlns:xlink="http://www.w3.org/1999/xlink" width="220" height="213" viewBox="0 0 220 213">
    <defs>
        <linearGradient id="rszsc42iic" x1=".04%" x2="100.02%" y1="50.015%" y2="50.015%">
            <stop offset="27.41%" stop-color="#9146FF"/>
            <stop offset="100%" stop-color="#473198"/>
        </linearGradient>
        <filter id="ek6keivota" width="105.2%" height="105.2%" x="-3.9%" y="-1.3%" filterUnits="objectBoundingBox">
            <feOffset dx="-5" dy="5" in="SourceAlpha" result="shadowOffsetOuter1"/>
            <feComposite in="shadowOffsetOuter1" in2="SourceAlpha" operator="out" result="shadowOffsetOuter1"/>
            <feColorMatrix in="shadowOffsetOuter1" values="0 0 0 0 0 0 0 0 0 0 0 0 0 0 0 0 0 0 0.07 0"/>
        </filter>
        <path id="e3xaql6agb" d="M24.235 1.457L1.464 24.18C.527 25.117 0 26.386 0 27.711V187.45c0 2.753 2.232 4.986 4.986 4.986H165.07c1.32 0 2.587-.524 3.522-1.457l22.77-22.725c.938-.935 1.464-2.205 1.464-3.529V4.986c0-2.754-2.232-4.986-4.986-4.986H27.757c-1.321 0-2.588.524-3.522 1.457z"/>
    </defs>
    <g fill="none" fill-rule="evenodd" transform="rotate(7 34.707 232.094)">
        <use fill="#000" filter="url(#ek6keivota)" xlink:href="#e3xaql6agb"/>
        <path fill="#D8D8D8" stroke="#1F1B24" stroke-linejoin="square" stroke-width="2.784" d="M25.218 2.442L2.448 25.167c-.676.674-1.056 1.589-1.056 2.543v159.74c0 1.985 1.61 3.594 3.594 3.594H165.07c.952 0 1.865-.378 2.538-1.05l22.771-22.725c.676-.674 1.055-1.59 1.055-2.544V4.986c0-1.985-1.609-3.594-3.594-3.594H27.757c-.952 0-1.865.378-2.54 1.05z"/>
        <path fill="#FFF" fill-rule="nonzero" stroke="#1F1B24" stroke-width="2.784" d="M27.102 1.392H191.434V165.386H27.102z"/>
        <g>
            <g fill-rule="nonzero">
                <path fill="url(#rszsc42iic)" d="M.502.25h13.399c.167 0 .28.112.28.28v19.388c0 .083-.029.14-.085.195l-6.699 6.435c-.112.111-.279.111-.39 0l-6.7-6.435c-.056-.056-.084-.14-.084-.195V.558C.223.39.363.25.503.25z" transform="translate(47.453 63.567) translate(0 10.029)"/>
                <path fill="#FFF" d="M7.537 22.648l3.35-3.343c.055-.056.083-.111.083-.195V3.315c0-.167-.14-.279-.28-.279H3.714c-.14 0-.28.112-.28.279v15.767c0 .084.028.14.084.195l3.629 3.37c.112.112.279.084.39 0z" transform="translate(47.453 63.567) translate(0 10.029)"/>
            </g>
            <g fill-rule="nonzero">
                <path fill="#FFC145" d="M13.901 8.023H.502c-.14 0-.279-.14-.279-.279V2.117H14.18v5.627c0 .167-.112.279-.279.279z" transform="translate(47.453 63.567)"/>
                <path fill="#FFF" d="M11.807 6.296h-9.1c-.139 0-.279-.14-.279-.279v-1.7c0-.138.14-.278.28-.278h9.1c.14 0 .279.14.279.279v1.7c0 .138-.112.278-.28.278z" transform="translate(47.453 63.567)"/>
                <path fill="#FFC145" d="M2.4 2.145H.224V.418c0-.14.14-.279.28-.279h1.59c.14 0 .28.14.28.279L2.4 2.145zM14.18 2.145h-2.177V.418c0-.14.14-.279.279-.279h1.591c.168 0 .28.14.28.279l.027 1.727zM10.244 2.145H8.095V.418c0-.14.14-.279.28-.279h1.59c.14 0 .28.14.28.279v1.727zM6.336 2.145H4.16V.418c0-.14.14-.279.28-.279h1.59c.14 0 .28.14.28.279l.027 1.727z" transform="translate(47.453 63.567)"/>
            </g>
            <path d="M28.221 3.956H122.569V22.342H28.221z" transform="translate(47.453 63.567)"/>
            <g fill="#050813" fill-rule="nonzero">
                <path d="M.112 16.352L.112.251 4.494.251 4.494 16.352.112 16.352zM23.336 16.352h-5.722l-5.89-11.338h-.112c.14 1.783.223 3.148.223 4.095v7.271H7.983V.25h5.695l5.862 11.2h.055c-.111-1.616-.167-2.926-.167-3.9V.25h3.88v16.102h.028zM31.124 16.352L26.825 16.352 26.825.251 36.372.251 36.372 3.733 31.124 3.733 31.124 6.797 35.953 6.797 35.953 10.307 31.124 10.307zM48.933 16.352l-.782-3.008h-5.248l-.81 3.008h-4.8L42.568.167h5.806l5.332 16.185h-4.773zM47.23 9.778l-.698-2.647c-.167-.585-.363-1.337-.586-2.284-.223-.92-.39-1.588-.447-2.006-.056.363-.195 1.003-.39 1.839-.196.864-.615 2.563-1.285 5.07h3.406v.028zM62.47 16.352L59.178 4.764h-.112c.168 1.977.224 3.51.224 4.596v6.992h-3.852V.251h5.806L64.62 11.7h.084L67.998.25h5.806v16.102h-4.02V9.304c0-.362 0-.78.028-1.225 0-.446.056-1.533.14-3.288h-.112L66.574 16.38h-4.103v-.028zM83.071 6.24L85.862.279 90.58.279 85.276 10.084 85.276 16.38 80.894 16.38 80.894 10.196 75.59.251 80.336.251z" transform="translate(47.453 63.567) translate(29.868 4.736)"/>
            </g>
            <path d="M29.588 27.634H120.94900000000001V32.815H29.588z" transform="translate(47.453 63.567)"/>
            <g fill="#737AAE" fill-rule="nonzero">
                <path d="M.447 4.011L0 4.011 0 .028 2.233.028 2.233.446.475.446.475 1.894 2.121 1.894 2.121 2.312.475 2.312.475 4.011zM7.425 4.011l-.084-.417h-.028c-.14.195-.307.306-.446.39-.14.083-.335.111-.559.111-.307 0-.53-.084-.697-.223-.168-.14-.252-.362-.252-.64 0-.613.475-.92 1.452-.948l.502-.028v-.195c0-.222-.055-.417-.14-.529-.083-.111-.25-.167-.474-.167-.25 0-.53.084-.837.223l-.14-.334c.14-.084.307-.14.475-.195.167-.056.363-.056.53-.056.363 0 .614.083.782.223.167.139.251.418.251.752V4.01h-.335zM6.42 3.705c.28 0 .503-.084.67-.223.168-.14.251-.362.251-.64v-.28l-.446.029c-.363 0-.614.055-.782.167-.167.111-.251.25-.251.473 0 .168.056.279.14.363.083.083.223.111.418.111zM13.538 4.011V2.09c0-.25-.056-.418-.167-.557-.112-.14-.28-.167-.53-.167-.308 0-.531.084-.699.25-.167.168-.223.446-.223.836v1.56h-.446v-2.98h.362l.084.418h.028c.084-.14.223-.251.39-.335.168-.083.364-.111.56-.111.362 0 .641.083.809.25.167.168.279.446.279.836v1.95h-.447v-.028zM18.674 3.705c.084 0 .168 0 .224-.028.055-.028.14-.028.167-.028v.335c-.056.027-.112.055-.223.055-.112 0-.168.028-.251.028-.587 0-.866-.306-.866-.92V1.394h-.419V1.17l.42-.195.195-.64h.25v.696h.866v.362h-.865v1.755c0 .167.056.306.14.418.083.111.223.139.362.139zM24.313 4.011l-.084-.417h-.028c-.14.195-.307.306-.446.39-.14.083-.335.111-.559.111-.307 0-.53-.084-.698-.223-.167-.14-.25-.362-.25-.64 0-.613.474-.92 1.45-.948l.503-.028v-.195c0-.222-.056-.417-.14-.529-.083-.111-.25-.167-.474-.167-.251 0-.53.084-.837.223l-.14-.334c.14-.084.307-.14.475-.195.167-.056.362-.056.53-.056.363 0 .614.083.782.223.167.139.25.418.25.752V4.01h-.334zm-1.033-.306c.28 0 .502-.084.67-.223.167-.14.251-.362.251-.64v-.28l-.446.029c-.363 0-.615.055-.782.167-.168.111-.251.25-.251.473 0 .168.056.279.14.363.083.083.25.111.418.111zM30.314 3.204c0 .278-.111.501-.307.64-.195.14-.502.223-.865.223-.39 0-.698-.056-.921-.195v-.418c.14.084.307.14.474.167.168.028.335.056.475.056.223 0 .418-.028.558-.111.14-.084.195-.195.195-.335 0-.111-.055-.222-.14-.306-.083-.084-.306-.167-.585-.279-.28-.111-.475-.195-.586-.278-.112-.084-.196-.167-.252-.25-.056-.084-.083-.224-.083-.363 0-.25.111-.446.307-.585.195-.14.474-.223.81-.223.334 0 .641.056.948.195l-.167.362c-.307-.111-.559-.195-.81-.195-.223 0-.363.028-.474.112-.112.083-.168.167-.168.278 0 .084.028.14.056.195.028.056.112.112.195.167.084.056.28.112.53.223.364.14.587.251.727.39.14.14.083.335.083.53zM33.357 1.03h.474l.642 1.7c.14.39.224.669.28.836h.027c.028-.084.084-.251.14-.474.084-.223.335-.92.754-2.061h.474l-1.284 3.398c-.14.335-.279.585-.446.725-.168.139-.391.222-.615.222-.14 0-.279-.027-.418-.055v-.362c.111.027.223.027.335.027.307 0 .53-.167.67-.529l.167-.418-1.2-3.008zM45.974 4.011L43.741 4.011 43.741.028 45.974.028 45.974.446 44.215.446 44.215 1.727 45.862 1.727 45.862 2.145 44.215 2.145 44.215 3.621 45.974 3.621zM51.5 3.204c0 .278-.11.501-.306.64-.196.14-.503.223-.866.223-.39 0-.697-.056-.92-.195v-.418c.139.084.306.14.474.167.167.028.335.056.474.056.224 0 .419-.028.559-.111.14-.084.195-.195.195-.335 0-.111-.056-.222-.14-.306-.083-.084-.307-.167-.586-.279-.279-.111-.474-.195-.586-.278-.112-.084-.195-.167-.251-.25-.056-.084-.084-.224-.084-.363 0-.25.112-.446.307-.585.195-.14.475-.223.81-.223.335 0 .642.056.949.195l-.168.362c-.307-.111-.558-.195-.81-.195-.223 0-.362.028-.474.112-.112.083-.167.167-.167.278 0 .084.028.14.055.195.028.056.112.112.196.167.084.056.279.112.53.223.363.14.586.251.726.39.028.167.084.335.084.53zM56.414 4.067c-.196 0-.363-.028-.53-.111-.168-.084-.308-.195-.42-.335h-.027c.027.168.027.335.027.502v1.226h-.446V1.03h.363l.056.418h.027c.112-.168.252-.279.42-.363.167-.083.334-.111.53-.111.39 0 .697.14.92.418.224.278.336.64.336 1.142 0 .501-.112.864-.335 1.142-.224.279-.53.39-.921.39zm-.056-2.702c-.307 0-.53.084-.67.25-.14.168-.196.446-.224.809v.111c0 .418.056.724.224.891.14.168.363.279.67.279.25 0 .446-.111.614-.306.14-.195.223-.502.223-.864s-.084-.669-.223-.864c-.14-.195-.363-.306-.614-.306zM63.81 2.535c0 .474-.111.864-.362 1.142-.251.279-.586.418-1.005.418-.28 0-.503-.056-.698-.195-.195-.14-.363-.306-.474-.53-.112-.222-.168-.5-.168-.807 0-.474.112-.864.363-1.142.251-.279.586-.418 1.005-.418.418 0 .753.14 1.005.418.223.25.335.64.335 1.114zm-2.26 0c0 .39.083.669.223.864.14.195.39.306.67.306.307 0 .53-.111.67-.306s.223-.502.223-.864c0-.39-.084-.669-.223-.864-.168-.195-.391-.306-.67-.306-.307 0-.53.084-.67.279-.168.222-.223.501-.223.891zM68.751.975c.14 0 .252 0 .363.028l-.056.418c-.111-.028-.223-.028-.335-.028-.25 0-.446.111-.614.306-.167.195-.25.446-.25.725V4.01h-.447v-2.98h.362l.056.557h.028c.112-.195.251-.334.39-.446.168-.111.336-.167.503-.167zM73.44 3.705c.085 0 .168 0 .224-.028.084 0 .14-.028.168-.028v.335c-.056.027-.112.055-.224.055-.111 0-.167.028-.25.028-.587 0-.866-.306-.866-.92V1.394h-.419V1.17l.419-.195.195-.64h.251v.696h.866v.362h-.866v1.755c0 .167.056.306.14.418.084.083.223.139.363.139zM79.163 3.204c0 .278-.111.501-.307.64-.195.14-.502.223-.865.223-.391 0-.698-.056-.921-.195v-.418c.14.084.307.14.474.167.168.028.335.056.475.056.223 0 .418-.028.558-.111.14-.084.195-.195.195-.335 0-.111-.055-.222-.14-.306-.083-.084-.306-.167-.585-.279-.28-.111-.475-.195-.587-.278-.111-.084-.195-.167-.25-.25-.057-.084-.085-.224-.085-.363 0-.25.112-.446.308-.585.195-.14.474-.223.809-.223.335 0 .642.056.95.195l-.168.362c-.307-.111-.559-.195-.81-.195-.223 0-.363.028-.474.112-.112.083-.168.167-.168.278 0 .084.028.14.056.195.028.056.112.112.195.167.084.056.28.112.53.223.364.14.587.251.726.39.028.167.084.335.084.53z" transform="translate(47.453 63.567) translate(30.147 27.857)"/>
            </g>
        </g>
        <path stroke="#1F1B24" stroke-width="2.784" d="M2.143 190.298l25.71-25.659-25.71 25.659z"/>
    </g>
</svg>
