<?xml version="1.0" encoding="UTF-8"?>
<svg width="24px" height="24px" viewBox="0 0 24 24" version="1.1" xmlns="http://www.w3.org/2000/svg" xmlns:xlink="http://www.w3.org/1999/xlink">
    <!-- Generator: Sketch 52.6 (67491) - http://www.bohemiancoding.com/sketch -->
    <title>011-linkedin@2x</title>
    <desc>Created with Sketch.</desc>
    <g id="Page-1" stroke="none" stroke-width="1" fill="none" fill-rule="evenodd">
        <g id="Left-Sub-Page-V2" transform="translate(-668.000000, -5762.000000)" fill="#FFFFFF">
            <g id="Group-29" transform="translate(0.000000, 5737.000000)">
                <g id="Group-28">
                    <g id="Group-22" transform="translate(380.000000, 0.000000)">
                        <g id="011-linkedin" transform="translate(288.000000, 25.000000)">
                            <path d="M21.978439,0 L1.99814634,0 C0.899414634,0 0,0.899414634 0,1.99814634 L0,21.9787317 C0,23.076878 0.899414634,23.9765854 1.99814634,23.9765854 L21.978439,23.9765854 C23.0771707,23.9765854 23.9765854,23.076878 23.9765854,21.9787317 L23.9765854,1.99814634 C23.9765854,0.899414634 23.0771707,0 21.978439,0 Z M21.978439,21.9787317 L1.99814634,21.9787317 L1.99814634,1.99814634 L21.978439,1.99814634 L21.978439,21.9787317 Z" id="Shape" fill-rule="nonzero"></path>
                            <rect id="Rectangle" x="5.99414634" y="9.98926829" width="1.99814634" height="7.99229268"></rect>
                            <circle id="Oval" cx="6.99219512" cy="7.49268293" r="1.49853659"></circle>
                            <path d="M13.986439,9.99014634 C13.2548488,9.99014634 12.577522,10.2014634 11.9882927,10.5443122 L11.9882927,10.0731512 L9.99014634,10.0731512 L9.99014634,17.982439 L11.9882927,17.982439 L11.9882927,13.9861463 C11.9882927,12.8826146 12.8829073,11.9882927 13.986439,11.9882927 C15.0899707,11.9882927 15.9842927,12.8826146 15.9842927,13.9861463 L15.9842927,17.982439 L17.982439,17.982439 L17.982439,13.9861463 C17.982439,11.7793756 16.1932098,9.99014634 13.986439,9.99014634 Z" id="Path"></path>
                        </g>
                    </g>
                </g>
            </g>
        </g>
    </g>
</svg>