<?xml version="1.0" encoding="UTF-8"?>
<svg width="222px" height="85px" viewBox="0 0 222 85" version="1.1" xmlns="http://www.w3.org/2000/svg" xmlns:xlink="http://www.w3.org/1999/xlink">
    <!-- Generator: Sketch 60 (88103) - https://sketch.com -->
    <title>Logo_Tagline_right</title>
    <desc>Created with Sketch.</desc>
    <g id="v4" stroke="none" stroke-width="1" fill="none" fill-rule="evenodd">
        <g id="Sourcing" transform="translate(-195.000000, -11118.000000)">
            <g id="Group-9" transform="translate(195.000000, 11118.000000)">
                <g id="Logo_Tagline_right">
                    <g id="Group-16" transform="translate(104.687500, 23.125000)" fill="#000000" fill-rule="nonzero">
                        <path d="M6.15625,22.5 L8.09375,8.75 L8.25,8.75 L10.03125,22.5 L17.5625,22.5 L23.25,8.75 L23.375,8.75 L21.4375,22.5 L28,22.5 L31.03125,1.0625 L20.21875,1.0625 L15.5625,12.5 L15.4375,12.5 L13.96875,1.0625 L3.21875,1.0625 L0.1875,22.5 L6.15625,22.5 Z M45.84375,22.8125 C46.3645834,22.8125 46.921875,22.75 47.515625,22.625 C48.109375,22.5 48.625,22.3229167 49.0625,22.09375 L49.0625,22.09375 L49.53125,18.65625 C49.1145834,18.9270833 48.7291666,19.0625 48.375,19.0625 C47.8333334,19.0625 47.5625,18.78125 47.5625,18.21875 C47.5625,17.71875 47.7291666,16.3072917 48.0625,13.984375 C48.3958334,11.6614583 48.78125,9.17708334 49.21875,6.53125 L49.21875,6.53125 L44.5625,6.53125 L43.5,8.4375 L43.34375,8.4375 C42.90625,7.72916666 42.3020834,7.18229166 41.53125,6.796875 C40.7604166,6.41145834 39.9479166,6.21875 39.09375,6.21875 C37.4270834,6.21875 36.0260416,6.734375 34.890625,7.765625 C33.7552084,8.796875 32.921875,10.0989583 32.390625,11.671875 C31.859375,13.2447917 31.59375,14.84375 31.59375,16.46875 C31.59375,18.3645833 32.0260416,19.8958333 32.890625,21.0625 C33.7552084,22.2291667 35.1041666,22.8125 36.9375,22.8125 C37.7916666,22.8125 38.640625,22.5833333 39.484375,22.125 C40.328125,21.6666667 41.03125,21.0833333 41.59375,20.375 C41.8229166,21.3333333 42.3072916,21.9791667 43.046875,22.3125 C43.7864584,22.6458333 44.71875,22.8125 45.84375,22.8125 Z M39.375,19.03125 C38.8958334,19.03125 38.5,18.859375 38.1875,18.515625 C37.875,18.171875 37.71875,17.7291667 37.71875,17.1875 C37.71875,17.0208333 37.9375,15.3958333 38.375,12.3125 C38.4583334,11.6875 38.7135416,11.1666667 39.140625,10.75 C39.5677084,10.3333333 40.0625,10.125 40.625,10.125 C41.125,10.125 41.5260416,10.28125 41.828125,10.59375 C42.1302084,10.90625 42.28125,11.3541667 42.28125,11.9375 C42.28125,12.125 42.2083334,12.6770833 42.0625,13.59375 L42.0625,13.59375 L41.9375,14.59375 L41.625,16.84375 C41.5208334,17.4895833 41.28125,18.015625 40.90625,18.421875 C40.53125,18.828125 40.0208334,19.03125 39.375,19.03125 Z M57.125,22.5 L57.625,18.9375 L58.875,17.96875 L61.0625,22.5 L68.34375,22.5 L63.875,13.75 L70.5,6.53125 L63.4375,6.53125 L58.53125,12.46875 L60.28125,0 L54.09375,0 L50.96875,22.5 L57.125,22.5 Z M78.1875,22.8125 C79.7708334,22.8125 81.1927084,22.5364583 82.453125,21.984375 C83.7135416,21.4322917 84.7239584,20.6770833 85.484375,19.71875 C86.2447916,18.7604167 86.7083334,17.6875 86.875,16.5 L86.875,16.5 L81.15625,16.5 C81.0520834,17.2916667 80.7708334,17.9114583 80.3125,18.359375 C79.8541666,18.8072917 79.2604166,19.03125 78.53125,19.03125 C77.90625,19.03125 77.3958334,18.8697917 77,18.546875 C76.6041666,18.2239583 76.40625,17.7708333 76.40625,17.1875 C76.3854166,17.125 76.4270834,16.7708333 76.53125,16.125 L76.53125,16.125 L76.65625,15.34375 L87.0625,15.34375 C87.2291666,14.1145833 87.3229166,13.34375 87.34375,13.03125 L87.34375,13.03125 L87.40625,12.1875 C87.40625,10.375 86.8229166,8.92708334 85.65625,7.84375 C84.4895834,6.76041666 82.8125,6.21875 80.625,6.21875 L80.625,6.21875 L79.84375,6.21875 C77.9270834,6.21875 76.2239584,6.61979166 74.734375,7.421875 C73.2447916,8.22395834 72.078125,9.38020834 71.234375,10.890625 C70.390625,12.4010417 69.96875,14.1875 69.96875,16.25 C69.96875,17.6041667 70.296875,18.7760417 70.953125,19.765625 C71.609375,20.7552083 72.5260416,21.5104167 73.703125,22.03125 C74.8802084,22.5520833 76.21875,22.8125 77.71875,22.8125 L77.71875,22.8125 L78.1875,22.8125 Z M81.34375,12.625 L77.03125,12.625 L77.09375,12.1875 C77.1770834,11.5833333 77.453125,11.0677083 77.921875,10.640625 C78.390625,10.2135417 78.9375,10 79.5625,10 C80.1041666,10 80.546875,10.1822917 80.890625,10.546875 C81.234375,10.9114583 81.40625,11.3645833 81.40625,11.90625 C81.40625,12.0729167 81.3958334,12.21875 81.375,12.34375 C81.3541666,12.46875 81.34375,12.5625 81.34375,12.625 L81.34375,12.625 Z M103.15625,4.46875 L103.78125,0 L97.625,0 L97,4.46875 L103.15625,4.46875 Z M100.625,22.5 L102.875,6.53125 L96.71875,6.53125 L94.5,22.5 L100.625,22.5 Z M110.3125,22.84375 C110.895833,22.84375 111.630208,22.7760417 112.515625,22.640625 C113.401042,22.5052083 114.09375,22.34375 114.59375,22.15625 L114.59375,22.15625 L115.09375,18.65625 C114.84375,18.7604167 114.515625,18.8489583 114.109375,18.921875 C113.703125,18.9947917 113.375,19.03125 113.125,19.03125 C112.604167,19.03125 112.213542,18.9270833 111.953125,18.71875 C111.692708,18.5104167 111.5625,18.09375 111.5625,17.46875 C111.5625,17.21875 111.864583,15.0520833 112.46875,10.96875 L112.46875,10.96875 L116.21875,10.96875 L116.84375,6.53125 L113.09375,6.53125 L114.15625,1.4375 L107.625,1.4375 L106.90625,6.53125 L105.15625,6.53125 L104.53125,10.96875 L106.28125,10.96875 L105.5,16.4375 C105.354167,17.3333333 105.260417,17.9739583 105.21875,18.359375 C105.177083,18.7447917 105.15625,19.0625 105.15625,19.3125 C105.15625,20.5833333 105.598958,21.4895833 106.484375,22.03125 C107.369792,22.5729167 108.645833,22.84375 110.3125,22.84375 Z" id="Makeit"></path>
                        <path d="M3.0165,39.875 L3.0165,35.099 L4.7365,35.099 L4.7365,34.387 L0.5125,34.387 L0.5125,35.099 L2.2325,35.099 L2.2325,39.875 L3.0165,39.875 Z M6.7605,39.955 C7.09116667,39.955 7.38583333,39.8883333 7.6445,39.755 C7.90316667,39.6216667 8.10583333,39.435 8.2525,39.195 C8.39916667,38.955 8.4725,38.675 8.4725,38.355 L8.4725,38.355 L7.7605,38.355 C7.7605,38.627 7.6805,38.8616667 7.5205,39.059 C7.3605,39.2563333 7.1125,39.355 6.7765,39.355 C6.39783333,39.355 6.1125,39.2376667 5.9205,39.003 C5.7285,38.7683333 5.62716667,38.435 5.6165,38.003 L5.6165,38.003 L8.4725,38.003 L8.4725,37.435 C8.4725,37.0883333 8.4005,36.7843333 8.2565,36.523 C8.1125,36.2616667 7.91116667,36.0603333 7.6525,35.919 C7.39383333,35.7776667 7.0965,35.707 6.7605,35.707 L6.7605,35.707 L6.7045,35.707 C6.33116667,35.707 6.00583333,35.7923333 5.7285,35.963 C5.45116667,36.1336667 5.23783333,36.3736667 5.0885,36.683 C4.93916667,36.9923333 4.8645,37.3496667 4.8645,37.755 L4.8645,37.755 L4.8645,37.915 C4.8645,38.5336667 5.03116667,39.0283333 5.3645,39.399 C5.69783333,39.7696667 6.1525,39.955 6.7285,39.955 L6.7285,39.955 L6.7605,39.955 Z M7.7285,37.419 L5.6325,37.419 C5.67516667,37.051 5.79116667,36.7736667 5.9805,36.587 C6.16983333,36.4003333 6.4165,36.307 6.7205,36.307 C7.0245,36.307 7.2685,36.4003333 7.4525,36.587 C7.6365,36.7736667 7.7285,37.019 7.7285,37.323 L7.7285,37.323 L7.7285,37.419 Z M11.3205,39.955 C11.8325,39.955 12.2418333,39.803 12.5485,39.499 C12.8551667,39.195 13.0085,38.787 13.0085,38.275 L13.0085,38.275 L12.2885,38.275 C12.2885,38.6056667 12.2071667,38.8683333 12.0445,39.063 C11.8818333,39.2576667 11.6378333,39.355 11.3125,39.355 C10.9605,39.355 10.6885,39.2416667 10.4965,39.015 C10.3045,38.7883333 10.2085,38.443 10.2085,37.979 L10.2085,37.979 L10.2085,37.547 C10.2085,37.163 10.3058333,36.8603333 10.5005,36.639 C10.6951667,36.4176667 10.9578333,36.307 11.2885,36.307 C11.6031667,36.307 11.8445,36.4056667 12.0125,36.603 C12.1805,36.8003333 12.2645,37.0643333 12.2645,37.395 L12.2645,37.395 L13.0085,37.395 C13.0085,37.0643333 12.9365,36.771 12.7925,36.515 C12.6485,36.259 12.4471667,36.0603333 12.1885,35.919 C11.9298333,35.7776667 11.6378333,35.707 11.3125,35.707 L11.3125,35.707 L11.2485,35.707 C10.8965,35.707 10.5845,35.791 10.3125,35.959 C10.0405,36.127 9.82983333,36.3643333 9.6805,36.671 C9.53116667,36.9776667 9.4565,37.3336667 9.4565,37.739 L9.4565,37.739 L9.4565,37.931 C9.4565,38.3363333 9.52983333,38.691 9.6765,38.995 C9.82316667,39.299 10.0325,39.535 10.3045,39.703 C10.5765,39.871 10.8938333,39.955 11.2565,39.955 L11.2565,39.955 L11.3205,39.955 Z M14.9605,39.875 L14.9605,37.443 C14.9605,37.235 15.0111667,37.0443333 15.1125,36.871 C15.2138333,36.6976667 15.3471667,36.5603333 15.5125,36.459 C15.6778333,36.3576667 15.8565,36.307 16.0485,36.307 C16.6245,36.307 16.9125,36.6243333 16.9125,37.259 L16.9125,37.259 L16.9125,39.875 L17.6645,39.875 L17.6645,37.123 C17.6645,36.659 17.5365,36.307 17.2805,36.067 C17.0245,35.827 16.6725,35.707 16.2245,35.707 C15.7178333,35.707 15.2965,35.9043333 14.9605,36.299 L14.9605,36.299 L14.9605,34.115 L14.2085,34.115 L14.2085,39.875 L14.9605,39.875 Z M23.0325,39.955 C23.6938333,39.955 24.2071667,39.8176667 24.5725,39.543 C24.9378333,39.2683333 25.1205,38.8323333 25.1205,38.235 C25.1205,37.899 25.0311667,37.6296667 24.8525,37.427 C24.6738333,37.2243333 24.4591667,37.0723333 24.2085,36.971 C23.9578333,36.8696667 23.6298333,36.7656667 23.2245,36.659 C22.9098333,36.579 22.6631667,36.507 22.4845,36.443 C22.3058333,36.379 22.1565,36.291 22.0365,36.179 C21.9165,36.067 21.8565,35.923 21.8565,35.747 C21.8565,35.5123333 21.9618333,35.3323333 22.1725,35.207 C22.3831667,35.0816667 22.6778333,35.019 23.0565,35.019 C23.3978333,35.019 23.6725,35.0883333 23.8805,35.227 C24.0885,35.3656667 24.1925,35.563 24.1925,35.819 L24.1925,35.819 L24.1925,35.939 L24.9765,35.939 L24.9765,35.843 C24.9765,35.3523333 24.8045,34.9736667 24.4605,34.707 C24.1165,34.4403333 23.6431667,34.307 23.0405,34.307 C22.4431667,34.307 21.9658333,34.435 21.6085,34.691 C21.2511667,34.947 21.0725,35.339 21.0725,35.867 C21.0725,36.1923333 21.1578333,36.455 21.3285,36.655 C21.4991667,36.855 21.7045,37.003 21.9445,37.099 C22.1845,37.195 22.5045,37.2963333 22.9045,37.403 C23.2298333,37.4883333 23.4871667,37.5656667 23.6765,37.635 C23.8658333,37.7043333 24.0231667,37.8016667 24.1485,37.927 C24.2738333,38.0523333 24.3365,38.2163333 24.3365,38.419 C24.3365,38.675 24.2205,38.8763333 23.9885,39.023 C23.7565,39.1696667 23.4405,39.243 23.0405,39.243 C22.6298333,39.243 22.3085,39.167 22.0765,39.015 C21.8445,38.863 21.7285,38.6323333 21.7285,38.323 L21.7285,38.323 L21.7365,38.155 L20.9525,38.155 L20.9445,38.315 C20.9445,38.8483333 21.1271667,39.255 21.4925,39.535 C21.8578333,39.815 22.3711667,39.955 23.0325,39.955 Z M27.4405,39.955 C27.7445,39.955 27.9925,39.907 28.1845,39.811 L28.1845,39.811 L28.1845,39.251 C27.9925,39.331 27.8271667,39.371 27.6885,39.371 C27.5338333,39.371 27.4191667,39.3283333 27.3445,39.243 C27.2698333,39.1576667 27.2325,39.019 27.2325,38.827 L27.2325,38.827 L27.2325,36.387 L28.1845,36.387 L28.1845,35.787 L27.2325,35.787 L27.2325,34.483 L26.7605,34.483 L26.5045,35.787 L26.0325,35.787 L26.0325,36.387 L26.4805,36.387 L26.4805,38.787 C26.4805,39.1923333 26.5618333,39.4883333 26.7245,39.675 C26.8871667,39.8616667 27.1258333,39.955 27.4405,39.955 Z M32.4485,39.955 C32.6778333,39.955 32.8831667,39.9016667 33.0645,39.795 L33.0645,39.795 L33.0645,39.243 C32.9418333,39.3176667 32.8191667,39.355 32.6965,39.355 C32.6325,39.355 32.5791667,39.3323333 32.5365,39.287 C32.4938333,39.2416667 32.4725,39.171 32.4725,39.075 L32.4725,39.075 L32.4725,36.955 C32.4725,36.5496667 32.3405,36.2403333 32.0765,36.027 C31.8125,35.8136667 31.4111667,35.707 30.8725,35.707 L30.8725,35.707 L30.8005,35.707 C30.4911667,35.707 30.2085,35.7563333 29.9525,35.855 C29.6965,35.9536667 29.4938333,36.0856667 29.3445,36.251 C29.1951667,36.4163333 29.1205,36.5923333 29.1205,36.779 C29.1205,36.8803333 29.1258333,36.9683333 29.1365,37.043 L29.1365,37.043 L29.8725,37.043 L29.8725,36.947 C29.8725,36.7443333 29.9525,36.587 30.1125,36.475 C30.2725,36.363 30.4965,36.307 30.7845,36.307 C31.0885,36.307 31.3205,36.3616667 31.4805,36.471 C31.6405,36.5803333 31.7205,36.771 31.7205,37.043 L31.7205,37.043 L31.7205,37.419 C31.0271667,37.419 30.4831667,37.4616667 30.0885,37.547 C29.6938333,37.6323333 29.4111667,37.7696667 29.2405,37.959 C29.0698333,38.1483333 28.9845,38.4083333 28.9845,38.739 C28.9845,39.1603333 29.0951667,39.4683333 29.3165,39.663 C29.5378333,39.8576667 29.8725,39.955 30.3205,39.955 C30.9445,39.955 31.4218333,39.7096667 31.7525,39.219 C31.7631667,39.4483333 31.8245,39.6283333 31.9365,39.759 C32.0485,39.8896667 32.2191667,39.955 32.4485,39.955 Z M30.5765,39.355 C30.0165,39.355 29.7365,39.171 29.7365,38.803 C29.7365,38.6056667 29.7845,38.451 29.8805,38.339 C29.9765,38.227 30.1671667,38.143 30.4525,38.087 C30.7378333,38.031 31.1605,38.003 31.7205,38.003 L31.7205,38.003 L31.7205,38.163 C31.7205,38.3976667 31.6671667,38.6056667 31.5605,38.787 C31.4538333,38.9683333 31.3125,39.1083333 31.1365,39.207 C30.9605,39.3056667 30.7738333,39.355 30.5765,39.355 Z M34.8405,39.875 L34.8405,37.435 C34.8405,37.0883333 34.9125,36.8136667 35.0565,36.611 C35.2005,36.4083333 35.4005,36.307 35.6565,36.307 C35.7791667,36.307 35.9018333,36.3403333 36.0245,36.407 C36.1471667,36.4736667 36.2485,36.5683333 36.3285,36.691 C36.4085,36.8136667 36.4485,36.955 36.4485,37.115 L36.4485,37.115 L36.4485,37.291 L37.1125,37.291 L37.1365,36.987 C37.1365,36.619 37.0298333,36.3136667 36.8165,36.071 C36.6031667,35.8283333 36.3071667,35.707 35.9285,35.707 C35.7258333,35.707 35.5405,35.7416667 35.3725,35.811 C35.2045,35.8803333 35.0645,35.9683333 34.9525,36.075 C34.8405,36.1816667 34.7685,36.2883333 34.7365,36.395 L34.7365,36.395 L34.6245,35.787 L34.0885,35.787 L34.0885,39.875 L34.8405,39.875 Z M39.2405,39.955 C39.5445,39.955 39.7925,39.907 39.9845,39.811 L39.9845,39.811 L39.9845,39.251 C39.7925,39.331 39.6271667,39.371 39.4885,39.371 C39.3338333,39.371 39.2191667,39.3283333 39.1445,39.243 C39.0698333,39.1576667 39.0325,39.019 39.0325,38.827 L39.0325,38.827 L39.0325,36.387 L39.9845,36.387 L39.9845,35.787 L39.0325,35.787 L39.0325,34.483 L38.5605,34.483 L38.3045,35.787 L37.8325,35.787 L37.8325,36.387 L38.2805,36.387 L38.2805,38.787 C38.2805,39.1923333 38.3618333,39.4883333 38.5245,39.675 C38.6871667,39.8616667 38.9258333,39.955 39.2405,39.955 Z M44.5605,39.955 C44.7311667,39.955 44.8991667,39.9016667 45.0645,39.795 L45.0645,39.795 L45.0645,39.243 C44.9418333,39.3176667 44.8218333,39.355 44.7045,39.355 C44.6405,39.355 44.5871667,39.3323333 44.5445,39.287 C44.5018333,39.2416667 44.4805,39.171 44.4805,39.075 L44.4805,39.075 L44.4805,35.787 L43.7285,35.787 L43.7285,38.219 C43.7285,38.427 43.6778333,38.6176667 43.5765,38.791 C43.4751667,38.9643333 43.3405,39.1016667 43.1725,39.203 C43.0045,39.3043333 42.8271667,39.355 42.6405,39.355 C42.0645,39.355 41.7765,39.0376667 41.7765,38.403 L41.7765,38.403 L41.7765,35.787 L41.0245,35.787 L41.0245,38.539 C41.0245,38.9976667 41.1565,39.3483333 41.4205,39.591 C41.6845,39.8336667 42.0218333,39.955 42.4325,39.955 C42.7258333,39.955 42.9858333,39.8963333 43.2125,39.779 C43.4391667,39.6616667 43.6245,39.4963333 43.7685,39.283 C43.7791667,39.4963333 43.8418333,39.6616667 43.9565,39.779 C44.0711667,39.8963333 44.2725,39.955 44.5605,39.955 Z M46.9045,41.323 L46.9045,39.355 C47.1871667,39.755 47.5791667,39.955 48.0805,39.955 C48.6031667,39.955 49.0098333,39.7736667 49.3005,39.411 C49.5911667,39.0483333 49.7365,38.5523333 49.7365,37.923 L49.7365,37.923 L49.7365,37.835 C49.7365,37.1736667 49.5898333,36.6536667 49.2965,36.275 C49.0031667,35.8963333 48.5978333,35.707 48.0805,35.707 C47.5418333,35.707 47.1205,35.9203333 46.8165,36.347 C46.7845,36.1443333 46.7498333,35.9576667 46.7125,35.787 L46.7125,35.787 L46.1525,35.787 L46.1525,41.323 L46.9045,41.323 Z M47.9445,39.355 C47.5925,39.355 47.3298333,39.231 47.1565,38.983 C46.9831667,38.735 46.8965,38.3496667 46.8965,37.827 C46.8965,37.315 46.9805,36.9336667 47.1485,36.683 C47.3165,36.4323333 47.5818333,36.307 47.9445,36.307 C48.2911667,36.307 48.5511667,36.4296667 48.7245,36.675 C48.8978333,36.9203333 48.9845,37.3043333 48.9845,37.827 C48.9845,38.3443333 48.8991667,38.7283333 48.7285,38.979 C48.5578333,39.2296667 48.2965,39.355 47.9445,39.355 Z M54.8965,39.955 C55.5578333,39.955 56.0711667,39.8176667 56.4365,39.543 C56.8018333,39.2683333 56.9845,38.8323333 56.9845,38.235 C56.9845,37.899 56.8951667,37.6296667 56.7165,37.427 C56.5378333,37.2243333 56.3231667,37.0723333 56.0725,36.971 C55.8218333,36.8696667 55.4938333,36.7656667 55.0885,36.659 C54.7738333,36.579 54.5271667,36.507 54.3485,36.443 C54.1698333,36.379 54.0205,36.291 53.9005,36.179 C53.7805,36.067 53.7205,35.923 53.7205,35.747 C53.7205,35.5123333 53.8258333,35.3323333 54.0365,35.207 C54.2471667,35.0816667 54.5418333,35.019 54.9205,35.019 C55.2618333,35.019 55.5365,35.0883333 55.7445,35.227 C55.9525,35.3656667 56.0565,35.563 56.0565,35.819 L56.0565,35.819 L56.0565,35.939 L56.8405,35.939 L56.8405,35.843 C56.8405,35.3523333 56.6685,34.9736667 56.3245,34.707 C55.9805,34.4403333 55.5071667,34.307 54.9045,34.307 C54.3071667,34.307 53.8298333,34.435 53.4725,34.691 C53.1151667,34.947 52.9365,35.339 52.9365,35.867 C52.9365,36.1923333 53.0218333,36.455 53.1925,36.655 C53.3631667,36.855 53.5685,37.003 53.8085,37.099 C54.0485,37.195 54.3685,37.2963333 54.7685,37.403 C55.0938333,37.4883333 55.3511667,37.5656667 55.5405,37.635 C55.7298333,37.7043333 55.8871667,37.8016667 56.0125,37.927 C56.1378333,38.0523333 56.2005,38.2163333 56.2005,38.419 C56.2005,38.675 56.0845,38.8763333 55.8525,39.023 C55.6205,39.1696667 55.3045,39.243 54.9045,39.243 C54.4938333,39.243 54.1725,39.167 53.9405,39.015 C53.7085,38.863 53.5925,38.6323333 53.5925,38.323 L53.5925,38.323 L53.6005,38.155 L52.8165,38.155 L52.8085,38.315 C52.8085,38.8483333 52.9911667,39.255 53.3565,39.535 C53.7218333,39.815 54.2351667,39.955 54.8965,39.955 Z M59.3045,39.955 C59.6085,39.955 59.8565,39.907 60.0485,39.811 L60.0485,39.811 L60.0485,39.251 C59.8565,39.331 59.6911667,39.371 59.5525,39.371 C59.3978333,39.371 59.2831667,39.3283333 59.2085,39.243 C59.1338333,39.1576667 59.0965,39.019 59.0965,38.827 L59.0965,38.827 L59.0965,36.387 L60.0485,36.387 L60.0485,35.787 L59.0965,35.787 L59.0965,34.483 L58.6245,34.483 L58.3685,35.787 L57.8965,35.787 L57.8965,36.387 L58.3445,36.387 L58.3445,38.787 C58.3445,39.1923333 58.4258333,39.4883333 58.5885,39.675 C58.7511667,39.8616667 58.9898333,39.955 59.3045,39.955 Z M64.6245,39.955 C64.7951667,39.955 64.9631667,39.9016667 65.1285,39.795 L65.1285,39.795 L65.1285,39.243 C65.0058333,39.3176667 64.8858333,39.355 64.7685,39.355 C64.7045,39.355 64.6511667,39.3323333 64.6085,39.287 C64.5658333,39.2416667 64.5445,39.171 64.5445,39.075 L64.5445,39.075 L64.5445,35.787 L63.7925,35.787 L63.7925,38.219 C63.7925,38.427 63.7418333,38.6176667 63.6405,38.791 C63.5391667,38.9643333 63.4045,39.1016667 63.2365,39.203 C63.0685,39.3043333 62.8911667,39.355 62.7045,39.355 C62.1285,39.355 61.8405,39.0376667 61.8405,38.403 L61.8405,38.403 L61.8405,35.787 L61.0885,35.787 L61.0885,38.539 C61.0885,38.9976667 61.2205,39.3483333 61.4845,39.591 C61.7485,39.8336667 62.0858333,39.955 62.4965,39.955 C62.7898333,39.955 63.0498333,39.8963333 63.2765,39.779 C63.5031667,39.6616667 63.6885,39.4963333 63.8325,39.283 C63.8431667,39.4963333 63.9058333,39.6616667 64.0205,39.779 C64.1351667,39.8963333 64.3365,39.955 64.6245,39.955 Z M67.6245,39.955 C68.1631667,39.955 68.5845,39.7416667 68.8885,39.315 C68.9205,39.5176667 68.9551667,39.7043333 68.9925,39.875 L68.9925,39.875 L69.5525,39.875 L69.5525,34.115 L68.8005,34.115 L68.8005,36.307 C68.5231667,35.907 68.1311667,35.707 67.6245,35.707 C67.1018333,35.707 66.6951667,35.8896667 66.4045,36.255 C66.1138333,36.6203333 65.9685,37.115 65.9685,37.739 L65.9685,37.739 L65.9685,37.827 C65.9685,38.4883333 66.1165,39.0083333 66.4125,39.387 C66.7085,39.7656667 67.1125,39.955 67.6245,39.955 Z M67.7605,39.355 C67.4085,39.355 67.1471667,39.2323333 66.9765,38.987 C66.8058333,38.7416667 66.7205,38.3576667 66.7205,37.835 C66.7205,37.3123333 66.8045,36.927 66.9725,36.679 C67.1405,36.431 67.4031667,36.307 67.7605,36.307 C68.1071667,36.307 68.3685,36.431 68.5445,36.679 C68.7205,36.927 68.8085,37.3123333 68.8085,37.835 C68.8085,38.8483333 68.4591667,39.355 67.7605,39.355 Z M71.7925,34.811 L71.7925,34.115 L71.0085,34.115 L71.0085,34.811 L71.7925,34.811 Z M71.7765,39.875 L71.7765,35.787 L71.0245,35.787 L71.0245,39.875 L71.7765,39.875 Z M74.8805,39.955 C75.4618333,39.955 75.9205,39.779 76.2565,39.427 C76.5925,39.075 76.7605,38.5923333 76.7605,37.979 L76.7605,37.979 L76.7605,37.683 C76.7605,37.0696667 76.5898333,36.587 76.2485,36.235 C75.9071667,35.883 75.4511667,35.707 74.8805,35.707 C74.3098333,35.707 73.8538333,35.883 73.5125,36.235 C73.1711667,36.587 73.0005,37.0696667 73.0005,37.683 L73.0005,37.683 L73.0005,37.979 C73.0005,38.5923333 73.1685,39.075 73.5045,39.427 C73.8405,39.779 74.2991667,39.955 74.8805,39.955 Z M74.8805,39.355 C74.5178333,39.355 74.2391667,39.2296667 74.0445,38.979 C73.8498333,38.7283333 73.7525,38.371 73.7525,37.907 L73.7525,37.907 L73.7525,37.755 C73.7525,37.2803333 73.8511667,36.9203333 74.0485,36.675 C74.2458333,36.4296667 74.5231667,36.307 74.8805,36.307 C75.2431667,36.307 75.5218333,36.4323333 75.7165,36.683 C75.9111667,36.9336667 76.0085,37.291 76.0085,37.755 L76.0085,37.755 L76.0085,37.907 C76.0085,38.3763333 75.9085,38.735 75.7085,38.983 C75.5085,39.231 75.2325,39.355 74.8805,39.355 Z" id="TechStartupStudio"></path>
                    </g>
                    <g id="Group-30">
                        <g id="Path-17">
                            <g id="path-1-link" fill="#000000" fill-rule="nonzero">
                                <path d="M10.6023527,0.640703916 L0.640703916,10.6023527 C0.230468088,11.0125886 0,11.5689877 0,12.1491488 L0,82.1875 C0,83.3956228 0.979377109,84.375 2.1875,84.375 L72.2258512,84.375 C72.8060122,84.375 73.3624116,84.1445319 73.7726472,83.7342959 L83.7342959,73.7726472 C84.1445319,73.3624116 84.375,72.8060122 84.375,72.2258512 L84.375,2.1875 C84.375,0.979377109 83.3956228,0 82.1875,0 L12.1491488,0 C11.5689877,0 11.0125886,0.230468088 10.6023527,0.640703916 Z" id="path-1"></path>
                            </g>
                            <path d="M10.9338091,0.972160219 L0.972160219,10.9338091 C0.649832069,11.2561372 0.46875,11.693308 0.46875,12.1491488 L0.46875,82.1875 C0.46875,83.1367394 1.23826059,83.90625 2.1875,83.90625 L72.2258513,83.90625 C72.6816919,83.90625 73.1188628,83.7251678 73.4411909,83.4028397 L83.4028397,73.4411909 C83.7251678,73.1188628 83.90625,72.6816919 83.90625,72.2258513 L83.90625,2.1875 C83.90625,1.23826059 83.1367394,0.46875 82.1875,0.46875 L12.1491488,0.46875 C11.693308,0.46875 11.2561372,0.649832069 10.9338091,0.972160219 Z" id="Path" stroke="#1F1B24" stroke-width="0.9375" fill="#459593"></path>
                        </g>
                        <rect id="Rectangle" stroke="#1F1B24" stroke-width="0.9375" fill="#64C1BE" fill-rule="nonzero" x="11.71875" y="0.46875" width="72.1875" height="72.1875"></rect>
                        <g id="Path-2" transform="translate(29.375000, 22.812500)">
                            <g id="path-3-link" fill="#000000" fill-rule="nonzero">
                                <path d="M0,30.7191022 L0,0.843397875 C0,0.479390469 0.295086313,0.184200759 0.659093719,0.184200759 C0.777194094,0.184200759 0.893125,0.216037063 0.994761781,0.276184062 L18.1018319,10.3998741 C18.3088444,10.5223806 18.5661556,10.5223806 18.7731681,10.3998741 L35.8802381,0.276184062 C36.1935019,0.0907997187 36.5977356,0.194466313 36.78312,0.507729844 C36.8432672,0.609366594 36.875,0.725297531 36.875,0.843397875 L36.875,30.7191022 C36.875,31.0831097 36.5799137,31.3782993 36.2159062,31.3782993 C36.0978059,31.3782993 35.981875,31.3464628 35.8802381,31.2863159 L27.9796756,26.6108897 C27.7792081,26.4922563 27.65625,26.2766159 27.65625,26.0436759 L27.65625,16.6643725 C27.65625,16.300365 27.3611637,16.0052788 26.9971562,16.0052788 C26.8790559,16.0052788 26.763125,16.0370116 26.6614881,16.0971588 L18.7731681,20.76534 C18.5661556,20.8878466 18.3088444,20.8878466 18.1018319,20.76534 L10.2135119,16.0971588 C9.90024813,15.9117744 9.49601438,16.0154409 9.31063,16.3287044 C9.25048281,16.4303413 9.21875,16.5462722 9.21875,16.6643725 L9.21875,26.0436759 C9.21875,26.2766159 9.09579187,26.4922563 8.89532438,26.6108897 L0.994761781,31.2863159 C0.681498219,31.4717003 0.27726425,31.3680338 0.0918799063,31.0547703 C0.0317329062,30.9531334 0,30.8372025 0,30.7191022 Z" id="path-3"></path>
                            </g>
                            <g id="path-3-link" fill="#FFFFFF" stroke="#1F1B24" stroke-width="1.00625001">
                                <path d="M0,30.7191022 L0,0.843397875 C0,0.479390469 0.295086313,0.184200759 0.659093719,0.184200759 C0.777194094,0.184200759 0.893125,0.216037063 0.994761781,0.276184062 L18.1018319,10.3998741 C18.3088444,10.5223806 18.5661556,10.5223806 18.7731681,10.3998741 L35.8802381,0.276184062 C36.1935019,0.0907997187 36.5977356,0.194466313 36.78312,0.507729844 C36.8432672,0.609366594 36.875,0.725297531 36.875,0.843397875 L36.875,30.7191022 C36.875,31.0831097 36.5799137,31.3782993 36.2159062,31.3782993 C36.0978059,31.3782993 35.981875,31.3464628 35.8802381,31.2863159 L27.9796756,26.6108897 C27.7792081,26.4922563 27.65625,26.2766159 27.65625,26.0436759 L27.65625,16.6643725 C27.65625,16.300365 27.3611637,16.0052788 26.9971562,16.0052788 C26.8790559,16.0052788 26.763125,16.0370116 26.6614881,16.0971588 L18.7731681,20.76534 C18.5661556,20.8878466 18.3088444,20.8878466 18.1018319,20.76534 L10.2135119,16.0971588 C9.90024813,15.9117744 9.49601438,16.0154409 9.31063,16.3287044 C9.25048281,16.4303413 9.21875,16.5462722 9.21875,16.6643725 L9.21875,26.0436759 C9.21875,26.2766159 9.09579187,26.4922563 8.89532438,26.6108897 L0.994761781,31.2863159 C0.681498219,31.4717003 0.27726425,31.3680338 0.0918799063,31.0547703 C0.0317329062,30.9531334 0,30.8372025 0,30.7191022 Z" id="path-3"></path>
                            </g>
                        </g>
                        <path d="M0.9375,83.4375 L12.1875,72.1875 L0.9375,83.4375 Z" id="Path-18" stroke="#1F1B24" stroke-width="0.9375"></path>
                    </g>
                </g>
            </g>
        </g>
    </g>
</svg>