<svg xmlns="http://www.w3.org/2000/svg" xmlns:xlink="http://www.w3.org/1999/xlink" width="149" height="156" viewBox="0 0 149 156">
    <defs>
        <linearGradient id="x7uqgs00kc" x1="49.843%" x2="49.843%" y1="93.292%" y2="-6.735%">
            <stop offset="0%" stop-color="#3FE7FF"/>
            <stop offset="100%" stop-color="#5781FF"/>
        </linearGradient>
        <linearGradient id="t3uq0fkf6d" x1="452.977%" x2="-14.747%" y1="17.388%" y2="52.88%">
            <stop offset="0%" stop-color="#3FE7FF"/>
            <stop offset="100%" stop-color="#5781FF"/>
        </linearGradient>
        <linearGradient id="bpxnn5ahje" x1="370.145%" x2="-110.013%" y1="23.608%" y2="59.433%">
            <stop offset="0%" stop-color="#3FE7FF"/>
            <stop offset="100%" stop-color="#5781FF"/>
        </linearGradient>
        <linearGradient id="fllu3ttd6f" x1="460.597%" x2="-133.802%" y1="23.965%" y2="62.905%">
            <stop offset="0%" stop-color="#3FE7FF"/>
            <stop offset="100%" stop-color="#5781FF"/>
        </linearGradient>
        <linearGradient id="5n8kp1vckg" x1="297.398%" x2="-299.71%" y1="33.534%" y2="72.761%">
            <stop offset="0%" stop-color="#3FE7FF"/>
            <stop offset="100%" stop-color="#5781FF"/>
        </linearGradient>
        <linearGradient id="qcedasxn8h" x1="222.351%" x2="-199.748%" y1="35.438%" y2="71.014%">
            <stop offset="0%" stop-color="#3FE7FF"/>
            <stop offset="100%" stop-color="#5781FF"/>
        </linearGradient>
        <linearGradient id="txil3bd8li" x1="111.042%" x2="-530.508%" y1="45.859%" y2="92.642%">
            <stop offset="0%" stop-color="#3FE7FF"/>
            <stop offset="100%" stop-color="#5781FF"/>
        </linearGradient>
        <linearGradient id="3b5h27zegj" x1="201.807%" x2="-407.271%" y1="39.231%" y2="86.113%">
            <stop offset="0%" stop-color="#3FE7FF"/>
            <stop offset="100%" stop-color="#5781FF"/>
        </linearGradient>
        <linearGradient id="inkjid1bvk" x1="161.31%" x2="-46.564%" y1="31.285%" y2="67.111%">
            <stop offset="0%" stop-color="#3FE7FF"/>
            <stop offset="100%" stop-color="#5781FF"/>
        </linearGradient>
        <linearGradient id="hpgz735r9l" x1="332.884%" x2="-186.228%" y1="23.809%" y2="71.731%">
            <stop offset="0%" stop-color="#3FE7FF"/>
            <stop offset="100%" stop-color="#5781FF"/>
        </linearGradient>
        <filter id="4ns6qagdfa" width="104.5%" height="104.5%" x="-3.4%" y="-1.1%" filterUnits="objectBoundingBox">
            <feOffset dx="-3" dy="3" in="SourceAlpha" result="shadowOffsetOuter1"/>
            <feComposite in="shadowOffsetOuter1" in2="SourceAlpha" operator="out" result="shadowOffsetOuter1"/>
            <feColorMatrix in="shadowOffsetOuter1" values="0 0 0 0 0 0 0 0 0 0 0 0 0 0 0 0 0 0 0.07 0"/>
        </filter>
        <path id="k16a0eb9xb" d="M16.611 1.004L1.004 16.617C.36 17.26 0 18.13 0 19.04v109.77c0 1.893 1.535 3.428 3.428 3.428H113.16c.91 0 1.781-.361 2.424-1.004l15.608-15.613c.642-.643 1.003-1.515 1.003-2.423V3.428c0-1.893-1.534-3.428-3.428-3.428H19.035c-.909 0-1.781.361-2.424 1.004z"/>
    </defs>
    <g fill="none" fill-rule="evenodd" transform="rotate(-10 127.754 16.59)">
        <use fill="#000" filter="url(#4ns6qagdfa)" xlink:href="#k16a0eb9xb"/>
        <path fill="#D8D8D8" stroke="#1F1B24" stroke-linejoin="square" stroke-width="1.914" d="M17.288 1.681L1.68 17.293c-.463.464-.723 1.092-.723 1.747v109.77c0 1.365 1.106 2.47 2.47 2.47H113.16c.655 0 1.284-.26 1.747-.723l15.608-15.613c.463-.463.723-1.091.723-1.746V3.428c0-1.365-1.106-2.471-2.47-2.471H19.034c-.655 0-1.284.26-1.747.724z"/>
        <path fill="#FFF" fill-rule="nonzero" stroke="#1F1B24" stroke-width="1.914" d="M18.583 0.957H131.238V113.64899999999999H18.583z"/>
        <g fill-rule="nonzero">
            <path fill="url(#x7uqgs00kc)" d="M16.649 33.213c-2.87 0-5.741-.766-8.229-2.202l3.062-8.422h5.55c.956 0 1.913-.192 2.87-.575.957-.383 1.914-.861 2.68-1.435.86-.67 1.626-1.34 2.296-2.202.67-.861 1.148-1.723 1.53-2.68.383-.861.48-1.818.383-2.776 0-.382-.095-.861-.287-1.244-.095-.383-.287-.67-.478-1.053-.957-1.244-2.488-1.914-4.019-1.818H9.855l-1.34 3.733h1.436c1.34 0 2.68.478 3.827 1.244l2.01 1.531h1.818c1.913 0 3.54 1.532 3.731 3.446 0 .096 0 .191-.095.191-.096.096-.096.096-.192.096h-1.148c0-.191.096-.287.096-.478 0-1.149-.861-2.01-2.01-2.01h-.19c-.288 0-.67.191-.958.382-.287.192-.478.479-.67.766-.19.383-.287.862-.19 1.34H14.16c-2.296 0-4.593.67-6.41 2.01-.957.67-1.723 1.436-2.393 2.393-.67.957-1.244 2.01-1.626 3.063 0 .191-.096.287-.096.478-1.722-2.105-2.87-4.594-3.349-7.274C.096 18.57 0 17.42 0 16.271c.096-3.158 1.053-6.317 2.87-8.901C4.02 5.647 5.455 4.211 7.177 2.967c.861-.574 1.723-1.148 2.68-1.531C11.768.574 13.873.096 16.074 0h.574c1.148 0 2.296.096 3.445.383 2.2.478 4.21 1.34 6.028 2.584 2.679 1.914 4.784 4.499 6.028 7.562.382 1.052.67 2.105.956 3.158.192 1.149.288 2.297.192 3.446-.096 2.106-.574 4.211-1.435 6.221-.479.957-.957 1.819-1.531 2.68-1.818 2.585-4.306 4.595-7.177 5.839-2.009.861-4.114 1.244-6.219 1.34h-.287zM10.62 13.304v1.915c0 .191.191.382.383.382h3.731c.096 0 .192-.095.096-.191 0 0 0-.096-.096-.096l-1.53-1.148c-.766-.479-1.723-.766-2.584-.862zm7.367 6.7c-.86 0-1.53-.67-1.53-1.531 0-.862.67-1.532 1.53-1.532.862 0 1.531.67 1.531 1.532 0 .861-.67 1.531-1.53 1.531zm0-2.201c-.382 0-.67.287-.67.67 0 .383.288.67.67.67.383 0 .67-.287.67-.67 0-.383-.287-.67-.67-.67z" transform="translate(32.532 40.81)"/>
            <path fill="url(#t3uq0fkf6d)" d="M37.125 15.314c.096-.287.096-.67.192-.957.67-2.776 1.243-5.647 1.818-8.423.095-.191.095-.287.095-.478 0-.192 0-.096.096-.096h4.21c.478 0 1.052.096 1.435.287 1.053.479 1.723 1.532 1.627 2.68-.096.766-.383 1.532-.861 2.106-.574.574-1.244 1.053-2.105 1.148-.383.096-.766.096-1.149.096h-2.392c-.095 0-.191 0-.191.096-.191 1.053-.478 2.106-.67 3.254 0 .096-.095.192-.191.096l-1.914.191zm3.253-5.36H42.771c.478 0 .956-.287 1.243-.67.287-.383.383-.765.287-1.244-.095-.574-.67-.957-1.243-.957h-2.01c-.095 0-.095 0-.095.096-.096.574-.288 1.148-.383 1.818-.096.383-.096.67-.192.957z" transform="translate(32.532 40.81)"/>
            <path fill="url(#bpxnn5ahje)" d="M47.746 29.384c.096-.574.287-1.148.383-1.723l1.34-6.03c.19-.67.286-1.34.478-2.01 0-.095.095-.095.095-.095h4.115c.67 0 1.34.095 1.914.478.67.383 1.148 1.149 1.148 1.915.191 1.435-.574 2.871-1.914 3.445-.478.287-1.148.479-1.722.479h-2.87c-.096 0-.192 0-.192.096-.192 1.052-.479 2.105-.67 3.254 0 .096 0 .096-.191.096l-1.914.095zm3.349-5.36h2.68c.573-.095 1.052-.574 1.243-1.148.191-.575-.096-1.245-.67-1.436-.191-.096-.287-.096-.478-.096h-2.105c-.096 0-.096 0-.096.096-.096.574-.191 1.149-.383 1.723-.095.191-.191.478-.191.861z" transform="translate(32.532 40.81)"/>
            <path fill="url(#fllu3ttd6f)" d="M52.817 15.219h-1.913l.191-.862-.287.287c-.957.862-2.488.957-3.54.096-.479-.383-.766-.861-.862-1.436-.382-1.627.096-3.35 1.244-4.498.957-.957 2.392-1.245 3.636-.766.383.191.67.479.957.766.096-.287.096-.479.192-.766.095-.287 0-.191.19-.191h1.915l-1.723 7.37zm-2.87-1.436c.574-.096 1.052-.287 1.435-.766 0 0 .096-.096.096-.191.191-.766.382-1.532.478-2.297v-.192c-.67-.861-2.01-.957-2.775-.287h-.095c-.574.574-.862 1.34-.766 2.201.096.958.861 1.532 1.627 1.532z" transform="translate(32.532 40.81)"/>
            <path fill="url(#5n8kp1vckg)" d="M67.074 23.163l.191-.957h1.914l-1.626 7.178h-1.914l.191-.861-.287.191c-1.052.957-2.583 1.053-3.636.192-.478-.383-.765-.957-.861-1.532-.287-1.531.096-3.063 1.148-4.211.67-.766 1.723-1.244 2.68-1.149.86 0 1.626.383 2.2 1.149zM62.96 26.13v.383c.095.766.765 1.34 1.53 1.34.67 0 1.245-.287 1.627-.766l.096-.096c.191-.765.287-1.531.478-2.297v-.191c-.67-.862-2.009-.957-2.87-.287-.574.478-.861 1.148-.861 1.914z" transform="translate(32.532 40.81)"/>
            <path fill="url(#qcedasxn8h)" d="M64.97 11.39l2.104 3.924h-2.2c-.096 0-.192 0-.192-.095l-1.148-2.585-.096-.191-.096.096-.956.861-.096.096c-.096.574-.191 1.053-.383 1.627 0 .096-.095.096-.191.096h-1.722c0-.096 0-.288.095-.383l1.435-6.605c.192-.957.383-1.818.575-2.775 0-.096 0-.096.095-.096h1.914l-1.244 5.743.096-.096 3.062-2.871s.095-.096.19-.096h2.297l-3.54 3.35z" transform="translate(32.532 40.81)"/>
            <path fill="url(#txil3bd8li)" d="M84.297 26.321h-5.262c0 .288 0 .575.19.766.288.479.766.766 1.245.862.765.095 1.626 0 2.296-.479l.574 1.34-.574.287c-1.244.574-2.679.574-3.923 0-.957-.383-1.722-1.34-1.722-2.393-.096-1.244.287-2.488 1.148-3.35.67-.765 1.627-1.244 2.68-1.34.573-.095 1.243 0 1.817.287.861.383 1.531 1.149 1.722 2.106.096.574.096 1.244-.095 1.819l-.096.095zm-1.626-1.244c.095-.67-.288-1.244-.862-1.436-.765-.287-1.626-.095-2.2.575-.287.287-.383.574-.479.957l3.54-.096z" transform="translate(32.532 40.81)"/>
            <path fill="url(#3b5h27zegj)" d="M76.738 23.45l-1.34 1.053c-.095-.192-.286-.287-.478-.479-.574-.383-1.34-.478-2.01-.095-.956.574-1.53 1.627-1.243 2.775.191.67.67 1.053 1.244 1.149.67.191 1.435-.096 1.913-.574l.096-.096.287.383c.192.287.383.574.67.765 0 0 .096.096 0 .096-.574.574-1.34.957-2.105 1.053-.861.096-1.627 0-2.392-.383-.861-.383-1.531-1.244-1.627-2.201-.287-1.723.574-3.542 2.105-4.403.766-.479 1.723-.574 2.584-.479.574.096 1.244.287 1.722.67.191.192.478.479.574.766z" transform="translate(32.532 40.81)"/>
            <path fill="url(#inkjid1bvk)" d="M56.932 29.289l2.2-9.859h1.914c0 .191-.096.287-.096.479-.478 1.818-.86 3.637-1.244 5.551l-.86 3.733c0 .096 0 .096-.096.096h-1.818z" transform="translate(32.532 40.81)"/>
            <path fill="url(#hpgz735r9l)" d="M56.262 8.136h1.914l-.192.861c.67-.67 1.531-1.053 2.488-1.053l-.383 1.915-.478-.096c-.67 0-1.34.191-1.818.67-.096.096-.192.287-.192.574-.287 1.436-.574 2.872-.956 4.212v.095H54.73l1.53-7.178z" transform="translate(32.532 40.81)"/>
        </g>
        <path stroke="#1F1B24" stroke-width="1.914" d="M1.469 130.769l17.626-17.632-17.626 17.632z"/>
    </g>
</svg>
