<?xml version="1.0" encoding="UTF-8"?>
<svg width="1450px" height="1024px" viewBox="0 0 1450 1024" version="1.1" xmlns="http://www.w3.org/2000/svg" xmlns:xlink="http://www.w3.org/1999/xlink">
    <!-- Generator: Sketch 60 (88103) - https://sketch.com -->
    <title>smile_home</title>
    <desc>Created with Sketch.</desc>
    <defs>
        <path d="M173.25,99 C173.25,44.323818 153.676191,0 99,0 C44.3238114,0 -4.54747351e-13,44.323818 -4.54747351e-13,99 C-4.54747351e-13,99 50.6083822,115.5 99.8353469,115.5 C149.605403,115.5 173.25,99 173.25,99 Z" id="path-1"></path>
    </defs>
    <g id="Page-1" stroke="none" stroke-width="1" fill="none" fill-rule="evenodd">
        <g id="smile_home" transform="translate(0.000000, 2.000000)">
            <circle id="Oval" stroke="#000000" stroke-width="4" fill="#3970AF" fill-rule="nonzero" cx="725" cy="244" r="244"></circle>
            <g id="Group" transform="translate(0.000000, 250.000000)">
                <g id="Group-44" transform="translate(544.000000, -0.000000)">
                    <g id="Group-14" transform="translate(168.750000, 168.750000) rotate(-180.000000) translate(-168.750000, -168.750000) translate(0.750000, 0.750000)">
                        <g id="Oval-Copy">
                            <g id="path-3-link" transform="translate(2.000000, 2.000000)" fill="#ED8D96" fill-rule="nonzero">
                                <circle id="path-3" cx="165.825" cy="165.825" r="165.825"></circle>
                            </g>
                            <g id="path-3-link" transform="translate(2.000000, 2.000000)" fill="#000000" fill-rule="nonzero">
                                <circle id="path-3" cx="165.825" cy="165.825" r="165.825"></circle>
                            </g>
                            <circle id="Oval" stroke="#000000" stroke-width="3" cx="167.825" cy="167.825" r="167.325"></circle>
                        </g>
                        <g id="Group-12" transform="translate(2.000000, 2.000000)" fill-rule="nonzero">
                            <g id="Mask">
                                <g id="path-5-link" fill="#FAD843">
                                    <circle id="path-5" cx="165.825" cy="165.825" r="165.825"></circle>
                                </g>
                                <g id="path-5-link">
                                    <circle id="path-5" cx="165.825" cy="165.825" r="165.825"></circle>
                                </g>
                            </g>
                        </g>
                    </g>
                    <g id="Group-27" transform="translate(98.800000, 98.800000)" fill="#000000" fill-rule="nonzero">
                        <circle id="Oval" cx="10.725" cy="10.725" r="10.725"></circle>
                        <circle id="Oval" cx="73.425" cy="10.725" r="10.725"></circle>
                    </g>
                    <g id="Group-26" transform="translate(94.500000, 170.400000)">
                        <path d="M174.25,100 C174.25,45.323818 154.676191,1 100,1 C45.3238114,1 1,45.323818 1,100 C1,100 51.6083822,116.5 100.835347,116.5 C150.605403,116.5 174.25,100 174.25,100 Z" id="Oval" stroke="#000000" stroke-width="7.3" fill="#FFFFFF" fill-rule="nonzero" transform="translate(87.625000, 58.750000) rotate(-180.000000) translate(-87.625000, -58.750000) "></path>
                        <g id="Oval" transform="translate(87.250000, 58.500000) rotate(-180.000000) translate(-87.250000, -58.500000) translate(0.250000, 0.500000)">
                            <g id="path-8-link" transform="translate(-0.000000, 0.000000)" fill="#FFFFFF">
                                <path d="M173.25,99 C173.25,44.323818 153.676191,0 99,0 C44.3238114,0 0,44.323818 0,99 C0,99 50.6083822,115.5 99.8353469,115.5 C149.605403,115.5 173.25,99 173.25,99 Z" id="path-8"></path>
                            </g>
                            <g id="path-8-link" transform="translate(-0.000000, 0.000000)">
                                <g id="Path-Clipped" transform="translate(-0.000000, 0.000000)">
                                    <mask id="mask-2" fill="white">
                                        <use xlink:href="#path-1"></use>
                                    </mask>
                                    <g id="Mask" fill-rule="nonzero"></g>
                                    <g mask="url(#mask-2)" id="Path">
                                        <g transform="translate(61.250000, 13.500000) rotate(180.000000) translate(-61.250000, -13.500000) translate(11.250000, -31.500000)">
                                            <g>
                                                <g id="path-11-link" fill="#F1A4AB" fill-rule="nonzero">
                                                    <path d="M91.846286,9.3081192 C86.721507,3.7894371 79.689571,0.75 72.044322,0.75 C66.329646,0.75 61.096103,2.5438154 56.488712,6.0812013 C54.163867,7.8667675 49.698283,14.0959099 47.840976,16.6456475 C45.984424,14.0966598 45.604914,13.1979688 43.279315,11.4124026 C38.672679,7.8750167 33.4391351,6.0812013 27.7244593,6.0812013 C20.0792108,6.0812013 13.046519,9.1206384 7.9217401,14.6393205 C2.8581414,20.0935091 0.0687814,27.5447423 0.0687814,35.6214112 C0.0687814,43.934306 3.1889673,51.543773 9.8878122,59.569446 C15.8804423,66.748458 25.1244613,68.705006 35.0983308,77.143888 C38.504024,80.025841 42.364413,83.292505 46.372844,86.772147 C47.431789,87.693052 48.790592,89.85 50.2,89.85 C51.608653,89.85 52.968211,87.693052 54.025645,86.773647 C58.034076,83.293255 61.896732,80.025091 65.303935,77.141638 C75.276294,68.704256 83.889095,61.417256 89.881724,54.237495 C96.58057,46.212571 99.7,38.6031043 99.7,30.28946 C99.7,22.213541 96.91064,14.7623079 91.846286,9.3081192 Z" id="path-11"></path>
                                                </g>
                                                <g id="path-11-link" stroke="#000000" stroke-width="3.65">
                                                    <path d="M91.846286,9.3081192 C86.721507,3.7894371 79.689571,0.75 72.044322,0.75 C66.329646,0.75 61.096103,2.5438154 56.488712,6.0812013 C54.163867,7.8667675 49.698283,14.0959099 47.840976,16.6456475 C45.984424,14.0966598 45.604914,13.1979688 43.279315,11.4124026 C38.672679,7.8750167 33.4391351,6.0812013 27.7244593,6.0812013 C20.0792108,6.0812013 13.046519,9.1206384 7.9217401,14.6393205 C2.8581414,20.0935091 0.0687814,27.5447423 0.0687814,35.6214112 C0.0687814,43.934306 3.1889673,51.543773 9.8878122,59.569446 C15.8804423,66.748458 25.1244613,68.705006 35.0983308,77.143888 C38.504024,80.025841 42.364413,83.292505 46.372844,86.772147 C47.431789,87.693052 48.790592,89.85 50.2,89.85 C51.608653,89.85 52.968211,87.693052 54.025645,86.773647 C58.034076,83.293255 61.896732,80.025091 65.303935,77.141638 C75.276294,68.704256 83.889095,61.417256 89.881724,54.237495 C96.58057,46.212571 99.7,38.6031043 99.7,30.28946 C99.7,22.213541 96.91064,14.7623079 91.846286,9.3081192 Z" id="path-11"></path>
                                                </g>
                                            </g>
                                        </g>
                                    </g>
                                </g>
                            </g>
                        </g>
                        <g id="Path-16-Clipped" transform="translate(106.000000, 71.000000)" stroke="#000000" stroke-linecap="round" stroke-width="3.65">
                            <path d="M7.480302,0.1221882 C2.927806,5.7376947 0.651558,11.8018811 0.651558,18.3147475" id="Path-16"></path>
                        </g>
                    </g>
                </g>
                <g id="Path" stroke-linejoin="round" transform="translate(0.965000, 269.200000)" fill-rule="nonzero" stroke="#000000" stroke-width="3">
                    <path d="M664.93,2 C684.126,11.515 702.828,16.272 721.035,16.272 C739.242,16.272 756.242,11.106 772.035,0.772 L1447.035,500.772 L2.535,500.772 L664.93,2 Z" fill="#3970AF"></path>
                    <path d="M664.93,2 C672.667,6.182 680.702,9.44 689.035,11.772 C697.369,14.106 706.035,15.606 715.035,16.272 L366.535,500.772 L0.535,500.772 L664.93,2 Z" fill="#FAD843"></path>
                    <path d="M715.035,16.272 C717.708,16.591 719.875,16.757 721.535,16.772 C723.195,16.787 725.75,16.663 729.199,16.4 L727.035,500.772 L366.035,500.772 L715.035,16.272 Z" fill="#F1A4AB"></path>
                    <path d="M729.035,16.272 C733.229,15.722 736.395,15.222 738.535,14.772 C740.675,14.322 743.841,13.489 748.035,12.272 L1086.035,500.772 L726.035,500.772 L729.035,16.272 L729.035,16.272 Z" fill="#64C1BE"></path>
                </g>
            </g>
            <g id="Group" transform="translate(584.000000, 137.000000)" fill-rule="nonzero">
                <path d="M195.44,174.856 L263.405,176.083 C323.171,103.179 331.072,68.79 287.108,72.915 C243.143,77.04 192.907,111.02 136.397,174.855 L195.44,174.855 L195.44,174.856 Z" id="Path" stroke="#000000" stroke-width="3.76" fill="#4A90E2"></path>
                <path d="M128.497,25.657 C126.657,25.832 124.727,26.037 122.712,26.274 C110.753,27.683 98.312,29.935 86.028,33.217 C65.495,38.702 57.63,40.919 50.053,43.543 C45.401,45.154 42.008,46.6 39.851,47.908 C38.044,49.004 37.458,49.753 37.514,49.958 C37.57,50.167 38.454,50.525 40.567,50.574 C43.087,50.632 46.747,50.194 51.577,49.272 C59.447,47.771 67.394,45.765 87.867,40.296 L87.932,40.278 C100.257,36.986 112.199,32.718 123.29,27.958 C125.113,27.177 126.85,26.408 128.497,25.658 L128.497,25.657 Z M125.626,25.535 C127.465,25.36 129.396,25.155 131.411,24.918 C143.37,23.509 155.811,21.257 168.095,17.975 C188.628,12.49 196.493,10.273 204.07,7.649 C208.722,6.037 212.115,4.592 214.272,3.284 C216.079,2.188 216.664,1.439 216.609,1.234 C216.553,1.025 215.669,0.667 213.556,0.618 C211.036,0.56 207.376,0.998 202.546,1.92 C194.676,3.421 186.729,5.427 166.256,10.896 L166.191,10.914 C153.865,14.206 141.924,18.474 130.833,23.234 C129.01,24.015 127.273,24.784 125.626,25.534 L125.626,25.535 Z" id="Shape" stroke="#000000" stroke-width="3.84" fill="#F1A4AB"></path>
                <path d="M121.027,28.392 L138.319,28.486 L138.319,27.566 C138.319,22.791 134.449,18.92 129.673,18.92 C124.898,18.92 121.027,22.79 121.027,27.566 L121.027,28.392 Z" id="Path" stroke="#000000" stroke-width="3.84" fill="#F1A4AB"></path>
                <path d="M130.634,26.583 L130.634,26.583 C202.781,26.583 261.267,85.07 261.267,157.217 L261.267,176.083 L0,174.796 L0,157.217 C0,85.07 58.487,26.583 130.634,26.583 Z" id="Path" stroke="#000000" stroke-width="3.76" fill="#64C1BE"></path>
                <path d="M16.328,157.554 L79.727,157.856 L79.727,156.996 C79.727,139.489 65.534,125.296 48.027,125.296 C30.52,125.296 16.327,139.489 16.327,156.996 L16.327,157.554 L16.328,157.554 Z" id="Path" stroke="#000000" stroke-width="3.76" fill="#FAD843"></path>
                <path d="M16.328,157.88 L16.328,175.12 L74.948,175.12 C79.709,175.12 83.568,171.26 83.568,166.5 C83.568,161.74 79.709,157.88 74.948,157.88 L16.328,157.88 Z" id="Path" stroke="#000000" stroke-width="3.76" fill="#FFFFFF"></path>
                <g id="Oval" transform="translate(28.816000, 164.583000)" fill="#E3E3E3">
                    <ellipse cx="1.834" cy="1.917" rx="1.834" ry="1.917"></ellipse>
                    <ellipse cx="11.003" cy="1.917" rx="1.834" ry="1.917"></ellipse>
                    <ellipse cx="20.171" cy="1.917" rx="1.834" ry="1.917"></ellipse>
                    <ellipse cx="29.34" cy="1.917" rx="1.834" ry="1.917"></ellipse>
                    <ellipse cx="38.509" cy="1.917" rx="1.834" ry="1.917"></ellipse>
                </g>
            </g>
            <g id="Group" opacity="0.9" transform="translate(687.000000, 206.000000)" fill-rule="nonzero">
                <g id="lj2p9dg34l-link" fill="#000000">
                    <path d="M0.094,72.756 L0.094,2.444 C0.094,1.422 0.922,0.593831735 1.944,0.593831735 C2.275,0.593831735 2.601,0.683 2.886,0.852 L43.16,24.677 C43.741,25.02 44.463,25.02 45.044,24.677 L85.318,0.852 C86.198,0.332 87.332,0.622 87.853,1.502 C88.021,1.787 88.11,2.112 88.11,2.444 L88.11,72.756 C88.11,73.778 87.282,74.606 86.26,74.606 C85.929,74.606 85.603,74.517 85.318,74.348 L67.014,63.52 C66.451,63.187 66.106,62.582 66.106,61.928 L66.106,40.193 C66.106,39.171 65.278,38.343 64.256,38.343 C63.925,38.343 63.599,38.433 63.314,38.601 L45.044,49.409 C44.464,49.753 43.741,49.753 43.16,49.409 L24.89,38.6 C24.01,38.08 22.876,38.37 22.356,39.25 C22.187,39.535 22.098,39.86 22.098,40.192 L22.098,61.927 C22.098,62.581 21.753,63.187 21.19,63.519 L2.886,74.347 C2.006,74.867 0.872,74.577 0.352,73.697 C0.182,73.412 0.094,73.087 0.094,72.755 L0.094,72.756 Z" id="lj2p9dg34l"></path>
                </g>
                <g id="lj2p9dg34l-link" fill="#FFFFFF" stroke="#000000" stroke-width="2.825">
                    <path d="M0.094,72.756 L0.094,2.444 C0.094,1.422 0.922,0.593831735 1.944,0.593831735 C2.275,0.593831735 2.601,0.683 2.886,0.852 L43.16,24.677 C43.741,25.02 44.463,25.02 45.044,24.677 L85.318,0.852 C86.198,0.332 87.332,0.622 87.853,1.502 C88.021,1.787 88.11,2.112 88.11,2.444 L88.11,72.756 C88.11,73.778 87.282,74.606 86.26,74.606 C85.929,74.606 85.603,74.517 85.318,74.348 L67.014,63.52 C66.451,63.187 66.106,62.582 66.106,61.928 L66.106,40.193 C66.106,39.171 65.278,38.343 64.256,38.343 C63.925,38.343 63.599,38.433 63.314,38.601 L45.044,49.409 C44.464,49.753 43.741,49.753 43.16,49.409 L24.89,38.6 C24.01,38.08 22.876,38.37 22.356,39.25 C22.187,39.535 22.098,39.86 22.098,40.192 L22.098,61.927 C22.098,62.581 21.753,63.187 21.19,63.519 L2.886,74.347 C2.006,74.867 0.872,74.577 0.352,73.697 C0.182,73.412 0.094,73.087 0.094,72.755 L0.094,72.756 Z" id="lj2p9dg34l"></path>
                </g>
            </g>
        </g>
    </g>
</svg>