<svg xmlns="http://www.w3.org/2000/svg" width="43" height="43" viewBox="0 0 43 43">
    <g fill="none" fill-rule="evenodd">
        <circle cx="21.762" cy="21.762" r="19.665" fill="#FAD843" fill-rule="nonzero"/>
        <path fill="#000" fill-rule="nonzero" d="M21.5 0C9.645 0 0 9.645 0 21.5S9.645 43 21.5 43 43 33.355 43 21.5 33.355 0 21.5 0zm0 40.676A19.115 19.115 0 0 1 7.986 35.09a19.28 19.28 0 0 1-3.476-4.71A19.056 19.056 0 0 1 2.324 21.5c0-10.573 8.603-19.176 19.176-19.176 5.015 0 9.586 1.937 13.007 5.1a19.277 19.277 0 0 1 4.294 5.81 19.06 19.06 0 0 1 1.875 8.266c0 10.573-8.603 19.176-19.176 19.176z"/>
        <circle cx="14.421" cy="16.518" r="2.36" fill="#000"/>
        <circle cx="28.579" cy="16.518" r="2.36" fill="#000"/>
        <path fill="#000" d="M21.197 33.561c4.513 0 8.839-2.288 11.315-6.086l-1.96-1.255c-2.274 3.488-6.434 5.434-10.599 4.958-3.246-.371-6.248-2.225-8.03-4.958l-1.96 1.255c2.157 3.308 5.792 5.55 9.723 6 .504.058 1.008.086 1.51.086z"/>
    </g>
</svg>
