<?xml version="1.0" encoding="UTF-8"?>
<svg width="271px" height="395px" viewBox="0 0 271 395" version="1.1" xmlns="http://www.w3.org/2000/svg" xmlns:xlink="http://www.w3.org/1999/xlink">
    <!-- Generator: Sketch 60 (88103) - https://sketch.com -->
    <title>Combined Shape</title>
    <desc>Created with Sketch.</desc>
    <g id="v2" stroke="none" stroke-width="1" fill="none" fill-rule="evenodd">
        <g id="Startup---ParkPlace" transform="translate(-1169.000000, -373.000000)" fill="#F1A4AB" stroke="#000000" stroke-width="3">
            <path d="M1210.00006,411 L1534.99335,411.006593 C1536.65015,411.006748 1537.99325,412.349847 1537.99341,414.006654 L1537.99341,414.006654 L1538,738.999939 L1538,738.999939 C1538.00009,740.656915 1536.65692,742.000034 1535.00006,741.999878 L1535.00006,741.999878 L1210.00677,741.993285 C1208.34997,741.99313 1207.00687,740.650031 1207.00671,738.993225 L1207.00671,738.993225 L1207,413.999817 C1207.00003,412.342963 1208.34321,410.999845 1210.00006,411 L1210.00006,411 Z M1288.00006,489 C1286.34321,488.999845 1285.00003,490.342963 1285,491.999817 L1285.00355,660.996389 C1285.0037,662.653196 1286.3468,663.996295 1288.00361,663.99645 L1457.00006,663.999878 C1458.65692,664.000034 1460.00009,662.656915 1460.00012,661.000061 L1460,660.999939 L1459.99657,492.003489 C1459.99642,490.346682 1458.65332,489.003584 1456.99651,489.003428 L1288.00006,489 Z" id="Combined-Shape" transform="translate(1372.500000, 576.499939) rotate(-345.000000) translate(-1372.500000, -576.499939) "></path>
        </g>
    </g>
</svg>