<svg xmlns="http://www.w3.org/2000/svg" width="56" height="56" viewBox="0 0 56 56">
    <defs>
        <filter id="prefix__a" width="103.9%" height="113.7%" x="-2%" y="-6.9%" filterUnits="objectBoundingBox">
            <feOffset dx="7" dy="7" in="SourceAlpha" result="shadowOffsetOuter1"/>
            <feColorMatrix in="shadowOffsetOuter1" result="shadowMatrixOuter1" values="0 0 0 0 0 0 0 0 0 0 0 0 0 0 0 0 0 0 0.07 0"/>
            <feMerge>
                <feMergeNode in="shadowMatrixOuter1"/>
                <feMergeNode in="SourceGraphic"/>
            </feMerge>
        </filter>
    </defs>
    <g fill="none" fill-rule="evenodd" filter="url(#prefix__a)" transform="translate(-33 -46)">
        <g transform="translate(33 46)">
            <g fill-rule="nonzero">
                <rect width="46.8" height="46.8" x=".975" y=".975" fill="#FAD843" stroke="#000" stroke-width="1.95" rx="2.6"/>
                <path fill="#FFF" stroke="#000" stroke-width="1.95" d="M12.025 47.775v-18.2h3.9V.975H2.6C1.703.975.975 1.703.975 2.6v43.55c0 .897.728 1.625 1.625 1.625h9.425z"/>
                <path fill="#FFF" d="M16.25 40.956c2.883-1.246 4.437-2.423 4.661-3.533V14.3c0-3.896 3.727-5.846 11.181-5.85 7.639 0 11.458 1.952 11.458 5.856v21.45c0 3.467-1.998 5.2-5.993 5.2H16.25z"/>
                <path fill="#000" d="M7.8 28.6H11.7V30.55H7.8zM5.85 39H11.7V40.95H5.85z"/>
                <g fill="#000">
                    <path d="M0 0H3.25V16.25H0zM0 17.55H3.25V20.8H0z" transform="translate(30.55 14.3)"/>
                </g>
            </g>
            <circle cx="8.577" cy="11.177" r="1.427" fill="#000"/>
        </g>
    </g>
</svg>
