<svg xmlns="http://www.w3.org/2000/svg" width="58" height="46" viewBox="0 0 58 46">
    <defs>
        <filter id="prefix__a" width="103.9%" height="113.7%" x="-2%" y="-6.9%" filterUnits="objectBoundingBox">
            <feOffset dx="7" dy="7" in="SourceAlpha" result="shadowOffsetOuter1"/>
            <feColorMatrix in="shadowOffsetOuter1" result="shadowMatrixOuter1" values="0 0 0 0 0 0 0 0 0 0 0 0 0 0 0 0 0 0 0.07 0"/>
            <feMerge>
                <feMergeNode in="shadowMatrixOuter1"/>
                <feMergeNode in="SourceGraphic"/>
            </feMerge>
        </filter>
    </defs>
    <g fill="#FAD843" stroke="#000" stroke-width="2" filter="url(#prefix__a)" transform="translate(-33 -45)">
        <g>
            <path d="M12.92 0h5.475c3.576 0 6.475 2.899 6.475 6.475 0 4.208-1.334 8.308-3.81 11.71L9.137 34.563c-1.267 1.74-3.703 2.124-5.443.857-.168-.122-.326-.258-.472-.405-1.878-1.891-2.17-4.84-.701-7.063l8.262-12.503c.49-.742.286-1.742-.456-2.232-.263-.174-.572-.267-.888-.267-1.654 0-2.995-1.34-2.995-2.995v-3.48C6.445 2.9 9.345 0 12.92 0zM37.92 0h5.475c3.576 0 6.475 2.899 6.475 6.475 0 4.208-1.334 8.308-3.81 11.71L34.137 34.563c-1.267 1.74-3.703 2.124-5.443.857-.168-.122-.326-.258-.472-.405-1.878-1.891-2.17-4.84-.701-7.063l8.262-12.503c.49-.742.286-1.742-.456-2.232-.263-.174-.572-.267-.888-.267-1.654 0-2.995-1.34-2.995-2.995v-3.48C31.445 2.9 34.345 0 37.92 0z" transform="translate(33 46)"/>
        </g>
    </g>
</svg>
