<svg xmlns="http://www.w3.org/2000/svg" width="54" height="54" viewBox="0 0 54 54">
    <defs>
        <filter id="prefix__a" width="118%" height="109.2%" x="-9%" y="-4.6%" filterUnits="objectBoundingBox">
            <feOffset dx="7" dy="7" in="SourceAlpha" result="shadowOffsetOuter1"/>
            <feColorMatrix in="shadowOffsetOuter1" result="shadowMatrixOuter1" values="0 0 0 0 0 0 0 0 0 0 0 0 0 0 0 0 0 0 0.07 0"/>
            <feMerge>
                <feMergeNode in="shadowMatrixOuter1"/>
                <feMergeNode in="SourceGraphic"/>
            </feMerge>
        </filter>
    </defs>
    <g fill="none" fill-rule="evenodd" filter="url(#prefix__a)" transform="translate(-51 -88)">
        <g transform="translate(54 91)">
            <rect width="44" height="44" x="-1.5" y="-1.5" fill="#FFF" stroke="#000" stroke-width="3" rx="4"/>
            <path fill="#4285F4" fill-rule="nonzero" d="M29.896 10H12.104c-.61 0-1.104.494-1.104 1.104v17.792c0 .61.494 1.104 1.104 1.104H21v-7.857h-2.39v-2.857H21v-2.277c0-2.583 1.792-3.99 4.1-3.99 1.103 0 2.29.084 2.567.12v2.698h-1.839c-1.255 0-1.495.594-1.495 1.469v1.98h2.992l-.391 2.857h-2.6V30h5.562c.61 0 1.104-.494 1.104-1.104V11.104c0-.61-.494-1.104-1.104-1.104z"/>
        </g>
    </g>
</svg>
