<svg xmlns="http://www.w3.org/2000/svg" width="54" height="54" viewBox="0 0 54 54">
    <defs>
        <filter id="prefix__a" width="118%" height="109.2%" x="-9%" y="-4.6%" filterUnits="objectBoundingBox">
            <feOffset dx="7" dy="7" in="SourceAlpha" result="shadowOffsetOuter1"/>
            <feColorMatrix in="shadowOffsetOuter1" result="shadowMatrixOuter1" values="0 0 0 0 0 0 0 0 0 0 0 0 0 0 0 0 0 0 0.07 0"/>
            <feMerge>
                <feMergeNode in="shadowMatrixOuter1"/>
                <feMergeNode in="SourceGraphic"/>
            </feMerge>
        </filter>
    </defs>
    <g fill="none" fill-rule="evenodd" filter="url(#prefix__a)" transform="translate(-51 -210)">
        <g transform="translate(54 213)">
            <rect width="44" height="44" x="-1.5" y="-1.5" fill="#FFF" stroke="#000" stroke-width="3" rx="4"/>
            <path fill="#3970AF" fill-rule="nonzero" d="M29.098 10H12.407C11.63 10 11 10.63 11 11.407v16.691c0 .777.63 1.407 1.407 1.407h16.691c.777 0 1.407-.63 1.407-1.407V11.407c0-.777-.63-1.407-1.407-1.407zm-11.18 14.743h-2.375v-7.146h2.375v7.146zm-1.187-8.122h-.016c-.797 0-1.312-.548-1.312-1.234 0-.701.531-1.235 1.344-1.235.812 0 1.312.534 1.328 1.235 0 .686-.516 1.234-1.344 1.234zm9.752 8.122h-2.375V20.92c0-.96-.344-1.616-1.203-1.616-.656 0-1.047.442-1.219.869-.063.152-.078.366-.078.58v3.99h-2.375s.031-6.475 0-7.146h2.375v1.012c.316-.487.88-1.18 2.14-1.18 1.563 0 2.735 1.022 2.735 3.217v4.097z"/>
        </g>
    </g>
</svg>
