<svg xmlns="http://www.w3.org/2000/svg" width="24" height="24" viewBox="0 0 24 24">
    <path fill="#616B77" fill-rule="evenodd" d="M15.596 18.556v.004a1.049 1.049 0 1 1-2.096 0c0-2.303-2.105-4.17-4.701-4.17-2.597 0-4.703 1.867-4.703 4.17A1.05 1.05 0 1 1 2 18.545c0-2.362 1.423-4.418 3.522-5.482a4.677 4.677 0 0 1-1.426-3.368A4.698 4.698 0 0 1 8.8 5 4.698 4.698 0 0 1 13.5 9.695c0 1.321-.546 2.515-1.426 3.368 2.1 1.064 3.522 3.12 3.522 5.482v.01zm.901-4.152a8.478 8.478 0 0 0-1.535-1.86c.066-.143.128-.288.185-.436a2.608 2.608 0 0 0 3.564-2.428 2.608 2.608 0 0 0-3.564-2.428 6.768 6.768 0 0 0-1.04-1.808A4.688 4.688 0 0 1 16.104 5a4.699 4.699 0 0 1 4.702 4.695c0 1.32-.546 2.514-1.426 3.368 2.1 1.064 3.523 3.12 3.523 5.482a5.823 5.823 0 0 1 0 .015 1.05 1.05 0 0 1-2.097 0c0-2.186-1.896-3.98-4.31-4.156zM8.783 7.07a2.616 2.616 0 0 0-2.62 2.61 2.615 2.615 0 0 0 2.62 2.61 2.615 2.615 0 0 0 2.62-2.61 2.615 2.615 0 0 0-2.62-2.61z"/>
</svg>
