<svg xmlns="http://www.w3.org/2000/svg" width="153" height="48" viewBox="0 0 153 48">
    <g fill="none" fill-rule="nonzero">
        <path fill="#FFF" d="M63.059 18.824v2.12c-2.033-.114-3.32 1.108-3.479 2.86v5.372h-2.168V18.893h2.168v2.052c.678-1.384 1.898-2.121 3.479-2.121zM81.849 24.811h-7.995c.28 1.518 1.675 2.608 3.274 2.56a4.16 4.16 0 0 0 2.99-1.188l1.209 1.257c-1.044 1.097-2.538 1.736-4.389 1.736-3.25 0-5.409-2.08-5.409-5.164 0-3.086 2.207-5.165 5.362-5.188 3.724-.023 5.243 2.308 4.958 5.987zm-1.993-1.6c-.071-1.645-1.21-2.65-2.942-2.65-1.66 0-2.87 1.005-3.107 2.65h6.05zM95.546 20.743c-1.746 0-2.993 1.326-2.993 3.268 0 1.943 1.247 3.269 2.993 3.269 1.27 0 2.314-.412 2.994-1.235l1.225 1.235c-.907 1.21-2.382 1.896-4.31 1.896-2.993 0-5.102-2.08-5.102-5.165s2.086-5.187 5.103-5.187c1.837 0 3.265.594 4.195 1.668l-1.202 1.417a3.89 3.89 0 0 0-2.903-1.166zM119.53 24c0 3.07-2.308 5.176-5.636 5.176-3.351 0-5.659-2.107-5.659-5.176 0-3.092 2.308-5.176 5.66-5.176 3.327 0 5.634 2.084 5.634 5.176zm-8.963.023c0 1.97 1.36 3.321 3.327 3.321 1.944 0 3.304-1.351 3.304-3.321 0-1.947-1.36-3.298-3.304-3.298-1.967 0-3.327 1.328-3.327 3.298zM129.42 18.824l2.897 8.147 2.851-8.147h2.244l-3.973 10.352h-2.337l-4.043-10.352zM152.47 18.824v2.12c-2.032-.114-3.32 1.108-3.478 2.86v5.372h-2.168V18.893h2.168v2.052c.678-1.384 1.875-2.121 3.479-2.121z"/>
        <path fill="#2CE1BE" d="M0 34.824a2.824 2.824 0 1 1 2.824 2.823A2.837 2.837 0 0 1 0 34.824z"/>
        <circle cx="40" cy="35.294" r="3.294" fill="#2CE1BE"/>
        <path fill="#2CE1BE" d="M0 13.66A2.353 2.353 0 1 1 2.34 16 2.338 2.338 0 0 1 0 13.66zM37.647 13.176a2.824 2.824 0 1 1 5.647 0 2.824 2.824 0 0 1-5.647 0zM16.941 23.53a3.765 3.765 0 1 1 7.53 0 3.765 3.765 0 0 1-7.53 0zM18.824 2.824a2.824 2.824 0 1 1 5.647 0 2.824 2.824 0 0 1-5.647 0zM18.824 45.647a2.353 2.353 0 1 1 4.705 0 2.353 2.353 0 0 1-4.705 0z"/>
        <path fill="#3964AE" d="M22.588 17.882V6.588c-.31.054-.625.085-.94.091a4.396 4.396 0 0 1-.942-.09v11.293a6.544 6.544 0 0 1 1.882 0zM25.412 21.035a6 6 0 0 1 .915 1.553l10.379-5.975c-.409-.45-.72-.98-.915-1.554l-10.38 5.976zM26.288 26.353a5.634 5.634 0 0 1-.876 1.615l9.477 5.914a5.634 5.634 0 0 1 .876-1.615l-9.477-5.914zM16.024 26.353L5.647 32.329c.41.45.722.979.917 1.553l10.377-5.951a5.755 5.755 0 0 1-.917-1.578zM24.47 5.196l11.36 6.098a3.876 3.876 0 0 1 .876-1.453L25.37 3.765a4.03 4.03 0 0 1-.9 1.43zM17.882 43.612L6.516 36.706a4.42 4.42 0 0 1-.869 1.588l11.366 6.882a4.126 4.126 0 0 1 .87-1.564zM35.805 36.706L24.47 42.8c.407.413.714.902.9 1.435l11.335-6.094a4.405 4.405 0 0 1-.901-1.435zM39.53 17.974a4.237 4.237 0 0 1-.942-.092v12.236c.31-.055.626-.085.941-.092.317-.004.633.026.942.092V17.882a4.237 4.237 0 0 1-.942.092zM6.496 12.235L17.882 5.33a4.923 4.923 0 0 1-.872-1.564L5.647 10.647c.4.45.692.995.85 1.588zM2.824 30.026c.316-.004.632.026.94.092V16.94a4.233 4.233 0 0 1-.94.114 4.418 4.418 0 0 1-.942-.114v13.177c.31-.065.625-.095.942-.092z"/>
    </g>
</svg>
