<svg xmlns="http://www.w3.org/2000/svg" width="24" height="24" viewBox="0 0 24 24">
    <path fill="#343944" fill-rule="evenodd" d="M10.9 14.956V12h-.544a.9.9 0 0 1-.9-.9v-.4a.9.9 0 0 1 .9-.9H12.2a.9.9 0 0 1 .9.9v.4c0 .06-.006.12-.017.178h.017v3.678h1.679a.9.9 0 0 1 .9.9v.4a.9.9 0 0 1-.9.9H9.222a.9.9 0 0 1-.9-.9v-.4a.9.9 0 0 1 .9-.9H10.9zM12 1c6.075 0 11 4.925 11 11s-4.925 11-11 11S1 18.075 1 12 5.925 1 12 1zm0 2.165c-4.879 0-8.834 3.948-8.834 8.817 0 4.87 3.955 8.818 8.834 8.818 4.88 0 8.835-3.948 8.835-8.818 0-4.869-3.956-8.817-8.835-8.817zm-.189 2.613c.712 0 1.29.57 1.29 1.272a1.28 1.28 0 0 1-1.29 1.271 1.28 1.28 0 0 1-1.289-1.271 1.28 1.28 0 0 1 1.289-1.272z"/>
</svg>
