<svg xmlns="http://www.w3.org/2000/svg" width="24" height="24" viewBox="0 0 24 24">
    <path fill="#616B77" fill-rule="evenodd" d="M12 1c6.075 0 11 4.925 11 11s-4.925 11-11 11S1 18.075 1 12 5.925 1 12 1zm0 2a9 9 0 1 0 0 18 9 9 0 0 0 0-18zm3.01 10.396c0 .599-.2 1.082-.602 1.45-.4.37-.93.6-1.586.694v1.475h-1.323V15.53a5.605 5.605 0 0 1-1.358-.389 4.566 4.566 0 0 1-1.15-.698l.707-1.425c.351.312.768.568 1.249.768.48.199.906.298 1.278.298.272 0 .486-.05.641-.149a.49.49 0 0 0 .234-.439.518.518 0 0 0-.174-.398 1.275 1.275 0 0 0-.438-.255 10.583 10.583 0 0 0-.74-.224 8.99 8.99 0 0 1-1.185-.404 2.098 2.098 0 0 1-.8-.618c-.223-.275-.334-.643-.334-1.102 0-.557.184-1.021.552-1.39.368-.369.874-.603 1.518-.703V6.987h1.323v1.395c.397.047.786.135 1.164.264.378.13.716.291 1.014.484l-.686 1.455a6.109 6.109 0 0 0-1.189-.538c-.421-.14-.774-.21-1.06-.21-.225 0-.402.043-.532.126a.406.406 0 0 0-.194.363c0 .153.056.281.17.384.112.103.252.186.417.25.167.062.412.144.737.243.484.14.883.28 1.198.42a2.1 2.1 0 0 1 .811.642c.225.29.338.666.338 1.131z"/>
</svg>
