<?xml version="1.0" encoding="UTF-8"?>
<svg width="506px" height="465px" viewBox="0 0 506 465" version="1.1" xmlns="http://www.w3.org/2000/svg" xmlns:xlink="http://www.w3.org/1999/xlink">
    <!-- Generator: Sketch 52.6 (67491) - http://www.bohemiancoding.com/sketch -->
    <title>Group 4</title>
    <desc>Created with Sketch.</desc>
    <g id="Page-1" stroke="none" stroke-width="1" fill="none" fill-rule="evenodd">
        <g id="Artboard-Copy-15" transform="translate(-128.000000, -117.000000)">
            <g id="Group-4" transform="translate(130.000000, 119.000000)">
                <g id="Group-3" stroke="#000000">
                    <g id="Group">
                        <circle id="Oval" stroke-width="3" fill="#4A90E2" fill-rule="nonzero" cx="224.5" cy="215.5" r="215.5"></circle>
                        <path d="M309.309911,208.669922 L280,208.669922 L303.475215,189.962225 C302.108662,183.355537 301.390625,176.511622 301.390625,169.5 C301.390625,113.995383 346.386008,69 401.890625,69 C457.395242,69 502.390625,113.995383 502.390625,169.5 C502.390625,225.004617 457.395242,270 401.890625,270 C360.281702,270 324.578675,244.713852 309.309911,208.669922 Z" id="Combined-Shape" stroke-width="3" fill="#FFFFFF" fill-rule="nonzero"></path>
                        <path d="M300.235822,461.090698 C300.202643,378.231092 232.965672,311.033191 150.057842,311.000012 C67.1500146,310.966833 -0.0331665043,378.110941 1.22838552e-05,460.970547 C1.22838553e-05,460.970547 300.235822,461.090698 300.235822,461.090698 Z" id="Oval" stroke-width="3" fill="#F1A4AB"></path>
                        <path d="M177.5,313 L177.5,297.5 L179,297.5 C216.831505,297.5 247.5,266.831505 247.5,229 L247.5,177 C247.5,139.168495 216.831505,108.5 179,108.5 C141.168495,108.5 110.5,139.168495 110.5,177 L110.5,313 C110.5,331.501539 125.498461,346.5 144,346.5 C162.501539,346.5 177.5,331.501539 177.5,313 Z" id="Combined-Shape" stroke-width="3" fill="#FAD843" fill-rule="nonzero"></path>
                        <circle id="Oval" stroke-width="3" fill="#FFFFFF" fill-rule="nonzero" cx="164" cy="179" r="10"></circle>
                        <circle id="Oval-Copy" stroke-width="3" fill="#FFFFFF" fill-rule="nonzero" cx="214" cy="179" r="10"></circle>
                        <polygon id="Triangle" stroke-width="2.5" fill="#FAD843" points="189 191 209 215.848459 189 215.848459"></polygon>
                        <path d="M204.235822,253.090698 C204.231928,243.655546 196.340964,236.003779 186.610861,236.000001 C176.880758,235.996223 168.996108,243.641865 169.000001,253.077016 C169.000001,253.077016 204.235822,253.090698 204.235822,253.090698 Z" id="Oval-Copy-2" stroke-width="3" fill="#FFFFFF" transform="translate(186.617911, 244.545349) rotate(-180.000000) translate(-186.617911, -244.545349) "></path>
                        <path d="M118.66326,206.66326 C118.659698,198.332235 111.440576,191.575899 102.538899,191.572563 C93.6372236,191.569227 86.4238769,198.320155 86.4274392,206.651179 C86.4274392,206.651179 118.66326,206.66326 118.66326,206.66326 Z" id="Oval-Copy-3" stroke-width="3" fill="#FAD843" transform="translate(102.545349, 199.117911) rotate(-90.000000) translate(-102.545349, -199.117911) "></path>
                    </g>
                </g>
                <g id="Group-2" transform="translate(333.000000, 107.000000)" fill="#000000">
                    <path d="M9.6306489,24.7242633 C11.5642523,25.025046 12.8533019,25.5764728 13.4978364,26.3785601 C13.941849,26.9085107 14.163852,27.395485 14.163852,27.8394976 C14.163852,28.0543425 14.1065609,28.2548613 13.991977,28.4410601 C13.7914552,28.7848118 13.4691928,28.9566851 13.0251801,28.9566851 C12.7387204,28.9566851 12.4021352,28.8850713 12.0154145,28.7418414 C11.9008306,28.6702264 11.7647643,28.5986126 11.6072114,28.5269976 C11.0056459,28.1832459 10.3324755,27.9039518 9.58768015,27.689107 C9.38715831,27.631815 9.20096225,27.6031695 9.0290864,27.6031695 C8.54210479,27.6031695 8.12674436,27.8108497 7.78299265,28.2262164 C7.62543977,28.4697072 7.54666452,28.7418399 7.54666452,29.0426226 C7.54666452,29.3290824 7.62543977,29.6513448 7.78299265,30.0094195 C8.11242138,30.7112459 8.57433082,31.4166425 9.16873483,32.1256304 C9.76313885,32.8346184 10.3109849,33.4540783 10.8122895,33.9840289 C11.0701033,34.2418427 11.2706221,34.4566843 11.413852,34.6285601 C12.1586474,35.4449705 12.817495,36.2864334 13.3904145,37.1529742 C13.9633341,38.019515 14.3285648,38.9397532 14.4861176,39.9137164 C14.5147636,40.1285612 14.5290864,40.3505642 14.5290864,40.579732 C14.5290864,41.3388504 14.3214062,42.1409257 13.9060395,42.985982 C13.304474,43.9742682 12.4236234,44.6402772 11.2634614,44.9840289 C10.547312,45.1845507 9.82401192,45.2848101 9.09353952,45.2848101 C8.60655792,45.2848101 8.11958362,45.2418418 7.63260202,45.1559039 C6.38650204,44.9267361 5.34093958,44.4755687 4.49588327,43.8023883 C3.95160972,43.3440526 3.47179681,42.7066892 3.05643015,41.8902789 C2.85590831,41.4749122 2.7556489,41.0881973 2.7556489,40.7301226 C2.7556489,40.3577249 2.85590831,40.0139784 3.05643015,39.6988726 C3.29992095,39.4697048 3.54340809,39.3551226 3.7868989,39.3551226 C3.9014828,39.3551226 4.02322638,39.3837682 4.15213327,39.4410601 C4.51020798,39.627259 4.85395454,39.8779075 5.18338327,40.1930133 L5.37674265,40.3863726 C5.40538862,40.4006956 5.42687278,40.4150184 5.44119577,40.4293414 C5.94250036,40.930646 6.52257268,41.3603292 7.18143015,41.7184039 C7.51085888,41.8902797 7.84028267,41.9762164 8.1697114,41.9762164 C8.51346311,41.9762164 8.86437106,41.8831183 9.22244577,41.6969195 C9.63781243,41.4104597 9.84549265,41.0380676 9.84549265,40.579732 C9.84549265,40.3648872 9.80252433,40.1357228 9.7165864,39.892232 C9.43012663,39.1187906 8.94315233,38.3095539 8.2556489,37.4644976 C7.56814546,36.6194413 6.93078204,35.8889799 6.34353952,35.2730914 C6.01411079,34.9150167 5.77062364,34.642884 5.61307077,34.4566851 C5.01150526,33.7262127 4.44217502,32.8668463 3.90506296,31.8785601 C3.3679509,30.8902739 3.05643058,29.8805184 2.97049265,28.8492633 C2.95616966,28.7346793 2.94900827,28.6272585 2.94900827,28.5269976 C2.94900827,27.6246494 3.27843206,26.7867671 3.93728952,26.0133258 C4.65343893,25.2971763 5.54145089,24.8818159 6.60135202,24.767232 C7.20291753,24.6956171 7.78298985,24.6598101 8.3415864,24.6598101 C8.78559903,24.6598101 9.21528224,24.6812943 9.6306489,24.7242633 Z M29.5950472,29.6012164 C29.1653576,28.9996509 28.635415,28.6988726 28.0052035,28.6988726 L27.8333285,28.6988726 C27.131502,28.7561646 26.454751,29.0211359 25.803055,29.4937945 C25.1513591,29.9664531 24.6679655,30.5035571 24.3528597,31.1051226 C24.037754,31.821272 23.8300738,32.5660563 23.7298128,33.3394976 C24.3170554,33.3251746 25.1370341,33.2213345 26.1897738,33.0279742 C27.2425134,32.8346138 28.1627516,32.4872866 28.950516,31.985982 C29.5234355,31.6279073 29.809891,31.1480944 29.809891,30.5465289 C29.809891,30.346007 29.774084,30.1240041 29.7024691,29.8805133 L29.5950472,29.6012164 Z M23.794266,36.3687945 C23.779943,36.5549933 23.7727816,36.7483508 23.7727816,36.9488726 C23.7727816,37.4931462 23.8300727,38.0803799 23.9446566,38.7105914 C24.1022095,39.5556477 24.3922456,40.3075933 24.8147738,40.9664508 C25.2373019,41.6253082 25.8352777,42.0263459 26.6087191,42.1695758 C26.751949,42.1838987 26.8951767,42.1910601 27.0384066,42.1910601 C27.8404939,42.1910601 28.5351485,41.911766 29.122391,41.3531695 C29.7955714,40.708635 30.3398368,39.985335 30.7552035,39.1832476 C30.8697874,38.9540798 30.9700468,38.7249154 31.0559847,38.4957476 C31.1848916,38.1376729 31.3424421,37.8368947 31.528641,37.5934039 C31.6575479,37.421528 31.8437439,37.3355914 32.0872347,37.3355914 C32.1731726,37.3355914 32.2591093,37.3427528 32.3450472,37.3570758 C32.8177058,37.5003056 33.1041613,37.8082453 33.2044222,38.2809039 C33.2473912,38.4814257 33.2688753,38.6962673 33.2688753,38.9254351 C33.2688753,39.2118949 33.2330684,39.5055117 33.1614535,39.8062945 C33.0325466,40.3505681 32.8821575,40.8017354 32.7102816,41.1598101 C31.8509023,42.8069538 30.6621121,43.959937 29.1438753,44.6187945 C28.1985581,45.0341612 27.2246095,45.2418414 26.2220003,45.2418414 C25.6061118,45.2418414 24.9830712,45.1630661 24.3528597,45.0055133 C22.6770701,44.5185316 21.4130853,43.5911321 20.5608675,42.2232867 C19.7086497,40.8554413 19.1822878,39.3050011 18.981766,37.5719195 C18.895828,36.8271241 18.8528597,36.0966627 18.8528597,35.3805133 C18.8528597,34.40655 18.931635,33.4540856 19.0891878,32.5230914 C19.5188775,29.9592765 20.5071489,28.1044773 22.0540316,26.9586383 C23.2714856,26.05629 24.7467313,25.6051226 26.4798128,25.6051226 C26.9524715,25.6051226 27.4466071,25.6409296 27.9622347,25.7125445 C29.2656267,25.8844204 30.3899644,26.3928788 31.3352816,27.2379351 C32.2376299,28.0256995 32.6887972,29.1428758 32.6887972,30.5894976 L32.6887972,30.782857 C32.6315053,31.6279133 32.3987602,32.3655361 31.990555,32.9957476 C31.5823499,33.6259591 31.0488266,34.1630631 30.3899691,34.6070758 C29.4303289,35.2086413 28.366863,35.6383245 27.1995394,35.8961383 C26.0322159,36.153952 24.8971361,36.3115025 23.794266,36.3687945 Z M48.3133518,29.6012164 C47.8836621,28.9996509 47.3537195,28.6988726 46.723508,28.6988726 L46.551633,28.6988726 C45.8498066,28.7561646 45.1730556,29.0211359 44.5213596,29.4937945 C43.8696636,29.9664531 43.38627,30.5035571 43.0711643,31.1051226 C42.7560586,31.821272 42.5483783,32.5660563 42.4481174,33.3394976 C43.0353599,33.3251746 43.8553387,33.2213345 44.9080784,33.0279742 C45.960818,32.8346138 46.8810562,32.4872866 47.6688205,31.985982 C48.2417401,31.6279073 48.5281955,31.1480944 48.5281955,30.5465289 C48.5281955,30.346007 48.4923886,30.1240041 48.4207737,29.8805133 L48.3133518,29.6012164 Z M42.5125705,36.3687945 C42.4982476,36.5549933 42.4910862,36.7483508 42.4910862,36.9488726 C42.4910862,37.4931462 42.5483773,38.0803799 42.6629612,38.7105914 C42.820514,39.5556477 43.1105502,40.3075933 43.5330784,40.9664508 C43.9556065,41.6253082 44.5535823,42.0263459 45.3270237,42.1695758 C45.4702536,42.1838987 45.6134813,42.1910601 45.7567112,42.1910601 C46.5587985,42.1910601 47.253453,41.911766 47.8406955,41.3531695 C48.513876,40.708635 49.0581414,39.985335 49.473508,39.1832476 C49.588092,38.9540798 49.6883514,38.7249154 49.7742893,38.4957476 C49.9031962,38.1376729 50.0607467,37.8368947 50.2469455,37.5934039 C50.3758524,37.421528 50.5620485,37.3355914 50.8055393,37.3355914 C50.8914772,37.3355914 50.9774139,37.3427528 51.0633518,37.3570758 C51.5360104,37.5003056 51.8224659,37.8082453 51.9227268,38.2809039 C51.9656958,38.4814257 51.9871799,38.6962673 51.9871799,38.9254351 C51.9871799,39.2118949 51.951373,39.5055117 51.879758,39.8062945 C51.7508511,40.3505681 51.600462,40.8017354 51.4285862,41.1598101 C50.5692069,42.8069538 49.3804167,43.959937 47.8621799,44.6187945 C46.9168627,45.0341612 45.9429141,45.2418414 44.9403049,45.2418414 C44.3244164,45.2418414 43.7013758,45.1630661 43.0711643,45.0055133 C41.3953747,44.5185316 40.1313899,43.5911321 39.2791721,42.2232867 C38.4269543,40.8554413 37.9005924,39.3050011 37.7000705,37.5719195 C37.6141326,36.8271241 37.5711643,36.0966627 37.5711643,35.3805133 C37.5711643,34.40655 37.6499395,33.4540856 37.8074924,32.5230914 C38.2371821,29.9592765 39.2254534,28.1044773 40.7723362,26.9586383 C41.9897902,26.05629 43.4650358,25.6051226 45.1981174,25.6051226 C45.670776,25.6051226 46.1649117,25.6409296 46.6805393,25.7125445 C47.9839312,25.8844204 49.1082689,26.3928788 50.0535862,27.2379351 C50.9559344,28.0256995 51.4071018,29.1428758 51.4071018,30.5894976 L51.4071018,30.782857 C51.3498098,31.6279133 51.1170648,32.3655361 50.7088596,32.9957476 C50.3006544,33.6259591 49.7671311,34.1630631 49.1082737,34.6070758 C48.1486335,35.2086413 47.0851675,35.6383245 45.917844,35.8961383 C44.7505204,36.153952 43.6154406,36.3115025 42.5125705,36.3687945 Z M71.6562109,57.3805133 C71.0546454,56.8935316 70.5175414,56.3421049 70.0448828,55.7262164 C69.7011311,55.2965267 69.3000934,54.6591633 68.8417578,53.814107 C68.3834222,52.9690507 68.082644,52.1311684 67.9394141,51.3004351 C67.9107681,51.1428823 67.8964453,50.9853317 67.8964453,50.8277789 C67.8964453,50.2405364 68.1327711,49.7822076 68.6054297,49.4527789 C68.8489205,49.323872 69.0852463,49.2594195 69.3144141,49.2594195 C69.6151968,49.2594195 69.8944909,49.3883245 70.1523047,49.6461383 C70.5819943,50.0758279 70.8827726,50.5556408 71.0546484,51.0855914 C71.1692323,51.3863741 71.2766532,51.6871524 71.3769141,51.9879351 C71.5774359,52.6897616 71.8424072,53.337867 72.1718359,53.9322711 C72.5012647,54.5266751 73.0383687,55.0100687 73.7831641,55.3824664 C74.3274376,55.6259572 74.8215733,55.7477008 75.2655859,55.7477008 C75.7525675,55.7477008 76.1822507,55.5973116 76.5546484,55.2965289 C77.2564749,54.7379323 77.8293858,53.9143729 78.2733984,52.8258258 C79.1327777,50.8778993 79.655559,49.130521 79.8417578,47.5836383 C79.9849877,46.3518613 80.0566016,44.976875 80.0566016,43.4586383 C80.0566016,43.0719176 80.0494402,42.6780413 80.0351172,42.2769976 L80.0351172,41.3531695 C79.061154,42.9430212 77.8437182,44.0530361 76.3827734,44.6832476 C75.8671459,44.9124154 75.3372032,45.0269976 74.7929297,45.0269976 C73.8046435,45.0269976 72.7734038,44.6617669 71.6991797,43.9312945 C70.3384958,42.7138405 69.5006136,41.2887245 69.1855078,39.6559039 C68.927694,38.223605 68.7987891,36.7483594 68.7987891,35.2301226 L68.7987891,34.5855914 C68.7987891,33.9410569 68.7916277,33.3036935 68.7773047,32.673482 L68.7773047,32.5445758 C68.7629817,32.186501 68.7558203,31.7997862 68.7558203,31.3844195 C68.7558203,30.9690528 68.7629817,30.5250469 68.7773047,30.0523883 C68.8345966,29.107071 69.0422769,28.2584467 69.4003516,27.5064898 C69.7584263,26.7545329 70.3743055,26.3069463 71.2480078,26.1637164 L71.4628516,26.1637164 C72.2219699,26.1637164 72.7089442,26.4573332 72.9237891,27.0445758 C73.0813419,27.4742654 73.1601172,27.9254328 73.1601172,28.3980914 C73.1601172,28.6272592 73.138633,28.863585 73.0956641,29.1070758 C73.0097261,29.7086413 72.8879826,30.4176185 72.7304297,31.2340289 C72.5012619,32.336899 72.3007431,33.504205 72.1288672,34.735982 C72.0142833,35.6096843 71.9569922,36.4547279 71.9569922,37.2711383 C71.9569922,37.61489 71.9641536,37.9514751 71.9784766,38.2809039 C72.0357685,39.398097 72.322224,40.3075931 72.8378516,41.0094195 L73.2675391,41.4820758 C73.6972287,41.8687964 74.1197505,42.0621539 74.5351172,42.0621539 C74.7069931,42.0621539 74.8717049,42.0335083 75.0292578,41.9762164 C75.5878544,41.7613716 76.0927321,41.3674953 76.5439063,40.7945758 C76.9950804,40.2216562 77.3424076,39.6702294 77.5858984,39.1402789 C78.9609053,36.2756812 79.7271737,33.2607374 79.8847266,30.095357 C79.8847266,29.3935306 79.938437,28.7275216 80.0458594,28.0973101 C80.1532818,27.4670986 80.4146724,26.9658016 80.8300391,26.5934039 C81.1451448,26.3069441 81.6106349,26.1637164 82.2265234,26.1637164 C82.3983993,26.1637164 82.5845954,26.1780391 82.7851172,26.2066851 C83.7447574,26.335592 84.4179278,26.6793386 84.8046484,27.2379351 C85.1913691,27.7965317 85.4062107,28.4625406 85.4491797,29.235982 C85.4635027,29.5654107 85.4706641,29.9019959 85.4706641,30.2457476 C85.4706641,30.6897603 85.4563413,31.1409276 85.4276953,31.5992633 C85.3990493,32.0432759 85.3775652,32.4729591 85.3632422,32.8883258 C85.3632422,34.1201027 85.377565,35.4664434 85.4062109,36.9273883 C85.4491799,38.1161963 85.4706641,39.3264706 85.4706641,40.5582476 C85.4706641,41.8043476 85.4491799,43.0719131 85.4062109,44.360982 C85.334596,48.4000647 84.446584,51.7874006 82.7421484,54.5230914 C81.0377128,57.2587821 79.0540087,58.6552525 76.7909766,58.7125445 C74.4133605,58.6695755 72.7017891,58.2255696 71.6562109,57.3805133 Z M100.343266,42.1910601 C101.961763,42.1051222 103.23649,41.4319518 104.167484,40.1715289 C105.098479,38.9111059 105.606937,37.5074741 105.692875,35.9605914 L105.714359,35.4879351 C105.714359,34.385065 105.535325,33.3251798 105.17725,32.3082476 C104.761883,31.1337626 104.095874,30.2242665 103.179203,29.579732 C102.534669,29.1213964 101.754077,28.892232 100.837406,28.892232 C100.450685,28.892232 100.042486,28.9352003 99.6127968,29.0211383 C97.9083612,29.4221819 96.7124096,30.2672256 96.0249061,31.5562945 C95.5092786,32.5016117 95.2514686,33.5471742 95.2514686,34.6930133 C95.2514686,35.1083799 95.2872756,35.5380631 95.3588905,35.9820758 C95.5594124,37.3857286 96.0642901,38.7177465 96.873539,39.9781695 C97.6827878,41.2385925 98.8393517,41.9762153 100.343266,42.1910601 Z M94.8217811,26.7437945 C96.225434,26.1995209 97.8081005,25.9273883 99.569828,25.9273883 C99.8849338,25.9273883 100.200035,25.9345496 100.515141,25.9488726 C102.634943,26.0491335 104.403805,26.6793356 105.821781,27.8394976 C107.311372,29.3004424 108.249514,31.069305 108.636234,33.1461383 C108.779464,33.8909336 108.851078,34.6357179 108.851078,35.3805133 C108.851078,36.6695822 108.629075,37.9371476 108.185062,39.1832476 C107.468913,41.145497 106.194186,42.6923566 104.360844,43.8238726 C103.014483,44.568668 101.596528,45.0413195 100.106937,45.2418414 C99.6915707,45.2991333 99.2690489,45.3277789 98.8393593,45.3277789 C97.7794581,45.3277789 96.7195729,45.1487442 95.6596718,44.7906695 C93.9695592,44.174781 92.6375412,43.0647661 91.663578,41.4605914 C90.6896148,39.8564167 90.1310267,38.06607 89.9877968,36.0894976 C89.9591508,35.7887149 89.944828,35.4879366 89.944828,35.1871539 C89.944828,33.5543332 90.2742518,32.0146351 90.9331093,30.5680133 C91.7208736,28.8635776 93.0170846,27.5888508 94.8217811,26.7437945 Z M117.170945,33.9625445 C117.371467,36.8414651 117.672245,38.7249099 118.073289,39.6129351 C118.646208,40.8876811 119.405315,41.6396267 120.350633,41.8687945 C120.422248,41.8831175 120.501023,41.8902789 120.586961,41.8902789 C121.002327,41.8902789 121.396204,41.7184056 121.768601,41.3746539 C122.226937,40.9879332 122.624394,40.5224431 122.960984,39.9781695 C123.297574,39.4338959 123.544642,38.9612444 123.702195,38.5602008 C124.561574,36.2398766 125.091517,33.8408121 125.292039,31.3629351 C125.320685,31.0335064 125.335008,30.6324687 125.335008,30.1598101 C125.335008,29.4006917 125.385137,28.627262 125.485398,27.8394976 C125.585659,27.0517333 125.836308,26.4143699 126.237351,25.9273883 C126.538134,25.5836365 126.974979,25.4117633 127.547898,25.4117633 C127.762743,25.4117633 127.991907,25.4332474 128.235398,25.4762164 C128.937225,25.6624152 129.438522,26.0491301 129.739304,26.6363726 C130.040087,27.2236151 130.211961,27.8967855 130.254929,28.6559039 C130.297898,29.2574694 130.319383,29.8447031 130.319383,30.4176226 L130.319383,30.8258258 C130.30506,31.0979625 130.297898,31.3414497 130.297898,31.5562945 L130.297898,33.1676226 C130.297898,34.2418467 130.290737,35.3160548 130.276414,36.3902789 C130.276414,36.8199685 130.269252,37.2424903 130.254929,37.657857 L130.254929,38.3238726 L130.276414,39.0543414 C130.276414,39.8277827 130.240607,40.6585036 130.168992,41.5465289 C130.068731,42.7210139 129.810921,43.5947031 129.395554,44.1676226 C128.965865,44.5543433 128.543343,44.7477008 128.127976,44.7477008 C127.984746,44.7477008 127.841519,44.7262166 127.698289,44.6832476 C127.154015,44.4970488 126.688525,44.1139146 126.301804,43.5338336 C125.915084,42.9537525 125.650112,42.3557767 125.506883,41.7398883 C125.463914,41.4820745 125.442429,41.2958784 125.442429,41.1812945 C125.442429,41.0810336 125.435268,41.0344846 125.420945,41.0416461 C125.406622,41.0488076 125.370815,41.102518 125.313523,41.2027789 C125.227585,41.3603317 125.034228,41.6467872 124.733445,42.0621539 C124.017296,43.093409 123.165091,43.9026457 122.176804,44.4898883 C121.603885,44.819317 120.980844,44.9840289 120.307664,44.9840289 C119.806359,44.9840289 119.283578,44.8980922 118.739304,44.7262164 C117.593465,44.2678808 116.669647,43.4192564 115.96782,42.1803179 C115.265994,40.9413795 114.736051,39.5878774 114.377976,38.1197711 C114.019902,36.6516648 113.762092,35.3590345 113.604539,34.2418414 C113.518601,33.7405368 113.41118,32.9563649 113.282273,31.8893023 C113.153366,30.8222397 113.06743,29.7730965 113.024461,28.7418414 C113.010138,28.4697046 113.002976,28.2190561 113.002976,27.9898883 C113.002976,27.3453538 113.060267,26.8655409 113.174851,26.5504351 C113.489957,25.9202236 113.905318,25.6051226 114.420945,25.6051226 L114.463914,25.6051226 C114.63579,25.5621537 114.836309,25.5263467 115.065476,25.4977008 C116.497775,25.4977008 117.213914,26.5289404 117.213914,28.5914508 L117.213914,30.8258258 C117.213914,31.6422361 117.199591,32.6877985 117.170945,33.9625445 Z" id="see-you" transform="translate(66.537516, 41.686177) rotate(-1.000000) translate(-66.537516, -41.686177) "></path>
                    <path d="M18.7636719,81.9682617 C18.656575,81.9682617 18.54183,81.9759114 18.4194336,81.9912109 L18.0981445,81.9912109 C17.5779596,81.9912109 17.0883812,81.9300136 16.6293945,81.8076172 C16.0786105,81.6546216 15.7649743,81.1956418 15.6884766,80.4306641 C15.6884766,79.5891885 16.0021127,79.0766611 16.6293945,78.8930664 C17.0730816,78.77067 17.5397111,78.7094727 18.0292969,78.7094727 C18.2128915,78.7094727 18.3964835,78.7171223 18.5800781,78.7324219 L18.8325195,78.7324219 C18.8478191,78.1969374 18.8707681,77.6691107 18.9013672,77.1489258 C18.9319663,76.5522431 18.9549153,75.9479197 18.9702148,75.3359375 L18.9702148,74.027832 C18.9549153,73.6912418 18.9472656,73.347007 18.9472656,72.9951172 C18.9472656,72.4290336 18.9702146,71.8553089 19.0161133,71.2739258 C19.0926111,70.3559524 19.3412251,69.5642123 19.7619629,68.8986816 C20.1827007,68.233151 20.8979442,67.8391933 21.9077148,67.7167969 C22.0607104,67.7014973 22.2137037,67.6938477 22.3666992,67.6938477 C23.1928752,67.6938477 23.7895489,67.9233375 24.1567383,68.3823242 C24.6004254,68.9331082 24.8528643,69.6215779 24.9140625,70.4477539 C24.9446616,70.8149432 24.9599609,71.1744774 24.9599609,71.5263672 C24.9599609,71.9853539 24.9370119,72.4290343 24.8911133,72.8574219 L24.7993164,74.1425781 C24.6616204,75.6878332 24.5698244,77.2101162 24.5239258,78.7094727 C25.3654013,78.7094727 26.1992146,78.724772 27.0253906,78.7553711 C28.2646546,78.8777675 28.983723,79.2831997 29.1826172,79.9716797 C29.2285159,80.1246752 29.2514648,80.2776685 29.2514648,80.4306641 C29.2514648,80.9202498 28.976077,81.3409813 28.425293,81.6928711 C28.0734032,81.8611662 27.5455764,81.9529622 26.8417969,81.9682617 C26.3675106,81.9835613 25.9161805,81.9912109 25.487793,81.9912109 L24.8681641,81.9912109 C24.699869,81.9912109 24.5468757,81.9835613 24.4091797,81.9682617 L24.4091797,82.6108398 C24.4091797,83.5594123 24.4321287,84.7833584 24.4780273,86.2827148 C24.5545251,88.1645602 24.7304674,90.0004793 25.0058594,91.7905273 C25.2812514,93.5805754 25.7325815,94.8274704 26.3598633,95.53125 C26.6964535,95.8372411 27.0559877,96.0055337 27.4384766,96.0361328 L27.6679688,96.0361328 C27.9586603,96.0361328 28.2416978,96.0131838 28.5170898,95.9672852 C28.7006845,95.936686 28.8613274,95.9213867 28.9990234,95.9213867 C29.1826181,95.9213867 29.343261,95.9443357 29.480957,95.9902344 C29.6798513,96.0667322 29.7792969,96.319171 29.7792969,96.7475586 L29.7792969,96.9311523 C29.6722,97.7114297 29.2897168,98.2622054 28.6318359,98.5834961 C27.973955,98.9047868 27.2319377,99.080729 26.4057617,99.1113281 L26.1533203,99.1113281 C25.4189416,99.1113281 24.7840196,99.0501308 24.2485352,98.9277344 C22.8868747,98.6064437 21.8273964,97.7879298 21.0700684,96.472168 C20.3127404,95.1564062 19.7734391,93.6035246 19.4521484,91.8134766 C19.1308578,90.0234285 18.9319665,88.264006 18.8554688,86.5351562 C18.7942705,85.0816985 18.7636719,83.8271537 18.7636719,82.7714844 L18.7636719,81.9682617 Z M33.961838,68.5429688 C33.9465385,68.2216781 33.9235895,67.8621439 33.8929904,67.4643555 C33.8470917,66.9135715 33.8241427,66.3474964 33.8241427,65.7661133 C33.8241427,65.4295231 33.8317924,65.0852882 33.8470919,64.7333984 C33.8929906,63.784826 34.1377798,62.9969107 34.5814669,62.3696289 C34.9792554,61.8035453 35.644776,61.5205078 36.5780489,61.5205078 C36.6851458,61.5205078 36.7998908,61.5281575 36.9222872,61.543457 C38.0085557,61.6658535 38.7620475,62.1057091 39.1827853,62.8630371 C39.6035231,63.6203651 39.8291881,64.5115509 39.8597872,65.5366211 L39.8827364,66.3168945 C39.8827364,67.0818723 39.8444881,67.8238896 39.7679904,68.5429688 C39.7220917,69.0019554 39.691493,69.4226869 39.6761935,69.8051758 C39.6455944,71.2280345 39.630295,72.6432221 39.630295,74.0507812 C39.630295,75.1217501 39.6379447,76.192703 39.6532443,77.2636719 C39.6685438,78.2734425 39.6761935,79.2831981 39.6761935,80.2929688 L39.6761935,82.4960938 C40.5023695,81.3639266 41.580972,80.4383174 42.9120333,79.7192383 C44.5337862,78.9389609 45.9107256,78.5488281 47.0428927,78.5488281 C47.4406811,78.5488281 47.8002153,78.5947261 48.121506,78.6865234 C49.4372678,79.0384132 50.408775,79.9104748 51.0360568,81.3027344 C51.6633385,82.6949939 52.0534714,84.4238178 52.2064669,86.4892578 C52.2676651,87.2542356 52.2982638,88.4093347 52.2982638,89.9545898 C52.2982638,91.4845454 52.2447161,92.991529 52.1376193,94.4755859 C52.0305224,95.9596428 51.8469305,97.0076467 51.586838,97.6196289 C51.2502478,98.2316111 50.7377204,98.621744 50.0492404,98.7900391 C49.8503461,98.8359377 49.6591045,98.8588867 49.4755099,98.8588867 C49.0165232,98.8588867 48.5881421,98.7211928 48.1903536,98.4458008 C47.6854683,98.093911 47.4330294,97.481938 47.4330294,96.6098633 L47.4330294,96.3115234 C47.4942276,95.6230434 47.5860236,94.9192744 47.70842,94.2001953 C47.8920147,93.1904246 48.0144093,92.1883188 48.0756075,91.1938477 C48.0756075,90.9184557 48.0909069,90.5971698 48.121506,90.2299805 C48.1674046,89.1896107 48.1903536,88.0115626 48.1903536,86.6958008 C48.1903536,85.3953385 48.0641342,84.2364146 47.8116915,83.2189941 C47.5592489,82.2015737 47.0887946,81.6240241 46.4003146,81.4863281 C46.3238168,81.4710286 46.2473202,81.4633789 46.1708224,81.4633789 C45.5129415,81.4633789 44.6026316,82.0371036 43.4398654,83.1845703 L43.0956271,83.5517578 L42.7284396,83.9648438 C41.8257658,84.9746144 41.1755444,86.0226183 40.777756,87.1088867 C40.3799675,88.1951552 40.0586817,89.3502543 39.8138888,90.5742188 C39.7679901,90.7578134 39.7220921,90.949055 39.6761935,91.1479492 C39.6761935,91.4080417 39.6838431,91.7369772 39.6991427,92.1347656 C39.7450414,92.7926465 39.7679904,93.4811162 39.7679904,94.2001953 C39.7679904,94.5520851 39.7603407,94.9192689 39.7450411,95.3017578 C39.714442,96.4492245 39.5614488,97.2830378 39.2860568,97.8032227 C38.8270701,98.4611035 38.1844984,98.858886 37.3583224,98.996582 C37.1747277,99.0271811 36.9987855,99.0424805 36.8304904,99.0424805 C36.2032086,99.0424805 35.6141845,98.8435892 35.0634005,98.4458008 C34.3596209,97.956215 33.9694881,97.0765037 33.8929904,95.8066406 L33.8929904,94.9345703 C33.8929904,94.3684868 33.90064,93.7871124 33.9159396,93.1904297 L33.961838,91.7216797 C33.9771376,90.4671161 33.9847872,89.2049217 33.9847872,87.9350586 C34.0306859,84.9516452 34.0536349,81.9682766 34.0536349,78.9848633 C34.0536349,75.5118641 34.0230362,72.0312674 33.961838,68.5429688 Z M68.3685002,82.7485352 C67.9095136,82.1059538 67.3434385,81.784668 66.670258,81.784668 L66.4866643,81.784668 C65.7369861,81.8458662 65.0140929,82.1289037 64.3179631,82.6337891 C63.6218333,83.1386744 63.1054811,83.7123991 62.7688909,84.3549805 C62.4323006,85.1199583 62.2104604,85.9155232 62.1033635,86.7416992 C62.7306453,86.7263997 63.6065317,86.6154795 64.7310491,86.4089355 C65.8555664,86.2023915 66.8385481,85.8313829 67.6800237,85.2958984 C68.2920059,84.9134095 68.5979924,84.4008821 68.5979924,83.7583008 C68.5979924,83.544107 68.5597441,83.3069674 68.4832463,83.046875 L68.3685002,82.7485352 Z M62.1722112,89.9775391 C62.1569116,90.1764333 62.149262,90.3829742 62.149262,90.597168 C62.149262,91.1785511 62.2104593,91.8058235 62.3328557,92.4790039 C62.5011508,93.3816777 62.8109622,94.1848923 63.2622991,94.8886719 C63.713636,95.5924514 64.3523828,96.0208326 65.1785588,96.1738281 C65.3315544,96.1891277 65.4845476,96.1967773 65.6375432,96.1967773 C66.4943183,96.1967773 67.2363356,95.8984405 67.8636174,95.3017578 C68.5826965,94.6132778 69.1640709,93.8406618 69.607758,92.9838867 C69.7301545,92.7390938 69.8372498,92.4943046 69.9290471,92.2495117 C70.0667431,91.8670228 70.2350357,91.545737 70.4339299,91.2856445 C70.5716259,91.1020499 70.7705172,91.0102539 71.0306096,91.0102539 C71.1224069,91.0102539 71.2142029,91.0179036 71.3060002,91.0332031 C71.8108856,91.1861987 72.1168721,91.5151342 72.223969,92.0200195 C72.2698676,92.2342133 72.2928166,92.4637032 72.2928166,92.7084961 C72.2928166,93.0144872 72.2545683,93.3281234 72.1780705,93.6494141 C72.0403745,94.2307972 71.8797316,94.712726 71.696137,95.0952148 C70.7781636,96.8546637 69.5083195,98.0862595 67.8865666,98.7900391 C66.876796,99.2337262 65.8364418,99.4555664 64.7654729,99.4555664 C64.107592,99.4555664 63.4420713,99.3714201 62.7688909,99.203125 C60.9788428,98.6829401 59.6286773,97.6923087 58.7183537,96.2312012 C57.8080302,94.7700936 57.2457799,93.1139415 57.0315862,91.2626953 C56.9397888,90.4671184 56.8938909,89.6868528 56.8938909,88.921875 C56.8938909,87.8815052 56.9780372,86.8641 57.1463323,85.8696289 C57.6053189,83.1310084 58.6609724,81.1497457 60.3133245,79.9257812 C61.6137867,78.9619092 63.1896173,78.4799805 65.0408635,78.4799805 C65.5457489,78.4799805 66.0735756,78.5182288 66.6243596,78.5947266 C68.0166192,78.7783212 69.2176163,79.3214473 70.227387,80.2241211 C71.191259,81.0655967 71.6731877,82.2589441 71.6731877,83.8041992 L71.6731877,84.0107422 C71.6119895,84.913416 71.3633755,85.7013313 70.9273381,86.3745117 C70.4913008,87.0476922 69.9214009,87.6214169 69.2176213,88.0957031 C68.1925511,88.7382845 67.0565761,89.1972642 65.8096623,89.4726562 C64.5627486,89.7480483 63.350277,89.9163408 62.1722112,89.9775391 Z M86.6189125,83.046875 C86.1293267,83.4293639 85.7009455,83.8959933 85.3337562,84.4467773 C84.7523731,85.318852 84.2857436,86.1985633 83.9338539,87.0859375 C83.2912725,88.5546948 82.9087894,89.686845 82.7863929,90.4824219 C82.679296,91.063805 82.6257484,91.7140264 82.6257484,92.4331055 C82.6257484,92.6778984 82.6333981,92.9303372 82.6486976,93.1904297 C82.6639972,93.7565132 82.6716468,94.4526326 82.6716468,95.2788086 L82.6716468,95.4165039 C82.6716468,96.4721732 82.4957046,97.3289355 82.1438148,97.9868164 C81.8072246,98.6599969 81.0958059,98.996582 80.0095375,98.996582 L79.8718421,98.996582 C78.6325781,98.8741856 77.8982105,98.3616582 77.6687171,97.4589844 C77.4851225,96.7858039 77.3933265,96.0820349 77.3933265,95.3476562 C77.3933265,95.0875638 77.4086258,94.8121759 77.439225,94.5214844 C77.4545245,94.3225902 77.4621742,94.1236989 77.4621742,93.9248047 C77.4621742,93.74121 77.4698238,93.5576181 77.4851234,93.3740234 L77.5310218,91.3544922 L77.5310218,89.5185547 C77.5310218,87.0706258 77.5080728,84.6227336 77.4621742,82.1748047 L77.4621742,81.8535156 C77.4621742,80.8896436 77.6457661,80.132327 78.0129554,79.581543 C78.441343,78.9542612 79.2675066,78.640625 80.4914711,78.640625 C81.5165413,78.640625 82.1744123,79.9716664 82.4651039,82.6337891 L82.57985,83.6665039 C82.7022464,83.2993146 82.8973128,82.8556341 83.165055,82.3354492 C83.4327973,81.8152643 83.7043603,81.4174818 83.9797523,81.1420898 C84.8212279,80.3006143 85.7468371,79.6580426 86.7566078,79.2143555 C87.4603873,78.9083644 88.2100543,78.7553711 89.0056312,78.7553711 C89.7247103,78.7553711 90.482027,78.8854154 91.2776039,79.1455078 C91.7671896,79.3138029 92.1420231,79.6274391 92.4021156,80.0864258 C92.5398116,80.28532 92.6086586,80.5071602 92.6086586,80.7519531 C92.6086586,81.3027371 92.5933592,81.6890451 92.5627601,81.9108887 C92.532161,82.1327322 92.4709637,82.366047 92.3791664,82.6108398 C92.0425761,83.5135136 91.5376984,83.9648438 90.8645179,83.9648438 L90.5891273,83.9648438 C90.1454402,83.9648438 89.4416712,83.5976599 88.4777992,82.8632812 C88.2330063,82.6490875 88.0417647,82.5419922 87.9040687,82.5419922 C87.5674785,82.5419922 87.1390974,82.7102848 86.6189125,83.046875 Z M106.911805,82.7485352 C106.452818,82.1059538 105.886743,81.784668 105.213563,81.784668 L105.029969,81.784668 C104.280291,81.8458662 103.557398,82.1289037 102.861268,82.6337891 C102.165138,83.1386744 101.648786,83.7123991 101.312196,84.3549805 C100.975606,85.1199583 100.753765,85.9155232 100.646668,86.7416992 C101.27395,86.7263997 102.149837,86.6154795 103.274354,86.4089355 C104.398871,86.2023915 105.381853,85.8313829 106.223329,85.2958984 C106.835311,84.9134095 107.141297,84.4008821 107.141297,83.7583008 C107.141297,83.544107 107.103049,83.3069674 107.026551,83.046875 L106.911805,82.7485352 Z M100.715516,89.9775391 C100.700217,90.1764333 100.692567,90.3829742 100.692567,90.597168 C100.692567,91.1785511 100.753764,91.8058235 100.876161,92.4790039 C101.044456,93.3816777 101.354267,94.1848923 101.805604,94.8886719 C102.256941,95.5924514 102.895688,96.0208326 103.721864,96.1738281 C103.874859,96.1891277 104.027853,96.1967773 104.180848,96.1967773 C105.037623,96.1967773 105.779641,95.8984405 106.406922,95.3017578 C107.126001,94.6132778 107.707376,93.8406618 108.151063,92.9838867 C108.273459,92.7390938 108.380555,92.4943046 108.472352,92.2495117 C108.610048,91.8670228 108.778341,91.545737 108.977235,91.2856445 C109.114931,91.1020499 109.313822,91.0102539 109.573915,91.0102539 C109.665712,91.0102539 109.757508,91.0179036 109.849305,91.0332031 C110.35419,91.1861987 110.660177,91.5151342 110.767274,92.0200195 C110.813173,92.2342133 110.836122,92.4637032 110.836122,92.7084961 C110.836122,93.0144872 110.797873,93.3281234 110.721375,93.6494141 C110.583679,94.2307972 110.423037,94.712726 110.239442,95.0952148 C109.321469,96.8546637 108.051624,98.0862595 106.429872,98.7900391 C105.420101,99.2337262 104.379747,99.4555664 103.308778,99.4555664 C102.650897,99.4555664 101.985376,99.3714201 101.312196,99.203125 C99.5221478,98.6829401 98.1719822,97.6923087 97.2616587,96.2312012 C96.3513351,94.7700936 95.7890849,93.1139415 95.5748911,91.2626953 C95.4830938,90.4671184 95.4371958,89.6868528 95.4371958,88.921875 C95.4371958,87.8815052 95.5213421,86.8641 95.6896372,85.8696289 C96.1486239,83.1310084 97.2042774,81.1497457 98.8566294,79.9257812 C100.157092,78.9619092 101.732922,78.4799805 103.584168,78.4799805 C104.089054,78.4799805 104.616881,78.5182288 105.167665,78.5947266 C106.559924,78.7783212 107.760921,79.3214473 108.770692,80.2241211 C109.734564,81.0655967 110.216493,82.2589441 110.216493,83.8041992 L110.216493,84.0107422 C110.155294,84.913416 109.90668,85.7013313 109.470643,86.3745117 C109.034606,87.0476922 108.464706,87.6214169 107.760926,88.0957031 C106.735856,88.7382845 105.599881,89.1972642 104.352967,89.4726562 C103.106053,89.7480483 101.893582,89.9163408 100.715516,89.9775391 Z M117.198838,66.5922852 L117.198838,66.2939453 C117.198838,65.6972626 117.237087,65.0776399 117.313585,64.4350586 C117.405382,63.6853804 117.646346,63.035159 118.036485,62.484375 C118.426624,61.933591 119.057721,61.6276045 119.929796,61.5664062 C121.123161,61.5664062 121.964624,61.9641887 122.45421,62.7597656 C122.943795,63.5553425 123.196234,64.4886014 123.211534,65.5595703 C123.211534,66.8600325 123.173285,68.1757746 123.096788,69.5068359 C123.050889,70.6237035 123.02029,71.748204 123.004991,72.8803711 C123.02029,75.9402822 123.073838,79.0001475 123.165635,82.0600586 C123.135036,83.2534239 122.844349,85.0166713 122.293565,87.3498535 C121.742781,89.6830358 121.008413,90.8496094 120.09044,90.8496094 C118.881775,90.7425125 118.116809,88.9218927 117.795518,85.3876953 C117.474227,81.853498 117.313585,78.8395307 117.313585,76.3457031 C117.313585,74.5709547 117.298285,72.7962328 117.267686,71.0214844 L117.267686,70.7001953 C117.252387,70.0729135 117.244737,69.4456412 117.244737,68.8183594 C117.229437,68.0839807 117.214138,67.3419634 117.198838,66.5922852 Z M117.474229,94.7050781 C117.979114,93.848303 118.675234,93.3587246 119.562608,93.2363281 C119.730903,93.205729 119.899196,93.1904297 120.067491,93.1904297 C120.755971,93.1904297 121.406192,93.4046203 122.018174,93.8330078 C122.706654,94.3837918 123.089138,95.0875608 123.165635,95.9443359 C123.180935,96.0361333 123.188585,96.1279292 123.188585,96.2197266 C123.188585,96.9541052 122.905547,97.6043266 122.339463,98.1704102 C121.834578,98.690595 121.077261,98.9506836 120.067491,98.9506836 C119.837997,98.9506836 119.600858,98.9353843 119.356065,98.9047852 C118.315695,98.7058909 117.665474,98.1857138 117.405381,97.3442383 C117.282985,96.9617494 117.221788,96.5639669 117.221788,96.1508789 C117.221788,95.6765927 117.305934,95.1946639 117.474229,94.7050781 Z" id="there!"></path>
                </g>
            </g>
        </g>
    </g>
</svg>