<svg xmlns="http://www.w3.org/2000/svg" width="55" height="118" viewBox="0 0 55 118">
    <path fill="#FFF" fill-rule="evenodd" stroke="#000" stroke-width="3" d="M52.797 87.878c-.354-.837-.997-1.257-1.926-1.257H35.998V4.115c0-.617-.2-1.124-.598-1.52-.396-.397-.906-.595-1.527-.595H21.125c-.62 0-1.129.198-1.527.595-.398.396-.598.903-.598 1.52v82.507H4.127c-.885 0-1.527.42-1.925 1.257-.354.837-.243 1.608.333 2.315l23.57 25.386c.443.44.974.66 1.594.66.576 0 1.085-.22 1.527-.66l23.24-25.386c.575-.707.686-1.478.331-2.316z"/>
</svg>
