<?xml version="1.0" encoding="UTF-8"?>
<svg width="182px" height="371px" viewBox="0 0 182 371" version="1.1" xmlns="http://www.w3.org/2000/svg" xmlns:xlink="http://www.w3.org/1999/xlink">
    <!-- Generator: Sketch 60 (88103) - https://sketch.com -->
    <title>Combined Shape</title>
    <desc>Created with Sketch.</desc>
    <g id="v3" stroke="none" stroke-width="1" fill="none" fill-rule="evenodd">
        <g id="Sourcing---TY" transform="translate(0.000000, -104.000000)" fill="#F1A4AB" stroke="#000000" stroke-width="3">
            <path d="M-183.999939,106 L140.993348,106.006593 C142.650154,106.006748 143.993253,107.349847 143.993409,109.006654 L143.993409,109.006654 L144,433.999939 L144,433.999939 C144.000088,435.656915 142.656915,437.000034 141.000061,436.999878 L141.000061,436.999878 L-183.993226,436.993285 C-185.650033,436.99313 -186.993131,435.650031 -186.993287,433.993225 L-186.993287,433.993225 L-187,108.999817 C-186.999966,107.342963 -185.656793,105.999845 -183.999939,106 L-183.999939,106 Z M-105.999939,184 C-107.656793,183.999845 -108.999966,185.342963 -109,186.999817 L-108.996451,355.996389 C-108.996295,357.653196 -107.653197,358.996295 -105.99639,358.99645 L63.0000609,358.999878 C64.6569151,359.000034 66.0000881,357.656915 66.0001217,356.000061 L66,355.999939 L65.9965724,187.003489 C65.9964171,185.346682 64.6533183,184.003584 62.9965116,184.003428 L-105.999939,184 Z" id="Combined-Shape" transform="translate(-21.500000, 271.499939) rotate(-345.000000) translate(21.500000, -271.499939) "></path>
        </g>
    </g>
</svg>