<?xml version="1.0" encoding="UTF-8"?>
<svg width="1054px" height="1326px" viewBox="0 0 1054 1326" version="1.1" xmlns="http://www.w3.org/2000/svg" xmlns:xlink="http://www.w3.org/1999/xlink">
    <!-- Generator: Sketch 60 (88103) - https://sketch.com -->
    <title>smiley</title>
    <desc>Created with Sketch.</desc>
    <g id="Page-1" stroke="none" stroke-width="1" fill="none" fill-rule="evenodd">
        <g id="smiley" transform="translate(5.000000, 5.000000)">
            <ellipse id="Oval" stroke="#000000" stroke-width="10" fill="#FAD843" transform="translate(491.818000, 823.400000) rotate(-180.000000) translate(-491.818000, -823.400000) " cx="491.818" cy="823.4" rx="491.782" ry="492"></ellipse>
            <g id="Group" transform="translate(287.910000, 619.400000)" fill="#000000" fill-rule="nonzero">
                <ellipse id="Oval" cx="31.186" cy="31.2" rx="31.186" ry="31.2"></ellipse>
                <ellipse id="Oval" cx="213.504" cy="31.2" rx="31.186" ry="31.2"></ellipse>
            </g>
            <g id="Group" transform="translate(278.314000, 830.600000)">
                <path d="M0,48 C0,207.058 56.916,336 215.903,336 C374.889,336 503.773,207.058 503.773,48 C503.773,48 356.615,0 213.473,0 C68.754,0 0,48 0,48 Z" id="Path" stroke="#000000" stroke-width="10" fill="#FFFFFF" fill-rule="nonzero"></path>
                <g id="Clipped" transform="translate(180.000000, 168.000000)">
                    <path d="M209.772,0 C193.155,0 177.937,5.218 164.54,15.509 C157.78,20.703 144.795,38.824 139.394,46.242 C133.996,38.827 132.892,36.212 126.13,31.018 C112.735,20.728 97.517,15.508 80.9,15.508 C58.67,15.508 38.22,24.351 23.318,40.405 C8.594,56.272 0.483,77.948 0.483,101.445 C0.483,125.627 3.839,139.902094 23.318,163.249094 C167.572626,171.921133 250.472919,73.8474758 277.154113,31.018 C262.252113,14.964 232.003,0 209.772,0 Z" id="y5qyyhsbwh" fill="#F1A4AB" fill-rule="nonzero"></path>
                    <path d="M209.772,0 C193.155,0 177.937,5.218 164.54,15.509 C157.78,20.703 144.795,38.824 139.394,46.242 C133.996,38.827 132.892,36.212 126.13,31.018 C112.735,20.728 97.517,15.508 80.9,15.508 C58.67,15.508 38.22,24.351 23.318,40.405 C8.594,56.272 0.482827033,77.948 0.482827033,101.445 C0.482827033,125.627 10.0083807,142.410422 29.4874765,165.75739 C146.494965,177.782078 263.413936,75.5342762 279,28.3839892 C264.098,12.3299892 232.003,0 209.772,0 Z" id="y5qyyhsbwh" stroke="#000000" stroke-width="10"></path>
                </g>
                <path d="M327.068,203.992 C313.83,220.328 307.211,237.969 307.211,256.916" id="Path" stroke="#000000" stroke-width="10" stroke-linecap="round"></path>
            </g>
            <g id="Group" transform="translate(98.000000, 0.000000)" fill-rule="nonzero">
                <path d="M586.32,523.567 L790.215,527.25 C969.513,308.538 993.215,205.37 861.323,217.744 C729.43,230.119 578.72,332.06 409.19,523.567 L586.32,523.567 Z" id="Path" stroke="#000000" stroke-width="10" fill="#4A90E2"></path>
                <path d="M385.491,75.972 C379.974,76.496 374.181,77.11 368.137,77.822 C332.259,82.048 294.934,88.806 258.085,98.65 C196.485,115.105 172.89,121.756 150.158,129.63 C136.204,134.463 126.024,138.8 119.553,142.724 C116.451,144.604 114.326,146.322 113.213,147.747 C112.591,148.544 112.52,148.797 112.541,148.877 C112.563,148.957 112.756,149.147 113.698,149.528 C115.376,150.208 118.075,150.638 121.701,150.721 C129.263,150.895 140.239,149.581 154.728,146.817 C178.34,142.313 202.181,136.295 263.6,119.887 L263.796,119.835 L263.796,119.835 C300.772,109.957 336.597,97.153 369.868,82.877 C375.338,80.53 380.552,78.222 385.491,75.972 L385.491,75.972 Z M376.878,75.604 C382.395,75.079 388.188,74.465 394.232,73.754 C430.109,69.527 467.435,62.77 504.284,52.926 C565.884,36.47 589.479,29.819 612.21,21.946 C626.165,17.112 636.345,12.776 642.815,8.852 C645.918,6.972 648.043,5.254 649.155,3.828 C649.778,3.031 649.849,2.778 649.828,2.7 C649.806,2.618 649.613,2.43 648.671,2.048 C646.992,1.368 644.293,0.938 640.667,0.855 C633.106,0.68 622.13,1.995 607.641,4.759 C584.028,9.263 560.188,15.281 498.769,31.689 L498.572,31.741 L498.572,31.741 C461.66,41.6 425.89,54.38 392.66,68.63 C387.132,71 381.866,73.33 376.878,75.603 L376.878,75.604 Z" id="Shape" stroke="#000000" stroke-width="11.52" fill="#F1A4AB"></path>
                <path d="M363.082,84.175 L414.957,84.458 L414.957,81.698 C414.957,67.373 403.345,55.76 389.019,55.76 C374.694,55.76 363.082,67.373 363.082,81.698 L363.082,84.175 Z" id="Path" stroke="#000000" stroke-width="11.52" fill="#F1A4AB"></path>
                <path d="M391.901,78.75 C608.342,78.75 783.802,254.21 783.802,470.651 L783.802,527.25 L783.802,527.25 L0,523.388 L0,470.651 C0,254.211 175.46,78.75 391.901,78.75 Z" id="Path" stroke="#000000" stroke-width="10" fill="#64C1BE"></path>
                <path d="M48.983,470.661 L239.18,471.569 L239.18,468.989 C239.18,416.467 196.603,373.89 144.081,373.89 C91.56,373.89 48.983,416.467 48.983,468.989 L48.983,470.661 L48.983,470.661 Z" id="Path" stroke="#000000" stroke-width="10" fill="#FAD843"></path>
                <path d="M48.983,471.64 L48.983,523.36 L224.846,523.36 C239.128,523.36 250.706,511.782 250.706,497.5 C250.706,483.218 239.128,471.64 224.846,471.64 L48.983,471.64 Z" id="Path" stroke="#000000" stroke-width="10" fill="#FFFFFF"></path>
                <g transform="translate(86.449000, 492.750000)" fill="#E3E3E3" id="Oval">
                    <ellipse cx="5.501" cy="5.75" rx="5.501" ry="5.75"></ellipse>
                    <ellipse cx="33.008" cy="5.75" rx="5.501" ry="5.75"></ellipse>
                    <ellipse cx="60.514" cy="5.75" rx="5.501" ry="5.75"></ellipse>
                    <ellipse cx="88.021" cy="5.75" rx="5.501" ry="5.75"></ellipse>
                    <ellipse cx="115.527" cy="5.75" rx="5.501" ry="5.75"></ellipse>
                </g>
            </g>
        </g>
    </g>
</svg>