<svg xmlns="http://www.w3.org/2000/svg" width="23" height="23" viewBox="0 0 23 23">
    <g fill="none" transform="translate(1 1)">
        <circle cx="10.625" cy="10.625" r="10.625" fill="#4A90E2" stroke="#000"/>
        <path fill="#FFF" d="M14.492 6.25H6.999c-.412 0-.749.337-.749.75v7.492c0 .412.337.75.75.75h7.492c.412 0 .75-.338.75-.75V6.999c0-.412-.338-.749-.75-.749zm0 8.242h-2.997v-2.997h1.873v-.75h-1.873v-.749c0-.62.503-1.124 1.124-1.124h.749v-.749h-.75c-1.034 0-1.872.839-1.872 1.873v.75h-.75v.749h.75v2.997H6.999V6.999h7.493v7.493z"/>
    </g>
</svg>
