<?xml version="1.0" encoding="UTF-8"?>
<svg width="50px" height="50px" viewBox="0 0 50 50" version="1.1" xmlns="http://www.w3.org/2000/svg" xmlns:xlink="http://www.w3.org/1999/xlink">
    <!-- Generator: Sketch 60 (88103) - https://sketch.com -->
    <title>three</title>
    <desc>Created with Sketch.</desc>
    <g id="v4" stroke="none" stroke-width="1" fill="none" fill-rule="evenodd">
        <g id="StaaS" transform="translate(-1023.000000, -3436.000000)">
            <g id="Group-20" transform="translate(403.000000, 3302.000000)">
                <g id="three" transform="translate(620.000000, 134.000000)">
                    <circle id="Oval" stroke="#000000" stroke-width="3" fill="#64C1BE" cx="25" cy="25" r="23.5"></circle>
                    <path d="M23.144,33.24 C24.472,33.24 25.656,33.028 26.696,32.604 C27.736,32.18 28.544,31.556 29.12,30.732 C29.696,29.908 29.984,28.936 29.984,27.816 C29.984,27.064 29.804,26.448 29.444,25.968 C29.084,25.488 28.552,25.048 27.848,24.648 L27.848,24.648 L27.872,24.552 C28.704,24.04 29.348,23.472 29.804,22.848 C30.26,22.224 30.488,21.376 30.488,20.304 C30.488,19.04 30.032,18.056 29.12,17.352 C28.208,16.648 27.008,16.296 25.52,16.296 C24.368,16.296 23.312,16.512 22.352,16.944 C21.392,17.376 20.632,18.008 20.072,18.84 C19.512,19.672 19.232,20.648 19.232,21.768 C19.232,22.408 19.368,22.936 19.64,23.352 C19.912,23.768 20.32,24.168 20.864,24.552 L20.864,24.552 L20.84,24.648 C19.832,25.144 19.048,25.74 18.488,26.436 C17.928,27.132 17.648,28.064 17.648,29.232 C17.648,30.496 18.144,31.48 19.136,32.184 C20.128,32.888 21.464,33.24 23.144,33.24 Z M24.512,23.424 C23.904,23.424 23.42,23.256 23.06,22.92 C22.7,22.584 22.52,22.152 22.52,21.624 C22.52,20.84 22.764,20.196 23.252,19.692 C23.74,19.188 24.376,18.936 25.16,18.936 C25.752,18.936 26.232,19.108 26.6,19.452 C26.968,19.796 27.152,20.224 27.152,20.736 C27.152,21.52 26.908,22.164 26.42,22.668 C25.932,23.172 25.296,23.424 24.512,23.424 Z M23.504,30.6 C22.848,30.6 22.308,30.432 21.884,30.096 C21.46,29.76 21.248,29.304 21.248,28.728 C21.248,27.848 21.516,27.14 22.052,26.604 C22.588,26.068 23.296,25.8 24.176,25.8 C24.848,25.8 25.396,25.968 25.82,26.304 C26.244,26.64 26.456,27.104 26.456,27.696 C26.456,28.56 26.184,29.26 25.64,29.796 C25.096,30.332 24.384,30.6 23.504,30.6 Z" id="8" fill="#FFFFFF" fill-rule="nonzero"></path>
                </g>
            </g>
        </g>
    </g>
</svg>