<?xml version="1.0" encoding="UTF-8"?>
<svg width="26px" height="36px" viewBox="0 0 26 36" version="1.1" xmlns="http://www.w3.org/2000/svg" xmlns:xlink="http://www.w3.org/1999/xlink">
    <!-- Generator: Sketch 60 (88103) - https://sketch.com -->
    <title>Group 4@3x</title>
    <desc>Created with Sketch.</desc>
    <g id="v3" stroke="none" stroke-width="1" fill="none" fill-rule="evenodd">
        <g id="StaaS" transform="translate(-705.000000, -2501.000000)" fill-rule="nonzero" stroke="#000000" stroke-width="1.05">
            <g id="Group-25" transform="translate(702.000000, 2091.000000)">
                <g id="Group-23" transform="translate(0.000000, 409.000000)">
                    <g id="Group-4" transform="translate(20.500000, 20.500000) rotate(-45.000000) translate(-20.500000, -20.500000) translate(5.000000, 8.000000)">
                        <path d="M6.81941875,8.51994351 C10.0332536,14.2351452 11.6401711,17.092746 11.6401711,17.092746 C16.0211003,15.5894032 20.6275714,13.6788721 23.9154455,10.4132481 C26.8315195,7.51690817 28.9214843,4.30759365 30.1853399,0.785304487 C25.2326467,-0.0780585911 20.7714822,0.276279829 16.8018466,1.84831975 C14.6689212,2.69299267 11.3414453,4.91686726 6.81941875,8.51994351 Z" id="Path-25-Copy" fill="#D8D8D8"></path>
                        <path d="M13.2400893,16.6328682 C13.8390803,17.9638892 14.1474131,19.0912913 14.1650875,20.0150746 C14.182762,20.938858 13.9356,22.4102373 13.4236016,24.4292127 C16.822134,22.1930238 19.0252052,20.3461137 20.0328151,18.8884826 C21.040425,17.4308515 21.5253437,15.3247818 21.4875712,12.5702737 C19.6559717,13.6955917 18.2817326,14.4771129 17.3648538,14.9148373 C16.4479751,15.3525616 15.0730535,15.9252386 13.2400893,16.6328682 Z" id="Path-26-Copy-2" fill="#D8D8D8"></path>
                        <path d="M8.18222724,7.42049363 C7.23791492,6.18506462 6.37016746,5.32875101 5.57898486,4.85155282 C4.78780226,4.37435462 3.38996937,3.8527135 1.38548619,3.28662946 C5.02134884,1.46150845 7.72235544,0.47704786 9.48850597,0.333247682 C11.2546565,0.189447503 13.333771,0.826732188 15.7258494,2.24510174 C13.9315367,3.33680573 12.6107477,4.17329593 11.7634825,4.75457232 C10.9162173,5.33584871 9.72246557,6.22448915 8.18222724,7.42049363 Z" id="Path-26-Copy-3" fill="#D8D8D8"></path>
                        <path d="M5.43132622,17.4276605 C4.70319457,17.8148149 2.95095292,17.9557813 0.17460125,17.8505596 C1.54894258,15.3189834 2.60017907,13.859618 3.32831072,13.4724636 C4.42050818,12.8917319 5.77668523,13.3063568 6.35741692,14.3985543 C6.93814861,15.4907517 6.52352368,16.8469288 5.43132622,17.4276605 Z" id="Oval-Copy-9" fill="#F1A4AB"></path>
                        <circle id="Oval-Copy-10" fill="#4A90E2" cx="21.004621" cy="5.8509674" r="2.23976878"></circle>
                        <path d="M28.6198349,4.34316993 L30.2441412,0.774158165 L28.6198349,4.34316993 Z" id="Path-27-Copy"></path>
                    </g>
                </g>
            </g>
        </g>
    </g>
</svg>