<?xml version="1.0" encoding="UTF-8"?>
<svg width="50px" height="50px" viewBox="0 0 50 50" version="1.1" xmlns="http://www.w3.org/2000/svg" xmlns:xlink="http://www.w3.org/1999/xlink">
    <!-- Generator: Sketch 60 (88103) - https://sketch.com -->
    <title>five</title>
    <desc>Created with Sketch.</desc>
    <g id="v3" stroke="none" stroke-width="1" fill="none" fill-rule="evenodd">
        <g id="five">
            <circle id="Oval" stroke="#000000" stroke-width="3" fill="#FAD843" cx="25" cy="25" r="23.5"></circle>
            <path d="M23.312,34.24 C24.624,34.24 25.8,33.964 26.84,33.412 C27.88,32.86 28.688,32.08 29.264,31.072 C29.84,30.064 30.128,28.904 30.128,27.592 C30.128,26.248 29.736,25.168 28.952,24.352 C28.168,23.536 27.04,23.128 25.568,23.128 C24.4,23.128 23.28,23.512 22.208,24.28 L22.208,24.28 L23,20.656 L30.128,20.656 L30.56,17.536 L20.648,17.536 L18.704,26.68 L21.56,27.112 C22.328,26.28 23.216,25.864 24.224,25.864 L24.224,25.864 L24.32,25.864 C24.96,25.864 25.492,26.084 25.916,26.524 C26.34,26.964 26.552,27.488 26.552,28.096 C26.552,29.152 26.24,29.956 25.616,30.508 C24.992,31.06 24.248,31.336 23.384,31.336 C22.728,31.336 22.168,31.128 21.704,30.712 C21.24,30.296 21.008,29.752 21.008,29.08 C21.008,28.936 21.016,28.824 21.032,28.744 L21.032,28.744 L17.744,28.744 C17.712,28.92 17.696,29.184 17.696,29.536 C17.696,30.432 17.904,31.236 18.32,31.948 C18.736,32.66 19.34,33.22 20.132,33.628 C20.924,34.036 21.864,34.24 22.952,34.24 L22.952,34.24 L23.312,34.24 Z" id="5" fill="#FFFFFF" fill-rule="nonzero"></path>
        </g>
    </g>
</svg>