<?xml version="1.0" encoding="UTF-8"?>
<svg width="85px" height="69px" viewBox="0 0 85 69" version="1.1" xmlns="http://www.w3.org/2000/svg" xmlns:xlink="http://www.w3.org/1999/xlink">
    <!-- Generator: Sketch 60 (88103) - https://sketch.com -->
    <title>shot@2x</title>
    <desc>Created with Sketch.</desc>
    <g id="v4" stroke="none" stroke-width="1" fill="none" fill-rule="evenodd">
        <g id="StaaS" transform="translate(-1093.000000, -335.000000)" fill="#FFFFFF" fill-rule="nonzero" stroke="#000000" stroke-width="3">
            <g id="Group-5" transform="translate(195.000000, 217.000000)">
                <g id="shot" transform="translate(941.500000, 149.000000) rotate(12.000000) translate(-941.500000, -149.000000) translate(897.000000, 122.000000)">
                    <rect id="Rectangle" x="34.3075027" y="-0.717813558" width="6" height="27" rx="1.5"></rect>
                    <path d="M76.2158685,38.0396254 C77.8727228,38.0396254 79.2158685,39.3827711 79.2158685,41.0396254 L79.2158685,62.0396254 C79.2158685,63.6964796 77.8727228,65.0396254 76.2158685,65.0396254 C74.5590143,65.0396254 73.2158685,63.6964796 73.2158685,62.0396254 L73.2158685,41.0396254 C73.2158685,39.3827711 74.5590143,38.0396254 76.2158685,38.0396254 Z" id="Rectangle-Copy-15" transform="translate(76.215869, 51.539625) rotate(-90.000000) translate(-76.215869, -51.539625) "></path>
                    <path d="M64.5015509,11.6486097 C66.2674698,11.6486097 67.6990299,13.0801698 67.6990299,14.8460887 L67.6990299,35.2158366 C67.6990299,36.9817555 66.2674698,38.4133156 64.5015509,38.4133156 C62.735632,38.4133156 61.3040719,36.9817555 61.3040719,35.2158366 L61.3040719,14.8460887 C61.3040719,13.0801698 62.735632,11.6486097 64.5015509,11.6486097 Z" id="Rectangle-Copy-17" transform="translate(64.501551, 25.030963) rotate(-135.000000) translate(-64.501551, -25.030963) "></path>
                    <path d="M10.1822232,10.7998702 C11.9481421,10.7998702 13.3797022,12.2314303 13.3797022,13.9973492 L13.3797022,34.3670971 C13.3797022,36.133016 11.9481421,37.5645761 10.1822232,37.5645761 C8.41630429,37.5645761 6.98474419,36.133016 6.98474419,34.3670971 L6.98474419,13.9973492 C6.98474419,12.2314303 8.41630429,10.7998702 10.1822232,10.7998702 Z" id="Rectangle-Copy-20" transform="translate(10.182223, 24.182223) rotate(-45.000000) translate(-10.182223, -24.182223) "></path>
                </g>
            </g>
        </g>
    </g>
</svg>