<?xml version="1.0" encoding="UTF-8"?>
<svg width="50px" height="50px" viewBox="0 0 50 50" version="1.1" xmlns="http://www.w3.org/2000/svg" xmlns:xlink="http://www.w3.org/1999/xlink">
    <!-- Generator: Sketch 60 (88103) - https://sketch.com -->
    <title>four</title>
    <desc>Created with Sketch.</desc>
    <g id="v3" stroke="none" stroke-width="1" fill="none" fill-rule="evenodd">
        <g id="StaaS" transform="translate(-1284.000000, -3459.000000)">
            <g id="Group-7" transform="translate(1256.000000, 3402.000000)">
                <g id="Group-13" transform="translate(26.000000, 57.000000)">
                    <g id="four" transform="translate(2.000000, 0.000000)">
                        <circle id="Oval" stroke="#000000" stroke-width="3" fill="#64C1BE" cx="25" cy="25" r="23.5"></circle>
                        <path d="M27.296,34 L27.824,30.16 L30.032,30.16 L30.44,27.328 L28.232,27.328 L29.36,19.312 L27.824,19.312 C27.52,20.032 27.14,20.804 26.684,21.628 C26.228,22.452 25.768,23.152 25.304,23.728 L25.304,23.728 L24.8,27.328 L20.24,27.328 C20.832,26.736 21.568,25.852 22.448,24.676 C23.328,23.5 24.168,22.248 24.968,20.92 C25.768,19.592 26.368,18.384 26.768,17.296 L26.768,17.296 L23.384,17.296 C22.744,18.816 21.864,20.536 20.744,22.456 C19.624,24.376 18.56,25.992 17.552,27.304 L17.552,27.304 L17.144,30.16 L24.392,30.16 L23.864,34 L27.296,34 Z" id="4" fill="#FFFFFF" fill-rule="nonzero"></path>
                    </g>
                </g>
            </g>
        </g>
    </g>
</svg>