<?xml version="1.0" encoding="UTF-8"?>
<svg width="404px" height="392px" viewBox="0 0 404 392" version="1.1" xmlns="http://www.w3.org/2000/svg" xmlns:xlink="http://www.w3.org/1999/xlink">
    <!-- Generator: Sketch 60 (88103) - https://sketch.com -->
    <title>Group Copy@2x</title>
    <desc>Created with Sketch.</desc>
    <defs>
        <circle id="path-1" cx="202.121509" cy="216.180509" r="157.530507"></circle>
        <filter x="-1.3%" y="-1.3%" width="104.5%" height="104.5%" filterUnits="objectBoundingBox" id="filter-2">
            <feMorphology radius="2.59650005" operator="dilate" in="SourceAlpha" result="shadowSpreadOuter1"></feMorphology>
            <feOffset dx="3" dy="3" in="shadowSpreadOuter1" result="shadowOffsetOuter1"></feOffset>
            <feComposite in="shadowOffsetOuter1" in2="SourceAlpha" operator="out" result="shadowOffsetOuter1"></feComposite>
            <feColorMatrix values="0 0 0 0 0   0 0 0 0 0   0 0 0 0 0  0 0 0 0.07 0" type="matrix" in="shadowOffsetOuter1"></feColorMatrix>
        </filter>
        <path d="M24.8010247,1.49873467 L1.49873467,24.8010247 C0.539110976,25.7606483 -1.94255523e-15,27.0621774 0,28.4192902 L0,192.253009 C3.4609023e-16,195.07905 2.29095904,197.370009 5.11700023,197.370009 L168.950719,197.370009 C170.307831,197.370009 171.60936,196.830898 172.568984,195.871274 L195.871274,172.568984 C196.830898,171.60936 197.370009,170.307831 197.370009,168.950719 L197.370009,5.11700023 C197.370009,2.29095904 195.07905,-5.19135345e-16 192.253009,0 L28.4192902,0 C27.0621774,5.5783681e-15 25.7606483,0.539110976 24.8010247,1.49873467 Z" id="path-3"></path>
        <filter x="-3.0%" y="-1.0%" width="104.1%" height="104.1%" filterUnits="objectBoundingBox" id="filter-4">
            <feOffset dx="-4" dy="4" in="SourceAlpha" result="shadowOffsetOuter1"></feOffset>
            <feComposite in="shadowOffsetOuter1" in2="SourceAlpha" operator="out" result="shadowOffsetOuter1"></feComposite>
            <feColorMatrix values="0 0 0 0 0   0 0 0 0 0   0 0 0 0 0  0 0 0 0.07 0" type="matrix" in="shadowOffsetOuter1"></feColorMatrix>
        </filter>
        <path d="M68.7140031,125.221129 L68.7140031,55.3358788 C68.7140031,54.4843926 69.404269,53.7941267 70.2557552,53.7941267 C70.5320156,53.7941267 70.8032012,53.8683563 71.0409499,54.0090522 L111.05781,77.6903887 C111.542053,77.976956 112.143957,77.976956 112.6282,77.6903887 L152.64506,54.0090522 C153.377846,53.5754011 154.32343,53.817898 154.757081,54.5506841 C154.897777,54.7884328 154.972007,55.0596184 154.972007,55.3358788 L154.972007,125.221129 C154.972007,126.072615 154.281741,126.762881 153.430255,126.762881 C153.153994,126.762881 152.882809,126.688652 152.64506,126.547956 L134.164063,115.611198 C133.69513,115.333691 133.407506,114.829265 133.407506,114.284372 L133.407506,92.3443042 C133.407506,91.492818 132.71724,90.8025521 131.865754,90.8025521 C131.589493,90.8025521 131.318308,90.8767817 131.080559,91.0174776 L112.6282,101.937288 C112.143957,102.223855 111.542053,102.223855 111.05781,101.937288 L92.6054509,91.0174776 C91.8726648,90.5838265 90.9270806,90.8263234 90.4934295,91.5591095 C90.3527337,91.7968582 90.278504,92.0680438 90.278504,92.3443042 L90.278504,114.284372 C90.278504,114.829265 89.9908804,115.333691 89.5219466,115.611198 L71.0409499,126.547956 C70.3081638,126.981607 69.3625796,126.73911 68.9289286,126.006324 C68.7882327,125.768575 68.7140031,125.49739 68.7140031,125.221129 Z" id="path-5"></path>
        <filter x="-8.3%" y="-2.7%" width="112.0%" height="110.7%" filterUnits="objectBoundingBox" id="filter-6">
            <feMorphology radius="1.17691006" operator="dilate" in="SourceAlpha" result="shadowSpreadOuter1"></feMorphology>
            <feOffset dx="-4" dy="4" in="shadowSpreadOuter1" result="shadowOffsetOuter1"></feOffset>
            <feComposite in="shadowOffsetOuter1" in2="SourceAlpha" operator="out" result="shadowOffsetOuter1"></feComposite>
            <feColorMatrix values="0 0 0 0 0   0 0 0 0 0   0 0 0 0 0  0 0 0 0.07 0" type="matrix" in="shadowOffsetOuter1"></feColorMatrix>
        </filter>
    </defs>
    <g id="v3" stroke="none" stroke-width="1" fill="none" fill-rule="evenodd">
        <g id="StaaS" transform="translate(-199.000000, -2085.000000)">
            <g id="Group-Copy" transform="translate(196.000000, 2076.000000)">
                <g id="Oval" fill-rule="nonzero">
                    <use fill="black" fill-opacity="1" filter="url(#filter-2)" xlink:href="#path-1"></use>
                    <use stroke="#000000" stroke-width="2.1930001" fill="#4A90E2" xlink:href="#path-1"></use>
                </g>
                <g id="Group-9" transform="translate(57.751585, 88.945149) scale(-1, 1) rotate(17.000000) translate(-57.751585, -88.945149) translate(11.751585, 44.945149)" fill-rule="nonzero" stroke="#000000">
                    <g id="Oval-2" transform="translate(58.150057, 31.165724) rotate(-3.000000) translate(-58.150057, -31.165724) translate(26.150057, 1.665724)" fill="#FFFFFF" stroke-width="2.55000007">
                        <path d="M35.7608004,56.1000016 C51.1991484,57.3408305 63.8108012,43.5415885 63.8108012,28.0500008 C63.8108012,12.5584131 51.2523881,1.3500312e-13 35.7608004,1.3500312e-13 C20.2692128,1.3500312e-13 7.71079964,12.555244 7.71079964,28.0500008 C7.71079964,45.3821165 -3.6709968,51.050876 1.22186507,56.1000016 C6.32053552,61.3615087 12.1662003,54.2036288 35.7608004,56.1000016 Z" id="Oval"></path>
                    </g>
                    <path d="M71.5964446,38.1665902 C73.9590619,35.2134039 74.1765752,31.7638531 70.8902445,28.601744 C67.1694096,25.0214123 63.6659573,26.1974355 60.5968788,27.5826328 L53.8612784,21.1013769 C56.0069047,19.2460719 57.7177654,19.3243394 58.2067134,18.8538548 C58.6955307,18.3834957 58.342496,17.4689088 57.9894612,17.129205 C57.093296,16.2668801 54.2414697,17.7040883 52.2047307,19.5073824 L51.4171916,18.7495818 C51.1454959,18.4881456 50.5752089,18.5665388 50.2764872,18.8538548 C49.9233219,19.1936841 49.8962959,19.6901742 50.1679917,19.9516104 L51.0098438,20.7616732 C48.8099045,23.1921127 47.3161654,26.7200567 50.738148,30.0128211 C54.2144438,33.3578476 57.582244,31.68546 60.814131,30.1957385 L68.7173312,37.8005042 C65.268192,40.9628646 62.5252529,39.4731431 61.8733659,40.100414 C61.4660181,40.4923799 61.6288266,41.4329723 62.0634615,41.8511949 C63.0412268,42.7920385 66.9793139,42.7136454 70.4283226,39.4468864 L71.4060879,40.38773 C71.6776531,40.6490406 72.1936269,40.6230352 72.5467923,40.2832058 C72.845514,39.9957642 72.926853,39.447012 72.6552878,39.1857014 L71.5964446,38.1665902 Z M51.9151383,28.4877429 C49.9660792,26.6579652 50.7824708,24.5563478 52.3102931,22.8750301 L58.4205694,28.6113605 C56.1028173,29.6499857 53.9696649,30.4165334 51.9151383,28.4877429 Z M69.4628868,36.1311049 L62.0668063,29.1940221 C64.3696324,28.3048686 66.5911915,27.8983426 68.9480655,30.1089499 C70.9529125,31.989377 71.0612685,34.0729449 69.4628868,36.1311049 Z" id="Shape" stroke-width="0.850000024" fill="#000000" transform="translate(61.040677, 29.622132) scale(-1, 1) rotate(-318.000000) translate(-61.040677, -29.622132) "></path>
                    <circle id="Oval" stroke-width="2.55000007" fill="#FFFFFF" cx="16.5750005" cy="67.5750019" r="6.37500018"></circle>
                    <circle id="Oval-Copy-2" stroke-width="2.55000007" fill="#FFFFFF" cx="5.10000014" cy="82.4500023" r="5.10000014"></circle>
                </g>
                <g id="Crayon" transform="translate(161.964715, 176.704908) rotate(-30.000000) translate(-161.964715, -176.704908) translate(150.464715, 124.704908)" fill-rule="nonzero" stroke="#000000" stroke-width="2.55000007">
                    <polyline id="Path-15" fill="#F1A4AB" points="1.70000005 16.1500005 7.53537434 0 15.0022088 0 20.4000006 16.1500005"></polyline>
                    <rect id="Combined-Shape" fill="#FAD843" x="1.27500004" y="20.8116006" width="19.5500005" height="71.400002"></rect>
                    <rect id="Combined-Shape-Copy" fill="#F1A4AB" x="1.27500004" y="15.7250004" width="19.5500005" height="5.10000014"></rect>
                    <rect id="Combined-Shape-Copy-2" fill="#FAD843" x="1.27500004" y="20.8116006" width="19.5500005" height="5.10000014"></rect>
                    <ellipse id="Oval" fill="#F1A4AB" cx="11.0500003" cy="93.0616027" rx="9.77500027" ry="9.35000026"></ellipse>
                </g>
                <g id="Group-3" transform="translate(232.900007, 150.450004)">
                    <path d="M50.7673103,7.6540364 C62.6730399,19.5597661 62.6730399,38.8615806 50.7673103,50.7673103 C38.8615806,62.6730399 19.5597661,62.6730399 7.6540364,50.7673103 C-4.25169326,38.8615806 -4.25169326,19.5597661 7.6540364,7.6540364 C19.5597661,-4.25169326 38.8615806,-4.25169326 50.7673103,7.6540364 Z M33.4730595,33.4732244 C35.8264488,31.1188849 35.8264213,27.3033884 33.472977,24.9490831 C31.1200962,22.5953413 27.3037496,22.5956076 24.9490831,24.9494129 C22.5949804,27.3026545 22.5949804,31.1188743 24.9494129,33.4733068 C27.3026271,35.8273821 31.1187852,35.8274095 33.4730595,33.4732244 Z M33.4730595,33.4732244 C33.4730869,33.4731969 33.4731144,33.4731694 33.4731419,33.4731419 L33.472977,33.4733068 C33.4730045,33.4732793 33.473032,33.4732519 33.4730595,33.4732244 Z" id="Shape" stroke="#000000" stroke-width="2.55000007" fill="#64C1BE" fill-rule="nonzero"></path>
                    <path d="M37.2821083,37.2821083 C36.4892471,38.0749694 35.6056243,38.7196907 34.6698395,39.232964 L43.1795346,54.7980799 C45.5622909,53.494032 47.8052534,51.8404992 49.8228763,49.8228763 C51.8404992,47.8052534 53.494032,45.5622909 54.7980799,43.1795346 L39.232964,34.6698395 C38.7207339,35.6066675 38.0749694,36.4892471 37.2821083,37.2821083 Z" id="Path" fill="#E8E8E8"></path>
                    <path d="M21.72505,21.72505 C22.5483092,20.9017908 23.4658099,20.2323511 24.4374724,19.6993991 L15.6015181,3.53752115 C13.1274076,4.89156588 10.7984506,6.6084946 8.70347261,8.70347261 C6.6084946,10.7984506 4.89156588,13.1274076 3.53752115,15.6015181 L19.6993991,24.4374724 C20.2312678,23.4647267 20.9017908,22.5483092 21.72505,21.72505 Z" id="Path" fill="#E8E8E8"></path>
                    <path d="M37.3249811,21.0963656 C32.8432292,16.6146137 25.5770742,16.6146137 21.0963656,21.0963656 C16.6146137,25.5781175 16.6146137,32.8442724 21.0963656,37.3249811 C25.5781175,41.806733 32.8442724,41.806733 37.3249811,37.3249811 C41.806733,32.8432292 41.806733,25.5781175 37.3249811,21.0963656 Z M31.4233818,31.4233818 C30.2007065,32.6460572 28.2195969,32.6460572 26.9969216,31.4233818 C25.7742463,30.2007065 25.7742463,28.2195969 26.9969216,26.9969216 C28.2195969,25.7742463 30.2007065,25.7742463 31.4233818,26.9969216 C32.6460572,28.2195969 32.6460572,30.2017498 31.4233818,31.4233818 Z" id="Shape" fill="#D8D8D8" fill-rule="nonzero"></path>
                </g>
                <g id="Group-24" transform="translate(313.742668, 89.445113) rotate(-345.000000) translate(-313.742668, -89.445113) translate(249.742668, 45.945113)">
                    <g id="Group-22" transform="translate(25.500001, 0.000000)" stroke="#000000" stroke-linecap="round" stroke-width="2.55000007">
                        <path d="M51,0 L51,3.28248139 C51,17.3657429 39.5832622,28.7824821 25.5,28.7824821 C11.4167392,28.7824821 0,17.3657429 0,3.28248139 L0,0.287132133" id="Rectangle" transform="translate(25.500001, 14.391241) rotate(-180.000000) translate(-25.500001, -14.391241) "></path>
                        <path d="M102.000001,26.3500007 L102.000001,29.6324821 C102.000001,43.7157436 90.5832637,55.1324828 76.5000014,55.1324828 C62.4167406,55.1324828 51.0000014,43.7157436 51.0000014,29.6324821 L51.0000014,26.6371329" id="Rectangle" transform="translate(76.500002, 40.741242) rotate(-360.000000) translate(-76.500002, -40.741242) "></path>
                    </g>
                    <g id="Group-23" transform="translate(0.000000, 26.350001)">
                        <path d="M5.95000017,1.27500004 C3.36806889,1.27500004 1.27500004,3.36806889 1.27500004,5.95000017 L1.27500004,34 C1.27500004,47.379098 12.120902,58.225 25.5,58.225 C38.879098,58.225 49.725,47.379098 49.725,34 L49.725,5.95000017 C49.725,3.36806889 47.6319311,1.27500004 45.0499998,1.27500004 L5.95000017,1.27500004 Z" id="Rectangle" stroke="#000000" stroke-width="2.55000007" fill="#D8D8D8"></path>
                        <path d="M1.27500004,23.3750007 L25.9250007,23.3750007 L25.9250007,1.27500004 L5.95000017,1.27500004 C3.36806889,1.27500004 1.27500004,3.36806889 1.27500004,5.95000017 L1.27500004,23.3750007 Z" id="Rectangle" stroke="#000000" stroke-width="2.55000007" fill="#FFFFFF"></path>
                        <path d="M25.0750007,1.27500004 L25.0750007,23.3750007 L49.7250014,23.3750007 L49.7250014,5.95000017 C49.7250014,3.36806889 47.6319325,1.27500004 45.0500013,1.27500004 L25.0750007,1.27500004 Z" id="Rectangle" stroke="#000000" stroke-width="2.55000007" fill="#FFFFFF"></path>
                        <rect id="Rectangle" fill="#000000" fill-rule="nonzero" x="22.1000006" y="6.80000019" width="5.95000017" height="11.0697678" rx="2.97500008"></rect>
                    </g>
                </g>
                <g id="Group-2" transform="translate(161.941140, 45.382680) rotate(-15.000000) translate(-161.941140, -45.382680) translate(124.941140, 8.382680)" fill-rule="nonzero" stroke="#000000" stroke-width="2.55000007">
                    <path d="M29.3250008,14.0250004 L43.7750008,14.0250004 L43.7750008,8.5 C43.7750008,4.5097427 40.5402581,1.27500004 36.5500008,1.27500004 C32.5597435,1.27500004 29.3250008,4.5097427 29.3250008,8.5 L29.3250008,14.0250004 Z" id="Rectangle" fill="#F1A4AB"></path>
                    <rect id="Rectangle" fill="#64C1BE" x="7.2250002" y="14.0250004" width="58.6500016" height="58.6500016" rx="11.0500003"></rect>
                    <circle id="Oval" fill="#FFFFFF" cx="21.2500006" cy="36.550001" r="6.80000019"></circle>
                    <path d="M37.7352642,39.7705273 L41.8849354,48.0698698 C42.0948763,48.4897515 41.9246856,49.0003236 41.5048038,49.2102645 C41.3867767,49.2692781 41.2566306,49.3000014 41.1246723,49.3000014 L32.8253298,49.3000014 C32.3558878,49.3000014 31.9753298,48.9194434 31.9753298,48.4500014 C31.9753298,48.318043 32.0060531,48.1878969 32.0650667,48.0698698 L36.2147379,39.7705273 C36.4246788,39.3506456 36.9352509,39.1804549 37.3551326,39.3903958 C37.5196309,39.4726449 37.653015,39.606029 37.7352642,39.7705273 Z" id="Triangle" fill="#FAD843"></path>
                    <rect id="Rectangle" fill="#FFFFFF" x="22.9500006" y="54.4000015" width="28.0500008" height="8.50000024" rx="4.25000012"></rect>
                    <circle id="Oval-Copy" fill="#FFFFFF" cx="51.8500015" cy="36.550001" r="6.80000019"></circle>
                    <path d="M65.8750018,33.5750009 L65.8750018,53.1250015 L69.7000017,53.1250015 C70.8736068,53.1250015 71.8250018,52.1736066 71.8250018,51.0000014 L71.8250018,35.700001 C71.8250018,34.5263959 70.8736068,33.5750009 69.7000017,33.5750009 L65.8750018,33.5750009 Z" id="Rectangle" fill="#F1A4AB"></path>
                    <path d="M7.22499996,53.1250015 L7.22499996,33.5750009 L2.55000007,33.5750009 C1.845837,33.5750009 1.27500004,34.1458379 1.27500004,34.850001 L1.27500004,51.8500015 C1.27500004,52.5541645 1.845837,53.1250015 2.55000007,53.1250015 L7.22499996,53.1250015 Z" id="Rectangle-Copy" fill="#F1A4AB"></path>
                    <g id="Group" transform="translate(28.900001, 54.400002)" stroke-linecap="square">
                        <line x1="8.07500023" y1="0" x2="8.07500023" y2="8.23416771" id="Line"></line>
                        <line x1="0.850000024" y1="0" x2="0.850000024" y2="8.23416771" id="Line-Copy"></line>
                        <line x1="15.3000004" y1="0" x2="15.3000004" y2="8.23416771" id="Line-Copy-2"></line>
                    </g>
                </g>
                <g id="Group" transform="translate(103.802005, 156.485006)">
                    <g id="Group-30" transform="translate(0.000000, 42.517002)">
                        <g id="Path-17">
                            <use fill="black" fill-opacity="1" filter="url(#filter-4)" xlink:href="#path-3"></use>
                            <path stroke="#1F1B24" stroke-width="2.1930001" d="M25.5763673,2.27407729 L2.27407729,25.5763673 C1.52008724,26.3303573 1.09650005,27.3529873 1.09650005,28.4192902 L1.09650005,192.253009 C1.09650005,194.47347 2.89653929,196.273509 5.11700023,196.273509 L168.950719,196.273509 C170.017022,196.273509 171.039652,195.849922 171.793642,195.095932 L195.095932,171.793642 C195.849922,171.039652 196.273509,170.017022 196.273509,168.950719 L196.273509,5.11700023 C196.273509,2.89653929 194.47347,1.09650005 192.253009,1.09650005 L28.4192902,1.09650005 C27.3529873,1.09650005 26.3303573,1.52008724 25.5763673,2.27407729 Z" stroke-linejoin="square" fill="#459593" fill-rule="evenodd"></path>
                        </g>
                        <rect id="Rectangle" stroke="#1F1B24" stroke-width="2.1930001" fill="#64C1BE" fill-rule="nonzero" x="27.4125012" y="1.09650005" width="168.861008" height="168.861008"></rect>
                        <g id="Path-2">
                            <use fill="black" fill-opacity="1" filter="url(#filter-6)" xlink:href="#path-5"></use>
                            <use stroke="#1F1B24" stroke-width="2.35382013" fill="#FFFFFF" fill-rule="evenodd" xlink:href="#path-5"></use>
                        </g>
                        <path d="M2.1930001,195.177009 L28.5090013,168.861008 L2.1930001,195.177009 Z" id="Path-18" stroke="#1F1B24" stroke-width="2.1930001"></path>
                    </g>
                    <g id="Group-13" transform="translate(230.285861, 27.329212) rotate(-105.000000) translate(-230.285861, -27.329212) translate(222.785861, -47.670788)" stroke="#000000" stroke-width="2.1930001">
                        <path d="M7.31000033,1.09650005 C3.87837888,1.09650005 1.09650005,3.87837888 1.09650005,7.31000033 L1.09650005,142.545006 C1.09650005,145.976628 3.87837888,148.758507 7.31000033,148.758507 C10.7416218,148.758507 13.5235006,145.976628 13.5235006,142.545006 L13.5235006,7.31000033 C13.5235006,3.87837888 10.7416218,1.09650005 7.31000033,1.09650005 Z" id="Rectangle" fill="#000000"></path>
                        <path d="M1.09650005,35.4535016 L13.5235006,35.4535016 L13.5235006,7.31000033 C13.5235006,3.87837888 10.7416218,1.09650005 7.31000033,1.09650005 C3.87837888,1.09650005 1.09650005,3.87837888 1.09650005,7.31000033 L1.09650005,35.4535016 Z" id="Rectangle" fill="#FFFFFF"></path>
                    </g>
                    <path d="M130.166072,45.8080972 L127.21683,46.5598029 C125.776017,46.9270386 124.310304,46.0567326 123.943069,44.61592 C123.831859,44.1796021 123.831859,43.7223598 123.943069,43.2860418 L124.694774,40.3367997 C124.93634,39.3890395 124.93634,38.3958279 124.694774,37.4480676 L123.943069,34.4988255 C123.575833,33.0580129 124.446139,31.5923001 125.886951,31.2250644 C126.323269,31.1138553 126.780512,31.1138553 127.21683,31.2250644 L130.166072,31.9767701 C131.113832,32.2183361 132.107044,32.2183361 133.054804,31.9767701 L136.004046,31.2250644 C137.444859,30.8578287 138.910571,31.7281347 139.277807,33.1689473 C139.389016,33.6052653 139.389016,34.0625075 139.277807,34.4988255 L138.526101,37.4480676 C138.284535,38.3958279 138.284535,39.3890395 138.526101,40.3367997 L139.277807,43.2860418 C139.645043,44.7268544 138.774737,46.1925672 137.333924,46.5598029 C136.897606,46.6710121 136.440364,46.6710121 136.004046,46.5598029 L133.054804,45.8080972 C132.107044,45.5665312 131.113832,45.5665312 130.166072,45.8080972 Z" id="Star-Copy-3" stroke="#000000" stroke-width="2.1930001" fill="#FAD843" fill-rule="nonzero" transform="translate(131.610438, 38.892434) rotate(-315.000000) translate(-131.610438, -38.892434) "></path>
                    <path d="M161.599073,84.9376066 L156.582251,86.2162992 C154.463409,86.7563517 152.307949,85.4764899 151.767896,83.3576479 C151.604353,82.7160038 151.604353,82.0435887 151.767896,81.4019447 L153.046589,76.3851222 C153.288155,75.437362 153.288155,74.4441504 153.046589,73.4963902 L151.767896,68.4795677 C151.227844,66.3607256 152.507705,64.2052657 154.626548,63.6652132 C155.268192,63.5016703 155.940607,63.5016703 156.582251,63.6652132 L161.599073,64.9439057 C162.546833,65.1854718 163.540045,65.1854718 164.487805,64.9439057 L169.504628,63.6652132 C171.62347,63.1251606 173.77893,64.4050225 174.318982,66.5238645 C174.482525,67.1655085 174.482525,67.8379237 174.318982,68.4795677 L173.04029,73.4963902 C172.798724,74.4441504 172.798724,75.437362 173.04029,76.3851222 L174.318982,81.4019447 C174.859035,83.5207868 173.579173,85.6762467 171.460331,86.2162992 C170.818687,86.3798421 170.146272,86.3798421 169.504628,86.2162992 L164.487805,84.9376066 C163.540045,84.6960406 162.546833,84.6960406 161.599073,84.9376066 Z" id="Star-Copy-3" stroke="#000000" stroke-width="2.1930001" fill="#FAD843" fill-rule="nonzero" transform="translate(163.043439, 74.940756) rotate(-315.000000) translate(-163.043439, -74.940756) "></path>
                </g>
                <g id="bar" transform="translate(44.785425, 221.312190) rotate(-105.000000) translate(-44.785425, -221.312190) translate(23.285425, 194.812190)" fill="#FFFFFF" stroke="#000000" stroke-width="2.1930001">
                    <rect id="Rectangle" transform="translate(21.423920, 26.194673) rotate(36.000000) translate(-21.423920, -26.194673) " x="15.2104199" y="-1.58332853" width="12.4270006" height="55.5560025" rx="6.21350028"></rect>
                </g>
                <g id="bar-copy" transform="translate(31.627425, 185.493188) rotate(-105.000000) translate(-31.627425, -185.493188) translate(10.127425, 158.993188)" fill="#FFFFFF" stroke="#000000" stroke-width="2.1930001">
                    <rect id="Rectangle" transform="translate(21.423920, 26.194673) rotate(36.000000) translate(-21.423920, -26.194673) " x="15.2104199" y="-1.58332853" width="12.4270006" height="55.5560025" rx="6.21350028"></rect>
                </g>
            </g>
        </g>
    </g>
</svg>