<?xml version="1.0" encoding="UTF-8"?>
<svg width="98px" height="13px" viewBox="0 0 98 13" version="1.1" xmlns="http://www.w3.org/2000/svg" xmlns:xlink="http://www.w3.org/1999/xlink">
    <!-- Generator: Sketch 60 (88103) - https://sketch.com -->
    <title>Group 28</title>
    <desc>Created with Sketch.</desc>
    <g id="v3" stroke="none" stroke-width="1" fill="none" fill-rule="evenodd">
        <g id="StaaS" transform="translate(-1117.000000, -6915.000000)" fill="#FAD843" fill-rule="nonzero" stroke="#000000" stroke-width="1.5">
            <g id="Group-35" transform="translate(0.000000, 6734.000000)">
                <g id="Group-34" transform="translate(195.000000, 122.000000)">
                    <g id="Group-31" transform="translate(450.000000, 16.000000)">
                        <g id="Group-28" transform="translate(472.000000, 43.000000)">
                            <path d="M7,10.688151 L4.13814867,12.0618463 C3.76472593,12.24109 3.3167012,12.0836769 3.13745742,11.7102541 C3.07416997,11.5784059 3.05081222,11.4309309 3.07025882,11.2859789 L3.49235992,8.13970135 L3.49235992,8.13970135 L1.30153743,5.84241417 C1.01567249,5.54265741 1.02693404,5.06791722 1.3266908,4.78205229 C1.43252901,4.68111901 1.56556818,4.61333217 1.70943506,4.58703435 L4.83215921,4.01622313 L4.83215921,4.01622313 L6.34000777,1.22272634 C6.53675627,0.858222702 6.99174102,0.722230287 7.35624467,0.918978783 C7.48494373,0.988446805 7.5905242,1.09402728 7.65999223,1.22272634 L9.16784079,4.01622313 L9.16784079,4.01622313 L12.2905649,4.58703435 C12.6980271,4.66151547 12.9679616,5.05220772 12.8934805,5.45966991 C12.8671827,5.60353679 12.7993959,5.73657595 12.6984626,5.84241417 L10.5076401,8.13970135 L10.5076401,8.13970135 L10.9297412,11.2859789 C10.9848182,11.6965144 10.6966621,12.0739679 10.2861266,12.1290449 C10.1411746,12.1484915 9.99369955,12.1251337 9.86185133,12.0618463 L7,10.688151 L7,10.688151 Z" id="Star"></path>
                            <path d="M28,10.688151 L25.1381487,12.0618463 C24.7647259,12.24109 24.3167012,12.0836769 24.1374574,11.7102541 C24.07417,11.5784059 24.0508122,11.4309309 24.0702588,11.2859789 L24.4923599,8.13970135 L24.4923599,8.13970135 L22.3015374,5.84241417 C22.0156725,5.54265741 22.026934,5.06791722 22.3266908,4.78205229 C22.432529,4.68111901 22.5655682,4.61333217 22.7094351,4.58703435 L25.8321592,4.01622313 L25.8321592,4.01622313 L27.3400078,1.22272634 C27.5367563,0.858222702 27.991741,0.722230287 28.3562447,0.918978783 C28.4849437,0.988446805 28.5905242,1.09402728 28.6599922,1.22272634 L30.1678408,4.01622313 L30.1678408,4.01622313 L33.2905649,4.58703435 C33.6980271,4.66151547 33.9679616,5.05220772 33.8934805,5.45966991 C33.8671827,5.60353679 33.7993959,5.73657595 33.6984626,5.84241417 L31.5076401,8.13970135 L31.5076401,8.13970135 L31.9297412,11.2859789 C31.9848182,11.6965144 31.6966621,12.0739679 31.2861266,12.1290449 C31.1411746,12.1484915 30.9936995,12.1251337 30.8618513,12.0618463 L28,10.688151 L28,10.688151 Z" id="Star"></path>
                            <path d="M49,10.688151 L46.1381487,12.0618463 C45.7647259,12.24109 45.3167012,12.0836769 45.1374574,11.7102541 C45.07417,11.5784059 45.0508122,11.4309309 45.0702588,11.2859789 L45.4923599,8.13970135 L45.4923599,8.13970135 L43.3015374,5.84241417 C43.0156725,5.54265741 43.026934,5.06791722 43.3266908,4.78205229 C43.432529,4.68111901 43.5655682,4.61333217 43.7094351,4.58703435 L46.8321592,4.01622313 L46.8321592,4.01622313 L48.3400078,1.22272634 C48.5367563,0.858222702 48.991741,0.722230287 49.3562447,0.918978783 C49.4849437,0.988446805 49.5905242,1.09402728 49.6599922,1.22272634 L51.1678408,4.01622313 L51.1678408,4.01622313 L54.2905649,4.58703435 C54.6980271,4.66151547 54.9679616,5.05220772 54.8934805,5.45966991 C54.8671827,5.60353679 54.7993959,5.73657595 54.6984626,5.84241417 L52.5076401,8.13970135 L52.5076401,8.13970135 L52.9297412,11.2859789 C52.9848182,11.6965144 52.6966621,12.0739679 52.2861266,12.1290449 C52.1411746,12.1484915 51.9936995,12.1251337 51.8618513,12.0618463 L49,10.688151 L49,10.688151 Z" id="Star"></path>
                            <path d="M70,10.688151 L67.1381487,12.0618463 C66.7647259,12.24109 66.3167012,12.0836769 66.1374574,11.7102541 C66.07417,11.5784059 66.0508122,11.4309309 66.0702588,11.2859789 L66.4923599,8.13970135 L66.4923599,8.13970135 L64.3015374,5.84241417 C64.0156725,5.54265741 64.026934,5.06791722 64.3266908,4.78205229 C64.432529,4.68111901 64.5655682,4.61333217 64.7094351,4.58703435 L67.8321592,4.01622313 L67.8321592,4.01622313 L69.3400078,1.22272634 C69.5367563,0.858222702 69.991741,0.722230287 70.3562447,0.918978783 C70.4849437,0.988446805 70.5905242,1.09402728 70.6599922,1.22272634 L72.1678408,4.01622313 L72.1678408,4.01622313 L75.2905649,4.58703435 C75.6980271,4.66151547 75.9679616,5.05220772 75.8934805,5.45966991 C75.8671827,5.60353679 75.7993959,5.73657595 75.6984626,5.84241417 L73.5076401,8.13970135 L73.5076401,8.13970135 L73.9297412,11.2859789 C73.9848182,11.6965144 73.6966621,12.0739679 73.2861266,12.1290449 C73.1411746,12.1484915 72.9936995,12.1251337 72.8618513,12.0618463 L70,10.688151 L70,10.688151 Z" id="Star"></path>
                            <path d="M91,10.688151 L88.1381487,12.0618463 C87.7647259,12.24109 87.3167012,12.0836769 87.1374574,11.7102541 C87.07417,11.5784059 87.0508122,11.4309309 87.0702588,11.2859789 L87.4923599,8.13970135 L87.4923599,8.13970135 L85.3015374,5.84241417 C85.0156725,5.54265741 85.026934,5.06791722 85.3266908,4.78205229 C85.432529,4.68111901 85.5655682,4.61333217 85.7094351,4.58703435 L88.8321592,4.01622313 L88.8321592,4.01622313 L90.3400078,1.22272634 C90.5367563,0.858222702 90.991741,0.722230287 91.3562447,0.918978783 C91.4849437,0.988446805 91.5905242,1.09402728 91.6599922,1.22272634 L93.1678408,4.01622313 L93.1678408,4.01622313 L96.2905649,4.58703435 C96.6980271,4.66151547 96.9679616,5.05220772 96.8934805,5.45966991 C96.8671827,5.60353679 96.7993959,5.73657595 96.6984626,5.84241417 L94.5076401,8.13970135 L94.5076401,8.13970135 L94.9297412,11.2859789 C94.9848182,11.6965144 94.6966621,12.0739679 94.2861266,12.1290449 C94.1411746,12.1484915 93.9936995,12.1251337 93.8618513,12.0618463 L91,10.688151 L91,10.688151 Z" id="Star"></path>
                        </g>
                    </g>
                </g>
            </g>
        </g>
    </g>
</svg>