<?xml version="1.0" encoding="UTF-8"?>
<svg width="223px" height="205px" viewBox="0 0 223 205" version="1.1" xmlns="http://www.w3.org/2000/svg" xmlns:xlink="http://www.w3.org/1999/xlink">
    <!-- Generator: Sketch 60 (88103) - https://sketch.com -->
    <title>Group 29</title>
    <desc>Created with Sketch.</desc>
    <g id="v3" stroke="none" stroke-width="1" fill="none" fill-rule="evenodd">
        <g id="StaaS" transform="translate(-390.000000, -7124.000000)" fill-rule="nonzero" stroke="#000000" stroke-width="3">
            <g id="Group-35" transform="translate(0.000000, 6734.000000)">
                <g id="Group-34" transform="translate(195.000000, 122.000000)">
                    <g id="Group-29" transform="translate(197.000000, 270.000000)">
                        <path d="M121.890625,0 C177.395242,0 222.390625,44.9953826 222.390625,100.5 C222.390625,156.004617 177.395242,201 121.890625,201 C80.2814747,201 44.5782851,175.713576 29.3096605,139.669332 L5.71881595,139.669922 C5.10992622,139.669922 4.53419888,139.392545 4.15472557,138.916365 C3.46633386,138.052542 3.60854922,136.794223 4.47237248,136.105832 L4.47237248,136.105832 L23.4747957,120.960199 C22.108515,114.354138 21.390625,107.510905 21.390625,100.5 C21.390625,44.9953826 66.3860076,0 121.890625,0 Z" id="Combined-Shape" fill="#4A90E2" transform="translate(111.195312, 100.500000) scale(-1, 1) translate(-111.195312, -100.500000) "></path>
                        <g id="Group-5" transform="translate(52.000000, 66.000000)" fill="#FAD843">
                            <path d="M23.593656,0 L33.6487627,0 C40.1723705,-2.97472415e-15 45.4607995,5.28842901 45.4607995,11.8120368 L45.4607995,19.1337929 C45.4607995,22.0517657 44.5342527,24.894374 42.8147176,27.2518652 L16.7042683,63.0494226 C14.384262,66.2301628 9.92502596,66.9279256 6.74428574,64.6079193 C6.44095241,64.3866704 6.15557252,64.141803 5.89080959,63.8756024 C2.46093749,60.427106 1.92663695,55.0430897 4.61184061,50.9877437 L19.7080762,28.1885571 C20.604771,26.834318 20.2338581,25.0095756 18.879619,24.1128808 C18.398143,23.7940766 17.8334653,23.6240736 17.2560095,23.6240736 C14.2325872,23.6240736 11.7816192,21.1731056 11.7816192,18.1496833 L11.7816192,11.8120368 C11.7816192,5.28842901 17.0700482,-4.13070321e-15 23.593656,0 Z" id="Path"></path>
                            <path d="M69.0544555,0 L79.1095622,0 C85.63317,-2.97472415e-15 90.921599,5.28842901 90.921599,11.8120368 L90.921599,19.1337929 C90.921599,22.0517657 89.9950522,24.894374 88.2755171,27.2518652 L62.1650678,63.0494226 C59.8450615,66.2301628 55.3858255,66.9279256 52.2050852,64.6079193 C51.9017519,64.3866704 51.616372,64.141803 51.3516091,63.8756024 C47.921737,60.427106 47.3874365,55.0430897 50.0726401,50.9877437 L65.1688757,28.1885571 C66.0655705,26.834318 65.6946576,25.0095756 64.3404185,24.1128808 C63.8589425,23.7940766 63.2942648,23.6240736 62.716809,23.6240736 C59.6933867,23.6240736 57.2424187,21.1731056 57.2424187,18.1496833 L57.2424187,11.8120368 C57.2424187,5.28842901 62.5308477,-4.13070321e-15 69.0544555,0 Z" id="Path-Copy"></path>
                        </g>
                    </g>
                </g>
            </g>
        </g>
    </g>
</svg>