<?xml version="1.0" encoding="UTF-8"?>
<svg width="50px" height="50px" viewBox="0 0 50 50" version="1.1" xmlns="http://www.w3.org/2000/svg" xmlns:xlink="http://www.w3.org/1999/xlink">
    <!-- Generator: Sketch 60 (88103) - https://sketch.com -->
    <title>two</title>
    <desc>Created with Sketch.</desc>
    <g id="v3" stroke="none" stroke-width="1" fill="none" fill-rule="evenodd">
        <g id="StaaS" transform="translate(-744.000000, -3459.000000)">
            <g id="Group-7" transform="translate(716.000000, 3402.000000)">
                <g id="Group-13" transform="translate(26.000000, 57.000000)">
                    <g id="two" transform="translate(2.000000, 0.000000)">
                        <circle id="Oval" stroke="#000000" stroke-width="3" fill="#F1A4AB" cx="25" cy="25" r="23.5"></circle>
                        <path d="M29.312,34 L29.72,30.904 L22.424,30.904 C22.568,30.68 22.82,30.444 23.18,30.196 C23.54,29.948 24.072,29.608 24.776,29.176 C25.96,28.472 26.964,27.812 27.788,27.196 C28.612,26.58 29.328,25.828 29.936,24.94 C30.544,24.052 30.848,23.056 30.848,21.952 C30.848,21.104 30.66,20.328 30.284,19.624 C29.908,18.92 29.328,18.356 28.544,17.932 C27.76,17.508 26.784,17.296 25.616,17.296 C23.616,17.296 22.112,17.724 21.104,18.58 C20.096,19.436 19.468,20.28 19.22,21.112 C18.972,21.944 18.824,22.68 18.776,23.32 L18.776,23.32 L22.088,23.32 C22.088,22.408 22.36,21.664 22.904,21.088 C23.448,20.512 24.16,20.224 25.04,20.224 C25.728,20.224 26.264,20.408 26.648,20.776 C27.032,21.144 27.224,21.616 27.224,22.192 C27.224,22.784 27.04,23.332 26.672,23.836 C26.304,24.34 25.848,24.796 25.304,25.204 C24.76,25.612 24,26.12 23.024,26.728 C21.792,27.512 20.792,28.204 20.024,28.804 C19.256,29.404 18.6,30.136 18.056,31 C17.512,31.864 17.24,32.864 17.24,34 L17.24,34 L29.312,34 Z" id="2" fill="#FFFFFF" fill-rule="nonzero"></path>
                    </g>
                </g>
            </g>
        </g>
    </g>
</svg>