<?xml version="1.0" encoding="UTF-8"?>
<svg width="24px" height="24px" viewBox="0 0 24 24" version="1.1" xmlns="http://www.w3.org/2000/svg" xmlns:xlink="http://www.w3.org/1999/xlink">
    <!-- Generator: Sketch 52.6 (67491) - http://www.bohemiancoding.com/sketch -->
    <title>020-facebook@2x</title>
    <desc>Created with Sketch.</desc>
    <g id="Page-1" stroke="none" stroke-width="1" fill="none" fill-rule="evenodd">
        <g id="Left-Sub-Page-V2" transform="translate(-738.000000, -5762.000000)" fill="#FFFFFF" fill-rule="nonzero">
            <g id="Group-29" transform="translate(0.000000, 5737.000000)">
                <g id="Group-28">
                    <g id="Group-22" transform="translate(380.000000, 0.000000)">
                        <g id="020-facebook" transform="translate(358.000000, 25.000000)">
                            <path d="M21.9999023,0 L2.00009766,0 C0.900292969,0 0,0.900292969 0,2.00009766 L0,22.0001953 C0,23.0994141 0.900292969,24 2.00009766,24 L21.9999023,24 C23.099707,24 24,23.0994141 24,22.0001953 L24,2.00009766 C24,0.900292969 23.099707,0 21.9999023,0 Z M21.9999023,22.0001953 L14.0000977,22.0001953 L14.0000977,13.9998047 L18.9999023,13.9998047 L18.9999023,12 L14.0000977,12 L14.0000977,9.99990234 C14.0000977,8.34269531 15.3437695,6.99990234 17.0000977,6.99990234 L18.9999023,6.99990234 L18.9999023,4.99980469 L17.0000977,4.99980469 C14.2392188,5.00009766 12,7.23779297 12,9.99990234 L12,12 L9.99990234,12 L9.99990234,13.9998047 L12,13.9998047 L12,22.0001953 L2.00009766,22.0001953 L2.00009766,2.00009766 L21.9999023,2.00009766 L21.9999023,22.0001953 Z" id="Shape"></path>
                        </g>
                    </g>
                </g>
            </g>
        </g>
    </g>
</svg>