<?xml version="1.0" encoding="UTF-8"?>
<svg width="24px" height="24px" viewBox="0 0 24 24" version="1.1" xmlns="http://www.w3.org/2000/svg" xmlns:xlink="http://www.w3.org/1999/xlink">
    <!-- Generator: Sketch 52.6 (67491) - http://www.bohemiancoding.com/sketch -->
    <title>013-instagram-1@2x</title>
    <desc>Created with Sketch.</desc>
    <g id="Page-1" stroke="none" stroke-width="1" fill="none" fill-rule="evenodd">
        <g id="Left-Sub-Page-V2" transform="translate(-598.000000, -5762.000000)" fill="#FFFFFF">
            <g id="Group-29" transform="translate(0.000000, 5737.000000)">
                <g id="Group-28">
                    <g id="Group-22" transform="translate(380.000000, 0.000000)">
                        <g id="013-instagram-1" transform="translate(218.000000, 25.000000)">
                            <path d="M18,0 L6,0 C2.70029297,0 0,2.70022705 0,5.99985352 L0,18.0001465 C0,21.2988941 2.70029297,24 6,24 L18,24 C21.299707,24 24,21.2988941 24,18.0001465 L24,5.99985352 C24,2.70022705 21.299707,0 18,0 Z M21.9999023,18.0001465 C21.9999023,20.2050926 20.2062305,21.9999512 18,21.9999512 L6,21.9999512 C3.79470703,21.9999512 2.00009766,20.2050926 2.00009766,18.0001465 L2.00009766,5.99985352 C2.00009766,3.79432143 3.79470703,2.00004883 6,2.00004883 L18,2.00004883 C20.2062305,2.00004883 21.9999023,3.79432143 21.9999023,5.99985352 L21.9999023,18.0001465 Z" id="Shape" fill-rule="nonzero"></path>
                            <circle id="Oval" cx="18.72" cy="5.28" r="1.44"></circle>
                            <path d="M12,6 C8.68558594,6 6,8.68574777 6,11.999707 C6,15.3124359 8.68558594,18 12,18 C15.3134766,18 18,15.3124359 18,11.999707 C18,8.68574777 15.3134766,6 12,6 Z M12,16 C9.79107422,16 8.00009766,14.2091109 8.00009766,11.999707 C8.00009766,9.79030321 9.79107422,8 12,8 C14.2089258,8 15.9999023,9.79030321 15.9999023,11.999707 C15.9999023,14.2091109 14.2089258,16 12,16 Z" id="Shape" fill-rule="nonzero"></path>
                        </g>
                    </g>
                </g>
            </g>
        </g>
    </g>
</svg>