<?xml version="1.0" encoding="UTF-8"?>
<svg width="222px" height="85px" viewBox="0 0 222 85" version="1.1" xmlns="http://www.w3.org/2000/svg" xmlns:xlink="http://www.w3.org/1999/xlink">
    <!-- Generator: Sketch 60 (88103) - https://sketch.com -->
    <title>logoFooter</title>
    <desc>Created with Sketch.</desc>
    <g id="Page-1" stroke="none" stroke-width="1" fill="none" fill-rule="evenodd">
        <g id="logoFooter">
            <g id="Group-16" transform="translate(104.687500, 31.125000)" fill="#000000" fill-rule="nonzero">
                <path d="M5.96875,22.5 L7.90625,8.75 L8.0625,8.75 L9.84375,22.5 L17.375,22.5 L23.0625,8.75 L23.1875,8.75 L21.25,22.5 L27.8125,22.5 L30.84375,1.0625 L20.03125,1.0625 L15.375,12.5 L15.25,12.5 L13.78125,1.0625 L3.03125,1.0625 L0,22.5 L5.96875,22.5 Z M45.65625,22.8125 C46.1770834,22.8125 46.734375,22.75 47.328125,22.625 C47.921875,22.5 48.4375,22.3229167 48.875,22.09375 L48.875,22.09375 L49.34375,18.65625 C48.9270834,18.9270833 48.5416666,19.0625 48.1875,19.0625 C47.6458334,19.0625 47.375,18.78125 47.375,18.21875 C47.375,17.71875 47.5416666,16.3072917 47.875,13.984375 C48.2083334,11.6614583 48.59375,9.17708334 49.03125,6.53125 L49.03125,6.53125 L44.375,6.53125 L43.3125,8.4375 L43.15625,8.4375 C42.71875,7.72916666 42.1145834,7.18229166 41.34375,6.796875 C40.5729166,6.41145834 39.7604166,6.21875 38.90625,6.21875 C37.2395834,6.21875 35.8385416,6.734375 34.703125,7.765625 C33.5677084,8.796875 32.734375,10.0989583 32.203125,11.671875 C31.671875,13.2447917 31.40625,14.84375 31.40625,16.46875 C31.40625,18.3645833 31.8385416,19.8958333 32.703125,21.0625 C33.5677084,22.2291667 34.9166666,22.8125 36.75,22.8125 C37.6041666,22.8125 38.453125,22.5833333 39.296875,22.125 C40.140625,21.6666667 40.84375,21.0833333 41.40625,20.375 C41.6354166,21.3333333 42.1197916,21.9791667 42.859375,22.3125 C43.5989584,22.6458333 44.53125,22.8125 45.65625,22.8125 Z M39.1875,19.03125 C38.7083334,19.03125 38.3125,18.859375 38,18.515625 C37.6875,18.171875 37.53125,17.7291667 37.53125,17.1875 C37.53125,17.0208333 37.75,15.3958333 38.1875,12.3125 C38.2708334,11.6875 38.5260416,11.1666667 38.953125,10.75 C39.3802084,10.3333333 39.875,10.125 40.4375,10.125 C40.9375,10.125 41.3385416,10.28125 41.640625,10.59375 C41.9427084,10.90625 42.09375,11.3541667 42.09375,11.9375 C42.09375,12.125 42.0208334,12.6770833 41.875,13.59375 L41.875,13.59375 L41.75,14.59375 L41.4375,16.84375 C41.3333334,17.4895833 41.09375,18.015625 40.71875,18.421875 C40.34375,18.828125 39.8333334,19.03125 39.1875,19.03125 Z M56.9375,22.5 L57.4375,18.9375 L58.6875,17.96875 L60.875,22.5 L68.15625,22.5 L63.6875,13.75 L70.3125,6.53125 L63.25,6.53125 L58.34375,12.46875 L60.09375,0 L53.90625,0 L50.78125,22.5 L56.9375,22.5 Z M78,22.8125 C79.5833334,22.8125 81.0052084,22.5364583 82.265625,21.984375 C83.5260416,21.4322917 84.5364584,20.6770833 85.296875,19.71875 C86.0572916,18.7604167 86.5208334,17.6875 86.6875,16.5 L86.6875,16.5 L80.96875,16.5 C80.8645834,17.2916667 80.5833334,17.9114583 80.125,18.359375 C79.6666666,18.8072917 79.0729166,19.03125 78.34375,19.03125 C77.71875,19.03125 77.2083334,18.8697917 76.8125,18.546875 C76.4166666,18.2239583 76.21875,17.7708333 76.21875,17.1875 C76.1979166,17.125 76.2395834,16.7708333 76.34375,16.125 L76.34375,16.125 L76.46875,15.34375 L86.875,15.34375 C87.0416666,14.1145833 87.1354166,13.34375 87.15625,13.03125 L87.15625,13.03125 L87.21875,12.1875 C87.21875,10.375 86.6354166,8.92708334 85.46875,7.84375 C84.3020834,6.76041666 82.625,6.21875 80.4375,6.21875 L80.4375,6.21875 L79.65625,6.21875 C77.7395834,6.21875 76.0364584,6.61979166 74.546875,7.421875 C73.0572916,8.22395834 71.890625,9.38020834 71.046875,10.890625 C70.203125,12.4010417 69.78125,14.1875 69.78125,16.25 C69.78125,17.6041667 70.109375,18.7760417 70.765625,19.765625 C71.421875,20.7552083 72.3385416,21.5104167 73.515625,22.03125 C74.6927084,22.5520833 76.03125,22.8125 77.53125,22.8125 L77.53125,22.8125 L78,22.8125 Z M81.15625,12.625 L76.84375,12.625 L76.90625,12.1875 C76.9895834,11.5833333 77.265625,11.0677083 77.734375,10.640625 C78.203125,10.2135417 78.75,10 79.375,10 C79.9166666,10 80.359375,10.1822917 80.703125,10.546875 C81.046875,10.9114583 81.21875,11.3645833 81.21875,11.90625 C81.21875,12.0729167 81.2083334,12.21875 81.1875,12.34375 C81.1666666,12.46875 81.15625,12.5625 81.15625,12.625 L81.15625,12.625 Z M102.96875,4.46875 L103.59375,0 L97.4375,0 L96.8125,4.46875 L102.96875,4.46875 Z M100.4375,22.5 L102.6875,6.53125 L96.53125,6.53125 L94.3125,22.5 L100.4375,22.5 Z M110.125,22.84375 C110.708333,22.84375 111.442708,22.7760417 112.328125,22.640625 C113.213542,22.5052083 113.90625,22.34375 114.40625,22.15625 L114.40625,22.15625 L114.90625,18.65625 C114.65625,18.7604167 114.328125,18.8489583 113.921875,18.921875 C113.515625,18.9947917 113.1875,19.03125 112.9375,19.03125 C112.416667,19.03125 112.026042,18.9270833 111.765625,18.71875 C111.505208,18.5104167 111.375,18.09375 111.375,17.46875 C111.375,17.21875 111.677083,15.0520833 112.28125,10.96875 L112.28125,10.96875 L116.03125,10.96875 L116.65625,6.53125 L112.90625,6.53125 L113.96875,1.4375 L107.4375,1.4375 L106.71875,6.53125 L104.96875,6.53125 L104.34375,10.96875 L106.09375,10.96875 L105.3125,16.4375 C105.166667,17.3333333 105.072917,17.9739583 105.03125,18.359375 C104.989583,18.7447917 104.96875,19.0625 104.96875,19.3125 C104.96875,20.5833333 105.411458,21.4895833 106.296875,22.03125 C107.182292,22.5729167 108.458333,22.84375 110.125,22.84375 Z" id="Makeit"></path>
            </g>
            <g id="Group-30">
                <g id="Path-17" fill-rule="nonzero">
                    <g id="path-1-link" fill="#000000">
                        <path d="M10.6023527,0.640703916 L0.640703916,10.6023527 C0.230468088,11.0125886 0,11.5689877 0,12.1491488 L0,82.1875 C0,83.3956228 0.979377109,84.375 2.1875,84.375 L72.2258512,84.375 C72.8060122,84.375 73.3624116,84.1445319 73.7726472,83.7342959 L83.7342959,73.7726472 C84.1445319,73.3624116 84.375,72.8060122 84.375,72.2258512 L84.375,2.1875 C84.375,0.979377109 83.3956228,0 82.1875,0 L12.1491488,0 C11.5689877,0 11.0125886,0.230468088 10.6023527,0.640703916 Z" id="path-1"></path>
                    </g>
                    <path d="M10.9338091,0.972160219 L0.972160219,10.9338091 C0.649832069,11.2561372 0.46875,11.693308 0.46875,12.1491488 L0.46875,82.1875 C0.46875,83.1367394 1.23826059,83.90625 2.1875,83.90625 L72.2258513,83.90625 C72.6816919,83.90625 73.1188628,83.7251678 73.4411909,83.4028397 L83.4028397,73.4411909 C83.7251678,73.1188628 83.90625,72.6816919 83.90625,72.2258513 L83.90625,2.1875 C83.90625,1.23826059 83.1367394,0.46875 82.1875,0.46875 L12.1491488,0.46875 C11.693308,0.46875 11.2561372,0.649832069 10.9338091,0.972160219 Z" id="Path" stroke="#1F1B24" stroke-width="0.9375" fill="#459593"></path>
                </g>
                <rect id="Rectangle" stroke="#1F1B24" stroke-width="0.9375" fill="#64C1BE" fill-rule="nonzero" x="11.71875" y="0.46875" width="72.1875" height="72.1875"></rect>
                <g id="Path-2" transform="translate(29.375000, 22.812500)" fill-rule="nonzero">
                    <g id="path-3-link" fill="#000000">
                        <path d="M0,30.7191022 L0,0.843397875 C0,0.479390469 0.295086313,0.184200759 0.659093719,0.184200759 C0.777194094,0.184200759 0.893125,0.216037063 0.994761781,0.276184062 L18.1018319,10.3998741 C18.3088444,10.5223806 18.5661556,10.5223806 18.7731681,10.3998741 L35.8802381,0.276184062 C36.1935019,0.0907997187 36.5977356,0.194466313 36.78312,0.507729844 C36.8432672,0.609366594 36.875,0.725297531 36.875,0.843397875 L36.875,30.7191022 C36.875,31.0831097 36.5799137,31.3782993 36.2159062,31.3782993 C36.0978059,31.3782993 35.981875,31.3464628 35.8802381,31.2863159 L27.9796756,26.6108897 C27.7792081,26.4922563 27.65625,26.2766159 27.65625,26.0436759 L27.65625,16.6643725 C27.65625,16.300365 27.3611637,16.0052788 26.9971562,16.0052788 C26.8790559,16.0052788 26.763125,16.0370116 26.6614881,16.0971588 L18.7731681,20.76534 C18.5661556,20.8878466 18.3088444,20.8878466 18.1018319,20.76534 L10.2135119,16.0971588 C9.90024813,15.9117744 9.49601438,16.0154409 9.31063,16.3287044 C9.25048281,16.4303413 9.21875,16.5462722 9.21875,16.6643725 L9.21875,26.0436759 C9.21875,26.2766159 9.09579187,26.4922563 8.89532438,26.6108897 L0.994761781,31.2863159 C0.681498219,31.4717003 0.27726425,31.3680338 0.0918799063,31.0547703 C0.0317329062,30.9531334 0,30.8372025 0,30.7191022 Z" id="path-3"></path>
                    </g>
                    <g id="path-3-link" fill="#FFFFFF" stroke="#1F1B24" stroke-width="1.00625001">
                        <path d="M0,30.7191022 L0,0.843397875 C0,0.479390469 0.295086313,0.184200759 0.659093719,0.184200759 C0.777194094,0.184200759 0.893125,0.216037063 0.994761781,0.276184062 L18.1018319,10.3998741 C18.3088444,10.5223806 18.5661556,10.5223806 18.7731681,10.3998741 L35.8802381,0.276184062 C36.1935019,0.0907997187 36.5977356,0.194466313 36.78312,0.507729844 C36.8432672,0.609366594 36.875,0.725297531 36.875,0.843397875 L36.875,30.7191022 C36.875,31.0831097 36.5799137,31.3782993 36.2159062,31.3782993 C36.0978059,31.3782993 35.981875,31.3464628 35.8802381,31.2863159 L27.9796756,26.6108897 C27.7792081,26.4922563 27.65625,26.2766159 27.65625,26.0436759 L27.65625,16.6643725 C27.65625,16.300365 27.3611637,16.0052788 26.9971562,16.0052788 C26.8790559,16.0052788 26.763125,16.0370116 26.6614881,16.0971588 L18.7731681,20.76534 C18.5661556,20.8878466 18.3088444,20.8878466 18.1018319,20.76534 L10.2135119,16.0971588 C9.90024813,15.9117744 9.49601438,16.0154409 9.31063,16.3287044 C9.25048281,16.4303413 9.21875,16.5462722 9.21875,16.6643725 L9.21875,26.0436759 C9.21875,26.2766159 9.09579187,26.4922563 8.89532438,26.6108897 L0.994761781,31.2863159 C0.681498219,31.4717003 0.27726425,31.3680338 0.0918799063,31.0547703 C0.0317329062,30.9531334 0,30.8372025 0,30.7191022 Z" id="path-3"></path>
                    </g>
                </g>
                <path d="M0.9375,83.4375 L12.1875,72.1875 L0.9375,83.4375 Z" id="Path-18" stroke="#1F1B24" stroke-width="0.9375"></path>
            </g>
        </g>
    </g>
</svg>