<?xml version="1.0" encoding="UTF-8"?>
<svg width="546px" height="463px" viewBox="0 0 546 463" version="1.1" xmlns="http://www.w3.org/2000/svg" xmlns:xlink="http://www.w3.org/1999/xlink">
    <!-- Generator: Sketch 52.6 (67491) - http://www.bohemiancoding.com/sketch -->
    <title>Group 5</title>
    <desc>Created with Sketch.</desc>
    <defs>
        <circle id="path-1" cx="213.5" cy="213.5" r="213.5"></circle>
    </defs>
    <g id="Page-1" stroke="none" stroke-width="1" fill="none" fill-rule="evenodd">
        <g id="Artboard-Copy-2" transform="translate(-119.000000, -100.000000)">
            <g id="Group-5" transform="translate(121.000000, 102.000000)">
                <g id="Group-3">
                    <g id="Group" transform="translate(18.000000, 17.000000)" fill="#4A90E2" fill-rule="nonzero" stroke="#000000" stroke-width="3">
                        <circle id="Oval" cx="215.5" cy="215.5" r="215.5"></circle>
                    </g>
                    <g id="Path-+-Path-+-Path-+-Path-+-Path-Mask" transform="translate(20.000000, 19.000000)">
                        <mask id="mask-2" fill="white">
                            <use xlink:href="#path-1"></use>
                        </mask>
                        <use id="Mask" fill="#3970AF" fill-rule="nonzero" xlink:href="#path-1"></use>
                        <path d="M382.091092,445.545546 C382.091092,307.173062 269.91803,195 131.545546,195 C-6.82693821,195 -119,307.173062 -119,445.545546" id="Path" stroke="#000000" stroke-width="3" fill="#F1A4AB" fill-rule="nonzero" mask="url(#mask-2)"></path>
                        <path d="M348,454 C348,334.706494 251.293506,238 132,238 C12.706494,238 -84,334.706494 -84,454" id="Path" stroke="#000000" stroke-width="3" fill="#FAD843" fill-rule="nonzero" mask="url(#mask-2)"></path>
                        <path d="M313,462 C313,361.484176 232.187397,280 132.5,280 C32.8126027,280 -48,361.484176 -48,462" id="Path" stroke="#000000" stroke-width="3" fill="#64C1BE" fill-rule="nonzero" mask="url(#mask-2)"></path>
                        <path d="M277,470 C277,387.157288 211.857431,320 131.5,320 C51.1425689,320 -14,387.157288 -14,470" id="Path" stroke="#000000" stroke-width="3" fill="#4A90E2" fill-rule="nonzero" mask="url(#mask-2)"></path>
                        <path d="M244,477 C244,411.278115 193.855892,358 132,358 C70.144108,358 20,411.278115 20,477" id="Path" stroke="#000000" stroke-width="3" fill="#FFFFFF" fill-rule="nonzero" mask="url(#mask-2)"></path>
                    </g>
                    <path d="M34.1747811,76.9790058 C114.592901,76.9790058 154.801961,76.9790058 154.801961,76.9790058 C167.016074,76.1059392 170.253366,68.2132101 170.253366,54.0079955 C170.253366,44.2416164 162.88712,36.6197153 154.801961,33.0338132 C147.320076,29.715473 135.451489,28.0350126 127.852808,28.0350126 C127.852808,28.0350126 124.955967,-4.26325641e-14 95.3746816,-4.26325641e-14 C75.6538245,-4.14891511e-14 64.8514913,11.0112711 62.967682,33.0338132 C45.7980626,29.0283952 32.6359031,30.2331627 23.4812035,36.6481157 C14.3265039,43.0630687 11.0550365,52.123708 13.6668013,63.8300336 C3.07138934,63.9259854 -1.36332239,68.3089761 0.362666121,76.9790058 C0.362666121,76.9790058 11.6333711,76.9790058 34.1747811,76.9790058 Z" id="Path-2" stroke="#000000" stroke-width="3" fill="#FFFFFF" fill-rule="nonzero"></path>
                    <g id="Group-2" transform="translate(132.000000, 107.000000)" fill-rule="nonzero" stroke="#000000" stroke-width="3">
                        <path d="M97,48.2738509 C120.713542,13.6151337 135.613932,-2.38089153 141.701172,0.285775137 C147.788411,2.9524418 141.065755,25.1835616 121.533203,66.9791345 L97,48.2738509 Z" id="Path-5" fill="#FAD843"></path>
                        <path d="M8,351.545546 C135.475079,351.545546 198.808412,351.545546 198,351.545546 C148.730945,320.968416 134.895659,282.396089 156.494142,235.828565 C197.25261,223.116032 216.638026,203.593099 214.650391,177.259766 C212.662755,150.926432 190.605921,132.734076 148.479888,122.682697 C146.822153,92.2280396 138.213486,70.1477713 122.653885,56.4418921 C99.314484,35.8830734 60.1010143,44.8330026 60.1010143,44.8330026 C41.8832446,30.3260643 22.4947602,24.670044 1.93556101,27.8649418 C1.93556101,49.0835875 9.06548207,67.1907152 23.3253242,82.1863249 C-0.706045818,165.293042 -5.81448721,255.079449 8,351.545546 Z" id="Path-4" fill="#F4F4F4"></path>
                        <circle id="Oval" fill="#FFFFFF" cx="70.5" cy="109.5" r="9.5"></circle>
                        <circle id="Oval-Copy" fill="#FFFFFF" cx="110.5" cy="109.5" r="9.5"></circle>
                    </g>
                    <path d="M300.235822,308.090698 C300.23237,298.655546 293.237195,291.003779 284.611662,291.000001 C275.986128,290.996223 268.996549,298.641865 269.000001,308.077016 C269.000001,308.077016 300.235822,308.090698 300.235822,308.090698 Z" id="Oval-Copy-2" stroke="#000000" stroke-width="3" fill="#FFFFFF" transform="translate(284.617911, 299.545349) rotate(-180.000000) translate(-284.617911, -299.545349) "></path>
                    <path d="M145.555369,144.649251 C145.555369,144.649251 157.743001,143.12837 167.156738,148.143555 C176.570475,153.158739 180.775879,157.836914 180.775879,157.836914 L163,179.374512 C153.0733,168.360774 147.258423,156.785687 145.555369,144.649251 Z" id="Shape" stroke="#000000" stroke-width="3" fill="#FFFFFF" fill-rule="nonzero"></path>
                </g>
                <g id="Group-4" transform="translate(305.000000, 39.000000)">
                    <path d="M43.6625755,155.827379 L14.3526649,155.827379 L37.8278797,137.119683 C36.4613267,130.512994 35.7432899,123.669079 35.7432899,116.657457 C35.7432899,61.1528401 80.7386726,16.1574575 136.24329,16.1574575 C191.747907,16.1574575 236.74329,61.1528401 236.74329,116.657457 C236.74329,172.162075 191.747907,217.157457 136.24329,217.157457 C94.6343667,217.157457 58.9313398,191.871309 43.6625755,155.827379 Z" id="Combined-Shape" stroke="#000000" stroke-width="3" fill="#FFFFFF" fill-rule="nonzero" transform="translate(125.547977, 116.657457) rotate(-9.000000) translate(-125.547977, -116.657457) "></path>
                    <g id="Group-2" transform="translate(135.639897, 108.858988) rotate(-3.000000) translate(-135.639897, -108.858988) translate(58.139897, 86.858988)" fill="#000000">
                        <path d="M4.32421875,23.7294922 C4.20117126,23.7294922 4.06933664,23.7382812 3.92871094,23.7558594 L3.55957031,23.7558594 C2.96191107,23.7558594 2.3994167,23.6855476 1.87207031,23.5449219 C1.23925465,23.3691397 0.878906689,22.8418013 0.791015625,21.9628906 C0.791015625,20.9960889 1.15136358,20.4072276 1.87207031,20.1962891 C2.38183849,20.0556634 2.91796594,19.9853516 3.48046875,19.9853516 C3.6914073,19.9853516 3.9023427,19.9941405 4.11328125,20.0117188 L4.40332031,20.0117188 C4.42089853,19.3964813 4.44726545,18.7900421 4.48242187,18.1923828 C4.5175783,17.5068325 4.54394522,16.8125035 4.56152344,16.109375 L4.56152344,14.6064453 C4.54394522,14.2197246 4.53515625,13.8242208 4.53515625,13.4199219 C4.53515625,12.769528 4.56152317,12.1103549 4.61425781,11.4423828 C4.70214888,10.38769 4.98779055,9.47803117 5.47119141,8.71337891 C5.95459226,7.94872665 6.77636139,7.49609445 7.93652344,7.35546875 C8.11230557,7.33789054 8.28808506,7.32910156 8.46386719,7.32910156 C9.41309068,7.32910156 10.0986307,7.5927708 10.5205078,8.12011719 C11.030276,8.75293285 11.3203121,9.54394057 11.390625,10.4931641 C11.4257814,10.9150412 11.4433594,11.328123 11.4433594,11.7324219 C11.4433594,12.2597683 11.4169925,12.7695288 11.3642578,13.2617188 L11.2587891,14.7382812 C11.1005851,16.5136808 10.9951175,18.2626867 10.9423828,19.9853516 C11.9091845,19.9853516 12.8671828,20.0029295 13.8164062,20.0380859 C15.2402415,20.1787116 16.0664051,20.6445273 16.2949219,21.4355469 C16.3476565,21.611329 16.3740234,21.7871085 16.3740234,21.9628906 C16.3740234,22.5253934 16.0576204,23.008787 15.4248047,23.4130859 C15.0205058,23.6064463 14.4140665,23.711914 13.6054687,23.7294922 C13.0605442,23.7470704 12.5419946,23.7558594 12.0498047,23.7558594 L11.3378906,23.7558594 C11.1445303,23.7558594 10.9687508,23.7470704 10.8105469,23.7294922 L10.8105469,24.4677734 C10.8105469,25.5576226 10.8369138,26.9638586 10.8896484,28.6865234 C10.9775395,30.8486436 11.1796859,32.9579975 11.4960937,35.0146484 C11.8125016,37.0712993 12.3310511,38.5039022 13.0517578,39.3125 C13.4384785,39.6640643 13.8515603,39.8574217 14.2910156,39.8925781 L14.5546875,39.8925781 C14.8886735,39.8925781 15.2138656,39.8662112 15.5302734,39.8134766 C15.741212,39.7783201 15.9257805,39.7607422 16.0839844,39.7607422 C16.2949229,39.7607422 16.4794914,39.7871091 16.6376953,39.8398438 C16.8662121,39.9277348 16.9804687,40.217771 16.9804687,40.7099609 L16.9804687,40.9208984 C16.8574213,41.8173873 16.4179725,42.4501935 15.6621094,42.8193359 C14.9062462,43.1884784 14.0537157,43.3906248 13.1044922,43.4257812 L12.8144531,43.4257812 C11.9706989,43.4257812 11.241214,43.3554695 10.6259766,43.2148438 C9.06151562,42.8457013 7.84424263,41.905281 6.97412109,40.3935547 C6.10399956,38.8818284 5.48437685,37.0976665 5.11523437,35.0410156 C4.7460919,32.9843647 4.51757856,30.9629006 4.4296875,28.9765625 C4.35937465,27.3066323 4.32421875,25.8652404 4.32421875,24.6523438 L4.32421875,23.7294922 Z M21.7859414,8.3046875 C21.7683632,7.93554503 21.7419962,7.52246322 21.7068398,7.06542969 C21.6541052,6.43261402 21.6277382,5.7822299 21.6277382,5.11425781 C21.6277382,4.72753713 21.6365272,4.33203327 21.6541054,3.92773438 C21.7068401,2.83788518 21.9880873,1.93262079 22.4978554,1.21191406 C22.954889,0.561520186 23.7195298,0.236328125 24.7918007,0.236328125 C24.9148482,0.236328125 25.0466829,0.2451171 25.1873086,0.262695312 C26.4353617,0.403321016 27.3010757,0.908687056 27.7844765,1.77880859 C28.2678774,2.64893013 28.5271521,3.67284567 28.5623086,4.85058594 L28.5886757,5.74707031 C28.5886757,6.62598096 28.5447309,7.47851149 28.4568398,8.3046875 C28.4041052,8.83203389 28.3689493,9.31542749 28.3513711,9.75488281 C28.3162146,11.3896566 28.2986367,13.0156169 28.2986367,14.6328125 C28.2986367,15.8632874 28.3074257,17.0937438 28.3250039,18.3242188 C28.3425821,19.4843808 28.3513711,20.6445254 28.3513711,21.8046875 L28.3513711,24.3359375 C29.3005946,23.0351497 30.53984,21.9716838 32.0691445,21.1455078 C33.9324351,20.249019 35.5144505,19.8007812 36.8152382,19.8007812 C37.2722718,19.8007812 37.6853536,19.8535151 38.0544961,19.9589844 C39.5662224,20.3632833 40.6824221,21.3652264 41.4031289,22.9648437 C42.1238356,24.5644611 42.5720733,26.5507694 42.7478554,28.9238281 C42.8181683,29.8027388 42.8533242,31.1298739 42.8533242,32.9052734 C42.8533242,34.6630947 42.7918014,36.3945227 42.6687539,38.0996094 C42.5457064,39.804696 42.334771,41.0087855 42.0359414,41.7119141 C41.6492207,42.4150426 41.0603594,42.8632803 40.2693398,43.0566406 C40.040823,43.1093753 39.8210987,43.1357422 39.6101601,43.1357422 C39.0828137,43.1357422 38.5906312,42.9775406 38.1335976,42.6611328 C37.5535166,42.2568339 37.2634804,41.5537159 37.2634804,40.5517578 L37.2634804,40.2089844 C37.3337933,39.4179648 37.439261,38.6093791 37.5798867,37.7832031 C37.7908252,36.6230411 37.9314488,35.4716854 38.0017617,34.3291016 C38.0017617,34.0126937 38.0193396,33.6435568 38.0544961,33.2216797 C38.1072307,32.0263612 38.1335976,30.6728591 38.1335976,29.1611328 C38.1335976,27.6669847 37.9885795,26.3354551 37.698539,25.1665039 C37.4084985,23.9975527 36.8679766,23.3339852 36.076957,23.1757812 C35.9890659,23.158203 35.9011762,23.1494141 35.8132851,23.1494141 C35.057422,23.1494141 34.011534,23.8085872 32.6755898,25.1269531 L32.280082,25.5488281 L31.858207,26.0234375 C30.8210924,27.1835996 30.0740296,28.3876891 29.6169961,29.6357422 C29.1599625,30.8837953 28.7908256,32.2109305 28.5095742,33.6171875 C28.4568395,33.8281261 28.4041057,34.0478504 28.3513711,34.2763672 C28.3513711,34.5751968 28.36016,34.9531227 28.3777382,35.4101562 C28.4304729,36.1660194 28.4568398,36.9570271 28.4568398,37.7832031 C28.4568398,38.187502 28.4480508,38.6093728 28.4304726,39.0488281 C28.3953162,40.3671941 28.2195367,41.3251923 27.9031289,41.9228516 C27.3757825,42.6787147 26.6375086,43.1357414 25.6882851,43.2939453 C25.4773466,43.3291017 25.2752002,43.3466797 25.0818398,43.3466797 C24.3611331,43.3466797 23.684382,43.1181663 23.0515664,42.6611328 C22.2429686,42.09863 21.7947309,41.0878979 21.7068398,39.6289062 L21.7068398,38.6269531 C21.7068398,37.9765592 21.7156288,37.3085972 21.733207,36.6230469 L21.7859414,34.9355469 C21.8035196,33.4941334 21.8123086,32.0439526 21.8123086,30.5849609 C21.8650432,27.1572094 21.8914101,23.7295093 21.8914101,20.3017578 C21.8914101,16.3115035 21.8562542,12.31252 21.7859414,8.3046875 Z M62.2662187,25.3378906 C60.6841795,24.3007761 59.3043105,23.7822266 58.1265702,23.7822266 C57.6695367,23.7822266 57.2476659,23.8613273 56.8609452,24.0195312 C55.4546882,24.5644558 54.3868278,25.6762611 53.657332,27.3549805 C52.9278361,29.0336998 52.4839929,30.857412 52.325789,32.8261719 C52.2730544,33.4589875 52.2466874,34.0654268 52.2466874,34.6455078 C52.2466874,35.8056699 52.3609441,36.8515578 52.5894609,37.7832031 C52.9410251,39.1894602 53.6089872,39.9541009 54.5933671,40.0771484 C54.66368,40.0947267 54.7339918,40.1035156 54.8043046,40.1035156 C55.7886845,40.1035156 57.1070307,39.2070402 58.7593827,37.4140625 C59.7964973,36.2539004 60.5391657,35.0498109 60.9874101,33.8017578 C61.4356545,32.5537047 61.8091859,31.2177806 62.1080156,29.7939453 L62.2662187,29.1611328 L62.2662187,25.3378906 Z M62.2662187,39.1015625 C61.7212941,39.8222692 61.1631942,40.4287085 60.5919023,40.9208984 C60.0206104,41.4130884 59.3394648,41.8701151 58.5484452,42.2919922 C56.8257804,43.1533246 55.243765,43.5839844 53.8023515,43.5839844 C53.187114,43.5839844 52.5982527,43.5048836 52.0357499,43.3466797 C50.1724594,42.8193333 48.8716911,41.1582171 48.1334062,38.3632812 C47.9048894,37.2910103 47.7906327,36.1660215 47.7906327,34.9882812 C47.7906327,33.810541 47.9048894,32.5800845 48.1334062,31.296875 C48.5728615,28.7128777 49.4693369,26.3837994 50.8228593,24.3095703 C52.1763817,22.2353412 54.0044884,20.8906281 56.3072343,20.2753906 C56.8873153,20.1523431 57.4498097,20.0908203 57.9947343,20.0908203 C58.3990332,20.0908203 58.7857481,20.1259762 59.1548906,20.1962891 C60.0338012,20.3369148 60.7632861,20.5039053 61.3433671,20.6972656 C61.7828224,20.8378913 62.0992255,20.9082031 62.2925859,20.9082031 L62.3453202,20.9082031 C62.3628985,20.9082031 62.4024488,20.8906252 62.4639726,20.8554688 C62.5254963,20.8203123 62.6002026,20.7763675 62.6880937,20.7236328 C62.8287194,20.65332 62.9737375,20.5830082 63.1231523,20.5126953 C63.2725671,20.4423825 63.3912182,20.3896486 63.4791093,20.3544922 C64.199816,20.1259754 64.8326222,20.0117188 65.3775468,20.0117188 C66.0806753,20.0117188 66.6343807,20.2138652 67.0386796,20.6181641 C67.7418081,21.3388708 68.0933671,22.5078044 68.0933671,24.125 C68.0757889,24.4941425 68.0669999,24.8720684 68.0669999,25.2587891 C68.0494217,25.7158226 68.0318438,26.1816383 68.0142656,26.65625 C68.0142656,27.1835964 68.0230545,27.9921821 68.0406327,29.0820312 C68.058211,30.4355536 68.0757889,31.9472573 68.0933671,33.6171875 L68.0933671,35.2255859 C68.0933671,36.2627005 68.0845782,37.2294877 68.0669999,38.1259766 C68.1900474,39.6025464 68.3130931,40.4814439 68.4361406,40.7626953 L68.6470781,41.5009766 L68.6470781,41.9228516 C68.4185613,42.8369186 67.9615346,43.2939453 67.2759843,43.2939453 L66.5377031,43.2939453 C65.4654321,43.100585 64.6216905,42.6435583 64.0064531,41.9228516 C63.4087938,41.4482398 62.8287215,40.5078195 62.2662187,39.1015625 Z M84.9750116,21.1455078 C86.8383022,20.249019 88.4203176,19.8007812 89.7211054,19.8007812 C90.1781389,19.8007812 90.5912207,19.8535151 90.9603632,19.9589844 C92.4545113,20.3632833 93.5663166,21.3652264 94.2958124,22.9648438 C95.0253082,24.5644611 95.4779404,26.5507694 95.6537226,28.9238281 C95.8646611,31.3847779 95.9701288,33.8544798 95.9701288,36.3330078 C95.9701288,37.6513738 95.9437619,38.960931 95.8910272,40.2617188 C95.8382926,41.0175819 95.5658344,41.7206999 95.0736444,42.3710938 C94.6869238,42.8457055 94.1771632,43.0830078 93.5443476,43.0830078 C93.333409,43.0830078 93.1048957,43.0566409 92.8588007,43.0039062 C92.0326247,42.7402331 91.575598,42.2304725 91.4877069,41.4746094 C91.4701287,41.2460926 91.4613397,41.0175793 91.4613397,40.7890625 C91.4613397,40.2792943 91.5140736,39.7607448 91.6195429,39.2333984 C91.6546993,39.0048817 91.6810662,38.7939463 91.6986444,38.6005859 C91.8041137,37.7744099 91.8920035,36.5439535 91.9623163,34.9091797 C91.9974727,34.1708947 92.0150507,33.4238319 92.0150507,32.6679688 C92.0150507,31.7539017 91.9886838,30.8134814 91.9359491,29.8466797 C91.8304798,28.0888584 91.5536271,26.5771548 91.1053827,25.3115234 C90.6571383,24.0458921 89.9584148,23.3515631 89.0091913,23.2285156 L88.7982538,23.2285156 C87.8841867,23.2285156 86.6800972,24.0019454 85.1859491,25.5488281 L84.7377069,26.0234375 C83.5775449,27.3945381 82.7074364,28.9589756 82.1273554,30.7167969 C81.5648526,32.4218835 81.2836054,34.1445225 81.2836054,35.8847656 L81.2836054,36.0429688 C81.2836054,36.3769548 81.2923943,36.7197248 81.3099726,37.0712891 C81.3275508,37.4052751 81.3363397,37.7480451 81.3363397,38.0996094 C81.3363397,38.7675815 81.3011839,39.4355435 81.230871,40.1035156 C81.1429799,41.123052 80.8177879,41.9404266 80.2552851,42.5556641 C79.8158297,43.0302758 79.1390787,43.2675781 78.2250116,43.2675781 C77.9613384,43.2675781 77.6800912,43.2500002 77.3812616,43.2148438 C75.8871135,42.9511706 75.0082161,42.3359423 74.7445429,41.3691406 C74.586339,40.7539032 74.5072382,40.0859411 74.5072382,39.3652344 C74.5072382,38.9433573 74.5336051,38.4951196 74.5863397,38.0205078 L74.6390741,36.8076172 C74.6742306,35.4013602 74.6918085,34.0127022 74.6918085,32.6416016 C74.6918085,31.2529227 74.6742306,29.8818427 74.6390741,28.5283203 C74.6214959,27.0341722 74.6127069,25.5312576 74.6127069,24.0195312 C74.6127069,22.4726485 75.0169998,21.3300818 75.8255976,20.5917969 C76.3881004,20.0644505 77.1263742,19.8007812 78.0404413,19.8007812 C78.4623184,19.8007812 78.9105561,19.8535151 79.3851679,19.9589844 C80.3343914,20.2050794 80.8968857,20.6357391 81.0726679,21.2509766 C81.2132936,21.7080101 81.2836054,22.2089817 81.2836054,22.7539062 C81.2836054,22.9648448 81.2748164,23.1757802 81.2572382,23.3867188 C81.23966,23.5976573 81.230871,23.8173817 81.230871,24.0458984 C81.230871,24.1865241 81.2484489,24.2568359 81.2836054,24.2568359 L81.3099726,24.2568359 C81.345129,24.2568359 81.3890739,24.22168 81.4418085,24.1513672 C81.5121214,24.0810543 81.5824331,23.9931646 81.652746,23.8876953 L81.9691522,23.4658203 C82.3207165,23.0790996 82.6986424,22.7187517 83.1029413,22.3847656 L83.1556757,22.3320312 C83.7181785,21.8749977 84.3246177,21.4794939 84.9750116,21.1455078 Z M102.436734,4.87695312 L102.436734,4.37597656 C102.436734,3.1982363 102.656459,2.21387114 103.095914,1.42285156 C103.535369,0.649410195 104.405478,0.262695312 105.706265,0.262695312 C105.899626,0.262695312 106.092983,0.271484287 106.286344,0.2890625 C107.376193,0.41210999 108.132045,0.790035898 108.553922,1.42285156 C108.975799,2.05566723 109.213101,2.82030802 109.265836,3.71679687 C109.283414,4.01562649 109.292203,4.31445163 109.292203,4.61328125 C109.292203,5.19336228 109.265836,5.79101255 109.213101,6.40625 C109.177945,6.8105489 109.151578,7.19726378 109.134,7.56640625 C109.098843,9.18360184 109.081265,10.8183511 109.081265,12.4707031 C109.081265,13.701178 109.090054,14.9404234 109.107633,16.1884766 C109.125211,17.6826247 109.134,19.1503834 109.134,20.5917969 L109.134,30.03125 C109.380095,29.7324204 109.652553,29.4248063 109.951383,29.1083984 C110.07443,28.9853509 110.197476,28.8535163 110.320523,28.7128906 C111.972875,26.9023347 113.607625,25.074228 115.22482,23.2285156 C115.277555,23.1582028 115.339078,23.087891 115.40939,23.0175781 C115.848846,22.4550753 116.420129,21.9628927 117.123258,21.5410156 C117.439666,21.3476553 117.74728,21.2509766 118.046109,21.2509766 C118.415252,21.2509766 118.784389,21.3916002 119.153531,21.6728516 C119.522674,22.041994 119.707242,22.4374979 119.707242,22.859375 C119.707242,23.0175789 119.680875,23.1757805 119.62814,23.3339844 C119.452358,23.9316436 119.118377,24.5248994 118.626187,25.1137695 C118.133997,25.7026397 117.659393,26.2255837 117.202359,26.6826172 L116.701383,27.1835938 C115.470908,28.5195379 114.266818,29.87304 113.089078,31.2441406 C114.091036,32.4043027 115.101768,33.5468694 116.121305,34.671875 C116.929902,35.5683639 117.747277,36.4824172 118.573453,37.4140625 C118.99533,37.871096 119.434779,38.4599573 119.891812,39.1806641 C120.348846,39.9013708 120.630093,40.6396447 120.735562,41.3955078 C120.753141,41.5009771 120.76193,41.6064448 120.76193,41.7119141 C120.76193,42.3095733 120.489471,42.8457008 119.944547,43.3203125 C119.628139,43.5488293 119.311736,43.6630859 118.995328,43.6630859 C118.696498,43.6630859 118.397673,43.5664072 118.098844,43.3730469 C117.466028,42.9863262 116.868378,42.3974649 116.305875,41.6064453 C115.743372,40.8154257 115.251189,40.0507849 114.829312,39.3125 C114.548061,38.8378883 114.30197,38.4599623 114.091031,38.1787109 C113.21212,36.9833925 112.218966,35.8056699 111.111539,34.6455078 C110.672084,34.1708961 110.259002,33.7138694 109.872281,33.2744141 L109.397672,32.7207031 L109.160367,32.4570312 C109.160367,33.177738 109.169156,33.9423788 109.186734,34.7509766 C109.221891,35.5771526 109.239469,36.3857382 109.239469,37.1767578 C109.239469,37.9501992 109.221891,38.71484 109.186734,39.4707031 C109.151578,40.8066473 108.870331,41.7910125 108.342984,42.4238281 C107.885951,42.9863309 107.103732,43.2675781 105.996305,43.2675781 C105.820522,43.2675781 105.635954,43.2587892 105.442594,43.2412109 C104.370323,43.0654288 103.614471,42.6655305 103.175015,42.0415039 C102.73556,41.4174773 102.489469,40.657231 102.436734,39.7607422 C102.419156,39.4619126 102.410367,39.1630874 102.410367,38.8642578 C102.410367,38.2841768 102.436734,37.6865265 102.489469,37.0712891 C102.524625,36.5615209 102.550992,36.0781273 102.56857,35.6210938 C102.638883,31.6132612 102.674039,27.6054888 102.674039,23.5976562 C102.674039,17.3573907 102.594938,11.1172187 102.436734,4.87695312 Z M133.978535,18.640625 C136.351594,19.0097675 137.933609,19.6865185 138.724629,20.6708984 C139.269553,21.3212923 139.542012,21.9189426 139.542012,22.4638672 C139.542012,22.7275404 139.4717,22.9736317 139.331074,23.2021484 C139.084979,23.6240255 138.689475,23.8349609 138.144551,23.8349609 C137.792986,23.8349609 137.379905,23.7470712 136.905293,23.5712891 C136.764667,23.483398 136.597677,23.3955083 136.404316,23.3076172 C135.666031,22.8857401 134.839868,22.5429701 133.925801,22.2792969 C133.679706,22.208984 133.451192,22.1738281 133.240254,22.1738281 C132.642595,22.1738281 132.132834,22.4287084 131.710957,22.9384766 C131.517597,23.2373062 131.420918,23.5712872 131.420918,23.9404297 C131.420918,24.2919939 131.517597,24.6874978 131.710957,25.1269531 C132.115256,25.9882856 132.682145,26.8539996 133.41164,27.7241211 C134.141136,28.5942426 134.813493,29.3544889 135.42873,30.0048828 C135.745138,30.3212906 135.991229,30.5849599 136.167012,30.7958984 C137.081079,31.7978566 137.889664,32.8305611 138.592793,33.894043 C139.295921,34.9575248 139.744159,36.0869081 139.937519,37.2822266 C139.972676,37.5458998 139.990254,37.818358 139.990254,38.0996094 C139.990254,39.0312547 139.735373,40.0156198 139.225605,41.0527344 C138.48732,42.2656311 137.406276,43.0830057 135.982441,43.5048828 C135.103531,43.7509778 134.215844,43.8740234 133.319355,43.8740234 C132.721696,43.8740234 132.124046,43.8212896 131.526387,43.7158203 C129.997082,43.4345689 128.713892,42.8808635 127.676777,42.0546875 C127.008805,41.4921847 126.419944,40.7099659 125.910176,39.7080078 C125.664081,39.1982396 125.541035,38.723635 125.541035,38.2841797 C125.541035,37.8271462 125.664081,37.4052754 125.910176,37.0185547 C126.209005,36.7373033 126.50783,36.5966797 126.80666,36.5966797 C126.947286,36.5966797 127.096698,36.6318356 127.254902,36.7021484 C127.694358,36.9306652 128.116228,37.2382793 128.520527,37.625 L128.757832,37.8623047 C128.792988,37.8798829 128.819355,37.8974608 128.836933,37.9150391 C129.452171,38.5302765 130.164078,39.057615 130.972676,39.4970703 C131.376975,39.7080089 131.781267,39.8134766 132.185566,39.8134766 C132.607443,39.8134766 133.038103,39.6992199 133.477558,39.4707031 C133.987327,39.1191389 134.242207,38.6621122 134.242207,38.0996094 C134.242207,37.8359362 134.189473,37.554689 134.084004,37.2558594 C133.732439,36.3066359 133.134789,35.3134817 132.291035,34.2763672 C131.447281,33.2392526 130.665062,32.3427772 129.944355,31.5869141 C129.540056,31.1474587 129.241231,30.8134777 129.047871,30.5849609 C128.309586,29.6884721 127.610863,28.6337951 126.95168,27.4208984 C126.292497,26.2080017 125.910176,24.9687563 125.804707,23.703125 C125.787129,23.5624993 125.77834,23.4306647 125.77834,23.3076172 C125.77834,22.2001898 126.182633,21.1718797 126.99123,20.2226562 C127.870141,19.3437456 128.959974,18.8339851 130.260762,18.6933594 C130.999047,18.6054683 131.710953,18.5615234 132.396504,18.5615234 C132.941428,18.5615234 133.468767,18.5878904 133.978535,18.640625 Z M147.326976,6.06347656 L147.326976,5.72070312 C147.326976,5.03515282 147.370921,4.32324588 147.458812,3.58496094 C147.564282,2.72362851 147.841134,1.97656566 148.289379,1.34375 C148.737623,0.710934336 149.462714,0.359375352 150.464672,0.2890625 C151.835772,0.2890625 152.802559,0.74608918 153.365062,1.66015625 C153.927565,2.57422332 154.217601,3.64647822 154.235179,4.87695312 C154.235179,6.37110122 154.191235,7.88280485 154.103344,9.41210938 C154.050609,10.6953189 154.015453,11.9872982 153.997875,13.2880859 C154.015453,16.8037285 154.076976,20.3193184 154.182445,23.8349609 C154.147289,25.2060615 153.813308,27.2319202 153.180492,29.9125977 C152.547676,32.5932751 151.703935,33.9335938 150.649242,33.9335938 C149.260563,33.8105463 148.381666,31.7187703 148.012523,27.6582031 C147.643381,23.5976359 147.458812,20.13478 147.458812,17.2695312 C147.458812,15.2304586 147.441234,13.1914164 147.406078,11.1523438 L147.406078,10.7832031 C147.3885,10.0624964 147.379711,9.34180048 147.379711,8.62109375 C147.362133,7.77733953 147.344555,6.92480899 147.326976,6.06347656 Z M147.643383,38.3632812 C148.223464,37.3789013 149.02326,36.816407 150.042797,36.6757812 C150.236157,36.6406248 150.429514,36.6230469 150.622875,36.6230469 C151.413894,36.6230469 152.160957,36.8691382 152.864086,37.3613281 C153.655105,37.9941438 154.094554,38.8027295 154.182445,39.7871094 C154.200023,39.8925787 154.208812,39.9980463 154.208812,40.1035156 C154.208812,40.9472698 153.88362,41.6943327 153.233226,42.3447266 C152.653145,42.9423858 151.783037,43.2412109 150.622875,43.2412109 C150.359202,43.2412109 150.086743,43.223633 149.805492,43.1884766 C148.610174,42.9599598 147.863111,42.3623095 147.564281,41.3955078 C147.423655,40.9560525 147.353344,40.4990258 147.353344,40.0244141 C147.353344,39.4794895 147.450022,38.9257841 147.643383,38.3632812 Z" id="thanks!"></path>
                    </g>
                </g>
            </g>
        </g>
    </g>
</svg>