<svg xmlns="http://www.w3.org/2000/svg" width="41" height="72" viewBox="0 0 41 72">
    <g fill="#4A90E2" fill-rule="nonzero" stroke="#000" stroke-width="3">
        <path d="M34.254 67.363c-5.658 4.42-13.867 3.366-18.337-2.355C13.15 61.466 9.996 50.7 6.455 32.709a2 2 0 0 1 2.958-2.12C24.65 39.331 33.646 45.468 36.405 49c4.47 5.72 3.507 13.941-2.151 18.362zM26.974 11.807c-.918 4.322-5.036 7.109-9.196 6.224-2.447-.52-7.481-3.942-15.104-10.265a2 2 0 0 1 .9-3.504c9.255-1.771 15.098-2.398 17.53-1.881 4.161.884 6.789 5.104 5.87 9.426z"/>
    </g>
</svg>
