<svg xmlns="http://www.w3.org/2000/svg" width="45" height="76" viewBox="0 0 45 76">
    <g fill="#F1A4AB" fill-rule="nonzero" stroke="#000" stroke-width="3">
        <path d="M21.293 72.542c6.28 3.48 14.224 1.155 17.743-5.195 2.18-3.931 3.61-15.058 4.293-33.38a2 2 0 0 0-3.253-1.633c-13.681 11.02-21.608 18.489-23.78 22.408-3.52 6.35-1.282 14.319 4.997 17.8zM2.507 16.342c1.98 5.156 7.713 7.751 12.806 5.796 3.079-1.182 9.034-6.72 17.865-16.616a2 2 0 0 0-1.44-3.331C19.075 1.865 11.21 2.29 8.146 3.466c-5.094 1.956-7.618 7.72-5.64 12.876z"/>
    </g>
</svg>
