<svg xmlns="http://www.w3.org/2000/svg" width="76" height="76" viewBox="0 0 76 76">
    <g fill="none" fill-rule="nonzero" transform="translate(2 2)">
        <circle cx="36" cy="36" r="31" fill="#FFF"/>
        <path fill="#F1A4AB" stroke="#000" stroke-width="3" d="M36 0C16.118 0 0 16.118 0 36c0 19.883 16.118 36 36 36s36-16.117 36-36C72 16.118 55.882 0 36 0zM7.875 36a28 28 0 0 1 5.618-16.868l39.375 39.375A28 28 0 0 1 36 64.125C20.467 64.125 7.875 51.533 7.875 36zm50.57 16.947L19.054 13.554A27.998 27.998 0 0 1 36 7.875c15.533 0 28.125 12.592 28.125 28.125a28 28 0 0 1-5.68 16.947z"/>
        <path fill="#000" d="M13.604 18.003c-.312.022-.6.178-.788.43C9.01 23.5 7 29.538 7 35.892 7 51.942 20.058 65 36.109 65c6.353 0 12.39-2.01 17.458-5.815a1.088 1.088 0 0 0 .115-1.634L14.446 18.317a1.084 1.084 0 0 0-.842-.314zm22.505 44.83c-14.857 0-26.944-12.086-26.944-26.941 0-5.46 1.605-10.669 4.653-15.14l37.43 37.429c-4.471 3.047-9.679 4.652-15.14 4.652z"/>
    </g>
</svg>
