<svg xmlns="http://www.w3.org/2000/svg" width="51" height="39" viewBox="0 0 51 39">
    <g fill="#FAD843" fill-rule="nonzero" stroke="#000" stroke-width="2">
        <path d="M12.92 1h5.475a6.475 6.475 0 0 1 6.475 6.475c0 4.208-1.334 8.308-3.81 11.71L9.137 35.563a3.896 3.896 0 0 1-5.915.452 5.625 5.625 0 0 1-.701-7.063l8.262-12.503A1.61 1.61 0 0 0 9.44 13.95a2.995 2.995 0 0 1-2.995-2.995v-3.48A6.475 6.475 0 0 1 12.92 1zM37.92 1h5.475a6.475 6.475 0 0 1 6.475 6.475c0 4.208-1.334 8.308-3.81 11.71L34.137 35.563a3.896 3.896 0 0 1-5.915.452 5.625 5.625 0 0 1-.701-7.063l8.262-12.503a1.61 1.61 0 0 0-1.344-2.499 2.995 2.995 0 0 1-2.995-2.995v-3.48A6.475 6.475 0 0 1 37.92 1z"/>
    </g>
</svg>
