<svg xmlns="http://www.w3.org/2000/svg" width="125" height="82" viewBox="0 0 125 82">
    <g fill="none" fill-rule="nonzero" stroke="#000" transform="scale(-1 1) rotate(17 19.793 -325.278)">
        <path fill="#FFF" stroke-width="3" d="M74.468 67.685c18.214.507 32.182-16.481 31.228-34.682-.954-18.2-16.482-32.181-34.682-31.227-18.2.954-32.182 16.477-31.228 34.682C40.853 56.82 27.83 64.18 33.89 69.812c6.314 5.867 12.741-2.902 40.578-2.127z"/>
        <path fill="#000" d="M69.31 50.63c-4.39-.723-7.296-3.567-6.912-8.919.435-6.06 4.423-7.789 8.197-8.994l.787-10.969c-3.337.067-4.77 1.482-5.569 1.456-.797-.026-1.209-1.104-1.167-1.679.104-1.46 3.729-2.448 6.93-2.474l.091-1.283c.032-.442.592-.823 1.08-.807.576.02.99.432.959.875l-.099 1.37c3.837.394 7.92 2.302 7.52 7.875-.406 5.661-4.666 6.85-8.665 8.092l-.923 12.87c5.505.05 6.73-3.412 7.794-3.377.665.022 1.263.973 1.212 1.68-.114 1.593-3.619 4.624-9.206 4.483l-.114 1.593c-.032.442-.503.825-1.08.806-.487-.016-.99-.432-.958-.874l.123-1.724zm9.588-23.956c.264-3.134-2.105-4.329-4.764-4.596l-.826 9.825c2.844-.916 5.312-1.925 5.59-5.229zM69.573 47.17l1.005-11.887c-2.713 1.035-4.975 2.429-5.296 6.217-.272 3.222 1.273 5.13 4.291 5.67z"/>
        <circle cx="19.5" cy="79.5" r="7.5" fill="#FFF" stroke-width="3"/>
        <circle cx="6" cy="97" r="6" fill="#FFF" stroke-width="3"/>
    </g>
</svg>
