<?xml version="1.0" encoding="UTF-8"?>
<svg width="175px" height="81px" viewBox="0 0 175 81" version="1.1" xmlns="http://www.w3.org/2000/svg" xmlns:xlink="http://www.w3.org/1999/xlink">
    <!-- Generator: Sketch 60 (88103) - https://sketch.com -->
    <title>Group 2@2x</title>
    <desc>Created with Sketch.</desc>
    <g id="v3" stroke="none" stroke-width="1" fill="none" fill-rule="evenodd">
        <g id="About" transform="translate(-328.000000, -4616.000000)" fill="#FFFFFF" fill-rule="nonzero" stroke="#000000" stroke-width="3">
            <g id="Group-2" transform="translate(330.000000, 4618.000000)">
                <path d="M34.3246522,77 C115.09544,77 155.480834,77 155.480834,77 C167.748512,76.1266952 171,68.2318136 171,54.0227248 C171,44.2536822 163.60145,36.6297024 155.480834,33.0428223 C147.966137,29.7235772 136.045502,28.0426584 128.413497,28.0426584 C128.413497,28.0426584 125.503953,0 95.7929405,0 C75.985599,0 65.1358929,11.0142741 63.2438223,33.0428223 C45.9989067,29.036312 32.7790255,30.241408 23.5841787,36.6581106 C14.3893318,43.0748131 11.1035176,52.1379235 13.7267361,63.8474417 C3.0848587,63.9434197 -1.36930115,68.3276058 0.364256567,77 C0.364256567,77 11.6843884,77 34.3246522,77 Z" id="Path-2"></path>
            </g>
        </g>
    </g>
</svg>