<?xml version="1.0" encoding="UTF-8"?>
<svg width="444px" height="518px" viewBox="0 0 444 518" version="1.1" xmlns="http://www.w3.org/2000/svg" xmlns:xlink="http://www.w3.org/1999/xlink">
    <!-- Generator: Sketch 60 (88103) - https://sketch.com -->
    <title>Group 24</title>
    <desc>Created with Sketch.</desc>
    <defs>
        <filter x="-3.6%" y="-3.1%" width="107.2%" height="106.1%" filterUnits="objectBoundingBox" id="filter-1">
            <feOffset dx="7" dy="7" in="SourceAlpha" result="shadowOffsetOuter1"></feOffset>
            <feColorMatrix values="0 0 0 0 0   0 0 0 0 0   0 0 0 0 0  0 0 0 0.07 0" type="matrix" in="shadowOffsetOuter1" result="shadowMatrixOuter1"></feColorMatrix>
            <feMerge>
                <feMergeNode in="shadowMatrixOuter1"></feMergeNode>
                <feMergeNode in="SourceGraphic"></feMergeNode>
            </feMerge>
        </filter>
        <circle id="path-2" cx="216.5" cy="216.5" r="216.5"></circle>
        <ellipse id="path-4" cx="214.5" cy="215.5" rx="214.5" ry="215.5"></ellipse>
    </defs>
    <g id="v3" stroke="none" stroke-width="1" fill="none" fill-rule="evenodd">
        <g id="About" transform="translate(-193.000000, -8887.000000)">
            <g id="Group-49" transform="translate(195.000000, 8374.000000)">
                <g id="Group-48" transform="translate(0.000000, 515.000000)">
                    <g id="Group-24" filter="url(#filter-1)">
                        <g id="Group-7">
                            <mask id="mask-3" fill="white">
                                <use xlink:href="#path-2"></use>
                            </mask>
                            <use id="Mask" stroke="#000000" stroke-width="3" fill="#F1A4AB" fill-rule="nonzero" xlink:href="#path-2"></use>
                            <g id="Combined-Shape" mask="url(#mask-3)">
                                <g transform="translate(2.000000, 1.000000)">
                                    <mask id="mask-5" fill="white">
                                        <use xlink:href="#path-4"></use>
                                    </mask>
                                    <use id="Mask" stroke="none" fill="#F1A4AB" fill-rule="nonzero" xlink:href="#path-4"></use>
                                    <g id="Group-45" stroke="none" stroke-width="1" fill="none" fill-rule="evenodd" mask="url(#mask-5)">
                                        <g transform="translate(161.000000, 118.000000)">
                                            <path d="M42.7361948,7.2 C42.0487522,10.0335528 42.0487522,11.9409534 42.7361948,12.9222019 C43.7673588,14.3940747 46.2,16.1597289 46.2,21.470247 L46.2,87.5386809 L46.2,87.5386809 C45.1886889,89.4768117 43.2371797,90.4458771 40.3454725,90.4458771 C39.2277423,90.7039228 38.3584941,91.5536979 37.737728,92.9952026 C36.8552924,95.0443399 34.4224696,96.4470954 24.0001713,96.5882591 L24,96.6 C23.6940959,96.6 23.3942814,96.5990546 23.1004297,96.5971759 C22.8063916,96.5990525 22.5062474,96.6 22.2,96.6 L22.2008392,96.5882728 C11.7776877,96.4471861 9.34473611,95.0444061 8.46227202,92.9952026 C7.84150589,91.5536979 6.97225773,90.7039228 5.85452753,90.4458771 C2.96282029,90.4458771 1.01131111,89.4768117 0,87.5386809 L0,87.5386809 L0,21.470247 C0,16.1597289 2.43264124,14.3940747 3.46380516,12.9222019 C4.15124778,11.9409534 4.15124778,10.0335528 3.46380516,7.2 L3.46380516,7.2 L42.7361948,7.2 Z" id="Combined-Shape" stroke="#000000" stroke-width="2" fill="#D9D9D9" fill-rule="evenodd"></path>
                                            <path d="M6.62981755,90.7853464 C17.7281924,93.0528225 28.9667441,92.9396661 40.3454725,90.4458771" id="Path-10" stroke="#000000" stroke-width="1" fill="none"></path>
                                            <path d="M46.2,21.6 L46.2,82.1943106 C41.972353,84.559736 34.3620757,85.7613263 23.3691681,85.7990814 C23.2785456,85.8 23.1888917,85.7999237 23.0994596,85.7997712 L22.8315789,85.8 L22.8315789,85.8 C11.8379243,85.7613263 4.227647,84.559736 0,82.1943106 L0,82.1943106 L0,21.6 C6.9567407,23.687827 14.9567407,24.7317406 24,24.7317406 L22.2,24.7317406 C31.2432593,24.7317406 39.2432593,23.687827 46.2,21.6 Z" id="Combined-Shape" stroke="#000000" stroke-width="1" fill="#F1A4AB" fill-rule="evenodd"></path>
                                            <path d="M46.2,21.6 L46.2,26.4091934 C40.987213,30.8455328 33.287213,36.1186272 23.1,42.2284766 C11.680405,35.4785995 3.98040503,30.2055051 0,26.4091934 L0,21.6 C7.89024395,23.687827 15.5902439,24.7317406 23.1,24.7317406 C28.106504,24.7317406 35.806504,23.687827 46.2,21.6 Z" id="Path-12" stroke="#000000" stroke-width="1" fill="#FAD843" fill-rule="evenodd"></path>
                                            <path d="M40.2,45.7476848 C40.5313617,45.7476848 40.7999834,46.0163065 40.8,46.3476682 L40.8,46.3476682 L40.8,64.3248429 C34.1137755,65.4416143 27.9137755,66 22.2,66 L22.8,65.9966848 L22.8,66 L22.5,65.9976848 L22.2,66 L22.2,65.9966848 L21.843202,65.9948298 C16.3958349,65.9362337 10.5147676,65.3795714 4.2,64.3248429 L4.2,46.3476682 C4.2000166,46.0163065 4.46863832,45.7476848 4.8,45.7476848 C4.84177573,45.7476848 4.88343723,45.7520479 4.92430652,45.7607031 C9.30170273,46.6877411 15.1598697,47.1574986 22.4988074,47.1699755 C29.8403457,47.1574813 35.6983778,46.6877241 40.0756935,45.7607031 C40.1165628,45.7520479 40.1582243,45.7476848 40.2,45.7476848 Z" id="Combined-Shape" stroke="#000000" stroke-width="0.6" fill="#FFFFFF" fill-rule="evenodd"></path>
                                            <path d="M8.14782609,66 C8.50408432,66 8.88432148,65.9136364 9.28853755,65.7409091 C10.4395257,65.2045455 11.3541502,64.375 12.0324111,63.2522727 C12.7106719,62.1295455 13.1868248,60.8454545 13.4608696,59.4 C13.6869565,58.2090909 13.8,56.9954545 13.8,55.7590909 C13.8,55.4772727 13.7931489,55.1954545 13.7794466,54.9136364 C13.7246377,53.3863636 13.5362319,51.9409091 13.2142292,50.5772727 L13.2142292,50.5772727 L13.1731225,50.4 C12.9059289,49.3636364 12.53083,48.3681818 12.0478261,47.4136364 C11.5648221,46.4590909 10.9841897,45.6545455 10.3059289,45 C9.62766798,44.3454545 8.85349144,43.9545455 7.98339921,43.8272727 C7.83267457,43.8090909 7.68880105,43.8 7.55177866,43.8 C6.92832675,43.8 6.51383399,44.0090909 6.3083004,44.4272727 C6.1027668,44.8545455 6,45.4818182 6,46.3090909 C6,46.4454545 6.00342556,46.5909091 6.01027668,46.7454545 C6.0513834,49.7090909 6.07193676,52.6772727 6.07193676,55.65 C6.07193676,56.9681818 6.0685112,58.2863636 6.06166008,59.6045455 C6.05480896,59.9954545 6.04795784,60.4045455 6.04110672,60.8318182 C6.02055336,61.3863636 6.01027668,61.9181818 6.01027668,62.4272727 C6.01027668,62.6818182 6.01370224,62.9318182 6.02055336,63.1772727 C6.08906456,64.4409091 6.43847167,65.2772727 7.0687747,65.6863636 C7.39762846,65.8954545 7.75731225,66 8.14782609,66 Z M8.95081967,63 C8.8852459,63 8.82622951,62.9814548 8.77377049,62.9443645 C8.59016393,62.7960032 8.47868852,62.5085532 8.43934426,62.0820144 C8.41311475,61.7945643 8.4,61.4978417 8.4,61.1918465 C8.4,61.0434852 8.40327869,60.8904876 8.40983607,60.7328537 C8.44918033,58.7114309 8.46885246,56.6853717 8.46885246,54.6546763 C8.46885246,53.1803357 8.45901639,51.7059952 8.43934426,50.2316547 L8.43934426,50.2316547 L8.43934426,49.7726619 C8.43278689,49.5315747 8.42622951,49.2673062 8.41967213,48.9798561 C8.40655738,48.6367706 8.4,48.2983213 8.4,47.9645084 C8.4,47.5657874 8.40983607,47.1809752 8.4295082,46.8100719 C8.46885246,46.1239009 8.61639344,45.7251799 8.87213115,45.6139089 C8.89836066,45.6046363 8.92786885,45.6 8.96065574,45.6 C9.22295082,45.6 9.6295082,46.0172662 10.1803279,46.8517986 C11.0196721,48.4281375 11.5672131,50.1899281 11.8229508,52.1371703 C11.9409836,53.0180655 12,53.94996 12,54.9328537 C12,55.2573941 11.9934426,55.5865707 11.9803279,55.9203837 C11.9278689,57.2649081 11.7213115,58.5329337 11.3606557,59.7244604 C11,60.9159872 10.4459016,61.8733813 9.69836066,62.5966427 C9.39016393,62.8655476 9.14098361,63 8.95081967,63 Z M19.1434243,66 C19.4699752,66 19.7722084,65.8939627 20.0501241,65.681888 C20.5295285,65.3038419 20.942928,64.782876 21.2903226,64.1189901 C21.4362283,63.8515917 21.5300248,63.6671789 21.5717122,63.5657519 C21.5995037,63.5012075 21.6168734,63.4666301 21.6238213,63.4620198 C21.6307692,63.4574094 21.6342432,63.4873765 21.6342432,63.551921 C21.6342432,63.6256861 21.644665,63.7455543 21.6655087,63.9115258 C21.7349876,64.3080132 21.8635236,64.6929748 22.0511166,65.0664105 C22.2387097,65.4398463 22.4645161,65.6864984 22.728536,65.8063666 C22.7980149,65.8340285 22.8674938,65.8478595 22.9369727,65.8478595 C23.1384615,65.8478595 23.3434243,65.7233809 23.551861,65.4744237 C23.7533499,65.1055982 23.8784119,64.5431394 23.9270471,63.7870472 C23.9617866,63.2153677 23.9791563,62.6805708 23.9791563,62.1826564 L23.9791563,62.1826564 L23.9687345,61.712404 L23.9687345,61.2836443 C23.9756824,61.0162459 23.9791563,60.7442371 23.9791563,60.467618 C23.9861042,59.7760703 23.9895782,59.0845225 23.9895782,58.3929748 L23.9895782,58.3929748 L23.9895782,57.3556531 C23.9895782,57.2173436 23.9930521,57.0605928 24,56.8854007 L24,56.8854007 L24,56.6226125 C24,56.253787 23.9895782,55.8757409 23.9687345,55.4884742 C23.9478908,54.9997805 23.8645161,54.5664105 23.7186104,54.1883644 C23.5727047,53.8103183 23.3295285,53.5613611 22.9890819,53.4414929 C22.8709677,53.413831 22.7598015,53.4 22.6555831,53.4 C22.3776675,53.4 22.1657568,53.5106476 22.0198511,53.7319429 C21.8253102,54.0454446 21.7037221,54.4557629 21.6550868,54.9628979 C21.6064516,55.4700329 21.582134,55.9679473 21.582134,56.4566411 C21.582134,56.7609221 21.5751861,57.0190999 21.5612903,57.2311745 C21.4640199,58.8263447 21.2069479,60.3708013 20.7900744,61.8645445 C20.7136476,62.1227223 20.5937965,62.4270033 20.4305211,62.7773875 C20.2672457,63.1277717 20.0744417,63.4274424 19.8521092,63.6763996 C19.671464,63.8976948 19.480397,64.0083425 19.2789082,64.0083425 C19.2372208,64.0083425 19.1990074,64.0037322 19.164268,63.9945115 C18.7057072,63.8469813 18.337469,63.3628979 18.0595533,62.5422613 C17.8650124,61.9705818 17.7191067,60.7580681 17.6218362,58.9047201 C17.635732,58.0840834 17.6426799,57.4109769 17.6426799,56.8854007 L17.6426799,56.8854007 L17.6426799,55.4469813 C17.6426799,54.1192097 17.2952854,53.4553238 16.6004963,53.4553238 C16.48933,53.4737651 16.3920596,53.4968167 16.3086849,53.5244786 L16.3086849,53.5244786 L16.2878412,53.5244786 C16.0377171,53.5244786 15.8362283,53.7273326 15.6833747,54.1330406 C15.6277916,54.3358946 15.6,54.6447859 15.6,55.0597146 C15.6,55.2072448 15.6034739,55.3686059 15.6104218,55.543798 C15.6312655,56.2076839 15.6729529,56.8830955 15.7354839,57.5700329 C15.7980149,58.2569704 15.8501241,58.7618002 15.8918114,59.0845225 C15.9682382,59.8037322 16.0933002,60.6358946 16.2669975,61.5810099 C16.4406948,62.5261251 16.6977667,63.3974753 17.0382134,64.1950604 C17.37866,64.9926454 17.826799,65.5389682 18.3826303,65.8340285 C18.6466501,65.9446762 18.9002481,66 19.1434243,66 Z M28.1147727,67.8 C28.2238636,67.8 28.3329545,67.7864124 28.4420455,67.7592372 C28.7625,67.6777116 29.0045455,67.4965435 29.1681818,67.215733 C29.3386364,66.8443385 29.4306818,66.2691299 29.4443182,65.4901073 C29.4511364,65.2274136 29.4545455,64.9737783 29.4545455,64.7292014 C29.4545455,64.2400477 29.4443182,63.7735399 29.4238636,63.3296782 C29.4102273,63.0941597 29.4034091,62.8903456 29.4034091,62.718236 C29.3829545,61.8214541 29.3522727,60.9110846 29.3113636,59.9871275 C29.25,58.827652 29.2193182,57.6908224 29.2193182,56.5766389 C29.2193182,56.1418355 29.2227273,55.7115614 29.2295455,55.2858164 C29.5090909,55.2224076 29.7920455,55.1907032 30.0784091,55.1907032 C30.1670455,55.1907032 30.2590909,55.1952324 30.3545455,55.2042908 L30.3545455,55.2042908 L30.6102273,55.2042908 C30.8079545,55.2042908 30.9767045,55.1114422 31.1164773,54.9257449 C31.25625,54.7400477 31.3261364,54.5158522 31.3261364,54.2531585 C31.3261364,53.9814064 31.25625,53.7526818 31.1164773,53.5669845 C30.9767045,53.3812872 30.8079545,53.2884386 30.6102273,53.2884386 L30.6102273,53.2884386 L29.5568182,53.2884386 C29.475,53.2793802 29.4034091,53.263528 29.3420455,53.240882 C29.2806818,53.218236 29.2363636,53.1570918 29.2090909,53.0574493 C29.1613636,52.8672229 29.1375,52.577354 29.1375,52.1878427 C29.1375,52.0338498 29.1409091,51.8662694 29.1477273,51.6851013 C29.175,51.0419547 29.2227273,50.3965435 29.2909091,49.7488677 C29.3590909,49.1011919 29.4306818,48.6278903 29.5056818,48.3289631 C29.6488636,47.6858164 29.8465909,47.2510131 30.0988636,47.024553 C30.2897727,46.8524434 30.5420455,46.7663886 30.8556818,46.7663886 C30.9647727,46.7663886 31.0806818,46.775447 31.2034091,46.7935638 C31.3261364,46.820739 31.4625,46.8343266 31.6125,46.8343266 L31.6125,46.8343266 L31.725,46.8343266 C31.9159091,46.8252682 32.0795455,46.7618594 32.2159091,46.6441001 C32.3386364,46.5353993 32.4,46.3587604 32.4,46.1141836 L32.4,46.1141836 L32.4,46.0326579 C32.3318182,45.5253874 32.0761364,45.2128725 31.6329545,45.0951132 C31.3943182,45.0317044 31.1420455,45 30.8761364,45 C30.6579545,45 30.4295455,45.022646 30.1909091,45.067938 C29.6659091,45.1585221 29.2534091,45.2762813 28.9534091,45.4212157 C28.3943182,45.7020262 27.9511364,46.225149 27.6238636,46.990584 C27.2965909,47.7560191 27.0613636,48.5871275 26.9181818,49.4839094 C26.775,50.3806913 26.7034091,51.1778308 26.7034091,51.8753278 L26.7034091,51.8753278 L26.7034091,52.1878427 C26.7034091,52.4777116 26.6761364,52.7087008 26.6215909,52.8808105 C26.5602273,53.0891538 26.3761364,53.2250298 26.0693182,53.2884386 C25.8238636,53.3246722 25.6090909,53.4197855 25.425,53.5737783 C25.275,53.7005959 25.2,53.9179976 25.2,54.2259833 C25.2,54.2803337 25.2034091,54.3392133 25.2102273,54.4026222 C25.2579545,54.7196663 25.3568182,54.9257449 25.5068182,55.0208582 C25.6568182,55.1159714 25.8238636,55.1725864 26.0079545,55.1907032 C26.0761364,55.1997616 26.1443182,55.2133492 26.2125,55.231466 L26.2125,55.231466 L26.2329545,55.231466 C26.2875,55.2495828 26.3403409,55.2676996 26.3914773,55.2858164 C26.4426136,55.3039333 26.4886364,55.3401669 26.5295455,55.3945173 L26.5295455,55.3945173 L26.5602273,55.4488677 C26.6147727,55.6481526 26.6539773,55.8814064 26.6778409,56.1486293 C26.7017045,56.4158522 26.7204545,56.6536353 26.7340909,56.8619785 C26.8227273,58.6011919 26.8670455,60.3449344 26.8670455,62.0932062 C26.8670455,62.5280095 26.8636364,62.9628129 26.8568182,63.3976162 C26.85,63.6059595 26.8431818,63.864124 26.8363636,64.1721097 C26.8159091,64.6431466 26.8056818,65.1277712 26.8056818,65.6259833 C26.8056818,66.1151371 26.8295455,66.4910608 26.8772727,66.7537545 C26.9931818,67.1885578 27.2045455,67.4874851 27.5113636,67.6505364 C27.7090909,67.7501788 27.9102273,67.8 28.1147727,67.8 Z M35.9147727,67.8 C36.0238636,67.8 36.1329545,67.7864124 36.2420455,67.7592372 C36.5625,67.6777116 36.8045455,67.4965435 36.9681818,67.215733 C37.1386364,66.8443385 37.2306818,66.2691299 37.2443182,65.4901073 C37.2511364,65.2274136 37.2545455,64.9737783 37.2545455,64.7292014 C37.2545455,64.2400477 37.2443182,63.7735399 37.2238636,63.3296782 C37.2102273,63.0941597 37.2034091,62.8903456 37.2034091,62.718236 C37.1829545,61.8214541 37.1522727,60.9110846 37.1113636,59.9871275 C37.05,58.827652 37.0193182,57.6908224 37.0193182,56.5766389 C37.0193182,56.1418355 37.0227273,55.7115614 37.0295455,55.2858164 C37.3090909,55.2224076 37.5920455,55.1907032 37.8784091,55.1907032 C37.9670455,55.1907032 38.0590909,55.1952324 38.1545455,55.2042908 L38.1545455,55.2042908 L38.4102273,55.2042908 C38.6079545,55.2042908 38.7767045,55.1114422 38.9164773,54.9257449 C39.05625,54.7400477 39.1261364,54.5158522 39.1261364,54.2531585 C39.1261364,53.9814064 39.05625,53.7526818 38.9164773,53.5669845 C38.7767045,53.3812872 38.6079545,53.2884386 38.4102273,53.2884386 L38.4102273,53.2884386 L37.3568182,53.2884386 C37.275,53.2793802 37.2034091,53.263528 37.1420455,53.240882 C37.0806818,53.218236 37.0363636,53.1570918 37.0090909,53.0574493 C36.9613636,52.8672229 36.9375,52.577354 36.9375,52.1878427 C36.9375,52.0338498 36.9409091,51.8662694 36.9477273,51.6851013 C36.975,51.0419547 37.0227273,50.3965435 37.0909091,49.7488677 C37.1590909,49.1011919 37.2306818,48.6278903 37.3056818,48.3289631 C37.4488636,47.6858164 37.6465909,47.2510131 37.8988636,47.024553 C38.0897727,46.8524434 38.3420455,46.7663886 38.6556818,46.7663886 C38.7647727,46.7663886 38.8806818,46.775447 39.0034091,46.7935638 C39.1261364,46.820739 39.2625,46.8343266 39.4125,46.8343266 L39.4125,46.8343266 L39.525,46.8343266 C39.7159091,46.8252682 39.8795455,46.7618594 40.0159091,46.6441001 C40.1386364,46.5353993 40.2,46.3587604 40.2,46.1141836 L40.2,46.1141836 L40.2,46.0326579 C40.1318182,45.5253874 39.8761364,45.2128725 39.4329545,45.0951132 C39.1943182,45.0317044 38.9420455,45 38.6761364,45 C38.4579545,45 38.2295455,45.022646 37.9909091,45.067938 C37.4659091,45.1585221 37.0534091,45.2762813 36.7534091,45.4212157 C36.1943182,45.7020262 35.7511364,46.225149 35.4238636,46.990584 C35.0965909,47.7560191 34.8613636,48.5871275 34.7181818,49.4839094 C34.575,50.3806913 34.5034091,51.1778308 34.5034091,51.8753278 L34.5034091,51.8753278 L34.5034091,52.1878427 C34.5034091,52.4777116 34.4761364,52.7087008 34.4215909,52.8808105 C34.3602273,53.0891538 34.1761364,53.2250298 33.8693182,53.2884386 C33.6238636,53.3246722 33.4090909,53.4197855 33.225,53.5737783 C33.075,53.7005959 33,53.9179976 33,54.2259833 C33,54.2803337 33.0034091,54.3392133 33.0102273,54.4026222 C33.0579545,54.7196663 33.1568182,54.9257449 33.3068182,55.0208582 C33.4568182,55.1159714 33.6238636,55.1725864 33.8079545,55.1907032 C33.8761364,55.1997616 33.9443182,55.2133492 34.0125,55.231466 L34.0125,55.231466 L34.0329545,55.231466 C34.0875,55.2495828 34.1403409,55.2676996 34.1914773,55.2858164 C34.2426136,55.3039333 34.2886364,55.3401669 34.3295455,55.3945173 L34.3295455,55.3945173 L34.3602273,55.4488677 C34.4147727,55.6481526 34.4539773,55.8814064 34.4778409,56.1486293 C34.5017045,56.4158522 34.5204545,56.6536353 34.5340909,56.8619785 C34.6227273,58.6011919 34.6670455,60.3449344 34.6670455,62.0932062 C34.6670455,62.5280095 34.6636364,62.9628129 34.6568182,63.3976162 C34.65,63.6059595 34.6431818,63.864124 34.6363636,64.1721097 C34.6159091,64.6431466 34.6056818,65.1277712 34.6056818,65.6259833 C34.6056818,66.1151371 34.6295455,66.4910608 34.6772727,66.7537545 C34.7931818,67.1885578 35.0045455,67.4874851 35.3113636,67.6505364 C35.5090909,67.7501788 35.7102273,67.8 35.9147727,67.8 Z" id="Duff" stroke="#000000" stroke-width="0.6" fill="#000000" fill-rule="nonzero"></path>
                                            <circle id="Oval" stroke="#000000" stroke-width="1" fill="#F1A4AB" fill-rule="evenodd" cx="23.1" cy="34.5" r="3.4"></circle>
                                            <ellipse id="Oval" stroke="#000000" stroke-width="2" fill="#D9D9D9" fill-rule="evenodd" cx="23.1" cy="7.2" rx="20.3" ry="6.2"></ellipse>
                                            <ellipse id="Oval" stroke="#000000" stroke-width="1.2" fill="#D9D9D9" fill-rule="evenodd" cx="23.1" cy="6.1" rx="18.3" ry="4.5"></ellipse>
                                            <rect id="Rectangle" stroke="none" fill="#B8B3B3" fill-rule="evenodd" x="15.6" y="6" width="7.8" height="1.2" rx="0.6"></rect>
                                            <rect id="Rectangle" stroke="#000000" stroke-width="0.6" fill="#D9D9D9" fill-rule="evenodd" x="21.9" y="5.1" width="7.2" height="3" rx="1.2"></rect>
                                            <rect id="Rectangle" stroke="none" fill="#B8B3B3" fill-rule="evenodd" x="23.4" y="6" width="2.4" height="1" rx="0.5"></rect>
                                            <rect id="Rectangle" stroke="none" fill="#B8B3B3" fill-rule="evenodd" x="23.4" y="6" width="2.4" height="1" rx="0.5"></rect>
                                            <rect id="Rectangle" stroke="none" fill="#B8B3B3" fill-rule="evenodd" x="27" y="6" width="1.2" height="1" rx="0.5"></rect>
                                        </g>
                                    </g>
                                    <path d="M175.5,155 L175.5,291 C175.5,309.501539 190.498461,324.5 209,324.5 C227.501539,324.5 242.5,309.501539 242.5,291 L242.5,275.5 L244,275.5 C281.831505,275.5 312.5,244.831505 312.5,207 L312.5,155 C312.5,117.168495 281.831505,86.5 244,86.5 C206.168495,86.5 175.5,117.168495 175.5,155 Z" id="Combined-Shape" stroke="#000000" stroke-width="3" fill="#FAD843" fill-rule="nonzero" mask="url(#mask-5)"></path>
                                    <g id="Group-20" stroke="none" stroke-width="1" fill="none" fill-rule="evenodd" mask="url(#mask-5)">
                                        <g transform="translate(174.000000, 58.000000)">
                                            <path d="M104.584151,97.3359141 L140.965218,98 C172.957381,58.5671922 177.186645,39.9663397 153.653011,42.1974425 C130.119377,44.4285454 103.228022,62.8080359 72.9789442,97.3359141 L104.584151,97.3359141 Z" id="Path-36" stroke="#000000" stroke-width="3" fill="#4A90E2" fill-rule="evenodd"></path>
                                            <path d="M69.909018,23 C68.8844995,22.8259528 67.8016995,22.6547991 66.6656237,22.4895914 C60.263625,21.5586146 53.491343,21 46.6569866,21 C35.253427,21 30.8693119,21.0602709 26.5769617,21.3723671 C21.694873,21.727343 19.1569866,22.4697413 19.1569866,23 C19.1569866,23.5302587 21.694873,24.272657 26.5769617,24.6276329 C30.8693119,24.9397291 35.253427,25 46.6569866,25 C53.491343,25 60.263625,24.4413854 66.6656237,23.5104086 C67.8016995,23.3452009 68.8844995,23.1740472 69.909018,23 Z" id="Oval" stroke="#000000" stroke-width="2" fill="#F1A4AB" fill-rule="evenodd" transform="translate(46.656987, 23.000000) rotate(-15.000000) translate(-46.656987, -23.000000) "></path>
                                            <path d="M112.909018,11 C111.8845,10.8259528 110.801699,10.6547991 109.665624,10.4895914 C103.263625,9.55861462 96.491343,9 89.6569866,9 C78.253427,9 73.8693119,9.06027094 69.5769617,9.37236707 C64.694873,9.72734301 62.1569866,10.4697413 62.1569866,11 C62.1569866,11.5302587 64.694873,12.272657 69.5769617,12.6276329 C73.8693119,12.9397291 78.253427,13 89.6569866,13 C96.491343,13 103.263625,12.4413854 109.665624,11.5104086 C110.801699,11.3452009 111.8845,11.1740472 112.909018,11 Z" id="Oval" stroke="#000000" stroke-width="2" fill="#F1A4AB" fill-rule="evenodd" transform="translate(89.656987, 11.000000) rotate(-195.000000) translate(-89.656987, -11.000000) "></path>
                                            <path d="M65.1569866,17.9451931 L74.1569866,17.9945058 L74.1569866,17.5 C74.1569866,15.0147186 72.1422679,13 69.6569866,13 C67.1717052,13 65.1569866,15.0147186 65.1569866,17.5 L65.1569866,17.9451931 Z" id="Rectangle" stroke="#000000" stroke-width="2" fill="#F1A4AB" fill-rule="nonzero"></path>
                                            <path d="M70.1569866,18 C108.816919,18 140.156987,49.3400675 140.156987,88 L140.156987,98 L140.156987,98 L0.156986553,97.3111874 L0.156986553,88 C0.156986553,49.3400675 31.4970541,18 70.1569866,18 Z" id="Rectangle" stroke="#000000" stroke-width="3" fill="#3970AF" fill-rule="nonzero"></path>
                                            <path d="M70.1569866,18 C48.1884122,38.0134818 40.1884122,64.3660785 46.1569866,97.0577901 L0.156986553,97.0577901 C-0.54135754,86.2832931 1.09020082,74.9040882 5.05166163,62.9201752 C13.4994527,37.3645539 44.2926256,16.3616458 70.1569866,18 Z" id="Path-37" stroke="#000000" stroke-width="3" fill="#64C1BE" fill-rule="evenodd"></path>
                                            <path d="M140.313973,18.0897911 C118.345399,38.1032729 110.345399,64.4558696 116.313973,97.1475812 L70.3139731,97.1475812 C69.615629,86.3730842 71.2471874,74.9938793 75.2086482,63.0099663 C83.6564392,37.454345 114.449612,16.4514369 140.313973,18.0897911 Z" id="Path-37" stroke="#000000" stroke-width="3" fill="#F1A4AB" fill-rule="evenodd" transform="translate(105.235480, 57.573791) scale(-1, 1) translate(-105.235480, -57.573791) "></path>
                                            <path d="M8.65698655,88.3264991 L42.6569866,88.4926518 L42.6569866,87.5 C42.6569866,78.1111593 35.0458273,70.5 25.6569866,70.5 C16.2681458,70.5 8.65698655,78.1111593 8.65698655,87.5 L8.65698655,88.3264991 Z" id="Rectangle" stroke="#000000" stroke-width="3" fill="#FAD843" fill-rule="nonzero"></path>
                                            <path d="M8.65698655,88.5 L8.65698655,97.5 L40.1569866,97.5 C42.6422679,97.5 44.6569866,95.4852814 44.6569866,93 C44.6569866,90.5147186 42.6422679,88.5 40.1569866,88.5 L8.65698655,88.5 Z" id="Rectangle" stroke="#000000" stroke-width="3" fill="#FFFFFF" fill-rule="evenodd"></path>
                                            <g id="Group-18" stroke="none" stroke-width="1" fill="none" fill-rule="evenodd" transform="translate(15.156987, 92.000000)">
                                                <circle id="Oval" fill="#E3E3E3" cx="1" cy="1" r="1"></circle>
                                                <circle id="Oval" fill="#E3E3E3" cx="6" cy="1" r="1"></circle>
                                                <circle id="Oval" fill="#E3E3E3" cx="11" cy="1" r="1"></circle>
                                                <circle id="Oval" fill="#E3E3E3" cx="16" cy="1" r="1"></circle>
                                                <circle id="Oval" fill="#E3E3E3" cx="21" cy="1" r="1"></circle>
                                            </g>
                                        </g>
                                    </g>
                                    <path d="M291.235822,185.090698 C291.23226,176.759673 284.013138,170.003337 275.111461,170 C266.209786,169.996665 258.996439,176.747593 259,185.078617 C259,185.078617 291.235822,185.090698 291.235822,185.090698 Z" id="Oval-Copy-3" stroke="#000000" stroke-width="3" fill="#FAD843" fill-rule="evenodd" mask="url(#mask-5)" transform="translate(275.117911, 177.545349) scale(-1, 1) rotate(-90.000000) translate(-275.117911, -177.545349) "></path>
                                    <g id="Group-45" stroke="none" stroke-width="1" fill="none" fill-rule="evenodd" mask="url(#mask-5)">
                                        <g transform="translate(252.000000, 124.000000)">
                                            <path d="M42.7361948,7.2 C42.0487522,10.0335528 42.0487522,11.9409534 42.7361948,12.9222019 C43.7673588,14.3940747 46.2,16.1597289 46.2,21.470247 L46.2,87.5386809 L46.2,87.5386809 C45.1886889,89.4768117 43.2371797,90.4458771 40.3454725,90.4458771 C39.2277423,90.7039228 38.3584941,91.5536979 37.737728,92.9952026 C36.8552924,95.0443399 34.4224696,96.4470954 24.0001713,96.5882591 L24,96.6 C23.6940959,96.6 23.3942814,96.5990546 23.1004297,96.5971759 C22.8063916,96.5990525 22.5062474,96.6 22.2,96.6 L22.2008392,96.5882728 C11.7776877,96.4471861 9.34473611,95.0444061 8.46227202,92.9952026 C7.84150589,91.5536979 6.97225773,90.7039228 5.85452753,90.4458771 C2.96282029,90.4458771 1.01131111,89.4768117 0,87.5386809 L0,87.5386809 L0,21.470247 C0,16.1597289 2.43264124,14.3940747 3.46380516,12.9222019 C4.15124778,11.9409534 4.15124778,10.0335528 3.46380516,7.2 L3.46380516,7.2 L42.7361948,7.2 Z" id="Combined-Shape" stroke="#000000" stroke-width="2" fill="#D9D9D9" fill-rule="evenodd"></path>
                                            <path d="M6.62981755,90.7853464 C17.7281924,93.0528225 28.9667441,92.9396661 40.3454725,90.4458771" id="Path-10" stroke="#000000" stroke-width="1" fill="none"></path>
                                            <path d="M46.2,21.6 L46.2,82.1943106 C41.972353,84.559736 34.3620757,85.7613263 23.3691681,85.7990814 C23.2785456,85.8 23.1888917,85.7999237 23.0994596,85.7997712 L22.8315789,85.8 L22.8315789,85.8 C11.8379243,85.7613263 4.227647,84.559736 0,82.1943106 L0,82.1943106 L0,21.6 C6.9567407,23.687827 14.9567407,24.7317406 24,24.7317406 L22.2,24.7317406 C31.2432593,24.7317406 39.2432593,23.687827 46.2,21.6 Z" id="Combined-Shape" stroke="#000000" stroke-width="1" fill="#F1A4AB" fill-rule="evenodd"></path>
                                            <path d="M46.2,21.6 L46.2,26.4091934 C40.987213,30.8455328 33.287213,36.1186272 23.1,42.2284766 C11.680405,35.4785995 3.98040503,30.2055051 0,26.4091934 L0,21.6 C7.89024395,23.687827 15.5902439,24.7317406 23.1,24.7317406 C28.106504,24.7317406 35.806504,23.687827 46.2,21.6 Z" id="Path-12" stroke="#000000" stroke-width="1" fill="#FAD843" fill-rule="evenodd"></path>
                                            <path d="M40.2,45.7476848 C40.5313617,45.7476848 40.7999834,46.0163065 40.8,46.3476682 L40.8,46.3476682 L40.8,64.3248429 C34.1137755,65.4416143 27.9137755,66 22.2,66 L22.8,65.9966848 L22.8,66 L22.5,65.9976848 L22.2,66 L22.2,65.9966848 L21.843202,65.9948298 C16.3958349,65.9362337 10.5147676,65.3795714 4.2,64.3248429 L4.2,46.3476682 C4.2000166,46.0163065 4.46863832,45.7476848 4.8,45.7476848 C4.84177573,45.7476848 4.88343723,45.7520479 4.92430652,45.7607031 C9.30170273,46.6877411 15.1598697,47.1574986 22.4988074,47.1699755 C29.8403457,47.1574813 35.6983778,46.6877241 40.0756935,45.7607031 C40.1165628,45.7520479 40.1582243,45.7476848 40.2,45.7476848 Z" id="Combined-Shape" stroke="#000000" stroke-width="0.6" fill="#FFFFFF" fill-rule="evenodd"></path>
                                            <path d="M8.14782609,66 C8.50408432,66 8.88432148,65.9136364 9.28853755,65.7409091 C10.4395257,65.2045455 11.3541502,64.375 12.0324111,63.2522727 C12.7106719,62.1295455 13.1868248,60.8454545 13.4608696,59.4 C13.6869565,58.2090909 13.8,56.9954545 13.8,55.7590909 C13.8,55.4772727 13.7931489,55.1954545 13.7794466,54.9136364 C13.7246377,53.3863636 13.5362319,51.9409091 13.2142292,50.5772727 L13.2142292,50.5772727 L13.1731225,50.4 C12.9059289,49.3636364 12.53083,48.3681818 12.0478261,47.4136364 C11.5648221,46.4590909 10.9841897,45.6545455 10.3059289,45 C9.62766798,44.3454545 8.85349144,43.9545455 7.98339921,43.8272727 C7.83267457,43.8090909 7.68880105,43.8 7.55177866,43.8 C6.92832675,43.8 6.51383399,44.0090909 6.3083004,44.4272727 C6.1027668,44.8545455 6,45.4818182 6,46.3090909 C6,46.4454545 6.00342556,46.5909091 6.01027668,46.7454545 C6.0513834,49.7090909 6.07193676,52.6772727 6.07193676,55.65 C6.07193676,56.9681818 6.0685112,58.2863636 6.06166008,59.6045455 C6.05480896,59.9954545 6.04795784,60.4045455 6.04110672,60.8318182 C6.02055336,61.3863636 6.01027668,61.9181818 6.01027668,62.4272727 C6.01027668,62.6818182 6.01370224,62.9318182 6.02055336,63.1772727 C6.08906456,64.4409091 6.43847167,65.2772727 7.0687747,65.6863636 C7.39762846,65.8954545 7.75731225,66 8.14782609,66 Z M8.95081967,63 C8.8852459,63 8.82622951,62.9814548 8.77377049,62.9443645 C8.59016393,62.7960032 8.47868852,62.5085532 8.43934426,62.0820144 C8.41311475,61.7945643 8.4,61.4978417 8.4,61.1918465 C8.4,61.0434852 8.40327869,60.8904876 8.40983607,60.7328537 C8.44918033,58.7114309 8.46885246,56.6853717 8.46885246,54.6546763 C8.46885246,53.1803357 8.45901639,51.7059952 8.43934426,50.2316547 L8.43934426,50.2316547 L8.43934426,49.7726619 C8.43278689,49.5315747 8.42622951,49.2673062 8.41967213,48.9798561 C8.40655738,48.6367706 8.4,48.2983213 8.4,47.9645084 C8.4,47.5657874 8.40983607,47.1809752 8.4295082,46.8100719 C8.46885246,46.1239009 8.61639344,45.7251799 8.87213115,45.6139089 C8.89836066,45.6046363 8.92786885,45.6 8.96065574,45.6 C9.22295082,45.6 9.6295082,46.0172662 10.1803279,46.8517986 C11.0196721,48.4281375 11.5672131,50.1899281 11.8229508,52.1371703 C11.9409836,53.0180655 12,53.94996 12,54.9328537 C12,55.2573941 11.9934426,55.5865707 11.9803279,55.9203837 C11.9278689,57.2649081 11.7213115,58.5329337 11.3606557,59.7244604 C11,60.9159872 10.4459016,61.8733813 9.69836066,62.5966427 C9.39016393,62.8655476 9.14098361,63 8.95081967,63 Z M19.1434243,66 C19.4699752,66 19.7722084,65.8939627 20.0501241,65.681888 C20.5295285,65.3038419 20.942928,64.782876 21.2903226,64.1189901 C21.4362283,63.8515917 21.5300248,63.6671789 21.5717122,63.5657519 C21.5995037,63.5012075 21.6168734,63.4666301 21.6238213,63.4620198 C21.6307692,63.4574094 21.6342432,63.4873765 21.6342432,63.551921 C21.6342432,63.6256861 21.644665,63.7455543 21.6655087,63.9115258 C21.7349876,64.3080132 21.8635236,64.6929748 22.0511166,65.0664105 C22.2387097,65.4398463 22.4645161,65.6864984 22.728536,65.8063666 C22.7980149,65.8340285 22.8674938,65.8478595 22.9369727,65.8478595 C23.1384615,65.8478595 23.3434243,65.7233809 23.551861,65.4744237 C23.7533499,65.1055982 23.8784119,64.5431394 23.9270471,63.7870472 C23.9617866,63.2153677 23.9791563,62.6805708 23.9791563,62.1826564 L23.9791563,62.1826564 L23.9687345,61.712404 L23.9687345,61.2836443 C23.9756824,61.0162459 23.9791563,60.7442371 23.9791563,60.467618 C23.9861042,59.7760703 23.9895782,59.0845225 23.9895782,58.3929748 L23.9895782,58.3929748 L23.9895782,57.3556531 C23.9895782,57.2173436 23.9930521,57.0605928 24,56.8854007 L24,56.8854007 L24,56.6226125 C24,56.253787 23.9895782,55.8757409 23.9687345,55.4884742 C23.9478908,54.9997805 23.8645161,54.5664105 23.7186104,54.1883644 C23.5727047,53.8103183 23.3295285,53.5613611 22.9890819,53.4414929 C22.8709677,53.413831 22.7598015,53.4 22.6555831,53.4 C22.3776675,53.4 22.1657568,53.5106476 22.0198511,53.7319429 C21.8253102,54.0454446 21.7037221,54.4557629 21.6550868,54.9628979 C21.6064516,55.4700329 21.582134,55.9679473 21.582134,56.4566411 C21.582134,56.7609221 21.5751861,57.0190999 21.5612903,57.2311745 C21.4640199,58.8263447 21.2069479,60.3708013 20.7900744,61.8645445 C20.7136476,62.1227223 20.5937965,62.4270033 20.4305211,62.7773875 C20.2672457,63.1277717 20.0744417,63.4274424 19.8521092,63.6763996 C19.671464,63.8976948 19.480397,64.0083425 19.2789082,64.0083425 C19.2372208,64.0083425 19.1990074,64.0037322 19.164268,63.9945115 C18.7057072,63.8469813 18.337469,63.3628979 18.0595533,62.5422613 C17.8650124,61.9705818 17.7191067,60.7580681 17.6218362,58.9047201 C17.635732,58.0840834 17.6426799,57.4109769 17.6426799,56.8854007 L17.6426799,56.8854007 L17.6426799,55.4469813 C17.6426799,54.1192097 17.2952854,53.4553238 16.6004963,53.4553238 C16.48933,53.4737651 16.3920596,53.4968167 16.3086849,53.5244786 L16.3086849,53.5244786 L16.2878412,53.5244786 C16.0377171,53.5244786 15.8362283,53.7273326 15.6833747,54.1330406 C15.6277916,54.3358946 15.6,54.6447859 15.6,55.0597146 C15.6,55.2072448 15.6034739,55.3686059 15.6104218,55.543798 C15.6312655,56.2076839 15.6729529,56.8830955 15.7354839,57.5700329 C15.7980149,58.2569704 15.8501241,58.7618002 15.8918114,59.0845225 C15.9682382,59.8037322 16.0933002,60.6358946 16.2669975,61.5810099 C16.4406948,62.5261251 16.6977667,63.3974753 17.0382134,64.1950604 C17.37866,64.9926454 17.826799,65.5389682 18.3826303,65.8340285 C18.6466501,65.9446762 18.9002481,66 19.1434243,66 Z M28.1147727,67.8 C28.2238636,67.8 28.3329545,67.7864124 28.4420455,67.7592372 C28.7625,67.6777116 29.0045455,67.4965435 29.1681818,67.215733 C29.3386364,66.8443385 29.4306818,66.2691299 29.4443182,65.4901073 C29.4511364,65.2274136 29.4545455,64.9737783 29.4545455,64.7292014 C29.4545455,64.2400477 29.4443182,63.7735399 29.4238636,63.3296782 C29.4102273,63.0941597 29.4034091,62.8903456 29.4034091,62.718236 C29.3829545,61.8214541 29.3522727,60.9110846 29.3113636,59.9871275 C29.25,58.827652 29.2193182,57.6908224 29.2193182,56.5766389 C29.2193182,56.1418355 29.2227273,55.7115614 29.2295455,55.2858164 C29.5090909,55.2224076 29.7920455,55.1907032 30.0784091,55.1907032 C30.1670455,55.1907032 30.2590909,55.1952324 30.3545455,55.2042908 L30.3545455,55.2042908 L30.6102273,55.2042908 C30.8079545,55.2042908 30.9767045,55.1114422 31.1164773,54.9257449 C31.25625,54.7400477 31.3261364,54.5158522 31.3261364,54.2531585 C31.3261364,53.9814064 31.25625,53.7526818 31.1164773,53.5669845 C30.9767045,53.3812872 30.8079545,53.2884386 30.6102273,53.2884386 L30.6102273,53.2884386 L29.5568182,53.2884386 C29.475,53.2793802 29.4034091,53.263528 29.3420455,53.240882 C29.2806818,53.218236 29.2363636,53.1570918 29.2090909,53.0574493 C29.1613636,52.8672229 29.1375,52.577354 29.1375,52.1878427 C29.1375,52.0338498 29.1409091,51.8662694 29.1477273,51.6851013 C29.175,51.0419547 29.2227273,50.3965435 29.2909091,49.7488677 C29.3590909,49.1011919 29.4306818,48.6278903 29.5056818,48.3289631 C29.6488636,47.6858164 29.8465909,47.2510131 30.0988636,47.024553 C30.2897727,46.8524434 30.5420455,46.7663886 30.8556818,46.7663886 C30.9647727,46.7663886 31.0806818,46.775447 31.2034091,46.7935638 C31.3261364,46.820739 31.4625,46.8343266 31.6125,46.8343266 L31.6125,46.8343266 L31.725,46.8343266 C31.9159091,46.8252682 32.0795455,46.7618594 32.2159091,46.6441001 C32.3386364,46.5353993 32.4,46.3587604 32.4,46.1141836 L32.4,46.1141836 L32.4,46.0326579 C32.3318182,45.5253874 32.0761364,45.2128725 31.6329545,45.0951132 C31.3943182,45.0317044 31.1420455,45 30.8761364,45 C30.6579545,45 30.4295455,45.022646 30.1909091,45.067938 C29.6659091,45.1585221 29.2534091,45.2762813 28.9534091,45.4212157 C28.3943182,45.7020262 27.9511364,46.225149 27.6238636,46.990584 C27.2965909,47.7560191 27.0613636,48.5871275 26.9181818,49.4839094 C26.775,50.3806913 26.7034091,51.1778308 26.7034091,51.8753278 L26.7034091,51.8753278 L26.7034091,52.1878427 C26.7034091,52.4777116 26.6761364,52.7087008 26.6215909,52.8808105 C26.5602273,53.0891538 26.3761364,53.2250298 26.0693182,53.2884386 C25.8238636,53.3246722 25.6090909,53.4197855 25.425,53.5737783 C25.275,53.7005959 25.2,53.9179976 25.2,54.2259833 C25.2,54.2803337 25.2034091,54.3392133 25.2102273,54.4026222 C25.2579545,54.7196663 25.3568182,54.9257449 25.5068182,55.0208582 C25.6568182,55.1159714 25.8238636,55.1725864 26.0079545,55.1907032 C26.0761364,55.1997616 26.1443182,55.2133492 26.2125,55.231466 L26.2125,55.231466 L26.2329545,55.231466 C26.2875,55.2495828 26.3403409,55.2676996 26.3914773,55.2858164 C26.4426136,55.3039333 26.4886364,55.3401669 26.5295455,55.3945173 L26.5295455,55.3945173 L26.5602273,55.4488677 C26.6147727,55.6481526 26.6539773,55.8814064 26.6778409,56.1486293 C26.7017045,56.4158522 26.7204545,56.6536353 26.7340909,56.8619785 C26.8227273,58.6011919 26.8670455,60.3449344 26.8670455,62.0932062 C26.8670455,62.5280095 26.8636364,62.9628129 26.8568182,63.3976162 C26.85,63.6059595 26.8431818,63.864124 26.8363636,64.1721097 C26.8159091,64.6431466 26.8056818,65.1277712 26.8056818,65.6259833 C26.8056818,66.1151371 26.8295455,66.4910608 26.8772727,66.7537545 C26.9931818,67.1885578 27.2045455,67.4874851 27.5113636,67.6505364 C27.7090909,67.7501788 27.9102273,67.8 28.1147727,67.8 Z M35.9147727,67.8 C36.0238636,67.8 36.1329545,67.7864124 36.2420455,67.7592372 C36.5625,67.6777116 36.8045455,67.4965435 36.9681818,67.215733 C37.1386364,66.8443385 37.2306818,66.2691299 37.2443182,65.4901073 C37.2511364,65.2274136 37.2545455,64.9737783 37.2545455,64.7292014 C37.2545455,64.2400477 37.2443182,63.7735399 37.2238636,63.3296782 C37.2102273,63.0941597 37.2034091,62.8903456 37.2034091,62.718236 C37.1829545,61.8214541 37.1522727,60.9110846 37.1113636,59.9871275 C37.05,58.827652 37.0193182,57.6908224 37.0193182,56.5766389 C37.0193182,56.1418355 37.0227273,55.7115614 37.0295455,55.2858164 C37.3090909,55.2224076 37.5920455,55.1907032 37.8784091,55.1907032 C37.9670455,55.1907032 38.0590909,55.1952324 38.1545455,55.2042908 L38.1545455,55.2042908 L38.4102273,55.2042908 C38.6079545,55.2042908 38.7767045,55.1114422 38.9164773,54.9257449 C39.05625,54.7400477 39.1261364,54.5158522 39.1261364,54.2531585 C39.1261364,53.9814064 39.05625,53.7526818 38.9164773,53.5669845 C38.7767045,53.3812872 38.6079545,53.2884386 38.4102273,53.2884386 L38.4102273,53.2884386 L37.3568182,53.2884386 C37.275,53.2793802 37.2034091,53.263528 37.1420455,53.240882 C37.0806818,53.218236 37.0363636,53.1570918 37.0090909,53.0574493 C36.9613636,52.8672229 36.9375,52.577354 36.9375,52.1878427 C36.9375,52.0338498 36.9409091,51.8662694 36.9477273,51.6851013 C36.975,51.0419547 37.0227273,50.3965435 37.0909091,49.7488677 C37.1590909,49.1011919 37.2306818,48.6278903 37.3056818,48.3289631 C37.4488636,47.6858164 37.6465909,47.2510131 37.8988636,47.024553 C38.0897727,46.8524434 38.3420455,46.7663886 38.6556818,46.7663886 C38.7647727,46.7663886 38.8806818,46.775447 39.0034091,46.7935638 C39.1261364,46.820739 39.2625,46.8343266 39.4125,46.8343266 L39.4125,46.8343266 L39.525,46.8343266 C39.7159091,46.8252682 39.8795455,46.7618594 40.0159091,46.6441001 C40.1386364,46.5353993 40.2,46.3587604 40.2,46.1141836 L40.2,46.1141836 L40.2,46.0326579 C40.1318182,45.5253874 39.8761364,45.2128725 39.4329545,45.0951132 C39.1943182,45.0317044 38.9420455,45 38.6761364,45 C38.4579545,45 38.2295455,45.022646 37.9909091,45.067938 C37.4659091,45.1585221 37.0534091,45.2762813 36.7534091,45.4212157 C36.1943182,45.7020262 35.7511364,46.225149 35.4238636,46.990584 C35.0965909,47.7560191 34.8613636,48.5871275 34.7181818,49.4839094 C34.575,50.3806913 34.5034091,51.1778308 34.5034091,51.8753278 L34.5034091,51.8753278 L34.5034091,52.1878427 C34.5034091,52.4777116 34.4761364,52.7087008 34.4215909,52.8808105 C34.3602273,53.0891538 34.1761364,53.2250298 33.8693182,53.2884386 C33.6238636,53.3246722 33.4090909,53.4197855 33.225,53.5737783 C33.075,53.7005959 33,53.9179976 33,54.2259833 C33,54.2803337 33.0034091,54.3392133 33.0102273,54.4026222 C33.0579545,54.7196663 33.1568182,54.9257449 33.3068182,55.0208582 C33.4568182,55.1159714 33.6238636,55.1725864 33.8079545,55.1907032 C33.8761364,55.1997616 33.9443182,55.2133492 34.0125,55.231466 L34.0125,55.231466 L34.0329545,55.231466 C34.0875,55.2495828 34.1403409,55.2676996 34.1914773,55.2858164 C34.2426136,55.3039333 34.2886364,55.3401669 34.3295455,55.3945173 L34.3295455,55.3945173 L34.3602273,55.4488677 C34.4147727,55.6481526 34.4539773,55.8814064 34.4778409,56.1486293 C34.5017045,56.4158522 34.5204545,56.6536353 34.5340909,56.8619785 C34.6227273,58.6011919 34.6670455,60.3449344 34.6670455,62.0932062 C34.6670455,62.5280095 34.6636364,62.9628129 34.6568182,63.3976162 C34.65,63.6059595 34.6431818,63.864124 34.6363636,64.1721097 C34.6159091,64.6431466 34.6056818,65.1277712 34.6056818,65.6259833 C34.6056818,66.1151371 34.6295455,66.4910608 34.6772727,66.7537545 C34.7931818,67.1885578 35.0045455,67.4874851 35.3113636,67.6505364 C35.5090909,67.7501788 35.7102273,67.8 35.9147727,67.8 Z" id="Duff" stroke="#000000" stroke-width="0.6" fill="#000000" fill-rule="nonzero"></path>
                                            <circle id="Oval" stroke="#000000" stroke-width="1" fill="#F1A4AB" fill-rule="evenodd" cx="23.1" cy="34.5" r="3.4"></circle>
                                            <ellipse id="Oval" stroke="#000000" stroke-width="2" fill="#D9D9D9" fill-rule="evenodd" cx="23.1" cy="7.2" rx="20.3" ry="6.2"></ellipse>
                                            <ellipse id="Oval" stroke="#000000" stroke-width="1.2" fill="#D9D9D9" fill-rule="evenodd" cx="23.1" cy="6.1" rx="18.3" ry="4.5"></ellipse>
                                            <rect id="Rectangle" stroke="none" fill="#B8B3B3" fill-rule="evenodd" x="15.6" y="6" width="7.8" height="1.2" rx="0.6"></rect>
                                            <rect id="Rectangle" stroke="#000000" stroke-width="0.6" fill="#D9D9D9" fill-rule="evenodd" x="21.9" y="5.1" width="7.2" height="3" rx="1.2"></rect>
                                            <rect id="Rectangle" stroke="none" fill="#B8B3B3" fill-rule="evenodd" x="23.4" y="6" width="2.4" height="1" rx="0.5"></rect>
                                            <rect id="Rectangle" stroke="none" fill="#B8B3B3" fill-rule="evenodd" x="23.4" y="6" width="2.4" height="1" rx="0.5"></rect>
                                            <rect id="Rectangle" stroke="none" fill="#B8B3B3" fill-rule="evenodd" x="27" y="6" width="1.2" height="1" rx="0.5"></rect>
                                        </g>
                                    </g>
                                    <path d="M225,79 C225.403193,93.1620492 229.724482,105.490935 237.963867,115.986657 C246.203253,126.482378 257.293747,133.324293 271.235352,136.5124" id="Path-14" stroke="#000000" stroke-width="3" fill="none" fill-rule="nonzero" mask="url(#mask-5)" transform="translate(248.117676, 107.756200) scale(-1, 1) rotate(-270.000000) translate(-248.117676, -107.756200) "></path>
                                    <path d="M213.678546,78.324485 C209.675515,83.6052568 209.314039,95.3170703 209.314039,95.3170703" id="Path-14" stroke="#000000" stroke-width="3" fill="none" fill-rule="nonzero" mask="url(#mask-5)" transform="translate(211.496293, 86.820778) scale(-1, 1) rotate(-270.000000) translate(-211.496293, -86.820778) "></path>
                                    <path d="M365.235822,439.090698 C365.202643,356.231092 297.965672,289.033191 215.057842,289 C132.150015,288.966833 64.9668335,356.110941 65,438.970547 C65,438.970547 365.235822,439.090698 365.235822,439.090698 Z" id="Oval" stroke="#000000" stroke-width="3" fill="#64C1BE" fill-rule="evenodd" mask="url(#mask-5)"></path>
                                    <path d="M183.66326,184.66326 C183.659698,176.332235 176.440576,169.575899 167.538899,169.572562 C158.637224,169.569227 151.423877,176.320155 151.427438,184.651179 C151.427438,184.651179 183.66326,184.66326 183.66326,184.66326 Z" id="Oval-Copy-3" stroke="#000000" stroke-width="3" fill="#FAD843" fill-rule="evenodd" mask="url(#mask-5)" transform="translate(167.545349, 177.117911) rotate(-90.000000) translate(-167.545349, -177.117911) "></path>
                                </g>
                            </g>
                        </g>
                        <g id="Group-23" transform="translate(204.000000, 311.000000)" stroke="#000000" stroke-width="3">
                            <g id="Group-10" fill="#FAD843">
                                <path d="M31.7596908,99.6408941 C32.5612913,97.3240012 32.5612913,95.2694751 31.7596908,93.4773156 C30.55729,90.7890764 21.5477834,82.7364523 20.0503869,80.5574545 C18.5529905,78.3784567 14.6290479,67.5648648 15.7621187,64.3145084 C16.8951894,61.0641519 19.7753804,57.7961268 20.9426347,57.7961268 C22.109889,57.7961268 1.57923496,33.7174059 0.324029367,28.1219262 C-0.231941754,20.5482156 1.89473086,15.5501907 6.7040472,13.1278513 C13.9180217,9.49434219 20.3808624,15.0335499 22.5790472,19.5904086 C24.7772319,24.1472673 32.0688362,40.3327075 34.4785167,44.7736263 C35.7163819,46.422971 35.7163819,35.4182963 34.4785167,11.7596021 C34.4785167,3.91986736 38.1913002,0 45.6168671,0 C56.7552175,0 57.589897,9.23245334 57.589897,13.1278513 C57.589897,15.7247832 57.589897,24.2149971 57.589897,38.5984928 C65.1269358,36.3590865 70.0851681,38.4174643 72.464594,44.7736263 C84.3041749,41.2183082 90.2239653,45.042337 90.2239653,56.2457126 C90.6712122,66.6307215 88.8056444,73.2789308 84.627262,76.1903403 C85.2322008,84.6486079 83.611554,89.342661 79.7653215,90.2724995 L79.7653215,99.6408941 L31.7596908,99.6408941 Z" id="Path-29"></path>
                                <line x1="35.8685439" y1="42" x2="35.8685439" y2="52.921269" id="Path-30" stroke-linecap="round" transform="translate(35.868544, 47.460634) rotate(-25.000000) translate(-35.868544, -47.460634) "></line>
                                <line x1="57.6" y1="39.8135367" x2="57.6" y2="50.7348055" id="Path-30" stroke-linecap="round"></line>
                                <line x1="23" y1="56" x2="23.3484503" y2="67.0837539" id="Path-30" stroke-linecap="round" transform="translate(23.174225, 61.541877) rotate(-25.000000) translate(-23.174225, -61.541877) "></line>
                                <line x1="84.5" y1="63" x2="84.5" y2="75" id="Path-30" stroke-linecap="round"></line>
                                <line x1="72.2572651" y1="44.8135367" x2="72.2572651" y2="54.2348057" id="Path-30" stroke-linecap="round"></line>
                            </g>
                            <g id="Group-21" transform="translate(32.303459, 69.883607)">
                                <path d="M118.772225,1.77635684e-13 C126.497133,13.2644467 132.040803,24.4804421 135.403236,33.6479861 C146.085702,62.7733157 132.885357,117.112925 84.3745034,125.057697 C35.8636494,133.00247 -7.10542736e-14,61.1163933 -7.10542736e-14,30.1163933 L48.3098638,30.1163933 C51.9685901,73.3916411 63.9901366,91.0796667 84.3745034,83.1804702 C107.133682,71.7187417 84.3745034,31.1163933 81.562982,25.7884881" id="Path-32" fill="#64C1BE"></path>
                                <path d="M81.7063334,26.0559494 C76.498833,17.9321624 72.022544,11.5074967 68.2774664,6.78195231" id="Path-35" stroke-linecap="round"></path>
                            </g>
                        </g>
                    </g>
                </g>
            </g>
        </g>
    </g>
</svg>