<?xml version="1.0" encoding="UTF-8"?>
<svg width="68px" height="94px" viewBox="0 0 68 94" version="1.1" xmlns="http://www.w3.org/2000/svg" xmlns:xlink="http://www.w3.org/1999/xlink">
    <!-- Generator: Sketch 60 (88103) - https://sketch.com -->
    <title>Group 37</title>
    <desc>Created with Sketch.</desc>
    <g id="v3" stroke="none" stroke-width="1" fill="none" fill-rule="evenodd">
        <g id="About" transform="translate(-961.000000, -9404.000000)">
            <g id="Group-50" transform="translate(195.000000, 9406.000000)">
                <g id="Group-37" transform="translate(768.000000, 0.000000)">
                    <rect id="Rectangle" stroke="#000000" stroke-width="3" x="31.5" y="56.5" width="1" height="32"></rect>
                    <path d="M27.04,51.8958 C26.4834,50.9626 25.2884,50.6474 24.3456,51.1744 C21.6586,52.6772 19.405,53.0586 17.9996,52.2476 C16.5954,51.4374 15.799,49.295 15.7578,46.2152 C15.7434,45.1316 14.8684,44.2568 13.7848,44.2422 C10.7052,44.2008 8.5628,43.4046 7.7522,42.0006 C6.9414,40.5954 7.3228,38.3416 8.8256,35.6546 C9.3544,34.7092 9.0346,33.515 8.1042,32.9604 C5.4576,31.3824 4,29.6208 4,28 C4,26.3792 5.4576,24.6176 8.1042,23.0398 C9.0346,22.4852 9.3544,21.2908 8.8256,20.3456 C7.3226,17.6586 6.9414,15.4048 7.7522,13.9998 C8.5628,12.5954 10.7052,11.7992 13.7848,11.758 C14.8684,11.7434 15.7434,10.8686 15.7578,9.785 C15.799,6.7052 16.5954,4.5628 17.9996,3.7526 C19.4044,2.9414 21.6588,3.323 24.3456,4.8258 C25.2914,5.3548 26.4852,5.0346 27.04,4.1044 C28.6176,1.4576 30.3792,0 32,0 C33.6208,0 35.3824,1.4576 36.96,4.1042 C37.5144,5.0342 38.708,5.3546 39.6544,4.8256 C42.3414,3.3228 44.595,2.9414 46.0004,3.7524 C47.4046,4.5626 48.201,6.705 48.2422,9.7848 C48.2566,10.8684 49.1316,11.7432 50.2152,11.7578 C53.2948,11.7992 55.4372,12.5954 56.2478,13.9994 C57.0586,15.4046 56.6772,17.6584 55.1744,20.3454 C54.6456,21.2908 54.9654,22.485 55.8958,23.0396 C58.5424,24.6176 60,26.3792 60,28 C60,29.6208 58.5424,31.3824 55.8958,32.9602 C54.9654,33.5148 54.6456,34.7092 55.1744,35.6544 C56.6774,38.3414 57.0586,40.5952 56.2478,42.0002 C55.4372,43.4046 53.2948,44.2008 50.2152,44.242 C49.1316,44.2566 48.2566,45.1314 48.2422,46.215 C48.201,49.2948 47.4046,51.4372 46.0004,52.2474 C44.5956,53.0586 42.3412,52.6772 39.6544,51.1742 C38.7088,50.6454 37.5148,50.9654 36.96,51.8956 C35.3824,54.5424 33.6208,56 32,56 C30.3792,56 28.6176,54.5424 27.04,51.8958 Z" id="Path" stroke="#000000" stroke-width="3" fill="#F1A4AB" fill-rule="nonzero"></path>
                    <path d="M40.8850818,35.5407967 C43.0416289,32.830814 43.2401705,29.665344 40.2404773,26.7636439 C36.8441777,23.4781632 33.6463005,24.5573374 30.8449105,25.8284595 L24.6967967,19.8809543 C26.655279,18.1784391 28.2169166,18.2502611 28.6632179,17.8185223 C29.1094001,17.3868987 28.7871574,16.5476307 28.4649147,16.2359025 C27.6469141,15.4445927 25.0438273,16.7634425 23.1847349,18.41823 L22.4658859,17.7228365 C22.2178877,17.4829303 21.6973419,17.5548676 21.424675,17.8185223 C21.1023131,18.1303657 21.0776444,18.5859683 21.3256426,18.8258745 L22.0940674,19.5692262 C20.0860093,21.7995118 18.7225557,25.0369191 21.8460692,28.0585146 C25.0191586,31.1280683 28.0932154,29.5934067 31.0432137,28.2263682 L38.2570879,35.2048589 C35.1087865,38.1067895 32.6050896,36.739751 32.0100609,37.3153644 C31.6382424,37.6750507 31.7868506,38.5381825 32.1835762,38.9219632 C33.0760597,39.7853256 36.6706624,39.7133883 39.8188447,36.7156566 L40.7113282,37.579019 C40.9592072,37.8188099 41.4301772,37.7949461 41.7525391,37.4831027 C42.025206,37.2193327 42.0994505,36.7157719 41.8515715,36.475981 L40.8850818,35.5407967 Z M22.8772415,26.6000132 C21.0428329,24.904778 21.8112015,22.9576914 23.2491519,21.4 L29,26.7145412 C26.8185863,27.6767969 24.8109135,28.3869808 22.8772415,26.6000132 Z M39.6480295,34 L32.6,27.4709811 C34.7944578,26.6341308 36.9114729,26.2515181 39.157435,28.3320896 C41.0679363,30.1019032 41.1711932,32.0629083 39.6480295,34 Z" id="Shape" stroke="#FFFFFF" stroke-width="0.9" fill="#FFFFFF" fill-rule="nonzero" transform="translate(31.250000, 27.700000) rotate(-315.000000) translate(-31.250000, -27.700000) "></path>
                    <path d="M9.96605908,70 C21.4878693,70 30.9808674,78.8024 32,90 L22.0339409,90 C10.5121307,90 1.01913262,81.1976 0,70 L9.96605908,70 Z" id="Path" stroke="#000000" stroke-width="3" fill="#64C1BE" fill-rule="nonzero"></path>
                    <path d="M41.9660591,70 C53.4878693,70 62.9808674,78.8024 64,90 L54.0339409,90 C42.5121307,90 33.0191326,81.1976 32,70 L41.9660591,70 Z" id="Path" stroke="#000000" stroke-width="3" fill="#64C1BE" fill-rule="nonzero" transform="translate(48.000000, 80.000000) scale(-1, 1) translate(-48.000000, -80.000000) "></path>
                </g>
            </g>
        </g>
    </g>
</svg>