<?xml version="1.0" encoding="UTF-8"?>
<svg width="200px" height="376px" viewBox="0 0 200 376" version="1.1" xmlns="http://www.w3.org/2000/svg" xmlns:xlink="http://www.w3.org/1999/xlink">
    <!-- Generator: Sketch 60 (88103) - https://sketch.com -->
    <title>Combined Shape</title>
    <desc>Created with Sketch.</desc>
    <g id="v3" stroke="none" stroke-width="1" fill="none" fill-rule="evenodd">
        <g id="About" transform="translate(0.000000, -160.000000)" fill="#F1A4AB" stroke="#000000" stroke-width="3">
            <path d="M-165.999939,167 L158.993348,167.006593 C160.650154,167.006748 161.993253,168.349847 161.993409,170.006654 L161.993409,170.006654 L162,494.999939 L162,494.999939 C162.000088,496.656915 160.656915,498.000034 159.000061,497.999878 L159.000061,497.999878 L-165.993226,497.993285 C-167.650033,497.99313 -168.993131,496.650031 -168.993287,494.993225 L-168.993287,494.993225 L-169,169.999817 C-168.999966,168.342963 -167.656793,166.999845 -165.999939,167 L-165.999939,167 Z M-87.9999391,245 C-89.6567934,244.999845 -90.9999664,246.342963 -91,247.999817 L-90.9964507,416.996389 C-90.9962954,418.653196 -89.6531966,419.996295 -87.9963899,419.99645 L81.0000609,419.999878 C82.6569151,420.000034 84.0000881,418.656915 84.0001217,417.000061 L84,416.999939 L83.9965724,248.003489 C83.9964171,246.346682 82.6533183,245.003584 80.9965116,245.003428 L-87.9999391,245 Z" id="Combined-Shape" transform="translate(-3.500000, 332.499939) rotate(-345.000000) translate(3.500000, -332.499939) "></path>
        </g>
    </g>
</svg>