<?xml version="1.0" encoding="UTF-8"?>
<svg width="66px" height="60px" viewBox="0 0 66 60" version="1.1" xmlns="http://www.w3.org/2000/svg" xmlns:xlink="http://www.w3.org/1999/xlink">
    <!-- Generator: Sketch 60 (88103) - https://sketch.com -->
    <title>Group 54</title>
    <desc>Created with Sketch.</desc>
    <g id="v3" stroke="none" stroke-width="1" fill="none" fill-rule="evenodd">
        <g id="About" transform="translate(-281.000000, -7370.000000)">
            <g id="Group-28" transform="translate(102.000000, 7040.000000)">
                <g id="Group-25">
                    <g id="Group-23" transform="translate(0.000000, 299.000000)">
                        <g id="Group-7" transform="translate(93.000000, 0.000000)">
                            <g id="Group-54" transform="translate(80.000000, 31.000000)">
                                <g id="Group-53" transform="translate(40.008564, 33.777087) rotate(-30.000000) translate(-40.008564, -33.777087) translate(4.008564, 16.277087)">
                                    <path d="M35.84,21.08 L66.88,21.08 C68.978682,21.08 70.68,19.378682 70.68,17.28 C70.68,15.181318 68.978682,13.48 66.8799111,13.48 L65.155832,13.4797401 C65.1379289,13.4799566 65.1379289,13.4799566 65.12,13.48 L36,13.48 C34.6524252,13.48 33.56,12.3875748 33.56,11.04 C33.56,9.69242521 34.6524252,8.6 36,8.6 L54.4,8.6 C56.498682,8.6 58.2,6.89868205 58.2,4.8 C58.2,2.70131795 56.498682,1 54.4,1 L17.12,1 C8.21716983,1 1,8.21716983 1,17.12 C1,26.0228302 8.21716983,33.24 17.12,33.24 L44.8,33.24 C46.898682,33.24 48.6,31.538682 48.6,29.44 C48.6,27.341318 46.898682,25.64 44.8000762,25.64 L37.6207595,25.6405468 L38.3260042,24.20058 C38.3262325,24.2001138 38.3262325,24.2001138 38.3264608,24.1996477 L39.2245631,24.6394343 L39.2247302,25.6394343 L35.84,25.64 C34.5807908,25.64 33.56,24.6192092 33.56,23.36 C33.56,22.1007908 34.5807908,21.08 35.84,21.08 Z" id="Combined-Shape" stroke="#000000" stroke-width="2" fill="#ED8D96"></path>
                                    <g id="Group-22" transform="translate(7.040000, 6.720000)" fill-rule="nonzero">
                                        <circle id="Oval" stroke="#000000" stroke-width="2" fill="#D8D8D8" cx="10.3600001" cy="10.3600001" r="10.3600001"></circle>
                                        <circle id="Oval-Copy-2" fill="#BDBDBD" cx="12.1360002" cy="12.7280002" r="2.66400003"></circle>
                                        <circle id="Oval-Copy-5" fill="#BDBDBD" cx="13.0240002" cy="7.10400009" r="1.18400002"></circle>
                                    </g>
                                </g>
                                <rect id="Rectangle" fill="#000000" transform="translate(67.024610, 32.890250) rotate(-30.000000) translate(-67.024610, -32.890250) " x="62.5446097" y="31.1302503" width="8.96" height="3.52" rx="1.76"></rect>
                                <rect id="Rectangle" fill="#000000" transform="translate(65.863991, 4.000000) rotate(-30.000000) translate(-65.863991, -4.000000) " x="61.3839911" y="2.24" width="8.96" height="3.52" rx="1.76"></rect>
                                <path d="M47.9204366,10.7581114 L47.1950722,10.9429929 C46.7498545,11.0564705 46.2969426,10.7875419 46.1834651,10.3423242 C46.1491009,10.2075 46.1491009,10.06621 46.1834651,9.9313858 L46.3683467,9.20602137 C46.4740938,8.79113319 46.4740938,8.35634837 46.3683467,7.9414602 L46.1834651,7.21609576 C46.0699876,6.77087808 46.3389161,6.31796613 46.7841338,6.20448862 C46.918958,6.17012449 47.060248,6.17012449 47.1950722,6.20448862 L47.9204366,6.38937021 C48.3353248,6.49511731 48.7701096,6.49511731 49.1849978,6.38937021 L49.9103622,6.20448862 C50.3555799,6.0910111 50.8084919,6.35993965 50.9219694,6.80515733 C50.9563335,6.93998157 50.9563335,7.08127152 50.9219694,7.21609576 L50.7370878,7.9414602 C50.6313407,8.35634837 50.6313407,8.79113319 50.7370878,9.20602137 L50.9219694,9.9313858 C51.0354469,10.3766035 50.7665184,10.8295154 50.3213007,10.9429929 C50.1864764,10.9773571 50.0451865,10.9773571 49.9103622,10.9429929 L49.1849978,10.7581114 C48.7701096,10.6523643 48.3353248,10.6523643 47.9204366,10.7581114 Z" id="Star-Copy-4" stroke="#000000" stroke-width="1.5" fill="#FAD843" fill-rule="nonzero" transform="translate(48.552717, 8.573741) rotate(-345.000000) translate(-48.552717, -8.573741) "></path>
                                <path d="M34.4804366,57.1581114 L33.7550722,57.3429929 C33.3098545,57.4564705 32.8569426,57.1875419 32.7434651,56.7423242 C32.7091009,56.6075 32.7091009,56.46621 32.7434651,56.3313858 L32.9283467,55.6060214 C33.0340938,55.1911332 33.0340938,54.7563484 32.9283467,54.3414602 L32.7434651,53.6160958 C32.6299876,53.1708781 32.8989161,52.7179661 33.3441338,52.6044886 C33.478958,52.5701245 33.620248,52.5701245 33.7550722,52.6044886 L34.4804366,52.7893702 C34.8953248,52.8951173 35.3301096,52.8951173 35.7449978,52.7893702 L36.4703622,52.6044886 C36.9155799,52.4910111 37.3684919,52.7599396 37.4819694,53.2051573 C37.5163335,53.3399816 37.5163335,53.4812715 37.4819694,53.6160958 L37.2970878,54.3414602 C37.1913407,54.7563484 37.1913407,55.1911332 37.2970878,55.6060214 L37.4819694,56.3313858 C37.5954469,56.7766035 37.3265184,57.2295154 36.8813007,57.3429929 C36.7464764,57.3773571 36.6051865,57.3773571 36.4703622,57.3429929 L35.7449978,57.1581114 C35.3301096,57.0523643 34.8953248,57.0523643 34.4804366,57.1581114 Z" id="Star-Copy-4" stroke="#000000" stroke-width="1.5" fill="#FAD843" fill-rule="nonzero" transform="translate(35.112717, 54.973741) rotate(-345.000000) translate(-35.112717, -54.973741) "></path>
                            </g>
                        </g>
                    </g>
                </g>
            </g>
        </g>
    </g>
</svg>