<?xml version="1.0" encoding="UTF-8"?>
<svg width="338px" height="677px" viewBox="0 0 338 677" version="1.1" xmlns="http://www.w3.org/2000/svg" xmlns:xlink="http://www.w3.org/1999/xlink">
    <!-- Generator: Sketch 60 (88103) - https://sketch.com -->
    <title>iphone-x-flat-no-buttons</title>
    <desc>Created with Sketch.</desc>
    <defs>
        <filter x="-4.7%" y="-2.3%" width="109.5%" height="104.7%" filterUnits="objectBoundingBox" id="filter-1">
            <feOffset dx="7" dy="7" in="SourceAlpha" result="shadowOffsetOuter1"></feOffset>
            <feColorMatrix values="0 0 0 0 0   0 0 0 0 0   0 0 0 0 0  0 0 0 0.07 0" type="matrix" in="shadowOffsetOuter1" result="shadowMatrixOuter1"></feColorMatrix>
            <feMerge>
                <feMergeNode in="shadowMatrixOuter1"></feMergeNode>
                <feMergeNode in="SourceGraphic"></feMergeNode>
            </feMerge>
        </filter>
    </defs>
    <g id="v3" stroke="none" stroke-width="1" fill="none" fill-rule="evenodd">
        <g id="iphone-x-flat-no-buttons" filter="url(#filter-1)" transform="translate(165.500000, 335.000000) rotate(-360.000000) translate(-165.500000, -335.000000) translate(2.000000, 2.000000)">
            <path d="M280.192628,18.0941914 L253.79359,18.0941914 C248.143269,18.0941914 246.105449,17.8159788 245.734936,24.9567698 C245.364423,32.3757734 240.269872,37.0126507 233.415385,39.1456143 C231.099679,39.8875146 228.50609,40.2584648 226.005128,40.2584648 L221.003205,40.2584648 L109.015705,40.2584648 L104.013782,40.2584648 C101.512821,40.2584648 98.9192308,39.7947771 96.6035256,39.0528767 C89.7490385,36.9199132 84.561859,32.2830359 84.2839744,24.8640322 C83.9134615,17.7232412 81.875641,18 76.2253205,18 L49.5483974,18 C33.3384615,18.0941914 20,30.5210225 20,46.6573555 L20,615.416723 C20,631.645793 33.3384615,645 49.5483974,645 L280.192628,645 C296.402564,645 309,631.645793 309,615.416723 L309,46.6573555 C309,30.5210225 296.309936,18.0941914 280.192628,18.0941914 Z" id="XMLID_359_" fill="#FFFFFF"></path>
            <g id="Group-37" transform="translate(142.000000, 555.000000)">
                <circle id="Oval" stroke="#000000" stroke-width="2.625" fill="#FAD843" cx="21.875" cy="21.875" r="20.5625"></circle>
                <path d="M21.5,30.1397414 L15.4824047,33.028201 C14.7355592,33.3866886 13.8395098,33.0718623 13.4810222,32.3250168 C13.3544473,32.0613203 13.3077318,31.7663703 13.346625,31.4764662 L14.2341741,24.8608099 L14.2341741,24.8608099 L9.6275466,20.0303198 C9.05581673,19.4308063 9.07833983,18.481326 9.67785335,17.9095961 C9.88952977,17.7077295 10.1556081,17.5721558 10.4433419,17.5195602 L17.0094726,16.3193193 L17.0094726,16.3193193 L20.1800155,10.4454527 C20.5735125,9.7164454 21.483482,9.44446057 22.2124893,9.83795757 C22.4698875,9.97689361 22.6810484,10.1880546 22.8199845,10.4454527 L25.9905274,16.3193193 L25.9905274,16.3193193 L32.5566581,17.5195602 C33.3715825,17.6685224 33.9114515,18.4499069 33.7624893,19.2648313 C33.7098936,19.5525651 33.57432,19.8186434 33.3724534,20.0303198 L28.7658259,24.8608099 L28.7658259,24.8608099 L29.653375,31.4764662 C29.763529,32.2975373 29.1872168,33.0524443 28.3661458,33.1625982 C28.0762418,33.2014914 27.7812917,33.1547759 27.5175953,33.028201 L21.5,30.1397414 L21.5,30.1397414 Z" id="Star" fill="#FFFFFF" fill-rule="nonzero"></path>
            </g>
            <rect id="Mask" stroke="#000000" stroke-width="3" fill="#4A90E2" fill-rule="nonzero" x="38.5" y="92.5" width="252" height="425"></rect>
            <g id="Group-43" transform="translate(40.000000, 53.000000)">
                <g id="Bubble" transform="translate(222.000000, -0.000000)" fill-rule="nonzero">
                    <path d="M14.2736309,0 C21.2745962,0 26.95,5.71956232 26.95,12.775 C26.95,19.8304377 21.2745962,25.55 14.2736309,25.55 C9.02559601,25.55 4.52242598,22.3360408 2.59639241,17.7546502 L0.888705766,17.7540622 C0.676522333,17.7540622 0.475791172,17.6578199 0.342927423,17.492384 C0.100848977,17.190959 0.14895891,16.7503623 0.450383965,16.5082839 L0.450383965,16.5082839 L1.86009712,15.3755555 C1.6877948,14.5359013 1.59726177,13.6661054 1.59726177,12.775 C1.59726177,5.71956232 7.27266554,0 14.2736309,0 Z" id="Combined-Shape" stroke="#000000" stroke-width="1.5" fill="#FFFFFF"></path>
                    <g id="Group-6" transform="translate(5.950000, 7.000000)" fill="#E3E3E3">
                        <rect id="Rectangle" x="1.76309484" y="0" width="12.3416639" height="1.55989617" rx="0.779948086"></rect>
                        <rect id="Rectangle-Copy-2" x="4.28180175" y="3.37977504" width="12.3416639" height="1.55989617" rx="0.779948086"></rect>
                        <rect id="Rectangle-Copy-5" x="0" y="6.75955008" width="12.3416639" height="1.55989617" rx="0.779948086"></rect>
                        <rect id="Rectangle-Copy-3" x="4.28180175" y="10.1393251" width="8.94140954" height="1.55989617" rx="0.779948086"></rect>
                    </g>
                </g>
                <g id="Group-42" transform="translate(111.000000, 0.000000)">
                    <circle id="Oval" stroke="#000000" stroke-width="1.5" fill="#F1A4AB" cx="13" cy="13" r="12.25"></circle>
                    <path d="M8.03650292,15.458395 C8.21105743,14.0086454 9.52354049,12.3644143 10.7928685,10.774263 C11.7501984,9.57488955 12.7401062,8.33468404 13.3575142,7.05999813 C13.676463,6.40142251 13.8769468,5.77236695 13.959147,5.16696374 C14.0413472,4.56156052 14.4895195,5.76897941 14.7373893,6.14590461 C16.1286274,8.26173078 16.2635928,10.9234966 15.1384778,14.0570995 C15.0327055,14.3516951 15.0861357,14.6801663 15.2799105,14.925945 C15.4736853,15.1717842 15.7806063,15.3000271 16.0913351,15.2657887 C16.5460955,15.2154594 17.529113,12.9347927 17.8550125,14.4959684 C18.1809121,16.0571441 17.9567957,17.6703428 17.188768,18.9119396 C16.5995861,19.864506 15.4262993,21 13.1828388,21 C11.6407996,21 10.1977029,20.3693112 9.22344939,19.2696889 C8.28902672,18.2151331 7.86750902,16.8615657 8.03650292,15.458395 Z" id="Path" fill="#FFFFFF" fill-rule="nonzero"></path>
                </g>
                <g id="Group-41" transform="translate(-0.000000, 0.000000)" stroke="#000000" stroke-width="1.5">
                    <path d="M26.8,25 C26.8,17.5993844 20.8006156,11.6 13.4,11.6 C5.99938436,11.6 -1.27897692e-13,17.5993844 -1.27897692e-13,25 L26.8,25 Z" id="Path" fill="#64C1BE"></path>
                    <circle id="Oval" fill="#FAD843" cx="13.4" cy="6.6" r="6.6"></circle>
                </g>
            </g>
            <path d="M327,47.8629526 C327,21.1487465 305.508782,-2.00088834e-11 278.830028,-2.00088834e-11 L48.4478754,-2.00088834e-11 C21.7691218,-2.00088834e-11 -1.38697942e-11,21.2415042 -1.38697942e-11,47.8629526 L-1.38697942e-11,135.333426 L-1.38697942e-11,617.209471 C-1.38697942e-11,643.923677 21.7691218,666 48.4478754,666 L278.830028,666 C305.508782,666 327,643.923677 327,617.209471 L327,47.8629526 Z M198.330595,17.7167131 C200.553824,17.7167131 202.406516,19.5718663 202.406516,21.7980501 C202.406516,24.024234 200.553824,25.8793872 198.330595,25.8793872 C196.107365,25.8793872 194.254674,24.024234 194.254674,21.7980501 C194.254674,19.5718663 196.107365,17.7167131 198.330595,17.7167131 Z M147.288952,20.4066852 L183.416431,20.4066852 C184.991218,20.4066852 186.195467,21.3342618 186.195467,22.7256267 C186.195467,24.1169916 184.991218,25.0445682 183.416431,25.0445682 L147.288952,25.0445682 C145.714164,25.0445682 144.509915,24.1169916 144.509915,22.7256267 C144.509915,21.3342618 145.714164,20.4066852 147.288952,20.4066852 Z M309.399433,615.076045 C309.399433,631.308635 296.708499,644.665738 280.590085,644.665738 L49.9300283,644.665738 C33.7189802,644.665738 20.3796034,631.308635 20.3796034,615.076045 L20.3796034,46.1933148 C20.3796034,30.0534819 33.7189802,17.6206688 49.9300283,17.6206688 L76.6087819,17.6206688 C82.2594901,17.6206688 84.2974504,17.2529248 84.6679887,24.3952646 C85.0385269,31.8158774 90.1334278,36.6392758 96.9883853,38.7727019 C99.3042493,39.5147632 101.898017,39.8857939 104.39915,39.8857939 L109.401416,39.8857939 L221.211331,39.8857939 L226.213598,39.8857939 C228.714731,39.8857939 231.308499,39.3292479 233.624363,38.5871866 C240.47932,36.4537604 245.666856,32.0013928 245.944759,24.5807799 C246.315297,17.4384401 248.353258,17.6206688 254.003966,17.6206688 L280.404816,17.6206688 C296.615864,17.6206688 309.214164,30.0534819 309.214164,46.1933148 L309.214164,615.076045 L309.399433,615.076045 Z" id="XMLID_354_" stroke="#000000" stroke-width="3" fill="#D9D9D9" fill-rule="nonzero"></path>
        </g>
    </g>
</svg>