<?xml version="1.0" encoding="UTF-8"?>
<svg width="100px" height="340px" viewBox="0 0 100 340" version="1.1" xmlns="http://www.w3.org/2000/svg" xmlns:xlink="http://www.w3.org/1999/xlink">
    <!-- Generator: Sketch 60 (88103) - https://sketch.com -->
    <title>Group 4</title>
    <desc>Created with Sketch.</desc>
    <g id="v3" stroke="none" stroke-width="1" fill="none" fill-rule="evenodd">
        <g id="About" transform="translate(-13.000000, -3915.000000)" fill="#64C1BE" stroke="#000000" stroke-width="2">
            <g id="Group-4" transform="translate(-227.000000, 3915.000000)">
                <g id="Group-3">
                    <circle id="Oval" cx="245" cy="5" r="4"></circle>
                    <circle id="Oval" cx="275" cy="5" r="4"></circle>
                    <circle id="Oval" cx="305" cy="5" r="4"></circle>
                    <circle id="Oval" cx="335" cy="5" r="4"></circle>
                </g>
                <g id="Group-3" transform="translate(0.000000, 30.000000)">
                    <circle id="Oval" cx="245" cy="5" r="4"></circle>
                    <circle id="Oval" cx="275" cy="5" r="4"></circle>
                    <circle id="Oval" cx="305" cy="5" r="4"></circle>
                    <circle id="Oval" cx="335" cy="5" r="4"></circle>
                </g>
                <g id="Group-3" transform="translate(0.000000, 60.000000)">
                    <circle id="Oval" cx="245" cy="5" r="4"></circle>
                    <circle id="Oval" cx="275" cy="5" r="4"></circle>
                    <circle id="Oval" cx="305" cy="5" r="4"></circle>
                    <circle id="Oval" cx="335" cy="5" r="4"></circle>
                </g>
                <g id="Group-3" transform="translate(0.000000, 90.000000)">
                    <circle id="Oval" cx="245" cy="5" r="4"></circle>
                    <circle id="Oval" cx="275" cy="5" r="4"></circle>
                    <circle id="Oval" cx="305" cy="5" r="4"></circle>
                    <circle id="Oval" cx="335" cy="5" r="4"></circle>
                </g>
                <g id="Group-3" transform="translate(0.000000, 120.000000)">
                    <circle id="Oval" cx="245" cy="5" r="4"></circle>
                    <circle id="Oval" cx="275" cy="5" r="4"></circle>
                    <circle id="Oval" cx="305" cy="5" r="4"></circle>
                    <circle id="Oval" cx="335" cy="5" r="4"></circle>
                </g>
                <g id="Group-3" transform="translate(0.000000, 150.000000)">
                    <circle id="Oval" cx="245" cy="5" r="4"></circle>
                    <circle id="Oval" cx="275" cy="5" r="4"></circle>
                    <circle id="Oval" cx="305" cy="5" r="4"></circle>
                    <circle id="Oval" cx="335" cy="5" r="4"></circle>
                </g>
                <g id="Group-3" transform="translate(0.000000, 180.000000)">
                    <circle id="Oval" cx="245" cy="5" r="4"></circle>
                    <circle id="Oval" cx="275" cy="5" r="4"></circle>
                    <circle id="Oval" cx="305" cy="5" r="4"></circle>
                    <circle id="Oval" cx="335" cy="5" r="4"></circle>
                </g>
                <g id="Group-3" transform="translate(0.000000, 210.000000)">
                    <circle id="Oval" cx="245" cy="5" r="4"></circle>
                    <circle id="Oval" cx="275" cy="5" r="4"></circle>
                    <circle id="Oval" cx="305" cy="5" r="4"></circle>
                    <circle id="Oval" cx="335" cy="5" r="4"></circle>
                </g>
                <g id="Group-3" transform="translate(0.000000, 240.000000)">
                    <circle id="Oval" cx="245" cy="5" r="4"></circle>
                    <circle id="Oval" cx="275" cy="5" r="4"></circle>
                    <circle id="Oval" cx="305" cy="5" r="4"></circle>
                    <circle id="Oval" cx="335" cy="5" r="4"></circle>
                </g>
                <g id="Group-3" transform="translate(0.000000, 270.000000)">
                    <circle id="Oval" cx="245" cy="5" r="4"></circle>
                    <circle id="Oval" cx="275" cy="5" r="4"></circle>
                    <circle id="Oval" cx="305" cy="5" r="4"></circle>
                    <circle id="Oval" cx="335" cy="5" r="4"></circle>
                </g>
                <g id="Group-3" transform="translate(0.000000, 300.000000)">
                    <circle id="Oval" cx="245" cy="5" r="4"></circle>
                    <circle id="Oval" cx="275" cy="5" r="4"></circle>
                    <circle id="Oval" cx="305" cy="5" r="4"></circle>
                    <circle id="Oval" cx="335" cy="5" r="4"></circle>
                </g>
                <g id="Group-3" transform="translate(0.000000, 330.000000)">
                    <circle id="Oval" cx="245" cy="5" r="4"></circle>
                    <circle id="Oval" cx="275" cy="5" r="4"></circle>
                    <circle id="Oval" cx="305" cy="5" r="4"></circle>
                    <circle id="Oval" cx="335" cy="5" r="4"></circle>
                </g>
            </g>
        </g>
    </g>
</svg>