<?xml version="1.0" encoding="UTF-8"?>
<svg width="61px" height="61px" viewBox="0 0 61 61" version="1.1" xmlns="http://www.w3.org/2000/svg" xmlns:xlink="http://www.w3.org/1999/xlink">
    <!-- Generator: Sketch 60 (88103) - https://sketch.com -->
    <title>Group 2@3x</title>
    <desc>Created with Sketch.</desc>
    <g id="v3" stroke="none" stroke-width="1" fill="none" fill-rule="evenodd">
        <g id="About" transform="translate(-1094.000000, -7373.000000)" fill-rule="nonzero" stroke="#000000" stroke-width="2.1">
            <g id="Group-28" transform="translate(102.000000, 7040.000000)">
                <g id="Group-25">
                    <g id="Group-23" transform="translate(0.000000, 299.000000)">
                        <g id="Group-7" transform="translate(903.000000, 0.000000)">
                            <g id="Group-2" transform="translate(89.000000, 34.000000)">
                                <path d="M24.15,11.55 L36.05,11.55 L36.05,7 C36.05,3.71390574 33.3860943,1.05 30.1,1.05 C26.8139057,1.05 24.15,3.71390574 24.15,7 L24.15,11.55 Z" id="Rectangle" fill="#F1A4AB"></path>
                                <rect id="Rectangle" fill="#64C1BE" x="5.95" y="11.55" width="48.3" height="48.3" rx="9.1"></rect>
                                <circle id="Oval" fill="#FFFFFF" cx="17.5" cy="30.1" r="5.6"></circle>
                                <path d="M31.076099,32.7521981 L34.4934752,39.5869505 C34.6663677,39.9327354 34.5262107,40.3532066 34.1804257,40.526099 C34.0832269,40.5746984 33.9760478,40.6 33.8673762,40.6 L27.0326238,40.6 C26.6460245,40.6 26.3326238,40.2865993 26.3326238,39.9 C26.3326238,39.7913284 26.3579254,39.6841493 26.4065248,39.5869505 L29.823901,32.7521981 C29.9967934,32.4064131 30.4172646,32.2662561 30.7630495,32.4391486 C30.8985187,32.5068831 31.0083644,32.6167289 31.076099,32.7521981 Z" id="Triangle" fill="#FAD843"></path>
                                <rect id="Rectangle" fill="#FFFFFF" x="18.9" y="44.8" width="23.1" height="7" rx="3.5"></rect>
                                <circle id="Oval-Copy" fill="#FFFFFF" cx="42.7" cy="30.1" r="5.6"></circle>
                                <path d="M54.25,27.65 L54.25,43.75 L57.4,43.75 C58.3664983,43.75 59.15,42.9664983 59.15,42 L59.15,29.4 C59.15,28.4335017 58.3664983,27.65 57.4,27.65 L54.25,27.65 Z" id="Rectangle" fill="#F1A4AB"></path>
                                <path d="M5.95,43.75 L5.95,27.65 L2.1,27.65 C1.52010101,27.65 1.05,28.120101 1.05,28.7 L1.05,42.7 C1.05,43.279899 1.52010101,43.75 2.1,43.75 L5.95,43.75 Z" id="Rectangle-Copy" fill="#F1A4AB"></path>
                                <g id="Group" transform="translate(23.800000, 44.800000)" stroke-linecap="square">
                                    <line x1="6.65" y1="0" x2="6.65" y2="6.7810791" id="Line"></line>
                                    <line x1="0.7" y1="0" x2="0.7" y2="6.7810791" id="Line-Copy"></line>
                                    <line x1="12.6" y1="0" x2="12.6" y2="6.7810791" id="Line-Copy-2"></line>
                                </g>
                            </g>
                        </g>
                    </g>
                </g>
            </g>
        </g>
    </g>
</svg>