<?xml version="1.0" encoding="UTF-8"?>
<svg width="50px" height="50px" viewBox="0 0 50 50" version="1.1" xmlns="http://www.w3.org/2000/svg" xmlns:xlink="http://www.w3.org/1999/xlink">
    <!-- Generator: Sketch 60 (88103) - https://sketch.com -->
    <title>six</title>
    <desc>Created with Sketch.</desc>
    <g id="v3" stroke="none" stroke-width="1" fill="none" fill-rule="evenodd">
        <g id="six">
            <circle id="Oval" stroke="#000000" stroke-width="3" fill="#F1A4AB" cx="25" cy="25" r="23.5"></circle>
            <path d="M23.336,34.24 C24.6,34.24 25.744,33.976 26.768,33.448 C27.792,32.92 28.604,32.168 29.204,31.192 C29.804,30.216 30.104,29.088 30.104,27.808 C30.104,26.512 29.668,25.484 28.796,24.724 C27.924,23.964 26.8,23.584 25.424,23.584 C24.8,23.584 24.176,23.704 23.552,23.944 C22.928,24.184 22.368,24.536 21.872,25 L21.872,25 L22.208,22.672 C22.304,21.968 22.636,21.376 23.204,20.896 C23.772,20.416 24.416,20.176 25.136,20.176 C25.792,20.176 26.308,20.384 26.684,20.8 C27.06,21.216 27.248,21.728 27.248,22.336 C27.248,22.512 27.24,22.648 27.224,22.744 L27.224,22.744 L30.536,22.744 C30.584,22.408 30.608,22.096 30.608,21.808 C30.608,20.4 30.148,19.296 29.228,18.496 C28.308,17.696 27.112,17.296 25.64,17.296 L25.64,17.296 L25.304,17.296 C24.232,17.296 23.208,17.552 22.232,18.064 C21.256,18.576 20.444,19.272 19.796,20.152 C19.148,21.032 18.752,22.008 18.608,23.08 C18.304,25.288 18.092,26.836 17.972,27.724 C17.852,28.612 17.792,29.152 17.792,29.344 C17.792,30.32 18.016,31.176 18.464,31.912 C18.912,32.648 19.532,33.22 20.324,33.628 C21.116,34.036 22.008,34.24 23,34.24 L23,34.24 L23.336,34.24 Z M23.6,31.504 C22.928,31.504 22.376,31.308 21.944,30.916 C21.512,30.524 21.296,30.016 21.296,29.392 C21.296,29.232 21.32,28.944 21.368,28.528 C21.432,27.824 21.76,27.232 22.352,26.752 C22.944,26.272 23.592,26.032 24.296,26.032 C24.968,26.032 25.52,26.228 25.952,26.62 C26.384,27.012 26.6,27.52 26.6,28.144 C26.6,28.32 26.576,28.608 26.528,29.008 C26.464,29.712 26.136,30.304 25.544,30.784 C24.952,31.264 24.304,31.504 23.6,31.504 Z" id="6" fill="#FFFFFF" fill-rule="nonzero"></path>
        </g>
    </g>
</svg>