<?xml version="1.0" encoding="UTF-8"?>
<svg width="104px" height="69px" viewBox="0 0 104 69" version="1.1" xmlns="http://www.w3.org/2000/svg" xmlns:xlink="http://www.w3.org/1999/xlink">
    <!-- Generator: Sketch 60 (88103) - https://sketch.com -->
    <title>Group 35</title>
    <desc>Created with Sketch.</desc>
    <g id="v3" stroke="none" stroke-width="1" fill="none" fill-rule="evenodd">
        <g id="About" transform="translate(-1073.000000, -7369.000000)" stroke="#000000" stroke-width="2">
            <g id="Group-28" transform="translate(102.000000, 7040.000000)">
                <g id="Group-25">
                    <g id="Group-23" transform="translate(0.000000, 299.000000)">
                        <g id="Group-7" transform="translate(903.000000, 0.000000)">
                            <g id="Group-35" transform="translate(69.000000, 31.000000)">
                                <g id="Illustration" transform="translate(0.000000, 12.256098)">
                                    <path d="M54.7439024,51.0670732 C54.7439024,35.949962 42.4890624,23.695122 27.3719512,23.695122 C12.25484,23.695122 0,35.949962 0,51.0670732 L54.7439024,51.0670732 Z" id="Path" fill="#64C1BE"></path>
                                    <path d="M95.597561,51.0670732 C95.597561,35.949962 83.3427209,23.695122 68.2256098,23.695122 C53.1084985,23.695122 40.8536585,35.949962 40.8536585,51.0670732 L95.597561,51.0670732 Z" id="Path-Copy" fill="#4A90E2"></path>
                                    <circle id="Oval" fill="#FAD843" cx="27.3719512" cy="13.4817073" r="13.4817073"></circle>
                                    <circle id="Oval-Copy-6" fill="#FAD843" cx="68.2256098" cy="13.4817073" r="13.4817073"></circle>
                                </g>
                                <path d="M95.1369917,43.2597753 C96.1317718,42.7796852 97.3273902,43.1969239 97.8074802,44.191704 L97.8074802,44.191704 L101.723148,52.3052414 C101.853987,52.5763485 101.92194,52.8734933 101.92194,53.1745213 C101.92194,54.2790908 101.026509,55.1745213 99.9219398,55.1745213 L99.9219398,55.1745213 L97.9990488,55.1738049 L97.9998738,65.0227783 C97.9998738,66.1147677 97.1146415,67 96.0226521,67 C94.9306627,67 94.0454304,66.1147677 94.0454304,65.0227783 L94.0450488,55.1738049 L92.0906035,55.1745213 C91.8497811,55.1745213 91.6114439,55.1310316 91.3869351,55.0466463 L91.2213236,54.9757299 C90.2265435,54.4956399 89.8093049,53.3000214 90.2893949,52.3052414 L90.2893949,52.3052414 L94.205063,44.191704 C94.4014913,43.7846909 94.7299786,43.4562036 95.1369917,43.2597753 Z" id="Combined-Shape" fill="#FFFFFF" fill-rule="nonzero"></path>
                                <path d="M14.2467478,0.771970405 C15.2415279,0.291880364 16.4371463,0.709119049 16.9172363,1.70389909 L16.9172363,1.70389909 L20.8329045,9.8174365 C20.9637432,10.0885436 21.0316959,10.3856885 21.0316959,10.6867164 C21.0316959,11.7912859 20.1362654,12.6867164 19.0316959,12.6867164 L19.0316959,12.6867164 L17.1088049,12.686 L17.1096299,22.5349734 C17.1096299,23.6269628 16.2243976,24.5121951 15.1324082,24.5121951 C14.0404188,24.5121951 13.1551865,23.6269628 13.1551865,22.5349734 L13.1548049,12.686 L11.2003596,12.6867164 C10.9595372,12.6867164 10.7212,12.6432267 10.4966912,12.5588414 L10.3310797,12.487925 C9.33629965,12.007835 8.91906096,10.8122165 9.399151,9.8174365 L9.399151,9.8174365 L13.3148191,1.70389909 C13.5112474,1.29688601 13.8397347,0.968398681 14.2467478,0.771970405 Z" id="Combined-Shape" fill="#FFFFFF" fill-rule="nonzero"></path>
                            </g>
                        </g>
                    </g>
                </g>
            </g>
        </g>
    </g>
</svg>