<?xml version="1.0" encoding="UTF-8"?>
<svg width="47px" height="75px" viewBox="0 0 47 75" version="1.1" xmlns="http://www.w3.org/2000/svg" xmlns:xlink="http://www.w3.org/1999/xlink">
    <!-- Generator: Sketch 60 (88103) - https://sketch.com -->
    <title>Group 34</title>
    <desc>Created with Sketch.</desc>
    <g id="v3" stroke="none" stroke-width="1" fill="none" fill-rule="evenodd">
        <g id="About" transform="translate(-832.000000, -7363.000000)" stroke="#000000">
            <g id="Group-28" transform="translate(102.000000, 7040.000000)">
                <g id="Group-25">
                    <g id="Group-23" transform="translate(0.000000, 299.000000)">
                        <g id="Group-7" transform="translate(633.000000, 0.000000)">
                            <g id="Group-34" transform="translate(98.000000, 25.000000)">
                                <path d="M20.0583311,10.0168241 C24.98413,2.82514025 28.079253,-0.494034992 29.3437001,0.0592983409 C30.6081472,0.612631674 29.2117108,5.22558903 25.1543909,13.8981704 L20.0583311,10.0168241 Z" id="Path-5" stroke-width="2" fill="#FAD843" fill-rule="nonzero"></path>
                                <path d="M1.5711683,72.9457008 C28.0504103,72.9457008 41.2060692,72.9457008 41.038145,72.9457008 C30.8039312,66.6009463 27.9300527,58.5971884 32.4165096,48.9344272 C40.8828964,46.2965766 44.9096531,42.245568 44.4967797,36.7814014 C44.0839062,31.3172347 39.5022401,27.5423208 30.7517813,25.4566596 C30.4074352,19.1373182 28.6192347,14.5556625 25.38718,11.7116926 C20.5390979,7.44573773 12.3936395,9.30284804 12.3936395,9.30284804 C8.60942739,6.29265833 4.58203336,5.11903413 0.311457393,5.78197542 C0.311457393,10.1848444 1.79249123,13.9420734 4.7545589,17.0536624 C-0.237259634,34.2983062 -1.29838983,52.9289857 1.5711683,72.9457008 Z" id="Path-4" stroke-width="2" fill="#F4F4F4" fill-rule="nonzero"></path>
                                <ellipse id="Oval" fill="#FFFFFF" fill-rule="nonzero" cx="14.5537264" cy="22.72125" rx="1.97334884" ry="1.97125"></ellipse>
                                <ellipse id="Oval-Copy" fill="#FFFFFF" fill-rule="nonzero" cx="22.8625637" cy="22.72125" rx="1.97334884" ry="1.97125"></ellipse>
                                <path d="M34.6694009,41.8 C34.6686958,39.8567363 33.2399127,38.2807784 31.4781244,38.28 C29.7163362,38.2792222 28.2886961,39.8539184 28.2894009,41.7971822 C28.2894009,41.7971822 34.6694009,41.8 34.6694009,41.8 Z" id="Oval-Copy-2" fill="#FFFFFF" transform="translate(31.479401, 40.040000) rotate(-180.000000) translate(-31.479401, -40.040000) "></path>
                                <path d="M2.76940086,7.74503941 C2.76940086,7.74503941 5.28163619,7.42904204 7.22208882,8.47106035 C9.16254144,9.51307866 10.0294009,10.4850756 10.0294009,10.4850756 L6.36526079,14.96 C4.31907109,12.6716462 3.12045112,10.2666593 2.76940086,7.74503941 Z" id="Shape" fill="#FFFFFF" fill-rule="nonzero"></path>
                            </g>
                        </g>
                    </g>
                </g>
            </g>
        </g>
    </g>
</svg>