<?xml version="1.0" encoding="UTF-8"?>
<svg width="26px" height="26px" viewBox="0 0 26 26" version="1.1" xmlns="http://www.w3.org/2000/svg" xmlns:xlink="http://www.w3.org/1999/xlink">
    <!-- Generator: Sketch 60 (88103) - https://sketch.com -->
    <title>Star Copy 5@3x</title>
    <desc>Created with Sketch.</desc>
    <g id="v4" stroke="none" stroke-width="1" fill="none" fill-rule="evenodd">
        <g id="Sourcing" transform="translate(-932.000000, -6561.000000)" fill="#FAD843" fill-rule="nonzero" stroke="#000000" stroke-width="3">
            <g id="Group-49" transform="translate(195.000000, 5433.000000)">
                <g id="Group-25" transform="translate(221.000000, 0.000000)">
                    <path d="M527.024123,1148.87992 L524.050253,1149.6379 C522.427063,1150.05162 520.775822,1149.07115 520.362101,1147.44796 C520.236816,1146.95641 520.236816,1146.44129 520.362101,1145.94975 L521.120085,1142.97588 C521.450544,1141.67935 521.450544,1140.32065 521.120085,1139.02412 L520.362101,1136.05025 C519.948381,1134.42706 520.92885,1132.77582 522.55204,1132.3621 C523.043586,1132.23682 523.558706,1132.23682 524.050253,1132.3621 L527.024123,1133.12008 C528.320649,1133.45054 529.679351,1133.45054 530.975877,1133.12008 L533.949747,1132.3621 C535.572937,1131.94838 537.224178,1132.92885 537.637899,1134.55204 C537.763184,1135.04359 537.763184,1135.55871 537.637899,1136.05025 L536.879915,1139.02412 C536.549456,1140.32065 536.549456,1141.67935 536.879915,1142.97588 L537.637899,1145.94975 C538.051619,1147.57294 537.07115,1149.22418 535.44796,1149.6379 C534.956414,1149.76318 534.441294,1149.76318 533.949747,1149.6379 L530.975877,1148.87992 C529.679351,1148.54946 528.320649,1148.54946 527.024123,1148.87992 Z" id="Star-Copy-5" transform="translate(529.000000, 1141.000000) rotate(-315.000000) translate(-529.000000, -1141.000000) "></path>
                </g>
            </g>
        </g>
    </g>
</svg>