<?xml version="1.0" encoding="UTF-8"?>
<svg width="336px" height="440px" viewBox="0 0 336 440" version="1.1" xmlns="http://www.w3.org/2000/svg" xmlns:xlink="http://www.w3.org/1999/xlink">
    <!-- Generator: Sketch 60 (88103) - https://sketch.com -->
    <title>Group 60</title>
    <desc>Created with Sketch.</desc>
    <defs>
        <path d="M13.8885738,0.839291414 L0.839291414,13.8885738 C0.301902147,14.4259631 7.95107322e-16,15.1548193 0,15.9148025 L0,107.661685 C1.93810529e-16,109.244268 1.28293706,110.527205 2.86552013,110.527205 L94.6124024,110.527205 C95.3723856,110.527205 96.1012419,110.225303 96.6386311,109.687914 L109.687914,96.6386311 C110.225303,96.1012419 110.527205,95.3723856 110.527205,94.6124024 L110.527205,2.86552013 C110.527205,1.28293706 109.244268,2.37381947e-15 107.661685,0 L15.9148025,0 C15.1548193,1.91596349e-15 14.4259631,0.301902147 13.8885738,0.839291414 Z" id="path-1"></path>
        <filter x="-2.7%" y="-0.9%" width="103.6%" height="103.6%" filterUnits="objectBoundingBox" id="filter-2">
            <feOffset dx="-2" dy="2" in="SourceAlpha" result="shadowOffsetOuter1"></feOffset>
            <feComposite in="shadowOffsetOuter1" in2="SourceAlpha" operator="out" result="shadowOffsetOuter1"></feComposite>
            <feColorMatrix values="0 0 0 0 0   0 0 0 0 0   0 0 0 0 0  0 0 0 0.07 0" type="matrix" in="shadowOffsetOuter1"></feColorMatrix>
        </filter>
        <linearGradient x1="-0.000861752424%" y1="50.0039525%" x2="100.007397%" y2="50.0039525%" id="linearGradient-3">
            <stop stop-color="#7692FF" offset="0%"></stop>
            <stop stop-color="#003F91" offset="100%"></stop>
        </linearGradient>
        <path d="M12.1525021,0.734379987 L0.734379987,12.1525021 C0.264164378,12.6227177 3.64892041e-16,13.2604669 0,13.9254522 L0,94.2039742 C-2.74504997e-16,95.5887344 1.12256993,96.7113043 2.50733011,96.7113043 L82.7858521,96.7113043 C83.4508374,96.7113043 84.0885866,96.4471399 84.5588022,95.9769243 L95.9769243,84.5588022 C96.4471399,84.0885866 96.7113043,83.4508374 96.7113043,82.7858521 L96.7113043,2.50733011 C96.7113043,1.12256993 95.5887344,1.96606973e-15 94.2039742,0 L13.9254522,0 C13.2604669,-4.90936187e-15 12.6227177,0.264164378 12.1525021,0.734379987 Z" id="path-4"></path>
        <filter x="-3.1%" y="-1.0%" width="104.1%" height="104.1%" filterUnits="objectBoundingBox" id="filter-5">
            <feOffset dx="-2" dy="2" in="SourceAlpha" result="shadowOffsetOuter1"></feOffset>
            <feComposite in="shadowOffsetOuter1" in2="SourceAlpha" operator="out" result="shadowOffsetOuter1"></feComposite>
            <feColorMatrix values="0 0 0 0 0   0 0 0 0 0   0 0 0 0 0  0 0 0 0.07 0" type="matrix" in="shadowOffsetOuter1"></feColorMatrix>
        </filter>
        <rect id="path-6" x="0" y="0" width="52.5" height="15.75"></rect>
        <path d="M17.3607173,1.04911427 L1.04911427,17.3607173 C0.377377683,18.0324538 -5.60428082e-16,18.9435242 0,19.8935031 L0,134.577106 C2.42263161e-16,136.555335 1.60367133,138.159006 3.58190016,138.159006 L118.265503,138.159006 C119.215482,138.159006 120.126552,137.781628 120.798289,137.109892 L137.109892,120.798289 C137.781628,120.126552 138.159006,119.215482 138.159006,118.265503 L138.159006,3.58190016 C138.159006,1.60367133 136.555335,1.4129621e-15 134.577106,0 L19.8935031,0 C18.9435242,5.45915124e-15 18.0324538,0.377377683 17.3607173,1.04911427 Z" id="path-8"></path>
        <filter x="-3.3%" y="-1.1%" width="104.3%" height="104.3%" filterUnits="objectBoundingBox" id="filter-9">
            <feOffset dx="-3" dy="3" in="SourceAlpha" result="shadowOffsetOuter1"></feOffset>
            <feComposite in="shadowOffsetOuter1" in2="SourceAlpha" operator="out" result="shadowOffsetOuter1"></feComposite>
            <feColorMatrix values="0 0 0 0 0   0 0 0 0 0   0 0 0 0 0  0 0 0 0.07 0" type="matrix" in="shadowOffsetOuter1"></feColorMatrix>
        </filter>
        <linearGradient x1="0.04%" y1="50.0152059%" x2="100.02%" y2="50.0152059%" id="linearGradient-10">
            <stop stop-color="#9146FF" offset="27.41%"></stop>
            <stop stop-color="#473198" offset="100%"></stop>
        </linearGradient>
    </defs>
    <g id="v3" stroke="none" stroke-width="1" fill="none" fill-rule="evenodd">
        <g id="About" transform="translate(0.000000, -290.000000)">
            <g id="Group-60" transform="translate(-56.000000, 287.000000)">
                <g id="Group" transform="translate(222.500000, 366.000000) rotate(-30.000000) translate(-222.500000, -366.000000) translate(167.000000, 310.000000)">
                    <g id="Group-30" transform="translate(0.000000, 0.289521)">
                        <g id="Path-17">
                            <use fill="black" fill-opacity="1" filter="url(#filter-2)" xlink:href="#path-1"></use>
                            <path stroke="#1F1B24" stroke-width="1.6" d="M14.4542592,1.40497684 L1.40497684,14.4542592 C1.01761667,14.8416194 0.8,15.3669925 0.8,15.9148025 L0.8,107.661685 C0.8,108.80244 1.72476486,109.727205 2.86552013,109.727205 L94.6124024,109.727205 C95.1602124,109.727205 95.6855855,109.509588 96.0729457,109.122228 L109.122228,96.0729457 C109.509588,95.6855855 109.727205,95.1602124 109.727205,94.6124024 L109.727205,2.86552013 C109.727205,1.72476486 108.80244,0.8 107.661685,0.8 L15.9148025,0.8 C15.3669925,0.8 14.8416194,1.01761667 14.4542592,1.40497684 Z" stroke-linejoin="square" fill="#D8D8D8" fill-rule="evenodd"></path>
                        </g>
                        <rect id="Rectangle" stroke="#1F1B24" stroke-width="1.6" fill="#FFFFFF" fill-rule="nonzero" x="15.5369607" y="0.8" width="94.1902443" height="94.1902443"></rect>
                        <g id="Epione-couleurs" transform="translate(40.000000, 25.310479)" fill-rule="nonzero">
                            <path d="M11.292,36.092 L16.892,41.692 C19.8888042,44.6846657 24.7431958,44.6846657 27.74,41.692 L33.62,35.8 L37.1,32.32 L41.684,27.736 C44.6656948,24.7346642 44.6656948,19.8893358 41.684,16.888 L27.732,2.934 C24.731566,-0.0498811891 19.884434,-0.0498811891 16.884,2.934 L2.934,16.884 C-0.0498811891,19.884434 -0.0498811891,24.731566 2.934,27.732 L7.534,32.332 L11.292,36.092 Z" id="Path" fill="#FFFFFF"></path>
                            <path d="M22.29,44.60009 C20.5470038,44.6052439 18.846356,44.0630793 17.428,43.05 C17.0618489,42.787474 16.7180127,42.4951464 16.4,42.176 L2.442,28.224 C-0.813487403,24.9517925 -0.813487403,19.6642075 2.442,16.392 L16.4,2.442 C19.6722075,-0.813487403 24.9597925,-0.813487403 28.232,2.442 L42.176,16.4 C45.4249337,19.6749096 45.4249337,24.9570904 42.176,28.232 L28.224,42.184 C26.6428707,43.7416767 24.5095092,44.6102648 22.29,44.60009 Z M22.308,1.39988214 C20.4595077,1.39010912 18.6837618,2.11956192 17.376,3.426 L3.426,17.376 C0.715908706,20.1055606 0.715908706,24.5104394 3.426,27.24 L17.376,41.2 C17.6442683,41.4663782 17.9331676,41.7111401 18.24,41.932 C21.0220344,43.89743 24.8121396,43.5891681 27.24,41.2 L41.2,27.24 C43.9100913,24.5104394 43.9100913,20.1055606 41.2,17.376 L27.24,3.426 C25.9327422,2.11880501 24.1566659,1.3892165 22.308,1.39988214 Z" id="Shape" fill="url(#linearGradient-3)"></path>
                            <polygon id="Path" fill="#181D1C" points="9.818 24.5 9.818 18.83 13.4 18.83 13.4 20.03 11.082 20.03 11.082 21.108 13.2 21.108 13.2 22.22 11.082 22.22 11.082 23.308 13.416 23.308 13.416 24.508"></polygon>
                            <path d="M14.384,26.02 L14.384,20.526 L15.56,20.526 L15.56,20.926 C15.8478762,20.5843176 16.279952,20.3982953 16.726,20.424 C17.878,20.424 18.574,21.302 18.574,22.494 C18.574,23.686 17.8,24.588 16.678,24.588 C16.2779662,24.6151867 15.8854748,24.4695499 15.6,24.188 L15.6,26.02 L14.384,26.02 Z M16.48,21.524 C16.008,21.524 15.584,21.844 15.584,22.508 C15.584,23.172 16.008,23.508 16.48,23.508 C16.952,23.508 17.382,23.18 17.382,22.508 C17.382,21.836 16.958,21.524 16.48,21.524 Z" id="Shape" fill="#181D1C"></path>
                            <path d="M19.958,18.6 C20.246683,18.5967562 20.5087492,18.7681576 20.6214784,19.0339405 C20.7342075,19.2997233 20.6752823,19.60727 20.4722964,19.8125627 C20.2693104,20.0178553 19.9624491,20.0802517 19.6954094,19.9705329 C19.4283698,19.860814 19.2540182,19.6007012 19.254,19.312 C19.25612,18.922761 19.5688098,18.6065179 19.958,18.6 Z M19.358,24.502 L19.358,20.526 L20.574,20.526 L20.574,24.5 L19.358,24.502 Z" id="Shape" fill="#181D1C"></path>
                            <path d="M25.572,22.508 C25.5736185,23.3625864 25.0600737,24.133925 24.2710029,24.4620832 C23.4819321,24.7902414 22.5728679,24.6105363 21.9680105,24.0068244 C21.3631531,23.4031125 21.181725,22.4943907 21.5083867,21.7046992 C21.8350484,20.9150077 22.6054121,20.4000015 23.46,20.4 C24.0240633,20.3844446 24.5697278,20.6014035 24.9691105,21.0000297 C25.3684931,21.398656 25.5864861,21.9439082 25.572,22.508 L25.572,22.508 Z M24.356,22.508 C24.356,21.836 23.924,21.524 23.46,21.524 C22.996,21.524 22.564,21.836 22.564,22.508 C22.564,23.18 23.004,23.508 23.46,23.508 C23.916,23.508 24.356,23.18 24.356,22.508 Z" id="Shape" fill="#181D1C"></path>
                            <path d="M27.57,24.5 L26.354,24.5 L26.354,20.526 L27.53,20.526 L27.53,20.98 C27.7825671,20.6180505 28.2008585,20.4081524 28.642,20.422 C29.642,20.422 30.09,21.132 30.09,22.004 L30.09,24.5 L28.874,24.5 L28.874,22.212 C28.874,21.812 28.674,21.524 28.226,21.524 C28.0439141,21.5206321 27.8688653,21.5942788 27.7439537,21.7268069 C27.6190421,21.8593351 27.5558731,22.0384317 27.57,22.22 L27.57,24.5 Z" id="Path" fill="#181D1C"></path>
                            <path d="M34.728,23.356 C34.528,24.044 33.904,24.62 32.896,24.62 C32.3338638,24.6339766 31.79125,24.4134688 31.3982154,24.0113291 C31.0051808,23.6091894 30.7971554,23.0616688 30.824,22.5 C30.824,21.22 31.776,20.406 32.808,20.406 C34.04,20.406 34.808,21.164 34.808,22.444 C34.8093267,22.5697548 34.8013046,22.6954344 34.784,22.82 L32,22.82 C32.0483269,23.276103 32.4460825,23.6140192 32.904,23.588 C33.2590553,23.621433 33.5904101,23.4060524 33.704,23.068 L34.728,23.356 Z M33.624,22.036 C33.608,21.732 33.4,21.364 32.824,21.364 C32.4208903,21.3391007 32.0690543,21.6346429 32.024,22.036 L33.624,22.036 Z" id="Shape" fill="#181D1C"></path>
                        </g>
                        <path d="M1.22808005,109.299125 L15.9650407,94.5621642 L1.22808005,109.299125 Z" id="Path-18" stroke="#1F1B24" stroke-width="1.6"></path>
                    </g>
                </g>
                <g id="Group" transform="translate(332.500000, 60.000000) rotate(-345.000000) translate(-332.500000, -60.000000) translate(284.000000, 11.000000)">
                    <g id="Group-30" transform="translate(0.000000, 0.253331)">
                        <g id="Path-17">
                            <use fill="black" fill-opacity="1" filter="url(#filter-5)" xlink:href="#path-4"></use>
                            <path stroke="#1F1B24" stroke-width="1.4" d="M12.6474768,1.22935473 L1.22935473,12.6474768 C0.89041459,12.986417 0.7,13.4461185 0.7,13.9254522 L0.7,94.2039742 C0.7,95.2021351 1.50916925,96.0113043 2.50733011,96.0113043 L82.7858521,96.0113043 C83.2651859,96.0113043 83.7248874,95.8208897 84.0638275,95.4819496 L95.4819496,84.0638275 C95.8208897,83.7248874 96.0113043,83.2651859 96.0113043,82.7858521 L96.0113043,2.50733011 C96.0113043,1.50916925 95.2021351,0.7 94.2039742,0.7 L13.9254522,0.7 C13.4461185,0.7 12.986417,0.89041459 12.6474768,1.22935473 Z" stroke-linejoin="square" fill="#D8D8D8" fill-rule="evenodd"></path>
                        </g>
                        <rect id="Rectangle" stroke="#1F1B24" stroke-width="1.4" fill="#FFFFFF" fill-rule="nonzero" x="13.5948406" y="0.7" width="82.4164637" height="82.4164637"></rect>
                        <g id="fullup_logo_dark" transform="translate(28.700000, 34.046669)">
                            <mask id="mask-7" fill="white">
                                <use xlink:href="#path-6"></use>
                            </mask>
                            <g id="Rectangle_2"></g>
                            <g id="Groupe_de_masques_1" mask="url(#mask-7)">
                                <g transform="translate(0.000000, 1.050000)" id="logo-dark-no-background">
                                    <g transform="translate(0.000000, 0.328650)">
                                        <path d="M14.945,2.78285 L14.945,5.0302 L18.2105,5.0302 L18.2105,6.65 L14.945,6.65 L14.945,10.1402 L13.09875,10.1402 L13.09875,1.162 L18.80375,1.162 L18.80375,2.78285 L14.945,2.78285 Z M26.831,3.486 L26.831,10.21055 L24.97285,10.21055 L24.97285,9.63375 C24.4266417,10.0910254 23.7388157,10.344832 23.0265,10.35195 C22.14695,10.35195 21.476,10.13425 21.04725,9.68695 C20.6073,9.2407 20.3875,8.5225 20.3875,7.5432 L20.3875,3.486 L22.24565,3.486 L22.24565,7.53375 C22.2179649,7.85557963 22.3166295,8.17554906 22.52075,8.4259 C22.7703718,8.64746151 23.1015662,8.75400757 23.43355,8.71955 C24.0061196,8.6921082 24.5509944,8.46499451 24.97355,8.07765 L24.97355,3.486 L26.831,3.486 Z M28.62685,8.41855 L28.62685,0 L30.46715,0 L30.46715,7.7833 C30.4440989,7.98751112 30.4936616,8.19332016 30.60715,8.36465 C30.7427392,8.48862824 30.925539,8.54751764 31.108,8.526 C31.340257,8.52861131 31.5715628,8.49592166 31.794,8.42905 L31.794,10.0009 C31.4147239,10.0864986 31.0277433,10.1334053 30.639,10.1409 C29.29115,10.1409 28.62685,9.5704 28.62685,8.41855 Z M33.06345,8.41855 L33.06345,0 L34.90375,0 L34.90375,7.7833 C34.8806989,7.98751112 34.9302616,8.19332016 35.04375,8.36465 C35.1793392,8.48862824 35.362139,8.54751764 35.5446,8.526 C35.776857,8.52861131 36.0081628,8.49592166 36.2306,8.42905 L36.2306,10.0009 C35.8513239,10.0864986 35.4643433,10.1334053 35.0756,10.1409 C33.72775,10.1409 33.06345,9.5704 33.06345,8.41855 Z" id="Tracé_6" fill="#253C53" fill-rule="nonzero"></path>
                                        <path d="M44.04925,3.486 L44.04925,10.21055 L42.1911,10.21055 L42.1911,9.63375 C41.6448917,10.0910254 40.9570657,10.344832 40.24475,10.35195 C39.3652,10.35195 38.69425,10.13425 38.2655,9.68695 C37.82555,9.2407 37.60575,8.5225 37.60575,7.5432 L37.60575,3.486 L39.4639,3.486 L39.4639,7.53375 C39.4362149,7.85557963 39.5348795,8.17554906 39.739,8.4259 C39.9886218,8.64746151 40.3198162,8.75400757 40.6518,8.71955 C41.2243696,8.6921082 41.7692444,8.46499451 42.1918,8.07765 L42.1918,3.486 L44.04925,3.486 Z M51.04925,3.6883 C51.5177348,3.96950155 51.8891008,4.38715099 52.1136,4.8853 C52.3887776,5.50108537 52.5211125,6.17113558 52.5007,6.8453 C52.5211368,7.51946643 52.3888008,8.189522 52.1136,8.8053 C51.8887605,9.30322831 51.5174758,9.72078623 51.04925,10.0023 C50.5730542,10.278474 50.0298331,10.4177615 49.4795,10.4048 C48.8137048,10.3886304 48.1731264,10.1468864 47.66265,9.71915 L47.66265,12.9948 L45.8458,12.9948 L45.8458,3.4706 L47.66265,3.4706 L47.66265,3.97145 C48.1703439,3.53758282 48.811881,3.29164586 49.4795,3.27491515 C50.0300331,3.27235201 50.5715064,3.41505467 51.04925,3.68865 L51.04925,3.6883 Z M50.232,8.2698 C50.5176788,7.84812408 50.6539548,7.34294183 50.6191,6.8348 C50.6528727,6.32972242 50.516599,5.82787557 50.232,5.40925 C49.9561123,5.07433915 49.5363114,4.89210003 49.10325,4.91925 C48.5781284,4.93722217 48.0728528,5.1243067 47.66265,5.45265 L47.66265,8.19525 C48.0704933,8.52913571 48.576509,8.72018244 49.10325,8.73915 C49.534426,8.78409399 49.9590997,8.60803544 50.232,8.2712 L50.232,8.2698 Z" id="Tracé_7" fill="#A4C71C" fill-rule="nonzero"></path>
                                        <circle id="Ellipse_3" fill="#253C53" fill-rule="nonzero" cx="7.3416" cy="2.0601" r="1"></circle>
                                        <path d="M7.5985,1.6562 C6.28472871,0.876501197 4.68754473,0.737005209 3.2585,1.27715 C1.38506564,2.00271394 0.113081924,3.76165372 0.0108666932,5.76808124 C-0.0913485375,7.77450876 0.995299384,9.65360641 2.7853,10.5658 C4.31619624,11.3237088 6.12605645,11.2585633 7.5985,10.39255 C7.80466987,10.2596708 7.86961332,9.9879887 7.74582502,9.77623568 C7.62203672,9.56448266 7.35343558,9.48778673 7.1365,9.60225 C6.54231125,9.96138487 5.86463698,10.1591253 5.17055,10.1759 C4.60849978,10.2013244 4.04753792,10.1058416 3.52555,9.8959 C2.53770942,9.504394 1.7377945,8.74870305 1.2908,7.7847 C1.06793935,7.2973718 0.940346958,6.77191451 0.9149,6.23665 C0.884559172,5.67721918 0.968639439,5.11747802 1.162,4.59165 C1.34317183,4.11401953 1.6047848,3.67093475 1.9355,3.2816 C2.28540555,2.86827685 2.71747762,2.53227377 3.20425,2.29495 C4.45750798,1.66590049 5.94572683,1.72310411 7.147,2.4465 C7.6412,2.73875 8.092,1.94845 7.59815,1.6562 L7.5985,1.6562 Z" id="Tracé_8" fill="#253C53" fill-rule="nonzero"></path>
                                        <path d="M2.73,5.2003 C2.2906071,6.31252882 2.62008811,7.58122168 3.54515,8.3391 C4.46141995,9.0782341 5.73513394,9.18576261 6.76235,8.6107 C7.3351015,8.27151494 7.77445011,7.7464458 8.0073,7.12285 C8.06986092,6.8793633 7.92870762,6.62998731 7.68775,6.5583 C7.44375976,6.49717061 7.19391169,6.63453363 7.1148,6.8733 C6.80400487,7.70092122 5.96059445,8.20211983 5.08509187,8.0794588 C4.20958929,7.95679777 3.53638788,7.24311642 3.465,6.36195 C3.44348009,6.04645861 3.49634929,5.73032242 3.61935,5.439 C3.68212663,5.19539952 3.54092813,4.94578905 3.2998,4.8741 C3.05288891,4.81546341 2.80267678,4.95776487 2.72685,5.19995 L2.73,5.2003 Z" id="Tracé_9" fill="#A4C71C" fill-rule="nonzero"></path>
                                        <circle id="Ellipse_4" fill="#A4C71C" fill-rule="nonzero" cx="3.22175" cy="5.54575" r="1"></circle>
                                        <path d="M6.6325,4.86745 C6.64623649,4.82308333 6.65377449,4.77703087 6.6549,4.7306 C6.64785542,4.50293165 6.45767366,4.3240292 6.23,4.3309 C6.1079314,4.3309392 5.99105536,4.38028966 5.9059,4.46775 L4.7544,5.65775 C4.61860129,5.78623452 4.54175149,5.96500208 4.54194962,6.15195 C4.56452888,6.51094266 4.83476693,6.805408 5.19050663,6.85865083 C5.54624633,6.91189365 5.89085554,6.70945122 6.01755,6.3728 L6.6213,4.8895 C6.6213,4.879 6.6213,4.879 6.6325,4.8685 L6.6325,4.86745 Z" id="Tracé_10" fill="#253C53" fill-rule="nonzero"></path>
                                    </g>
                                </g>
                            </g>
                        </g>
                        <path d="M1.07457005,95.6367343 L13.9694106,82.7418937 L1.07457005,95.6367343 Z" id="Path-18" stroke="#1F1B24" stroke-width="1.4"></path>
                    </g>
                </g>
                <g id="Group" transform="translate(85.500000, 151.000000) rotate(-15.000000) translate(-85.500000, -151.000000) translate(16.000000, 81.000000)">
                    <g id="Group-30" transform="translate(-0.000000, 0.361901)">
                        <g id="Path-17">
                            <use fill="black" fill-opacity="1" filter="url(#filter-9)" xlink:href="#path-8"></use>
                            <path stroke="#1F1B24" stroke-width="2" d="M18.067824,1.75622105 L1.75622105,18.067824 C1.27202084,18.5520242 1,19.2087407 1,19.8935031 L1,134.577106 C1,136.00305 2.15595608,137.159006 3.58190016,137.159006 L118.265503,137.159006 C118.950266,137.159006 119.606982,136.886985 120.091182,136.402785 L136.402785,120.091182 C136.886985,119.606982 137.159006,118.950266 137.159006,118.265503 L137.159006,3.58190016 C137.159006,2.15595608 136.00305,1 134.577106,1 L19.8935031,1 C19.2087407,1 18.5520242,1.27202084 18.067824,1.75622105 Z" stroke-linejoin="square" fill="#D8D8D8" fill-rule="evenodd"></path>
                        </g>
                        <rect id="Rectangle" stroke="#1F1B24" stroke-width="2" fill="#FFFFFF" fill-rule="nonzero" x="19.4212008" y="1" width="117.737805" height="117.737805"></rect>
                        <g id="infamy_logo" transform="translate(34.000000, 45.638099)">
                            <g id="Group" transform="translate(0.000000, 7.200000)" fill-rule="nonzero">
                                <path d="M0.36,0.18 L9.96,0.18 C10.08,0.18 10.16,0.26 10.16,0.38 L10.16,14.3 C10.16,14.36 10.14,14.4 10.1,14.44 L5.3,19.06 C5.22,19.14 5.1,19.14 5.02,19.06 L0.22,14.44 C0.18,14.4 0.16,14.34 0.16,14.3 L0.16,0.4 C0.16,0.28 0.26,0.18 0.36,0.18 Z" id="Path" fill="url(#linearGradient-10)"></path>
                                <path d="M5.4,16.26 L7.8,13.86 C7.84,13.82 7.86,13.78 7.86,13.72 L7.86,2.38 C7.86,2.26 7.76,2.18 7.66,2.18 L2.66,2.18 C2.56,2.18 2.46,2.26 2.46,2.38 L2.46,13.7 C2.46,13.76 2.48,13.8 2.52,13.84 L5.12,16.26 C5.2,16.34 5.32,16.32 5.4,16.26 Z" id="Path" fill="#FFFFFF"></path>
                            </g>
                            <g id="Group" fill="#FFC145" fill-rule="nonzero">
                                <path d="M9.96,5.76 L0.36,5.76 C0.26,5.76 0.16,5.66 0.16,5.56 L0.16,1.52 L10.16,1.52 L10.16,5.56 C10.16,5.68 10.08,5.76 9.96,5.76 Z" id="Path"></path>
                            </g>
                            <rect id="Rectangle" x="20.22" y="2.84" width="67.6" height="13.2"></rect>
                            <g id="Group" transform="translate(21.400000, 3.400000)" fill="#050813" fill-rule="nonzero">
                                <polygon id="Path" points="0.08 11.74 0.08 0.18 3.22 0.18 3.22 11.74 0.08 11.74"></polygon>
                                <path d="M16.72,11.74 L12.62,11.74 L8.4,3.6 L8.32,3.6 C8.42,4.88 8.48,5.86 8.48,6.54 L8.48,11.76 L5.72,11.76 L5.72,0.18 L9.8,0.18 L14,8.22 L14.04,8.22 C13.96,7.06 13.92,6.12 13.92,5.42 L13.92,0.18 L16.7,0.18 L16.7,11.74 L16.72,11.74 Z" id="Path"></path>
                                <polygon id="Path" points="22.3 11.74 19.22 11.74 19.22 0.18 26.06 0.18 26.06 2.68 22.3 2.68 22.3 4.88 25.76 4.88 25.76 7.4 22.3 7.4"></polygon>
                                <path d="M35.06,11.74 L34.5,9.58 L30.74,9.58 L30.16,11.74 L26.72,11.74 L30.5,0.12 L34.66,0.12 L38.48,11.74 L35.06,11.74 Z M33.84,7.02 L33.34,5.12 C33.22,4.7 33.08,4.16 32.92,3.48 C32.76,2.82 32.64,2.34 32.6,2.04 C32.56,2.3 32.46,2.76 32.32,3.36 C32.18,3.98 31.88,5.2 31.4,7 L33.84,7 L33.84,7.02 Z" id="Shape"></path>
                                <path d="M44.76,11.74 L42.4,3.42 L42.32,3.42 C42.44,4.84 42.48,5.94 42.48,6.72 L42.48,11.74 L39.72,11.74 L39.72,0.18 L43.88,0.18 L46.3,8.4 L46.36,8.4 L48.72,0.18 L52.88,0.18 L52.88,11.74 L50,11.74 L50,6.68 C50,6.42 50,6.12 50.02,5.8 C50.02,5.48 50.06,4.7 50.12,3.44 L50.04,3.44 L47.7,11.76 L44.76,11.76 L44.76,11.74 Z" id="Path"></path>
                                <polygon id="Path" points="59.52 4.48 61.52 0.2 64.9 0.2 61.1 7.24 61.1 11.76 57.96 11.76 57.96 7.32 54.16 0.18 57.56 0.18"></polygon>
                            </g>
                            <rect id="Rectangle" x="21.2" y="19.84" width="65.46" height="3.72"></rect>
                            <g id="Group" transform="translate(21.600000, 20.000000)" fill="#737AAE" fill-rule="nonzero">
                                <polygon id="Path" points="0.32 2.88 0 2.88 0 0.02 1.6 0.02 1.6 0.32 0.34 0.32 0.34 1.36 1.52 1.36 1.52 1.66 0.34 1.66 0.34 2.88"></polygon>
                                <path d="M5.32,2.88 L5.26,2.58 L5.24,2.58 C5.14,2.72 5.02,2.8 4.92,2.86 C4.82,2.92 4.68,2.94 4.52,2.94 C4.3,2.94 4.14,2.88 4.02,2.78 C3.9,2.68 3.84,2.52 3.84,2.32 C3.84,1.88 4.18,1.66 4.88,1.64 L5.24,1.62 L5.24,1.48 C5.24,1.32 5.2,1.18 5.14,1.1 C5.08,1.02 4.96,0.98 4.8,0.98 C4.62,0.98 4.42,1.04 4.2,1.14 L4.1,0.9 C4.2,0.84 4.32,0.8 4.44,0.76 C4.56,0.72 4.7,0.72 4.82,0.72 C5.08,0.72 5.26,0.78 5.38,0.88 C5.5,0.98 5.56,1.18 5.56,1.42 L5.56,2.88 L5.32,2.88 L5.32,2.88 Z M4.6,2.66 C4.8,2.66 4.96,2.6 5.08,2.5 C5.2,2.4 5.26,2.24 5.26,2.04 L5.26,1.84 L4.94,1.86 C4.68,1.86 4.5,1.9 4.38,1.98 C4.26,2.06 4.2,2.16 4.2,2.32 C4.2,2.44 4.24,2.52 4.3,2.58 C4.36,2.64 4.46,2.66 4.6,2.66 Z" id="Shape"></path>
                                <path d="M9.7,2.88 L9.7,1.5 C9.7,1.32 9.66,1.2 9.58,1.1 C9.5,1 9.38,0.98 9.2,0.98 C8.98,0.98 8.82,1.04 8.7,1.16 C8.58,1.28 8.54,1.48 8.54,1.76 L8.54,2.88 L8.22,2.88 L8.22,0.74 L8.48,0.74 L8.54,1.04 L8.56,1.04 C8.62,0.94 8.72,0.86 8.84,0.8 C8.96,0.74 9.1,0.72 9.24,0.72 C9.5,0.72 9.7,0.78 9.82,0.9 C9.94,1.02 10.02,1.22 10.02,1.5 L10.02,2.9 L9.7,2.9 L9.7,2.88 Z" id="Path"></path>
                                <path d="M13.38,2.66 C13.44,2.66 13.5,2.66 13.54,2.64 C13.58,2.62 13.64,2.62 13.66,2.62 L13.66,2.86 C13.62,2.88 13.58,2.9 13.5,2.9 C13.42,2.9 13.38,2.92 13.32,2.92 C12.9,2.92 12.7,2.7 12.7,2.26 L12.7,1 L12.4,1 L12.4,0.84 L12.7,0.7 L12.84,0.24 L13.02,0.24 L13.02,0.74 L13.64,0.74 L13.64,1 L13.02,1 L13.02,2.26 C13.02,2.38 13.06,2.48 13.12,2.56 C13.18,2.64 13.28,2.66 13.38,2.66 Z" id="Path"></path>
                                <path d="M17.42,2.88 L17.36,2.58 L17.34,2.58 C17.24,2.72 17.12,2.8 17.02,2.86 C16.92,2.92 16.78,2.94 16.62,2.94 C16.4,2.94 16.24,2.88 16.12,2.78 C16,2.68 15.94,2.52 15.94,2.32 C15.94,1.88 16.28,1.66 16.98,1.64 L17.34,1.62 L17.34,1.48 C17.34,1.32 17.3,1.18 17.24,1.1 C17.18,1.02 17.06,0.98 16.9,0.98 C16.72,0.98 16.52,1.04 16.3,1.14 L16.2,0.9 C16.3,0.84 16.42,0.8 16.54,0.76 C16.66,0.72 16.8,0.72 16.92,0.72 C17.18,0.72 17.36,0.78 17.48,0.88 C17.6,0.98 17.66,1.18 17.66,1.42 L17.66,2.88 L17.42,2.88 L17.42,2.88 Z M16.68,2.66 C16.88,2.66 17.04,2.6 17.16,2.5 C17.28,2.4 17.34,2.24 17.34,2.04 L17.34,1.84 L17.02,1.86 C16.76,1.86 16.58,1.9 16.46,1.98 C16.34,2.06 16.28,2.16 16.28,2.32 C16.28,2.44 16.32,2.52 16.38,2.58 C16.44,2.64 16.56,2.66 16.68,2.66 Z" id="Shape"></path>
                                <path d="M21.72,2.3 C21.72,2.5 21.64,2.66 21.5,2.76 C21.36,2.86 21.14,2.92 20.88,2.92 C20.6,2.92 20.38,2.88 20.22,2.78 L20.22,2.48 C20.32,2.54 20.44,2.58 20.56,2.6 C20.68,2.62 20.8,2.64 20.9,2.64 C21.06,2.64 21.2,2.62 21.3,2.56 C21.4,2.5 21.44,2.42 21.44,2.32 C21.44,2.24 21.4,2.16 21.34,2.1 C21.28,2.04 21.12,1.98 20.92,1.9 C20.72,1.82 20.58,1.76 20.5,1.7 C20.42,1.64 20.36,1.58 20.32,1.52 C20.28,1.46 20.26,1.36 20.26,1.26 C20.26,1.08 20.34,0.94 20.48,0.84 C20.62,0.74 20.82,0.68 21.06,0.68 C21.3,0.68 21.52,0.72 21.74,0.82 L21.62,1.08 C21.4,1 21.22,0.94 21.04,0.94 C20.88,0.94 20.78,0.96 20.7,1.02 C20.62,1.08 20.58,1.14 20.58,1.22 C20.58,1.28 20.6,1.32 20.62,1.36 C20.64,1.4 20.7,1.44 20.76,1.48 C20.82,1.52 20.96,1.56 21.14,1.64 C21.4,1.74 21.56,1.82 21.66,1.92 C21.76,2.02 21.72,2.16 21.72,2.3 Z" id="Path"></path>
                                <path d="M23.9,0.74 L24.24,0.74 L24.7,1.96 C24.8,2.24 24.86,2.44 24.9,2.56 L24.92,2.56 C24.94,2.5 24.98,2.38 25.02,2.22 C25.08,2.06 25.26,1.56 25.56,0.74 L25.9,0.74 L24.98,3.18 C24.88,3.42 24.78,3.6 24.66,3.7 C24.54,3.8 24.38,3.86 24.22,3.86 C24.12,3.86 24.02,3.84 23.92,3.82 L23.92,3.56 C24,3.58 24.08,3.58 24.16,3.58 C24.38,3.58 24.54,3.46 24.64,3.2 L24.76,2.9 L23.9,0.74 Z" id="Path"></path>
                                <polygon id="Path" points="32.94 2.88 31.34 2.88 31.34 0.02 32.94 0.02 32.94 0.32 31.68 0.32 31.68 1.24 32.86 1.24 32.86 1.54 31.68 1.54 31.68 2.6 32.94 2.6"></polygon>
                                <path d="M36.9,2.3 C36.9,2.5 36.82,2.66 36.68,2.76 C36.54,2.86 36.32,2.92 36.06,2.92 C35.78,2.92 35.56,2.88 35.4,2.78 L35.4,2.48 C35.5,2.54 35.62,2.58 35.74,2.6 C35.86,2.62 35.98,2.64 36.08,2.64 C36.24,2.64 36.38,2.62 36.48,2.56 C36.58,2.5 36.62,2.42 36.62,2.32 C36.62,2.24 36.58,2.16 36.52,2.1 C36.46,2.04 36.3,1.98 36.1,1.9 C35.9,1.82 35.76,1.76 35.68,1.7 C35.6,1.64 35.54,1.58 35.5,1.52 C35.46,1.46 35.44,1.36 35.44,1.26 C35.44,1.08 35.52,0.94 35.66,0.84 C35.8,0.74 36,0.68 36.24,0.68 C36.48,0.68 36.7,0.72 36.92,0.82 L36.8,1.08 C36.58,1 36.4,0.94 36.22,0.94 C36.06,0.94 35.96,0.96 35.88,1.02 C35.8,1.08 35.76,1.14 35.76,1.22 C35.76,1.28 35.78,1.32 35.8,1.36 C35.82,1.4 35.88,1.44 35.94,1.48 C36,1.52 36.14,1.56 36.32,1.64 C36.58,1.74 36.74,1.82 36.84,1.92 C36.86,2.04 36.9,2.16 36.9,2.3 Z" id="Path"></path>
                                <path d="M40.42,2.92 C40.28,2.92 40.16,2.9 40.04,2.84 C39.92,2.78 39.82,2.7 39.74,2.6 L39.72,2.6 C39.74,2.72 39.74,2.84 39.74,2.96 L39.74,3.84 L39.42,3.84 L39.42,0.74 L39.68,0.74 L39.72,1.04 L39.74,1.04 C39.82,0.92 39.92,0.84 40.04,0.78 C40.16,0.72 40.28,0.7 40.42,0.7 C40.7,0.7 40.92,0.8 41.08,1 C41.24,1.2 41.32,1.46 41.32,1.82 C41.32,2.18 41.24,2.44 41.08,2.64 C40.92,2.84 40.7,2.92 40.42,2.92 Z M40.38,0.98 C40.16,0.98 40,1.04 39.9,1.16 C39.8,1.28 39.76,1.48 39.74,1.74 L39.74,1.82 C39.74,2.12 39.78,2.34 39.9,2.46 C40,2.58 40.16,2.66 40.38,2.66 C40.56,2.66 40.7,2.58 40.82,2.44 C40.92,2.3 40.98,2.08 40.98,1.82 C40.98,1.56 40.92,1.34 40.82,1.2 C40.72,1.06 40.56,0.98 40.38,0.98 Z" id="Shape"></path>
                                <path d="M45.72,1.82 C45.72,2.16 45.64,2.44 45.46,2.64 C45.28,2.84 45.04,2.94 44.74,2.94 C44.54,2.94 44.38,2.9 44.24,2.8 C44.1,2.7 43.98,2.58 43.9,2.42 C43.82,2.26 43.78,2.06 43.78,1.84 C43.78,1.5 43.86,1.22 44.04,1.02 C44.22,0.82 44.46,0.72 44.76,0.72 C45.06,0.72 45.3,0.82 45.48,1.02 C45.64,1.2 45.72,1.48 45.72,1.82 Z M44.1,1.82 C44.1,2.1 44.16,2.3 44.26,2.44 C44.36,2.58 44.54,2.66 44.74,2.66 C44.96,2.66 45.12,2.58 45.22,2.44 C45.32,2.3 45.38,2.08 45.38,1.82 C45.38,1.54 45.32,1.34 45.22,1.2 C45.1,1.06 44.94,0.98 44.74,0.98 C44.52,0.98 44.36,1.04 44.26,1.18 C44.14,1.34 44.1,1.54 44.1,1.82 Z" id="Shape"></path>
                                <path d="M49.26,0.7 C49.36,0.7 49.44,0.7 49.52,0.72 L49.48,1.02 C49.4,1 49.32,1 49.24,1 C49.06,1 48.92,1.08 48.8,1.22 C48.68,1.36 48.62,1.54 48.62,1.74 L48.62,2.88 L48.3,2.88 L48.3,0.74 L48.56,0.74 L48.6,1.14 L48.62,1.14 C48.7,1 48.8,0.9 48.9,0.82 C49.02,0.74 49.14,0.7 49.26,0.7 Z" id="Path"></path>
                                <path d="M52.62,2.66 C52.68,2.66 52.74,2.66 52.78,2.64 C52.84,2.64 52.88,2.62 52.9,2.62 L52.9,2.86 C52.86,2.88 52.82,2.9 52.74,2.9 C52.66,2.9 52.62,2.92 52.56,2.92 C52.14,2.92 51.94,2.7 51.94,2.26 L51.94,1 L51.64,1 L51.64,0.84 L51.94,0.7 L52.08,0.24 L52.26,0.24 L52.26,0.74 L52.88,0.74 L52.88,1 L52.26,1 L52.26,2.26 C52.26,2.38 52.3,2.48 52.36,2.56 C52.42,2.62 52.52,2.66 52.62,2.66 Z" id="Path"></path>
                                <path d="M56.72,2.3 C56.72,2.5 56.64,2.66 56.5,2.76 C56.36,2.86 56.14,2.92 55.88,2.92 C55.6,2.92 55.38,2.88 55.22,2.78 L55.22,2.48 C55.32,2.54 55.44,2.58 55.56,2.6 C55.68,2.62 55.8,2.64 55.9,2.64 C56.06,2.64 56.2,2.62 56.3,2.56 C56.4,2.5 56.44,2.42 56.44,2.32 C56.44,2.24 56.4,2.16 56.34,2.1 C56.28,2.04 56.12,1.98 55.92,1.9 C55.72,1.82 55.58,1.76 55.5,1.7 C55.42,1.64 55.36,1.58 55.32,1.52 C55.28,1.46 55.26,1.36 55.26,1.26 C55.26,1.08 55.34,0.94 55.48,0.84 C55.62,0.74 55.82,0.68 56.06,0.68 C56.3,0.68 56.52,0.72 56.74,0.82 L56.62,1.08 C56.4,1 56.22,0.94 56.04,0.94 C55.88,0.94 55.78,0.96 55.7,1.02 C55.62,1.08 55.58,1.14 55.58,1.22 C55.58,1.28 55.6,1.32 55.62,1.36 C55.64,1.4 55.7,1.44 55.76,1.48 C55.82,1.52 55.96,1.56 56.14,1.64 C56.4,1.74 56.56,1.82 56.66,1.92 C56.68,2.04 56.72,2.16 56.72,2.3 Z" id="Path"></path>
                            </g>
                        </g>
                    </g>
                </g>
            </g>
        </g>
    </g>
</svg>