<?xml version="1.0" encoding="UTF-8"?>
<svg width="50px" height="50px" viewBox="0 0 50 50" version="1.1" xmlns="http://www.w3.org/2000/svg" xmlns:xlink="http://www.w3.org/1999/xlink">
    <!-- Generator: Sketch 60 (88103) - https://sketch.com -->
    <title>three</title>
    <desc>Created with Sketch.</desc>
    <g id="v3" stroke="none" stroke-width="1" fill="none" fill-rule="evenodd">
        <g id="StaaS" transform="translate(-1014.000000, -3459.000000)">
            <g id="Group-7" transform="translate(986.000000, 3402.000000)">
                <g id="Group-13" transform="translate(26.000000, 57.000000)">
                    <g id="three" transform="translate(2.000000, 0.000000)">
                        <circle id="Oval" stroke="#000000" stroke-width="3" fill="#4A90E2" cx="25" cy="25" r="23.5"></circle>
                        <path d="M23.312,34.24 C24.544,34.24 25.668,34.02 26.684,33.58 C27.7,33.14 28.508,32.504 29.108,31.672 C29.708,30.84 30.008,29.872 30.008,28.768 C30.008,27.952 29.804,27.268 29.396,26.716 C28.988,26.164 28.408,25.76 27.656,25.504 L27.656,25.504 L27.68,25.384 C28.56,25 29.276,24.452 29.828,23.74 C30.38,23.028 30.656,22.176 30.656,21.184 C30.656,20.432 30.448,19.764 30.032,19.18 C29.616,18.596 29.032,18.136 28.28,17.8 C27.528,17.464 26.664,17.296 25.688,17.296 L25.688,17.296 L25.208,17.296 C24.072,17.296 23.028,17.5 22.076,17.908 C21.124,18.316 20.356,18.9 19.772,19.66 C19.188,20.42 18.864,21.296 18.8,22.288 L18.8,22.288 L21.992,22.288 C22.104,21.616 22.416,21.092 22.928,20.716 C23.44,20.34 24.056,20.152 24.776,20.152 C25.464,20.152 26.012,20.296 26.42,20.584 C26.828,20.872 27.032,21.304 27.032,21.88 C27.032,22.648 26.764,23.248 26.228,23.68 C25.692,24.112 25.04,24.328 24.272,24.328 L24.272,24.328 L22.28,24.328 L21.92,26.896 L23.648,26.896 C24.512,26.896 25.2,27.016 25.712,27.256 C26.224,27.496 26.48,27.976 26.48,28.696 C26.48,29.592 26.184,30.264 25.592,30.712 C25,31.16 24.2,31.384 23.192,31.384 C22.36,31.384 21.728,31.232 21.296,30.928 C20.864,30.624 20.648,30.176 20.648,29.584 C20.648,29.424 20.664,29.256 20.696,29.08 L20.696,29.08 L17.432,29.08 C17.352,29.48 17.312,29.84 17.312,30.16 C17.312,31.392 17.776,32.38 18.704,33.124 C19.632,33.868 20.952,34.24 22.664,34.24 L22.664,34.24 L23.312,34.24 Z" id="3" fill="#FFFFFF" fill-rule="nonzero"></path>
                    </g>
                </g>
            </g>
        </g>
    </g>
</svg>