<?xml version="1.0" encoding="UTF-8"?>
<svg width="111px" height="664px" viewBox="0 0 111 664" version="1.1" xmlns="http://www.w3.org/2000/svg" xmlns:xlink="http://www.w3.org/1999/xlink">
    <!-- Generator: Sketch 60 (88103) - https://sketch.com -->
    <title>Group 15</title>
    <desc>Created with Sketch.</desc>
    <g id="v3" stroke="none" stroke-width="1" fill="none" fill-rule="evenodd">
        <g id="About" transform="translate(-195.000000, -3113.000000)">
            <g id="Group-15" transform="translate(195.000000, 3113.000000)">
                <path d="M33.4876179,634.327204 L33.4876179,4.99380893 C33.4876179,3.06423154 31.9233863,1.5 29.9938089,1.5 C28.0642315,1.5 26.5,3.06423154 26.5,4.99380893 L26.49997,634.317716 L26.5025077,634.723747 C26.6556861,646.767222 33.8052817,652.351638 47.7388616,652.351638 L81.4307808,652.35097 L81.431,653.850781 L81.4318982,659.996626 C81.4318982,661.377337 82.5511863,662.496626 83.9318982,662.496626 C84.3188736,662.496626 84.700566,662.406792 85.04692,662.234197 L108.116885,650.738022 C109.352661,650.122213 109.855244,648.621206 109.239434,647.385429 C108.997149,646.899223 108.60309,646.505164 108.116885,646.262879 L85.04692,634.766704 C83.8111434,634.150895 82.3101362,634.653477 81.7157372,635.844445 L81.6254439,636.03977 C81.497742,636.345145 81.4318982,636.67299 81.4318982,637.004462 L81.4308141,645.751981 L50.2052672,645.752385 C40.1587277,645.752385 33.4876179,641.975622 33.4876179,634.327204 Z" id="Combined-Shape" stroke="#000000" stroke-width="3" fill="#FFFFFF"></path>
                <g id="Group-16" transform="translate(0.000000, 404.000000)" fill-rule="nonzero">
                    <rect id="Rectangle" stroke="#000000" stroke-width="3" fill="#000000" x="1.5" y="1.5" width="57" height="26"></rect>
                    <path d="M18.976,20 L18.976,17.952 L14.272,17.952 C14.272,17.9093333 14.352,17.8133333 14.512,17.664 C14.672,17.5146667 14.8053333,17.3973333 14.912,17.312 C15.8613333,16.5973333 16.672,15.9573333 17.344,15.392 C17.9306667,14.9013333 18.344,14.4133333 18.584,13.928 C18.824,13.4426667 18.944,12.8853333 18.944,12.256 C18.944,11.6693333 18.8053333,11.1173333 18.528,10.6 C18.2506667,10.0826667 17.8373333,9.664 17.288,9.344 C16.7386667,9.024 16.08,8.864 15.312,8.864 L15.312,8.864 L15.072,8.864 C14.0693333,8.864 13.2586667,9.05866667 12.64,9.448 C12.0213333,9.83733333 11.584,10.312 11.328,10.872 C11.072,11.432 10.944,12 10.944,12.576 C10.944,12.6933333 10.9493333,12.7946667 10.96,12.88 L10.96,12.88 L13.152,12.88 C13.1413333,12.784 13.136,12.64 13.136,12.448 C13.136,12.256 13.2,12.032 13.328,11.776 C13.456,11.52 13.656,11.2986667 13.928,11.112 C14.2,10.9253333 14.544,10.832 14.96,10.832 C15.472,10.832 15.856,10.9786667 16.112,11.272 C16.368,11.5653333 16.496,11.9093333 16.496,12.304 C16.496,12.656 16.4186667,12.9946667 16.264,13.32 C16.1093333,13.6453333 15.8293333,13.9626667 15.424,14.272 L15.424,14.272 L12.304,16.72 C11.8666667,17.0613333 11.528,17.4373333 11.288,17.848 C11.048,18.2586667 10.928,18.816 10.928,19.52 L10.928,19.52 L10.928,20 L18.976,20 Z M25.2,20.16 C25.904,20.16 26.5493333,19.992 27.136,19.656 C27.7226667,19.32 28.1866667,18.8586667 28.528,18.272 C28.8693333,17.6853333 29.04,17.0346667 29.04,16.32 L29.04,16.32 L29.04,12.72 C29.04,12.0053333 28.8693333,11.3546667 28.528,10.768 C28.1866667,10.1813333 27.7226667,9.71733333 27.136,9.376 C26.5493333,9.03466667 25.904,8.864 25.2,8.864 L25.2,8.864 L24.736,8.864 C24.032,8.864 23.3866667,9.03466667 22.8,9.376 C22.2133333,9.71733333 21.752,10.1813333 21.416,10.768 C21.08,11.3546667 20.912,12.0053333 20.912,12.72 L20.912,12.72 L20.912,16.32 C20.912,17.0346667 21.08,17.6853333 21.416,18.272 C21.752,18.8586667 22.2133333,19.32 22.8,19.656 C23.3866667,19.992 24.032,20.16 24.736,20.16 L24.736,20.16 L25.2,20.16 Z M24.976,18.288 C24.496,18.288 24.0933333,18.1226667 23.768,17.792 C23.4426667,17.4613333 23.28,17.056 23.28,16.576 L23.28,16.576 L23.28,12.448 C23.28,11.968 23.4426667,11.5626667 23.768,11.232 C24.0933333,10.9013333 24.496,10.736 24.976,10.736 C25.456,10.736 25.8586667,10.9013333 26.184,11.232 C26.5093333,11.5626667 26.672,11.968 26.672,12.448 L26.672,12.448 L26.672,16.576 C26.672,17.056 26.5093333,17.4613333 26.184,17.792 C25.8586667,18.1226667 25.456,18.288 24.976,18.288 Z M39.056,20 L39.056,18.064 L36.448,18.064 L36.448,8.944 L35.6,8.944 C34.928,9.31733333 34.2133333,9.63466667 33.456,9.896 C32.6986667,10.1573333 32.0213333,10.3093333 31.424,10.352 L31.424,10.352 L31.424,11.776 L34.096,11.776 L34.096,18.064 L31.44,18.064 L31.44,20 L39.056,20 Z M45.264,20.16 C46,20.16 46.6693333,20.0053333 47.272,19.696 C47.8746667,19.3866667 48.3493333,18.9493333 48.696,18.384 C49.0426667,17.8186667 49.216,17.1573333 49.216,16.4 C49.216,15.728 49.0586667,15.1386667 48.744,14.632 C48.4293333,14.1253333 48.0026667,13.736 47.464,13.464 C46.9253333,13.192 46.3253333,13.056 45.664,13.056 C45.248,13.056 44.8426667,13.136 44.448,13.296 C44.0533333,13.456 43.712,13.6906667 43.424,14 L43.424,14 L43.424,12.448 C43.424,11.9786667 43.5946667,11.584 43.936,11.264 C44.2773333,10.944 44.6826667,10.784 45.152,10.784 C45.632,10.784 46.024,10.952 46.328,11.288 C46.632,11.624 46.784,12.0266667 46.784,12.496 L46.784,12.496 L48.992,12.496 C48.992,11.7493333 48.8266667,11.1013333 48.496,10.552 C48.1653333,10.0026667 47.712,9.584 47.136,9.296 C46.56,9.008 45.92,8.864 45.216,8.864 L45.216,8.864 L44.992,8.864 C44.2773333,8.864 43.6213333,9.03466667 43.024,9.376 C42.4266667,9.71733333 41.952,10.1813333 41.6,10.768 C41.248,11.3546667 41.072,12.0053333 41.072,12.72 L41.072,12.72 L41.072,16.304 C41.072,17.0506667 41.248,17.7173333 41.6,18.304 C41.952,18.8906667 42.432,19.3466667 43.04,19.672 C43.648,19.9973333 44.3146667,20.16 45.04,20.16 L45.04,20.16 L45.264,20.16 Z M45.184,18.336 C44.6826667,18.336 44.264,18.1786667 43.928,17.864 C43.592,17.5493333 43.424,17.152 43.424,16.672 L43.424,16.672 L43.424,16.352 C43.424,15.872 43.5893333,15.4746667 43.92,15.16 C44.2506667,14.8453333 44.656,14.688 45.136,14.688 C45.6373333,14.688 46.056,14.8453333 46.392,15.16 C46.728,15.4746667 46.896,15.872 46.896,16.352 L46.896,16.352 L46.896,16.672 C46.896,17.152 46.7306667,17.5493333 46.4,17.864 C46.0693333,18.1786667 45.664,18.336 45.184,18.336 Z" id="2016" fill="#FFFFFF"></path>
                </g>
                <g id="Group-16" transform="translate(0.000000, 266.000000)" fill-rule="nonzero">
                    <rect id="Rectangle" stroke="#000000" stroke-width="3" fill="#000000" x="1.5" y="1.5" width="57" height="26"></rect>
                    <path d="M18.976,20 L18.976,17.952 L14.272,17.952 C14.272,17.9093333 14.352,17.8133333 14.512,17.664 C14.672,17.5146667 14.8053333,17.3973333 14.912,17.312 C15.8613333,16.5973333 16.672,15.9573333 17.344,15.392 C17.9306667,14.9013333 18.344,14.4133333 18.584,13.928 C18.824,13.4426667 18.944,12.8853333 18.944,12.256 C18.944,11.6693333 18.8053333,11.1173333 18.528,10.6 C18.2506667,10.0826667 17.8373333,9.664 17.288,9.344 C16.7386667,9.024 16.08,8.864 15.312,8.864 L15.312,8.864 L15.072,8.864 C14.0693333,8.864 13.2586667,9.05866667 12.64,9.448 C12.0213333,9.83733333 11.584,10.312 11.328,10.872 C11.072,11.432 10.944,12 10.944,12.576 C10.944,12.6933333 10.9493333,12.7946667 10.96,12.88 L10.96,12.88 L13.152,12.88 C13.1413333,12.784 13.136,12.64 13.136,12.448 C13.136,12.256 13.2,12.032 13.328,11.776 C13.456,11.52 13.656,11.2986667 13.928,11.112 C14.2,10.9253333 14.544,10.832 14.96,10.832 C15.472,10.832 15.856,10.9786667 16.112,11.272 C16.368,11.5653333 16.496,11.9093333 16.496,12.304 C16.496,12.656 16.4186667,12.9946667 16.264,13.32 C16.1093333,13.6453333 15.8293333,13.9626667 15.424,14.272 L15.424,14.272 L12.304,16.72 C11.8666667,17.0613333 11.528,17.4373333 11.288,17.848 C11.048,18.2586667 10.928,18.816 10.928,19.52 L10.928,19.52 L10.928,20 L18.976,20 Z M25.2,20.16 C25.904,20.16 26.5493333,19.992 27.136,19.656 C27.7226667,19.32 28.1866667,18.8586667 28.528,18.272 C28.8693333,17.6853333 29.04,17.0346667 29.04,16.32 L29.04,16.32 L29.04,12.72 C29.04,12.0053333 28.8693333,11.3546667 28.528,10.768 C28.1866667,10.1813333 27.7226667,9.71733333 27.136,9.376 C26.5493333,9.03466667 25.904,8.864 25.2,8.864 L25.2,8.864 L24.736,8.864 C24.032,8.864 23.3866667,9.03466667 22.8,9.376 C22.2133333,9.71733333 21.752,10.1813333 21.416,10.768 C21.08,11.3546667 20.912,12.0053333 20.912,12.72 L20.912,12.72 L20.912,16.32 C20.912,17.0346667 21.08,17.6853333 21.416,18.272 C21.752,18.8586667 22.2133333,19.32 22.8,19.656 C23.3866667,19.992 24.032,20.16 24.736,20.16 L24.736,20.16 L25.2,20.16 Z M24.976,18.288 C24.496,18.288 24.0933333,18.1226667 23.768,17.792 C23.4426667,17.4613333 23.28,17.056 23.28,16.576 L23.28,16.576 L23.28,12.448 C23.28,11.968 23.4426667,11.5626667 23.768,11.232 C24.0933333,10.9013333 24.496,10.736 24.976,10.736 C25.456,10.736 25.8586667,10.9013333 26.184,11.232 C26.5093333,11.5626667 26.672,11.968 26.672,12.448 L26.672,12.448 L26.672,16.576 C26.672,17.056 26.5093333,17.4613333 26.184,17.792 C25.8586667,18.1226667 25.456,18.288 24.976,18.288 Z M39.056,20 L39.056,18.064 L36.448,18.064 L36.448,8.944 L35.6,8.944 C34.928,9.31733333 34.2133333,9.63466667 33.456,9.896 C32.6986667,10.1573333 32.0213333,10.3093333 31.424,10.352 L31.424,10.352 L31.424,11.776 L34.096,11.776 L34.096,18.064 L31.44,18.064 L31.44,20 L39.056,20 Z M45.232,20.16 C46.0106667,20.16 46.7013333,20 47.304,19.68 C47.9066667,19.36 48.376,18.9173333 48.712,18.352 C49.048,17.7866667 49.216,17.1466667 49.216,16.432 C49.216,15.728 49.08,15.096 48.808,14.536 C48.536,13.976 48.1333333,13.5386667 47.6,13.224 C47.0666667,12.9093333 46.432,12.752 45.696,12.752 C44.928,12.752 44.2186667,13.008 43.568,13.52 L43.568,13.52 L43.76,11.104 L48.512,11.104 L48.512,9.024 L41.904,9.024 L41.456,15.12 L43.424,15.408 C43.8186667,14.8533333 44.3893333,14.576 45.136,14.576 C45.6693333,14.576 46.088,14.7493333 46.392,15.096 C46.696,15.4426667 46.848,15.8666667 46.848,16.368 C46.848,16.9226667 46.68,17.3706667 46.344,17.712 C46.008,18.0533333 45.568,18.224 45.024,18.224 C44.544,18.224 44.1253333,18.0613333 43.768,17.736 C43.4106667,17.4106667 43.2266667,16.9973333 43.216,16.496 L43.216,16.496 L41.024,16.496 C41.0346667,17.1786667 41.2026667,17.7973333 41.528,18.352 C41.8533333,18.9066667 42.3146667,19.3466667 42.912,19.672 C43.5093333,19.9973333 44.2026667,20.16 44.992,20.16 L44.992,20.16 L45.232,20.16 Z" id="2015" fill="#FFFFFF"></path>
                </g>
                <g id="Group-16" transform="translate(0.000000, 59.000000)" fill-rule="nonzero">
                    <rect id="Rectangle" stroke="#000000" stroke-width="3" fill="#000000" x="1.5" y="1.5" width="57" height="26"></rect>
                    <path d="M18.976,20 L18.976,17.952 L14.272,17.952 C14.272,17.9093333 14.352,17.8133333 14.512,17.664 C14.672,17.5146667 14.8053333,17.3973333 14.912,17.312 C15.8613333,16.5973333 16.672,15.9573333 17.344,15.392 C17.9306667,14.9013333 18.344,14.4133333 18.584,13.928 C18.824,13.4426667 18.944,12.8853333 18.944,12.256 C18.944,11.6693333 18.8053333,11.1173333 18.528,10.6 C18.2506667,10.0826667 17.8373333,9.664 17.288,9.344 C16.7386667,9.024 16.08,8.864 15.312,8.864 L15.312,8.864 L15.072,8.864 C14.0693333,8.864 13.2586667,9.05866667 12.64,9.448 C12.0213333,9.83733333 11.584,10.312 11.328,10.872 C11.072,11.432 10.944,12 10.944,12.576 C10.944,12.6933333 10.9493333,12.7946667 10.96,12.88 L10.96,12.88 L13.152,12.88 C13.1413333,12.784 13.136,12.64 13.136,12.448 C13.136,12.256 13.2,12.032 13.328,11.776 C13.456,11.52 13.656,11.2986667 13.928,11.112 C14.2,10.9253333 14.544,10.832 14.96,10.832 C15.472,10.832 15.856,10.9786667 16.112,11.272 C16.368,11.5653333 16.496,11.9093333 16.496,12.304 C16.496,12.656 16.4186667,12.9946667 16.264,13.32 C16.1093333,13.6453333 15.8293333,13.9626667 15.424,14.272 L15.424,14.272 L12.304,16.72 C11.8666667,17.0613333 11.528,17.4373333 11.288,17.848 C11.048,18.2586667 10.928,18.816 10.928,19.52 L10.928,19.52 L10.928,20 L18.976,20 Z M25.2,20.16 C25.904,20.16 26.5493333,19.992 27.136,19.656 C27.7226667,19.32 28.1866667,18.8586667 28.528,18.272 C28.8693333,17.6853333 29.04,17.0346667 29.04,16.32 L29.04,16.32 L29.04,12.72 C29.04,12.0053333 28.8693333,11.3546667 28.528,10.768 C28.1866667,10.1813333 27.7226667,9.71733333 27.136,9.376 C26.5493333,9.03466667 25.904,8.864 25.2,8.864 L25.2,8.864 L24.736,8.864 C24.032,8.864 23.3866667,9.03466667 22.8,9.376 C22.2133333,9.71733333 21.752,10.1813333 21.416,10.768 C21.08,11.3546667 20.912,12.0053333 20.912,12.72 L20.912,12.72 L20.912,16.32 C20.912,17.0346667 21.08,17.6853333 21.416,18.272 C21.752,18.8586667 22.2133333,19.32 22.8,19.656 C23.3866667,19.992 24.032,20.16 24.736,20.16 L24.736,20.16 L25.2,20.16 Z M24.976,18.288 C24.496,18.288 24.0933333,18.1226667 23.768,17.792 C23.4426667,17.4613333 23.28,17.056 23.28,16.576 L23.28,16.576 L23.28,12.448 C23.28,11.968 23.4426667,11.5626667 23.768,11.232 C24.0933333,10.9013333 24.496,10.736 24.976,10.736 C25.456,10.736 25.8586667,10.9013333 26.184,11.232 C26.5093333,11.5626667 26.672,11.968 26.672,12.448 L26.672,12.448 L26.672,16.576 C26.672,17.056 26.5093333,17.4613333 26.184,17.792 C25.8586667,18.1226667 25.456,18.288 24.976,18.288 Z M39.056,20 L39.056,18.064 L36.448,18.064 L36.448,8.944 L35.6,8.944 C34.928,9.31733333 34.2133333,9.63466667 33.456,9.896 C32.6986667,10.1573333 32.0213333,10.3093333 31.424,10.352 L31.424,10.352 L31.424,11.776 L34.096,11.776 L34.096,18.064 L31.44,18.064 L31.44,20 L39.056,20 Z M47.888,20 L47.888,17.44 L49.36,17.44 L49.36,15.552 L47.888,15.552 L47.888,10.208 L46.864,10.208 C46.736,10.6773333 46.5573333,11.1893333 46.328,11.744 C46.0986667,12.2986667 45.856,12.768 45.6,13.152 L45.6,13.152 L45.6,15.552 L42.56,15.552 C42.9013333,15.1573333 43.3093333,14.5706667 43.784,13.792 C44.2586667,13.0133333 44.704,12.1786667 45.12,11.288 C45.536,10.3973333 45.824,9.58933333 45.984,8.864 L45.984,8.864 L43.728,8.864 C43.44,9.87733333 43.0106667,11.0266667 42.44,12.312 C41.8693333,13.5973333 41.312,14.672 40.768,15.536 L40.768,15.536 L40.768,17.44 L45.6,17.44 L45.6,20 L47.888,20 Z" id="2014" fill="#FFFFFF"></path>
                </g>
            </g>
        </g>
    </g>
</svg>