<?xml version="1.0" encoding="UTF-8"?>
<svg width="83px" height="68px" viewBox="0 0 83 68" version="1.1" xmlns="http://www.w3.org/2000/svg" xmlns:xlink="http://www.w3.org/1999/xlink">
    <!-- Generator: Sketch 60 (88103) - https://sketch.com -->
    <title>Group 58</title>
    <desc>Created with Sketch.</desc>
    <g id="v3" stroke="none" stroke-width="1" fill="none" fill-rule="evenodd">
        <g id="About" transform="translate(-544.000000, -7369.000000)">
            <g id="Group-28" transform="translate(102.000000, 7040.000000)">
                <g id="Group-25">
                    <g id="Group-23" transform="translate(0.000000, 299.000000)">
                        <g id="Group-7" transform="translate(363.000000, 0.000000)">
                            <g id="Group-58" transform="translate(79.000000, 30.000000)">
                                <path d="M64.9311388,46.29 L65.5361238,47.3991391 L66.1945455,47.04 L66.1945455,46.29 L64.9311388,46.29 Z" id="Combined-Shape" stroke="#000000" stroke-width="1.5" fill="#FFFFFF"></path>
                                <path d="M13.6911388,46.29 L14.2961238,47.3991391 L14.9545455,47.04 L14.9545455,46.29 L13.6911388,46.29 Z" id="Combined-Shape" stroke="#000000" stroke-width="1.5" fill="#FFFFFF" transform="translate(15.750000, 39.060000) scale(-1, 1) translate(-15.750000, -39.060000) "></path>
                                <rect id="Rectangle" fill="#000000" transform="translate(39.900000, 6.510000) rotate(-270.000000) translate(-39.900000, -6.510000) " x="36.12" y="5.04" width="7.56" height="2.94" rx="1.47"></rect>
                                <rect id="Rectangle" fill="#000000" transform="translate(46.620000, 3.990000) rotate(-270.000000) translate(-46.620000, -3.990000) " x="42.84" y="2.52" width="7.56" height="2.94" rx="1.47"></rect>
                                <g id="Group-57" transform="translate(39.480000, 10.500000)" fill-rule="nonzero">
                                    <circle id="Oval" stroke="#000000" stroke-width="1.5" fill="#FAD843" cx="5.47408537" cy="5.47408537" r="5.47408537"></circle>
                                    <circle id="Oval" fill="#E8C83E" cx="5.565" cy="5.565" r="3.885"></circle>
                                </g>
                                <g id="Group-57" transform="translate(34.020000, 14.700000)" fill-rule="nonzero">
                                    <circle id="Oval" stroke="#000000" stroke-width="1.5" fill="#FAD843" cx="5.47408537" cy="5.47408537" r="5.47408537"></circle>
                                    <circle id="Oval" fill="#E8C83E" cx="5.565" cy="5.565" r="3.885"></circle>
                                </g>
                                <g id="Group-3" transform="translate(18.900000, 17.640000)" fill-rule="nonzero" stroke="#000000">
                                    <path d="M23.041706,2.1731153 C28.4835057,5.33829935 36.1547406,-1.06108971 34.515543,1.76588044 C33.499314,3.34692593 31.7272006,6.77291711 29.1992028,12.043854 C39.6516148,21.1834863 44.6378215,30.9048407 44.159142,41.2084241 C43.895175,44.8618456 40.0101141,48.388032 37.1311638,48.8997739 C35.7027455,49.2200754 8.23125292,49.2200754 6.92404457,48.8997739 C1.60002413,48.3055865 0.0939071231,42.9972539 0.0939071231,40.2803644 C0.259213044,29.3216901 5.37371253,19.9312217 15.4374056,12.1089591 C11.5951665,6.1152015 9.67404416,3.11884713 9.67404416,3.11884713 C8.53951734,1.24072086 14.779142,-2.31391486 23.041706,2.1731153 Z" id="Combined-Shape" stroke-width="2" fill="#D4C8BA"></path>
                                    <path d="M29.0242277,36.3782281 C30.5338107,34.4812402 30.6727898,32.2654112 28.5730045,30.2342212 C26.1955948,27.9343847 23.9570808,28.6898066 21.9961078,29.5795921 L17.6924281,25.4163385 C19.0633657,24.2245778 20.1565121,24.2748532 20.468923,23.972636 C20.7812505,23.6704995 20.5556806,23.0830119 20.3301108,22.8648022 C19.7575103,22.3108853 17.9353495,23.2340802 16.6339849,24.3924314 L16.1307906,23.905656 C15.9571918,23.7377217 15.5928097,23.7880778 15.4019429,23.972636 C15.1762896,24.1909264 15.1590215,24.5098483 15.3326202,24.6777826 L15.8705176,25.1981288 C14.464877,26.7593287 13.5104595,29.0255138 15.6969189,31.1406307 C17.9180814,33.2893182 20.0699213,32.2150551 22.13492,31.2581282 L27.184632,36.1430717 C24.980821,38.1744231 23.2282332,37.2174961 22.8117131,37.6204255 C22.5514401,37.8722059 22.6554659,38.4763982 22.9331738,38.7450447 C23.5579122,39.3493983 26.0741341,39.2990423 28.2778617,37.2006301 L28.9026002,37.8049838 C29.0761154,37.9728374 29.4057945,37.9561327 29.6314478,37.7378423 C29.8223146,37.5532034 29.8742858,37.2007108 29.7007705,37.0328572 L29.0242277,36.3782281 Z M16.4187395,30.1196796 C15.1346535,28.9330151 15.6725115,27.5700544 16.6790768,26.4796704 L20.7046704,30.1998493 C19.1776808,30.8734283 17.7723099,31.370557 16.4187395,30.1196796 Z M28.1582911,35.2996704 L23.2246704,30.7293572 C24.7607909,30.143562 26.2427015,29.8757331 27.8148749,31.3321332 C29.1522258,32.5710027 29.2245057,33.9437062 28.1582911,35.2996704 Z" id="Shape" stroke-width="0.63" fill="#000000" transform="translate(22.279670, 30.889670) rotate(-315.000000) translate(-22.279670, -30.889670) "></path>
                                </g>
                            </g>
                        </g>
                    </g>
                </g>
            </g>
        </g>
    </g>
</svg>