<svg xmlns="http://www.w3.org/2000/svg" width="37" height="38" viewBox="0 0 37 38">
    <g fill="none" stroke="#000">
        <path fill="#FAD843" stroke-width="1.5" d="M37.158 35.69c0 1.084-.882 1.966-1.965 1.966H3.833c-.485 0-.9-.176-1.17-.495-.27-.319-.375-.758-.296-1.236L7.608 4.46c.191-1.147 1.334-2.116 2.497-2.116h6.272c1.083 0 1.965.882 1.965 1.966v1.966h-3.93v-.083c0-.647-.525-1.172-1.171-1.172-.647 0-1.171.525-1.171 1.172v1.255c0 .647.524 1.172 1.17 1.172h5.102v1.966c0 1.084-.882 1.966-1.965 1.966-2.375 0-4.307 1.933-4.307 4.31v15.69c0 .647.524 1.172 1.17 1.172.647 0 1.172-.525 1.172-1.172 0-6.275 5.102-11.38 11.373-11.38 6.27 0 11.373 5.105 11.373 11.38v3.138z" transform="translate(-1 -1)"/>
        <path fill="#F1A4AB" d="M29.71 16.5c-2.638-2.777-4.032-4.665-4.184-5.663-.229-1.497 1.108-2.853 2.381-2.853.849 0 1.592.645 2.231 1.933.945-1.611 1.97-2.417 3.079-2.417 1.27 0 2.538.949 1.236 3.797-.869 1.9-2.45 3.634-4.744 5.203z" transform="translate(-1 -1)"/>
    </g>
</svg>
