<svg xmlns="http://www.w3.org/2000/svg" width="87" height="34" viewBox="0 0 87 34">
    <g fill="none" fill-rule="evenodd">
        <path fill="#1F1B24" fill-rule="nonzero" d="M42.564 20.4l.744-5.28h.06l.684 5.28h2.892l2.184-5.28h.048l-.744 5.28h2.52l1.164-8.232h-4.152l-1.788 4.392h-.048l-.564-4.392h-4.128L40.272 20.4h2.292zm15.24.12c.2 0 .414-.024.642-.072.228-.048.426-.116.594-.204l.18-1.32c-.16.104-.308.156-.444.156-.208 0-.312-.108-.312-.324 0-.192.064-.734.192-1.626.128-.892.276-1.846.444-2.862h-1.788l-.408.732h-.06c-.168-.272-.4-.482-.696-.63-.296-.148-.608-.222-.936-.222-.64 0-1.178.198-1.614.594-.436.396-.756.896-.96 1.5-.204.604-.306 1.218-.306 1.842 0 .728.166 1.316.498 1.764.332.448.85.672 1.554.672.328 0 .654-.088.978-.264.324-.176.594-.4.81-.672.088.368.274.616.558.744.284.128.642.192 1.074.192zm-2.484-1.452c-.184 0-.336-.066-.456-.198s-.18-.302-.18-.51c0-.064.084-.688.252-1.872.032-.24.13-.44.294-.6.164-.16.354-.24.57-.24.192 0 .346.06.462.18.116.12.174.292.174.516 0 .072-.028.284-.084.636l-.048.384-.12.864c-.04.248-.132.45-.276.606-.144.156-.34.234-.588.234zm6.816 1.332l.192-1.368.48-.372.84 1.74h2.796l-1.716-3.36 2.544-2.772H64.56l-1.884 2.28.672-4.788h-2.376l-1.2 8.64h2.364zm8.088.12c.608 0 1.154-.106 1.638-.318.484-.212.872-.502 1.164-.87.292-.368.47-.78.534-1.236h-2.196c-.04.304-.148.542-.324.714-.176.172-.404.258-.684.258-.24 0-.436-.062-.588-.186-.152-.124-.228-.298-.228-.522-.008-.024.008-.16.048-.408l.048-.3h3.996c.064-.472.1-.768.108-.888l.024-.324c0-.696-.224-1.252-.672-1.668-.448-.416-1.092-.624-1.932-.624h-.3c-.736 0-1.39.154-1.962.462-.572.308-1.02.752-1.344 1.332-.324.58-.486 1.266-.486 2.058 0 .52.126.97.378 1.35.252.38.604.67 1.056.87.452.2.966.3 1.542.3h.18zm1.212-3.912H69.78l.024-.168c.032-.232.138-.43.318-.594.18-.164.39-.246.63-.246.208 0 .378.07.51.21.132.14.198.314.198.522 0 .064-.004.12-.012.168-.008.048-.012.084-.012.108zm8.376-3.132l.24-1.716h-2.364l-.24 1.716h2.364zM78.84 20.4l.864-6.132H77.34l-.852 6.132h2.352zm3.72.132c.224 0 .506-.026.846-.078.34-.052.606-.114.798-.186l.192-1.344c-.096.04-.222.074-.378.102-.156.028-.282.042-.378.042-.2 0-.35-.04-.45-.12-.1-.08-.15-.24-.15-.48 0-.096.116-.928.348-2.496h1.44l.24-1.704h-1.44l.408-1.956h-2.508l-.276 1.956h-.672l-.24 1.704h.672l-.3 2.1c-.056.344-.092.59-.108.738-.016.148-.024.27-.024.366 0 .488.17.836.51 1.044.34.208.83.312 1.47.312z" transform="translate(1 1)"/>
        <path fill="#000" fill-rule="nonzero" d="M4.071.246L.246 4.071C.088 4.23 0 4.442 0 4.665V31.56c0 .464.376.84.84.84h26.895c.223 0 .436-.088.594-.246l3.825-3.825c.158-.158.246-.371.246-.594V.84c0-.464-.376-.84-.84-.84H4.665c-.223 0-.436.088-.594.246z" transform="translate(1 1)"/>
        <path fill="#459593" stroke="#1F1B24" stroke-width=".5" d="M4.199.373L.373 4.2C.25 4.322.18 4.49.18 4.665V31.56c0 .365.295.66.66.66h26.895c.175 0 .343-.07.466-.193l3.826-3.826c.123-.123.193-.291.193-.466V.84c0-.365-.295-.66-.66-.66H4.665c-.175 0-.343.07-.466.193z" transform="translate(1 1)"/>
        <path fill="#64C1BE" fill-rule="nonzero" stroke="#1F1B24" stroke-width=".5" d="M4.5 0.18H32.22V27.9H4.5z" transform="translate(1 1)"/>
        <g>
            <path fill="#000" fill-rule="nonzero" d="M0 11.796V.324C0 .184.113.07.253.07c.045 0 .09.012.129.035l6.57 3.888c.079.047.177.047.257 0L13.778.106c.12-.071.276-.031.347.089.023.039.035.084.035.129v11.472c0 .14-.113.253-.253.253-.045 0-.09-.012-.129-.035l-3.034-1.795c-.077-.046-.124-.129-.124-.218V6.399c0-.14-.113-.253-.253-.253-.045 0-.09.012-.129.035l-3.03 1.793c-.079.047-.177.047-.257 0L3.922 6.18c-.12-.07-.276-.031-.347.09-.023.038-.035.083-.035.128v3.602c0 .09-.047.172-.124.218L.382 12.014c-.12.071-.276.031-.347-.089-.023-.039-.035-.084-.035-.129z" transform="translate(1 1) translate(11.28 8.76)"/>
            <path fill="#FFF" stroke="#1F1B24" stroke-width=".5" d="M0 11.796V.324C0 .184.113.07.253.07c.045 0 .09.012.129.035l6.57 3.888c.079.047.177.047.257 0L13.778.106c.12-.071.276-.031.347.089.023.039.035.084.035.129v11.472c0 .14-.113.253-.253.253-.045 0-.09-.012-.129-.035l-3.034-1.795c-.077-.046-.124-.129-.124-.218V6.399c0-.14-.113-.253-.253-.253-.045 0-.09.012-.129.035l-3.03 1.793c-.079.047-.177.047-.257 0L3.922 6.18c-.12-.07-.276-.031-.347.09-.023.038-.035.083-.035.128v3.602c0 .09-.047.172-.124.218L.382 12.014c-.12.071-.276.031-.347-.089-.023-.039-.035-.084-.035-.129z" transform="translate(1 1) translate(11.28 8.76)"/>
        </g>
        <path stroke="#1F1B24" stroke-width=".5" d="M.36 32.04l4.32-4.32-4.32 4.32z" transform="translate(1 1)"/>
    </g>
</svg>
