<?xml version="1.0" encoding="UTF-8"?>
<svg width="407px" height="407px" viewBox="0 0 407 407" version="1.1" xmlns="http://www.w3.org/2000/svg" xmlns:xlink="http://www.w3.org/1999/xlink">
    <!-- Generator: Sketch 60 (88103) - https://sketch.com -->
    <title>Combined Shape</title>
    <desc>Created with Sketch.</desc>
    <g id="v3" stroke="none" stroke-width="1" fill="none" fill-rule="evenodd">
        <g id="StaaS" transform="translate(-1004.000000, -1690.000000)" fill="#F1A4AB" stroke="#000000" stroke-width="3">
            <path d="M1045.00006,1728 L1369.99335,1728.00659 C1371.65015,1728.00675 1372.99325,1729.34985 1372.99341,1731.00665 L1372.99341,1731.00665 L1373,2055.99994 L1373,2055.99994 C1373.00009,2057.65692 1371.65692,2059.00003 1370.00006,2058.99988 L1370.00006,2058.99988 L1045.00677,2058.99329 C1043.34997,2058.99313 1042.00687,2057.65003 1042.00671,2055.99322 L1042.00671,2055.99322 L1042,1730.99982 C1042.00003,1729.34296 1043.34321,1727.99984 1045.00006,1728 L1045.00006,1728 Z M1123.00006,1806 C1121.34321,1805.99984 1120.00003,1807.34296 1120,1808.99982 L1120.00355,1977.99639 C1120.0037,1979.6532 1121.3468,1980.99629 1123.00361,1980.99645 L1292.00006,1980.99988 C1293.65692,1981.00003 1295.00009,1979.65692 1295.00012,1978.00006 L1295,1977.99994 L1294.99657,1809.00349 C1294.99642,1807.34668 1293.65332,1806.00358 1291.99651,1806.00343 L1123.00006,1806 Z" id="Combined-Shape" transform="translate(1207.500000, 1893.499939) rotate(-345.000000) translate(-1207.500000, -1893.499939) "></path>
        </g>
    </g>
</svg>