<svg xmlns="http://www.w3.org/2000/svg" width="187" height="73" viewBox="0 0 187 73">
    <g fill="none" fill-rule="evenodd">
        <path fill="#FFD550" fill-rule="nonzero" d="M93.5 21C81.137 21 68 17.307 68 10.5S81.137 0 93.5 0 119 3.693 119 10.5c0 6.833-13.137 10.5-25.5 10.5m0-17.781c-13.778 0-22.242 4.247-22.242 7.281s8.464 7.281 22.242 7.281 22.242-4.247 22.242-7.281-8.464-7.281-22.242-7.281M0 63.368V30h3.823v12.8c1.99-3.398 4.032-4.767 7.227-4.767 5.918 0 9.95 5.214 9.95 12.852C21 58.6 16.81 64 10.893 64c-3.326 0-5.708-1.501-7.672-4.74l-1.388 4.108H0zm3.823-9.665c.262 2.29.602 3.344 1.492 4.608 1.205 1.554 3.247 2.555 5.185 2.555 3.928 0 6.468-3.713 6.468-9.455 0-3.055-.734-6.057-1.99-7.9-.943-1.396-2.697-2.292-4.478-2.292-1.78 0-3.378.79-4.713 2.291-1.152 1.344-1.597 2.45-1.938 4.662v5.53h-.026zM47.536 56.748C45.872 61.31 41.888 64 36.705 64 29.693 64 25 58.832 25 51.132 25 43.352 29.884 38 36.868 38c4.311 0 7.83 2.11 9.631 5.722 1.037 2.162 1.446 4.22 1.501 7.62H29.393c0 2.901.272 4.22 1.036 5.75 1.146 2.24 3.793 3.77 6.521 3.77 2.074 0 4.038-.791 5.348-2.241.573-.607.982-1.292 1.555-2.61l3.683.737zm-3.901-8.253c-.055-2.294-.41-3.454-1.446-4.905-1.31-1.766-3.002-2.61-5.293-2.61-2.238 0-4.093.896-5.484 2.558-1.146 1.397-1.556 2.61-1.828 4.957h14.05z"/>
        <path fill="#3586F0" fill-rule="nonzero" d="M68.278 63.341c-.257-1.211-.257-1.66-.437-4.451C65.89 62.55 63.502 64 59.395 64 54.415 64 51 60.944 51 56.545c0-2.792 1.566-5.453 4.056-6.77 2.182-1.212 5.468-1.791 9.653-1.791.873 0 1.617 0 3.132.105v-.79c0-4.663-1.694-6.349-6.29-6.349-3.62 0-5.802 1.555-6.443 4.505l-3.466-.606c.334-1.844.77-2.792 1.797-3.846 1.9-2.002 4.929-3.003 8.934-3.003 3.62 0 6.059.948 7.47 2.898 1.181 1.66 1.618 3.609 1.618 7.218v10.457c0 1.792.154 3.293.539 4.795h-3.722v-.027zm-3.62-12.46c-6.239 0-9.653 2.002-9.653 5.77 0 2.66 2.002 4.399 5.109 4.399 4.39 0 7.753-3.715 7.753-8.456 0-.448 0-.949-.052-1.607-1.309-.053-2.567-.106-3.157-.106z"/>
        <path fill="#3586F0" d="M96.478 64V48.356c0-3.95-1.749-6.082-4.988-6.082-3.908 0-6.736 3.56-6.736 8.342V64H81V39.65h3.47v4.496C86.966 40.299 88.868 39 92.185 39c3.034 0 5.58 1.585 6.942 4.236.643 1.247.874 3.066.874 6.679V64h-3.522z"/>
        <path fill="#3586F0" fill-rule="nonzero" d="M127.13 37.227c-3.198-.054-4.221.624-4.58 2.875 1.51 1.844 2.278 3.906 2.278 6.13 0 4.936-3.838 8.461-9.185 8.461-.64 0-1.177-.054-1.663-.162-.768-.163-1.356-.272-1.56-.272-1.254 0-2.533 1.194-2.533 2.414 0 .814.383 1.438 1.202 1.844.819.407 1.79.516 6.217.678 4.963.163 6.55.407 8.059 1.492 1.714 1.14 2.635 2.93 2.635 5.045 0 4.8-4.093 7.268-12.05 7.268-7.138 0-10.95-2.332-10.95-6.699 0-2.468 1.126-4.014 3.659-5.044-1.74-1.33-2.329-2.36-2.329-4.123 0-2.061.87-3.254 3.3-4.475-2.225-2.06-3.12-3.96-3.12-6.753 0-4.936 3.888-8.651 9.133-8.651 1.79 0 3.351.352 4.912 1.193.256-1.492.69-2.468 1.51-3.309.818-.868 1.79-1.139 4.042-1.139.281 0 .486 0 .972.054v3.173h.051zM108.66 65.921c0 .814.332 1.709.87 2.17 1.304 1.193 3.94 1.899 6.754 1.899 1.944 0 4.042-.353 5.68-.923 1.662-.57 2.532-1.708 2.532-3.146 0-1.139-.537-1.898-1.663-2.413-1.177-.57-1.612-.624-5.782-.733-2.43-.054-4.656-.217-5.782-.352-1.995 1.03-2.61 1.898-2.61 3.498zm1.74-19.825c0 3.336 2.148 5.56 5.346 5.56 3.122 0 5.347-2.278 5.347-5.452 0-3.308-2.225-5.776-5.296-5.776-3.172 0-5.398 2.305-5.398 5.668zM152.536 56.748C150.872 61.31 146.888 64 141.705 64 134.693 64 130 58.832 130 51.132 130 43.352 134.884 38 141.868 38c4.311 0 7.83 2.11 9.631 5.722 1.037 2.162 1.446 4.22 1.501 7.62h-18.607c0 2.901.272 4.22 1.036 5.75 1.146 2.24 3.793 3.77 6.521 3.77 2.074 0 4.038-.791 5.348-2.241.573-.607.982-1.292 1.555-2.61l3.683.737zm-3.901-8.253c-.055-2.294-.41-3.454-1.446-4.905-1.283-1.766-3.002-2.61-5.293-2.61-2.238 0-4.093.896-5.484 2.558-1.146 1.397-1.556 2.61-1.801 4.957h14.024z"/>
        <path fill="#3586F0" d="M157 30h4v34h-4zM169.64 56.187c.392 1.399.785 2.164 1.597 2.798 1.388 1.161 3.744 1.847 6.022 1.847 3.43 0 5.761-1.61 5.761-4.012 0-2.006-1.44-3.273-4.216-3.8l-5.184-.951c-4.19-.792-6.625-3.3-6.625-6.81 0-4.355 3.692-7.259 9.243-7.259 5.132 0 8.458 2.164 9.662 6.256l-3.482.739c-1.152-2.666-3.142-3.854-6.258-3.854-3.195 0-5.263 1.452-5.263 3.67 0 1.847 1.256 2.955 3.822 3.457l4.818.845c5.028.897 7.463 3.3 7.463 7.311 0 4.514-4.032 7.576-10.107 7.576-3.483 0-6.258-.897-8.353-2.745-1.283-1.109-1.938-2.165-2.54-4.303l3.64-.765z"/>
    </g>
</svg>
