<svg xmlns="http://www.w3.org/2000/svg" width="168" height="105" viewBox="0 0 168 105">
    <g fill="none" fill-rule="evenodd">
        <path fill="#1D1C1B" d="M18.62 27.232a1.028 1.028 0 0 0-.397-.08c-.44 0-.83.276-.998.714L9.614 49.609 2.046 27.884a1 1 0 0 0-.966-.732c-.131 0-.26.025-.384.074a.99.99 0 0 0-.592.525 1.09 1.09 0 0 0-.032.854l8.583 24.592c.178.426.536.68.958.68.434 0 .825-.267 1.002-.699l8.62-24.59c.167-.575-.117-1.187-.615-1.356"/>
        <path fill="#1D1C1B" fill-rule="nonzero" d="M33.207 42.297V43.3h-9.021v-1.043c0-1.52.318-2.636.944-3.318.672-.729 1.772-1.12 3.363-1.195 1.768.001 3.037.403 3.764 1.188.648.74.95 1.81.95 3.365m-4.774-6.727h-.003c-2.188.125-3.81.758-4.822 1.883-1.038 1.155-1.543 2.726-1.543 4.804v4.931c0 2.12.506 3.693 1.54 4.8 1.095 1.253 2.892 1.89 5.34 1.89 1.863 0 3.501-.274 4.871-.815.56-.23.828-.855.608-1.424a1.023 1.023 0 0 0-.968-.67 1.1 1.1 0 0 0-.418.084c-1.103.43-2.48.649-4.093.649-1.797 0-3.08-.402-3.815-1.195-.626-.682-.944-1.799-.944-3.319v-1.713h10.08c.566 0 1.061-.508 1.061-1.087v-2.091c0-2.165-.507-3.739-1.538-4.8-1.117-1.279-2.913-1.927-5.356-1.927"/>
        <path fill="#1D1C1B" d="M47.053 35.57c-1.787 0-3.343.29-4.74.888-.096-.492-.541-.889-1.04-.889-.585 0-1.061.488-1.061 1.087v16.133c0 .62.456 1.088 1.061 1.088.584 0 1.06-.488 1.06-1.088V38.827c.098-.05.173-.082.175-.082l.032-.015c1.216-.664 2.693-.986 4.513-.986 1.74 0 2.956.398 3.624 1.194.625.68.943 1.81.943 3.36v10.491c0 .62.456 1.088 1.06 1.088.573 0 1.022-.478 1.022-1.088V42.297c0-2.082-.491-3.755-1.423-4.84-1.095-1.253-2.854-1.888-5.226-1.888M66.689 51.662h-.047c-.116 0-2.859-.02-4.655-1.836-1.129-1.124-1.701-2.755-1.701-4.847v-7.275h4.76c.584 0 1.06-.487 1.06-1.087s-.476-1.088-1.06-1.088h-4.76v-6.565c0-.589-.468-1.087-1.022-1.087-.584 0-1.06.488-1.06 1.087v16.015c0 2.699.781 4.85 2.32 6.394 2.316 2.345 5.513 2.464 6.13 2.464h.04c.583 0 1.057-.488 1.057-1.088 0-.6-.474-1.087-1.062-1.087M83 35.57c-.584 0-1.06.487-1.06 1.086v13.953l-.206.107c-1.216.663-2.692.986-4.513.986-1.731 0-2.962-.4-3.656-1.188-.607-.698-.914-1.83-.914-3.366V36.656c0-.579-.495-1.087-1.058-1.087-.565 0-1.061.508-1.061 1.087v10.492c0 2.128.493 3.758 1.462 4.84 1.095 1.253 2.854 1.889 5.227 1.889 1.783 0 3.338-.29 4.736-.888a1.04 1.04 0 0 0 1.044.888c.584 0 1.06-.488 1.06-1.088V36.656c0-.579-.495-1.087-1.06-1.087M96.276 35.57h-.49c-1.785 0-3.34.29-4.737.887a1.07 1.07 0 0 0-1.042-.887c-.565 0-1.061.507-1.061 1.086v16.133c0 .6.476 1.088 1.06 1.088.605 0 1.06-.468 1.06-1.088V38.836l.204-.104c1.272-.674 2.708-.988 4.517-.988h.42a1.07 1.07 0 0 0 1.062-1.032c.045-.595-.38-1.084-.993-1.141"/>
        <path fill="#1D1C1B" fill-rule="nonzero" d="M111.036 42.297V43.3h-9.021v-1.043c0-1.52.317-2.638.942-3.318.673-.729 1.773-1.12 3.364-1.195 1.769.001 3.038.403 3.765 1.188.639.732.95 1.833.95 3.365m-4.776-6.727h-.003c-2.187.125-3.808.758-4.82 1.883-1.039 1.155-1.543 2.726-1.543 4.804v4.931c0 2.12.506 3.693 1.54 4.8 1.093 1.253 2.89 1.89 5.34 1.89 1.862 0 3.5-.274 4.871-.815a1.11 1.11 0 0 0 .606-1.423 1.032 1.032 0 0 0-.967-.67c-.144 0-.287.029-.42.083-1.1.43-2.477.649-4.09.649-1.797 0-3.081-.403-3.816-1.195-.626-.681-.943-1.798-.943-3.319v-1.713h10.08c.565 0 1.06-.508 1.06-1.087v-2.091c0-2.164-.507-3.738-1.538-4.8-1.117-1.279-2.913-1.927-5.357-1.927"/>
        <path fill="#1D1C1B" d="M132.117 51.702H120.16V28.255c0-.6-.476-1.087-1.06-1.087-.605 0-1.06.467-1.06 1.087v24.534c0 .6.475 1.088 1.06 1.088h13.017c.565 0 1.06-.508 1.06-1.088 0-.6-.476-1.087-1.06-1.087"/>
        <path fill="#1D1C1B" fill-rule="nonzero" d="M145.793 50.441c-.886.766-2.5 1.26-4.11 1.26-.921 0-1.764-.153-2.435-.445-1.396-.612-2.019-1.696-2.019-3.516 0-.948.24-1.602.769-2.113.829-.744 2.288-1.138 4.22-1.138.344 0 .67 0 1.015.04a24.67 24.67 0 0 1 3.016.379v4.968a1.897 1.897 0 0 1-.456.565M141.91 35.57c-1.77 0-3.304.246-4.577.739-.5.228-.765.84-.604 1.39l.015.04c.17.396.558.652.986.652.137 0 .272-.027.392-.077.991-.378 2.266-.57 3.788-.57 1.719 0 2.866.339 3.508 1.036.559.61.83 1.567.83 2.925v1.01a23.315 23.315 0 0 0-2.861-.361c-3.122-.201-5.417.373-6.832 1.707-.96.903-1.447 2.14-1.447 3.679 0 2.658 1.11 4.514 3.304 5.519.959.41 2.058.618 3.27.618 1.64 0 3.3-.423 4.566-1.149v.061c0 .58.495 1.088 1.06 1.088.585 0 1.06-.488 1.06-1.088V41.705c0-1.978-.47-3.424-1.43-4.414-1.07-1.142-2.761-1.721-5.028-1.721M160.173 51.702c-1.646 0-3.115-.325-4.5-.998a2.03 2.03 0 0 1-.299-.173V38.946c.041-.027.094-.059.163-.094l.18-.133c1.286-.656 2.744-.975 4.456-.975 1.715 0 2.918.398 3.586 1.194.608.663.904 1.761.904 3.359v4.851c0 1.598-.296 2.696-.915 3.37-.657.786-1.86 1.184-3.575 1.184m5.152-14.2c-1.056-1.256-2.79-1.893-5.152-1.893-1.842 0-3.383.291-4.799.913v-7.518c0-.58-.494-1.088-1.059-1.088-.585 0-1.06.488-1.06 1.088v23.785c0 .62.455 1.088 1.06 1.088.541 0 .989-.419 1.052-.957 1.443.635 3.057.957 4.806.957 2.362 0 4.095-.637 5.146-1.886.972-1.085 1.465-2.715 1.465-4.843v-4.851c0-2.103-.493-3.719-1.459-4.795"/>
        <path fill="#D3007E" d="M166.336 60.947c0 .724-.565 1.312-1.26 1.312H1.616c-.697 0-1.26-.588-1.26-1.312 0-.726.563-1.313 1.26-1.313h163.46c.695 0 1.26.587 1.26 1.313"/>
        <path fill="#1B1B19" d="M.49 73.226c-.096-.03-.145-.132-.117-.232.03-.102.128-.163.226-.132.892.283 2.068.354 2.705-.121.303-.233.44-.566.44-1.02 0-1.031-.783-1.375-1.626-1.728-.804-.354-1.646-.717-1.646-1.727 0-.425.146-.758.431-1.011.735-.636 2.194-.455 2.774-.354.107.02.175.121.156.222-.019.102-.118.172-.205.152-.423-.07-1.853-.273-2.481.272-.205.173-.303.406-.303.719 0 .757.656 1.04 1.421 1.373.872.374 1.843.798 1.843 2.082 0 .575-.197 1.02-.588 1.323-.402.313-.96.424-1.52.424-.53 0-1.067-.101-1.51-.242"/>
        <path stroke="#1D1C1B" stroke-width=".66" d="M.49 73.226c-.096-.03-.145-.132-.117-.232.03-.102.128-.163.226-.132.892.283 2.068.354 2.705-.121.303-.233.44-.566.44-1.02 0-1.031-.783-1.375-1.626-1.728-.804-.354-1.646-.717-1.646-1.727 0-.425.146-.758.431-1.011.735-.636 2.194-.455 2.774-.354.107.02.175.121.156.222-.019.102-.118.172-.205.152-.423-.07-1.853-.273-2.481.272-.205.173-.303.406-.303.719 0 .757.656 1.04 1.421 1.373.872.374 1.843.798 1.843 2.082 0 .575-.197 1.02-.588 1.323-.402.313-.96.424-1.52.424-.53 0-1.067-.101-1.51-.242z"/>
        <path fill="#1B1B19" d="M8.322 73.266a.19.19 0 0 1-.186.192h-.01c-.127 0-.93-.02-1.51-.606-.38-.384-.567-.91-.567-1.576v-4.102c0-.101.079-.192.187-.192.097 0 .175.09.175.192v1.768h1.303a.19.19 0 0 1 .187.192.19.19 0 0 1-.187.192H6.411v1.95c0 .556.157 1 .461 1.303.5.505 1.255.495 1.255.495h.009c.099 0 .186.081.186.192"/>
        <path stroke="#1D1C1B" stroke-width=".66" d="M8.322 73.266a.19.19 0 0 1-.186.192h-.01c-.127 0-.93-.02-1.51-.606-.38-.384-.567-.91-.567-1.576v-4.102c0-.101.079-.192.187-.192.097 0 .175.09.175.192v1.768h1.303a.19.19 0 0 1 .187.192.19.19 0 0 1-.187.192H6.411v1.95c0 .556.157 1 .461 1.303.5.505 1.255.495 1.255.495h.009c.099 0 .186.081.186.192z"/>
        <path fill="#1B1B19" d="M13.311 72.892v.384a.19.19 0 0 1-.186.192c-.108 0-.186-.08-.186-.192v-.08c-.373.181-.795.272-1.294.272-.588 0-1.01-.152-1.274-.454-.235-.263-.353-.667-.353-1.182v-2.688c0-.1.088-.192.186-.192.097 0 .186.091.186.192v2.688c0 .424.089.727.256.92.195.221.529.332.999.332s.862-.08 1.195-.262l.099-.05v-3.628c0-.1.078-.192.186-.192.097 0 .186.091.186.192V72.892z"/>
        <path stroke="#1D1C1B" stroke-width=".66" d="M13.311 72.892v.384a.19.19 0 0 1-.186.192c-.108 0-.186-.08-.186-.192v-.08c-.373.181-.795.272-1.294.272-.588 0-1.01-.152-1.274-.454-.235-.263-.353-.667-.353-1.182v-2.688c0-.1.088-.192.186-.192.097 0 .186.091.186.192v2.688c0 .424.089.727.256.92.195.221.529.332.999.332s.862-.08 1.195-.262l.099-.05v-3.628c0-.1.078-.192.186-.192.097 0 .186.091.186.192V72.892z"/>
        <path fill="#1B1B19" fill-rule="nonzero" d="M18.231 72.74v-3.05c-.03-.02-.059-.04-.099-.061l-.048-.04c-.314-.162-.705-.252-1.166-.252-.47 0-.804.11-.99.333-.167.191-.254.495-.254.919v1.243c0 .424.087.727.254.919.186.222.52.333.99.333.45 0 .833-.09 1.176-.263 0 0 .068-.03.137-.08m.373-5.557v6.092a.19.19 0 0 1-.186.192c-.108 0-.187-.08-.187-.192v-.1a2.908 2.908 0 0 1-1.313.292c-.578 0-1-.151-1.265-.454-.235-.263-.352-.657-.352-1.182v-1.243c0-.515.117-.91.352-1.172.264-.303.687-.455 1.265-.455.51 0 .93.091 1.313.283v-2.06c0-.102.079-.193.187-.193.097 0 .186.091.186.192"/>
        <path stroke="#1D1C1B" stroke-width=".66" d="M18.231 72.74v-3.05c-.03-.02-.059-.04-.099-.061l-.048-.04c-.314-.162-.705-.252-1.166-.252-.47 0-.804.11-.99.333-.167.191-.254.495-.254.919v1.243c0 .424.087.727.254.919.186.222.52.333.99.333.45 0 .833-.09 1.176-.263 0 0 .068-.03.137-.08zm.373-5.556v6.092a.19.19 0 0 1-.186.192c-.108 0-.187-.08-.187-.192v-.1a2.908 2.908 0 0 1-1.313.292c-.578 0-1-.151-1.265-.454-.235-.263-.352-.657-.352-1.182v-1.243c0-.515.117-.91.352-1.172.264-.303.687-.455 1.265-.455.51 0 .93.091 1.313.283v-2.06c0-.102.079-.193.187-.193.097 0 .186.091.186.192z"/>
        <path fill="#1B1B19" fill-rule="nonzero" d="M23.445 70.589c0-.424-.088-.717-.264-.92-.205-.221-.55-.333-1.03-.333-.43.02-.734.132-.92.334-.176.191-.265.495-.265.909v.353h2.48v-.343zm.373 0v.535c0 .101-.089.192-.186.192h-2.666v.526c0 .414.089.717.265.91.205.221.548.332 1.038.332.432 0 .794-.06 1.079-.172a.18.18 0 0 1 .244.102c.04.1-.01.212-.107.252-.334.132-.735.202-1.216.202-.598 0-1.038-.152-1.303-.454-.245-.263-.372-.647-.372-1.172v-1.263c0-.516.127-.9.372-1.172.245-.273.647-.424 1.176-.455v.01-.01c.597 0 1.039.162 1.303.465.254.263.373.646.373 1.172z"/>
        <path stroke="#1D1C1B" stroke-width=".66" d="M23.445 70.589c0-.424-.088-.717-.264-.92-.205-.221-.55-.333-1.03-.333-.43.02-.734.132-.92.334-.176.191-.265.495-.265.909v.353h2.48v-.343zm.373 0v.535c0 .101-.089.192-.186.192h-2.666v.526c0 .414.089.717.265.91.205.221.548.332 1.038.332.432 0 .794-.06 1.079-.172a.18.18 0 0 1 .244.102c.04.1-.01.212-.107.252-.334.132-.735.202-1.216.202-.598 0-1.038-.152-1.303-.454-.245-.263-.372-.647-.372-1.172v-1.263c0-.516.127-.9.372-1.172.245-.273.647-.424 1.176-.455v.01-.01c.597 0 1.039.162 1.303.465.254.263.373.646.373 1.172z"/>
        <path fill="#1B1B19" d="M29.336 70.589v2.687c0 .111-.078.192-.176.192a.185.185 0 0 1-.187-.192V70.59c0-.415-.087-.728-.265-.92-.186-.221-.518-.333-.99-.333-.47 0-.861.08-1.195.262 0 0-.049.02-.097.051v3.627a.19.19 0 0 1-.187.192c-.108 0-.186-.08-.186-.192V69.144c0-.1.078-.192.186-.192.098 0 .187.091.187.192v.081c.372-.182.793-.273 1.292-.273.58 0 1.01.151 1.276.455.224.263.342.667.342 1.182"/>
        <path stroke="#1D1C1B" stroke-width=".66" d="M29.336 70.589v2.687c0 .111-.078.192-.176.192a.185.185 0 0 1-.187-.192V70.59c0-.415-.087-.728-.265-.92-.186-.221-.518-.333-.99-.333-.47 0-.861.08-1.195.262 0 0-.049.02-.097.051v3.627a.19.19 0 0 1-.187.192c-.108 0-.186-.08-.186-.192V69.144c0-.1.078-.192.186-.192.098 0 .187.091.187.192v.081c.372-.182.793-.273 1.292-.273.58 0 1.01.151 1.276.455.224.263.342.667.342 1.182z"/>
        <path fill="#1B1B19" d="M33.746 73.266a.19.19 0 0 1-.186.192h-.01c-.127 0-.931-.02-1.508-.606-.383-.384-.57-.91-.57-1.576v-4.102c0-.101.079-.192.187-.192.099 0 .177.09.177.192v1.768h1.303a.19.19 0 0 1 .186.192c0 .1-.078.192-.186.192h-1.303v1.95c0 .556.157 1 .46 1.303.5.505 1.254.495 1.254.495h.01a.19.19 0 0 1 .186.192"/>
        <path stroke="#1D1C1B" stroke-width=".66" d="M33.746 73.266a.19.19 0 0 1-.186.192h-.01c-.127 0-.931-.02-1.508-.606-.383-.384-.57-.91-.57-1.576v-4.102c0-.101.079-.192.187-.192.099 0 .177.09.177.192v1.768h1.303a.19.19 0 0 1 .186.192c0 .1-.078.192-.186.192h-1.303v1.95c0 .556.157 1 .46 1.303.5.505 1.254.495 1.254.495h.01a.19.19 0 0 1 .186.192z"/>
        <path fill="#1B1B19" d="M42.823 73.276c0 .101-.089.192-.186.192h-3.5a.19.19 0 0 1-.185-.192v-6.284c0-.11.078-.192.186-.192h3.499a.19.19 0 0 1 .186.192c0 .101-.089.192-.186.192h-3.323v2.556h3.107c.098 0 .186.08.186.192 0 .101-.088.192-.186.192h-3.107v2.96h3.323c.097 0 .186.08.186.192"/>
        <path stroke="#1D1C1B" stroke-width=".66" d="M42.823 73.276c0 .101-.089.192-.186.192h-3.5a.19.19 0 0 1-.185-.192v-6.284c0-.11.078-.192.186-.192h3.499a.19.19 0 0 1 .186.192c0 .101-.089.192-.186.192h-3.323v2.556h3.107c.098 0 .186.08.186.192 0 .101-.088.192-.186.192h-3.107v2.96h3.323c.097 0 .186.08.186.192z"/>
        <path fill="#1B1B19" d="M48.341 70.589v2.687c0 .111-.078.192-.177.192-.108 0-.186-.08-.186-.192V70.59c0-.415-.087-.728-.265-.92-.186-.221-.518-.333-.99-.333-.47 0-.86.08-1.195.262 0 0-.049.02-.097.051v3.627a.19.19 0 0 1-.187.192c-.108 0-.186-.08-.186-.192V69.144c0-.1.078-.192.186-.192.098 0 .187.091.187.192v.081c.372-.182.793-.273 1.292-.273.58 0 1.01.151 1.275.455.225.263.343.667.343 1.182"/>
        <path stroke="#1D1C1B" stroke-width=".66" d="M48.341 70.589v2.687c0 .111-.078.192-.177.192-.108 0-.186-.08-.186-.192V70.59c0-.415-.087-.728-.265-.92-.186-.221-.518-.333-.99-.333-.47 0-.86.08-1.195.262 0 0-.049.02-.097.051v3.627a.19.19 0 0 1-.187.192c-.108 0-.186-.08-.186-.192V69.144c0-.1.078-.192.186-.192.098 0 .187.091.187.192v.081c.372-.182.793-.273 1.292-.273.58 0 1.01.151 1.275.455.225.263.343.667.343 1.182z"/>
        <path fill="#1B1B19" d="M52.752 73.266a.19.19 0 0 1-.187.192h-.01c-.127 0-.93-.02-1.508-.606-.383-.384-.57-.91-.57-1.576v-4.102c0-.101.079-.192.187-.192.097 0 .176.09.176.192v1.768h1.304a.19.19 0 0 1 .186.192c0 .1-.078.192-.186.192H50.84v1.95c0 .556.158 1 .46 1.303.502.505 1.255.495 1.255.495h.01a.19.19 0 0 1 .187.192"/>
        <path stroke="#1D1C1B" stroke-width=".66" d="M52.752 73.266a.19.19 0 0 1-.187.192h-.01c-.127 0-.93-.02-1.508-.606-.383-.384-.57-.91-.57-1.576v-4.102c0-.101.079-.192.187-.192.097 0 .176.09.176.192v1.768h1.304a.19.19 0 0 1 .186.192c0 .1-.078.192-.186.192H50.84v1.95c0 .556.158 1 .46 1.303.502.505 1.255.495 1.255.495h.01a.19.19 0 0 1 .187.192z"/>
        <path fill="#1B1B19" d="M56.652 69.155c0 .1-.087.181-.186.181h-.108c-.47 0-.852.08-1.195.262l-.098.051v3.627c0 .111-.078.192-.186.192a.188.188 0 0 1-.186-.192V69.144c0-.1.087-.192.186-.192a.19.19 0 0 1 .186.192v.081c.373-.182.794-.273 1.293-.273h.118c.108.01.187.091.176.203"/>
        <path stroke="#1D1C1B" stroke-width=".66" d="M56.652 69.155c0 .1-.087.181-.186.181h-.108c-.47 0-.852.08-1.195.262l-.098.051v3.627c0 .111-.078.192-.186.192a.188.188 0 0 1-.186-.192V69.144c0-.1.087-.192.186-.192a.19.19 0 0 1 .186.192v.081c.373-.182.794-.273 1.293-.273h.118c.108.01.187.091.176.203z"/>
        <path fill="#1B1B19" fill-rule="nonzero" d="M61.16 70.589c0-.424-.087-.717-.264-.92-.206-.221-.549-.333-1.029-.333-.431.02-.736.132-.922.334-.176.191-.264.495-.264.909v.353h2.479v-.343zm.374 0v.535c0 .101-.089.192-.186.192H58.68v.526c0 .414.088.717.264.91.207.221.55.332 1.04.332.43 0 .794-.06 1.078-.172.097-.04.205 0 .245.102.04.1-.01.212-.108.252-.332.132-.734.202-1.215.202-.598 0-1.04-.152-1.304-.454-.244-.263-.373-.647-.373-1.172v-1.263c0-.516.129-.9.373-1.172.245-.273.647-.424 1.176-.455v.01-.01c.598 0 1.039.162 1.303.465.256.263.374.646.374 1.172z"/>
        <path stroke="#1D1C1B" stroke-width=".66" d="M61.16 70.589c0-.424-.087-.717-.264-.92-.206-.221-.549-.333-1.029-.333-.431.02-.736.132-.922.334-.176.191-.264.495-.264.909v.353h2.479v-.343zm.374 0v.535c0 .101-.089.192-.186.192H58.68v.526c0 .414.088.717.264.91.207.221.55.332 1.04.332.43 0 .794-.06 1.078-.172.097-.04.205 0 .245.102.04.1-.01.212-.108.252-.332.132-.734.202-1.215.202-.598 0-1.04-.152-1.304-.454-.244-.263-.373-.647-.373-1.172v-1.263c0-.516.129-.9.373-1.172.245-.273.647-.424 1.176-.455v.01-.01c.598 0 1.039.162 1.303.465.256.263.374.646.374 1.172z"/>
        <path fill="#1B1B19" fill-rule="nonzero" d="M66.689 70.589c0-.424-.089-.728-.256-.92-.186-.221-.518-.333-.98-.333-.45 0-.841.091-1.175.262a.424.424 0 0 0-.138.082v3.05c.02.021.05.041.089.061l.049.04c.323.163.706.253 1.176.253.46 0 .793-.11.98-.333.166-.192.255-.495.255-.92V70.59zm.372 0v1.243c0 .515-.118.909-.353 1.171-.254.304-.685.455-1.254.455-.51 0-.94-.091-1.314-.283v2.435c0 .11-.087.192-.186.192-.108 0-.186-.081-.186-.192v-6.466c0-.1.078-.192.186-.192.099 0 .186.091.186.192v.101a2.844 2.844 0 0 1 1.314-.293c.569 0 1 .162 1.254.465.235.253.353.646.353 1.172z"/>
        <path stroke="#1D1C1B" stroke-width=".66" d="M66.689 70.589c0-.424-.089-.728-.256-.92-.186-.221-.518-.333-.98-.333-.45 0-.841.091-1.175.262a.424.424 0 0 0-.138.082v3.05c.02.021.05.041.089.061l.049.04c.323.163.706.253 1.176.253.46 0 .793-.11.98-.333.166-.192.255-.495.255-.92V70.59zm.372 0v1.243c0 .515-.118.909-.353 1.171-.254.304-.685.455-1.254.455-.51 0-.94-.091-1.314-.283v2.435c0 .11-.087.192-.186.192-.108 0-.186-.081-.186-.192v-6.466c0-.1.078-.192.186-.192.099 0 .186.091.186.192v.101a2.844 2.844 0 0 1 1.314-.293c.569 0 1 .162 1.254.465.235.253.353.646.353 1.172z"/>
        <path fill="#1B1B19" d="M71.256 69.155c0 .1-.089.181-.186.181h-.108c-.47 0-.853.08-1.195.262l-.098.051v3.627c0 .111-.078.192-.186.192a.188.188 0 0 1-.186-.192V69.144c0-.1.087-.192.186-.192a.19.19 0 0 1 .186.192v.081c.372-.182.793-.273 1.293-.273h.118c.108.01.186.091.176.203"/>
        <path stroke="#1D1C1B" stroke-width=".66" d="M71.256 69.155c0 .1-.089.181-.186.181h-.108c-.47 0-.853.08-1.195.262l-.098.051v3.627c0 .111-.078.192-.186.192a.188.188 0 0 1-.186-.192V69.144c0-.1.087-.192.186-.192a.19.19 0 0 1 .186.192v.081c.372-.182.793-.273 1.293-.273h.118c.108.01.186.091.176.203z"/>
        <path fill="#1B1B19" fill-rule="nonzero" d="M75.765 70.589c0-.424-.089-.717-.264-.92-.207-.221-.55-.333-1.03-.333-.431.02-.734.132-.92.334-.178.191-.265.495-.265.909v.353h2.48v-.343zm.373 0v.535c0 .101-.09.192-.187.192h-2.665v.526c0 .414.087.717.264.91.206.221.549.332 1.039.332.431 0 .793-.06 1.079-.172a.18.18 0 0 1 .244.102c.04.1-.01.212-.108.252-.333.132-.735.202-1.215.202-.598 0-1.039-.152-1.303-.454-.245-.263-.372-.647-.372-1.172v-1.263c0-.516.127-.9.372-1.172.245-.273.647-.424 1.176-.455v.01-.01c.597 0 1.039.162 1.303.465.254.263.373.646.373 1.172z"/>
        <path stroke="#1D1C1B" stroke-width=".66" d="M75.765 70.589c0-.424-.089-.717-.264-.92-.207-.221-.55-.333-1.03-.333-.431.02-.734.132-.92.334-.178.191-.265.495-.265.909v.353h2.48v-.343zm.373 0v.535c0 .101-.09.192-.187.192h-2.665v.526c0 .414.087.717.264.91.206.221.549.332 1.039.332.431 0 .793-.06 1.079-.172a.18.18 0 0 1 .244.102c.04.1-.01.212-.108.252-.333.132-.735.202-1.215.202-.598 0-1.039-.152-1.303-.454-.245-.263-.372-.647-.372-1.172v-1.263c0-.516.127-.9.372-1.172.245-.273.647-.424 1.176-.455v.01-.01c.597 0 1.039.162 1.303.465.254.263.373.646.373 1.172z"/>
        <path fill="#1B1B19" d="M81.656 70.589v2.687c0 .111-.08.192-.177.192-.108 0-.187-.08-.187-.192V70.59c0-.415-.088-.728-.264-.92-.186-.221-.52-.333-.99-.333s-.863.08-1.195.262c0 0-.049.02-.098.051v3.627a.19.19 0 0 1-.186.192c-.108 0-.186-.08-.186-.192V69.144c0-.1.078-.192.186-.192.098 0 .186.091.186.192v.081c.373-.182.794-.273 1.293-.273.578 0 1.01.151 1.274.455.226.263.344.667.344 1.182"/>
        <path stroke="#1D1C1B" stroke-width=".66" d="M81.656 70.589v2.687c0 .111-.08.192-.177.192-.108 0-.187-.08-.187-.192V70.59c0-.415-.088-.728-.264-.92-.186-.221-.52-.333-.99-.333s-.863.08-1.195.262c0 0-.049.02-.098.051v3.627a.19.19 0 0 1-.186.192c-.108 0-.186-.08-.186-.192V69.144c0-.1.078-.192.186-.192.098 0 .186.091.186.192v.081c.373-.182.794-.273 1.293-.273.578 0 1.01.151 1.274.455.226.263.344.667.344 1.182z"/>
        <path fill="#1B1B19" fill-rule="nonzero" d="M86.496 70.589c0-.424-.087-.717-.264-.92-.206-.221-.548-.333-1.029-.333-.431.02-.735.132-.921.334-.176.191-.265.495-.265.909v.353h2.48v-.343zm.373 0v.535c0 .101-.088.192-.187.192h-2.665v.526c0 .414.089.717.265.91.206.221.55.332 1.038.332.431 0 .795-.06 1.079-.172.097-.04.205 0 .245.102.038.1-.01.212-.108.252-.334.132-.736.202-1.216.202-.597 0-1.038-.152-1.303-.454-.245-.263-.372-.647-.372-1.172v-1.263c0-.516.127-.9.372-1.172.245-.273.647-.424 1.176-.455v.01-.01c.599 0 1.039.162 1.303.465.256.263.373.646.373 1.172z"/>
        <path stroke="#1D1C1B" stroke-width=".66" d="M86.496 70.589c0-.424-.087-.717-.264-.92-.206-.221-.548-.333-1.029-.333-.431.02-.735.132-.921.334-.176.191-.265.495-.265.909v.353h2.48v-.343zm.373 0v.535c0 .101-.088.192-.187.192h-2.665v.526c0 .414.089.717.265.91.206.221.55.332 1.038.332.431 0 .795-.06 1.079-.172.097-.04.205 0 .245.102.038.1-.01.212-.108.252-.334.132-.736.202-1.216.202-.597 0-1.038-.152-1.303-.454-.245-.263-.372-.647-.372-1.172v-1.263c0-.516.127-.9.372-1.172.245-.273.647-.424 1.176-.455v.01-.01c.599 0 1.039.162 1.303.465.256.263.373.646.373 1.172z"/>
        <path fill="#1B1B19" d="M92.152 72.892v.384a.189.189 0 0 1-.186.192c-.108 0-.186-.08-.186-.192v-.08c-.373.181-.794.272-1.293.272-.588 0-1.01-.152-1.275-.454-.235-.263-.352-.667-.352-1.182v-2.688c0-.1.087-.192.186-.192.098 0 .187.091.187.192v2.688c0 .424.087.727.254.92.196.221.529.332 1 .332.47 0 .861-.08 1.195-.262l.098-.05v-3.628c0-.1.078-.192.186-.192.099 0 .186.091.186.192V72.892z"/>
        <path stroke="#1D1C1B" stroke-width=".66" d="M92.152 72.892v.384a.189.189 0 0 1-.186.192c-.108 0-.186-.08-.186-.192v-.08c-.373.181-.794.272-1.293.272-.588 0-1.01-.152-1.275-.454-.235-.263-.352-.667-.352-1.182v-2.688c0-.1.087-.192.186-.192.098 0 .187.091.187.192v2.688c0 .424.087.727.254.92.196.221.529.332 1 .332.47 0 .861-.08 1.195-.262l.098-.05v-3.628c0-.1.078-.192.186-.192.099 0 .186.091.186.192V72.892z"/>
        <path fill="#1B1B19" d="M96.348 69.155c0 .1-.089.181-.186.181h-.108c-.471 0-.852.08-1.196.262l-.098.051v3.627c0 .111-.078.192-.186.192a.19.19 0 0 1-.186-.192V69.144c0-.1.088-.192.186-.192a.19.19 0 0 1 .186.192v.081c.372-.182.793-.273 1.294-.273h.117c.108.01.186.091.177.203"/>
        <path stroke="#1D1C1B" stroke-width=".66" d="M96.348 69.155c0 .1-.089.181-.186.181h-.108c-.471 0-.852.08-1.196.262l-.098.051v3.627c0 .111-.078.192-.186.192a.19.19 0 0 1-.186-.192V69.144c0-.1.088-.192.186-.192a.19.19 0 0 1 .186.192v.081c.372-.182.793-.273 1.294-.273h.117c.108.01.186.091.177.203z"/>
        <path fill="#1B1B19" d="M98.142 73.307a.199.199 0 0 1-.129-.243.186.186 0 0 1 .237-.122c.548.173 1.312.223 1.705-.07.186-.142.273-.343.273-.616 0-.637-.48-.839-1.039-1.081-.518-.223-1.106-.485-1.106-1.192 0-.293.097-.535.303-.708.5-.434 1.48-.313 1.872-.242.098.01.167.11.156.222a.186.186 0 0 1-.215.152c-.559-.102-1.264-.111-1.577.161-.118.102-.167.233-.167.415 0 .434.333.606.882.838.559.243 1.255.546 1.255 1.435 0 .393-.138.707-.413.92-.283.211-.656.292-1.039.292-.352 0-.714-.07-.998-.161"/>
        <path stroke="#1D1C1B" stroke-width=".66" d="M98.142 73.307a.199.199 0 0 1-.129-.243.186.186 0 0 1 .237-.122c.548.173 1.312.223 1.705-.07.186-.142.273-.343.273-.616 0-.637-.48-.839-1.039-1.081-.518-.223-1.106-.485-1.106-1.192 0-.293.097-.535.303-.708.5-.434 1.48-.313 1.872-.242.098.01.167.11.156.222a.186.186 0 0 1-.215.152c-.559-.102-1.264-.111-1.577.161-.118.102-.167.233-.167.415 0 .434.333.606.882.838.559.243 1.255.546 1.255 1.435 0 .393-.138.707-.413.92-.283.211-.656.292-1.039.292-.352 0-.714-.07-.998-.161z"/>
        <path fill="#1B1B19" d="M105.924 70.589v2.687a.19.19 0 0 1-.186.192c-.108 0-.186-.08-.186-.192V70.59c0-.415-.089-.728-.256-.92-.195-.221-.53-.333-.999-.333-.471 0-.863.08-1.197.262 0 0-.048.02-.097.051v3.627c0 .111-.079.192-.187.192a.19.19 0 0 1-.185-.192V67.043c0-.101.088-.193.185-.193a.19.19 0 0 1 .187.193v2.182c.372-.182.793-.273 1.294-.273.588 0 1.01.151 1.274.455.235.263.353.667.353 1.182"/>
        <path stroke="#1D1C1B" stroke-width=".66" d="M105.924 70.589v2.687a.19.19 0 0 1-.186.192c-.108 0-.186-.08-.186-.192V70.59c0-.415-.089-.728-.256-.92-.195-.221-.53-.333-.999-.333-.471 0-.863.08-1.197.262 0 0-.048.02-.097.051v3.627c0 .111-.079.192-.187.192a.19.19 0 0 1-.185-.192V67.043c0-.101.088-.193.185-.193a.19.19 0 0 1 .187.193v2.182c.372-.182.793-.273 1.294-.273.588 0 1.01.151 1.274.455.235.263.353.667.353 1.182z"/>
        <path fill="#1B1B19" fill-rule="nonzero" d="M108.74 69.144v4.132c0 .111-.1.192-.24.192-.126 0-.228-.08-.228-.192v-4.132c0-.1.102-.192.228-.192.14 0 .24.091.24.192m.116-1.495c0 .152-.165.283-.356.283-.189 0-.342-.131-.342-.283 0-.152.153-.273.342-.273.191 0 .356.121.356.273"/>
        <path stroke="#1D1C1B" stroke-width=".66" d="M108.74 69.144v4.132c0 .111-.1.192-.24.192-.126 0-.228-.08-.228-.192v-4.132c0-.1.102-.192.228-.192.14 0 .24.091.24.192zm.116-1.495c0 .152-.165.283-.356.283-.189 0-.342-.131-.342-.283 0-.152.153-.273.342-.273.191 0 .356.121.356.273z"/>
        <path fill="#1B1B19" fill-rule="nonzero" d="M113.852 70.589c0-.424-.089-.728-.254-.92-.186-.221-.52-.333-.981-.333-.45 0-.842.091-1.176.262a.412.412 0 0 0-.136.082v3.05c.02.021.048.041.087.061l.049.04c.324.163.706.253 1.176.253.46 0 .795-.11.981-.333.165-.192.254-.495.254-.92V70.59zm.373 0v1.243c0 .515-.117.909-.354 1.171-.254.304-.685.455-1.254.455-.51 0-.94-.091-1.312-.283v2.435a.19.19 0 0 1-.186.192c-.108 0-.186-.081-.186-.192v-6.466c0-.1.078-.192.186-.192.097 0 .186.091.186.192v.101c.372-.192.812-.293 1.312-.293.569 0 1 .162 1.254.465.237.253.354.646.354 1.172z"/>
        <path stroke="#1D1C1B" stroke-width=".66" d="M113.852 70.589c0-.424-.089-.728-.254-.92-.186-.221-.52-.333-.981-.333-.45 0-.842.091-1.176.262a.412.412 0 0 0-.136.082v3.05c.02.021.048.041.087.061l.049.04c.324.163.706.253 1.176.253.46 0 .795-.11.981-.333.165-.192.254-.495.254-.92V70.59zm.373 0v1.243c0 .515-.117.909-.354 1.171-.254.304-.685.455-1.254.455-.51 0-.94-.091-1.312-.283v2.435a.19.19 0 0 1-.186.192c-.108 0-.186-.081-.186-.192v-6.466c0-.1.078-.192.186-.192.097 0 .186.091.186.192v.101c.372-.192.812-.293 1.312-.293.569 0 1 .162 1.254.465.237.253.354.646.354 1.172z"/>
        <path fill="#1B1B19" d="M121.752 67.184a.19.19 0 0 1-.186.192h-.01c-.058 0-.775.01-1.254.495-.255.263-.411.627-.441 1.08h1.284a.19.19 0 0 1 .186.193.19.19 0 0 1-.186.193h-1.294v3.939a.188.188 0 0 1-.186.192c-.108 0-.186-.08-.186-.192V69.134c.01-.646.196-1.161.568-1.535.618-.617 1.49-.607 1.53-.607.097 0 .175.091.175.192"/>
        <path stroke="#1D1C1B" stroke-width=".66" d="M121.752 67.184a.19.19 0 0 1-.186.192h-.01c-.058 0-.775.01-1.254.495-.255.263-.411.627-.441 1.08h1.284a.19.19 0 0 1 .186.193.19.19 0 0 1-.186.193h-1.294v3.939a.188.188 0 0 1-.186.192c-.108 0-.186-.08-.186-.192V69.134c.01-.646.196-1.161.568-1.535.618-.617 1.49-.607 1.53-.607.097 0 .175.091.175.192z"/>
        <path fill="#1B1B19" fill-rule="nonzero" d="M123.419 70.579v1.263c0 1.09.598 1.242 1.235 1.242.637 0 1.235-.151 1.235-1.242v-1.263c0-1.092-.598-1.243-1.235-1.243-.637 0-1.235.151-1.235 1.243m-.362 1.263v-1.263c0-1.627 1.195-1.627 1.597-1.627.402 0 1.598 0 1.598 1.627v1.263c0 1.616-1.196 1.626-1.598 1.626-.402 0-1.597 0-1.597-1.626"/>
        <path stroke="#1D1C1B" stroke-width=".66" d="M123.419 70.579v1.263c0 1.09.598 1.242 1.235 1.242.637 0 1.235-.151 1.235-1.242v-1.263c0-1.092-.598-1.243-1.235-1.243-.637 0-1.235.151-1.235 1.243zm-.362 1.263v-1.263c0-1.627 1.195-1.627 1.597-1.627.402 0 1.598 0 1.598 1.627v1.263c0 1.616-1.196 1.626-1.598 1.626-.402 0-1.597 0-1.597-1.626z"/>
        <path fill="#1B1B19" d="M130.446 69.155c0 .1-.089.181-.186.181h-.108c-.47 0-.853.08-1.195.262l-.098.051v3.627c0 .111-.078.192-.186.192a.189.189 0 0 1-.186-.192V69.144c0-.1.087-.192.186-.192a.19.19 0 0 1 .186.192v.081c.373-.182.793-.273 1.293-.273h.118c.108.01.186.091.176.203"/>
        <path stroke="#1D1C1B" stroke-width=".66" d="M130.446 69.155c0 .1-.089.181-.186.181h-.108c-.47 0-.853.08-1.195.262l-.098.051v3.627c0 .111-.078.192-.186.192a.189.189 0 0 1-.186-.192V69.144c0-.1.087-.192.186-.192a.19.19 0 0 1 .186.192v.081c.373-.182.793-.273 1.293-.273h.118c.108.01.186.091.176.203z"/>
        <path fill="#1B1B19" d="M135.367 70.134c0-3.01 1.98-3.334 2.833-3.334 1.028 0 1.636.273 1.656.283.098.04.136.162.098.253-.04.1-.157.141-.246.1-.01-.01-.569-.252-1.508-.252-.922 0-2.46.384-2.46 2.95 0 2.567 1.538 2.95 2.46 2.95.94 0 1.498-.253 1.508-.253a.19.19 0 0 1 .246.092c.038.1 0 .212-.098.252-.02.02-.628.293-1.656.293-.853 0-2.833-.323-2.833-3.334"/>
        <path stroke="#1D1C1B" stroke-width=".66" d="M135.367 70.134c0-3.01 1.98-3.334 2.833-3.334 1.028 0 1.636.273 1.656.283.098.04.136.162.098.253-.04.1-.157.141-.246.1-.01-.01-.569-.252-1.508-.252-.922 0-2.46.384-2.46 2.95 0 2.567 1.538 2.95 2.46 2.95.94 0 1.498-.253 1.508-.253a.19.19 0 0 1 .246.092c.038.1 0 .212-.098.252-.02.02-.628.293-1.656.293-.853 0-2.833-.323-2.833-3.334z"/>
        <path fill="#1B1B19" d="M145.502 70.589v2.687a.19.19 0 0 1-.186.192c-.108 0-.187-.08-.187-.192V70.59c0-.415-.088-.728-.255-.92-.195-.221-.53-.333-.999-.333-.471 0-.863.08-1.197.262 0 0-.048.02-.097.051v3.627c0 .111-.079.192-.187.192a.19.19 0 0 1-.186-.192V67.043c0-.101.089-.193.186-.193a.19.19 0 0 1 .187.193v2.182c.372-.182.793-.273 1.294-.273.588 0 1.01.151 1.274.455.234.263.353.667.353 1.182"/>
        <path stroke="#1D1C1B" stroke-width=".66" d="M145.502 70.589v2.687a.19.19 0 0 1-.186.192c-.108 0-.187-.08-.187-.192V70.59c0-.415-.088-.728-.255-.92-.195-.221-.53-.333-.999-.333-.471 0-.863.08-1.197.262 0 0-.048.02-.097.051v3.627c0 .111-.079.192-.187.192a.19.19 0 0 1-.186-.192V67.043c0-.101.089-.193.186-.193a.19.19 0 0 1 .187.193v2.182c.372-.182.793-.273 1.294-.273.588 0 1.01.151 1.274.455.234.263.353.667.353 1.182z"/>
        <path fill="#1B1B19" fill-rule="nonzero" d="M150.343 72.549v-1.364c-.167-.03-.49-.09-.852-.11-.089-.011-.177-.011-.264-.011-.53 0-.912.11-1.138.313-.157.151-.225.343-.225.606 0 .495.176.808.567.98.187.08.413.121.658.121.431 0 .863-.131 1.107-.344a.554.554 0 0 0 .147-.191zm.373.05v.677a.19.19 0 0 1-.186.192c-.098 0-.187-.09-.187-.192v-.171c-.313.222-.784.363-1.254.363-.294 0-.569-.05-.804-.152-.528-.242-.793-.687-.793-1.333 0-.373.117-.667.343-.879.342-.324.901-.465 1.685-.414.333.02.627.07.823.11v-.363c0-.374-.078-.636-.234-.808-.187-.202-.51-.293-.96-.293-.403 0-.737.05-1.001.151a.19.19 0 0 1-.245-.1.216.216 0 0 1 .107-.253c.315-.122.696-.182 1.138-.182.559 0 .97.142 1.225.414.235.243.343.597.343 1.071V72.6z"/>
        <path stroke="#1D1C1B" stroke-width=".66" d="M150.343 72.549v-1.364c-.167-.03-.49-.09-.852-.11-.089-.011-.177-.011-.264-.011-.53 0-.912.11-1.138.313-.157.151-.225.343-.225.606 0 .495.176.808.567.98.187.08.413.121.658.121.431 0 .863-.131 1.107-.344a.554.554 0 0 0 .147-.191zm.373.05v.677a.19.19 0 0 1-.186.192c-.098 0-.187-.09-.187-.192v-.171c-.313.222-.784.363-1.254.363-.294 0-.569-.05-.804-.152-.528-.242-.793-.687-.793-1.333 0-.373.117-.667.343-.879.342-.324.901-.465 1.685-.414.333.02.627.07.823.11v-.363c0-.374-.078-.636-.234-.808-.187-.202-.51-.293-.96-.293-.403 0-.737.05-1.001.151a.19.19 0 0 1-.245-.1.216.216 0 0 1 .107-.253c.315-.122.696-.182 1.138-.182.559 0 .97.142 1.225.414.235.243.343.597.343 1.071V72.6z"/>
        <path fill="#1B1B19" d="M156.234 70.589v2.687c0 .111-.08.192-.177.192-.108 0-.186-.08-.186-.192V70.59c0-.415-.089-.728-.265-.92-.186-.221-.52-.333-.99-.333s-.863.08-1.195.262c0 0-.049.02-.098.051v3.627a.19.19 0 0 1-.186.192c-.107 0-.186-.08-.186-.192V69.144c0-.1.079-.192.186-.192.098 0 .186.091.186.192v.081c.373-.182.794-.273 1.294-.273.577 0 1.008.151 1.273.455.226.263.344.667.344 1.182"/>
        <path stroke="#1D1C1B" stroke-width=".66" d="M156.234 70.589v2.687c0 .111-.08.192-.177.192-.108 0-.186-.08-.186-.192V70.59c0-.415-.089-.728-.265-.92-.186-.221-.52-.333-.99-.333s-.863.08-1.195.262c0 0-.049.02-.098.051v3.627a.19.19 0 0 1-.186.192c-.107 0-.186-.08-.186-.192V69.144c0-.1.079-.192.186-.192.098 0 .186.091.186.192v.081c.373-.182.794-.273 1.294-.273.577 0 1.008.151 1.273.455.226.263.344.667.344 1.182z"/>
        <path fill="#1B1B19" fill-rule="nonzero" d="M161.3 72.73V69.7c-.03-.02-.059-.04-.107-.07l-.06-.032c-.332-.171-.734-.252-1.224-.252-.5 0-.842.111-1.05.334-.175.192-.264.495-.264.91v1.252c0 .414.089.717.265.909.207.222.55.333 1.049.333.47 0 .872-.09 1.235-.263a.75.75 0 0 0 .157-.09m.372-3.587v3.99c0 1.617-1.028 2.658-2.606 2.658-.108 0-.187-.08-.187-.192a.19.19 0 0 1 .187-.192c1.37 0 2.223-.86 2.234-2.243-.402.202-.872.303-1.392.303-.607 0-1.05-.152-1.314-.454-.245-.263-.372-.657-.372-1.172v-1.253c0-.515.127-.91.372-1.172.265-.303.707-.454 1.314-.454.539 0 .99.1 1.392.292v-.111c0-.1.088-.192.186-.192.097 0 .186.092.186.192"/>
        <path stroke="#1D1C1B" stroke-width=".66" d="M161.3 72.73V69.7c-.03-.02-.059-.04-.107-.07l-.06-.032c-.332-.171-.734-.252-1.224-.252-.5 0-.842.111-1.05.334-.175.192-.264.495-.264.91v1.252c0 .414.089.717.265.909.207.222.55.333 1.049.333.47 0 .872-.09 1.235-.263a.75.75 0 0 0 .157-.09zm.373-3.586v3.99c0 1.617-1.028 2.658-2.606 2.658-.108 0-.187-.08-.187-.192a.19.19 0 0 1 .187-.192c1.37 0 2.223-.86 2.234-2.243-.402.202-.872.303-1.392.303-.607 0-1.05-.152-1.314-.454-.245-.263-.372-.657-.372-1.172v-1.253c0-.515.127-.91.372-1.172.265-.303.707-.454 1.314-.454.539 0 .99.1 1.392.292v-.111c0-.1.088-.192.186-.192.097 0 .186.092.186.192z"/>
        <path fill="#1B1B19" fill-rule="nonzero" d="M166.417 70.589c0-.424-.088-.717-.264-.92-.207-.221-.55-.333-1.03-.333-.432.02-.734.132-.92.334-.178.191-.265.495-.265.909v.353h2.479v-.343zm.373 0v.535c0 .101-.09.192-.187.192h-2.665v.526c0 .414.087.717.264.91.206.221.549.332 1.04.332.43 0 .793-.06 1.078-.172a.18.18 0 0 1 .243.102c.04.1-.008.212-.107.252-.333.132-.735.202-1.215.202-.598 0-1.039-.152-1.303-.454-.245-.263-.372-.647-.372-1.172v-1.263c0-.516.127-.9.372-1.172.245-.273.647-.424 1.176-.455v.01-.01c.597 0 1.039.162 1.303.465.254.263.373.646.373 1.172z"/>
        <path stroke="#1D1C1B" stroke-width=".66" d="M166.417 70.589c0-.424-.088-.717-.264-.92-.207-.221-.55-.333-1.03-.333-.432.02-.734.132-.92.334-.178.191-.265.495-.265.909v.353h2.479v-.343zm.373 0v.535c0 .101-.09.192-.187.192h-2.665v.526c0 .414.087.717.264.91.206.221.549.332 1.04.332.43 0 .793-.06 1.078-.172a.18.18 0 0 1 .243.102c.04.1-.008.212-.107.252-.333.132-.735.202-1.215.202-.598 0-1.039-.152-1.303-.454-.245-.263-.372-.647-.372-1.172v-1.263c0-.516.127-.9.372-1.172.245-.273.647-.424 1.176-.455v.01-.01c.597 0 1.039.162 1.303.465.254.263.373.646.373 1.172z"/>
        <path fill="#D3007E" d="M89.587 0L77.144 5.148s-8.46 16.314-8.385 16.8c.074.487.074-.336 1.876-1.233 1.803-.898 16.25-6.358 16.347-7.33.1-.973 1.57-9.201 2.011-11.146C89.435.295 89.587 0 89.587 0"/>
        <text fill="#000" font-family="ArialMT, Arial" font-size="11">
            <tspan x="39" y="89">Powered by HEC </tspan> <tspan x="39" y="101.36">Liège</tspan>
        </text>
    </g>
</svg>
