<svg xmlns="http://www.w3.org/2000/svg" xmlns:xlink="http://www.w3.org/1999/xlink" width="474" height="412" viewBox="0 0 474 412">
    <defs>
        <path id="a" d="M0 0h474v412H0z"/>
    </defs>
    <g fill="none" fill-rule="evenodd">
        <mask id="b" fill="#fff">
            <use xlink:href="#a"/>
        </mask>
        <use fill="#4A90E2" fill-rule="nonzero" xlink:href="#a"/>
        <g fill="#FFF" fill-rule="nonzero" stroke="#000" stroke-width="3" mask="url(#b)">
            <path d="M48.398 222h192.007C259.847 220.605 265 207.994 265 185.296c0-15.605-11.725-27.784-24.595-33.513-11.909-5.302-30.8-7.988-42.896-7.988 0 0-4.61-44.795-51.697-44.795-31.39 0-48.585 17.594-51.583 52.783-27.33-6.4-48.281-4.475-62.853 5.775-14.572 10.25-19.78 24.727-15.622 43.432-16.865.153-23.924 7.157-21.177 21.01h53.82zM232.398 448h192.007C443.847 446.605 449 433.994 449 411.296c0-15.605-11.725-27.784-24.595-33.513-11.909-5.302-30.8-7.988-42.896-7.988 0 0-4.61-44.795-51.697-44.795-31.39 0-48.585 17.594-51.583 52.783-27.33-6.4-48.281-4.475-62.853 5.775-14.572 10.25-19.78 24.727-15.622 43.432-16.865.153-23.924 7.157-21.177 21.01h53.82z"/>
        </g>
    </g>
</svg>
