<?xml version="1.0" encoding="UTF-8"?>
<svg width="51px" height="52px" viewBox="0 0 51 52" version="1.1" xmlns="http://www.w3.org/2000/svg" xmlns:xlink="http://www.w3.org/1999/xlink">
    <!-- Generator: Sketch 52.6 (67491) - http://www.bohemiancoding.com/sketch -->
    <title>Star@2x</title>
    <desc>Created with Sketch.</desc>
    <g id="Page-1" stroke="none" stroke-width="1" fill="none" fill-rule="evenodd">
        <g id="Left-Sub-Page" transform="translate(-1260.000000, -630.000000)" fill="#FAD843" fill-rule="nonzero" stroke="#000000" stroke-width="3">
            <path d="M1284.18065,671.196695 L1272.43935,676.832545 C1270.94566,677.549521 1269.15356,676.919868 1268.43659,675.426177 C1268.18344,674.898784 1268.09001,674.308884 1268.16779,673.729076 L1269.89955,660.820865 L1260.91127,651.3958 C1259.76781,650.196773 1259.81286,648.297812 1261.01189,647.154353 C1261.43524,646.750619 1261.9674,646.479472 1262.54286,646.374281 L1275.35444,644.032417 L1281.54068,632.571557 C1282.32768,631.113543 1284.14762,630.569573 1285.60563,631.356567 C1286.12043,631.634439 1286.54275,632.056761 1286.82062,632.571557 L1293.00686,644.032417 L1305.81844,646.374281 C1307.44829,646.672205 1308.52803,648.234974 1308.2301,649.864823 C1308.12491,650.440291 1307.85376,650.972447 1307.45003,651.3958 L1298.46176,660.820865 L1300.19351,673.729076 C1300.41382,675.371218 1299.26119,676.881032 1297.61905,677.10134 C1297.03924,677.179126 1296.44934,677.085695 1295.92195,676.832545 L1284.18065,671.196695 Z" id="Star" transform="translate(1284.180652, 656.180652) rotate(13.000000) translate(-1284.180652, -656.180652) "></path>
        </g>
    </g>
</svg>