<svg xmlns="http://www.w3.org/2000/svg" xmlns:xlink="http://www.w3.org/1999/xlink" width="454" height="412" viewBox="0 0 454 412">
    <defs>
        <path id="a" d="M0 0h454v412H0z"/>
    </defs>
    <g fill="none" fill-rule="evenodd">
        <mask id="b" fill="#fff">
            <use xlink:href="#a"/>
        </mask>
        <use fill="#3970AF" fill-rule="nonzero" xlink:href="#a"/>
        <g fill="#FFF" fill-rule="nonzero" stroke="#000" stroke-width="3" mask="url(#b)">
            <path d="M18.398 210h192.007C229.847 208.605 235 195.994 235 173.296c0-15.605-11.725-27.784-24.595-33.513-11.909-5.302-30.8-7.988-42.896-7.988 0 0-4.61-44.795-51.697-44.795-31.39 0-48.585 17.594-51.583 52.783-27.33-6.4-48.281-4.475-62.853 5.775-14.572 10.25-19.78 24.727-15.622 43.432-16.865.153-23.924 7.157-21.177 21.01h53.82zM270.507 354H374.66c10.546-.76 13.341-7.63 13.341-19.993 0-8.5-6.36-15.134-13.341-18.255-6.46-2.889-16.708-4.351-23.268-4.351 0 0-2.502-24.401-28.043-24.401-17.027 0-26.354 9.584-27.98 28.752-14.825-3.487-26.19-2.438-34.094 3.145-7.904 5.584-10.729 13.47-8.474 23.659-9.148.083-12.977 3.898-11.487 11.444h29.194z"/>
        </g>
    </g>
</svg>
