<svg xmlns="http://www.w3.org/2000/svg" width="591" height="492" viewBox="0 0 591 492">
    <g fill="none" fill-rule="nonzero" stroke="#000" stroke-width="3">
        <g transform="translate(2 -49)">
            <path fill="#FAD843" d="M202.872 51.764L234.77 310.75 1.616 195.375z"/>
            <path fill="#64C1BE" d="M77.5 110.5h378v379h-378z"/>
            <circle cx="195.5" cy="467.5" r="71.5" fill="#4A90E2"/>
            <circle cx="147" cy="335" r="19" fill="#F1A4AB"/>
            <rect width="199" height="324" x="275.5" y="70.5" fill="#E6E6E6" rx="6"/>
            <path fill="#000" d="M313.657 70.5a4.51 4.51 0 0 0-.157 1.184V84a4.5 4.5 0 0 0 4.5 4.5h115a4.5 4.5 0 0 0 4.5-4.5V71.684a4.51 4.51 0 0 0-.157-1.184H313.657z"/>
        </g>
        <g fill="#4A90E2">
            <path d="M589.209 148.548c1.405-6.57-2.846-13.035-9.494-14.44-4.104-.867-14.253.156-30.449 3.069-.444.08-.845.317-1.129.669a1.868 1.868 0 0 0 .28 2.63c13.357 10.747 22.094 16.556 26.21 17.425 6.648 1.405 13.177-2.783 14.582-9.353zM562.917 100.644c-2.423-4.559-8.047-6.308-12.56-3.907-2.716 1.444-7.854 6.74-15.413 15.888a1.867 1.867 0 0 0 1.466 3.06c12.42-.176 19.993-.99 22.721-2.44 4.514-2.401 6.209-8.043 3.786-12.601z"/>
        </g>
        <path fill="#64C1BE" d="M360.96 215.314c-10.552-23.975 4.422-53.77 88.967-62.801 47.978-5.386 66.254 5.097 72.024 8.293 17.682 9.794 19.044 22.851 19.044 34.244-8.468 44.24-51.75 18.222-81.48 17.342-22.796 0-45.717 18.375-70.824 18.375-8.92 0-19.678-1.006-27.73-15.453z"/>
        <path fill="#3970AF" d="M380.892 209.562c-8.186-12.963 3.513-37.426 69.103-42.309 37.221-2.912 75.497 5.455 70.65 22.999-6.569 23.918-40.148 9.851-63.212 9.376-17.724 0-37.888 9.934-37.888 9.934-22.927 10.161-32.446 7.277-38.653 0z"/>
        <path fill="#F1A4AB" d="M416.172 209.858c17.309-6.426 26.143-9.284 26.501-8.575.97 1.93 20.888 40.855 20.888 40.855s11.287 29.623 41.58 15.373c14.27-6.713 18.812-16.274 13.625-28.681-11.596-21.8-18.889-34.577-21.877-38.33-4.483-5.628-9.104-10.64-18.056-10.542-5.968.065-11.058 3.58-15.272 10.542-7.612-7.76-16.254-9.612-25.926-5.557-9.672 4.056-16.826 12.36-21.463 24.915z"/>
        <path d="M462.484 189.407c4.438 4.828 8.717 10.217 12.839 16.168 4.122 5.95 7.71 11.806 10.766 17.565"/>
    </g>
</svg>
