<?xml version="1.0" encoding="UTF-8"?>
<svg width="115px" height="54px" viewBox="0 0 115 54" version="1.1" xmlns="http://www.w3.org/2000/svg" xmlns:xlink="http://www.w3.org/1999/xlink">
    <!-- Generator: Sketch 52.6 (67491) - http://www.bohemiancoding.com/sketch -->
    <title>Group 2 Copy@2x</title>
    <desc>Created with Sketch.</desc>
    <g id="Page-1" stroke="none" stroke-width="1" fill="none" fill-rule="evenodd">
        <g id="Left-Sub-Page" transform="translate(-1089.000000, -424.000000)" fill="#FFFFFF" fill-rule="nonzero" stroke="#000000" stroke-width="3">
            <g id="Group-2-Copy" transform="translate(1091.000000, 426.000000)">
                <path d="M22.2809146,50 C74.711075,50 100.926155,50 100.926155,50 C108.889385,49.432919 111,44.3063725 111,35.0796914 C111,28.7361573 106.197432,23.7855211 100.926155,21.4563781 C96.0481944,19.3010242 88.3102382,18.2095185 83.3561296,18.2095185 C83.3561296,18.2095185 81.4674781,0 62.1813824,0 C49.3239853,7.42678488e-16 42.2811936,7.15212604 41.0530074,21.4563781 C29.8589395,18.854748 21.2776131,19.6372779 15.3090282,23.8039679 C9.34044343,27.9706578 7.20754651,33.8557945 8.91033747,41.4593777 C2.00245214,41.5217011 -0.888844603,44.3685752 0.236447245,50 C0.236447245,50 7.58460302,50 22.2809146,50 Z" id="Path-2"></path>
            </g>
        </g>
    </g>
</svg>