<?xml version="1.0" encoding="UTF-8"?>
<svg width="28px" height="28px" viewBox="0 0 28 28" version="1.1" xmlns="http://www.w3.org/2000/svg" xmlns:xlink="http://www.w3.org/1999/xlink">
    <!-- Generator: Sketch 52.6 (67491) - http://www.bohemiancoding.com/sketch -->
    <title>Star Copy@2x</title>
    <desc>Created with Sketch.</desc>
    <g id="Page-1" stroke="none" stroke-width="1" fill="none" fill-rule="evenodd">
        <g id="Left-Sub-Page" transform="translate(-1227.000000, -575.000000)" fill="#FAD843" fill-rule="nonzero" stroke="#000000" stroke-width="2.5">
            <path d="M1240.18914,597.619197 L1235.79516,599.728319 C1234.30146,600.445294 1232.50937,599.815642 1231.79239,598.321951 C1231.53924,597.794558 1231.44581,597.204657 1231.5236,596.624849 L1232.17167,591.79417 L1228.80797,588.266999 C1227.66451,587.067971 1227.70955,585.169011 1228.90858,584.025551 C1229.33193,583.621818 1229.86409,583.350671 1230.43956,583.245479 L1235.23407,582.369076 L1237.54917,578.080043 C1238.33616,576.622029 1240.1561,576.078059 1241.61412,576.865053 C1242.12891,577.142925 1242.55123,577.565247 1242.82911,578.080043 L1245.1442,582.369076 L1249.93872,583.245479 C1251.56857,583.543404 1252.64831,585.106173 1252.35038,586.736021 C1252.24519,587.311489 1251.97404,587.843646 1251.57031,588.266999 L1248.2066,591.79417 L1248.85468,596.624849 C1249.07499,598.266991 1247.92236,599.776805 1246.28022,599.997113 C1245.70041,600.0749 1245.11051,599.981469 1244.58312,599.728319 L1240.18914,597.619197 Z" id="Star-Copy" transform="translate(1240.189138, 589.189138) rotate(13.000000) translate(-1240.189138, -589.189138) "></path>
        </g>
    </g>
</svg>