<svg xmlns="http://www.w3.org/2000/svg" xmlns:xlink="http://www.w3.org/1999/xlink" width="543" height="443" viewBox="0 0 543 443">
    <defs>
        <filter id="a" width="104.8%" height="106.5%" x="-2.4%" y="-3.2%" filterUnits="objectBoundingBox">
            <feOffset dx="7" dy="7" in="SourceAlpha" result="shadowOffsetOuter1"/>
            <feColorMatrix in="shadowOffsetOuter1" result="shadowMatrixOuter1" values="0 0 0 0 0 0 0 0 0 0 0 0 0 0 0 0 0 0 0.07 0"/>
            <feMerge>
                <feMergeNode in="shadowMatrixOuter1"/>
                <feMergeNode in="SourceGraphic"/>
            </feMerge>
        </filter>
        <path id="b" d="M0 0h530v394H0z"/>
    </defs>
    <g fill="none" fill-rule="evenodd">
        <g filter="url(#a)" transform="translate(-12 36)">
            <path fill="#FFF" fill-rule="nonzero" stroke="#000" stroke-width="3" d="M13.5 1.5h533v397h-533z"/>
            <g transform="translate(15 3)">
                <mask id="c" fill="#fff">
                    <use xlink:href="#b"/>
                </mask>
                <use fill="#4A90E2" fill-rule="nonzero" xlink:href="#b"/>
                <g fill="#FFF" fill-rule="nonzero" stroke="#000" stroke-width="3" mask="url(#c)">
                    <path d="M-11.843 146.979H91.07c10.42-.748 13.182-7.513 13.182-19.689 0-8.37-6.284-14.903-13.182-17.977-6.383-2.844-16.51-4.284-22.992-4.284 0 0-2.472-24.029-27.71-24.029-16.824 0-26.04 9.438-27.647 28.313-14.649-3.433-25.878-2.4-33.689 3.098-7.81 5.499-10.601 13.264-8.373 23.298-9.04.082-12.823 3.839-11.35 11.27h28.847zM472.522 67.979h68.905c6.977-.499 8.826-5.008 8.826-13.124 0-5.58-4.207-9.934-8.826-11.982-4.274-1.896-11.053-2.856-15.394-2.856 0 0-1.655-16.017-18.552-16.017-11.265 0-17.436 6.29-18.512 18.873-9.808-2.289-17.326-1.6-22.556 2.064-5.23 3.665-7.098 8.842-5.606 15.53-6.053.055-8.586 2.559-7.6 7.512h19.315z"/>
                </g>
                <g stroke="#000" mask="url(#c)">
                    <g transform="translate(86 261)">
                        <path fill="#FAD843" fill-rule="nonzero" stroke-width="3" d="M247.5 1.5h-137v172.472c0 18.501 14.998 33.5 33.5 33.5 18.502 0 33.5-14.999 33.5-33.5v-15.5h1.5c37.832 0 68.5-30.669 68.5-68.5V1.5z"/>
                        <circle cx="164" cy="40" r="10" fill="#FFF" fill-rule="nonzero" stroke-width="3"/>
                        <circle cx="214" cy="40" r="10" fill="#FFF" fill-rule="nonzero" stroke-width="3"/>
                        <path fill="#FAD843" stroke-width="2.5" d="M189 52l20 24.848h-20z"/>
                        <path fill="#FFF" stroke-width="3" d="M169 97c.004 9.435 7.895 17.087 17.625 17.09 9.73.004 17.615-7.641 17.61-17.076L169 97z"/>
                        <path fill="#FAD843" stroke-width="3" d="M110.09 44c-8.33.004-15.087 7.223-15.09 16.124-.003 8.902 6.748 16.115 15.079 16.112L110.09 44z"/>
                    </g>
                </g>
            </g>
        </g>
        <path fill="#FAD843" stroke="#000" stroke-width="3" d="M232 124.098c23.454 1.544 42 21.057 42 44.902 0 23.845-18.546 43.358-42 44.902V253c-46.392 0-84-37.608-84-84s37.608-84 84-84v39.098z"/>
        <path fill="#64C1BE" stroke="#000" stroke-width="3" d="M298 255.136v-39.098c23.454-1.544 42-21.057 42-44.902 0-23.844-18.546-43.357-42-44.901V87.136L377.636 74l21.015 174.128c-50.858 4.672-84.408 7.008-100.651 7.008z"/>
        <path fill="#F1A4AB" fill-rule="nonzero" stroke="#000" stroke-width="3" d="M269.333 70.227c-19.628-21.052-30.009-35.36-31.142-42.928-1.7-11.35 8.253-21.628 17.727-21.628 6.316 0 11.851 4.884 16.607 14.651C279.556 8.107 287.195 2 295.44 2c9.452 0 18.896 7.193 9.2 28.787-6.464 14.397-18.233 27.543-35.307 39.44z"/>
    </g>
</svg>
