<?xml version="1.0" encoding="UTF-8"?>
<svg width="437px" height="341px" viewBox="0 0 437 341" version="1.1" xmlns="http://www.w3.org/2000/svg" xmlns:xlink="http://www.w3.org/1999/xlink">
    <!-- Generator: Sketch 52.6 (67491) - http://www.bohemiancoding.com/sketch -->
    <title>Group@2x</title>
    <desc>Created with Sketch.</desc>
    <g id="Page-1" stroke="none" stroke-width="1" fill="none" fill-rule="evenodd">
        <g id="Group" transform="translate(2.000000, 2.000000)" fill-rule="nonzero" stroke="#000000">
            <path d="M111.747563,181.99407 C102.835024,146.91501 79.8480451,125.257784 42.7866254,117.02239 C2.41140543,109.40734 -9.79533016,146.484452 7.89783449,157.032549 C19.9755398,164.445177 34.1795347,163.213673 50.5098192,153.338037 C44.3422066,161.492456 44.3422066,168.163968 50.5098192,173.352573 C58.7621649,179.113571 69.6896274,177.514509 83.2922066,168.555388 C75.3777235,174.642715 73.013782,180.410196 76.2003819,185.85783 C80.0612678,192.165401 88.6137787,193.415566 101.857914,189.608328 L111.747563,181.99407 Z" id="Path-9" stroke-width="3" fill="#F1A4AB"></path>
            <path d="M361,66.5620117 L373.666016,4.27490234 C374.089844,1.42496745 375.251953,-2.57405581e-13 377.152344,7.81597009e-14 C379.052734,7.81597009e-14 380.00293,1.42496745 380.00293,4.27490234 L377.152344,68.2701933 L361,66.5620117 Z" id="Path-10" stroke-width="3" fill="#FAD843"></path>
            <path d="M355.897879,65.4262086 C334.503348,56.4392294 316.806082,54.6410523 302.806082,60.0316773 C298.301746,62.5483665 299.841134,66.4315046 307.424246,71.6810914 C274.652762,80.4232789 256.094168,88.2029013 251.748465,95.0199586 C247.402762,101.837016 251.908296,105.891378 265.265067,107.183045 C253.809055,112.235139 247.34942,115.720165 245.886161,117.638123 C243.597749,120.767029 245.551851,123.187602 251.748465,124.899841 C231.987239,131.675209 222.413671,138.850339 223.027762,146.425232 C223.923595,152.874451 234.340262,156.09906 254.277762,156.09906 L355.897879,65.4262086 Z" id="Path-11" stroke-width="3" fill="#F1A4AB"></path>
            <path d="M234.796533,158.273243 C239.483806,157.260619 244.176656,154.647409 249.247471,150.356146 C254.2392,146.13181 259.248171,140.692014 266.745536,131.664604 C268.357649,129.723494 274.775174,121.903648 276.363144,119.98783 C280.31502,115.220061 283.615783,111.35356 286.951319,107.6271 C300.876346,92.0700608 314.146759,80.5610042 329.596671,71.8294688 C345.020812,64.0598918 361.232697,60.7852007 376.752999,61.6275623 C390.188082,62.3567489 402.450733,66.213841 410.752903,71.9367467 C421.524462,79.4113204 428.017081,88.4931954 431.111735,98.2772661 C432.198704,101.713834 432.78154,104.995761 432.976024,108.01518 C433.094039,109.847376 433.053833,111.201456 432.966981,111.995279 C431.194386,126.142996 425.850102,134.683069 416.81742,139.176584 C409.966463,142.58475 403.43141,143.413503 387.567508,143.907581 C381.091556,144.109273 378.335536,144.228831 374.790533,144.516751 C373.19741,144.646142 371.680996,144.799492 370.216589,144.98183 C352.062671,147.242235 342.089335,150.988445 332.326058,157.683766 C331.598079,158.18299 330.861602,158.701382 329.949114,159.353884 C329.601612,159.602375 328.045492,160.720689 327.623788,161.021886 C327.051534,161.430612 326.558231,161.779352 326.082579,162.110542 C322.18257,164.826062 317.495606,170.35585 307.604841,183.515661 C307.928288,183.08531 296.622361,198.209718 292.752787,203.318117 C286.04191,212.177446 279.659552,220.394239 272.8169,228.920443 C242.356642,266.875083 217.378354,278.932918 169.952503,278.913246 C122.130549,278.89341 90.2257171,259.974955 86.1744371,228.171131 C82.2768911,197.574167 95.6100096,178.370138 126.094314,167.177039 C138.157229,162.747828 153.802249,161.238719 179.6034,160.949783 C182.629514,160.915895 185.001621,160.900232 190.486688,160.872252 C215.446473,160.74493 225.420006,160.298917 234.796533,158.273243 Z M36.1159152,272.763997 C32.8209755,273.454151 29.4907896,272.305132 27.7093288,269.962173 C25.7256195,267.353219 26.1650706,263.997255 29.0918967,261.442258 L29.263147,261.292764 L29.4710016,261.200722 C49.948567,252.132881 68.2074863,241.092492 84.2512835,228.079886 L86.1763642,226.518515 L86.6665431,228.948235 C87.6573271,233.859356 88.7608716,237.835262 89.9695289,240.867048 C91.1606864,243.854937 93.1872743,247.253035 96.0525217,251.047473 L96.9478744,252.233185 L95.7707379,253.139784 C83.5628821,262.54194 63.6854528,269.05969 36.1159152,272.763997 Z M326.713928,262.246375 C311.683999,239.067268 297.748073,223.695861 284.972192,216.134254 L283.498037,215.261753 L299.375316,195.089387 L300.551126,195.993991 C315.552347,207.53511 327.762349,226.128789 337.231366,251.792277 C338.811399,256.541068 338.293505,260.906605 335.989926,263.353766 C333.519831,265.97782 329.777051,265.630429 326.864912,262.441846 L326.781346,262.350347 L326.713928,262.246375 Z" id="Combined-Shape" stroke-width="3" fill="#F7F7F7"></path>
            <path d="M373.244673,88 C372.455016,93.0471579 373.576761,96.262083 376.609907,97.6447754 C379.643054,99.0274678 383.306542,98.0972106 387.60037,94.8540039" id="Path-12" stroke-width="3"></path>
            <path d="M407.874334,65.4345546 C403.841535,113.95392 401.780295,138.496715 401.690614,139.06294 C401.572597,139.808072 420.926399,141.738491 429.575998,120.351788 C430.785616,117.360929 431.610843,113.476432 432.342901,109.536533 C434.159384,93.2195976 426.003195,78.5189382 407.874334,65.4345546 Z" id="Path-13" stroke-width="2.5" fill="#F1A4AB" transform="translate(417.140563, 102.450813) rotate(-9.000000) translate(-417.140563, -102.450813) "></path>
            <path d="M301.433882,246.230281 C280.227072,264.015124 249.675714,279.14233 209.779809,291.611897 C198.919332,295.366198 199.126847,307.254739 215.869176,306.067109 C252.295058,302.821198 288.235623,289.390203 323.690871,265.774125" id="Path" stroke-width="3" fill="#F7F7F7" transform="translate(263.014305, 276.190197) rotate(-89.000000) translate(-263.014305, -276.190197) "></path>
            <path d="M139.094221,263.128538 C108.225212,279.709102 82.9267664,291.645693 63.1988843,298.938309 C54.1996116,301.908751 59.1883034,311.54721 69.2011539,311.650867 C97.5883874,311.391421 125.898618,302.494908 154.131846,284.96133" id="Path" stroke-width="3" fill="#F7F7F7" transform="translate(106.315630, 287.389702) rotate(-33.000000) translate(-106.315630, -287.389702) "></path>
        </g>
    </g>
</svg>