<?xml version="1.0" encoding="UTF-8"?>
<svg width="434px" height="437px" viewBox="0 0 434 437" version="1.1" xmlns="http://www.w3.org/2000/svg" xmlns:xlink="http://www.w3.org/1999/xlink">
    <!-- Generator: Sketch 52.6 (67491) - http://www.bohemiancoding.com/sketch -->
    <title>Group 3@2x</title>
    <desc>Created with Sketch.</desc>
    <defs>
        <circle id="path-1" cx="203.5" cy="203.5" r="203.5"></circle>
        <filter x="-1.1%" y="-1.1%" width="103.7%" height="103.7%" filterUnits="objectBoundingBox" id="filter-2">
            <feMorphology radius="3" operator="dilate" in="SourceAlpha" result="shadowSpreadOuter1"></feMorphology>
            <feOffset dx="3" dy="3" in="shadowSpreadOuter1" result="shadowOffsetOuter1"></feOffset>
            <feComposite in="shadowOffsetOuter1" in2="SourceAlpha" operator="out" result="shadowOffsetOuter1"></feComposite>
            <feColorMatrix values="0 0 0 0 0   0 0 0 0 0   0 0 0 0 0  0 0 0 0.07 0" type="matrix" in="shadowOffsetOuter1"></feColorMatrix>
        </filter>
        <circle id="path-3" cx="201.5" cy="201.5" r="201.5"></circle>
    </defs>
    <g id="Page-1" stroke="none" stroke-width="1" fill="none" fill-rule="evenodd">
        <g id="Left-Sub-Page" transform="translate(-824.000000, -2453.000000)">
            <g id="Group-3" transform="translate(826.000000, 2455.000000)">
                <g id="Group" transform="translate(17.000000, 16.000000)" fill-rule="nonzero">
                    <g id="Oval">
                        <use fill="black" fill-opacity="1" filter="url(#filter-2)" xlink:href="#path-1"></use>
                        <use stroke="#000000" stroke-width="3" fill="#4A90E2" xlink:href="#path-1"></use>
                    </g>
                </g>
                <g id="Path-+-Path-+-Path-+-Path-+-Path-Mask" transform="translate(19.000000, 18.000000)">
                    <mask id="mask-4" fill="white">
                        <use xlink:href="#path-3"></use>
                    </mask>
                    <use id="Mask" fill="#3970AF" fill-rule="nonzero" xlink:href="#path-3"></use>
                    <path d="M360.615246,420.503173 C360.615246,289.908065 254.746993,184.039813 124.151885,184.039813 C-6.44322272,184.039813 -112.311475,289.908065 -112.311475,420.503173" id="Path" stroke="#000000" stroke-width="3" fill="#F1A4AB" fill-rule="nonzero" mask="url(#mask-4)"></path>
                    <path d="M328.440281,428.482436 C328.440281,315.893951 237.169281,224.622951 124.580796,224.622951 C11.9923117,224.622951 -79.2786885,315.893951 -79.2786885,428.482436" id="Path" stroke="#000000" stroke-width="3" fill="#FAD843" fill-rule="nonzero" mask="url(#mask-4)"></path>
                    <path d="M295.407494,436.032787 C295.407494,341.166564 219.137052,264.262295 125.052693,264.262295 C30.9683346,264.262295 -45.3021077,341.166564 -45.3021077,436.032787" id="Path" stroke="#000000" stroke-width="3" fill="#64C1BE" fill-rule="nonzero" mask="url(#mask-4)"></path>
                    <path d="M261.430913,443.583138 C261.430913,365.396691 199.949753,302.014052 124.108899,302.014052 C48.2680451,302.014052 -13.2131148,365.396691 -13.2131148,443.583138" id="Path" stroke="#000000" stroke-width="3" fill="#4A90E2" fill-rule="nonzero" mask="url(#mask-4)"></path>
                    <path d="M230.285714,450.189696 C230.285714,388.16178 182.96001,337.87822 124.580796,337.87822 C66.201582,337.87822 18.8758782,388.16178 18.8758782,450.189696" id="Path" stroke="#000000" stroke-width="3" fill="#FFFFFF" fill-rule="nonzero" mask="url(#mask-4)"></path>
                    <path d="M346.513243,195.345525 C406.808543,195.345525 436.956193,195.345525 436.956193,195.345525 C446.114001,194.692797 448.541233,188.791976 448.541233,178.171769 C448.541233,170.870156 443.018224,165.171814 436.956193,162.490895 C431.346481,160.010013 422.447741,158.753655 416.750458,158.753655 C416.750458,158.753655 414.578486,137.793911 392.39925,137.793911 C377.613092,137.793911 369.513799,146.026239 368.10137,162.490895 C355.228061,159.496335 345.359435,160.397052 338.495492,165.193047 C331.631549,169.989041 329.178693,176.763024 331.136922,185.514993 C323.192773,185.58673 319.867748,188.863574 321.161847,195.345525 C321.161847,195.345525 329.612312,195.345525 346.513243,195.345525 Z" id="Path-2-Copy" stroke="#000000" stroke-width="3" fill="#FFFFFF" fill-rule="nonzero" mask="url(#mask-4)"></path>
                </g>
                <path d="M32.3173626,73 C108.364712,73 146.388387,73 146.388387,73 C157.938657,72.1720617 161,64.6873038 161,51.2163495 C161,41.9547897 154.034114,34.7268607 146.388387,31.3263121 C139.313147,28.1794953 128.089625,26.585897 120.903936,26.585897 C120.903936,26.585897 118.16454,0 90.1910141,0 C71.5419967,1.08431059e-15 61.3267764,10.442104 59.5453531,31.3263121 C43.3089122,27.5279321 30.8621235,28.6704258 22.2049869,34.7537931 C13.5478504,40.8371605 10.4541891,49.4294599 12.924003,60.5306915 C2.90445761,60.6216836 -1.28922505,64.7781197 0.342955014,73 C0.342955014,73 11.0010909,73 32.3173626,73 Z" id="Path-2" stroke="#000000" stroke-width="3" fill="#FFFFFF" fill-rule="nonzero"></path>
                <g id="Group-2" transform="translate(125.000000, 16.000000)" fill-rule="nonzero" stroke="#000000" stroke-width="3">
                    <path d="M91.5860465,130.531018 C113.976042,97.8415466 128.044783,82.7543864 133.792269,85.2695379 C139.539756,87.7846894 133.192318,108.752677 114.749955,148.173502 L91.5860465,130.531018 Z" id="Path-5" fill="#FAD843"></path>
                    <path d="M7.55348837,416.571367 C127.913679,416.571367 187.712129,416.571367 186.948837,416.571367 C140.429683,387.731574 127.366599,351.350856 147.759585,307.429214 C186.243162,295.438985 204.546601,277.025309 202.669904,252.188188 C200.793206,227.351067 179.967451,210.192367 140.192638,200.712089 C138.627429,171.98781 130.499245,151.162102 115.808087,138.234966 C93.77135,118.844262 56.7465391,127.285673 56.7465391,127.285673 C39.5455751,113.602992 21.2392387,108.268337 1.82752969,111.281706 C1.82752969,131.294747 8.55950167,148.373061 22.0234456,162.516647 C-0.66663861,240.901392 -5.48995769,325.586299 7.55348837,416.571367 Z" id="Path-4" fill="#F4F4F4"></path>
                    <ellipse id="Oval" fill="#FFFFFF" cx="66.5651163" cy="188.278409" rx="8.96976744" ry="8.96022727"></ellipse>
                    <ellipse id="Oval-Copy" fill="#FFFFFF" cx="104.332558" cy="188.278409" rx="8.96976744" ry="8.96022727"></ellipse>
                    <path d="M210.882329,50.1386073 L199.141031,55.7744573 C197.64734,56.4914324 195.855242,55.8617798 195.138266,54.3680889 C194.885117,53.840696 194.791686,53.2507958 194.869472,52.6709878 L196.601223,39.7627764 L187.612951,30.3377119 C186.469491,29.1386849 186.514537,27.2397242 187.713564,26.0962644 C188.136917,25.6925313 188.669074,25.421384 189.244541,25.3161927 L202.05612,22.9743294 L208.24236,11.5134691 C209.029354,10.0554546 210.849294,9.51148493 212.307308,10.2984789 C212.822104,10.576351 213.244426,10.9986729 213.522298,11.5134691 L219.708538,22.9743294 L232.520117,25.3161927 C234.149966,25.6141172 235.229704,27.1768862 234.93178,28.8067349 C234.826588,29.3822025 234.555441,29.9143591 234.151708,30.3377119 L225.163435,39.7627764 L226.895187,52.6709878 C227.115495,54.3131298 225.96287,55.8229438 224.320728,56.0432517 C223.74092,56.1210381 223.15102,56.0276071 222.623627,55.7744573 L210.882329,50.1386073 Z" id="Star" fill="#FAD843" transform="translate(210.882329, 35.122564) rotate(13.000000) translate(-210.882329, -35.122564) "></path>
                </g>
                <path d="M283,291 C282.996795,282.166983 276.502326,275.003538 268.494198,275.000001 C260.48607,274.996464 253.996796,282.154175 254.000001,290.987192 C254.000001,290.987192 283,291 283,291 Z" id="Oval-Copy-2" stroke="#000000" stroke-width="3" fill="#FFFFFF" transform="translate(268.500000, 283.000000) rotate(-180.000000) translate(-268.500000, -283.000000) "></path>
                <path d="M138,136.204725 C138,136.204725 149.419252,134.768373 158.239491,139.50482 C167.05973,144.241267 171,148.659435 171,148.659435 L154.344818,169 C145.043956,158.598392 139.595683,147.666633 138,136.204725 Z" id="Shape" stroke="#000000" stroke-width="3" fill="#FFFFFF" fill-rule="nonzero"></path>
            </g>
        </g>
    </g>
</svg>