<?xml version="1.0" encoding="UTF-8"?>
<svg width="561px" height="104px" viewBox="0 0 561 104" version="1.1" xmlns="http://www.w3.org/2000/svg" xmlns:xlink="http://www.w3.org/1999/xlink">
    <!-- Generator: Sketch 60 (88103) - https://sketch.com -->
    <title>Path 5</title>
    <desc>Created with Sketch.</desc>
    <g id="v4" stroke="none" stroke-width="1" fill="none" fill-rule="evenodd">
        <g id="Sourcing" transform="translate(-439.000000, -4483.000000)" fill="#000000" fill-rule="nonzero">
            <g id="Group-45" transform="translate(194.000000, 4313.000000)">
                <g id="Group-21" transform="translate(0.000000, 169.000000)">
                    <path id="Path-5" d="M277.628999,78.4843653 L279.212258,81.0325585 C274.416306,84.0124099 269.62022,87.0793068 264.824001,90.233253 L263.629067,91.0230587 C265.553606,95.1854707 264.226249,100.246006 260.298338,102.885278 C255.943419,105.81147 250.040913,104.653257 247.114722,100.298338 C244.18853,95.9434189 245.346743,90.0409128 249.701662,87.1147216 C253.635985,84.4711409 258.833398,85.1611213 261.958236,88.5301251 L260.767031,89.3178359 C266.387506,85.5878989 272.008161,81.9767401 277.628999,78.4843653 Z M789.041764,88.5301251 C792.166602,85.1611213 797.364015,84.4711409 801.298338,87.1147216 C805.653257,90.0409128 806.81147,95.9434189 803.885278,100.298338 C800.959087,104.653257 795.056581,105.81147 790.701662,102.885278 C786.773437,100.245795 785.446182,95.1846611 787.371395,91.0220598 L786.826281,90.6614043 L786.826281,90.6614043 L785.078453,89.5130352 L786.72192,87.003251 L788.47745,88.1566808 L788.47745,88.1566808 Z M251.374821,89.6048095 C248.39514,91.6069403 247.602679,95.6454971 249.60481,98.6251786 C251.60694,101.60486 255.645497,102.397321 258.625179,100.39519 C261.60486,98.3930597 262.397321,94.3545029 260.39519,91.3748214 C258.39306,88.39514 254.354503,87.6026787 251.374821,89.6048095 Z M752.510433,66.0690017 C757.442409,68.8752661 762.37424,71.7729735 767.305928,74.7621193 L769.771759,76.264312 L768.205202,78.8228072 C763.29692,75.817484 758.388782,72.9033344 753.480788,70.0803541 L751.026804,68.6764613 L752.510433,66.0690017 Z M312.346927,58.4250862 L313.760549,61.0711536 C308.779374,63.7322719 303.798047,66.4873058 298.816571,69.3362605 L296.32582,70.7685646 L294.824187,68.1714316 C300.664895,64.7944011 306.505808,61.5456166 312.346927,58.4250862 Z M716.981319,47.4362458 C722.101848,49.8935 727.222217,52.449307 732.342427,55.1036605 L734.902519,56.4390495 L733.508376,59.0954311 C728.415335,56.4224603 723.322453,53.8476728 718.229731,51.3710624 L715.683383,50.1409385 L716.981319,47.4362458 Z M348.379927,40.8031251 L349.597029,43.5451435 C344.433988,45.8368653 339.270784,48.2295006 334.107418,50.7230561 L331.52572,51.9782439 L330.206887,49.2836792 C336.264345,46.3189044 342.322026,43.4920494 348.379927,40.8031251 Z M680.214139,31.4871587 C685.51634,33.5427878 690.818377,35.704074 696.120246,37.9710099 L698.771167,39.1132819 L697.576292,41.8650582 C692.305644,39.5764392 687.035164,37.3929845 681.764849,35.3146866 L679.129705,34.2843006 L680.214139,31.4871587 Z M385.65107,26.000996 L386.643201,28.8321928 C381.307651,30.7019207 375.971938,32.6794295 370.636059,34.7647272 L367.968105,35.8163585 L366.859857,33.0285663 C373.123369,30.5385929 379.387109,28.1960653 385.65107,26.000996 Z M642.208339,18.5630022 C647.788554,20.194801 653.368607,21.9436186 658.948494,23.8094462 L661.339864,24.6162505 L660.373192,27.4562407 C654.829333,25.5692287 649.285642,23.7985768 643.742113,22.1442763 L641.366324,21.4424139 L642.208339,18.5630022 Z M424.081798,14.3847365 L424.820635,17.2923335 C419.220685,18.7153126 413.620583,20.2570264 408.020323,21.9174834 L405.620202,22.6363779 L404.751438,19.7649238 C411.194686,17.8155059 417.638143,16.0221058 424.081798,14.3847365 Z M603.239168,9.0703014 C608.956731,10.1839012 614.674165,11.4203469 620.391459,12.7796306 L622.841719,13.3697015 L622.130885,16.284271 C616.453366,14.8995817 610.775987,13.6369371 605.098739,12.4963291 L602.665641,12.0149688 L603.239168,9.0703014 Z M463.377891,6.33415251 L463.839249,9.29846509 C458.118713,10.1887941 452.398066,11.2030289 446.677298,12.3411767 L444.225532,12.8365408 L443.622673,9.8977381 C450.20759,8.54692448 456.792669,7.35905903 463.377891,6.33415251 Z M563.502597,3.30904114 C569.316618,3.86257653 575.130564,4.54313718 580.94442,5.3507178 L583.436068,5.7046005 L583.005136,8.67348888 C577.233867,7.83579471 571.462688,7.12421165 565.691587,6.5387344 L563.218262,6.29553632 L563.502597,3.30904114 Z M503.303091,2.11716952 L503.46966,5.11254175 C497.677139,5.43465665 491.88457,5.8838151 486.091937,6.46002084 L483.609376,6.71474457 L483.29392,3.73137611 C489.963565,3.02613926 496.633296,2.48806854 503.303091,2.11716952 Z M525.496472,1.50000002 C530.633652,1.5 535.768559,1.59905528 540.903405,1.79720275 L543.470832,1.90453435 L543.335905,4.90149858 C537.390144,4.6338127 531.444848,4.5 525.496485,4.50000002 L524.4512,4.50138829 L524.4512,4.50138829 L523.405914,4.50553457 L523.390056,1.50557648 C524.09219,1.50186507 524.794324,1.50000625 525.496472,1.50000002 Z"></path>
                </g>
            </g>
        </g>
    </g>
</svg>