<svg xmlns="http://www.w3.org/2000/svg" width="340" height="340" viewBox="0 0 340 340">
    <g fill="#FAD843" fill-rule="evenodd" stroke="#000" stroke-width="2">
        <circle cx="5" cy="5" r="4"/>
        <circle cx="35" cy="5" r="4"/>
        <circle cx="65" cy="5" r="4"/>
        <circle cx="95" cy="5" r="4"/>
        <circle cx="125" cy="5" r="4"/>
        <circle cx="155" cy="5" r="4"/>
        <circle cx="185" cy="5" r="4"/>
        <circle cx="215" cy="5" r="4"/>
        <circle cx="245" cy="5" r="4"/>
        <circle cx="275" cy="5" r="4"/>
        <circle cx="305" cy="5" r="4"/>
        <circle cx="335" cy="5" r="4"/>
        <g transform="translate(0 30)">
            <circle cx="5" cy="5" r="4"/>
            <circle cx="35" cy="5" r="4"/>
            <circle cx="65" cy="5" r="4"/>
            <circle cx="95" cy="5" r="4"/>
            <circle cx="125" cy="5" r="4"/>
            <circle cx="155" cy="5" r="4"/>
            <circle cx="185" cy="5" r="4"/>
            <circle cx="215" cy="5" r="4"/>
            <circle cx="245" cy="5" r="4"/>
            <circle cx="275" cy="5" r="4"/>
            <circle cx="305" cy="5" r="4"/>
            <circle cx="335" cy="5" r="4"/>
        </g>
        <g transform="translate(0 60)">
            <circle cx="5" cy="5" r="4"/>
            <circle cx="35" cy="5" r="4"/>
            <circle cx="65" cy="5" r="4"/>
            <circle cx="95" cy="5" r="4"/>
            <circle cx="125" cy="5" r="4"/>
            <circle cx="155" cy="5" r="4"/>
            <circle cx="185" cy="5" r="4"/>
            <circle cx="215" cy="5" r="4"/>
            <circle cx="245" cy="5" r="4"/>
            <circle cx="275" cy="5" r="4"/>
            <circle cx="305" cy="5" r="4"/>
            <circle cx="335" cy="5" r="4"/>
        </g>
        <g transform="translate(0 90)">
            <circle cx="5" cy="5" r="4"/>
            <circle cx="35" cy="5" r="4"/>
            <circle cx="65" cy="5" r="4"/>
            <circle cx="95" cy="5" r="4"/>
            <circle cx="125" cy="5" r="4"/>
            <circle cx="155" cy="5" r="4"/>
            <circle cx="185" cy="5" r="4"/>
            <circle cx="215" cy="5" r="4"/>
            <circle cx="245" cy="5" r="4"/>
            <circle cx="275" cy="5" r="4"/>
            <circle cx="305" cy="5" r="4"/>
            <circle cx="335" cy="5" r="4"/>
        </g>
        <g transform="translate(0 120)">
            <circle cx="5" cy="5" r="4"/>
            <circle cx="35" cy="5" r="4"/>
            <circle cx="65" cy="5" r="4"/>
            <circle cx="95" cy="5" r="4"/>
            <circle cx="125" cy="5" r="4"/>
            <circle cx="155" cy="5" r="4"/>
            <circle cx="185" cy="5" r="4"/>
            <circle cx="215" cy="5" r="4"/>
            <circle cx="245" cy="5" r="4"/>
            <circle cx="275" cy="5" r="4"/>
            <circle cx="305" cy="5" r="4"/>
            <circle cx="335" cy="5" r="4"/>
        </g>
        <g transform="translate(0 150)">
            <circle cx="5" cy="5" r="4"/>
            <circle cx="35" cy="5" r="4"/>
            <circle cx="65" cy="5" r="4"/>
            <circle cx="95" cy="5" r="4"/>
            <circle cx="125" cy="5" r="4"/>
            <circle cx="155" cy="5" r="4"/>
            <circle cx="185" cy="5" r="4"/>
            <circle cx="215" cy="5" r="4"/>
            <circle cx="245" cy="5" r="4"/>
            <circle cx="275" cy="5" r="4"/>
            <circle cx="305" cy="5" r="4"/>
            <circle cx="335" cy="5" r="4"/>
        </g>
        <g transform="translate(0 180)">
            <circle cx="5" cy="5" r="4"/>
            <circle cx="35" cy="5" r="4"/>
            <circle cx="65" cy="5" r="4"/>
            <circle cx="95" cy="5" r="4"/>
            <circle cx="125" cy="5" r="4"/>
            <circle cx="155" cy="5" r="4"/>
            <circle cx="185" cy="5" r="4"/>
            <circle cx="215" cy="5" r="4"/>
            <circle cx="245" cy="5" r="4"/>
            <circle cx="275" cy="5" r="4"/>
            <circle cx="305" cy="5" r="4"/>
            <circle cx="335" cy="5" r="4"/>
        </g>
        <g transform="translate(0 210)">
            <circle cx="5" cy="5" r="4"/>
            <circle cx="35" cy="5" r="4"/>
            <circle cx="65" cy="5" r="4"/>
            <circle cx="95" cy="5" r="4"/>
            <circle cx="125" cy="5" r="4"/>
            <circle cx="155" cy="5" r="4"/>
            <circle cx="185" cy="5" r="4"/>
            <circle cx="215" cy="5" r="4"/>
            <circle cx="245" cy="5" r="4"/>
            <circle cx="275" cy="5" r="4"/>
            <circle cx="305" cy="5" r="4"/>
            <circle cx="335" cy="5" r="4"/>
        </g>
        <g transform="translate(0 240)">
            <circle cx="5" cy="5" r="4"/>
            <circle cx="35" cy="5" r="4"/>
            <circle cx="65" cy="5" r="4"/>
            <circle cx="95" cy="5" r="4"/>
            <circle cx="125" cy="5" r="4"/>
            <circle cx="155" cy="5" r="4"/>
            <circle cx="185" cy="5" r="4"/>
            <circle cx="215" cy="5" r="4"/>
            <circle cx="245" cy="5" r="4"/>
            <circle cx="275" cy="5" r="4"/>
            <circle cx="305" cy="5" r="4"/>
            <circle cx="335" cy="5" r="4"/>
        </g>
        <g transform="translate(0 270)">
            <circle cx="5" cy="5" r="4"/>
            <circle cx="35" cy="5" r="4"/>
            <circle cx="65" cy="5" r="4"/>
            <circle cx="95" cy="5" r="4"/>
            <circle cx="125" cy="5" r="4"/>
            <circle cx="155" cy="5" r="4"/>
            <circle cx="185" cy="5" r="4"/>
            <circle cx="215" cy="5" r="4"/>
            <circle cx="245" cy="5" r="4"/>
            <circle cx="275" cy="5" r="4"/>
            <circle cx="305" cy="5" r="4"/>
            <circle cx="335" cy="5" r="4"/>
        </g>
        <g transform="translate(0 300)">
            <circle cx="5" cy="5" r="4"/>
            <circle cx="35" cy="5" r="4"/>
            <circle cx="65" cy="5" r="4"/>
            <circle cx="95" cy="5" r="4"/>
            <circle cx="125" cy="5" r="4"/>
            <circle cx="155" cy="5" r="4"/>
            <circle cx="185" cy="5" r="4"/>
            <circle cx="215" cy="5" r="4"/>
            <circle cx="245" cy="5" r="4"/>
            <circle cx="275" cy="5" r="4"/>
            <circle cx="305" cy="5" r="4"/>
            <circle cx="335" cy="5" r="4"/>
        </g>
        <g transform="translate(0 330)">
            <circle cx="5" cy="5" r="4"/>
            <circle cx="35" cy="5" r="4"/>
            <circle cx="65" cy="5" r="4"/>
            <circle cx="95" cy="5" r="4"/>
            <circle cx="125" cy="5" r="4"/>
            <circle cx="155" cy="5" r="4"/>
            <circle cx="185" cy="5" r="4"/>
            <circle cx="215" cy="5" r="4"/>
            <circle cx="245" cy="5" r="4"/>
            <circle cx="275" cy="5" r="4"/>
            <circle cx="305" cy="5" r="4"/>
            <circle cx="335" cy="5" r="4"/>
        </g>
    </g>
</svg>
