<?xml version="1.0" encoding="UTF-8"?>
<svg width="142px" height="142px" viewBox="0 0 142 142" version="1.1" xmlns="http://www.w3.org/2000/svg" xmlns:xlink="http://www.w3.org/1999/xlink">
    <!-- Generator: Sketch 60 (88103) - https://sketch.com -->
    <title>Group</title>
    <desc>Created with Sketch.</desc>
    <defs>
        <path d="M17.3607173,1.04911427 L1.04911427,17.3607173 C0.377377683,18.0324538 -5.60428082e-16,18.9435242 0,19.8935031 L0,134.577106 C2.42263161e-16,136.555335 1.60367133,138.159006 3.58190016,138.159006 L118.265503,138.159006 C119.215482,138.159006 120.126552,137.781628 120.798289,137.109892 L137.109892,120.798289 C137.781628,120.126552 138.159006,119.215482 138.159006,118.265503 L138.159006,3.58190016 C138.159006,1.60367133 136.555335,1.4129621e-15 134.577106,0 L19.8935031,0 C18.9435242,5.45915124e-15 18.0324538,0.377377683 17.3607173,1.04911427 Z" id="path-1"></path>
        <filter x="-3.3%" y="-1.1%" width="104.3%" height="104.3%" filterUnits="objectBoundingBox" id="filter-2">
            <feOffset dx="-3" dy="3" in="SourceAlpha" result="shadowOffsetOuter1"></feOffset>
            <feComposite in="shadowOffsetOuter1" in2="SourceAlpha" operator="out" result="shadowOffsetOuter1"></feComposite>
            <feColorMatrix values="0 0 0 0 0   0 0 0 0 0   0 0 0 0 0  0 0 0 0.07 0" type="matrix" in="shadowOffsetOuter1"></feColorMatrix>
        </filter>
        <linearGradient x1="-0.000861752424%" y1="50.0039525%" x2="100.007397%" y2="50.0039525%" id="linearGradient-3">
            <stop stop-color="#7692FF" offset="0%"></stop>
            <stop stop-color="#003F91" offset="100%"></stop>
        </linearGradient>
    </defs>
    <g id="v3" stroke="none" stroke-width="1" fill="none" fill-rule="evenodd">
        <g id="Sourcing" transform="translate(-274.000000, -7631.000000)">
            <g id="Group-15" transform="translate(0.000000, 6997.000000)">
                <g id="Group" transform="translate(277.000000, 634.000000)">
                    <g id="Group-30" transform="translate(0.000000, 0.361901)">
                        <g id="Path-17">
                            <use fill="black" fill-opacity="1" filter="url(#filter-2)" xlink:href="#path-1"></use>
                            <path stroke="#1F1B24" stroke-width="2" d="M18.067824,1.75622105 L1.75622105,18.067824 C1.27202084,18.5520242 1,19.2087407 1,19.8935031 L1,134.577106 C1,136.00305 2.15595608,137.159006 3.58190016,137.159006 L118.265503,137.159006 C118.950266,137.159006 119.606982,136.886985 120.091182,136.402785 L136.402785,120.091182 C136.886985,119.606982 137.159006,118.950266 137.159006,118.265503 L137.159006,3.58190016 C137.159006,2.15595608 136.00305,1 134.577106,1 L19.8935031,1 C19.2087407,1 18.5520242,1.27202084 18.067824,1.75622105 Z" stroke-linejoin="square" fill="#D8D8D8" fill-rule="evenodd"></path>
                        </g>
                        <rect id="Rectangle" stroke="#1F1B24" stroke-width="2" fill="#FFFFFF" fill-rule="nonzero" x="19.4212008" y="1" width="117.737805" height="117.737805"></rect>
                        <g id="Epione-couleurs" transform="translate(50.000000, 31.638099)" fill-rule="nonzero">
                            <path d="M14.115,45.115 L21.115,52.115 C24.8610052,55.8558321 30.9289948,55.8558321 34.675,52.115 L42.025,44.75 L46.375,40.4 L52.105,34.67 C55.8321184,30.9183303 55.8321184,24.8616697 52.105,21.11 L34.665,3.6675 C30.9144575,-0.0623514864 24.8555425,-0.0623514864 21.105,3.6675 L3.6675,21.105 C-0.0623514864,24.8555425 -0.0623514864,30.9144575 3.6675,34.665 L9.4175,40.415 L14.115,45.115 Z" id="Path" fill="#FFFFFF"></path>
                            <path d="M27.8625,55.7501124 C25.6837547,55.7565549 23.5579449,55.0788492 21.785,53.8125 C21.3273111,53.4843425 20.8975159,53.118933 20.5,52.72 L3.0525,35.28 C-1.01685925,31.1897406 -1.01685925,24.5802594 3.0525,20.49 L20.5,3.0525 C24.5902594,-1.01685925 31.1997406,-1.01685925 35.29,3.0525 L52.72,20.5 C56.7811671,24.593637 56.7811671,31.196363 52.72,35.29 L35.28,52.73 C33.3035884,54.6770959 30.6368865,55.762831 27.8625,55.7501124 Z M27.885,1.74985268 C25.5743847,1.7376364 23.3547023,2.64945239 21.72,4.2825 L4.2825,21.72 C0.894885882,25.1319508 0.894885882,30.6380492 4.2825,34.05 L21.72,51.5 C22.0553354,51.8329727 22.4164595,52.1389251 22.8,52.415 C26.277543,54.8717875 31.0151745,54.4864601 34.05,51.5 L51.5,34.05 C54.8876141,30.6380492 54.8876141,25.1319508 51.5,21.72 L34.05,4.2825 C32.4159277,2.64850626 30.1958323,1.73652062 27.885,1.74985268 Z" id="Shape" fill="url(#linearGradient-3)"></path>
                            <polygon id="Path" fill="#181D1C" points="12.2725 30.625 12.2725 23.5375 16.75 23.5375 16.75 25.0375 13.8525 25.0375 13.8525 26.385 16.5 26.385 16.5 27.775 13.8525 27.775 13.8525 29.135 16.77 29.135 16.77 30.635"></polygon>
                            <path d="M17.98,32.525 L17.98,25.6575 L19.45,25.6575 L19.45,26.1575 C19.8098453,25.730397 20.34994,25.4978691 20.9075,25.53 C22.3475,25.53 23.2175,26.6275 23.2175,28.1175 C23.2175,29.6075 22.25,30.735 20.8475,30.735 C20.3474577,30.7689834 19.8568435,30.5869373 19.5,30.235 L19.5,32.525 L17.98,32.525 Z M20.6,26.905 C20.01,26.905 19.48,27.305 19.48,28.135 C19.48,28.965 20.01,29.385 20.6,29.385 C21.19,29.385 21.7275,28.975 21.7275,28.135 C21.7275,27.295 21.1975,26.905 20.6,26.905 Z" id="Shape" fill="#181D1C"></path>
                            <path d="M24.9475,23.25 C25.3083537,23.2459452 25.6359365,23.460197 25.7768479,23.7924256 C25.9177594,24.1246541 25.8441029,24.5090875 25.5903704,24.7657034 C25.3366379,25.0223192 24.9530613,25.1003147 24.6192618,24.9631661 C24.2854623,24.8260175 24.0675228,24.5008765 24.0675,24.14 C24.07015,23.6534512 24.4610122,23.2581474 24.9475,23.25 Z M24.1975,30.6275 L24.1975,25.6575 L25.7175,25.6575 L25.7175,30.625 L24.1975,30.6275 Z" id="Shape" fill="#181D1C"></path>
                            <path d="M31.965,28.135 C31.9670232,29.203233 31.3250921,30.1674063 30.3387536,30.577604 C29.3524151,30.9878017 28.2160849,30.7631703 27.4600131,30.0085305 C26.7039413,29.2538907 26.4771562,28.1179884 26.8854833,27.130874 C27.2938105,26.1437596 28.2567651,25.5000019 29.325,25.5 C30.0300791,25.4805557 30.7121598,25.7517544 31.2113881,26.2500372 C31.7106164,26.74832 31.9831076,27.4298853 31.965,28.135 L31.965,28.135 Z M30.445,28.135 C30.445,27.295 29.905,26.905 29.325,26.905 C28.745,26.905 28.205,27.295 28.205,28.135 C28.205,28.975 28.755,29.385 29.325,29.385 C29.895,29.385 30.445,28.975 30.445,28.135 Z" id="Shape" fill="#181D1C"></path>
                            <path d="M34.4625,30.625 L32.9425,30.625 L32.9425,25.6575 L34.4125,25.6575 L34.4125,26.225 C34.7282088,25.7725631 35.2510732,25.5101906 35.8025,25.5275 C37.0525,25.5275 37.6125,26.415 37.6125,27.505 L37.6125,30.625 L36.0925,30.625 L36.0925,27.765 C36.0925,27.265 35.8425,26.905 35.2825,26.905 C35.0548926,26.9007901 34.8360816,26.9928485 34.6799421,27.1585087 C34.5238026,27.3241689 34.4448414,27.5480396 34.4625,27.775 L34.4625,30.625 Z" id="Path" fill="#181D1C"></path>
                            <path d="M43.41,29.195 C43.16,30.055 42.38,30.775 41.12,30.775 C40.4173297,30.7924707 39.7390625,30.5168359 39.2477693,30.0141614 C38.756476,29.5114868 38.4964443,28.827086 38.53,28.125 C38.53,26.525 39.72,25.5075 41.01,25.5075 C42.55,25.5075 43.51,26.455 43.51,28.055 C43.5116584,28.2121936 43.5016308,28.369293 43.48,28.525 L40,28.525 C40.0604086,29.0951288 40.5576031,29.5175241 41.13,29.485 C41.5738192,29.5267912 41.9880127,29.2575655 42.13,28.835 L43.41,29.195 Z M42.03,27.545 C42.01,27.165 41.75,26.705 41.03,26.705 C40.5261129,26.6738758 40.0863179,27.0433036 40.03,27.545 L42.03,27.545 Z" id="Shape" fill="#181D1C"></path>
                        </g>
                        <path d="M1.53510007,136.623906 L19.9563009,118.202705 L1.53510007,136.623906 Z" id="Path-18" stroke="#1F1B24" stroke-width="2"></path>
                    </g>
                </g>
            </g>
        </g>
    </g>
</svg>