<?xml version="1.0" encoding="UTF-8"?>
<svg width="142px" height="142px" viewBox="0 0 142 142" version="1.1" xmlns="http://www.w3.org/2000/svg" xmlns:xlink="http://www.w3.org/1999/xlink">
    <!-- Generator: Sketch 60 (88103) - https://sketch.com -->
    <title>Group</title>
    <desc>Created with Sketch.</desc>
    <defs>
        <path d="M17.3607173,1.04911427 L1.04911427,17.3607173 C0.377377683,18.0324538 -5.60428082e-16,18.9435242 0,19.8935031 L0,134.577106 C2.42263161e-16,136.555335 1.60367133,138.159006 3.58190016,138.159006 L118.265503,138.159006 C119.215482,138.159006 120.126552,137.781628 120.798289,137.109892 L137.109892,120.798289 C137.781628,120.126552 138.159006,119.215482 138.159006,118.265503 L138.159006,3.58190016 C138.159006,1.60367133 136.555335,1.4129621e-15 134.577106,0 L19.8935031,0 C18.9435242,5.45915124e-15 18.0324538,0.377377683 17.3607173,1.04911427 Z" id="path-1"></path>
        <filter x="-3.3%" y="-1.1%" width="104.3%" height="104.3%" filterUnits="objectBoundingBox" id="filter-2">
            <feOffset dx="-3" dy="3" in="SourceAlpha" result="shadowOffsetOuter1"></feOffset>
            <feComposite in="shadowOffsetOuter1" in2="SourceAlpha" operator="out" result="shadowOffsetOuter1"></feComposite>
            <feColorMatrix values="0 0 0 0 0   0 0 0 0 0   0 0 0 0 0  0 0 0 0.07 0" type="matrix" in="shadowOffsetOuter1"></feColorMatrix>
        </filter>
        <rect id="path-3" x="0" y="0" width="75" height="22.5"></rect>
    </defs>
    <g id="v3" stroke="none" stroke-width="1" fill="none" fill-rule="evenodd">
        <g id="Sourcing" transform="translate(-478.000000, -7463.000000)">
            <g id="Group-15" transform="translate(0.000000, 6997.000000)">
                <g id="Group" transform="translate(481.000000, 466.000000)">
                    <g id="Group-30" transform="translate(0.000000, 0.361901)">
                        <g id="Path-17">
                            <use fill="black" fill-opacity="1" filter="url(#filter-2)" xlink:href="#path-1"></use>
                            <path stroke="#1F1B24" stroke-width="2" d="M18.067824,1.75622105 L1.75622105,18.067824 C1.27202084,18.5520242 1,19.2087407 1,19.8935031 L1,134.577106 C1,136.00305 2.15595608,137.159006 3.58190016,137.159006 L118.265503,137.159006 C118.950266,137.159006 119.606982,136.886985 120.091182,136.402785 L136.402785,120.091182 C136.886985,119.606982 137.159006,118.950266 137.159006,118.265503 L137.159006,3.58190016 C137.159006,2.15595608 136.00305,1 134.577106,1 L19.8935031,1 C19.2087407,1 18.5520242,1.27202084 18.067824,1.75622105 Z" stroke-linejoin="square" fill="#D8D8D8" fill-rule="evenodd"></path>
                        </g>
                        <rect id="Rectangle" stroke="#1F1B24" stroke-width="2" fill="#FFFFFF" fill-rule="nonzero" x="19.4212008" y="1" width="117.737805" height="117.737805"></rect>
                        <g id="fullup_logo_dark" transform="translate(41.000000, 48.638099)">
                            <mask id="mask-4" fill="white">
                                <use xlink:href="#path-3"></use>
                            </mask>
                            <g id="Rectangle_2"></g>
                            <g id="Groupe_de_masques_1" mask="url(#mask-4)">
                                <g transform="translate(0.000000, 1.500000)" id="logo-dark-no-background">
                                    <g transform="translate(0.000000, 0.469500)">
                                        <path d="M21.35,3.9755 L21.35,7.186 L26.015,7.186 L26.015,9.5 L21.35,9.5 L21.35,14.486 L18.7125,14.486 L18.7125,1.66 L26.8625,1.66 L26.8625,3.9755 L21.35,3.9755 Z M38.33,4.98 L38.33,14.5865 L35.6755,14.5865 L35.6755,13.7625 C34.8952024,14.4157505 33.9125938,14.7783315 32.895,14.7885 C31.6385,14.7885 30.68,14.4775 30.0675,13.8385 C29.439,13.201 29.125,12.175 29.125,10.776 L29.125,4.98 L31.7795,4.98 L31.7795,10.7625 C31.7399499,11.2222566 31.8808993,11.6793558 32.1725,12.037 C32.5291026,12.3535164 33.0022375,12.5057251 33.4765,12.4565 C34.2944566,12.4172974 35.0728491,12.0928493 35.6765,11.5395 L35.6765,4.98 L38.33,4.98 Z M40.8955,12.0265 L40.8955,0 L43.5245,0 L43.5245,11.119 C43.4915699,11.4107302 43.5623737,11.7047431 43.7245,11.9495 C43.9181988,12.1266118 44.1793414,12.2107395 44.44,12.18 C44.7717957,12.1837304 45.1022326,12.1370309 45.42,12.0415 L45.42,14.287 C44.878177,14.4092837 44.3253475,14.4762933 43.77,14.487 C41.8445,14.487 40.8955,13.672 40.8955,12.0265 Z M47.2335,12.0265 L47.2335,0 L49.8625,0 L49.8625,11.119 C49.8295699,11.4107302 49.9003737,11.7047431 50.0625,11.9495 C50.2561988,12.1266118 50.5173414,12.2107395 50.778,12.18 C51.1097957,12.1837304 51.4402326,12.1370309 51.758,12.0415 L51.758,14.287 C51.216177,14.4092837 50.6633475,14.4762933 50.108,14.487 C48.1825,14.487 47.2335,13.672 47.2335,12.0265 Z" id="Tracé_6" fill="#253C53" fill-rule="nonzero"></path>
                                        <path d="M62.9275,4.98 L62.9275,14.5865 L60.273,14.5865 L60.273,13.7625 C59.4927024,14.4157505 58.5100938,14.7783315 57.4925,14.7885 C56.236,14.7885 55.2775,14.4775 54.665,13.8385 C54.0365,13.201 53.7225,12.175 53.7225,10.776 L53.7225,4.98 L56.377,4.98 L56.377,10.7625 C56.3374499,11.2222566 56.4783993,11.6793558 56.77,12.037 C57.1266026,12.3535164 57.5997375,12.5057251 58.074,12.4565 C58.8919566,12.4172974 59.6703491,12.0928493 60.274,11.5395 L60.274,4.98 L62.9275,4.98 Z M72.9275,5.269 C73.596764,5.67071651 74.1272869,6.26735855 74.448,6.979 C74.8411109,7.85869338 75.0301608,8.81590797 75.001,9.779 C75.0301954,10.7420949 74.841144,11.6993171 74.448,12.579 C74.1268007,13.2903262 73.596394,13.8868375 72.9275,14.289 C72.2472204,14.6835343 71.4711901,14.8825164 70.685,14.864 C69.7338641,14.8409006 68.818752,14.4955521 68.0895,13.8845 L68.0895,18.564 L65.494,18.564 L65.494,4.958 L68.0895,4.958 L68.0895,5.6735 C68.8147771,5.05368974 69.7312586,4.70235122 70.685,4.67845021 C71.4714758,4.67478859 72.2450091,4.87864953 72.9275,5.2695 L72.9275,5.269 Z M71.76,11.814 C72.1681126,11.2116058 72.3627926,10.4899169 72.313,9.764 C72.3612466,9.04246061 72.16657,8.32553652 71.76,7.7275 C71.3658747,7.24905593 70.7661592,6.98871433 70.1475,7.0275 C69.3973263,7.05317453 68.6755041,7.32043815 68.0895,7.7895 L68.0895,11.7075 C68.6721333,12.1844796 69.3950129,12.4574035 70.1475,12.4845 C70.7634657,12.5487057 71.3701425,12.2971935 71.76,11.816 L71.76,11.814 Z" id="Tracé_7" fill="#A4C71C" fill-rule="nonzero"></path>
                                        <circle id="Ellipse_3" fill="#253C53" fill-rule="nonzero" cx="10.488" cy="2.943" r="1"></circle>
                                        <path d="M10.855,2.366 C8.97818387,1.25214457 6.69649246,1.05286458 4.655,1.8245 C1.9786652,2.86101992 0.161545605,5.37379103 0.0155238474,8.24011606 C-0.130497911,11.1064411 1.42185626,13.7908663 3.979,15.094 C6.16599463,16.1767268 8.75150921,16.0836618 10.855,14.8465 C11.1495284,14.6566726 11.2423047,14.2685553 11.0654643,13.966051 C10.8886239,13.6635467 10.504908,13.553981 10.195,13.7175 C9.34615893,14.2305498 8.37805283,14.5130362 7.3865,14.537 C6.58357112,14.5733206 5.78219702,14.4369165 5.0365,14.137 C3.62529917,13.5777057 2.48256358,12.4981472 1.844,11.121 C1.52562764,10.4248169 1.3433528,9.67416358 1.307,8.9095 C1.26365596,8.11031311 1.38377063,7.31068289 1.66,6.5595 C1.91881689,5.87717076 2.29254971,5.24419251 2.765,4.688 C3.26486507,4.09753836 3.88211089,3.61753396 4.5775,3.2785 C6.36786854,2.37985785 8.49389547,2.4615773 10.21,3.495 C10.916,3.9125 11.56,2.7835 10.8545,2.366 L10.855,2.366 Z" id="Tracé_8" fill="#253C53" fill-rule="nonzero"></path>
                                        <path d="M3.9,7.429 C3.27229586,9.01789831 3.74298301,10.8303167 5.0645,11.913 C6.37345707,12.9689059 8.19304849,13.122518 9.6605,12.301 C10.4787164,11.8164499 11.1063573,11.0663511 11.439,10.1755 C11.5283727,9.82766185 11.3267252,9.47141044 10.9825,9.369 C10.6339425,9.2816723 10.2770167,9.47790518 10.164,9.819 C9.72000696,11.001316 8.51513492,11.717314 7.26441696,11.542084 C6.01369899,11.366854 5.05198269,10.3473092 4.95,9.0885 C4.91925728,8.63779801 4.9947847,8.18617488 5.1705,7.77 C5.26018089,7.42199932 5.05846876,7.06541292 4.714,6.963 C4.36126987,6.87923345 4.00382397,7.08252125 3.8955,7.4285 L3.9,7.429 Z" id="Tracé_9" fill="#A4C71C" fill-rule="nonzero"></path>
                                        <circle id="Ellipse_4" fill="#A4C71C" fill-rule="nonzero" cx="4.6025" cy="7.9225" r="1"></circle>
                                        <path d="M9.475,6.9535 C9.49462355,6.89011905 9.50539212,6.82432981 9.507,6.758 C9.49693632,6.4327595 9.22524808,6.17718457 8.9,6.187 C8.72561628,6.187056 8.55865051,6.25755666 8.437,6.3825 L6.792,8.0825 C6.59800184,8.26604932 6.48821642,8.52143155 6.48849945,8.7885 C6.52075555,9.30134665 6.9068099,9.72201143 7.41500947,9.79807261 C7.92320904,9.87413379 8.41550791,9.58493032 8.5965,9.104 L9.459,6.985 C9.459,6.97 9.459,6.97 9.475,6.955 L9.475,6.9535 Z" id="Tracé_10" fill="#253C53" fill-rule="nonzero"></path>
                                    </g>
                                </g>
                            </g>
                        </g>
                        <path d="M1.53510007,136.623906 L19.9563009,118.202705 L1.53510007,136.623906 Z" id="Path-18" stroke="#1F1B24" stroke-width="2"></path>
                    </g>
                </g>
            </g>
        </g>
    </g>
</svg>