<svg xmlns="http://www.w3.org/2000/svg" xmlns:xlink="http://www.w3.org/1999/xlink" width="404" height="392" viewBox="0 0 404 392">
    <defs>
        <filter id="prefix__a" width="104.5%" height="104.5%" x="-1.3%" y="-1.3%" filterUnits="objectBoundingBox">
            <feMorphology in="SourceAlpha" operator="dilate" radius="2.597" result="shadowSpreadOuter1"/>
            <feOffset dx="3" dy="3" in="shadowSpreadOuter1" result="shadowOffsetOuter1"/>
            <feComposite in="shadowOffsetOuter1" in2="SourceAlpha" operator="out" result="shadowOffsetOuter1"/>
            <feColorMatrix in="shadowOffsetOuter1" values="0 0 0 0 0 0 0 0 0 0 0 0 0 0 0 0 0 0 0.07 0"/>
        </filter>
        <filter id="prefix__c" width="104.1%" height="104.1%" x="-3%" y="-1%" filterUnits="objectBoundingBox">
            <feOffset dx="-4" dy="4" in="SourceAlpha" result="shadowOffsetOuter1"/>
            <feComposite in="shadowOffsetOuter1" in2="SourceAlpha" operator="out" result="shadowOffsetOuter1"/>
            <feColorMatrix in="shadowOffsetOuter1" values="0 0 0 0 0 0 0 0 0 0 0 0 0 0 0 0 0 0 0.07 0"/>
        </filter>
        <filter id="prefix__e" width="112%" height="110.7%" x="-8.3%" y="-2.7%" filterUnits="objectBoundingBox">
            <feMorphology in="SourceAlpha" operator="dilate" radius="1.177" result="shadowSpreadOuter1"/>
            <feOffset dx="-4" dy="4" in="shadowSpreadOuter1" result="shadowOffsetOuter1"/>
            <feComposite in="shadowOffsetOuter1" in2="SourceAlpha" operator="out" result="shadowOffsetOuter1"/>
            <feColorMatrix in="shadowOffsetOuter1" values="0 0 0 0 0 0 0 0 0 0 0 0 0 0 0 0 0 0 0.07 0"/>
        </filter>
        <path id="prefix__d" d="M24.801 1.499L1.499 24.8C.539 25.761 0 27.062 0 28.419v163.834c0 2.826 2.291 5.117 5.117 5.117h163.834c1.357 0 2.658-.54 3.618-1.499l23.302-23.302c.96-.96 1.499-2.261 1.499-3.618V5.117c0-2.826-2.291-5.117-5.117-5.117H28.419c-1.357 0-2.658.54-3.618 1.499z"/>
        <path id="prefix__f" d="M68.714 125.221V55.336c0-.852.69-1.542 1.542-1.542.276 0 .547.074.785.215l40.017 23.681c.484.287 1.086.287 1.57 0l40.017-23.68c.733-.435 1.678-.192 2.112.54.14.238.215.51.215.786v69.885c0 .852-.69 1.542-1.542 1.542-.276 0-.547-.074-.785-.215l-18.48-10.937c-.47-.277-.757-.782-.757-1.327v-21.94c0-.851-.69-1.541-1.542-1.541-.277 0-.548.074-.785.214l-18.453 10.92c-.484.287-1.086.287-1.57 0l-18.453-10.92c-.732-.433-1.678-.19-2.112.542-.14.238-.214.509-.214.785v21.94c0 .545-.288 1.05-.757 1.327L71.04 126.548c-.733.434-1.678.191-2.112-.542-.14-.237-.215-.509-.215-.785z"/>
        <circle id="prefix__b" cx="202.122" cy="216.181" r="157.531"/>
    </defs>
    <g fill="none" fill-rule="evenodd" transform="translate(-3 -9)">
        <g fill-rule="nonzero">
            <use fill="#000" filter="url(#prefix__a)" xlink:href="#prefix__b"/>
            <use fill="#4A90E2" stroke="#000" stroke-width="2.193" xlink:href="#prefix__b"/>
        </g>
        <g fill-rule="nonzero" stroke="#000" transform="scale(-1 1) rotate(17 -156.243 -280.636)">
            <path fill="#FFF" stroke-width="2.55" d="M63.298 57.532c15.482.432 27.354-14.009 26.543-29.48C89.031 12.583 75.832.7 60.361 1.51c-15.47.811-27.354 14.006-26.543 29.48.907 17.308-10.162 23.565-5.012 28.351 5.367 4.988 10.83-2.466 34.492-1.808z"/>
            <path fill="#000" stroke-width=".85" d="M58.914 43.035c-3.732-.614-6.202-3.032-5.876-7.58.37-5.15 3.76-6.621 6.968-7.645l.669-9.324c-2.836.057-4.055 1.26-4.734 1.237-.678-.022-1.027-.938-.992-1.427.089-1.24 3.17-2.08 5.89-2.103l.078-1.09c.027-.376.503-.7.918-.686.49.016.842.367.815.743l-.084 1.166c3.261.334 6.732 1.956 6.392 6.693-.345 4.812-3.967 5.822-7.365 6.878l-.785 10.94c4.68.042 5.721-2.9 6.625-2.87.565.018 1.074.826 1.03 1.427-.097 1.354-3.076 3.93-7.825 3.81l-.097 1.354c-.027.376-.428.702-.917.686-.415-.014-.842-.367-.815-.743l.105-1.466zm8.15-20.362c.223-2.664-1.79-3.68-4.05-3.907l-.703 8.352c2.418-.78 4.516-1.637 4.752-4.445zm-7.927 17.422l.855-10.104c-2.307.88-4.23 2.064-4.502 5.284-.232 2.739 1.082 4.36 3.647 4.82z"/>
            <circle cx="16.575" cy="67.575" r="6.375" fill="#FFF" stroke-width="2.55"/>
            <circle cx="5.1" cy="82.45" r="5.1" fill="#FFF" stroke-width="2.55"/>
        </g>
        <g fill-rule="nonzero" stroke="#000" stroke-width="2.55" transform="rotate(-30 319.435 -166.419)">
            <path fill="#F1A4AB" d="M1.7 16.15L7.535 0 15.002 0 20.4 16.15"/>
            <path fill="#FAD843" d="M1.275 20.812H20.825V92.212H1.275z"/>
            <path fill="#F1A4AB" d="M1.275 15.725H20.825V20.825H1.275z"/>
            <path fill="#FAD843" d="M1.275 20.812H20.825V25.912H1.275z"/>
            <ellipse cx="11.05" cy="93.062" fill="#F1A4AB" rx="9.775" ry="9.35"/>
        </g>
        <g>
            <path fill="#64C1BE" fill-rule="nonzero" stroke="#000" stroke-width="2.55" d="M50.767 7.654c11.906 11.906 11.906 31.208 0 43.113-11.905 11.906-31.207 11.906-43.113 0-11.906-11.905-11.906-31.207 0-43.113 11.906-11.906 31.208-11.906 43.113 0zm-17.294 25.82c2.353-2.355 2.353-6.17 0-8.525-2.353-2.354-6.17-2.353-8.524 0-2.354 2.354-2.354 6.17 0 8.524 2.354 2.354 6.17 2.354 8.524 0zm0 0s0 0 0 0h0s0 0 0 0z" transform="translate(232.9 150.45)"/>
            <path fill="#E8E8E8" d="M37.282 37.282c-.793.793-1.676 1.438-2.612 1.951l8.51 15.565c2.382-1.304 4.625-2.958 6.643-4.975 2.017-2.018 3.671-4.26 4.975-6.643l-15.565-8.51c-.512.937-1.158 1.82-1.95 2.612zM21.725 21.725c.823-.823 1.74-1.493 2.712-2.026L15.602 3.538c-2.475 1.354-4.804 3.07-6.899 5.165-2.095 2.095-3.811 4.424-5.165 6.899l16.161 8.835c.532-.972 1.203-1.889 2.026-2.712z" transform="translate(232.9 150.45)"/>
            <path fill="#D8D8D8" fill-rule="nonzero" d="M37.325 21.096c-4.482-4.481-11.748-4.481-16.229 0-4.481 4.482-4.481 11.748 0 16.229 4.482 4.482 11.748 4.482 16.229 0 4.482-4.482 4.482-11.747 0-16.229zm-5.902 10.327c-1.222 1.223-3.203 1.223-4.426 0-1.223-1.222-1.223-3.203 0-4.426 1.223-1.223 3.204-1.223 4.426 0 1.223 1.223 1.223 3.205 0 4.426z" transform="translate(232.9 150.45)"/>
        </g>
        <g>
            <g stroke="#000" stroke-linecap="round" stroke-width="2.55">
                <path d="M0 28.782V25.5C0 11.417 11.417 0 25.5 0S51 11.417 51 25.5v2.995M102 26.35v3.282c0 14.084-11.417 25.5-25.5 25.5S51 43.716 51 29.632v-2.995" transform="rotate(15 14.377 1014.965) translate(25.5)"/>
            </g>
            <g transform="rotate(15 14.377 1014.965) translate(0 26.35)">
                <path fill="#D8D8D8" stroke="#000" stroke-width="2.55" d="M5.95 1.275c-2.582 0-4.675 2.093-4.675 4.675V34c0 13.38 10.846 24.225 24.225 24.225 13.38 0 24.225-10.846 24.225-24.225V5.95c0-2.582-2.093-4.675-4.675-4.675H5.95z"/>
                <path fill="#FFF" stroke="#000" stroke-width="2.55" d="M1.275 23.375h24.65v-22.1H5.95c-2.582 0-4.675 2.093-4.675 4.675v17.425z"/>
                <path fill="#FFF" stroke="#000" stroke-width="2.55" d="M25.075 1.275v22.1h24.65V5.95c0-2.582-2.093-4.675-4.675-4.675H25.075z"/>
                <rect width="5.95" height="11.07" x="22.1" y="6.8" fill="#000" fill-rule="nonzero" rx="2.975"/>
            </g>
        </g>
        <g fill-rule="nonzero" stroke="#000" stroke-width="2.55" transform="rotate(-15 131.307 -433.32)">
            <path fill="#F1A4AB" d="M29.325 14.025h14.45V8.5c0-3.99-3.235-7.225-7.225-7.225-3.99 0-7.225 3.235-7.225 7.225v5.525z"/>
            <rect width="58.65" height="58.65" x="7.225" y="14.025" fill="#64C1BE" rx="11.05"/>
            <circle cx="21.25" cy="36.55" r="6.8" fill="#FFF"/>
            <path fill="#FAD843" d="M37.735 39.77l4.15 8.3c.21.42.04.93-.38 1.14-.118.06-.248.09-.38.09h-8.3c-.47 0-.85-.38-.85-.85 0-.132.031-.262.09-.38l4.15-8.3c.21-.42.72-.59 1.14-.38.165.083.298.216.38.38z"/>
            <rect width="28.05" height="8.5" x="22.95" y="54.4" fill="#FFF" rx="4.25"/>
            <circle cx="51.85" cy="36.55" r="6.8" fill="#FFF"/>
            <path fill="#F1A4AB" d="M65.875 33.575v19.55H69.7c1.174 0 2.125-.951 2.125-2.125V35.7c0-1.174-.951-2.125-2.125-2.125h-3.825zM7.225 53.125v-19.55H2.55c-.704 0-1.275.57-1.275 1.275v17c0 .704.57 1.275 1.275 1.275h4.675z"/>
            <g stroke-linecap="square">
                <path d="M8.075 0v8.234M.85 0v8.234M15.3 0v8.234" transform="translate(28.9 54.4)"/>
            </g>
        </g>
        <g>
            <g transform="translate(103.802 156.485) translate(0 42.517)">
                <use fill="#000" filter="url(#prefix__c)" xlink:href="#prefix__d"/>
                <path fill="#459593" stroke="#1F1B24" stroke-linejoin="square" stroke-width="2.193" d="M25.576 2.274L2.274 25.576c-.754.754-1.177 1.777-1.177 2.843v163.834c0 2.22 1.8 4.02 4.02 4.02h163.834c1.066 0 2.089-.423 2.843-1.177l23.302-23.302c.754-.754 1.178-1.777 1.178-2.843V5.117c0-2.22-1.8-4.02-4.021-4.02H28.419c-1.066 0-2.089.423-2.843 1.177z"/>
                <path fill="#64C1BE" fill-rule="nonzero" stroke="#1F1B24" stroke-width="2.193" d="M27.413 1.097H196.274V169.958H27.413z"/>
                <use fill="#000" filter="url(#prefix__e)" xlink:href="#prefix__f"/>
                <use fill="#FFF" stroke="#1F1B24" stroke-width="2.354" xlink:href="#prefix__f"/>
                <path stroke="#1F1B24" stroke-width="2.193" d="M2.193 195.177l26.316-26.316-26.316 26.316z"/>
            </g>
            <g stroke="#000" stroke-width="2.193">
                <path fill="#000" d="M7.31 1.097c-3.432 0-6.213 2.781-6.213 6.213v135.235c0 3.432 2.781 6.214 6.213 6.214s6.214-2.782 6.214-6.214V7.31c0-3.432-2.782-6.213-6.214-6.213z" transform="translate(103.802 156.485) rotate(-105 100.603 -34.31)"/>
                <path fill="#FFF" d="M1.097 35.454h12.427V7.31c0-3.432-2.782-6.213-6.214-6.213-3.432 0-6.213 2.781-6.213 6.213v28.144z" transform="translate(103.802 156.485) rotate(-105 100.603 -34.31)"/>
            </g>
            <path fill="#FAD843" fill-rule="nonzero" stroke="#000" stroke-width="2.193" d="M125.699 42.761l-2.617-1.554c-1.278-.759-1.7-2.41-.94-3.69.23-.386.553-.71.94-.94l2.617-1.553c.841-.5 1.543-1.202 2.043-2.043l1.554-2.617c.759-1.278 2.41-1.7 3.689-.94.387.23.71.553.94.94l1.554 2.617c.5.841 1.202 1.543 2.043 2.043l2.617 1.554c1.278.759 1.7 2.41.94 3.689-.23.387-.553.71-.94.94l-2.617 1.554c-.841.5-1.543 1.202-2.043 2.043l-1.554 2.617c-.759 1.278-2.41 1.7-3.69.94-.386-.23-.71-.553-.94-.94l-1.553-2.617c-.5-.841-1.202-1.543-2.043-2.043zM154.953 80.988l-4.451-2.643c-1.88-1.116-2.5-3.545-1.383-5.426.338-.569.813-1.044 1.383-1.383l4.451-2.643c.841-.5 1.544-1.201 2.043-2.042l2.643-4.452c1.117-1.88 3.546-2.5 5.426-1.383.57.338 1.045.814 1.383 1.383l2.643 4.452c.5.84 1.202 1.543 2.043 2.042l4.451 2.643c1.88 1.117 2.5 3.546 1.383 5.426-.338.57-.813 1.045-1.383 1.383l-4.451 2.643c-.841.5-1.544 1.202-2.043 2.043l-2.643 4.452c-1.117 1.88-3.546 2.499-5.426 1.382-.57-.338-1.045-.813-1.383-1.382l-2.643-4.452c-.5-.841-1.202-1.543-2.043-2.043z" transform="translate(103.802 156.485)"/>
        </g>
        <rect width="12.427" height="55.556" x="15.21" y="-1.583" fill="#FFF" stroke="#000" stroke-width="2.193" rx="6.214" transform="rotate(-69 175.027 107.034)"/>
        <rect width="12.427" height="55.556" x="15.21" y="-1.583" fill="#FFF" stroke="#000" stroke-width="2.193" rx="6.214" transform="rotate(-69 142.39 98.697)"/>
    </g>
</svg>
