<svg xmlns="http://www.w3.org/2000/svg" xmlns:xlink="http://www.w3.org/1999/xlink" width="551" height="465" viewBox="0 0 551 465">
    <defs>
        <filter id="prefix__a" width="103.5%" height="103.5%" x="-1%" y="-1%" filterUnits="objectBoundingBox">
            <feMorphology in="SourceAlpha" operator="dilate" radius="3" result="shadowSpreadOuter1"/>
            <feOffset dx="3" dy="3" in="shadowSpreadOuter1" result="shadowOffsetOuter1"/>
            <feComposite in="shadowOffsetOuter1" in2="SourceAlpha" operator="out" result="shadowOffsetOuter1"/>
            <feColorMatrix in="shadowOffsetOuter1" values="0 0 0 0 0 0 0 0 0 0 0 0 0 0 0 0 0 0 0.07 0"/>
        </filter>
        <circle id="prefix__b" cx="276.5" cy="215.5" r="215.5"/>
    </defs>
    <g fill="none" fill-rule="evenodd" transform="translate(-5 2)">
        <g fill-rule="nonzero">
            <use fill="#000" filter="url(#prefix__a)" xlink:href="#prefix__b"/>
            <use fill="#4A90E2" stroke="#000" stroke-width="3" xlink:href="#prefix__b"/>
        </g>
        <path fill="#FFF" fill-rule="nonzero" stroke="#000" stroke-width="3" d="M361.31 208.67h-23.591c-.61 0-1.185-.277-1.564-.754-.689-.863-.546-2.122.317-2.81l19.003-15.144c-1.366-6.606-2.084-13.45-2.084-20.462 0-55.505 44.995-100.5 100.5-100.5 55.504 0 100.5 44.995 100.5 100.5S509.395 270 453.89 270c-41.61 0-77.312-25.286-92.581-61.33z"/>
        <g fill="#E3E3E3" fill-rule="nonzero" transform="translate(389 126)">
            <rect width="98" height="12" x="14" rx="6"/>
            <rect width="98" height="12" x="34" y="26" rx="6"/>
            <rect width="98" height="12" y="52" rx="6"/>
            <rect width="71" height="12" x="34" y="78" rx="6"/>
        </g>
        <path fill="#F1A4AB" stroke="#000" stroke-width="3" d="M352.236 461.09c-.033-82.859-67.27-150.057-150.178-150.09C119.15 310.967 51.967 378.11 52 460.97l300.236.12z"/>
        <g transform="translate(271 125.361)">
            <path fill="#D9D9D9" stroke="#000" stroke-width="2" d="M24 7.2h18.736c-.687 2.834-.687 4.741 0 5.722 1.031 1.472 3.464 3.238 3.464 8.548V87.54c-1.011 1.938-2.963 2.907-5.855 2.907-1.117.258-1.987 1.108-2.607 2.55-.883 2.048-3.316 3.451-13.738 3.592v.012c-.306 0-.606 0-.9-.003-.294.002-.594.003-.9.003v-.012c-10.422-.14-12.855-1.544-13.738-3.593-.62-1.441-1.49-2.291-2.607-2.55-2.892 0-4.844-.968-5.855-2.906V21.47c0-5.31 2.433-7.076 3.464-8.548.687-.981.687-2.888 0-5.722H24z"/>
            <path stroke="#000" d="M6.63 90.785c11.098 2.268 22.337 2.155 33.715-.34"/>
            <path fill="#F1A4AB" stroke="#000" d="M23.1 24.728c8.675-.067 16.375-1.11 23.1-3.128v60.594c-4.228 2.366-11.838 3.567-22.832 3.605H23.1l-.268.001C11.838 85.761 4.228 84.56 0 82.194V21.6c6.725 2.018 14.425 3.061 23.1 3.128z"/>
            <path fill="#FAD843" stroke="#000" d="M46.2 21.6v4.81c-5.213 4.436-12.913 9.709-23.1 15.818C11.68 35.478 3.98 30.206 0 26.41V21.6c7.89 2.088 15.59 3.132 23.1 3.132 5.007 0 12.707-1.044 23.1-3.132z"/>
            <path fill="#FFF" stroke="#000" stroke-width=".6" d="M22.5 47.17c7.34-.012 13.198-.482 17.576-1.41.04-.008.082-.012.124-.012.331 0 .6.268.6.6v17.977c-6.453 1.078-12.453 1.635-18 1.673V66h-.6v-.002c-5.547-.038-11.547-.595-18-1.673V46.348c0-.332.269-.6.6-.6.042 0 .083.004.124.013 4.378.927 10.237 1.397 17.576 1.409z"/>
            <path fill="#000" fill-rule="nonzero" stroke="#000" stroke-width=".6" d="M8.148 66c.356 0 .736-.086 1.14-.26 1.152-.535 2.066-1.365 2.744-2.488.679-1.122 1.155-2.407 1.429-3.852.226-1.19.339-2.405.339-3.64 0-.283-.007-.565-.02-.846-.055-1.528-.244-2.973-.566-4.337h0l-.04-.177c-.268-1.036-.643-2.032-1.126-2.986-.483-.955-1.064-1.76-1.742-2.414-.678-.655-1.453-1.045-2.323-1.173-.15-.018-.294-.027-.431-.027-.624 0-1.038.21-1.244.627C6.103 44.855 6 45.482 6 46.31c0 .136.003.282.01.436.041 2.964.062 5.932.062 8.905 0 1.318-.003 2.636-.01 3.955l-.02 1.227c-.021.554-.032 1.086-.032 1.595 0 .255.004.505.01.75.07 1.264.418 2.1 1.049 2.51.329.208.688.313 1.079.313zm.803-3c-.066 0-.125-.019-.177-.056-.184-.148-.295-.435-.335-.862-.026-.287-.039-.584-.039-.89 0-.149.003-.302.01-.46.04-2.02.059-4.047.059-6.077 0-1.475-.01-2.949-.03-4.423h0v-.46l-.02-.792c-.012-.343-.019-.682-.019-1.015 0-.4.01-.784.03-1.155.039-.686.186-1.085.442-1.196.026-.01.056-.014.089-.014.262 0 .669.417 1.22 1.252.839 1.576 1.386 3.338 1.642 5.285.118.881.177 1.813.177 2.796 0 .324-.007.654-.02.987-.052 1.345-.259 2.613-.62 3.804-.36 1.192-.914 2.15-1.662 2.873-.308.269-.557.403-.747.403zm10.192 3c.327 0 .63-.106.907-.318.48-.378.893-.9 1.24-1.563.146-.267.24-.452.282-.553.028-.065.045-.1.052-.104.007-.005.01.025.01.09 0 .074.01.194.032.36.069.396.198.781.385 1.154.188.374.414.62.678.74.069.028.138.042.208.042.201 0 .406-.125.615-.374.201-.368.326-.93.375-1.687.035-.572.052-1.106.052-1.604h0l-.01-.47v-.43c.007-.267.01-.539.01-.815.007-.692.01-1.383.01-2.075h0v-1.037c0-.139.004-.295.011-.47h0v-.263c0-.37-.01-.747-.031-1.135-.021-.488-.104-.922-.25-1.3-.146-.378-.39-.627-.73-.747-.118-.027-.23-.041-.333-.041-.278 0-.49.11-.636.332-.195.313-.316.724-.365 1.23-.049.508-.073 1.006-.073 1.495 0 .304-.007.562-.02.774-.098 1.595-.355 3.14-.772 4.634-.076.258-.196.562-.36.912-.163.35-.356.65-.578.9-.18.22-.372.331-.573.331-.042 0-.08-.004-.115-.013-.458-.148-.827-.632-1.104-1.453-.195-.571-.34-1.784-.438-3.637.014-.82.02-1.494.02-2.02h0v-1.438c0-1.328-.347-1.992-1.042-1.992-.11.019-.208.042-.291.07h0-.021c-.25 0-.452.202-.605.608-.055.203-.083.512-.083.927 0 .147.003.309.01.484.021.664.063 1.34.125 2.026.063.687.115 1.192.157 1.515.076.719.201 1.55.375 2.496.174.945.43 1.816.771 2.614.34.798.789 1.344 1.345 1.639.264.11.517.166.76.166zm8.972 1.8c.109 0 .218-.014.327-.04.32-.082.563-.263.726-.544.17-.372.263-.947.276-1.726.007-.263.01-.516.01-.76 0-.49-.01-.956-.03-1.4-.014-.236-.02-.44-.02-.612-.021-.897-.052-1.807-.093-2.73-.061-1.16-.092-2.297-.092-3.411 0-.435.004-.865.01-1.291.28-.064.563-.095.85-.095.088 0 .18.004.276.013h.255c.198 0 .367-.093.506-.278.14-.186.21-.41.21-.673 0-.272-.07-.5-.21-.686-.14-.186-.308-.279-.506-.279h0-1.053c-.082-.009-.154-.024-.215-.047s-.106-.084-.133-.184c-.048-.19-.072-.48-.072-.87 0-.153.004-.32.01-.502.028-.643.076-1.288.144-1.936.068-.648.14-1.121.215-1.42.143-.643.34-1.078.593-1.304.19-.173.443-.259.757-.259.109 0 .225.01.347.028.123.027.26.04.41.04h.112c.19-.009.355-.072.49-.19.124-.109.185-.285.185-.53h0v-.081c-.068-.508-.324-.82-.767-.938-.239-.063-.491-.095-.757-.095-.218 0-.446.023-.685.068-.525.09-.938.208-1.238.353-.559.281-1.002.804-1.33 1.57-.326.765-.562 1.596-.705 2.493-.143.897-.215 1.694-.215 2.391h0v.313c0 .29-.027.52-.081.693-.062.208-.246.344-.553.407-.245.037-.46.132-.644.286-.15.127-.225.344-.225.652 0 .054.003.113.01.177.048.317.147.523.297.618.15.095.317.152.501.17.068.009.136.022.204.04h.021l.158.055c.052.018.098.054.139.109h0l.03.054c.055.2.094.432.118.7.024.267.042.505.056.713.089 1.74.133 3.483.133 5.231 0 .435-.003.87-.01 1.305-.007.208-.014.466-.02.774-.021.471-.031.956-.031 1.454 0 .49.024.865.071 1.128.116.435.328.733.634.897.198.1.4.149.604.149zm7.8 0c.109 0 .218-.014.327-.04.32-.082.563-.263.726-.544.17-.372.263-.947.276-1.726.007-.263.01-.516.01-.76 0-.49-.01-.956-.03-1.4-.014-.236-.02-.44-.02-.612-.021-.897-.052-1.807-.093-2.73-.061-1.16-.092-2.297-.092-3.411 0-.435.004-.865.01-1.291.28-.064.563-.095.85-.095.088 0 .18.004.276.013h.255c.198 0 .367-.093.506-.278.14-.186.21-.41.21-.673 0-.272-.07-.5-.21-.686-.14-.186-.308-.279-.506-.279h0-1.053c-.082-.009-.154-.024-.215-.047s-.106-.084-.133-.184c-.048-.19-.072-.48-.072-.87 0-.153.004-.32.01-.502.028-.643.076-1.288.144-1.936.068-.648.14-1.121.215-1.42.143-.643.34-1.078.593-1.304.19-.173.443-.259.757-.259.109 0 .225.01.347.028.123.027.26.04.41.04h.112c.19-.009.355-.072.49-.19.124-.109.185-.285.185-.53h0v-.081c-.068-.508-.324-.82-.767-.938-.239-.063-.491-.095-.757-.095-.218 0-.446.023-.685.068-.525.09-.938.208-1.238.353-.559.281-1.002.804-1.33 1.57-.326.765-.562 1.596-.705 2.493-.143.897-.215 1.694-.215 2.391h0v.313c0 .29-.027.52-.081.693-.062.208-.246.344-.553.407-.245.037-.46.132-.644.286-.15.127-.225.344-.225.652 0 .054.003.113.01.177.048.317.147.523.297.618.15.095.317.152.501.17.068.009.136.022.205.04h.02l.158.055c.052.018.098.054.139.109h0l.03.054c.055.2.094.432.118.7.024.267.042.505.056.713.089 1.74.133 3.483.133 5.231 0 .435-.003.87-.01 1.305-.007.208-.014.466-.02.774-.021.471-.031.956-.031 1.454 0 .49.024.865.071 1.128.116.435.328.733.634.897.198.1.4.149.604.149z"/>
            <circle cx="23.1" cy="34.5" r="3.4" fill="#F1A4AB" stroke="#000"/>
            <ellipse cx="23.1" cy="7.2" fill="#D9D9D9" stroke="#000" stroke-width="2" rx="20.3" ry="6.2"/>
            <ellipse cx="23.1" cy="6.1" fill="#D9D9D9" stroke="#000" stroke-width="1.2" rx="18.3" ry="4.5"/>
            <rect width="7.8" height="1.2" x="15.6" y="6" fill="#B8B3B3" rx=".6"/>
            <rect width="7.2" height="3" x="21.9" y="5.1" fill="#D9D9D9" stroke="#000" stroke-width=".6" rx="1.2"/>
            <rect width="2.4" height="1" x="23.4" y="6" fill="#B8B3B3" rx=".5"/>
            <rect width="2.4" height="1" x="23.4" y="6" fill="#B8B3B3" rx=".5"/>
            <rect width="1.2" height="1" x="27" y="6" fill="#B8B3B3" rx=".5"/>
        </g>
        <path fill="#FAD843" fill-rule="nonzero" stroke="#000" stroke-width="3" d="M229.5 313v-15.5h1.5c37.832 0 68.5-30.668 68.5-68.5v-52c0-37.832-30.668-68.5-68.5-68.5s-68.5 30.668-68.5 68.5v136c0 18.502 14.998 33.5 33.5 33.5 18.502 0 33.5-14.998 33.5-33.5z"/>
        <g>
            <path fill="#4A90E2" stroke="#000" stroke-width="3" d="M101.734 94.36l35.379.64c31.11-38.037 35.223-55.98 12.338-53.827-22.885 2.152-49.036 19.88-78.451 53.186h30.734z" transform="matrix(-1 0 0 1 299 72)"/>
            <path fill="#F1A4AB" stroke="#000" stroke-width="2" d="M66.897 16.514c-.953.091-1.954.197-2.997.32-6.232.735-12.716 1.91-19.118 3.625-10.689 2.862-14.783 4.019-18.727 5.388-4.467 1.55-6.653 2.88-6.527 3.35.126.47 2.684.53 7.327-.36 4.1-.784 8.228-1.828 18.908-4.688l.008-.002c6.408-1.716 12.617-3.94 18.384-6.418.96-.413 1.875-.82 2.742-1.215zM65.384 16.455c.953-.09 1.954-.196 2.997-.32 6.232-.734 12.716-1.91 19.118-3.624 10.689-2.862 14.783-4.019 18.727-5.388 4.467-1.55 6.653-2.88 6.527-3.35-.126-.471-2.684-.53-7.327.359-4.1.784-8.228 1.829-18.908 4.688l-.008.003c-6.408 1.715-12.617 3.939-18.384 6.418-.96.413-1.875.819-2.742 1.214z" transform="matrix(-1 0 0 1 299 72)"/>
            <path fill="#F1A4AB" fill-rule="nonzero" stroke="#000" stroke-width="2" d="M63 17.945l9 .05V17.5c0-2.485-2.015-4.5-4.5-4.5S63 15.015 63 17.5v.445z" transform="matrix(-1 0 0 1 299 72)"/>
            <path fill="#3970AF" fill-rule="nonzero" stroke="#000" stroke-width="3" d="M68 17h0c37.555 0 68 30.445 68 68v10L0 94.328V85c0-37.555 30.445-68 68-68z" transform="matrix(-1 0 0 1 299 72)"/>
            <path fill="#64C1BE" stroke="#000" stroke-width="3" d="M68 17.087C46.707 36.557 38.953 62.195 44.738 94H.152c-.677-10.482.905-21.553 4.744-33.211C13.084 35.926 42.931 15.493 68 17.087z" transform="matrix(-1 0 0 1 299 72)"/>
            <path fill="#F1A4AB" stroke="#000" stroke-width="3" d="M68 17.087C89.293 36.557 97.047 62.195 91.262 94h44.586c.677-10.482-.905-21.553-4.744-33.211C122.916 35.926 93.069 15.493 68 17.087z" transform="matrix(-1 0 0 1 299 72)"/>
            <path fill="#FAD843" fill-rule="nonzero" stroke="#000" stroke-width="3" d="M8.5 85.335l33 .158V85c0-9.113-7.387-16.5-16.5-16.5S8.5 75.887 8.5 85v.335z" transform="matrix(-1 0 0 1 299 72)"/>
            <path fill="#FFF" stroke="#000" stroke-width="3" d="M8.5 85.5v9H39c2.485 0 4.5-2.015 4.5-4.5s-2.015-4.5-4.5-4.5H8.5z" transform="matrix(-1 0 0 1 299 72)"/>
            <g fill="#E3E3E3" transform="matrix(-1 0 0 1 299 72) translate(15 89)">
                <circle cx=".955" cy="1" r="1"/>
                <circle cx="5.727" cy="1" r="1"/>
                <circle cx="10.5" cy="1" r="1"/>
                <circle cx="15.273" cy="1" r="1"/>
                <circle cx="20.045" cy="1" r="1"/>
            </g>
        </g>
        <circle cx="216" cy="189" r="10" fill="#FFF" fill-rule="nonzero" stroke="#000" stroke-width="3"/>
        <circle cx="266" cy="189" r="10" fill="#FFF" fill-rule="nonzero" stroke="#000" stroke-width="3"/>
        <path fill="#FAD843" stroke="#000" stroke-width="2.5" d="M244.558 205.42l13.823 17.174c.692.86.556 2.12-.304 2.812-.355.287-.798.442-1.254.442H243c-1.105 0-2-.895-2-2v-17.173c0-1.105.895-2 2-2 .605 0 1.178.274 1.558.746z"/>
        <path fill="#FFF" stroke="#000" stroke-width="3" d="M221 246c.004 9.435 7.895 17.087 17.625 17.09 9.73.004 17.615-7.641 17.61-17.076L221 246z"/>
        <path fill="#FAD843" stroke="#000" stroke-width="3" d="M162.09 183c-8.33.004-15.087 7.223-15.09 16.124-.003 8.902 6.748 16.115 15.079 16.112L162.09 183z"/>
        <g transform="translate(130 125.361)">
            <path fill="#D9D9D9" stroke="#000" stroke-width="2" d="M24 7.2h18.736c-.687 2.834-.687 4.741 0 5.722 1.031 1.472 3.464 3.238 3.464 8.548V87.54c-1.011 1.938-2.963 2.907-5.855 2.907-1.117.258-1.987 1.108-2.607 2.55-.883 2.048-3.316 3.451-13.738 3.592v.012c-.306 0-.606 0-.9-.003-.294.002-.594.003-.9.003v-.012c-10.422-.14-12.855-1.544-13.738-3.593-.62-1.441-1.49-2.291-2.607-2.55-2.892 0-4.844-.968-5.855-2.906V21.47c0-5.31 2.433-7.076 3.464-8.548.687-.981.687-2.888 0-5.722H24z"/>
            <path stroke="#000" d="M6.63 90.785c11.098 2.268 22.337 2.155 33.715-.34"/>
            <path fill="#F1A4AB" stroke="#000" d="M23.1 24.728c8.675-.067 16.375-1.11 23.1-3.128v60.594c-4.228 2.366-11.838 3.567-22.832 3.605H23.1l-.268.001C11.838 85.761 4.228 84.56 0 82.194V21.6c6.725 2.018 14.425 3.061 23.1 3.128z"/>
            <path fill="#FAD843" stroke="#000" d="M46.2 21.6v4.81c-5.213 4.436-12.913 9.709-23.1 15.818C11.68 35.478 3.98 30.206 0 26.41V21.6c7.89 2.088 15.59 3.132 23.1 3.132 5.007 0 12.707-1.044 23.1-3.132z"/>
            <path fill="#FFF" stroke="#000" stroke-width=".6" d="M22.5 47.17c7.34-.012 13.198-.482 17.576-1.41.04-.008.082-.012.124-.012.331 0 .6.268.6.6v17.977c-6.453 1.078-12.453 1.635-18 1.673V66h-.6v-.002c-5.547-.038-11.547-.595-18-1.673V46.348c0-.332.269-.6.6-.6.042 0 .083.004.124.013 4.378.927 10.237 1.397 17.576 1.409z"/>
            <path fill="#000" fill-rule="nonzero" stroke="#000" stroke-width=".6" d="M8.148 66c.356 0 .736-.086 1.14-.26 1.152-.535 2.066-1.365 2.744-2.488.679-1.122 1.155-2.407 1.429-3.852.226-1.19.339-2.405.339-3.64 0-.283-.007-.565-.02-.846-.055-1.528-.244-2.973-.566-4.337h0l-.04-.177c-.268-1.036-.643-2.032-1.126-2.986-.483-.955-1.064-1.76-1.742-2.414-.678-.655-1.453-1.045-2.323-1.173-.15-.018-.294-.027-.431-.027-.624 0-1.038.21-1.244.627C6.103 44.855 6 45.482 6 46.31c0 .136.003.282.01.436.041 2.964.062 5.932.062 8.905 0 1.318-.003 2.636-.01 3.955l-.02 1.227c-.021.554-.032 1.086-.032 1.595 0 .255.004.505.01.75.07 1.264.418 2.1 1.049 2.51.329.208.688.313 1.079.313zm.803-3c-.066 0-.125-.019-.177-.056-.184-.148-.295-.435-.335-.862-.026-.287-.039-.584-.039-.89 0-.149.003-.302.01-.46.04-2.02.059-4.047.059-6.077 0-1.475-.01-2.949-.03-4.423h0v-.46l-.02-.792c-.012-.343-.019-.682-.019-1.015 0-.4.01-.784.03-1.155.039-.686.186-1.085.442-1.196.026-.01.056-.014.089-.014.262 0 .669.417 1.22 1.252.839 1.576 1.386 3.338 1.642 5.285.118.881.177 1.813.177 2.796 0 .324-.007.654-.02.987-.052 1.345-.259 2.613-.62 3.804-.36 1.192-.914 2.15-1.662 2.873-.308.269-.557.403-.747.403zm10.192 3c.327 0 .63-.106.907-.318.48-.378.893-.9 1.24-1.563.146-.267.24-.452.282-.553.028-.065.045-.1.052-.104.007-.005.01.025.01.09 0 .074.01.194.032.36.069.396.198.781.385 1.154.188.374.414.62.678.74.069.028.138.042.208.042.201 0 .406-.125.615-.374.201-.368.326-.93.375-1.687.035-.572.052-1.106.052-1.604h0l-.01-.47v-.43c.007-.267.01-.539.01-.815.007-.692.01-1.383.01-2.075h0v-1.037c0-.139.004-.295.011-.47h0v-.263c0-.37-.01-.747-.031-1.135-.021-.488-.104-.922-.25-1.3-.146-.378-.39-.627-.73-.747-.118-.027-.23-.041-.333-.041-.278 0-.49.11-.636.332-.195.313-.316.724-.365 1.23-.049.508-.073 1.006-.073 1.495 0 .304-.007.562-.02.774-.098 1.595-.355 3.14-.772 4.634-.076.258-.196.562-.36.912-.163.35-.356.65-.578.9-.18.22-.372.331-.573.331-.042 0-.08-.004-.115-.013-.458-.148-.827-.632-1.104-1.453-.195-.571-.34-1.784-.438-3.637.014-.82.02-1.494.02-2.02h0v-1.438c0-1.328-.347-1.992-1.042-1.992-.11.019-.208.042-.291.07h0-.021c-.25 0-.452.202-.605.608-.055.203-.083.512-.083.927 0 .147.003.309.01.484.021.664.063 1.34.125 2.026.063.687.115 1.192.157 1.515.076.719.201 1.55.375 2.496.174.945.43 1.816.771 2.614.34.798.789 1.344 1.345 1.639.264.11.517.166.76.166zm8.972 1.8c.109 0 .218-.014.327-.04.32-.082.563-.263.726-.544.17-.372.263-.947.276-1.726.007-.263.01-.516.01-.76 0-.49-.01-.956-.03-1.4-.014-.236-.02-.44-.02-.612-.021-.897-.052-1.807-.093-2.73-.061-1.16-.092-2.297-.092-3.411 0-.435.004-.865.01-1.291.28-.064.563-.095.85-.095.088 0 .18.004.276.013h.255c.198 0 .367-.093.506-.278.14-.186.21-.41.21-.673 0-.272-.07-.5-.21-.686-.14-.186-.308-.279-.506-.279h0-1.053c-.082-.009-.154-.024-.215-.047s-.106-.084-.133-.184c-.048-.19-.072-.48-.072-.87 0-.153.004-.32.01-.502.028-.643.076-1.288.144-1.936.068-.648.14-1.121.215-1.42.143-.643.34-1.078.593-1.304.19-.173.443-.259.757-.259.109 0 .225.01.347.028.123.027.26.04.41.04h.112c.19-.009.355-.072.49-.19.124-.109.185-.285.185-.53h0v-.081c-.068-.508-.324-.82-.767-.938-.239-.063-.491-.095-.757-.095-.218 0-.446.023-.685.068-.525.09-.938.208-1.238.353-.559.281-1.002.804-1.33 1.57-.326.765-.562 1.596-.705 2.493-.143.897-.215 1.694-.215 2.391h0v.313c0 .29-.027.52-.081.693-.062.208-.246.344-.553.407-.245.037-.46.132-.644.286-.15.127-.225.344-.225.652 0 .054.003.113.01.177.048.317.147.523.297.618.15.095.317.152.501.17.068.009.136.022.204.04h.021l.158.055c.052.018.098.054.139.109h0l.03.054c.055.2.094.432.118.7.024.267.042.505.056.713.089 1.74.133 3.483.133 5.231 0 .435-.003.87-.01 1.305-.007.208-.014.466-.02.774-.021.471-.031.956-.031 1.454 0 .49.024.865.071 1.128.116.435.328.733.634.897.198.1.4.149.604.149zm7.8 0c.109 0 .218-.014.327-.04.32-.082.563-.263.726-.544.17-.372.263-.947.276-1.726.007-.263.01-.516.01-.76 0-.49-.01-.956-.03-1.4-.014-.236-.02-.44-.02-.612-.021-.897-.052-1.807-.093-2.73-.061-1.16-.092-2.297-.092-3.411 0-.435.004-.865.01-1.291.28-.064.563-.095.85-.095.088 0 .18.004.276.013h.255c.198 0 .367-.093.506-.278.14-.186.21-.41.21-.673 0-.272-.07-.5-.21-.686-.14-.186-.308-.279-.506-.279h0-1.053c-.082-.009-.154-.024-.215-.047s-.106-.084-.133-.184c-.048-.19-.072-.48-.072-.87 0-.153.004-.32.01-.502.028-.643.076-1.288.144-1.936.068-.648.14-1.121.215-1.42.143-.643.34-1.078.593-1.304.19-.173.443-.259.757-.259.109 0 .225.01.347.028.123.027.26.04.41.04h.112c.19-.009.355-.072.49-.19.124-.109.185-.285.185-.53h0v-.081c-.068-.508-.324-.82-.767-.938-.239-.063-.491-.095-.757-.095-.218 0-.446.023-.685.068-.525.09-.938.208-1.238.353-.559.281-1.002.804-1.33 1.57-.326.765-.562 1.596-.705 2.493-.143.897-.215 1.694-.215 2.391h0v.313c0 .29-.027.52-.081.693-.062.208-.246.344-.553.407-.245.037-.46.132-.644.286-.15.127-.225.344-.225.652 0 .054.003.113.01.177.048.317.147.523.297.618.15.095.317.152.501.17.068.009.136.022.205.04h.02l.158.055c.052.018.098.054.139.109h0l.03.054c.055.2.094.432.118.7.024.267.042.505.056.713.089 1.74.133 3.483.133 5.231 0 .435-.003.87-.01 1.305-.007.208-.014.466-.02.774-.021.471-.031.956-.031 1.454 0 .49.024.865.071 1.128.116.435.328.733.634.897.198.1.4.149.604.149z"/>
            <circle cx="23.1" cy="34.5" r="3.4" fill="#F1A4AB" stroke="#000"/>
            <ellipse cx="23.1" cy="7.2" fill="#D9D9D9" stroke="#000" stroke-width="2" rx="20.3" ry="6.2"/>
            <ellipse cx="23.1" cy="6.1" fill="#D9D9D9" stroke="#000" stroke-width="1.2" rx="18.3" ry="4.5"/>
            <rect width="7.8" height="1.2" x="15.6" y="6" fill="#B8B3B3" rx=".6"/>
            <rect width="7.2" height="3" x="21.9" y="5.1" fill="#D9D9D9" stroke="#000" stroke-width=".6" rx="1.2"/>
            <rect width="2.4" height="1" x="23.4" y="6" fill="#B8B3B3" rx=".5"/>
            <rect width="2.4" height="1" x="23.4" y="6" fill="#B8B3B3" rx=".5"/>
            <rect width="1.2" height="1" x="27" y="6" fill="#B8B3B3" rx=".5"/>
        </g>
        <g fill-rule="nonzero" stroke="#000" stroke-width="3">
            <path d="M17.047.314C31.21.717 43.538 5.039 54.034 13.278c10.496 8.24 17.338 19.33 20.526 33.271M.686 4.679C5.966.676 17.679.314 17.679.314" transform="matrix(-1 0 0 1 230 85)"/>
        </g>
        <rect width="17" height="76" x="20.808" y="-2.166" fill="#FFF" stroke="#000" stroke-width="3" rx="8.5" transform="rotate(-69 181.065 106.305)"/>
        <rect width="17" height="76" x="20.808" y="-2.166" fill="#FFF" stroke="#000" stroke-width="3" rx="8.5" transform="rotate(-69 136.418 94.9)"/>
    </g>
</svg>
