<svg xmlns="http://www.w3.org/2000/svg" width="231" height="384" viewBox="0 0 231 384">
    <path fill="#F1A4AB" fill-rule="evenodd" stroke="#000" stroke-width="3" d="M85.893 3.898h0s0 0 0 0c.429-1.6 2.074-2.55 3.674-2.122l313.918 84.121c1.6.43 2.55 2.074 2.12 3.675l-84.107 313.92s0 0 0 0c-.429 1.601-2.074 2.551-3.674 2.122L3.906 321.494c-1.6-.43-2.55-2.075-2.121-3.675L85.893 3.898zm55.154 95.53L97.311 262.667c-.429 1.6.52 3.245 2.121 3.674l163.237 43.743c1.6.429 3.246-.52 3.675-2.121 0 0 0 0 0 0l43.736-163.24c.428-1.6-.521-3.245-2.122-3.673L144.721 97.306c-1.6-.428-3.245.521-3.674 2.122 0 0 0 0 0 0h0z"/>
</svg>
