<svg xmlns="http://www.w3.org/2000/svg" xmlns:xlink="http://www.w3.org/1999/xlink" width="404" height="567" viewBox="0 0 404 567">
    <defs>
        <filter id="prefix__a" width="104.5%" height="104.5%" x="-1.3%" y="-1.3%" filterUnits="objectBoundingBox">
            <feMorphology in="SourceAlpha" operator="dilate" radius="2.597" result="shadowSpreadOuter1"/>
            <feOffset dx="3" dy="3" in="shadowSpreadOuter1" result="shadowOffsetOuter1"/>
            <feComposite in="shadowOffsetOuter1" in2="SourceAlpha" operator="out" result="shadowOffsetOuter1"/>
            <feColorMatrix in="shadowOffsetOuter1" values="0 0 0 0 0 0 0 0 0 0 0 0 0 0 0 0 0 0 0.07 0"/>
        </filter>
        <filter id="prefix__c" width="104.1%" height="104.1%" x="-3%" y="-1%" filterUnits="objectBoundingBox">
            <feOffset dx="-4" dy="4" in="SourceAlpha" result="shadowOffsetOuter1"/>
            <feComposite in="shadowOffsetOuter1" in2="SourceAlpha" operator="out" result="shadowOffsetOuter1"/>
            <feColorMatrix in="shadowOffsetOuter1" values="0 0 0 0 0 0 0 0 0 0 0 0 0 0 0 0 0 0 0.07 0"/>
        </filter>
        <filter id="prefix__e" width="112%" height="110.7%" x="-8.3%" y="-2.7%" filterUnits="objectBoundingBox">
            <feMorphology in="SourceAlpha" operator="dilate" radius="1.177" result="shadowSpreadOuter1"/>
            <feOffset dx="-4" dy="4" in="shadowSpreadOuter1" result="shadowOffsetOuter1"/>
            <feComposite in="shadowOffsetOuter1" in2="SourceAlpha" operator="out" result="shadowOffsetOuter1"/>
            <feColorMatrix in="shadowOffsetOuter1" values="0 0 0 0 0 0 0 0 0 0 0 0 0 0 0 0 0 0 0.07 0"/>
        </filter>
        <filter id="prefix__g" width="111.5%" height="109.7%" x="-5.8%" y="-4.8%" filterUnits="objectBoundingBox">
            <feOffset dx="3" dy="3" in="SourceAlpha" result="shadowOffsetOuter1"/>
            <feColorMatrix in="shadowOffsetOuter1" result="shadowMatrixOuter1" values="0 0 0 0 0 0 0 0 0 0 0 0 0 0 0 0 0 0 0.07 0"/>
            <feMerge>
                <feMergeNode in="shadowMatrixOuter1"/>
                <feMergeNode in="SourceGraphic"/>
            </feMerge>
        </filter>
        <filter id="prefix__j" width="123.3%" height="153.4%" x="-12%" y="-26.7%" filterUnits="objectBoundingBox">
            <feOffset dx="7" dy="7" in="SourceAlpha" result="shadowOffsetOuter1"/>
            <feColorMatrix in="shadowOffsetOuter1" result="shadowMatrixOuter1" values="0 0 0 0 0 0 0 0 0 0 0 0 0 0 0 0 0 0 0.07 0"/>
            <feMerge>
                <feMergeNode in="shadowMatrixOuter1"/>
                <feMergeNode in="SourceGraphic"/>
            </feMerge>
        </filter>
        <path id="prefix__d" d="M24.801 1.499L1.499 24.8C.539 25.761 0 27.062 0 28.419v163.834c0 2.826 2.291 5.117 5.117 5.117h163.834c1.357 0 2.658-.54 3.618-1.499l23.302-23.302c.96-.96 1.499-2.261 1.499-3.618V5.117c0-2.826-2.291-5.117-5.117-5.117H28.419c-1.357 0-2.658.54-3.618 1.499z"/>
        <path id="prefix__f" d="M68.714 125.221V55.336c0-.852.69-1.542 1.542-1.542.276 0 .547.074.785.215l40.017 23.681c.484.287 1.086.287 1.57 0l40.017-23.68c.733-.435 1.678-.192 2.112.54.14.238.215.51.215.786v69.885c0 .852-.69 1.542-1.542 1.542-.276 0-.547-.074-.785-.215l-18.48-10.937c-.47-.277-.757-.782-.757-1.327v-21.94c0-.851-.69-1.541-1.542-1.541-.277 0-.548.074-.785.214l-18.453 10.92c-.484.287-1.086.287-1.57 0l-18.453-10.92c-.732-.433-1.678-.19-2.112.542-.14.238-.214.509-.214.785v21.94c0 .545-.288 1.05-.757 1.327L71.04 126.548c-.733.434-1.678.191-2.112-.542-.14-.237-.215-.509-.215-.785z"/>
        <path id="prefix__h" d="M97.5 9C107.719 3.333 118.635.5 130.25.5 141.865.5 153.448 3.333 165 9v111.479c0 41.263-33.332 74.775-74.594 74.999-2.72.015-5.44.022-8.158.022-2.376 0-4.751-.006-7.126-.017C33.7 195.287.282 161.55.478 120.128v-.134L.75 78.5H66v42.069c0 8.613 6.982 15.595 15.595 15.595l.155-.001c8.724-.087 15.75-7.183 15.75-15.908V9z"/>
        <circle id="prefix__b" cx="202.122" cy="214.181" r="157.531"/>
    </defs>
    <g fill="none" fill-rule="evenodd" transform="translate(-3 -12)">
        <g fill-rule="nonzero">
            <use fill="#000" filter="url(#prefix__a)" xlink:href="#prefix__b"/>
            <use fill="#4A90E2" stroke="#000" stroke-width="2.193" xlink:href="#prefix__b"/>
        </g>
        <g>
            <path fill="#64C1BE" fill-rule="nonzero" stroke="#000" stroke-width="2.55" d="M50.767 7.654c11.906 11.906 11.906 31.208 0 43.113-11.905 11.906-31.207 11.906-43.113 0-11.906-11.905-11.906-31.207 0-43.113 11.906-11.906 31.208-11.906 43.113 0zm-17.294 25.82c2.353-2.355 2.353-6.17 0-8.525-2.353-2.354-6.17-2.353-8.524 0-2.354 2.354-2.354 6.17 0 8.524 2.354 2.354 6.17 2.354 8.524 0zm0 0s0 0 0 0h0s0 0 0 0z" transform="translate(232.9 148.45)"/>
            <path fill="#E8E8E8" d="M37.282 37.282c-.793.793-1.676 1.438-2.612 1.951l8.51 15.565c2.382-1.304 4.625-2.958 6.643-4.975 2.017-2.018 3.671-4.26 4.975-6.643l-15.565-8.51c-.512.937-1.158 1.82-1.95 2.612zM21.725 21.725c.823-.823 1.74-1.493 2.712-2.026L15.602 3.538c-2.475 1.354-4.804 3.07-6.899 5.165-2.095 2.095-3.811 4.424-5.165 6.899l16.161 8.835c.532-.972 1.203-1.889 2.026-2.712z" transform="translate(232.9 148.45)"/>
            <path fill="#D8D8D8" fill-rule="nonzero" d="M37.325 21.096c-4.482-4.481-11.748-4.481-16.229 0-4.481 4.482-4.481 11.748 0 16.229 4.482 4.482 11.748 4.482 16.229 0 4.482-4.482 4.482-11.747 0-16.229zm-5.902 10.327c-1.222 1.223-3.203 1.223-4.426 0-1.223-1.222-1.223-3.203 0-4.426 1.223-1.223 3.204-1.223 4.426 0 1.223 1.223 1.223 3.205 0 4.426z" transform="translate(232.9 148.45)"/>
        </g>
        <g fill-rule="nonzero" stroke="#000" stroke-width="2.55" transform="rotate(-19 142.98 -406.967)">
            <path fill="#F1A4AB" d="M29.325 14.025h14.45V8.5c0-3.99-3.235-7.225-7.225-7.225-3.99 0-7.225 3.235-7.225 7.225v5.525z"/>
            <rect width="58.65" height="58.65" x="7.225" y="14.025" fill="#64C1BE" rx="11.05"/>
            <circle cx="21.25" cy="36.55" r="6.8" fill="#FFF"/>
            <path fill="#FAD843" d="M37.735 39.77l4.15 8.3c.21.42.04.93-.38 1.14-.118.06-.248.09-.38.09h-8.3c-.47 0-.85-.38-.85-.85 0-.132.031-.262.09-.38l4.15-8.3c.21-.42.72-.59 1.14-.38.165.083.298.216.38.38z"/>
            <rect width="28.05" height="8.5" x="22.95" y="54.4" fill="#FFF" rx="4.25"/>
            <circle cx="51.85" cy="36.55" r="6.8" fill="#FFF"/>
            <path fill="#F1A4AB" d="M65.875 33.575v19.55H69.7c1.174 0 2.125-.951 2.125-2.125V35.7c0-1.174-.951-2.125-2.125-2.125h-3.825zM7.225 53.125v-19.55H2.55c-.704 0-1.275.57-1.275 1.275v17c0 .704.57 1.275 1.275 1.275h4.675z"/>
            <g stroke-linecap="square">
                <path d="M8.075 0v8.234M.85 0v8.234M15.3 0v8.234" transform="translate(28.9 54.4)"/>
            </g>
        </g>
        <g>
            <g transform="translate(103.802 154.485) translate(0 42.517)">
                <use fill="#000" filter="url(#prefix__c)" xlink:href="#prefix__d"/>
                <path fill="#459593" stroke="#1F1B24" stroke-linejoin="square" stroke-width="2.193" d="M25.576 2.274L2.274 25.576c-.754.754-1.177 1.777-1.177 2.843v163.834c0 2.22 1.8 4.02 4.02 4.02h163.834c1.066 0 2.089-.423 2.843-1.177l23.302-23.302c.754-.754 1.178-1.777 1.178-2.843V5.117c0-2.22-1.8-4.02-4.021-4.02H28.419c-1.066 0-2.089.423-2.843 1.177z"/>
                <path fill="#64C1BE" fill-rule="nonzero" stroke="#1F1B24" stroke-width="2.193" d="M27.413 1.097H196.274V169.958H27.413z"/>
                <use fill="#000" filter="url(#prefix__e)" xlink:href="#prefix__f"/>
                <use fill="#FFF" stroke="#1F1B24" stroke-width="2.354" xlink:href="#prefix__f"/>
                <path stroke="#1F1B24" stroke-width="2.193" d="M2.193 195.177l26.316-26.316-26.316 26.316z"/>
            </g>
            <g stroke="#000" stroke-width="2.193">
                <path fill="#000" d="M7.31 1.097c-3.432 0-6.213 2.781-6.213 6.213v135.235c0 3.432 2.781 6.214 6.213 6.214s6.214-2.782 6.214-6.214V7.31c0-3.432-2.782-6.213-6.214-6.213z" transform="translate(103.802 154.485) rotate(-105 100.603 -34.31)"/>
                <path fill="#FFF" d="M1.097 35.454h12.427V7.31c0-3.432-2.782-6.213-6.214-6.213-3.432 0-6.213 2.781-6.213 6.213v28.144z" transform="translate(103.802 154.485) rotate(-105 100.603 -34.31)"/>
            </g>
            <path fill="#FAD843" fill-rule="nonzero" stroke="#000" stroke-width="2.193" d="M125.699 42.761l-2.617-1.554c-1.278-.759-1.7-2.41-.94-3.69.23-.386.553-.71.94-.94l2.617-1.553c.841-.5 1.543-1.202 2.043-2.043l1.554-2.617c.759-1.278 2.41-1.7 3.689-.94.387.23.71.553.94.94l1.554 2.617c.5.841 1.202 1.543 2.043 2.043l2.617 1.554c1.278.759 1.7 2.41.94 3.689-.23.387-.553.71-.94.94l-2.617 1.554c-.841.5-1.543 1.202-2.043 2.043l-1.554 2.617c-.759 1.278-2.41 1.7-3.69.94-.386-.23-.71-.553-.94-.94l-1.553-2.617c-.5-.841-1.202-1.543-2.043-2.043zM154.953 80.988l-4.451-2.643c-1.88-1.116-2.5-3.545-1.383-5.426.338-.569.813-1.044 1.383-1.383l4.451-2.643c.841-.5 1.544-1.201 2.043-2.042l2.643-4.452c1.117-1.88 3.546-2.5 5.426-1.383.57.338 1.045.814 1.383 1.383l2.643 4.452c.5.84 1.202 1.543 2.043 2.042l4.451 2.643c1.88 1.117 2.5 3.546 1.383 5.426-.338.57-.813 1.045-1.383 1.383l-4.451 2.643c-.841.5-1.544 1.202-2.043 2.043l-2.643 4.452c-1.117 1.88-3.546 2.499-5.426 1.382-.57-.338-1.045-.813-1.383-1.382l-2.643-4.452c-.5-.841-1.202-1.543-2.043-2.043z" transform="translate(103.802 154.485)"/>
        </g>
        <rect width="12.427" height="55.556" x="15.21" y="-1.583" fill="#FFF" stroke="#000" stroke-width="2.193" rx="6.214" transform="rotate(-69 173.572 106.034)"/>
        <rect width="12.427" height="55.556" x="15.21" y="-1.583" fill="#FFF" stroke="#000" stroke-width="2.193" rx="6.214" transform="rotate(-69 140.934 97.697)"/>
        <g transform="rotate(25 28.813 663.628)">
            <path fill="#D9D9D9" fill-rule="nonzero" stroke="#000" stroke-width="2.038" d="M4.126 55.667v10.092c0 1.126.913 2.038 2.038 2.038h44.642c1.126 0 2.038-.912 2.038-2.038V55.667H4.126z"/>
            <rect width="54.933" height="58.682" x="1.019" y="1.019" fill="#D9D9D9" fill-rule="nonzero" stroke="#000" stroke-width="2.038" rx="3.057"/>
            <rect width="40.431" height="29.334" x="8.27" y="8.103" fill="#FFF" fill-rule="nonzero" stroke="#000" stroke-width="2.038" rx="3.057"/>
            <g>
                <path fill="#000" d="M10.308 16.02c4.141 0 8.11-2.155 10.383-5.73l-1.798-1.182c-2.087 3.284-5.904 5.116-9.726 4.668-2.979-.35-5.734-2.095-7.369-4.668L0 10.29c1.979 3.114 5.314 5.225 8.921 5.648.463.055.926.081 1.387.081z" transform="translate(18.645 15.18)"/>
                <path fill="#D8D8D8" fill-rule="nonzero" stroke="#000" stroke-width="1.153" d="M3.684.576H4.684V3.471H3.684zM16.114.576H17.114V3.471H16.114zM9.899.576H10.899V9.543000000000001H9.899z" transform="translate(18.645 15.18)"/>
            </g>
            <path fill-rule="nonzero" stroke="#000" stroke-width="2.038" d="M35.218 47.058H49.72M7.25 50.094h5.18"/>
        </g>
        <g fill-rule="nonzero" stroke="#000">
            <path fill="#D4C8BA" stroke-width="2.509" d="M21.053 16.007L13.401 4.123c-1.506-2.483 6.778-7.182 17.747-1.25 7.225 4.184 17.41-4.276 15.233-.539-1.349 2.09-3.702 6.619-7.058 13.586C53.2 28.002 59.82 40.853 59.184 54.474c-.35 4.83-5.508 9.491-9.33 10.168-1.897.423-38.368.423-40.104 0C2.682 63.856.682 56.839.682 53.248c.22-14.487 7.01-26.9 20.371-37.241z" transform="rotate(-19 444.581 -352.549)"/>
            <path fill="#000" stroke-width="1.02" d="M31.338 52.296c3.19-.356 5.392-2.297 5.32-6.167-.083-4.381-2.89-5.777-5.563-6.786l-.149-7.932c2.401.173 3.38 1.247 3.956 1.257.576.011.913-.75.906-1.166-.02-1.055-2.594-1.902-4.898-2.041l-.018-.928c-.006-.32-.395-.615-.746-.621-.416-.008-.73.274-.725.594l.019.991c-2.779.14-5.793 1.362-5.718 5.392.077 4.093 3.101 5.11 5.934 6.153l.175 9.307c-3.968-.17-4.719-2.71-5.487-2.724-.48-.01-.946.653-.937 1.165.022 1.151 2.431 3.467 6.461 3.574l.022 1.151c.006.32.331.614.747.622.352.006.73-.274.724-.594l-.023-1.247zm-5.984-17.684c-.096-2.315 1.683-3.084 3.647-3.158l.302 7.256c-2.063-.803-3.847-1.658-3.949-4.098zm6.179 15.863l-.36-8.904c1.99.895 3.632 2.035 3.746 4.873.098 2.413-1.118 3.764-3.386 4.03z" transform="rotate(-19 444.581 -352.549)"/>
        </g>
        <g transform="rotate(-14 396.682 -104.235)">
            <g fill="#FAD843" stroke="#000" stroke-width="1.892">
                <path d="M5.356.946L1.378 11.282h3.62L8.979.946H5.355zM38.888.946l3.979 10.336h-3.62L35.266.946h3.621z" transform="translate(16.003 71.487)"/>
            </g>
            <ellipse cx="38.126" cy="38.095" fill="#F1A4AB" stroke="#000" stroke-width="2.838" rx="36.707" ry="36.676"/>
            <ellipse cx="38.597" cy="38.566" fill="#FFF" rx="27.3" ry="27.278"/>
            <ellipse cx="38.597" cy="38.566" fill="#F1A4AB" rx="18.828" ry="18.813"/>
            <ellipse cx="38.126" cy="38.095" fill="#FFF" rx="11.767" ry="11.758"/>
            <ellipse cx="38.126" cy="38.095" fill="#F1A4AB" rx="5.178" ry="5.173"/>
            <g stroke="#000" stroke-width="1.892" transform="rotate(45 25.306 77.59)">
                <rect width="3.003" height="28.678" x="4.617" y="13.174" fill="#64C1BE" rx="1.502"/>
                <path fill="#4A90E2" d="M1.686.674l3.977 1.59c.293.116.62.116.912 0l3.977-1.59c.63-.252 1.346.055 1.598.686.058.145.088.3.088.456v9.58c0 .502-.306.955-.773 1.141l-4.89 1.954c-.293.117-.62.117-.912 0l-4.89-1.954C.306 12.351 0 11.898 0 11.395V1.816c0-.68.55-1.23 1.23-1.23.156 0 .311.03.456.088z"/>
                <path d="M6.119 2.446v12.109"/>
            </g>
        </g>
        <g>
            <g filter="url(#prefix__g)" transform="translate(26 377) translate(48.75)">
                <path fill="#FFF" stroke="#000" stroke-width="6" d="M97.5 8c10.782-5.333 21.865-8 33.25-8 11.385 0 22.801 2.667 34.25 8v112.5c0 41.421-33.579 75-75 75H75.482c-41.421 0-75-33.579-75-75 0-.16 0-.32.002-.48L.75 78.5H66v42.069c0 8.613 6.982 15.595 15.595 15.595l.155-.001h0c8.724-.087 15.75-7.183 15.75-15.908V8z"/>
                <mask id="prefix__i" fill="#fff">
                    <use xlink:href="#prefix__h"/>
                </mask>
                <use fill="#3970AF" xlink:href="#prefix__h"/>
                <path fill="#64C1BE" d="M97.5 5l50.25-10v124.461c0 35.368-28.671 64.039-64.039 64.039-37.267 0-67.477-30.21-67.477-67.477l.001-.482L16.5 78.5H66v42.069c0 8.613 6.982 15.595 15.595 15.595l.155-.001c8.724-.087 15.75-7.183 15.75-15.908V5z" mask="url(#prefix__i)"/>
                <path fill="#F1A4AB" d="M97.5 5L132-15v133.711c0 27.084-21.955 49.039-49.039 49.039-27.773 0-50.287-22.514-50.287-50.287 0-.14 0-.281.002-.422L33 78.5h33v42.069c0 8.613 6.982 15.595 15.595 15.595l.155-.001c8.724-.087 15.75-7.183 15.75-15.908V5z" mask="url(#prefix__i)"/>
                <path fill="#FAD843" d="M97.5 5l17.25-10v123.676c0 17.813-13.995 32.484-31.789 33.324-18.663-.837-33.307-16.312-33.112-34.993L50.25 78.5H66v42.069c0 8.613 6.982 15.595 15.595 15.595l.155-.001c8.724-.087 15.75-7.183 15.75-15.908V5z" mask="url(#prefix__i)"/>
            </g>
            <g fill="#FFF" fill-rule="nonzero" stroke="#000" stroke-width="3" filter="url(#prefix__j)" transform="translate(26 377) translate(0 32.75)">
                <path d="M25.743 57.75h90.868c9.2-.655 11.639-6.576 11.639-17.233 0-7.327-5.549-13.045-11.64-15.735-5.635-2.49-14.576-3.75-20.3-3.75 0 0-2.182-21.032-24.465-21.032-14.856 0-22.993 8.26-24.412 24.782-12.934-3.005-22.849-2.1-29.745 2.712-6.896 4.812-9.36 11.61-7.393 20.392-7.981.072-11.322 3.36-10.022 9.864h25.47z"/>
            </g>
        </g>
    </g>
</svg>
