<?xml version="1.0" encoding="UTF-8"?>
<svg width="142px" height="142px" viewBox="0 0 142 142" version="1.1" xmlns="http://www.w3.org/2000/svg" xmlns:xlink="http://www.w3.org/1999/xlink">
    <!-- Generator: Sketch 60 (88103) - https://sketch.com -->
    <title>Group</title>
    <desc>Created with Sketch.</desc>
    <defs>
        <path d="M17.3607173,1.04911427 L1.04911427,17.3607173 C0.377377683,18.0324538 -5.60428082e-16,18.9435242 0,19.8935031 L0,134.577106 C2.42263161e-16,136.555335 1.60367133,138.159006 3.58190016,138.159006 L118.265503,138.159006 C119.215482,138.159006 120.126552,137.781628 120.798289,137.109892 L137.109892,120.798289 C137.781628,120.126552 138.159006,119.215482 138.159006,118.265503 L138.159006,3.58190016 C138.159006,1.60367133 136.555335,1.4129621e-15 134.577106,0 L19.8935031,0 C18.9435242,5.45915124e-15 18.0324538,0.377377683 17.3607173,1.04911427 Z" id="path-1"></path>
        <filter x="-3.3%" y="-1.1%" width="104.3%" height="104.3%" filterUnits="objectBoundingBox" id="filter-2">
            <feOffset dx="-3" dy="3" in="SourceAlpha" result="shadowOffsetOuter1"></feOffset>
            <feComposite in="shadowOffsetOuter1" in2="SourceAlpha" operator="out" result="shadowOffsetOuter1"></feComposite>
            <feColorMatrix values="0 0 0 0 0   0 0 0 0 0   0 0 0 0 0  0 0 0 0.07 0" type="matrix" in="shadowOffsetOuter1"></feColorMatrix>
        </filter>
        <linearGradient x1="0.04%" y1="50.0152059%" x2="100.02%" y2="50.0152059%" id="linearGradient-3">
            <stop stop-color="#9146FF" offset="27.41%"></stop>
            <stop stop-color="#473198" offset="100%"></stop>
        </linearGradient>
    </defs>
    <g id="v3" stroke="none" stroke-width="1" fill="none" fill-rule="evenodd">
        <g id="Sourcing" transform="translate(-1185.000000, -7833.000000)">
            <g id="Group-15" transform="translate(0.000000, 6997.000000)">
                <g id="Group" transform="translate(1188.000000, 836.000000)">
                    <g id="Group-30" transform="translate(0.000000, 0.361901)">
                        <g id="Path-17">
                            <use fill="black" fill-opacity="1" filter="url(#filter-2)" xlink:href="#path-1"></use>
                            <path stroke="#1F1B24" stroke-width="2" d="M18.067824,1.75622105 L1.75622105,18.067824 C1.27202084,18.5520242 1,19.2087407 1,19.8935031 L1,134.577106 C1,136.00305 2.15595608,137.159006 3.58190016,137.159006 L118.265503,137.159006 C118.950266,137.159006 119.606982,136.886985 120.091182,136.402785 L136.402785,120.091182 C136.886985,119.606982 137.159006,118.950266 137.159006,118.265503 L137.159006,3.58190016 C137.159006,2.15595608 136.00305,1 134.577106,1 L19.8935031,1 C19.2087407,1 18.5520242,1.27202084 18.067824,1.75622105 Z" stroke-linejoin="square" fill="#D8D8D8" fill-rule="evenodd"></path>
                        </g>
                        <rect id="Rectangle" stroke="#1F1B24" stroke-width="2" fill="#FFFFFF" fill-rule="nonzero" x="19.4212008" y="1" width="117.737805" height="117.737805"></rect>
                        <g id="infamy_logo" transform="translate(34.000000, 45.638099)">
                            <g id="Group" transform="translate(0.000000, 7.200000)" fill-rule="nonzero">
                                <path d="M0.36,0.18 L9.96,0.18 C10.08,0.18 10.16,0.26 10.16,0.38 L10.16,14.3 C10.16,14.36 10.14,14.4 10.1,14.44 L5.3,19.06 C5.22,19.14 5.1,19.14 5.02,19.06 L0.22,14.44 C0.18,14.4 0.16,14.34 0.16,14.3 L0.16,0.4 C0.16,0.28 0.26,0.18 0.36,0.18 Z" id="Path" fill="url(#linearGradient-3)"></path>
                                <path d="M5.4,16.26 L7.8,13.86 C7.84,13.82 7.86,13.78 7.86,13.72 L7.86,2.38 C7.86,2.26 7.76,2.18 7.66,2.18 L2.66,2.18 C2.56,2.18 2.46,2.26 2.46,2.38 L2.46,13.7 C2.46,13.76 2.48,13.8 2.52,13.84 L5.12,16.26 C5.2,16.34 5.32,16.32 5.4,16.26 Z" id="Path" fill="#FFFFFF"></path>
                            </g>
                            <g id="Group" fill-rule="nonzero">
                                <path d="M9.96,5.76 L0.36,5.76 C0.26,5.76 0.16,5.66 0.16,5.56 L0.16,1.52 L10.16,1.52 L10.16,5.56 C10.16,5.68 10.08,5.76 9.96,5.76 Z" id="Path" fill="#FFC145"></path>
                                <path d="M8.46,4.52 L1.94,4.52 C1.84,4.52 1.74,4.42 1.74,4.32 L1.74,3.1 C1.74,3 1.84,2.9 1.94,2.9 L8.46,2.9 C8.56,2.9 8.66,3 8.66,3.1 L8.66,4.32 C8.66,4.42 8.58,4.52 8.46,4.52 Z" id="Path" fill="#FFFFFF"></path>
                                <path d="M1.72,1.54 L0.16,1.54 L0.16,0.3 C0.16,0.2 0.26,0.1 0.36,0.1 L1.5,0.1 C1.6,0.1 1.7,0.2 1.7,0.3 L1.72,1.54 L1.72,1.54 Z" id="Path" fill="#FFC145"></path>
                                <path d="M10.16,1.54 L8.6,1.54 L8.6,0.3 C8.6,0.2 8.7,0.1 8.8,0.1 L9.94,0.1 C10.06,0.1 10.14,0.2 10.14,0.3 L10.16,1.54 L10.16,1.54 Z" id="Path" fill="#FFC145"></path>
                                <path d="M7.34,1.54 L5.8,1.54 L5.8,0.3 C5.8,0.2 5.9,0.1 6,0.1 L7.14,0.1 C7.24,0.1 7.34,0.2 7.34,0.3 L7.34,1.54 L7.34,1.54 Z" id="Path" fill="#FFC145"></path>
                                <path d="M4.54,1.54 L2.98,1.54 L2.98,0.3 C2.98,0.2 3.08,0.1 3.18,0.1 L4.32,0.1 C4.42,0.1 4.52,0.2 4.52,0.3 L4.54,1.54 L4.54,1.54 Z" id="Path" fill="#FFC145"></path>
                            </g>
                            <rect id="Rectangle" x="20.22" y="2.84" width="67.6" height="13.2"></rect>
                            <g id="Group" transform="translate(21.400000, 3.400000)" fill="#050813" fill-rule="nonzero">
                                <polygon id="Path" points="0.08 11.74 0.08 0.18 3.22 0.18 3.22 11.74 0.08 11.74"></polygon>
                                <path d="M16.72,11.74 L12.62,11.74 L8.4,3.6 L8.32,3.6 C8.42,4.88 8.48,5.86 8.48,6.54 L8.48,11.76 L5.72,11.76 L5.72,0.18 L9.8,0.18 L14,8.22 L14.04,8.22 C13.96,7.06 13.92,6.12 13.92,5.42 L13.92,0.18 L16.7,0.18 L16.7,11.74 L16.72,11.74 Z" id="Path"></path>
                                <polygon id="Path" points="22.3 11.74 19.22 11.74 19.22 0.18 26.06 0.18 26.06 2.68 22.3 2.68 22.3 4.88 25.76 4.88 25.76 7.4 22.3 7.4"></polygon>
                                <path d="M35.06,11.74 L34.5,9.58 L30.74,9.58 L30.16,11.74 L26.72,11.74 L30.5,0.12 L34.66,0.12 L38.48,11.74 L35.06,11.74 Z M33.84,7.02 L33.34,5.12 C33.22,4.7 33.08,4.16 32.92,3.48 C32.76,2.82 32.64,2.34 32.6,2.04 C32.56,2.3 32.46,2.76 32.32,3.36 C32.18,3.98 31.88,5.2 31.4,7 L33.84,7 L33.84,7.02 Z" id="Shape"></path>
                                <path d="M44.76,11.74 L42.4,3.42 L42.32,3.42 C42.44,4.84 42.48,5.94 42.48,6.72 L42.48,11.74 L39.72,11.74 L39.72,0.18 L43.88,0.18 L46.3,8.4 L46.36,8.4 L48.72,0.18 L52.88,0.18 L52.88,11.74 L50,11.74 L50,6.68 C50,6.42 50,6.12 50.02,5.8 C50.02,5.48 50.06,4.7 50.12,3.44 L50.04,3.44 L47.7,11.76 L44.76,11.76 L44.76,11.74 Z" id="Path"></path>
                                <polygon id="Path" points="59.52 4.48 61.52 0.2 64.9 0.2 61.1 7.24 61.1 11.76 57.96 11.76 57.96 7.32 54.16 0.18 57.56 0.18"></polygon>
                            </g>
                            <rect id="Rectangle" x="21.2" y="19.84" width="65.46" height="3.72"></rect>
                            <g id="Group" transform="translate(21.600000, 20.000000)" fill="#737AAE" fill-rule="nonzero">
                                <polygon id="Path" points="0.32 2.88 0 2.88 0 0.02 1.6 0.02 1.6 0.32 0.34 0.32 0.34 1.36 1.52 1.36 1.52 1.66 0.34 1.66 0.34 2.88"></polygon>
                                <path d="M5.32,2.88 L5.26,2.58 L5.24,2.58 C5.14,2.72 5.02,2.8 4.92,2.86 C4.82,2.92 4.68,2.94 4.52,2.94 C4.3,2.94 4.14,2.88 4.02,2.78 C3.9,2.68 3.84,2.52 3.84,2.32 C3.84,1.88 4.18,1.66 4.88,1.64 L5.24,1.62 L5.24,1.48 C5.24,1.32 5.2,1.18 5.14,1.1 C5.08,1.02 4.96,0.98 4.8,0.98 C4.62,0.98 4.42,1.04 4.2,1.14 L4.1,0.9 C4.2,0.84 4.32,0.8 4.44,0.76 C4.56,0.72 4.7,0.72 4.82,0.72 C5.08,0.72 5.26,0.78 5.38,0.88 C5.5,0.98 5.56,1.18 5.56,1.42 L5.56,2.88 L5.32,2.88 L5.32,2.88 Z M4.6,2.66 C4.8,2.66 4.96,2.6 5.08,2.5 C5.2,2.4 5.26,2.24 5.26,2.04 L5.26,1.84 L4.94,1.86 C4.68,1.86 4.5,1.9 4.38,1.98 C4.26,2.06 4.2,2.16 4.2,2.32 C4.2,2.44 4.24,2.52 4.3,2.58 C4.36,2.64 4.46,2.66 4.6,2.66 Z" id="Shape"></path>
                                <path d="M9.7,2.88 L9.7,1.5 C9.7,1.32 9.66,1.2 9.58,1.1 C9.5,1 9.38,0.98 9.2,0.98 C8.98,0.98 8.82,1.04 8.7,1.16 C8.58,1.28 8.54,1.48 8.54,1.76 L8.54,2.88 L8.22,2.88 L8.22,0.74 L8.48,0.74 L8.54,1.04 L8.56,1.04 C8.62,0.94 8.72,0.86 8.84,0.8 C8.96,0.74 9.1,0.72 9.24,0.72 C9.5,0.72 9.7,0.78 9.82,0.9 C9.94,1.02 10.02,1.22 10.02,1.5 L10.02,2.9 L9.7,2.9 L9.7,2.88 Z" id="Path"></path>
                                <path d="M13.38,2.66 C13.44,2.66 13.5,2.66 13.54,2.64 C13.58,2.62 13.64,2.62 13.66,2.62 L13.66,2.86 C13.62,2.88 13.58,2.9 13.5,2.9 C13.42,2.9 13.38,2.92 13.32,2.92 C12.9,2.92 12.7,2.7 12.7,2.26 L12.7,1 L12.4,1 L12.4,0.84 L12.7,0.7 L12.84,0.24 L13.02,0.24 L13.02,0.74 L13.64,0.74 L13.64,1 L13.02,1 L13.02,2.26 C13.02,2.38 13.06,2.48 13.12,2.56 C13.18,2.64 13.28,2.66 13.38,2.66 Z" id="Path"></path>
                                <path d="M17.42,2.88 L17.36,2.58 L17.34,2.58 C17.24,2.72 17.12,2.8 17.02,2.86 C16.92,2.92 16.78,2.94 16.62,2.94 C16.4,2.94 16.24,2.88 16.12,2.78 C16,2.68 15.94,2.52 15.94,2.32 C15.94,1.88 16.28,1.66 16.98,1.64 L17.34,1.62 L17.34,1.48 C17.34,1.32 17.3,1.18 17.24,1.1 C17.18,1.02 17.06,0.98 16.9,0.98 C16.72,0.98 16.52,1.04 16.3,1.14 L16.2,0.9 C16.3,0.84 16.42,0.8 16.54,0.76 C16.66,0.72 16.8,0.72 16.92,0.72 C17.18,0.72 17.36,0.78 17.48,0.88 C17.6,0.98 17.66,1.18 17.66,1.42 L17.66,2.88 L17.42,2.88 L17.42,2.88 Z M16.68,2.66 C16.88,2.66 17.04,2.6 17.16,2.5 C17.28,2.4 17.34,2.24 17.34,2.04 L17.34,1.84 L17.02,1.86 C16.76,1.86 16.58,1.9 16.46,1.98 C16.34,2.06 16.28,2.16 16.28,2.32 C16.28,2.44 16.32,2.52 16.38,2.58 C16.44,2.64 16.56,2.66 16.68,2.66 Z" id="Shape"></path>
                                <path d="M21.72,2.3 C21.72,2.5 21.64,2.66 21.5,2.76 C21.36,2.86 21.14,2.92 20.88,2.92 C20.6,2.92 20.38,2.88 20.22,2.78 L20.22,2.48 C20.32,2.54 20.44,2.58 20.56,2.6 C20.68,2.62 20.8,2.64 20.9,2.64 C21.06,2.64 21.2,2.62 21.3,2.56 C21.4,2.5 21.44,2.42 21.44,2.32 C21.44,2.24 21.4,2.16 21.34,2.1 C21.28,2.04 21.12,1.98 20.92,1.9 C20.72,1.82 20.58,1.76 20.5,1.7 C20.42,1.64 20.36,1.58 20.32,1.52 C20.28,1.46 20.26,1.36 20.26,1.26 C20.26,1.08 20.34,0.94 20.48,0.84 C20.62,0.74 20.82,0.68 21.06,0.68 C21.3,0.68 21.52,0.72 21.74,0.82 L21.62,1.08 C21.4,1 21.22,0.94 21.04,0.94 C20.88,0.94 20.78,0.96 20.7,1.02 C20.62,1.08 20.58,1.14 20.58,1.22 C20.58,1.28 20.6,1.32 20.62,1.36 C20.64,1.4 20.7,1.44 20.76,1.48 C20.82,1.52 20.96,1.56 21.14,1.64 C21.4,1.74 21.56,1.82 21.66,1.92 C21.76,2.02 21.72,2.16 21.72,2.3 Z" id="Path"></path>
                                <path d="M23.9,0.74 L24.24,0.74 L24.7,1.96 C24.8,2.24 24.86,2.44 24.9,2.56 L24.92,2.56 C24.94,2.5 24.98,2.38 25.02,2.22 C25.08,2.06 25.26,1.56 25.56,0.74 L25.9,0.74 L24.98,3.18 C24.88,3.42 24.78,3.6 24.66,3.7 C24.54,3.8 24.38,3.86 24.22,3.86 C24.12,3.86 24.02,3.84 23.92,3.82 L23.92,3.56 C24,3.58 24.08,3.58 24.16,3.58 C24.38,3.58 24.54,3.46 24.64,3.2 L24.76,2.9 L23.9,0.74 Z" id="Path"></path>
                                <polygon id="Path" points="32.94 2.88 31.34 2.88 31.34 0.02 32.94 0.02 32.94 0.32 31.68 0.32 31.68 1.24 32.86 1.24 32.86 1.54 31.68 1.54 31.68 2.6 32.94 2.6"></polygon>
                                <path d="M36.9,2.3 C36.9,2.5 36.82,2.66 36.68,2.76 C36.54,2.86 36.32,2.92 36.06,2.92 C35.78,2.92 35.56,2.88 35.4,2.78 L35.4,2.48 C35.5,2.54 35.62,2.58 35.74,2.6 C35.86,2.62 35.98,2.64 36.08,2.64 C36.24,2.64 36.38,2.62 36.48,2.56 C36.58,2.5 36.62,2.42 36.62,2.32 C36.62,2.24 36.58,2.16 36.52,2.1 C36.46,2.04 36.3,1.98 36.1,1.9 C35.9,1.82 35.76,1.76 35.68,1.7 C35.6,1.64 35.54,1.58 35.5,1.52 C35.46,1.46 35.44,1.36 35.44,1.26 C35.44,1.08 35.52,0.94 35.66,0.84 C35.8,0.74 36,0.68 36.24,0.68 C36.48,0.68 36.7,0.72 36.92,0.82 L36.8,1.08 C36.58,1 36.4,0.94 36.22,0.94 C36.06,0.94 35.96,0.96 35.88,1.02 C35.8,1.08 35.76,1.14 35.76,1.22 C35.76,1.28 35.78,1.32 35.8,1.36 C35.82,1.4 35.88,1.44 35.94,1.48 C36,1.52 36.14,1.56 36.32,1.64 C36.58,1.74 36.74,1.82 36.84,1.92 C36.86,2.04 36.9,2.16 36.9,2.3 Z" id="Path"></path>
                                <path d="M40.42,2.92 C40.28,2.92 40.16,2.9 40.04,2.84 C39.92,2.78 39.82,2.7 39.74,2.6 L39.72,2.6 C39.74,2.72 39.74,2.84 39.74,2.96 L39.74,3.84 L39.42,3.84 L39.42,0.74 L39.68,0.74 L39.72,1.04 L39.74,1.04 C39.82,0.92 39.92,0.84 40.04,0.78 C40.16,0.72 40.28,0.7 40.42,0.7 C40.7,0.7 40.92,0.8 41.08,1 C41.24,1.2 41.32,1.46 41.32,1.82 C41.32,2.18 41.24,2.44 41.08,2.64 C40.92,2.84 40.7,2.92 40.42,2.92 Z M40.38,0.98 C40.16,0.98 40,1.04 39.9,1.16 C39.8,1.28 39.76,1.48 39.74,1.74 L39.74,1.82 C39.74,2.12 39.78,2.34 39.9,2.46 C40,2.58 40.16,2.66 40.38,2.66 C40.56,2.66 40.7,2.58 40.82,2.44 C40.92,2.3 40.98,2.08 40.98,1.82 C40.98,1.56 40.92,1.34 40.82,1.2 C40.72,1.06 40.56,0.98 40.38,0.98 Z" id="Shape"></path>
                                <path d="M45.72,1.82 C45.72,2.16 45.64,2.44 45.46,2.64 C45.28,2.84 45.04,2.94 44.74,2.94 C44.54,2.94 44.38,2.9 44.24,2.8 C44.1,2.7 43.98,2.58 43.9,2.42 C43.82,2.26 43.78,2.06 43.78,1.84 C43.78,1.5 43.86,1.22 44.04,1.02 C44.22,0.82 44.46,0.72 44.76,0.72 C45.06,0.72 45.3,0.82 45.48,1.02 C45.64,1.2 45.72,1.48 45.72,1.82 Z M44.1,1.82 C44.1,2.1 44.16,2.3 44.26,2.44 C44.36,2.58 44.54,2.66 44.74,2.66 C44.96,2.66 45.12,2.58 45.22,2.44 C45.32,2.3 45.38,2.08 45.38,1.82 C45.38,1.54 45.32,1.34 45.22,1.2 C45.1,1.06 44.94,0.98 44.74,0.98 C44.52,0.98 44.36,1.04 44.26,1.18 C44.14,1.34 44.1,1.54 44.1,1.82 Z" id="Shape"></path>
                                <path d="M49.26,0.7 C49.36,0.7 49.44,0.7 49.52,0.72 L49.48,1.02 C49.4,1 49.32,1 49.24,1 C49.06,1 48.92,1.08 48.8,1.22 C48.68,1.36 48.62,1.54 48.62,1.74 L48.62,2.88 L48.3,2.88 L48.3,0.74 L48.56,0.74 L48.6,1.14 L48.62,1.14 C48.7,1 48.8,0.9 48.9,0.82 C49.02,0.74 49.14,0.7 49.26,0.7 Z" id="Path"></path>
                                <path d="M52.62,2.66 C52.68,2.66 52.74,2.66 52.78,2.64 C52.84,2.64 52.88,2.62 52.9,2.62 L52.9,2.86 C52.86,2.88 52.82,2.9 52.74,2.9 C52.66,2.9 52.62,2.92 52.56,2.92 C52.14,2.92 51.94,2.7 51.94,2.26 L51.94,1 L51.64,1 L51.64,0.84 L51.94,0.7 L52.08,0.24 L52.26,0.24 L52.26,0.74 L52.88,0.74 L52.88,1 L52.26,1 L52.26,2.26 C52.26,2.38 52.3,2.48 52.36,2.56 C52.42,2.62 52.52,2.66 52.62,2.66 Z" id="Path"></path>
                                <path d="M56.72,2.3 C56.72,2.5 56.64,2.66 56.5,2.76 C56.36,2.86 56.14,2.92 55.88,2.92 C55.6,2.92 55.38,2.88 55.22,2.78 L55.22,2.48 C55.32,2.54 55.44,2.58 55.56,2.6 C55.68,2.62 55.8,2.64 55.9,2.64 C56.06,2.64 56.2,2.62 56.3,2.56 C56.4,2.5 56.44,2.42 56.44,2.32 C56.44,2.24 56.4,2.16 56.34,2.1 C56.28,2.04 56.12,1.98 55.92,1.9 C55.72,1.82 55.58,1.76 55.5,1.7 C55.42,1.64 55.36,1.58 55.32,1.52 C55.28,1.46 55.26,1.36 55.26,1.26 C55.26,1.08 55.34,0.94 55.48,0.84 C55.62,0.74 55.82,0.68 56.06,0.68 C56.3,0.68 56.52,0.72 56.74,0.82 L56.62,1.08 C56.4,1 56.22,0.94 56.04,0.94 C55.88,0.94 55.78,0.96 55.7,1.02 C55.62,1.08 55.58,1.14 55.58,1.22 C55.58,1.28 55.6,1.32 55.62,1.36 C55.64,1.4 55.7,1.44 55.76,1.48 C55.82,1.52 55.96,1.56 56.14,1.64 C56.4,1.74 56.56,1.82 56.66,1.92 C56.68,2.04 56.72,2.16 56.72,2.3 Z" id="Path"></path>
                            </g>
                        </g>
                        <path d="M1.53510007,136.623906 L19.9563009,118.202705 L1.53510007,136.623906 Z" id="Path-18" stroke="#1F1B24" stroke-width="2"></path>
                    </g>
                </g>
            </g>
        </g>
    </g>
</svg>