<?xml version="1.0" encoding="UTF-8"?>
<svg width="499px" height="552px" viewBox="0 0 499 552" version="1.1" xmlns="http://www.w3.org/2000/svg" xmlns:xlink="http://www.w3.org/1999/xlink">
    <!-- Generator: Sketch 60 (88103) - https://sketch.com -->
    <title>Group 11</title>
    <desc>Created with Sketch.</desc>
    <defs>
        <ellipse id="path-1" cx="276.5" cy="293.337607" rx="215.5" ry="217.605006"></ellipse>
        <filter x="-1.0%" y="-1.0%" width="103.5%" height="103.4%" filterUnits="objectBoundingBox" id="filter-2">
            <feMorphology radius="3" operator="dilate" in="SourceAlpha" result="shadowSpreadOuter1"></feMorphology>
            <feOffset dx="3" dy="3" in="shadowSpreadOuter1" result="shadowOffsetOuter1"></feOffset>
            <feComposite in="shadowOffsetOuter1" in2="SourceAlpha" operator="out" result="shadowOffsetOuter1"></feComposite>
            <feColorMatrix values="0 0 0 0 0   0 0 0 0 0   0 0 0 0 0  0 0 0 0.07 0" type="matrix" in="shadowOffsetOuter1"></feColorMatrix>
        </filter>
        <filter x="-2.6%" y="-3.8%" width="105.2%" height="106.3%" filterUnits="objectBoundingBox" id="filter-3">
            <feOffset dx="-3" dy="3" in="SourceAlpha" result="shadowOffsetOuter1"></feOffset>
            <feColorMatrix values="0 0 0 0 0   0 0 0 0 0   0 0 0 0 0  0 0 0 0.07 0" type="matrix" in="shadowOffsetOuter1" result="shadowMatrixOuter1"></feColorMatrix>
            <feMerge>
                <feMergeNode in="shadowMatrixOuter1"></feMergeNode>
                <feMergeNode in="SourceGraphic"></feMergeNode>
            </feMerge>
        </filter>
        <path d="M33.92348,2.0743678 L2.02625418,34.283166 C0.728188933,35.5939107 5.99133479e-15,37.3640691 0,39.2087982 L0,265.637363 C4.73447626e-16,269.503356 3.13400675,272.637363 7,272.637363 L231.102774,272.637363 C232.971082,272.637363 234.761864,271.890493 236.07652,270.562995 L267.973746,238.354197 C269.271811,237.043452 270,235.273293 270,233.428564 L270,7 C270,3.13400675 266.865993,-7.10171439e-16 263,0 L38.8972258,0 C37.0289182,1.23138094e-15 35.2381365,0.746869702 33.92348,2.0743678 Z" id="path-4"></path>
        <filter x="-3.3%" y="-1.1%" width="104.4%" height="104.4%" filterUnits="objectBoundingBox" id="filter-5">
            <feOffset dx="-6" dy="6" in="SourceAlpha" result="shadowOffsetOuter1"></feOffset>
            <feComposite in="shadowOffsetOuter1" in2="SourceAlpha" operator="out" result="shadowOffsetOuter1"></feComposite>
            <feColorMatrix values="0 0 0 0 0   0 0 0 0 0   0 0 0 0 0  0 0 0 0.07 0" type="matrix" in="shadowOffsetOuter1"></feColorMatrix>
        </filter>
        <path d="M94,172.992105 L94,76.4205932 C94,75.2557695 94.9442762,74.3114933 96.1090999,74.3114933 C96.490078,74.3114933 96.8639421,74.4146869 97.1909789,74.6101125 L151.918121,107.313111 C152.584424,107.71127 153.415576,107.71127 154.081879,107.313111 L208.809021,74.6101125 C209.808922,74.0126072 211.103875,74.3388133 211.701381,75.3387142 C211.896806,75.665751 212,76.0396151 212,76.4205932 L212,172.992105 C212,174.156929 211.055724,175.101205 209.8909,175.101205 C209.509922,175.101205 209.136058,174.998012 208.809021,174.802586 L183.527221,159.695079 C182.890109,159.314364 182.5,158.626795 182.5,157.884598 L182.5,127.542238 C182.5,126.377414 181.555724,125.433138 180.3909,125.433138 C180.009922,125.433138 179.636058,125.536332 179.309021,125.731757 L154.081879,140.806602 C153.415576,141.204761 152.584424,141.204761 151.918121,140.806602 L126.690979,125.731757 C125.691078,125.134252 124.396125,125.460458 123.798619,126.460359 C123.603194,126.787396 123.5,127.16126 123.5,127.542238 L123.5,157.884598 C123.5,158.626795 123.109891,159.314364 122.472779,159.695079 L97.1909789,174.802586 C96.1910781,175.400091 94.8961245,175.073885 94.2986192,174.073984 C94.1031936,173.746947 94,173.373083 94,172.992105 Z" id="path-6"></path>
        <filter x="-9.0%" y="-2.9%" width="112.9%" height="111.5%" filterUnits="objectBoundingBox" id="filter-7">
            <feMorphology radius="1.61000001" operator="dilate" in="SourceAlpha" result="shadowSpreadOuter1"></feMorphology>
            <feOffset dx="-6" dy="6" in="shadowSpreadOuter1" result="shadowOffsetOuter1"></feOffset>
            <feComposite in="shadowOffsetOuter1" in2="SourceAlpha" operator="out" result="shadowOffsetOuter1"></feComposite>
            <feColorMatrix values="0 0 0 0 0   0 0 0 0 0   0 0 0 0 0  0 0 0 0.07 0" type="matrix" in="shadowOffsetOuter1"></feColorMatrix>
        </filter>
    </defs>
    <g id="v2" stroke="none" stroke-width="1" fill="none" fill-rule="evenodd">
        <g id="home" transform="translate(-822.000000, -2053.000000)">
            <g id="Group-15" transform="translate(0.000000, 1803.000000)">
                <g id="Group-14" transform="translate(112.000000, 241.000000)">
                    <g id="Group-11" transform="translate(705.000000, 12.000000)">
                        <g id="Group-Copy">
                            <g id="Oval" fill-rule="nonzero">
                                <use fill="black" fill-opacity="1" filter="url(#filter-2)" xlink:href="#path-1"></use>
                                <use stroke="#000000" stroke-width="3" fill="#4A90E2" xlink:href="#path-1"></use>
                            </g>
                            <g id="Group-2" filter="url(#filter-3)" transform="translate(152.000000, 0.000000)">
                                <path d="M223.893109,172.150794 L26.1059743,172.150794 L2.03440536,249.932234 L38.8939937,249.932234 L51.3929937,209.540794 L198.604954,209.540794 L211.105954,249.932234 L247.965572,249.932234 L223.893109,172.150794 Z" id="Combined-Shape" stroke="#000000" stroke-width="3" fill="#3970AF"></path>
                                <ellipse id="Oval" stroke="#000000" stroke-width="43" cx="125" cy="77.7521368" rx="55.5" ry="56.2521368"></ellipse>
                                <ellipse id="Oval" stroke="#000000" stroke-width="5" cx="125" cy="77.7521368" rx="77" ry="77.7521368"></ellipse>
                                <ellipse id="Oval" stroke="#F1A4AB" stroke-width="40" cx="125" cy="77.7521368" rx="57" ry="57.7521368"></ellipse>
                            </g>
                            <g id="Group" transform="translate(142.000000, 118.142857)">
                                <g id="Group-30" transform="translate(0.000000, 151.465201)">
                                    <g id="Path-17">
                                        <use fill="black" fill-opacity="1" filter="url(#filter-5)" xlink:href="#path-4"></use>
                                        <path stroke="#1F1B24" stroke-width="3" d="M34.9892826,3.12986042 L3.09205686,35.3386586 C2.07214845,36.3685295 1.5,37.7593682 1.5,39.2087982 L1.5,265.637363 C1.5,268.674929 3.96243388,271.137363 7,271.137363 L231.102774,271.137363 C232.57073,271.137363 233.977773,270.550536 235.010717,269.507502 L266.907943,237.298704 C267.927852,236.268833 268.5,234.877994 268.5,233.428564 L268.5,7 C268.5,3.96243388 266.037566,1.5 263,1.5 L38.8972258,1.5 C37.4292699,1.5 36.022227,2.08682619 34.9892826,3.12986042 Z" stroke-linejoin="square" fill="#459593" fill-rule="evenodd"></path>
                                    </g>
                                    <rect id="Rectangle" stroke="#1F1B24" stroke-width="3" fill="#64C1BE" fill-rule="nonzero" x="37.5" y="1.5" width="231" height="233.285714"></rect>
                                    <g id="Path-2">
                                        <use fill="black" fill-opacity="1" filter="url(#filter-7)" xlink:href="#path-6"></use>
                                        <use stroke="#1F1B24" stroke-width="3.22000003" fill="#FFFFFF" fill-rule="evenodd" xlink:href="#path-6"></use>
                                    </g>
                                    <path d="M3,269.608059 L39,233.25641 L3,269.608059 Z" id="Path-18" stroke="#1F1B24" stroke-width="3"></path>
                                </g>
                                <path d="M287.125566,37.5004958 L280.572563,39.1409141 C277.747655,39.8480756 274.884347,38.1313029 274.177186,35.3063949 C273.966745,34.4657453 273.966745,33.5861862 274.177186,32.7455365 L275.817604,26.1925344 C276.142502,24.8946594 276.136705,23.5360255 275.800742,22.2409706 L274.094158,15.6625085 C273.373647,12.885117 275.041079,10.0495072 277.81847,9.32899669 C278.674043,9.10704411 279.572097,9.10704411 280.42767,9.32899669 L287.006132,11.0355805 C288.301187,11.3715434 289.659821,11.3773412 290.957696,11.0524431 L297.510698,9.41202477 C300.335606,8.70486327 303.198914,10.421636 303.906075,13.246544 C304.116516,14.0871936 304.116516,14.9667527 303.906075,15.8074023 L302.265657,22.3604045 C301.940759,23.6582795 301.946557,25.0169134 302.28252,26.3119682 L303.989103,32.8904304 C304.709614,35.6678219 303.042182,38.5034317 300.264791,39.2239422 C299.409218,39.4458948 298.511164,39.4458948 297.655592,39.2239422 L291.077129,37.5173584 C289.782074,37.1813954 288.423441,37.1755977 287.125566,37.5004958 Z" id="Star-Copy-3" stroke="#000000" stroke-width="3" fill="#FAD843" fill-rule="nonzero" transform="translate(289.041631, 24.276469) rotate(-315.000000) translate(-289.041631, -24.276469) "></path>
                                <path d="M330.154679,93.2859667 L319.58712,95.9313522 C315.432844,96.9712956 311.222096,94.4466298 310.182153,90.2923533 C309.872682,89.0561039 309.872682,87.7626346 310.182153,86.5263852 L312.827539,75.9588264 C313.152437,74.6609514 313.146639,73.3023175 312.810676,72.0072626 L310.060053,61.404285 C309.000479,57.3198859 311.452584,53.1498714 315.536983,52.0902971 C316.795178,51.7638963 318.115846,51.7638963 319.374041,52.0902971 L329.977018,54.8409202 C331.272073,55.1768832 332.630707,55.1826809 333.928582,54.8577828 L344.496141,52.2123973 C348.650417,51.1724539 352.861165,53.6971197 353.901108,57.8513961 C354.210579,59.0876456 354.210579,60.3811149 353.901108,61.6173643 L351.255722,72.1849231 C350.930824,73.4827981 350.936622,74.841432 351.272585,76.1364868 L354.023208,86.7394644 C355.082782,90.8238636 352.630677,94.993878 348.546278,96.0534523 C347.288083,96.3798532 345.967416,96.3798532 344.70922,96.0534523 L334.106243,93.3028293 C332.811188,92.9668663 331.452554,92.9610686 330.154679,93.2859667 Z" id="Star-Copy-3" stroke="#000000" stroke-width="3" fill="#FAD843" fill-rule="nonzero" transform="translate(332.041631, 74.071875) rotate(-315.000000) translate(-332.041631, -74.071875) "></path>
                            </g>
                            <g id="bar" transform="translate(61.272706, 300.850550) rotate(-105.000000) translate(-61.272706, -300.850550) translate(31.272706, 264.350550)" fill="#FFFFFF" stroke="#000000" stroke-width="3">
                                <path d="M30.1313914,-2.05920238 L30.2387694,-2.05870056 C34.9023346,-2.03690565 38.6774306,1.73840926 38.6989551,6.40197566 L38.9737403,65.9378467 C38.9952803,70.6047703 35.2294528,74.405521 30.5625293,74.4270609 C30.5364892,74.4271811 30.5104488,74.4271809 30.4844088,74.4270604 L30.3774043,74.426565 C25.7136919,74.4049751 21.9383687,70.6295994 21.9168438,65.9658867 L21.6420595,6.42963695 C21.6205207,1.76291801 25.3861832,-2.03766583 30.0529021,-2.05920466 C30.0790651,-2.05932541 30.1052285,-2.05932465 30.1313914,-2.05920238 Z" id="Rectangle" transform="translate(30.307900, 36.183741) rotate(36.000000) translate(-30.307900, -36.183741) "></path>
                            </g>
                            <g id="bar-copy" transform="translate(43.272706, 251.371917) rotate(-105.000000) translate(-43.272706, -251.371917) translate(13.272706, 214.871917)" fill="#FFFFFF" stroke="#000000" stroke-width="3">
                                <path d="M30.1313914,-2.05920238 L30.2387694,-2.05870056 C34.9023346,-2.03690565 38.6774306,1.73840926 38.6989551,6.40197566 L38.9737403,65.9378467 C38.9952803,70.6047703 35.2294528,74.405521 30.5625293,74.4270609 C30.5364892,74.4271811 30.5104488,74.4271809 30.4844088,74.4270604 L30.3774043,74.426565 C25.7136919,74.4049751 21.9383687,70.6295994 21.9168438,65.9658867 L21.6420595,6.42963695 C21.6205207,1.76291801 25.3861832,-2.03766583 30.0529021,-2.05920466 C30.0790651,-2.05932541 30.1052285,-2.05932465 30.1313914,-2.05920238 Z" id="Rectangle" transform="translate(30.307900, 36.183741) rotate(36.000000) translate(-30.307900, -36.183741) "></path>
                            </g>
                        </g>
                    </g>
                </g>
            </g>
        </g>
    </g>
</svg>