<?xml version="1.0" encoding="UTF-8"?>
<svg width="145px" height="197px" viewBox="0 0 145 197" version="1.1" xmlns="http://www.w3.org/2000/svg" xmlns:xlink="http://www.w3.org/1999/xlink">
    <!-- Generator: Sketch 60 (88103) - https://sketch.com -->
    <title>Group 4</title>
    <desc>Created with Sketch.</desc>
    <g id="v3" stroke="none" stroke-width="1" fill="none" fill-rule="evenodd">
        <g id="StaaS" transform="translate(-1010.000000, -4955.000000)">
            <g id="Group-22" transform="translate(285.000000, 4955.000000)">
                <g id="Group-4" transform="translate(0.000000, -0.000000)">
                    <g transform="translate(956.000000, 56.000000) rotate(-330.000000) translate(-956.000000, -56.000000) translate(786.000000, -114.000000)" id="Group-3">
                        <g transform="translate(0.000000, 60.000000)"></g>
                        <g transform="translate(0.000000, 90.000000)"></g>
                        <g transform="translate(0.000000, 120.000000)"></g>
                        <g transform="translate(0.000000, 150.000000)"></g>
                        <g transform="translate(0.000000, 180.000000)" fill="#64C1BE" stroke="#000000" stroke-width="2">
                            <circle id="Oval" cx="35" cy="5" r="4"></circle>
                            <circle id="Oval" cx="65" cy="5" r="4"></circle>
                        </g>
                        <g transform="translate(0.000000, 210.000000)" fill="#64C1BE" stroke="#000000" stroke-width="2">
                            <circle id="Oval" cx="5" cy="5" r="4"></circle>
                            <circle id="Oval" cx="35" cy="5" r="4"></circle>
                            <circle id="Oval" cx="65" cy="5" r="4"></circle>
                            <circle id="Oval" cx="95" cy="5" r="4"></circle>
                        </g>
                        <g transform="translate(0.000000, 240.000000)" fill="#64C1BE" stroke="#000000" stroke-width="2">
                            <circle id="Oval" cx="5" cy="5" r="4"></circle>
                            <circle id="Oval" cx="35" cy="5" r="4"></circle>
                            <circle id="Oval" cx="65" cy="5" r="4"></circle>
                            <circle id="Oval" cx="95" cy="5" r="4"></circle>
                        </g>
                        <g transform="translate(0.000000, 270.000000)" fill="#64C1BE" stroke="#000000" stroke-width="2">
                            <circle id="Oval" cx="5" cy="5" r="4"></circle>
                            <circle id="Oval" cx="35" cy="5" r="4"></circle>
                            <circle id="Oval" cx="65" cy="5" r="4"></circle>
                            <circle id="Oval" cx="95" cy="5" r="4"></circle>
                            <circle id="Oval" cx="125" cy="5" r="4"></circle>
                        </g>
                        <g transform="translate(0.000000, 300.000000)" fill="#64C1BE" stroke="#000000" stroke-width="2">
                            <circle id="Oval" cx="5" cy="5" r="4"></circle>
                            <circle id="Oval" cx="35" cy="5" r="4"></circle>
                            <circle id="Oval" cx="65" cy="5" r="4"></circle>
                            <circle id="Oval" cx="95" cy="5" r="4"></circle>
                            <circle id="Oval" cx="125" cy="5" r="4"></circle>
                            <circle id="Oval" cx="155" cy="5" r="4"></circle>
                        </g>
                        <g transform="translate(0.000000, 330.000000)" fill="#64C1BE" stroke="#000000" stroke-width="2">
                            <circle id="Oval" cx="5" cy="5" r="4"></circle>
                            <circle id="Oval" cx="35" cy="5" r="4"></circle>
                            <circle id="Oval" cx="65" cy="5" r="4"></circle>
                            <circle id="Oval" cx="95" cy="5" r="4"></circle>
                            <circle id="Oval" cx="125" cy="5" r="4"></circle>
                            <circle id="Oval" cx="155" cy="5" r="4"></circle>
                        </g>
                    </g>
                </g>
            </g>
        </g>
    </g>
</svg>