<?xml version="1.0" encoding="UTF-8"?>
<svg width="142px" height="142px" viewBox="0 0 142 142" version="1.1" xmlns="http://www.w3.org/2000/svg" xmlns:xlink="http://www.w3.org/1999/xlink">
    <!-- Generator: Sketch 60 (88103) - https://sketch.com -->
    <title>Group</title>
    <desc>Created with Sketch.</desc>
    <defs>
        <path d="M17.3607173,1.04911427 L1.04911427,17.3607173 C0.377377683,18.0324538 -5.60428082e-16,18.9435242 0,19.8935031 L0,134.577106 C2.42263161e-16,136.555335 1.60367133,138.159006 3.58190016,138.159006 L118.265503,138.159006 C119.215482,138.159006 120.126552,137.781628 120.798289,137.109892 L137.109892,120.798289 C137.781628,120.126552 138.159006,119.215482 138.159006,118.265503 L138.159006,3.58190016 C138.159006,1.60367133 136.555335,1.4129621e-15 134.577106,0 L19.8935031,0 C18.9435242,5.45915124e-15 18.0324538,0.377377683 17.3607173,1.04911427 Z" id="path-1"></path>
        <filter x="-3.3%" y="-1.1%" width="104.3%" height="104.3%" filterUnits="objectBoundingBox" id="filter-2">
            <feOffset dx="-3" dy="3" in="SourceAlpha" result="shadowOffsetOuter1"></feOffset>
            <feComposite in="shadowOffsetOuter1" in2="SourceAlpha" operator="out" result="shadowOffsetOuter1"></feComposite>
            <feColorMatrix values="0 0 0 0 0   0 0 0 0 0   0 0 0 0 0  0 0 0 0.07 0" type="matrix" in="shadowOffsetOuter1"></feColorMatrix>
        </filter>
        <linearGradient x1="49.8428919%" y1="93.291804%" x2="49.8428919%" y2="-6.73470893%" id="linearGradient-3">
            <stop stop-color="#3FE7FF" offset="0%"></stop>
            <stop stop-color="#5781FF" offset="100%"></stop>
        </linearGradient>
        <linearGradient x1="453.236746%" y1="17.3880096%" x2="-14.7890435%" y2="52.8796163%" id="linearGradient-4">
            <stop stop-color="#3FE7FF" offset="0%"></stop>
            <stop stop-color="#5781FF" offset="100%"></stop>
        </linearGradient>
        <linearGradient x1="370.350986%" y1="23.607767%" x2="-110.116611%" y2="59.4330097%" id="linearGradient-5">
            <stop stop-color="#3FE7FF" offset="0%"></stop>
            <stop stop-color="#5781FF" offset="100%"></stop>
        </linearGradient>
        <linearGradient x1="460.597419%" y1="23.9820345%" x2="-133.801566%" y2="62.8969896%" id="linearGradient-6">
            <stop stop-color="#3FE7FF" offset="0%"></stop>
            <stop stop-color="#5781FF" offset="100%"></stop>
        </linearGradient>
        <linearGradient x1="297.398255%" y1="33.5444882%" x2="-299.710179%" y2="72.7462833%" id="linearGradient-7">
            <stop stop-color="#3FE7FF" offset="0%"></stop>
            <stop stop-color="#5781FF" offset="100%"></stop>
        </linearGradient>
        <linearGradient x1="222.462186%" y1="35.4375%" x2="-199.909301%" y2="71.0144231%" id="linearGradient-8">
            <stop stop-color="#3FE7FF" offset="0%"></stop>
            <stop stop-color="#5781FF" offset="100%"></stop>
        </linearGradient>
        <linearGradient x1="111.081679%" y1="45.8586371%" x2="-530.881881%" y2="92.6415214%" id="linearGradient-9">
            <stop stop-color="#3FE7FF" offset="0%"></stop>
            <stop stop-color="#5781FF" offset="100%"></stop>
        </linearGradient>
        <linearGradient x1="201.904873%" y1="39.2311054%" x2="-407.565671%" y2="86.1125677%" id="linearGradient-10">
            <stop stop-color="#3FE7FF" offset="0%"></stop>
            <stop stop-color="#5781FF" offset="100%"></stop>
        </linearGradient>
        <linearGradient x1="161.381714%" y1="31.2854369%" x2="-46.6265812%" y2="67.1106796%" id="linearGradient-11">
            <stop stop-color="#3FE7FF" offset="0%"></stop>
            <stop stop-color="#5781FF" offset="100%"></stop>
        </linearGradient>
        <linearGradient x1="333.066622%" y1="23.8090909%" x2="-186.380165%" y2="71.7311688%" id="linearGradient-12">
            <stop stop-color="#3FE7FF" offset="0%"></stop>
            <stop stop-color="#5781FF" offset="100%"></stop>
        </linearGradient>
    </defs>
    <g id="v3" stroke="none" stroke-width="1" fill="none" fill-rule="evenodd">
        <g id="Sourcing" transform="translate(-131.000000, -7833.000000)">
            <g id="Group-15" transform="translate(0.000000, 6997.000000)">
                <g id="Group" transform="translate(134.000000, 836.000000)">
                    <g id="Group-30" transform="translate(0.000000, 0.361901)">
                        <g id="Path-17">
                            <use fill="black" fill-opacity="1" filter="url(#filter-2)" xlink:href="#path-1"></use>
                            <path stroke="#1F1B24" stroke-width="2" d="M18.067824,1.75622105 L1.75622105,18.067824 C1.27202084,18.5520242 1,19.2087407 1,19.8935031 L1,134.577106 C1,136.00305 2.15595608,137.159006 3.58190016,137.159006 L118.265503,137.159006 C118.950266,137.159006 119.606982,136.886985 120.091182,136.402785 L136.402785,120.091182 C136.886985,119.606982 137.159006,118.950266 137.159006,118.265503 L137.159006,3.58190016 C137.159006,2.15595608 136.00305,1 134.577106,1 L19.8935031,1 C19.2087407,1 18.5520242,1.27202084 18.067824,1.75622105 Z" stroke-linejoin="square" fill="#D8D8D8" fill-rule="evenodd"></path>
                        </g>
                        <rect id="Rectangle" stroke="#1F1B24" stroke-width="2" fill="#FFFFFF" fill-rule="nonzero" x="19.4212008" y="1" width="117.737805" height="117.737805"></rect>
                        <g id="Parkplace-logo-color" transform="translate(34.000000, 42.638099)" fill-rule="nonzero">
                            <g id="Icon" fill="url(#linearGradient-3)">
                                <g id="Oval_6-3">
                                    <path d="M17.4,34.7 C14.4,34.7 11.4,33.9 8.8,32.4 L12,23.6 L17.8,23.6 C18.8,23.6 19.8,23.4 20.8,23 C21.8,22.6 22.8,22.1 23.6,21.5 C24.5,20.8 25.3,20.1 26,19.2 C26.7,18.3 27.2,17.4 27.6,16.4 C28,15.5 28.1,14.5 28,13.5 C28,13.1 27.9,12.6 27.7,12.2 C27.6,11.8 27.4,11.5 27.2,11.1 C26.2,9.8 24.6,9.1 23,9.2 L10.3,9.2 L8.9,13.1 L10.4,13.1 C11.8,13.1 13.2,13.6 14.4,14.4 L16.5,16 L18.4,16 C20.4,16 22.1,17.6 22.3,19.6 C22.3,19.7 22.3,19.8 22.2,19.8 C22.1,19.9 22.1,19.9 22,19.9 L20.8,19.9 C20.8,19.7 20.9,19.6 20.9,19.4 C20.9,18.2 20,17.3 18.8,17.3 L18.8,17.3 L18.8,17.3 C18.7,17.3 18.6,17.3 18.6,17.3 C18.3,17.3 17.9,17.5 17.6,17.7 C17.3,17.9 17.1,18.2 16.9,18.5 C16.7,18.9 16.6,19.4 16.7,19.9 L14.8,19.9 C12.4,19.9 10,20.6 8.1,22 C7.1,22.7 6.3,23.5 5.6,24.5 C4.9,25.5 4.3,26.6 3.9,27.7 C3.9,27.9 3.8,28 3.8,28.2 C2,26 0.8,23.4 0.3,20.6 C0.1,19.4 0,18.2 0,17 C0.1,13.7 1.1,10.4 3,7.7 C4.2,5.9 5.7,4.4 7.5,3.1 C8.4,2.5 9.3,1.9 10.3,1.5 C12.3,0.6 14.5,0.1 16.8,-4.4408921e-16 L17.4,-4.4408921e-16 C18.6,-4.4408921e-16 19.8,0.1 21,0.4 C23.3,0.9 25.4,1.8 27.3,3.1 C30.1,5.1 32.3,7.8 33.6,11 C34,12.1 34.3,13.2 34.6,14.3 C34.8,15.5 34.9,16.7 34.8,17.9 C34.7,20.1 34.2,22.3 33.3,24.4 C32.8,25.4 32.3,26.3 31.7,27.2 C29.8,29.9 27.2,32 24.2,33.3 C22.1,34.2 19.9,34.6 17.7,34.7 L17.4,34.7 Z M11.1,13.9 L11.1,15.9 C11.1,16.1 11.3,16.3 11.5,16.3 L11.5,16.3 L15.4,16.3 C15.5,16.3 15.6,16.2 15.5,16.1 C15.5,16.1 15.5,16 15.4,16 L13.8,14.8 C13,14.3 12,14 11.1,13.9 L11.1,13.9 Z M18.8,20.9 C17.9,20.9 17.2,20.2 17.2,19.3 C17.2,18.4 17.9,17.7 18.8,17.7 C19.7,17.7 20.4,18.4 20.4,19.3 C20.4,20.2 19.7,20.9 18.8,20.9 L18.8,20.9 Z M18.8,18.6 C18.4,18.6 18.1,18.9 18.1,19.3 C18.1,19.7 18.4,20 18.8,20 C19.2,20 19.5,19.7 19.5,19.3 C19.5,18.9 19.2,18.6 18.8,18.6 C18.8,18.6 18.8,18.6 18.8,18.6 Z" id="Mask-4"></path>
                                </g>
                            </g>
                            <path d="M38.8,16 C38.9,15.7 38.9,15.3 39,15 C39.7,12.1 40.3,9.1 40.9,6.2 C41,6 41,5.9 41,5.7 C41,5.5 41,5.6 41.1,5.6 L45.5,5.6 C46,5.6 46.6,5.7 47,5.9 C48.1,6.4 48.8,7.5 48.7,8.7 C48.6,9.5 48.3,10.3 47.8,10.9 C47.2,11.5 46.5,12 45.6,12.1 C45.2,12.2 44.8,12.2 44.4,12.2 L41.9,12.2 C41.8,12.2 41.7,12.2 41.7,12.3 C41.5,13.4 41.2,14.5 41,15.7 C41,15.8 40.9,15.9 40.8,15.8 L38.8,16 L38.8,16 Z M42.2,10.4 L44,10.4 C44.2,10.4 44.5,10.4 44.7,10.4 C45.2,10.4 45.7,10.1 46,9.7 C46.3,9.3 46.4,8.9 46.3,8.4 C46.2,7.8 45.6,7.4 45,7.4 L42.9,7.4 C42.8,7.4 42.8,7.4 42.8,7.5 C42.7,8.1 42.5,8.7 42.4,9.4 C42.3,9.8 42.3,10.1 42.2,10.4 L42.2,10.4 Z" id="Shape" fill="url(#linearGradient-4)"></path>
                            <path d="M49.9,30.7 C50,30.1 50.2,29.5 50.3,28.9 L51.7,22.6 C51.9,21.9 52,21.2 52.2,20.5 C52.2,20.4 52.3,20.4 52.3,20.4 C52.3,20.4 52.3,20.4 52.3,20.4 L56.6,20.4 C57.3,20.4 58,20.5 58.6,20.9 C59.3,21.3 59.8,22.1 59.8,22.9 C60,24.4 59.2,25.9 57.8,26.5 C57.3,26.8 56.6,27 56,27 C55,27 54,27 53,27 C52.9,27 52.8,27 52.8,27.1 C52.6,28.2 52.3,29.3 52.1,30.5 C52.1,30.6 52.1,30.6 51.9,30.6 L49.9,30.7 L49.9,30.7 Z M53.4,25.1 L55.7,25.1 C55.9,25.1 56,25.1 56.2,25.1 C56.8,25 57.3,24.5 57.5,23.9 C57.7,23.3 57.4,22.6 56.8,22.4 C56.6,22.3 56.5,22.3 56.3,22.3 C55.6,22.3 54.8,22.3 54.1,22.3 C54,22.3 54,22.3 54,22.4 C53.9,23 53.8,23.6 53.6,24.2 C53.5,24.4 53.4,24.7 53.4,25.1 Z" id="Shape" fill="url(#linearGradient-5)"></path>
                            <path d="M55.2,15.9 L53.2,15.9 L53.4,15 L53.1,15.3 C52.1,16.2 50.5,16.3 49.4,15.4 C48.9,15 48.6,14.5 48.5,13.9 C48.1,12.2 48.6,10.4 49.8,9.2 C50.8,8.2 52.3,7.9 53.6,8.4 C54,8.6 54.3,8.9 54.6,9.2 L54.6,9.2 L54.6,9.2 C54.7,8.9 54.7,8.7 54.8,8.4 C54.9,8.1 54.8,8.2 55,8.2 L57,8.2 L55.2,15.9 Z M52.2,14.4 C52.8,14.3 53.3,14.1 53.7,13.6 C53.7,13.6 53.8,13.5 53.8,13.4 C54,12.6 54.2,11.8 54.3,11 C54.3,10.9 54.3,10.9 54.3,10.8 C53.6,9.9 52.2,9.8 51.4,10.5 C51.4,10.5 51.4,10.5 51.3,10.5 C50.7,11.1 50.4,11.9 50.5,12.8 C50.6,13.8 51.4,14.4 52.2,14.4 L52.2,14.4 Z" id="Shape" fill="url(#linearGradient-6)"></path>
                            <path d="M70.1,24.2 L70.3,23.2 L72.3,23.2 L70.6,30.7 L68.6,30.7 L68.8,29.8 L68.5,30 C67.4,31 65.8,31.1 64.7,30.2 C64.2,29.8 63.9,29.2 63.8,28.6 C63.5,27 63.9,25.4 65,24.2 C65.7,23.4 66.8,22.9 67.8,23 C68.7,23 69.5,23.4 70.1,24.2 L70.1,24.2 Z M65.8,27.3 C65.8,27.4 65.8,27.5 65.8,27.7 C65.9,28.5 66.6,29.1 67.4,29.1 C68.1,29.1 68.7,28.8 69.1,28.3 C69.1,28.3 69.2,28.2 69.2,28.2 C69.4,27.4 69.5,26.6 69.7,25.8 C69.7,25.7 69.7,25.7 69.7,25.6 C69,24.7 67.6,24.6 66.7,25.3 C66.7,25.3 66.7,25.3 66.7,25.3 C66.1,25.8 65.8,26.5 65.8,27.3 Z" id="Shape" fill="url(#linearGradient-7)"></path>
                            <path d="M67.9,11.9 L70.1,16 L67.8,16 C67.7,16 67.6,16 67.6,15.9 C67.2,15 66.8,14.1 66.4,13.2 L66.3,13 L66.2,13.1 L65.2,14 C65.2,14 65.1,14.1 65.1,14.1 C65,14.7 64.9,15.2 64.7,15.8 C64.7,15.9 64.6,15.9 64.5,15.9 L62.7,15.9 C62.7,15.8 62.7,15.6 62.8,15.5 L64.3,8.6 C64.5,7.6 64.7,6.7 64.9,5.7 C64.9,5.6 64.9,5.6 65,5.6 L67,5.6 L65.7,11.6 L65.7,11.6 L65.8,11.5 L69,8.5 C69,8.5 69.1,8.4 69.2,8.4 L71.6,8.4 L67.9,11.9 Z" id="Path" fill="url(#linearGradient-8)"></path>
                            <path d="M88.1,27.5 L82.6,27.5 C82.6,27.8 82.6,28.1 82.8,28.3 C83.1,28.8 83.6,29.1 84.1,29.2 C84.9,29.3 85.8,29.2 86.5,28.7 L87.1,30.1 C86.9,30.2 86.7,30.3 86.5,30.4 C85.2,31 83.7,31 82.4,30.4 C81.4,30 80.6,29 80.6,27.9 C80.5,26.6 80.9,25.3 81.8,24.4 C82.5,23.6 83.5,23.1 84.6,23 C85.2,22.9 85.9,23 86.5,23.3 C87.4,23.7 88.1,24.5 88.3,25.5 C88.4,26.1 88.4,26.8 88.2,27.4 C88.1,27.5 88.1,27.5 88.1,27.5 Z M86.4,26.2 C86.5,25.5 86.1,24.9 85.5,24.7 C84.7,24.4 83.8,24.6 83.2,25.3 C82.9,25.6 82.8,25.9 82.7,26.3 L86.4,26.2 Z" id="Shape" fill="url(#linearGradient-9)"></path>
                            <path d="M80.2,24.5 L78.8,25.6 C78.7,25.4 78.5,25.3 78.3,25.1 C77.7,24.7 76.9,24.6 76.2,25 C75.2,25.6 74.6,26.7 74.9,27.9 C75.1,28.6 75.6,29 76.2,29.1 C76.9,29.3 77.7,29 78.2,28.5 L78.3,28.4 L78.6,28.8 C78.8,29.1 79,29.4 79.3,29.6 C79.3,29.6 79.4,29.7 79.3,29.7 C79.3,29.7 79.3,29.7 79.3,29.7 C78.7,30.3 77.9,30.7 77.1,30.8 C76.2,30.9 75.4,30.8 74.6,30.4 C73.7,30 73,29.1 72.9,28.1 C72.6,26.3 73.5,24.4 75.1,23.5 C75.9,23 76.9,22.9 77.8,23 C78.4,23.1 79.1,23.3 79.6,23.7 C79.8,23.9 80.1,24.2 80.2,24.5 Z" id="Path" fill="url(#linearGradient-10)"></path>
                            <path d="M59.5,30.6 L61.8,20.3 L63.8,20.3 C63.8,20.5 63.7,20.6 63.7,20.8 C63.2,22.7 62.8,24.6 62.4,26.6 L61.5,30.5 C61.5,30.6 61.5,30.6 61.4,30.6 L59.5,30.6 L59.5,30.6 Z" id="Path" fill="url(#linearGradient-11)"></path>
                            <path d="M58.8,8.5 L60.8,8.5 L60.6,9.4 C61.3,8.7 62.2,8.3 63.2,8.3 L62.8,10.3 L62.3,10.2 C61.6,10.2 60.9,10.4 60.4,10.9 C60.3,11 60.2,11.2 60.2,11.5 C59.9,13 59.6,14.5 59.2,15.9 C59.2,15.9 59.2,16 59.2,16 L57.2,16 L58.8,8.5 Z" id="Path" fill="url(#linearGradient-12)"></path>
                        </g>
                        <path d="M1.53510007,136.623906 L19.9563009,118.202705 L1.53510007,136.623906 Z" id="Path-18" stroke="#1F1B24" stroke-width="2"></path>
                    </g>
                </g>
            </g>
        </g>
    </g>
</svg>