<svg xmlns="http://www.w3.org/2000/svg" width="27" height="36" viewBox="0 0 27 36">
    <g fill="none" stroke="#000" stroke-width="1.05" transform="rotate(-45 25.1 13.225)">
        <path fill="#D8D8D8" d="M6.82 8.52l4.82 8.573c4.381-1.504 8.988-3.414 12.275-6.68 2.917-2.896 5.006-6.105 6.27-9.628-4.952-.863-9.414-.509-13.383 1.063-2.133.845-5.46 3.069-9.983 6.672z"/>
        <path fill="#D8D8D8" d="M13.24 16.633c.6 1.33.907 2.458.925 3.382.018.924-.23 2.395-.741 4.414 3.398-2.236 5.601-4.083 6.609-5.54 1.007-1.458 1.492-3.564 1.455-6.319-1.832 1.126-3.206 1.907-4.123 2.345-.917.438-2.292 1.01-4.125 1.718zM8.182 7.42C7.238 6.185 6.37 5.33 5.58 4.852c-.791-.478-2.189-1-4.194-1.565C5.021 1.462 7.722.477 9.49.333c1.766-.144 3.845.494 6.237 1.912-1.794 1.092-3.115 1.928-3.963 2.51-.847.58-2.04 1.47-3.58 2.665z"/>
        <path fill="#F1A4AB" d="M5.431 17.428c-.728.387-2.48.528-5.256.423 1.374-2.532 2.425-3.991 3.153-4.379 1.093-.58 2.449-.166 3.03.927.58 1.092.166 2.448-.927 3.029z"/>
        <circle cx="21.005" cy="5.851" r="2.24" fill="#4A90E2"/>
        <path d="M28.62 4.343L30.244.774l-1.624 3.57z"/>
    </g>
</svg>
