<svg xmlns="http://www.w3.org/2000/svg" width="25" height="30" viewBox="0 0 25 30">
    <g fill="none" fill-rule="evenodd">
        <path fill="#D9D9D9" fill-rule="nonzero" stroke="#000" stroke-width=".884" d="M1.759 24.202v4.392c0 .488.396.884.884.884h18.854c.488 0 .884-.396.884-.884v-4.392H1.76z"/>
        <rect width="23.256" height="25.516" x=".442" y=".442" fill="#D9D9D9" fill-rule="nonzero" stroke="#000" stroke-width=".884" rx="1.326"/>
        <rect width="17.111" height="12.756" x="3.514" y="3.522" fill="#FFF" fill-rule="nonzero" stroke="#000" stroke-width=".884" rx="1.326"/>
        <g>
            <path fill="#000" d="M4.368 6.965c1.755 0 3.437-.937 4.4-2.491l-.762-.514C7.12 5.388 5.504 6.184 3.884 5.99c-1.262-.152-2.43-.911-3.122-2.03L0 4.474C.839 5.828 2.252 6.746 3.78 6.93c.196.023.392.035.588.035z" transform="translate(7.9 6.6)"/>
            <path fill="#D8D8D8" fill-rule="nonzero" stroke="#000" stroke-width=".5" d="M1.567.25H2.567V1.51H1.567zM6.834.25H7.834V1.51H6.834zM4.2.25H5.2V4.15H4.2z" transform="translate(7.9 6.6)"/>
        </g>
        <path fill-rule="nonzero" stroke="#000" stroke-width=".884" d="M14.923 20.46h6.145M3.072 21.78h2.195"/>
    </g>
</svg>
