<svg xmlns="http://www.w3.org/2000/svg" width="30" height="30" viewBox="0 0 30 30">
    <g fill="none" stroke="#000" stroke-width="1.02">
        <path fill="#F1A4AB" d="M11.73 5.61h5.78V3.4c0-1.596-1.294-2.89-2.89-2.89s-2.89 1.294-2.89 2.89v2.21z"/>
        <rect width="23.46" height="23.46" x="2.89" y="5.61" fill="#64C1BE" rx="4.42"/>
        <circle cx="8.5" cy="14.62" r="2.72" fill="#FFF"/>
        <path fill="#FAD843" d="M15.094 15.908l1.66 3.32c.084.168.016.372-.152.456-.047.024-.1.036-.152.036h-3.32c-.188 0-.34-.152-.34-.34 0-.053.012-.105.036-.152l1.66-3.32c.084-.168.288-.236.456-.152.066.033.12.086.152.152z"/>
        <rect width="11.22" height="3.4" x="9.18" y="21.76" fill="#FFF" rx="1.7"/>
        <circle cx="20.74" cy="14.62" r="2.72" fill="#FFF"/>
        <path fill="#F1A4AB" d="M26.35 13.43v7.82h1.53c.47 0 .85-.38.85-.85v-6.12c0-.47-.38-.85-.85-.85h-1.53zM2.89 21.25v-7.82H1.02c-.282 0-.51.228-.51.51v6.8c0 .282.228.51.51.51h1.87z"/>
        <g stroke-linecap="square">
            <path d="M3.23 0v3.294M.34 0v3.294M6.12 0v3.294" transform="translate(11.56 21.76)"/>
        </g>
    </g>
</svg>
