<svg xmlns="http://www.w3.org/2000/svg" width="31" height="34" viewBox="0 0 31 34">
    <g fill="none" stroke="#000">
        <path fill="#D4C8BA" stroke-width="1.23" d="M10.32 7.88L6.57 2.03c-.74-1.223 3.322-3.536 8.699-.616 3.541 2.06 8.534-2.105 7.467-.265-.662 1.03-1.815 3.259-3.46 6.689 6.802 5.948 10.047 12.274 9.736 18.98-.172 2.378-2.7 4.673-4.574 5.006-.93.208-18.808.208-19.659 0-3.464-.387-4.445-3.842-4.445-5.61.108-7.132 3.437-13.243 9.986-18.334z" transform="translate(1 1)"/>
        <path fill="#000" stroke-width=".5" d="M15.35 25.732c1.568-.178 2.652-1.134 2.62-3.035-.035-2.152-1.413-2.835-2.725-3.328l-.064-3.896c1.179.083 1.659.609 1.942.613.282.005.449-.369.446-.573-.01-.519-1.272-.932-2.404-.998l-.008-.456c-.002-.157-.193-.301-.366-.304-.204-.004-.36.135-.357.292l.009.487c-1.366.072-2.848.676-2.815 2.655.033 2.011 1.518 2.507 2.909 3.017l.075 4.571c-1.948-.079-2.315-1.326-2.692-1.332-.235-.004-.466.322-.461.573.009.566 1.19 1.7 3.17 1.75l.01.565c.002.157.161.301.366.304.172.003.358-.135.356-.292l-.01-.613zm-2.92-8.68c-.045-1.138.83-1.517 1.795-1.556l.14 3.565c-1.012-.393-1.888-.811-1.935-2.01zm3.019 7.785l-.168-4.373c.977.437 1.782.996 1.835 2.39.046 1.185-.553 1.85-1.667 1.983z" transform="translate(1 1)"/>
    </g>
</svg>
