<svg xmlns="http://www.w3.org/2000/svg" width="50" height="50" viewBox="0 0 50 50">
    <g fill="none" fill-rule="evenodd">
        <circle cx="25" cy="25" r="23.5" fill="#4A90E2" stroke="#000" stroke-width="3"/>
        <path fill="#FFF" fill-rule="nonzero" d="M20.696 29.08c-.048.264-.048.384-.048.504 0 1.176.864 1.8 2.544 1.8 1.92 0 3.288-.84 3.288-2.688 0-1.608-1.44-1.8-2.832-1.8H21.92l.36-2.568h1.992c1.416 0 2.76-.816 2.76-2.448 0-1.176-.936-1.728-2.256-1.728-1.368 0-2.568.744-2.784 2.136H18.8c.192-3.072 3.024-4.992 6.408-4.992h.48c2.976 0 4.968 1.632 4.968 3.888 0 2.112-1.344 3.504-2.976 4.2l-.024.12c1.464.504 2.352 1.584 2.352 3.264 0 3.408-3.024 5.472-6.696 5.472h-.648c-3.528 0-5.352-1.704-5.352-4.08 0-.384.072-.84.12-1.08h3.264z"/>
    </g>
</svg>
