<?xml version="1.0" encoding="UTF-8"?>
<svg width="1129px" height="508px" viewBox="0 0 1129 508" version="1.1" xmlns="http://www.w3.org/2000/svg" xmlns:xlink="http://www.w3.org/1999/xlink">
    <!-- Generator: Sketch 60 (88103) - https://sketch.com -->
    <title>Group 4</title>
    <desc>Created with Sketch.</desc>
    <defs>
        <path d="M330.271484,73.1691058 C362.869952,56.7483328 394.864855,62.8065509 409.897748,73.1691058 C433.880109,89.8108876 431.478618,111.808799 431.478618,111.808799 C426.829637,148.913977 397.708002,140.0472 370.03125,143.493325 C342.354498,146.939449 334.372957,154.510277 325.225457,160.87955 C316.077957,167.248822 302.046557,190.102645 271.647049,227.981587 C241.247542,265.86053 216.56984,277.432583 169.953125,277.413271 C123.33641,277.39391 91.6438963,259.237483 87.6624133,227.981587 C83.6809303,196.725692 98.2873956,178.984984 126.611328,168.585121 C154.935261,158.185258 208.34375,165.522621 235.113281,159.739418 C261.882812,153.956215 281.707968,100.621037 330.271484,73.1691058 Z M85.78125,229.189696 C86.3984539,234.219266 87.3300946,238.296876 88.5761719,241.422526 C89.8222492,244.548176 91.9153482,248.057797 94.8554687,251.951389 C82.8869076,261.169247 63.2216366,267.613765 35.8596557,271.284944 C30.0783463,272.535938 25.0179802,266.989755 30.0783463,262.572266 C50.6747005,253.451823 69.2423351,242.3243 85.78125,229.189696 Z M299.636475,197.182861 C314.388321,208.532125 326.445523,226.893117 335.808081,252.265837 C338.857305,261.430286 332.943056,266.872689 327.972498,261.430286 C312.827836,238.074238 298.74907,222.545278 285.736201,214.843406 L285.736201,214.843406 Z" id="path-1"></path>
    </defs>
    <g id="v3" stroke="none" stroke-width="1" fill="none" fill-rule="evenodd">
        <g id="Sourcing" transform="translate(-182.000000, -3581.000000)">
            <g id="Group-4" transform="translate(177.000000, 3583.000000)">
                <path d="M1067.06253,177.502182 L1063.028,178.530507 C1061.05698,179.032882 1059.0519,177.842313 1058.54953,175.871297 C1058.39739,175.274419 1058.39739,174.648916 1058.54953,174.052038 L1059.57785,170.017507 C1059.90831,168.720982 1059.90831,167.362279 1059.57785,166.065754 L1058.54953,162.031223 C1058.04715,160.060207 1059.23772,158.055128 1061.20874,157.552754 C1061.80561,157.400621 1062.43112,157.400621 1063.028,157.552754 L1067.06253,158.581079 C1068.35905,158.911539 1069.71775,158.911539 1071.01428,158.581079 L1075.04881,157.552754 C1077.01983,157.050379 1079.02491,158.240948 1079.52728,160.211964 C1079.67941,160.808842 1079.67941,161.434345 1079.52728,162.031223 L1078.49895,166.065754 C1078.16849,167.362279 1078.16849,168.720982 1078.49895,170.017507 L1079.52728,174.052038 C1080.02965,176.023054 1078.83908,178.028133 1076.86807,178.530507 C1076.27119,178.68264 1075.64569,178.68264 1075.04881,178.530507 L1071.01428,177.502182 C1069.71775,177.171723 1068.35905,177.171723 1067.06253,177.502182 Z" id="Star-Copy-3" stroke="#000000" stroke-width="3" fill="#FAD843" fill-rule="nonzero" transform="translate(1069.038403, 168.041631) rotate(-315.000000) translate(-1069.038403, -168.041631) "></path>
                <path d="M1110.06253,231.03092 L1103.19957,232.780158 C1100.30102,233.518944 1097.35237,231.768107 1096.61358,228.869554 C1096.38986,227.991792 1096.38986,227.071936 1096.61358,226.194174 L1098.36282,219.331216 C1098.69328,218.03469 1098.69328,216.675988 1098.36282,215.379462 L1096.61358,208.516504 C1095.8748,205.617952 1097.62563,202.669306 1100.52419,201.93052 C1101.40195,201.706795 1102.32181,201.706795 1103.19957,201.93052 L1110.06253,203.679758 C1111.35905,204.010217 1112.71775,204.010217 1114.01428,203.679758 L1120.87724,201.93052 C1123.77579,201.191734 1126.72444,202.942571 1127.46322,205.841124 C1127.68695,206.718886 1127.68695,207.638742 1127.46322,208.516504 L1125.71398,215.379462 C1125.38352,216.675988 1125.38352,218.03469 1125.71398,219.331216 L1127.46322,226.194174 C1128.20201,229.092726 1126.45117,232.041372 1123.55262,232.780158 C1122.67486,233.003883 1121.755,233.003883 1120.87724,232.780158 L1114.01428,231.03092 C1112.71775,230.700461 1111.35905,230.700461 1110.06253,231.03092 Z" id="Star-Copy-3" stroke="#000000" stroke-width="3" fill="#FAD843" fill-rule="nonzero" transform="translate(1112.038403, 217.355339) rotate(-315.000000) translate(-1112.038403, -217.355339) "></path>
                <g id="Group-2" transform="translate(74.996772, 67.000000)" fill="#FFFFFF" fill-rule="nonzero" stroke="#000000" stroke-width="3">
                    <path d="M34.3246522,77 C115.09544,77 155.480834,77 155.480834,77 C167.748512,76.1266952 171,68.2318136 171,54.0227248 C171,44.2536822 163.60145,36.6297024 155.480834,33.0428223 C147.966137,29.7235772 136.045502,28.0426584 128.413497,28.0426584 C128.413497,28.0426584 125.503953,0 95.7929405,0 C75.985599,0 65.1358929,11.0142741 63.2438223,33.0428223 C45.9989067,29.036312 32.7790255,30.241408 23.5841787,36.6581106 C14.3893318,43.0748131 11.1035176,52.1379235 13.7267361,63.8474417 C3.0848587,63.9434197 -1.36930115,68.3276058 0.364256567,77 C0.364256567,77 11.6843884,77 34.3246522,77 Z" id="Path-2"></path>
                </g>
                <g id="Group" transform="translate(500.996772, 111.000000)">
                    <path d="M111.747563,181.99407 C102.835024,146.91501 79.8480451,125.257784 42.7866254,117.02239 C2.41140543,109.40734 -9.79533016,146.484452 7.89783449,157.032549 C19.9755398,164.445177 34.1795347,163.213673 50.5098192,153.338037 C44.3422066,161.492456 44.3422066,168.163968 50.5098192,173.352573 C58.7621649,179.113571 69.6896274,177.514509 83.2922066,168.555388 C75.3777235,174.642715 73.013782,180.410196 76.2003819,185.85783 C80.0612678,192.165401 88.6137787,193.415566 101.857914,189.608328 L111.747563,181.99407 Z" id="Path-9" stroke="#000000" stroke-width="3" fill="#F1A4AB" fill-rule="nonzero"></path>
                    <path d="M361,66.5620117 L373.666016,4.27490234 C374.089844,1.42496745 375.251953,7.81597009e-14 377.152344,7.81597009e-14 C379.052734,7.81597009e-14 380.00293,1.42496745 380.00293,4.27490234 L377.152344,68.2701933 L361,66.5620117 Z" id="Path-10" stroke="#000000" stroke-width="3" fill="#FAD843" fill-rule="nonzero"></path>
                    <path d="M355.897879,65.4262086 C334.503348,56.4392294 316.806082,54.6410523 302.806082,60.0316773 C298.301746,62.5483665 299.841134,66.4315046 307.424246,71.6810914 C274.652762,80.4232789 256.094168,88.2029013 251.748465,95.0199586 C247.402762,101.837016 251.908296,105.891378 265.265067,107.183045 C253.809055,112.235139 247.34942,115.720165 245.886161,117.638123 C243.597749,120.767029 245.551851,123.187602 251.748465,124.899841 C231.987239,131.675209 222.413671,138.850339 223.027762,146.425232 C223.923595,152.874451 234.340262,156.09906 254.277762,156.09906 L355.897879,65.4262086 Z" id="Path-11" stroke="#000000" stroke-width="3" fill="#F1A4AB" fill-rule="nonzero"></path>
                    <mask id="mask-2" fill="white">
                        <use xlink:href="#path-1"></use>
                    </mask>
                    <path stroke="#000000" stroke-width="3" d="M329.533338,71.8632959 L329.596671,71.8294688 C345.020812,64.0598918 361.232697,60.7852007 376.752999,61.6275623 C390.188082,62.3567489 402.450733,66.213841 410.752903,71.9367467 C421.524462,79.4113204 428.017081,88.4931954 431.111735,98.2772661 C432.198704,101.713834 432.78154,104.995761 432.976024,108.01518 C433.094039,109.847376 433.053833,111.201456 432.966981,111.995279 C431.194386,126.142996 425.850102,134.683069 416.81742,139.176584 C409.966463,142.58475 403.43141,143.413503 387.567508,143.907581 C381.091556,144.109273 378.335536,144.228831 374.790533,144.516751 C373.19741,144.646142 371.680996,144.799492 370.216589,144.98183 C352.062671,147.242235 342.089335,150.988445 332.326058,157.683766 C331.598079,158.18299 330.861602,158.701382 329.949114,159.353884 C329.601612,159.602375 328.045492,160.720689 327.623788,161.021886 C327.051534,161.430612 326.558231,161.779352 326.082579,162.110542 C322.18257,164.826062 317.495606,170.35585 307.604841,183.515661 C307.928288,183.08531 296.622361,198.209718 292.752787,203.318117 C286.04191,212.177446 279.659552,220.394239 272.8169,228.920443 C242.356645,266.875079 217.37836,278.932918 169.952502,278.91327 C122.130543,278.89341 90.2257166,259.974951 86.1744371,228.171131 C82.2768911,197.574167 95.6100096,178.370138 126.094314,167.177039 C138.157229,162.747828 153.802249,161.238719 179.6034,160.949783 C182.629514,160.915895 185.001621,160.900232 190.486688,160.872252 C215.446473,160.74493 225.420006,160.298917 234.796533,158.273243 C239.483806,157.260619 244.176656,154.647409 249.247471,150.356146 C254.2392,146.13181 259.248171,140.692014 266.745536,131.664604 C268.357649,129.723494 274.775174,121.903648 276.363144,119.98783 C280.31502,115.220061 283.615783,111.35356 286.951319,107.6271 C300.876346,92.0700608 314.146759,80.5610042 329.533338,71.8632959 Z M36.1159152,272.763997 C36.0969886,272.76654 36.0780583,272.769082 36.0591245,272.771622 L36.1768925,272.751014 C36.1565683,272.755412 36.1362424,272.75974 36.1159152,272.763997 Z M36.1159152,272.763997 C32.8209755,273.454151 29.4907896,272.305132 27.7093288,269.962173 C25.7256195,267.353219 26.1650706,263.997255 29.0918967,261.442258 L29.263147,261.292764 L29.4710016,261.200722 C49.9527689,252.13102 68.4108615,241.069145 84.8483937,228.015056 L86.9441157,226.350709 L87.2700817,229.006994 C87.8727954,233.918484 88.7768431,237.875325 89.9695289,240.867048 C91.1606864,243.854937 93.1872743,247.253035 96.0525217,251.047473 L96.9478744,252.233185 L95.7707379,253.139784 C83.5628821,262.54194 63.6854528,269.05969 36.1159152,272.763997 Z M300.551126,195.993991 C315.552347,207.53511 327.762349,226.128789 337.231366,251.792277 C338.811399,256.541068 338.293505,260.906605 335.989926,263.353766 C333.519831,265.97782 329.777051,265.630429 326.864912,262.441846 L326.781346,262.350347 L326.713928,262.246375 C311.683999,239.067268 297.748073,223.695861 284.972192,216.134254 L283.498037,215.261753 L299.375316,195.089387 L300.551126,195.993991 Z"></path>
                    <path d="M373.244673,88 C372.455016,93.0471579 373.576761,96.262083 376.609907,97.6447754 C379.643054,99.0274678 383.306542,98.0972106 387.60037,94.8540039" id="Path-12" stroke="#000000" stroke-width="3" fill-rule="nonzero" mask="url(#mask-2)"></path>
                    <path d="M413.759977,41.8862574 C400.056042,96.037446 395.5976,132.31479 400.384651,150.718289 C405.171702,169.121788 420.109311,173.130902 445.197477,162.745632 L458.16525,41.8862574 L413.759977,41.8862574 Z" id="Path-13" stroke="#000000" stroke-width="3" fill="#F1A4AB" fill-rule="nonzero" mask="url(#mask-2)" transform="translate(428.345476, 105.125734) rotate(-9.000000) translate(-428.345476, -105.125734) "></path>
                    <path d="M301.433882,246.230281 C280.227072,264.015124 249.675714,279.14233 209.779809,291.611897 L209.779809,291.611897 C198.919332,295.366198 199.126847,307.254739 215.869176,306.067109 C252.295058,302.821198 288.235623,289.390203 323.690871,265.774125" id="Path" stroke="#000000" stroke-width="3" fill="#F7F7F7" fill-rule="nonzero" transform="translate(263.014305, 276.190197) rotate(-89.000000) translate(-263.014305, -276.190197) "></path>
                    <path d="M139.094221,263.128538 C108.225212,279.709102 82.9267664,291.645693 63.1988843,298.938309 C54.1996116,301.908751 59.1883034,311.54721 69.2011539,311.650867 C97.5883874,311.391421 125.898618,302.494908 154.131846,284.96133" id="Path" stroke="#000000" stroke-width="3" fill="#F7F7F7" fill-rule="nonzero" transform="translate(106.315630, 287.389702) rotate(-33.000000) translate(-106.315630, -287.389702) "></path>
                </g>
                <polygon id="Triangle" stroke="#000000" stroke-width="3" fill="#64C1BE" points="368.917786 335.934094 428.191226 310.796423 420.349198 374.66461"></polygon>
                <path d="M108.481614,492.518834 C108.481614,474.109345 93.5577725,459.1855 75.1482806,459.1855 C56.7387895,459.1855 41.8149473,474.109345 41.8149473,492.518834 C41.8149473,492.518834 108.481614,492.518834 108.481614,492.518834 Z" id="Oval" stroke="#000000" stroke-width="3" fill="#4A90E2" transform="translate(75.148281, 475.852167) rotate(252.000000) translate(-75.148281, -475.852167) "></path>
                <polygon id="Rectangle" stroke="#000000" stroke-width="3" fill="#F1A4AB" points="160.996772 347.760941 182.753724 385.443322 220.444457 363.683587 198.687505 326.001206"></polygon>
                <polygon id="Polygon" stroke="#000000" stroke-width="3" fill="#FAD843" transform="translate(37.659965, 286.975853) rotate(23.000000) translate(-37.659965, -286.975853) " points="37.6467265 255.950514 64.3066915 271.474732 64.31993 302.500071 37.6732036 318.001192 11.0132385 302.476975 11 271.451636"></polygon>
                <polygon id="Rectangle" stroke="#000000" stroke-width="3" fill="#FFFFFF" points="315.802139 423 325.825722 430.355479 293.268397 475.615486 283.244813 468.260006"></polygon>
                <g id="Group-2-Copy" transform="translate(907.996772, 0.000000)" fill="#FFFFFF" fill-rule="nonzero" stroke="#000000" stroke-width="3">
                    <path d="M22.2809146,50 C74.711075,50 100.926155,50 100.926155,50 C108.889385,49.432919 111,44.3063725 111,35.0796914 C111,28.7361573 106.197432,23.7855211 100.926155,21.4563781 C96.0481944,19.3010242 88.3102382,18.2095185 83.3561296,18.2095185 C83.3561296,18.2095185 81.4674781,0 62.1813824,0 C49.3239853,0 42.2811936,7.15212604 41.0530074,21.4563781 C29.8589395,18.854748 21.2776131,19.6372779 15.3090282,23.8039679 C9.34044343,27.9706578 7.20754651,33.8557945 8.91033747,41.4593777 C2.00245214,41.5217011 -0.888844603,44.3685752 0.236447245,50 C0.236447245,50 7.58460302,50 22.2809146,50 Z" id="Path-2"></path>
                </g>
            </g>
        </g>
    </g>
</svg>